<?xml version="1.0" encoding="UTF-8" ?>
<!-- Generator: wikimedia.svg.chart, 2013-08-28 -->
<!-- modify viewBox (x,y,dx,dy) for position (x,y) and size (dx,dy) -->
<svg id="head"
  xmlns="http://www.w3.org/2000/svg"
  xmlns:xlink="http://www.w3.org/1999/xlink"
  version="1.1"     
  viewBox="-71.5,-191.6,365.8,241.1"      
  width="750" height="490"
  font-family="Helvetica, Arial"
>

<!-- also a workaround for librsvg: a <rect> must be placed somewhere before text for a good display of text -->
<rect id="imagebackground" x="-71.5" y="-191.6" width="365.8" height="241.1" stroke-width="0.28" stroke="none" fill="white"/>
 
<title>全球鉭產量</title>
<desc>   
  This svg graphic is to edit with an text editor.
  Please do not overwrite this file by saving with an image editor.
  ----------------
 data from http://minerals.usgs.gov/minerals/pubs/mcs/
</desc>

<style id="styles" type="text/css"> <![CDATA[
  .graphgeneral {         /*-- general look of graphs and markers, e.g. in legend --*/
    stroke-width:    1.93;
    fill:            none;
    stroke-linejoin: round;
    stroke-linecap:  round;
  }
  .graphgeneralstretch {  /*-- general look of graphs and markers on a stretched chart --*/ 
    stroke-width:    0.39;
    fill:            none;
    stroke-linejoin: round;
    stroke-linecap:  round;
  } 
  .graph1lineblank { /*-- look of graph 1 --*/
    stroke:           #555555;
  }
  .graph1line {
    stroke:           #555555; 
  }    
  .graph2lineblank { /*-- look of graph 2 --*/
    stroke:          rgb(75%, 10%, 10%);
  }
  .graph2line {
    stroke:          rgb(75%, 10%, 10%); 
  }    
  .graph3lineblank { /*-- look of graph 3 --*/
    stroke:          rgb(00%, 60%, 00%);
  }
  .graph3line {
    stroke:          rgb(00%, 60%, 00%); 
  }  
  .graph4lineblank { /*-- look of graph 4 --*/
    stroke:          rgb(00%, 60%, 60%);
  }
  .graph4line {
    stroke:          rgb(00%, 60%, 60%); 
  }  
  .graph5lineblank { /*-- look of graph 5 --*/
    stroke:          rgb(60%, 00%, 60%);
  }
  .graph5line {
    stroke:          rgb(60%, 00%, 60%); 
  }  
  .graph6lineblank { /*-- look of graph 6 --*/
    stroke:          rgb(60%, 60%, 00%);
  }
  .graph6line {
    stroke:          rgb(60%, 60%, 00%); 
  }  
  .axisline {
    stroke:         black;
    stroke-width:   0.96;
    stroke-linecap: round;
  }
  .titletext {
    font-size:    18.15px;       
  }
  .axistext-x {
    font-size:    16.5px;
  }
  .axistext-x-number {
    font-size:    16.5px;
  }
  .axistext-y {
    font-size:    16.5px;
  }
  .axismark-main {
    stroke:       black;
    stroke-width: 0.67;
  }
  .axismark-second {
    stroke:       black;
    stroke-width: 0.67;
  }  
      
  .gridline {
    stroke:       black;
    stroke-width: 0.48;
  }  
]]></style>

<defs>
  <!--== axis dashes definitions ==-->
  <!-- x-axis mark, modify "height" -->
  <pattern id="x-axismark-main" x="25" width="50" height="5.6" patternUnits="userSpaceOnUse"> 
    <line x1="0" y1="-1" x2="0" y2="5.6" class="axismark-main"/>
  </pattern>
 
  <!-- x-axis 2nd mark, modify "width" and "x1"-->
  <pattern id="x-axismark-second" x="0" width="50" height="5.6" patternUnits="userSpaceOnUse"> 
    <line x1="0" y1="-1" x2="0" y2="5.6" class="axismark-second"/>
  </pattern>
 
   
  <!-- x-axis gridline vertical, modify "width" -->
  <pattern id="x-gridline" height="320" width="50" patternUnits="userSpaceOnUse">  
    <line x1="25" x2="25" y1="0" y2="320" class="gridline"/>
  </pattern>
 
   
  <!-- y-axis gridline horizontal, modify "height" -->
  <pattern id="y-gridline" width="110" height="50" patternUnits="userSpaceOnUse">  
    <line x1="0" x2="110" y1="0" y2="0" class="gridline"/>
  </pattern>

  <!-- y-axis mark, modify "width" -->
  <pattern id="y-axismark-main" width="5.6" height="50" patternUnits="userSpaceOnUse">
    <line x1="-1" y1="0" x2="5.6" y2="0" class="axismark-main"/>    
  </pattern>

  <!-- y-axis2 mark, modify "width" -->
  <pattern id="y-axis2mark-main" width="2.8" height="10" patternUnits="userSpaceOnUse">
    <line x1="-1" y1="0" x2="11" y2="0" class="axismark-main"/>    
  </pattern> 
</defs> 

<g transform="scale(1, -1)">  
   
  <rect id="x-gridline-area" x="0.3" y="0" width="280.5" height="160" fill="url(#x-gridline)"/>
   
  <rect id="y-gridline-area" x="0" y="0.3" width="275" height="163.2" fill="url(#y-gridline)"/>

  <!-- x axis, modify "x2" and "width" -->
  <rect id="x-axismark2" x="-1.4" y="-2.7" width="275" height="2.66" fill="url(#x-axismark-second)"/>
  <rect id="x-axismark" x="3.6" y="-4.9" width="275.5" height="4.9" fill="url(#x-axismark-main)"/>
  <line id="x-axis" x1="0" y1="0" x2="275" y2="0" class="axisline"/>

  <!-- y axis, modify "height" -->
  <rect id="y-axismark" x="-4.9" y="-1.4 " width="4.9" height="161" fill="url(#y-axismark-main)"/>
  <line id="y-axis" x1="0" y1="0" x2="0" y2="160" class="axisline"/> 
</g>

<!-- x axis text, modify each value -->
<g id="axistext-x" class="axistext-x-number" transform="translate(0, 21.5)" text-anchor="middle"> 
  <text x= "25">1970</text>
  <text x= "75">1980</text>
  <text x="125">1990</text>
  <text x="175">2000</text>
  <text x="225">2010</text>
  <text x="275">2020</text>
  <text id="title-x" class="axistext-x" x="137.5" y="21.5" >年份</text> 
</g>

<!-- y axis text, modify each value -->
<g id="axistext-y" class="axistext-y" text-anchor="end" transform="translate(-8.3, 4.1)"> 
  <text y=   "-0">0</text>
  <text y=  "-50">500</text>
  <text y= "-100">1000</text>
  <text y= "-150">1500</text>
  <text id="title-y" x="80" y="-48" transform="rotate(-90)" text-anchor="middle" >年產量（噸）</text>
</g> 
 
<!-- additional text --> 

  <text id="title" class="titletext" text-anchor="middle" x="137.5" y="-171.2">全球鉭產量</text>
 
<!--====== graph data with origin values, you can manually copy or attach the values here ======-->
<!-- modify displacement "translate" -->
<defs>
<g id="graphs">     
</g>
<g id="graph1">
  <!-- graph 1 -->
  <polyline id="graph1-line" stroke-width="0.39" points="  
    1969 38.8
    1970 31.8
    1971 49.6
    1972 37.1
    1973 38.4
    1974 43.6
    1975 41.1
    1976 33.9
    1977 40.9
    1978 36.2
    1979 47.6
    1980 54.4
    1981 40.3
    1982 28.4
    1983 31.3
    1984 31.5
    1985 31.5
    1986 21.5
    1987 27.5
    1988 29.2
    1989 39.5
    1990 39.6
    1991 47.7
    1992 39.9
    1993 29.2
    1994 33.3
    1995 36.1
    1996 43.6
    1997 56.2
    1998 77.9
    1999 65.6
    2000 107
    2001 118
    2002 134
    2003 139
    2004 143
    2005 138
    2006 85.9
    2007 106
    2008 130
    2009 77
    2010 64.4
    2011 76.7
    2012 76.5
  "/>
</g>
</defs>
 
<g class="graphgeneralstretch" transform="scale(5, -1) translate(-1965, -0)"> 
  <!-- graph 1 --> 
  <use id="graphuse1p2" transform="translate(0, 0.757)" class="graph1lineblank" xlink:href="#graph1"/>  
  <use id="graphuse1m2" transform="translate(0, -0.757)" class="graph1lineblank" xlink:href="#graph1"/> 
  <use id="graphuse1p3" transform="translate(0, 0.371)" class="graph1lineblank" xlink:href="#graph1"/>  
  <use id="graphuse1m3" transform="translate(0, -0.371)" class="graph1lineblank" xlink:href="#graph1"/> 
  <use id="graphuse1-1" transform="translate(0, 0)" class="graph1line" xlink:href="#graph1"/>
</g>
</svg>