<svg xmlns="http://www.w3.org/2000/svg" xmlns:xlink="http://www.w3.org/1999/xlink" class="main-svg" width="1044" height="551"><rect x="0" y="0" width="1044" height="551" style="fill: rgb(255, 255, 255); fill-opacity: 1;"/><defs id="defs-b04916"><g class="clips"><clipPath class="axesclip" id="clipb04916x"><rect x="80" y="0" width="800" height="551"/></clipPath><clipPath class="axesclip" id="clipb04916y"><rect x="0" y="100" width="1044" height="371"/></clipPath><clipPath class="axesclip" id="clipb04916xy"><rect x="80" y="100" width="800" height="371"/></clipPath></g></defs><g class="draglayer"><g transform="translate(80,100)"/></g><g class="subplot xy"><rect x="80" y="100" width="800" height="371" style="stroke-width: 0px; fill: rgb(255, 255, 255); fill-opacity: 1;"/><g transform="translate(80,100)"><path class="xgrid crisp" d="M0,0v371" transform="translate(182.25,0)" style="stroke: rgb(238, 238, 238); stroke-opacity: 1; stroke-width: 1px;"/><path class="xgrid crisp" d="M0,0v371" transform="translate(375.61,0)" style="stroke: rgb(238, 238, 238); stroke-opacity: 1; stroke-width: 1px;"/><path class="xgrid crisp" d="M0,0v371" transform="translate(568.86,0)" style="stroke: rgb(238, 238, 238); stroke-opacity: 1; stroke-width: 1px;"/><path class="xgrid crisp" d="M0,0v371" transform="translate(762.11,0)" style="stroke: rgb(238, 238, 238); stroke-opacity: 1; stroke-width: 1px;"/><path class="ygrid crisp" d="M0,0h800" transform="translate(0,306.84)" style="stroke: rgb(238, 238, 238); stroke-opacity: 1; stroke-width: 1px;"/><path class="ygrid crisp" d="M0,0h800" transform="translate(0,258.93)" style="stroke: rgb(238, 238, 238); stroke-opacity: 1; stroke-width: 1px;"/><path class="ygrid crisp" d="M0,0h800" transform="translate(0,211.01)" style="stroke: rgb(238, 238, 238); stroke-opacity: 1; stroke-width: 1px;"/><path class="ygrid crisp" d="M0,0h800" transform="translate(0,163.09)" style="stroke: rgb(238, 238, 238); stroke-opacity: 1; stroke-width: 1px;"/><path class="ygrid crisp" d="M0,0h800" transform="translate(0,115.18)" style="stroke: rgb(238, 238, 238); stroke-opacity: 1; stroke-width: 1px;"/><path class="ygrid crisp" d="M0,0h800" transform="translate(0,67.26)" style="stroke: rgb(238, 238, 238); stroke-opacity: 1; stroke-width: 1px;"/><path class="ygrid crisp" d="M0,0h800" transform="translate(0,19.35)" style="stroke: rgb(238, 238, 238); stroke-opacity: 1; stroke-width: 1px;"/></g><g/><g transform="translate(80,100)"><path class="yzl zl crisp" d="M0,0h800" transform="translate(0,354.76)" style="stroke: rgb(68, 68, 68); stroke-opacity: 1; stroke-width: 1px;"/></g><g/><svg preserveAspectRatio="none" x="80" y="100" width="800" height="371" viewBox="0 0 800 371" style="fill: none;"><g class="maplayer"/><g class="barlayer"/><g class="errorlayer"><g class="errorbars"/><g class="errorbars"/><g class="errorbars"/></g><g class="boxlayer"/><g class="scatterlayer"><g class="trace scatter" style="stroke-miterlimit: 2; opacity: 1;"><path class="js-line" d="M800,18.55L787.51,23.8L781.37,24.94L765.6,30.75L762.53,33.51L756.18,36.58L753.12,39.06L746.87,43.09L743.8,45.63L740.73,45.88L737.56,46.97L731.31,49.81L728.14,50.73L725.07,51.66L721.89,53.87L715.54,54.98L712.48,56.33L706.23,57.54L703.16,57.75L690.67,64.11L687.6,65.18L678.08,69.4L671.83,72.62L668.77,73.41L665.59,73.45L659.45,74.6L656.28,75.04L650.03,77.03L646.96,79.38L643.79,80.06L640.61,81.62L634.37,85.25L631.19,86.42L628.13,88.66L624.95,89.32L596.9,98.03L593.73,98.36L578.17,112.49L575,113.94L571.93,123.6L568.75,126.19L565.68,128.01L562.51,131.21L556.26,134.21L553.19,134.71L543.78,137.46L540.6,138.69L537.53,141.97L534.36,143.73L528.11,145.56L525.04,146.55L519.01,151.93L515.94,152.85L512.55,156.14L509.38,157.95L506.31,159.6L503.14,160.13L487.47,166.31L484.4,169.23L481.23,170.24L478.16,172.17L471.91,173.96L468.85,174.34L450.01,181.09L447.25,191.21L440.59,191.21L437.52,192.76L434.45,192.76L431.49,196.74L421.85,196.74L419.42,208.51L409.37,208.51L406.4,211.14L403.12,217.57L400.26,217.57L393.81,217.57L390.63,221.99L381.32,221.99L378.15,228.05L368.73,228.05L362.8,232.02L362.48,232.02L357.4,234.49L349.99,234.49L347.98,238L340.68,238L337.5,243.37L331.26,243.37L328.09,246.93L324.91,246.93L321.21,248.95L315.6,248.95L310.94,251.29L303.11,251.88L298.77,254.82L293.8,254.82L290.62,259.41L287.45,259.41L284.27,261.47L281.2,264.71L278.03,264.71L274.96,266.26L271.89,270.55L268.71,270.55L265.64,271.47L262.47,273.46L259.4,278.9L256.22,278.9L253.26,284.48L249.98,284.48L246.81,292.02L243.74,293.74L240.56,294.6L237.49,294.98L234.53,296.5L231.25,296.5L228.07,298.87L218.76,302.98L215.58,304.7L212.51,306.38L209.34,309.86L200.45,314.6L197.38,317.18L190.61,321.77L187.75,323.46L178.12,327.61L175.16,327.95L128.17,334.87L121.92,335.22L109.33,336.76L106.15,337L90.59,337.98L87.52,338.04L65.51,339.17L62.44,339.45L31.22,340.5L28.05,340.62L9.31,341.33L6.24,341.33L0,341.46" style="fill: none; stroke: rgb(31, 119, 180); stroke-opacity: 1; stroke-width: 2px;"/></g><g class="trace scatter" style="stroke-miterlimit: 2; opacity: 1;"><path class="js-line" d="M800,136.67L781.37,144.01L778.2,144.97L768.78,148.53L765.6,149.97L762.53,152.25L756.18,155.58L750.05,158.9L746.87,160.73L728.14,169.09L725.07,170.19L712.48,175.84L709.41,177.49L693.85,182.17L690.67,183.71L668.77,194.8L665.59,195.07L656.28,198.42L653.21,200.18L646.96,204.81L643.79,206.04L634.37,212.34L631.19,218.16L621.88,220.73L621.88,220.73L618.81,222.75L615.64,225.56L612.57,226.82L609.39,228.14L603.89,231.4L571.93,243.75L568.75,244.59L562.51,246.82L559.44,248.41L553.19,250.48L550.02,250.82L543.78,251.69L540.6,252.7L525.04,258.89L519.01,262.63L512.55,264L509.38,264.2L503.14,265.8L499.96,267.7L490.65,271.81L487.47,272.6L478.16,277.14L475.09,277.85L465.67,279.15L462.5,280.31L450.01,284.94L447.25,289.32L440.59,289.32L437.52,290.39L434.45,290.39L431.49,292.74L421.85,292.74L419.42,297.05L409.37,297.05L406.4,298.14L403.12,306.87L400.26,306.87L381.32,306.89L378.15,308.69L368.73,308.69L362.8,311.31L362.48,311.31L357.4,313.97L349.99,313.97L347.98,316.87L340.68,316.87L337.5,319.48L331.26,319.48L328.09,321.59L324.91,321.59L321.21,323.31L315.6,323.31L310.94,326.92L306.28,326.92L303.11,328.06L298.77,329.74L293.8,329.74L290.62,331.58L287.45,331.58L281.2,333.81L278.03,333.81L274.96,334.41L271.89,335.85L268.71,335.85L265.64,336.78L259.4,339.08L256.22,339.08L253.26,340.04L249.98,340.04L240.56,341.92L237.49,342.27L234.53,342.97L231.25,342.97L209.34,346.45L204.15,346.93L169.23,349.28L165.63,349.37L99.91,350.9L96.84,350.94L0,351.72" style="fill: none; stroke: rgb(255, 127, 14); stroke-opacity: 1; stroke-width: 2px;"/></g><g class="trace scatter" style="stroke-miterlimit: 2; opacity: 1;"><path class="js-line" d="M800,345.31L475.09,348.1L471.91,348.14L385.77,348.88L381.32,348.91L315.6,349.65L310.94,349.69L200.45,351.13L197.38,351.13L149.97,351.74L147,351.74L112.5,351.96L109.33,351.96L0,352.45" style="fill: none; stroke: rgb(44, 160, 44); stroke-opacity: 1; stroke-width: 2px;"/></g></g></svg><g/><path class="crisp" transform="translate(80,100)" d="M-1,371.5h802" style="fill: none; stroke-width: 1px; stroke: rgb(0, 0, 0); stroke-opacity: 0;"/><path class="crisp" transform="translate(80,100)" d="M-0.5,-1v372" stroke-width="1px" style="fill: none; stroke: rgb(0, 0, 0); stroke-opacity: 0;"/><g/><g transform="translate(80,100)"><g class="xtick" data-bb="7754"><text text-anchor="middle" x="0" y="391" transform="translate(182.25,0)" style="font-family: 'Open Sans', verdana, arial, sans-serif; font-size: 18px; fill: rgb(68, 68, 68); fill-opacity: 1; visibility: visible; white-space: pre;" data-bb="7749">2000</text></g><g class="xtick" data-bb="7755"><text text-anchor="middle" x="0" y="391" transform="translate(375.61,0)" style="font-family: 'Open Sans', verdana, arial, sans-serif; font-size: 18px; fill: rgb(68, 68, 68); fill-opacity: 1; visibility: visible; white-space: pre;" data-bb="7750">2005</text></g><g class="xtick" data-bb="7756"><text text-anchor="middle" x="0" y="391" transform="translate(568.86,0)" style="font-family: 'Open Sans', verdana, arial, sans-serif; font-size: 18px; fill: rgb(68, 68, 68); fill-opacity: 1; visibility: visible; white-space: pre;" data-bb="7751">2010</text></g><g class="xtick" data-bb="7757"><text text-anchor="middle" x="0" y="391" transform="translate(762.11,0)" style="font-family: 'Open Sans', verdana, arial, sans-serif; font-size: 18px; fill: rgb(68, 68, 68); fill-opacity: 1; visibility: visible; white-space: pre;" data-bb="7752">2015</text></g></g><g transform="translate(80,100)"><g class="ytick" data-bb="7759"><text text-anchor="end" x="-2" y="9" transform="translate(0,354.76)" style="font-family: 'Open Sans', verdana, arial, sans-serif; font-size: 18px; fill: rgb(68, 68, 68); fill-opacity: 1; visibility: visible; white-space: pre;">0</text></g><g class="ytick" data-bb="7760"><text text-anchor="end" x="-2" y="9" transform="translate(0,306.84)" style="font-family: 'Open Sans', verdana, arial, sans-serif; font-size: 18px; fill: rgb(68, 68, 68); fill-opacity: 1; visibility: visible; white-space: pre;">100k</text></g><g class="ytick" data-bb="7761"><text text-anchor="end" x="-2" y="9" transform="translate(0,258.93)" style="font-family: 'Open Sans', verdana, arial, sans-serif; font-size: 18px; fill: rgb(68, 68, 68); fill-opacity: 1; visibility: visible; white-space: pre;">200k</text></g><g class="ytick" data-bb="7762"><text text-anchor="end" x="-2" y="9" transform="translate(0,211.01)" style="font-family: 'Open Sans', verdana, arial, sans-serif; font-size: 18px; fill: rgb(68, 68, 68); fill-opacity: 1; visibility: visible; white-space: pre;">300k</text></g><g class="ytick" data-bb="7763"><text text-anchor="end" x="-2" y="9" transform="translate(0,163.09)" style="font-family: 'Open Sans', verdana, arial, sans-serif; font-size: 18px; fill: rgb(68, 68, 68); fill-opacity: 1; visibility: visible; white-space: pre;">400k</text></g><g class="ytick" data-bb="7764"><text text-anchor="end" x="-2" y="9" transform="translate(0,115.18)" style="font-family: 'Open Sans', verdana, arial, sans-serif; font-size: 18px; fill: rgb(68, 68, 68); fill-opacity: 1; visibility: visible; white-space: pre;">500k</text></g><g class="ytick" data-bb="7765"><text text-anchor="end" x="-2" y="9" transform="translate(0,67.26)" style="font-family: 'Open Sans', verdana, arial, sans-serif; font-size: 18px; fill: rgb(68, 68, 68); fill-opacity: 1; visibility: visible; white-space: pre;">600k</text></g><g class="ytick" data-bb="7766"><text text-anchor="end" x="-2" y="9" transform="translate(0,19.35)" style="font-family: 'Open Sans', verdana, arial, sans-serif; font-size: 18px; fill: rgb(68, 68, 68); fill-opacity: 1; visibility: visible; white-space: pre;">700k</text></g></g><g/></g><g class="shapelayer"/><g class="pielayer"/><g class="glimages"/><g class="geoimages"/><text class="js-plot-link-container" y="542" text-anchor="end" x="1037" style="font-family: 'Open Sans', Arial, sans-serif; font-size: 12px; fill: rgb(68, 68, 68); pointer-events: all;"><tspan class="js-link-to-tool"/><tspan class="js-link-spacer"/><tspan class="js-sourcelinks"/></text><g class="infolayer"><g class="g-gtitle"><text class="gtitle" x="522" y="50" text-anchor="middle" style="font-family: 'Open Sans', verdana, arial, sans-serif; font-size: 24px; fill: rgb(68, 68, 68); opacity: 1; font-weight: normal; white-space: pre; visibility: visible;">Number of Minor Planets</text></g><g class="g-xtitle" data-bb="7753"/><g class="g-ytitle" data-bb="7758" transform="translate(-10.328125,0)"/><svg class="legend" x="896" y="100" width="136" height="90"><rect class="bg" x="0" y="0" width="136" height="90" style="stroke: rgb(68, 68, 68); stroke-opacity: 1; fill: rgb(255, 255, 255); fill-opacity: 1; stroke-width: 0px;"/><g class="groups"><g class="traces" transform="translate(0,18.200000000000003)" style="opacity: 1;"><g class="legendfill"/><g class="legendlines"><path class="js-line" d="M5,0h30" style="fill: none; stroke: rgb(31, 119, 180); stroke-opacity: 1; stroke-width: 2px;"/></g><g class="legendsymbols" style="opacity: 1;"><g class="legendpoints"/></g><text class="legendtext" x="40" y="7.0200000000000005" style="text-anchor: start; font-family: 'Open Sans', verdana, arial, sans-serif; font-size: 18px; fill: rgb(68, 68, 68); fill-opacity: 1; white-space: pre; visibility: visible;" data-bb="7767">Total</text><rect class="legendtoggle" pointer-events="all" x="0" y="-13.200000000000001" height="26.400000000000002" style="cursor: pointer; fill: rgb(0, 0, 0); fill-opacity: 0;" width="130.96875"/></g><g class="traces" transform="translate(0,44.6)" style="opacity: 1;"><g class="legendfill"/><g class="legendlines"><path class="js-line" d="M5,0h30" style="fill: none; stroke: rgb(255, 127, 14); stroke-opacity: 1; stroke-width: 2px;"/></g><g class="legendsymbols" style="opacity: 1;"><g class="legendpoints"/></g><text class="legendtext" x="40" y="7.0200000000000005" style="text-anchor: start; font-family: 'Open Sans', verdana, arial, sans-serif; font-size: 18px; fill: rgb(68, 68, 68); fill-opacity: 1; white-space: pre; visibility: visible;" data-bb="7768">Numbered</text><rect class="legendtoggle" pointer-events="all" x="0" y="-13.200000000000001" height="26.400000000000002" style="cursor: pointer; fill: rgb(0, 0, 0); fill-opacity: 0;" width="130.96875"/></g><g class="traces" transform="translate(0,71)" style="opacity: 1;"><g class="legendfill"/><g class="legendlines"><path class="js-line" d="M5,0h30" style="fill: none; stroke: rgb(44, 160, 44); stroke-opacity: 1; stroke-width: 2px;"/></g><g class="legendsymbols" style="opacity: 1;"><g class="legendpoints"/></g><text class="legendtext" x="40" y="7.0200000000000005" style="text-anchor: start; font-family: 'Open Sans', verdana, arial, sans-serif; font-size: 18px; fill: rgb(68, 68, 68); fill-opacity: 1; white-space: pre; visibility: visible;" data-bb="7769">Named</text><rect class="legendtoggle" pointer-events="all" x="0" y="-13.200000000000001" height="26.400000000000002" width="130.96875" style="cursor: pointer; fill: rgb(0, 0, 0); fill-opacity: 0;"/></g></g></svg></g></svg>