<svg xmlns="http://www.w3.org/2000/svg" xmlns:xlink="http://www.w3.org/1999/xlink" class="main-svg" width="1044" height="551"><rect x="0" y="0" width="1044" height="551" style="fill: rgb(255, 255, 255); fill-opacity: 1;"/><defs id="defs-31173c"><g class="clips"><clipPath class="axesclip" id="clip31173cx"><rect x="80" y="0" width="836" height="551"/></clipPath><clipPath class="axesclip" id="clip31173cy"><rect x="0" y="100" width="1044" height="371"/></clipPath><clipPath class="axesclip" id="clip31173cxy"><rect x="80" y="100" width="836" height="371"/></clipPath></g></defs><g class="draglayer"><g transform="translate(80,100)"/></g><g class="subplot xy"><rect x="80" y="100" width="836" height="371" style="stroke-width: 0px; fill: rgb(255, 255, 255); fill-opacity: 1;"/><g transform="translate(80,100)"><path class="xgrid crisp" d="M0,0v371" transform="translate(190.45,0)" style="stroke: rgb(238, 238, 238); stroke-opacity: 1; stroke-width: 1px;"/><path class="xgrid crisp" d="M0,0v371" transform="translate(392.51,0)" style="stroke: rgb(238, 238, 238); stroke-opacity: 1; stroke-width: 1px;"/><path class="xgrid crisp" d="M0,0v371" transform="translate(594.46,0)" style="stroke: rgb(238, 238, 238); stroke-opacity: 1; stroke-width: 1px;"/><path class="xgrid crisp" d="M0,0v371" transform="translate(796.41,0)" style="stroke: rgb(238, 238, 238); stroke-opacity: 1; stroke-width: 1px;"/><path class="ygrid crisp" d="M0,0h836" transform="translate(0,306.84)" style="stroke: rgb(238, 238, 238); stroke-opacity: 1; stroke-width: 1px;"/><path class="ygrid crisp" d="M0,0h836" transform="translate(0,258.93)" style="stroke: rgb(238, 238, 238); stroke-opacity: 1; stroke-width: 1px;"/><path class="ygrid crisp" d="M0,0h836" transform="translate(0,211.01)" style="stroke: rgb(238, 238, 238); stroke-opacity: 1; stroke-width: 1px;"/><path class="ygrid crisp" d="M0,0h836" transform="translate(0,163.09)" style="stroke: rgb(238, 238, 238); stroke-opacity: 1; stroke-width: 1px;"/><path class="ygrid crisp" d="M0,0h836" transform="translate(0,115.18)" style="stroke: rgb(238, 238, 238); stroke-opacity: 1; stroke-width: 1px;"/><path class="ygrid crisp" d="M0,0h836" transform="translate(0,67.26)" style="stroke: rgb(238, 238, 238); stroke-opacity: 1; stroke-width: 1px;"/><path class="ygrid crisp" d="M0,0h836" transform="translate(0,19.35)" style="stroke: rgb(238, 238, 238); stroke-opacity: 1; stroke-width: 1px;"/></g><g/><g transform="translate(80,100)"><path class="yzl zl crisp" d="M0,0h836" transform="translate(0,354.76)" style="stroke: rgb(68, 68, 68); stroke-opacity: 1; stroke-width: 1px;"/></g><g/><svg preserveAspectRatio="none" x="80" y="100" width="836" height="371" viewBox="0 0 836 371" style="fill: none;"><g class="maplayer"/><g class="barlayer"/><g class="errorlayer"><g class="errorbars"/><g class="errorbars"/><g class="errorbars"/></g><g class="boxlayer"/><g class="scatterlayer"><g class="trace scatter" style="stroke-miterlimit: 2; opacity: 1;"><path class="js-line" d="M836,18.55L822.95,23.8L816.53,24.94L800.06,30.75L796.85,33.51L790.21,36.58L787.01,39.06L780.48,43.09L777.27,45.63L774.07,45.88L770.75,46.97L764.22,49.81L760.9,50.73L757.7,51.66L754.38,53.87L747.74,54.98L744.54,56.33L738.01,57.54L734.8,57.75L721.75,64.11L718.55,65.18L708.59,69.4L702.07,72.62L698.86,73.41L695.54,73.45L689.13,74.6L685.81,75.04L679.28,77.03L676.08,79.38L672.76,80.06L669.44,81.62L662.92,85.25L659.6,86.42L656.39,88.66L653.07,89.32L623.77,98.03L620.45,98.36L604.19,112.49L600.87,113.94L597.66,123.6L594.35,126.19L591.14,128.01L587.82,131.21L581.3,134.21L578.09,134.71L568.25,137.46L564.93,138.69L561.72,141.97L558.4,143.73L551.88,145.56L548.67,146.55L542.37,151.93L539.16,152.85L535.62,156.14L532.3,157.95L529.09,159.6L525.78,160.13L509.41,166.31L506.2,169.23L502.88,170.24L499.68,172.17L493.15,173.96L489.94,174.34L470.26,181.09L467.38,191.21L460.41,191.21L457.21,192.76L454,192.76L450.9,196.74L440.84,196.74L438.29,208.51L427.79,208.51L424.69,211.14L421.26,217.57L418.28,217.57L411.53,217.57L408.21,221.99L398.48,221.99L395.16,228.05L385.32,228.05L379.13,232.02L378.79,232.02L373.48,234.49L365.74,234.49L363.64,238L356.01,238L352.69,243.37L346.17,243.37L342.85,246.93L339.53,246.93L335.66,248.95L329.8,248.95L324.93,251.29L316.75,251.88L312.21,254.82L307.02,254.82L303.7,259.41L300.38,259.41L297.06,261.47L293.86,264.71L290.54,264.71L287.33,266.26L284.12,270.55L280.8,270.55L277.6,271.47L274.28,273.46L271.07,278.9L267.75,278.9L264.66,284.48L261.23,284.48L257.91,292.02L254.7,293.74L251.39,294.6L248.18,294.98L245.08,296.5L241.65,296.5L238.34,298.87L228.6,302.98L225.29,304.7L222.08,306.38L218.76,309.86L209.47,314.6L206.26,317.18L199.18,321.77L196.2,323.46L186.13,327.61L183.04,327.95L133.93,334.87L127.41,335.22L114.25,336.76L110.93,337L94.67,337.98L91.46,338.04L68.46,339.17L65.25,339.45L32.63,340.5L29.31,340.62L9.73,341.33L6.53,341.33L0,341.46" style="fill: none; stroke: rgb(31, 119, 180); stroke-opacity: 1; stroke-width: 2px;"/></g><g class="trace scatter" style="stroke-miterlimit: 2; opacity: 1;"><path class="js-line" d="M836,136.67L816.53,144.01L813.22,144.97L803.37,148.53L800.06,149.97L796.85,152.25L790.21,155.58L783.8,158.9L780.48,160.73L760.9,169.09L757.7,170.19L744.54,175.84L741.33,177.49L725.07,182.17L721.75,183.71L698.86,194.8L695.54,195.07L685.81,198.42L682.6,200.18L676.08,204.81L672.76,206.04L662.92,212.34L659.6,218.16L649.87,220.73L649.87,220.73L646.66,222.75L643.34,225.56L640.13,226.82L636.82,228.14L631.06,231.4L597.66,243.75L594.35,244.59L587.82,246.82L584.61,248.41L578.09,250.48L574.77,250.82L568.25,251.69L564.93,252.7L548.67,258.89L542.37,262.63L535.62,264L532.3,264.2L525.78,265.8L522.46,267.7L512.73,271.81L509.41,272.6L499.68,277.14L496.47,277.85L486.63,279.15L483.31,280.31L470.26,284.94L467.38,289.32L460.41,289.32L457.21,290.39L454,290.39L450.9,292.74L440.84,292.74L438.29,297.05L427.79,297.05L424.69,298.14L421.26,306.87L418.28,306.87L398.48,306.89L395.16,308.69L385.32,308.69L379.13,311.31L378.79,311.31L373.48,313.97L365.74,313.97L363.64,316.87L356.01,316.87L352.69,319.48L346.17,319.48L342.85,321.59L339.53,321.59L335.66,323.31L329.8,323.31L324.93,326.92L320.07,326.92L316.75,328.06L312.21,329.74L307.02,329.74L303.7,331.58L300.38,331.58L293.86,333.81L290.54,333.81L287.33,334.41L284.12,335.85L280.8,335.85L277.6,336.78L271.07,339.08L267.75,339.08L264.66,340.04L261.23,340.04L251.39,341.92L248.18,342.27L245.08,342.97L241.65,342.97L218.76,346.45L213.34,346.93L176.84,349.28L173.08,349.37L104.4,350.9L101.2,350.94L0,351.72" style="fill: none; stroke: rgb(255, 127, 14); stroke-opacity: 1; stroke-width: 2px;"/></g><g class="trace scatter" style="stroke-miterlimit: 2; opacity: 1;"><path class="js-line" d="M836,345.31L496.47,348.1L493.15,348.14L403.12,348.88L398.48,348.91L329.8,349.65L324.93,349.69L209.47,351.13L206.26,351.13L150.63,351.82L147.43,351.82L0,352.45" style="fill: none; stroke: rgb(44, 160, 44); stroke-opacity: 1; stroke-width: 2px;"/></g></g></svg><g/><path class="crisp" transform="translate(80,100)" d="M-1,371.5h838" style="fill: none; stroke-width: 1px; stroke: rgb(0, 0, 0); stroke-opacity: 0;"/><path class="crisp" transform="translate(80,100)" d="M-0.5,-1v372" stroke-width="1px" style="fill: none; stroke: rgb(0, 0, 0); stroke-opacity: 0;"/><g/><g transform="translate(80,100)"><g class="xtick" data-bb="7283"><text text-anchor="middle" x="0" y="391" transform="translate(190.45,0)" style="font-family: 'Open Sans', verdana, arial, sans-serif; font-size: 18px; fill: rgb(68, 68, 68); fill-opacity: 1; visibility: visible; white-space: pre;" data-bb="7278">2000</text></g><g class="xtick" data-bb="7284"><text text-anchor="middle" x="0" y="391" transform="translate(392.51,0)" style="font-family: 'Open Sans', verdana, arial, sans-serif; font-size: 18px; fill: rgb(68, 68, 68); fill-opacity: 1; visibility: visible; white-space: pre;" data-bb="7279">2005</text></g><g class="xtick" data-bb="7285"><text text-anchor="middle" x="0" y="391" transform="translate(594.46,0)" style="font-family: 'Open Sans', verdana, arial, sans-serif; font-size: 18px; fill: rgb(68, 68, 68); fill-opacity: 1; visibility: visible; white-space: pre;" data-bb="7280">2010</text></g><g class="xtick" data-bb="7286"><text text-anchor="middle" x="0" y="391" transform="translate(796.41,0)" style="font-family: 'Open Sans', verdana, arial, sans-serif; font-size: 18px; fill: rgb(68, 68, 68); fill-opacity: 1; visibility: visible; white-space: pre;" data-bb="7281">2015</text></g></g><g transform="translate(80,100)"><g class="ytick" data-bb="7288"><text text-anchor="end" x="-2" y="9" transform="translate(0,354.76)" style="font-family: 'Open Sans', verdana, arial, sans-serif; font-size: 18px; fill: rgb(68, 68, 68); fill-opacity: 1; visibility: visible; white-space: pre;">0</text></g><g class="ytick" data-bb="7289"><text text-anchor="end" x="-2" y="9" transform="translate(0,306.84)" style="font-family: 'Open Sans', verdana, arial, sans-serif; font-size: 18px; fill: rgb(68, 68, 68); fill-opacity: 1; visibility: visible; white-space: pre;">100,000</text></g><g class="ytick" data-bb="7290"><text text-anchor="end" x="-2" y="9" transform="translate(0,258.93)" style="font-family: 'Open Sans', verdana, arial, sans-serif; font-size: 18px; fill: rgb(68, 68, 68); fill-opacity: 1; visibility: visible; white-space: pre;">200,000</text></g><g class="ytick" data-bb="7291"><text text-anchor="end" x="-2" y="9" transform="translate(0,211.01)" style="font-family: 'Open Sans', verdana, arial, sans-serif; font-size: 18px; fill: rgb(68, 68, 68); fill-opacity: 1; visibility: visible; white-space: pre;">300,000</text></g><g class="ytick" data-bb="7292"><text text-anchor="end" x="-2" y="9" transform="translate(0,163.09)" style="font-family: 'Open Sans', verdana, arial, sans-serif; font-size: 18px; fill: rgb(68, 68, 68); fill-opacity: 1; visibility: visible; white-space: pre;">400,000</text></g><g class="ytick" data-bb="7293"><text text-anchor="end" x="-2" y="9" transform="translate(0,115.18)" style="font-family: 'Open Sans', verdana, arial, sans-serif; font-size: 18px; fill: rgb(68, 68, 68); fill-opacity: 1; visibility: visible; white-space: pre;">500,000</text></g><g class="ytick" data-bb="7294"><text text-anchor="end" x="-2" y="9" transform="translate(0,67.26)" style="font-family: 'Open Sans', verdana, arial, sans-serif; font-size: 18px; fill: rgb(68, 68, 68); fill-opacity: 1; visibility: visible; white-space: pre;">600,000</text></g><g class="ytick" data-bb="7295"><text text-anchor="end" x="-2" y="9" transform="translate(0,19.35)" style="font-family: 'Open Sans', verdana, arial, sans-serif; font-size: 18px; fill: rgb(68, 68, 68); fill-opacity: 1; visibility: visible; white-space: pre;">700,000</text></g></g><g/></g><g class="shapelayer"/><g class="pielayer"/><g class="glimages"/><g class="geoimages"/><text class="js-plot-link-container" y="542" text-anchor="end" x="1037" style="font-family: 'Open Sans', Arial, sans-serif; font-size: 12px; fill: rgb(68, 68, 68); pointer-events: all;"><tspan class="js-link-to-tool"/><tspan class="js-link-spacer"/><tspan class="js-sourcelinks"/></text><g class="infolayer"><g class="g-gtitle"><text class="gtitle" x="522" y="50" text-anchor="middle" style="font-family: 'Open Sans', verdana, arial, sans-serif; font-size: 24px; fill: rgb(68, 68, 68); opacity: 1; font-weight: normal; white-space: pre; visibility: visible;">小行星數目</text></g><g class="g-xtitle" data-bb="7282"/><g class="g-ytitle" data-bb="7287" transform="translate(-27,0)"/><svg class="legend" x="933" y="100" width="99" height="90"><rect class="bg" x="0" y="0" width="99" height="90" style="stroke: rgb(68, 68, 68); stroke-opacity: 1; fill: rgb(255, 255, 255); fill-opacity: 1; stroke-width: 0px;"/><g class="groups"><g class="traces" transform="translate(0,18.200000000000003)" style="opacity: 1;"><g class="legendfill"/><g class="legendlines"><path class="js-line" d="M5,0h30" style="fill: none; stroke: rgb(31, 119, 180); stroke-opacity: 1; stroke-width: 2px;"/></g><g class="legendsymbols" style="opacity: 1;"><g class="legendpoints"/></g><text class="legendtext" x="40" y="7.0200000000000005" style="text-anchor: start; font-family: 'Open Sans', verdana, arial, sans-serif; font-size: 18px; fill: rgb(68, 68, 68); fill-opacity: 1; white-space: pre; visibility: visible;" data-bb="7296">總數</text><rect class="legendtoggle" pointer-events="all" x="0" y="-13.200000000000001" height="26.400000000000002" style="cursor: pointer; fill: rgb(0, 0, 0); fill-opacity: 0;" width="94"/></g><g class="traces" transform="translate(0,44.6)" style="opacity: 1;"><g class="legendfill"/><g class="legendlines"><path class="js-line" d="M5,0h30" style="fill: none; stroke: rgb(255, 127, 14); stroke-opacity: 1; stroke-width: 2px;"/></g><g class="legendsymbols" style="opacity: 1;"><g class="legendpoints"/></g><text class="legendtext" x="40" y="7.0200000000000005" style="text-anchor: start; font-family: 'Open Sans', verdana, arial, sans-serif; font-size: 18px; fill: rgb(68, 68, 68); fill-opacity: 1; white-space: pre; visibility: visible;" data-bb="7297">已編號</text><rect class="legendtoggle" pointer-events="all" x="0" y="-13.200000000000001" height="26.400000000000002" style="cursor: pointer; fill: rgb(0, 0, 0); fill-opacity: 0;" width="94"/></g><g class="traces" transform="translate(0,71)" style="opacity: 1;"><g class="legendfill"/><g class="legendlines"><path class="js-line" d="M5,0h30" style="fill: none; stroke: rgb(44, 160, 44); stroke-opacity: 1; stroke-width: 2px;"/></g><g class="legendsymbols" style="opacity: 1;"><g class="legendpoints"/></g><text class="legendtext" x="40" y="7.0200000000000005" style="text-anchor: start; font-family: 'Open Sans', verdana, arial, sans-serif; font-size: 18px; fill: rgb(68, 68, 68); fill-opacity: 1; white-space: pre; visibility: visible;" data-bb="7298">已命名</text><rect class="legendtoggle" pointer-events="all" x="0" y="-13.200000000000001" height="26.400000000000002" width="94" style="cursor: pointer; fill: rgb(0, 0, 0); fill-opacity: 0;"/></g></g></svg></g></svg>