<svg id="Layer_1" data-name="Layer 1" xmlns="http://www.w3.org/2000/svg" viewBox="0 0 321.43 147.7"><defs><style>.cls-1{fill:#231f20;}</style></defs><title>phi-4 one-loop</title><rect class="cls-1" x="5.77" y="116.87" width="308.43" height="2"/><path class="cls-1" d="M217.08,349.34l-.79-1.06a309.28,309.28,0,0,1-24.1-38.68c-14.76-28.52-18.81-49.85-12.05-63.39,5.43-10.88,17.86-16.4,36.94-16.4s31.52,5.52,36.95,16.4c6.76,13.54,2.71,34.87-12.05,63.39a310.64,310.64,0,0,1-24.1,38.68Zm0-117.53c-18.26,0-30.09,5.14-35.15,15.29-14.41,28.86,28.68,90,35.15,98.89,6.48-8.91,49.57-70,35.16-98.89C247.18,237,235.35,231.81,217.08,231.81Z" transform="translate(-57.1 -229.81)"/><path class="cls-1" d="M58.5,368.83a.87.87,0,0,1,1,.9,1.4,1.4,0,0,1-1.09,1.34,2.08,2.08,0,0,0,1.23.39c1.68,0,2.27-2.24,2.72-4.06.31-1.28.33-1.4.64-2.55a18.12,18.12,0,0,0,.59-3.08c0-1.11-.53-1.76-1.34-1.76-1.12,0-2.58,1.09-3.34,3.5-.14.45-.14.48-.5.48-.14,0-.42,0-.42-.28,0-.65,1.51-4.31,4.31-4.31a2.73,2.73,0,0,1,2.69,1.9,3.35,3.35,0,0,1,2.74-1.9c.82,0,2.44.33,2.44,1.76a1.41,1.41,0,0,1-1.37,1.48.9.9,0,0,1-1-.89,1.41,1.41,0,0,1,1.12-1.35,2,2,0,0,0-1.23-.39c-1.32,0-2.08,1.54-2.47,3-.22.92-.64,2.66-1,3.83a16.7,16.7,0,0,0-.53,2.83c0,1.46.75,1.79,1.31,1.79,1.18,0,2.58-1.09,3.34-3.5.14-.44.16-.47.5-.47s.42,0,.42.28c0,.56-1.43,4.31-4.31,4.31a2.75,2.75,0,0,1-2.66-1.91,3.35,3.35,0,0,1-2.75,1.91c-1.28,0-2.46-.64-2.46-1.74A1.45,1.45,0,0,1,58.5,368.83Z" transform="translate(-57.1 -229.81)"/><path class="cls-1" d="M370,359.39a2.1,2.1,0,0,1,2.12,2.27,4,4,0,0,1-.36,1.51c-.7,1.91-1.63,4.43-1.63,6.14,0,.92.26,2.15,1.52,2.15a3.48,3.48,0,0,0,3-2.49l2-8.23c.06-.23.25-1,1.09-1a.74.74,0,0,1,.79.73c0,.08-.06.22-.09.39l-2.74,11c-.7,2.78-3.25,5.66-6.16,5.66a2.45,2.45,0,0,1-2.69-2.41c0-1.57,1.09-1.73,1.43-1.73a.88.88,0,0,1,1,.89,1.42,1.42,0,0,1-1.2,1.35c-.2,0-.23.05-.23.08a1.67,1.67,0,0,0,1.74,1.2c1.4,0,3.47-1.23,4.53-5.85a3.56,3.56,0,0,1-2.52,1,2.94,2.94,0,0,1-3.13-3.25,18.87,18.87,0,0,1,1.45-5.49,8,8,0,0,0,.67-2.52c0-.73-.3-.81-.61-.81-1.62,0-2.38,2.66-2.6,3.53-.12.39-.14.45-.51.45-.14,0-.42,0-.42-.28S367.38,359.39,370,359.39Z" transform="translate(-57.1 -229.81)"/><path class="cls-1" d="M215.24,367.91l4.59-4.57c.45-.44.7-.75,1.12-1.23a3.24,3.24,0,0,1-1.65-.42,4.11,4.11,0,0,0-1.68-.5,2.28,2.28,0,0,0-2.08,1.31c-.14.34-.16.4-.5.4s-.42-.06-.42-.31c0-.56,1.2-3.19,3.28-3.19a2.11,2.11,0,0,1,1.7,1.09c.54.72.82,1,1.32,1s.81-.15,1.74-1.74c.16-.34.19-.36.53-.36.17,0,.39,0,.39.27a14.78,14.78,0,0,1-3,4l-4.06,4c-.78.79-1.37,1.49-1.56,1.71a2.8,2.8,0,0,1,.5,0,4,4,0,0,1,1.74.48,3.7,3.7,0,0,0,1.56.45,3.52,3.52,0,0,0,3.06-2.35c.11-.37.14-.45.47-.45.09,0,.42,0,.42.28,0,.67-1.51,4.31-4.23,4.31a2.14,2.14,0,0,1-1.73-1.09c-.51-.7-.73-1-1.35-1-1.06,0-1.82,1.26-2.21,1.85-.11.19-.14.25-.45.25-.16,0-.42,0-.42-.28A14.48,14.48,0,0,1,215.24,367.91Z" transform="translate(-57.1 -229.81)"/><circle class="cls-1" cx="159.98" cy="117.87" r="4.92"/><circle class="cls-1" cx="314.2" cy="117.87" r="4.92"/><circle class="cls-1" cx="5.77" cy="117.87" r="4.92"/></svg>