<?xml version="1.0" encoding="utf-8"?>
<!-- Generator: Adobe Illustrator 16.0.4, SVG Export Plug-In . SVG Version: 6.00 Build 0)  -->
<!DOCTYPE svg PUBLIC "-//W3C//DTD SVG 1.1//EN" "http://www.w3.org/Graphics/SVG/1.1/DTD/svg11.dtd">
<svg version="1.1" xmlns="http://www.w3.org/2000/svg" xmlns:xlink="http://www.w3.org/1999/xlink" x="0px" y="0px" width="100px"
	 height="100px" viewBox="0 0 100 100" enable-background="new 0 0 100 100" xml:space="preserve">
<g id="Layer_1">
	<g>
		<path d="M80.604,31.297c0.4,0.3,0.601,0.5,0.601,0.7c0,0.4-0.4,0.6-1,0.8c-1.601,0.4-2.801,1.1-4.4,2.8
			c-6.5,7.101-13.901,13.501-20.602,18.301c0.3,0.8,0.7,1.7,12.201,1.7c8.9,0,9.7-1.4,9.7-12.901h1.5c0.301,5.8,1.2,7.9,2.5,8.8
			c0.7,0.5,1.001,0.9,1.001,1.4c0,0.199-0.101,0.4-0.2,0.6c-2.9,5.4-4.4,5.9-17.901,5.9c-9.001,0-12.001-1-12.801-2.8
			c-4.9,3.101-10.9,6.4-18.801,9.501l-1-1.301c6.9-3.5,12.9-7.1,19.4-11.701v-14.3c0-2.5,0-5.6-0.199-7.8l6.7,3.5
			c0.399,0.2,0.6,0.5,0.6,0.7s-0.2,0.4-0.399,0.5l-2.4,1.6v12.601c7-5.4,16.101-14.101,20.501-21.701L80.604,31.297z M44.003,34.697
			c0,9.601-1.301,14.501-4.501,16.301c-0.8,0.4-1.6,0.7-2.3,0.7c-2,0-2.8-1.6-2.8-2.4c0-0.8,0.6-1.7,1.7-2.601
			c3.899-3.1,5.7-7.2,6.6-12.201L44.003,34.697z M45.203,18.396c-0.301,5.5-1.101,7.301-3.101,9.701c-1.3,1.6-2.8,2.4-4,2.4
			c-1.3,0-2.2-0.9-2.2-2.1c0-0.9,0.399-1.9,1.3-2.8c4-3.9,5.2-6.601,6.4-13.801h1.7v4.4h41.702l3.001-3.601l6.5,5.9
			c0.4,0.4,0.6,0.7,0.6,0.9c0,0.3-0.399,0.4-1.1,0.5c-2.9,0.3-6,1.7-11.801,8.3l-1.4-0.5l5.001-9.301H45.203z M61.304,86.201V68
			c0-2.301-0.1-4.001-0.3-6.901l7.2,3.601c0.5,0.3,0.7,0.5,0.7,0.699c0,0.201-0.2,0.4-0.5,0.601l-2.7,1.7v18.502h16.601V74.1
			c0-2.7-0.1-4.7-0.3-7.9l7.101,3.5c0.5,0.2,0.8,0.5,0.8,0.7c0,0.399-0.1,0.399-3.1,2.399v15.502c0,1.4,0.199,3.699,0.199,5.199
			c0,1.102-3.5,2.602-4,2.602s-0.7-0.4-0.7-1.201v-6.5H46.603l-1.899,3.4c-0.2,0.301-0.4,0.4-0.7,0.4c-0.2,0-0.4-0.1-0.601-0.201
			l-6.2-3.4l3.5-3.199V72.799c0-2.299-0.1-4.799-0.3-7.1l7.101,4.1c0.4,0.201,0.6,0.5,0.6,0.701c0,0.399-0.3,0.6-3,1.899v13.802
			H61.304z M56.304,21.196c4.1,1.7,9.5,4.4,9.5,8.901c0,1.9-1,3.3-2.3,3.3c-1,0-2-1-2.3-2.4c-0.601-3-1.601-5.101-5.701-9.101
			L56.304,21.196z M56.203,3.295c6.9,1.7,10.401,3.7,11.701,6.1c0.399,0.8,0.6,1.6,0.6,2.4c0,2-1.1,3.9-2.399,3.9
			c-1.001,0-1.501-0.5-2.601-2.8c-2.101-4.4-3.7-6.101-7.9-8.601L56.203,3.295z M80.305,37.498c11.401,4.3,13.801,7.1,13.801,10.601
			c0,2.6-1.2,4.201-2.399,4.201c-1.301,0-1.801-0.4-2.7-3c-1.101-3.4-3.4-6.5-9.301-10.801L80.305,37.498z"/>
	</g>
</g>
<g id="Layer_2">
	<g>
		<path d="M32.202,26.297c0.5,0.3,0.8,0.6,0.8,0.9s-0.4,0.6-1.1,0.8c-2.501,0.8-3.4,1.4-4.2,3.101
			c-2.101,4.4-4.201,8.2-6.201,11.601c5.3,2.3,8.4,4.6,10.1,6.5c0.9,1,1.2,2.2,1.2,3.3c0,1.9-1,3.701-2,3.701
			c-1.4,0-1.9-0.601-2.6-2.9c-0.801-2.601-3.2-5.801-6.701-8.701v29.102c0,6.9,0.1,12.301,0.3,16.801v0.801
			c0,1.699-0.4,2.199-2.2,2.9c-0.8,0.299-1.3,0.5-1.7,0.5c-0.8,0-1-0.6-1-1.801v-0.6c0.2-5.9,0.3-12.5,0.3-17.801V49.398
			c-3.7,5.3-7.801,10-13.001,15.301l-0.9-0.9c11.5-16.301,14.901-23.201,20.801-36.102H13.301c-2.1,0-4.7,0.4-6.3,1.1l-2.8-3.1
			c2.5,0.2,4.601,0.4,6.9,0.4h12.701l2.701-3.6L32.202,26.297z M12.701,3.595c6.701,3.3,11.401,8.5,11.401,10.601
			c0,3.4-2.5,5.701-3.7,5.701c-1.3,0-1.9-0.7-2.1-3.4c-0.2-3.3-2.1-8.101-6.3-11.901L12.701,3.595z M33.202,26.897"/>
	</g>
</g>
</svg>
