<svg xmlns="http://www.w3.org/2000/svg" xmlns:xlink="http://www.w3.org/1999/xlink" version="1.1" baseProfile="full" viewBox="0 0 200 200" width="200" height="200">
<g fill="black">
<path d="M 172.3 183.7 L 165.6 177.6 L 160.1 169.7 L 155.5 159.9 L 151.9 148.5 L 149 135.2 L 146.9 120.2 L 145.6 103.3 L 144.9 84.5 L 145 66 L 75.7 66 L 80.5 71 L 81.3 74.5 L 76.8 73.5 L 76.6 73.6 L 74.5 74.8 L 72.4 76.1 L 70.1 77.3 L 67.8 78.4 L 64.1 80.1 L 121.1 80.1 L 127.1 75.1 L 138.1 84.1 L 133.1 88.1 L 133.1 142.3 L 121.1 148.3 L 121.1 84.1 L 104.1 84.1 L 104.2 84.5 L 115 93.4 L 115.4 96.4 L 111 94.2 L 106.2 95.1 L 99.7 96 L 99.5 96 L 107.9 103.1 L 108.8 105.7 L 117.4 113.4 L 117.4 117.4 L 87 117.4 L 87 118.8 L 89 119.2 L 91.9 120 L 94.9 121 L 97.7 122.1 L 100.6 123.2 L 103.4 124.5 L 106.1 125.9 L 108.9 127.4 L 111.5 129 L 113.7 133.1 L 112.4 137.5 L 108.4 139.6 L 104 138.4 L 102.1 136.3 L 100.1 134.3 L 98.1 132.4 L 96 130.4 L 93.8 128.5 L 91.6 126.7 L 89.4 124.8 L 87 122.8 L 87 134 L 77 139 L 87.6 142 L 90.4 144.3 L 86.7 146.1 L 85.4 151.6 L 84.7 153 L 126.2 153 L 136.2 143 L 148.2 153 L 148.2 157 L 83.5 157 L 84.7 157.8 L 89.7 160.9 L 94.8 163.7 L 100.3 166.1 L 106 168.3 L 112.1 170.1 L 118.6 171.6 L 125.6 172.8 L 132.9 173.7 L 140.6 174.2 L 151.4 175.1 L 139.5 187.3 L 131.2 186.1 L 123.3 184.4 L 115.9 182.3 L 108.9 179.8 L 102.4 176.9 L 96.4 173.5 L 91 169.8 L 86.1 165.5 L 81.9 160.9 L 81.2 159.8 L 75.8 166.4 L 69.1 171.7 L 61.5 175.9 L 53.1 179 L 44 181.4 L 34.4 183.2 L 24.3 184.4 L 13.9 185.1 L 13.6 183.3 L 23.7 180.6 L 33.3 177.9 L 42.3 175.1 L 50.5 171.9 L 57.7 168.3 L 63.7 164.2 L 68.5 159.5 L 70.2 157 L 13.7 157 L 13.7 153 L 72.6 153 L 74.5 148.1 L 75.7 140.8 L 75.8 139.6 L 75 140 L 75 125.4 L 71.6 128.2 L 68 131 L 64.4 133.6 L 60.6 136.2 L 56.7 138.6 L 52.7 140.8 L 48.5 142.8 L 44.2 144.7 L 43.2 143.2 L 46.6 140 L 56.1 130.5 L 61.9 124.3 L 64.7 121.1 L 67.4 118 L 67.8 117.4 L 43.7 117.4 L 43.7 113.4 L 60.2 113.4 L 58.9 112.4 L 58.8 111.3 L 58.6 110.2 L 58.3 109.1 L 57.9 107.9 L 57.4 106.7 L 56.8 105.5 L 56.1 104.2 L 55.3 102.9 L 54.4 101.5 L 53.1 100.7 L 53.5 99.9 L 49.8 99.9 L 43.8 99.6 L 43.6 97.8 L 49.3 96.1 L 55.1 94.6 L 61 93.2 L 79 89 L 97.6 84.8 L 100.6 84.1 L 40 84.1 L 40 144.4 L 28 150.4 L 28 74.1 L 40 80.1 L 58.4 80.1 L 59 79.6 L 60.7 77.4 L 62.4 75.4 L 64 73.5 L 65.5 71.6 L 66.9 69.7 L 68.3 67.9 L 69.6 66.1 L 69.7 66 L 26 66 L 26 62 L 145 62 L 151 57 L 162 66 L 157 69 L 156.9 69 L 156.9 84.3 L 157.5 102.6 L 158.9 118.9 L 160.9 133.2 L 163.5 145.4 L 166.8 155.6 L 170.5 163.8 L 174.7 169.8 L 177.1 172.1 L 182 151 L 184 151 L 182.1 175.4 L 183.8 176.3 L 187.3 179.3 L 187.6 183.8 L 184.6 187.3 L 180.1 187.6 Z M 75 98.7 L 74.3 98.8 L 68.1 99.3 L 61.9 99.7 L 56.2 99.9 L 57.1 100 L 58.8 100.4 L 60.5 100.9 L 62.1 101.5 L 63.6 102.2 L 65.1 103.1 L 67.9 105.1 L 69.2 106.3 L 69.8 110.9 L 67.9 113.4 L 75 113.4 Z M 98 96.2 L 93.2 96.8 L 87 97.5 L 87 113.4 L 90.2 113.4 L 90.6 112.9 L 91.6 110.7 L 92.6 108.6 L 94.4 104.6 L 95.3 102.8 L 96.9 99.2 L 97.6 97.6 L 97.8 96.9 L 97.6 96.8 Z M 104.2 106 L 103.3 106.7 L 101.7 108 L 100 109.2 L 98.2 110.5 L 94.4 113.1 L 93.9 113.4 L 99.2 113.4 L 105.8 106.2 Z M 45.6 12.1 L 55.9 18.4 L 57.8 21.5 L 53.8 21.9 L 53.6 22.3 L 50.9 26.4 L 48.3 30 L 162.8 30 L 171 21 L 181 30 L 181 34 L 45.3 34 L 44.4 35.2 L 40.5 39.9 L 36.3 44.9 L 31.6 50 L 26.4 55.4 L 20.8 60.9 L 14.6 66.5 L 13.3 65.4 L 17.9 58.5 L 22.3 52 L 26.4 46 L 30.2 40.3 L 33.7 34.9 L 36.7 29.9 L 39.4 25.2 L 41.7 20.9 L 43.6 16.9 Z M 160 37 L 170 46 L 170 50 L 44 50 L 44 46 L 151.8 46 Z " />
</g>
</svg>
