<svg xmlns="http://www.w3.org/2000/svg" xmlns:xlink="http://www.w3.org/1999/xlink" version="1.1" baseProfile="full" viewBox="0 0 200 200" width="200" height="200">
<g fill="black">
<path d="M 172.3 183.7 L 165.6 177.6 L 160.1 169.7 L 155.5 159.9 L 151.9 148.5 L 149 135.2 L 146.9 120.2 L 145.6 103.3 L 144.9 84.5 L 145 66 L 77.6 66 L 82.8 70.8 L 83.8 74.2 L 79.2 73.5 L 77.6 74.6 L 75.7 75.9 L 73.6 77.2 L 71.4 78.5 L 69.1 79.9 L 66.7 81.3 L 65.9 81.7 L 117.9 81.7 L 123.9 76.7 L 134.9 85.7 L 129.9 89.7 L 129.9 143 L 118.1 148.9 L 139.2 148.9 L 143.7 142.9 L 149.7 148.9 L 149.7 152.9 L 86.8 152.9 L 89.1 154.6 L 94 157.9 L 99 161.1 L 104.3 163.9 L 109.9 166.5 L 115.8 168.8 L 122 170.8 L 128.6 172.5 L 135.5 174 L 142.8 175.2 L 152.3 176.9 L 140.5 188.1 L 132.7 186.2 L 125.3 183.9 L 118.3 181.2 L 111.8 178.2 L 105.6 174.8 L 100 171 L 94.8 166.9 L 90.2 162.4 L 86.1 157.5 L 83.2 152.9 L 80.3 152.9 L 79.5 154.2 L 74.4 160.6 L 68.3 166.3 L 61.3 171.4 L 53.4 175.8 L 44.6 179.5 L 35 182.7 L 24.4 185.1 L 13 186.7 L 12.6 185 L 23.5 181.4 L 33.2 177.6 L 42 173.5 L 49.7 169.1 L 56.4 164.4 L 62.1 159.4 L 66.7 154.1 L 67.5 152.9 L 11.2 152.9 L 11.2 148.9 L 31 148.9 L 31 75.7 L 43 81.7 L 61.7 81.7 L 62.6 80.8 L 64.1 78.4 L 65.7 76.2 L 67.1 74 L 68.5 71.9 L 70.9 68.1 L 71.9 66.3 L 72.1 66 L 26 66 L 26 62 L 145 62 L 151 57 L 162 66 L 157 69 L 156.9 69 L 156.9 84.3 L 157.5 102.6 L 158.9 118.9 L 160.9 133.2 L 163.5 145.4 L 166.8 155.6 L 170.5 163.8 L 174.7 169.8 L 177.1 172.1 L 182 151 L 184 151 L 182.1 175.4 L 183.8 176.3 L 187.3 179.3 L 187.6 183.8 L 184.6 187.3 L 180.1 187.6 Z M 117.9 85.7 L 43 85.7 L 43 143 L 31.2 148.9 L 70.2 148.9 L 70.5 148.4 L 73.3 142.5 L 75.2 136.2 L 75.7 134.5 L 86.8 139.4 L 89.1 142.2 L 85.3 143.2 L 83.7 147.1 L 82.6 148.9 L 117.9 148.9 Z M 101.2 130.3 L 99.2 128.3 L 97 126.3 L 94.7 124.3 L 92.3 122.4 L 89.7 120.5 L 87 118.6 L 86.5 118.2 L 86.5 128.3 L 74.5 134.3 L 74.5 120 L 71.9 122.9 L 68.8 126.1 L 65.4 129 L 61.9 131.8 L 58.1 134.3 L 54.1 136.6 L 49.9 138.6 L 45.5 140.4 L 44.6 138.9 L 48 135.8 L 51.2 132.7 L 54.2 129.6 L 57 126.5 L 59.6 123.3 L 62 120.1 L 64.2 116.9 L 66.2 113.6 L 67.2 111.6 L 46.6 111.6 L 46.6 107.6 L 62.6 107.6 L 59.3 105 L 59 103.8 L 58.6 102.4 L 58 101 L 57.3 99.6 L 56.4 98.1 L 55.4 96.6 L 54.2 95 L 52.9 93.4 L 51.4 91.7 L 49.6 90.5 L 50.4 88.9 L 52.5 89.8 L 54.8 90.3 L 57 91 L 59.1 91.7 L 61.1 92.6 L 63 93.7 L 64.8 94.8 L 66.5 96.1 L 68.2 97.5 L 69.7 99.1 L 70.2 103.6 L 67.5 107.3 L 64.7 107.6 L 74.5 107.6 L 74.5 86.9 L 86.5 88.9 L 89.5 90.9 L 86.5 92.7 L 86.5 107.6 L 87.3 107.6 L 88.2 106.5 L 89.8 103.9 L 91.3 101.4 L 92.7 99 L 94.1 96.8 L 95.3 94.6 L 96.5 92.6 L 98.8 88 L 98.6 87.9 L 99.7 86.5 L 108.8 94.4 L 109.9 97.8 L 105.3 97.2 L 103.6 98.7 L 101.6 100.2 L 99.5 101.7 L 97.4 103.3 L 95 104.9 L 92.6 106.6 L 90.9 107.6 L 96.1 107.6 L 104.3 98.6 L 114.3 107.6 L 114.3 111.6 L 86.5 111.6 L 86.5 114.3 L 88.7 114.7 L 92.1 115.5 L 95.4 116.5 L 98.6 117.7 L 101.6 119 L 104.6 120.4 L 107.5 122 L 110.2 123.7 L 112.9 125.5 L 114.8 129.7 L 113.2 134 L 109.1 135.8 L 104.8 134.3 Z M 45.6 12.1 L 55.9 18.4 L 57.8 21.5 L 53.8 21.9 L 53.6 22.3 L 50.9 26.4 L 48.3 30 L 162.8 30 L 171 21 L 181 30 L 181 34 L 45.3 34 L 44.4 35.2 L 40.5 39.9 L 36.3 44.9 L 31.6 50 L 26.4 55.4 L 20.8 60.9 L 14.6 66.5 L 13.3 65.4 L 17.9 58.5 L 22.3 52 L 26.4 46 L 30.2 40.3 L 33.7 34.9 L 36.7 29.9 L 39.4 25.2 L 41.7 20.9 L 43.6 16.9 Z M 160 37 L 170 46 L 170 50 L 44 50 L 44 46 L 151.8 46 Z " />
</g>
</svg>
