<svg xmlns="http://www.w3.org/2000/svg" xmlns:xlink="http://www.w3.org/1999/xlink" version="1.1" baseProfile="full" viewBox="0 0 200 200" width="200" height="200">
<g fill="black">
<path d="M 90.3 181.9 L 90.3 26.9 L 101.3 32.4 L 172.6 32.4 L 178.6 27.4 L 189.6 36.4 L 184.6 40.4 L 184.6 170.4 L 172.6 176.4 L 172.6 164.4 L 101.3 164.4 L 101.3 176.4 Z M 31 175 L 31 104 L 29.7 106.1 L 23.9 114.9 L 17.5 123.3 L 10.7 131.5 L 9.2 130.4 L 14.4 121.2 L 19.3 112.1 L 24 102.9 L 28.3 93.7 L 32.3 84.4 L 36 75 L 39.3 65.6 L 42.3 56 L 44.9 46.3 L 46.3 40 L 15 40 L 15 36 L 66 36 L 76 26 L 88 36 L 88 40 L 58.6 40 L 55.8 49.4 L 52.5 59.3 L 48.7 69.1 L 44.6 78.6 L 41.5 85 L 66.5 85 L 72 80 L 82.5 89 L 77.5 92.5 L 77.5 163 L 66.5 168.5 L 66.5 157 L 43 157 L 43 169 Z M 101.3 160.4 L 131.2 160.4 L 131.2 99.4 L 101.3 99.4 Z M 143.2 160.4 L 172.6 160.4 L 172.6 99.4 L 143.2 99.4 Z M 43 153 L 66.5 153 L 66.5 89 L 43 89 Z M 101.3 95.4 L 131.2 95.4 L 131.2 36.4 L 101.3 36.4 Z M 143.2 95.4 L 172.6 95.4 L 172.6 36.4 L 143.2 36.4 Z " />
</g>
</svg>
