<svg xmlns="http://www.w3.org/2000/svg" xmlns:xlink="http://www.w3.org/1999/xlink" version="1.1" baseProfile="full" viewBox="0 0 200 200" width="200" height="200">
<path d="M 107.5,9.5 L 107.5,28.7 95.5,28.7 95.5,7.5 Z" fill="black" />
<path d="M 107.5,9.5 L 110.5,11.5 105.5,14.5 Z" fill="black" />
<path d="M 15.2,24.7 L 187.7,24.7 187.7,28.7 15.2,28.7 Z" fill="black" />
<path d="M 187.7,24.7 L 167.7,26.7 177.7,15.7 Z" fill="black" />
<path d="M 47.3,39.1 L 47.3,111 35.3,117 35.3,33.1 Z" fill="black" />
<path d="M 41.3,39.1 L 158.5,39.1 158.5,43.1 41.3,43.1 Z" fill="black" />
<path d="M 164.5,41.1 L 164.5,104 152.5,110 152.5,41.1 Z" fill="black" />
<path d="M 152.5,39.1 L 158.5,34.1 169.5,43.1 164.5,47.1 152.5,41.1 Z" fill="black" />
<path d="M 41.3,100 L 158.5,100 158.5,104 41.3,104 Z" fill="black" />
<path d="M 81.3,56.2 L 81.3,85.1 69.3,91.1 69.3,50.2 Z" fill="black" />
<path d="M 75.3,56.2 L 123.6,56.2 123.6,60.2 75.3,60.2 Z" fill="black" />
<path d="M 129.6,58.2 L 129.6,85.1 117.6,91.1 117.6,58.2 Z" fill="black" />
<path d="M 117.6,56.2 L 123.6,51.2 134.6,60.2 129.6,64.2 117.6,58.2 Z" fill="black" />
<path d="M 75.3,81.1 L 123.6,81.1 123.6,85.1 75.3,85.1 Z" fill="black" />
<path d="M 107,105.3 L 107,173.4 95,173.4 95,103.3 Z" fill="black" />
<path d="M 107,105.3 L 110,107.3 105,110.3 Z" fill="black" />
<path d="M 95,173.4 Q 95.6,178.8 101,179.4 Q 106.4,178.8 107,173.4 Z" fill="black" />
<path d="M 107,173.4 Q 107,180.3 102.7,185.1 Q 97.5,189.9 91,189.4 L 91,177.4 Q 94.5,176.9 94.2,176.6 Q 95,176.3 95,173.4 Z" fill="black" />
<path d="M 91,183.4 L 91,177.4 71,177.4 71,180.4 Z" fill="black" />
<path d="M 28,126.2 L 77,126.2 77,130.2 28,130.2 Z" fill="black" />
<path d="M 82.8,129.3 Q 78,148.1 61.7,160 Q 44.2,173 17.2,178.7 L 16.7,177 Q 44.2,165 56.2,153.4 Q 70,140.1 71.1,127.1 Z" fill="black" />
<path d="M 71,126.2 L 77,121.2 88,130.2 83,133.2 71,138.2 Z" fill="black" />
<path d="M 170.8,123.4 Q 160.1,130.7 148.7,136.3 Q 135.6,143.1 121.3,147.4 L 120.6,145.8 Q 134.6,136.1 144.3,129.1 Q 156.1,120.7 163.5,113.9 Z" fill="black" />
<path d="M 162.7,114.6 L 170.8,123.4 163.5,113.9 Z" fill="black" />
<path d="M 170.8,123.4 L 171.1,127 165.7,124.9 Z" fill="black" />
<path d="M 106.1,117.8 Q 116.5,139.4 132.5,151.1 Q 150.7,164.1 176.5,169.6 L 173.4,182.4 Q 142.7,174.1 126.5,158.2 Q 107.5,140.4 104.4,118.4 Z" fill="black" />
<path d="M 173.4,182.4 L 176.5,169.6 185.1,171.7 Z" fill="black" />
</svg>
