<svg xmlns="http://www.w3.org/2000/svg" xmlns:xlink="http://www.w3.org/1999/xlink" version="1.1" baseProfile="full" viewBox="0 0 200 200" width="200" height="200">
<path d="M 26.8,14.8 Q 36.6,14.9 42.9,17 Q 49.8,19.2 54.5,23.4 L 45.3,31.2 Q 43.8,28.2 39.1,24.6 Q 33.6,20.9 26.3,16.6 Z" fill="black" />
<path d="M 54.5,23.4 Q 57.5,27.9 53.8,31.9 Q 49.3,34.9 45.3,31.2 Z" fill="black" />
<path d="M 12.9,45.8 Q 23.5,45.9 29.9,47.9 Q 37.1,50.1 41.6,54.5 L 32.1,61.9 Q 31.1,59.1 26.3,55.6 Q 20.5,51.9 12.5,47.5 Z" fill="black" />
<path d="M 41.6,54.5 Q 44.5,59.1 40.6,62.9 Q 35.9,65.8 32.1,61.9 Z" fill="black" />
<path d="M 14.4,90.9 Q 28.3,91.6 35.4,100 Q 42.9,109.6 42.1,123.5 L 30.1,122.3 Q 31.9,110.6 28.5,104.9 Q 24.3,97.6 13.9,92.6 Z" fill="black" />
<path d="M 42.1,123.5 Q 40.9,128.8 35.5,128.8 Q 30.2,127.7 30.1,122.3 Z" fill="black" />
<path d="M 26.5,100.9 Q 29.6,95.5 38.4,82.8 Q 48.2,68.2 65,46.6 L 66.5,47.6 Q 52.2,74.2 45.6,87.1 Q 37.6,102.5 37.8,105 Z" fill="black" />
<path d="M 97,15.6 L 97,57.3 85,63.3 85,9.6 Z" fill="black" />
<path d="M 91,15.6 L 164,15.6 164,19.6 91,19.6 Z" fill="black" />
<path d="M 170,17.6 L 170,56.3 158,62.3 158,17.6 Z" fill="black" />
<path d="M 158,15.6 L 164,10.6 175,19.6 170,23.6 158,17.6 Z" fill="black" />
<path d="M 91,50.3 L 164,50.3 164,54.3 91,54.3 Z" fill="black" />
<path d="M 71,72.8 L 186,72.8 186,76.8 71,76.8 Z" fill="black" />
<path d="M 186,72.8 L 162,74.8 174,62.8 Z" fill="black" />
<path d="M 131,55.4 L 131,122.8 119,128.8 119,53.4 Z" fill="black" />
<path d="M 131,55.4 L 134,57.4 129,60.4 Z" fill="black" />
<path d="M 127,77.9 Q 116,93.4 100.8,104.1 Q 84.2,115.9 63.3,122.5 L 62.6,120.8 Q 83.2,108.9 95.6,97.4 Q 110,84.4 116.9,71.6 Z" fill="black" />
<path d="M 132.3,75 Q 144.2,85.9 155.9,93.9 Q 169.3,102.5 183.5,107.4 L 178.4,119.6 Q 161.3,111.5 150.3,101.3 Q 137.2,89.9 130.8,76.1 Z" fill="black" />
<path d="M 178.4,119.6 L 183.5,107.4 189.9,110.1 Z" fill="black" />
<path d="M 27,147.5 L 173,147.5 173,151.5 27,151.5 Z" fill="black" />
<path d="M 173,147.5 L 149,149.5 161,137.5 Z" fill="black" />
<path d="M 106,129.9 L 106,179.9 94,179.9 94,127.9 Z" fill="black" />
<path d="M 106,129.9 L 109,131.9 104,134.9 Z" fill="black" />
<path d="M 14,175.9 L 186,175.9 186,179.9 14,179.9 Z" fill="black" />
<path d="M 186,175.9 L 162,177.9 174,165.9 Z" fill="black" />
</svg>
