<svg xmlns="http://www.w3.org/2000/svg" xmlns:xlink="http://www.w3.org/1999/xlink" version="1.1" baseProfile="full" viewBox="0 0 200 200" width="200" height="200">
<path d="M 67.5,17.9 Q 56,47.1 43.2,71.1 Q 29.1,97.2 12.7,117.4 L 11.2,116.5 Q 25.1,91.2 35.6,67.3 Q 48,40.1 56.2,13.9 Z" fill="black" />
<path d="M 55.9,14.8 L 67.5,17.9 56.7,12.4 Z" fill="black" />
<path d="M 67.5,17.9 L 69.7,20.8 64,21.9 Z" fill="black" />
<path d="M 48,74 L 48,183 36,189 36,72 Z" fill="black" />
<path d="M 48,74 L 51,76 46,79 Z" fill="black" />
<path d="M 101.5,21.6 Q 96.1,30.5 88.5,37.4 Q 80.2,45 69.8,49.5 L 68.7,48 Q 77.2,39 82.2,31.7 Q 88.1,23.5 90.8,16.2 Z" fill="black" />
<path d="M 90.3,17.1 L 101.5,21.6 91.3,15.1 Z" fill="black" />
<path d="M 101.5,21.6 L 103.3,24.7 97.5,25.2 Z" fill="black" />
<path d="M 86.5,29 L 170,29 170,33 86.5,33 Z" fill="black" />
<path d="M 170,29 L 146,31 158,19 Z" fill="black" />
<path d="M 130,14.7 L 130,62.6 118,68.6 118,12.7 Z" fill="black" />
<path d="M 130,14.7 L 133,16.7 128,19.7 Z" fill="black" />
<path d="M 63.5,54 L 184.4,54 184.4,58 63.5,58 Z" fill="black" />
<path d="M 184.4,54 L 164.4,56 174.4,45 Z" fill="black" />
<path d="M 95.3,68.4 L 95.3,104.8 83.3,110.8 83.3,62.4 Z" fill="black" />
<path d="M 89.3,68.4 L 158.6,68.4 158.6,72.4 89.3,72.4 Z" fill="black" />
<path d="M 164.6,70.4 L 164.6,101.8 152.6,107.8 152.6,70.4 Z" fill="black" />
<path d="M 152.6,68.4 L 158.6,63.4 169.6,72.4 164.6,76.4 152.6,70.4 Z" fill="black" />
<path d="M 89.3,93.8 L 158.6,93.8 158.6,97.8 89.3,97.8 Z" fill="black" />
<path d="M 112,103.9 L 112,150.4 100,150.4 100,101.9 Z" fill="black" />
<path d="M 112,103.9 L 115,105.9 110,108.9 Z" fill="black" />
<path d="M 100,150.4 Q 100.6,155.8 106,156.4 Q 111.4,155.8 112,150.4 Z" fill="black" />
<path d="M 112,150.4 Q 111,169.1 100.2,178.4 Q 88.5,188.8 70.8,188.4 L 70.5,186.6 Q 88.5,180.8 94.1,172.6 Q 101,163.1 100,150.4 Z" fill="black" />
<path d="M 65.6,118.2 L 106,118.2 106,122.2 65.6,122.2 Z" fill="black" />
<path d="M 65.6,138.5 L 106,138.5 106,142.5 65.6,142.5 Z" fill="black" />
<path d="M 62.9,157.2 Q 80.7,155.2 95.6,154 Q 111.6,152.1 125.2,152 L 125.6,153.8 Q 111.6,159.1 97,162.3 Q 80.7,166.2 64.6,169.1 Z" fill="black" />
<path d="M 64.6,169.1 L 62.9,157.2 60.9,157.5 Z" fill="black" />
<path d="M 64.6,169.1 L 67,171.8 70.1,165.3 Z" fill="black" />
<path d="M 149.4,103.9 L 149.4,184 137.4,190 137.4,101.9 Z" fill="black" />
<path d="M 149.4,103.9 L 152.4,105.9 147.4,108.9 Z" fill="black" />
<path d="M 143.4,118.2 L 187.3,118.2 187.3,122.2 143.4,122.2 Z" fill="black" />
<path d="M 187.3,118.2 L 167.3,120.2 177.3,109.2 Z" fill="black" />
<path d="M 143.4,138.5 L 180.1,138.5 180.1,142.5 143.4,142.5 Z" fill="black" />
<path d="M 180.1,138.5 L 160.1,140.5 170.1,129.5 Z" fill="black" />
<path d="M 143.4,159.8 L 187.3,159.8 187.3,163.8 143.4,163.8 Z" fill="black" />
<path d="M 187.3,159.8 L 167.3,161.8 177.3,150.8 Z" fill="black" />
</svg>
