<svg xmlns="http://www.w3.org/2000/svg" xmlns:xlink="http://www.w3.org/1999/xlink" version="1.1" baseProfile="full" viewBox="0 0 200 200" width="200" height="200">
<path d="M 19,27.7 L 99,27.7 99,31.7 19,31.7 Z" fill="black" />
<path d="M 99,27.7 L 75,29.7 87,17.7 Z" fill="black" />
<path d="M 38.5,39.4 L 28.3,75.7 15.1,78.2 27.4,34.3 Z" fill="black" />
<path d="M 38.5,39.4 L 40.8,42.2 35.5,43.5 Z" fill="black" />
<path d="M 25,63.4 L 95,63.4 95,67.4 25,67.4 Z" fill="black" />
<path d="M 95,63.4 L 71,65.4 83,53.4 Z" fill="black" />
<path d="M 65.9,30.5 Q 60,67.5 47.7,88 Q 33.6,110.5 14.3,115 L 13.6,113.4 Q 31.6,103.5 40.2,83.9 Q 51,61.5 54,28.9 Z" fill="black" />
<path d="M 75,63.4 L 75,101.9 63,101.9 63,63.4 Z" fill="black" />
<path d="M 56.9,103.7 Q 67.8,98.3 78.6,93.4 Q 90.3,87.5 102.5,83.7 L 103.4,85.2 Q 92.3,94.5 82.8,100.8 Q 71.8,108.3 62.8,114.2 Z" fill="black" />
<path d="M 62.8,114.2 L 56.9,103.7 55.1,104.7 Z" fill="black" />
<path d="M 62.8,114.2 L 66,115.8 66.5,108.6 Z" fill="black" />
<path d="M 102,26.5 L 179,26.5 179,30.5 102,30.5 Z" fill="black" />
<path d="M 179,26.5 L 155,28.5 167,16.5 Z" fill="black" />
<path d="M 123.5,39.4 L 114.4,71.8 101.2,74.4 112.4,34.3 Z" fill="black" />
<path d="M 123.5,39.4 L 125.8,42.2 120.5,43.5 Z" fill="black" />
<path d="M 110,63.4 L 182,63.4 182,67.4 110,67.4 Z" fill="black" />
<path d="M 182,63.4 L 158,65.4 170,53.4 Z" fill="black" />
<path d="M 150.9,29.4 Q 144,67.4 130.9,87.2 Q 116.1,109.3 96.2,112.7 L 95.7,111 Q 114.1,102.3 123.5,82.9 Q 135,60.4 139,27.6 Z" fill="black" />
<path d="M 155,63.4 L 155,97.1 143,97.1 143,63.4 Z" fill="black" />
<path d="M 143,97.1 Q 143.6,102.5 149,103.1 Q 154.4,102.5 155,97.1 Z" fill="black" />
<path d="M 155,97.1 Q 155.5,100.5 155.7,100.3 Q 155.9,101.1 159,101.1 L 159,113.1 Q 151.9,113.1 147.2,108.8 Q 142.5,103.5 143,97.1 Z" fill="black" />
<path d="M 159,101.1 Q 164.4,101.6 165,107.1 Q 164.4,112.5 159,113.1 Z" fill="black" />
<path d="M 159,101.1 L 182,101.1 182,113.1 159,113.1 Z" fill="black" />
<path d="M 182,101.1 Q 187.4,101.6 188,107.1 Q 187.4,112.5 182,113.1 Z" fill="black" />
<path d="M 182,102.1 L 184,76.1 182,76.1 176,102.1 Z" fill="black" />
<path d="M 27,139.3 L 173,139.3 173,143.3 27,143.3 Z" fill="black" />
<path d="M 173,139.3 L 149,141.3 161,129.3 Z" fill="black" />
<path d="M 106,118.3 L 106,176.3 94,176.3 94,116.3 Z" fill="black" />
<path d="M 106,118.3 L 109,120.3 104,123.3 Z" fill="black" />
<path d="M 14,172.3 L 186,172.3 186,176.3 14,176.3 Z" fill="black" />
<path d="M 186,172.3 L 162,174.3 174,162.3 Z" fill="black" />
</svg>
