<svg xmlns="http://www.w3.org/2000/svg" xmlns:xlink="http://www.w3.org/1999/xlink" version="1.1" baseProfile="full" viewBox="0 0 200 200" width="200" height="200">
<path d="M 80.6,14.7 Q 69.2,25.2 52.9,31.8 Q 34.7,39.1 12.2,42.3 L 11.7,40.6 Q 35.7,32.1 49.2,24.2 Q 65.2,15.2 71.9,6.4 Z" fill="black" />
<path d="M 71.2,7.2 L 80.6,14.7 72.2,6.1 Z" fill="black" />
<path d="M 80.6,14.7 L 81.4,18.2 75.7,16.9 Z" fill="black" />
<path d="M 114.3,4.8 Q 127.2,13.5 142.6,19.9 Q 160.2,27.1 182.4,31 L 179.5,43.9 Q 154.2,37.1 138.6,28.3 Q 120.2,18.5 113,6 Z" fill="black" />
<path d="M 179.5,43.9 L 182.4,31 191.3,33 Z" fill="black" />
<path d="M 44,36.3 L 144,36.3 144,40.3 44,40.3 Z" fill="black" />
<path d="M 149.9,38 Q 150.4,48.7 149.2,55.8 Q 148.1,63.6 143.3,68.2 L 135.1,59.4 Q 136.1,58.6 137.4,53.6 Q 138.4,47.7 138,38.6 Z" fill="black" />
<path d="M 138,36.3 L 144,31.3 155,40.3 150,43.3 138,48.3 Z" fill="black" />
<path d="M 143.3,68.2 Q 139,71.4 134.9,67.9 Q 131.6,63.6 135.1,59.4 Z" fill="black" />
<path d="M 143.3,68.2 Q 138.6,72.7 133.5,74.5 Q 127.5,76.7 122,76.7 L 122,64.7 Q 126.5,64.7 129.1,63.4 Q 132.6,61.7 135.1,59.4 Z" fill="black" />
<path d="M 122,70.7 L 122,64.7 102,64.7 102,67.7 Z" fill="black" />
<path d="M 91.9,38.6 L 90.3,45.4 87,51.6 82.1,56.8 76,61.2 68.7,64.8 60.2,67.9 50.5,70.4 39.5,72.4 27.4,73.7 14,74.3 13.9,72.5 26.8,69.9 38.5,67.1 48.7,64.1 57.6,60.8 65,57.2 70.8,53.4 75.2,49.5 78,45.6 79.5,41.8 80,37.9 Z" fill="black" />
<path d="M 105.9,72.4 Q 86.8,93.4 64.4,107 Q 39.2,122.1 11.2,128.7 L 10.7,127 Q 40.2,114.1 59.7,99.9 Q 82.8,83.4 96.7,64.7 Z" fill="black" />
<path d="M 96.1,65.5 L 105.9,72.4 97.1,64.3 Z" fill="black" />
<path d="M 105.9,72.4 L 106.9,75.9 101.2,75 Z" fill="black" />
<path d="M 99.3,70.1 Q 119.1,85.7 138.3,95.9 Q 159.7,106.9 180.9,112.7 L 177,125.3 Q 151.7,116.9 133.5,103.9 Q 112.1,89.7 98,71.4 Z" fill="black" />
<path d="M 177,125.3 L 180.9,112.7 188.7,115.1 Z" fill="black" />
<path d="M 57,114.4 L 143,114.4 143,118.4 57,118.4 Z" fill="black" />
<path d="M 143,114.4 L 119,116.4 131,104.4 Z" fill="black" />
<path d="M 33,138.2 L 167,138.2 167,142.2 33,142.2 Z" fill="black" />
<path d="M 167,138.2 L 143,140.2 155,128.2 Z" fill="black" />
<path d="M 106,114.4 L 106,186.1 94,186.1 94,114.4 Z" fill="black" />
<path d="M 47.3,148.6 Q 57.3,152.3 63.2,157.6 Q 69.8,163.1 73.3,169.7 L 62.3,174.3 Q 60.8,169.1 57,163.4 Q 52.3,157.3 46.3,150.1 Z" fill="black" />
<path d="M 73.3,169.7 Q 74.9,174.9 70.1,177.5 Q 64.9,179 62.3,174.3 Z" fill="black" />
<path d="M 151.3,155.2 Q 145.2,162.5 138.4,168.4 Q 131,175.5 121.6,180.5 L 120.3,179.1 Q 127,169.5 132.2,162.7 Q 138.2,154.5 141.5,148.4 Z" fill="black" />
<path d="M 140.9,149.2 L 151.3,155.2 141.9,147.7 Z" fill="black" />
<path d="M 151.3,155.2 L 152.6,158.6 146.8,158.2 Z" fill="black" />
<path d="M 19,182.1 L 181,182.1 181,186.1 19,186.1 Z" fill="black" />
<path d="M 181,182.1 L 157,184.1 169,172.1 Z" fill="black" />
</svg>
