<svg xmlns="http://www.w3.org/2000/svg" xmlns:xlink="http://www.w3.org/1999/xlink" version="1.1" baseProfile="full" viewBox="0 0 200 200" width="200" height="200">
<path d="M 34.7,21.6 L 34.7,118.2 22.7,118.2 22.7,15.6 Z" fill="black" />
<path d="M 22.7,118.2 Q 23.3,123.6 28.7,124.2 Q 34.1,123.6 34.7,118.2 Z" fill="black" />
<path d="M 34.7,118.2 Q 33.4,147 28.5,163.7 Q 23,182.6 13.5,188.7 L 12.2,187.5 Q 18,177.6 20.3,161.8 Q 23.4,143 22.7,118.1 Z" fill="black" />
<path d="M 28.7,21.6 L 63.2,21.6 63.2,25.6 28.7,25.6 Z" fill="black" />
<path d="M 69.2,23.6 L 69.2,170.2 57.2,170.2 57.2,23.6 Z" fill="black" />
<path d="M 57.2,21.6 L 63.2,16.6 74.2,25.6 69.2,29.6 57.2,23.6 Z" fill="black" />
<path d="M 57.2,170.2 Q 57.8,175.6 63.2,176.2 Q 68.6,175.6 69.2,170.2 Z" fill="black" />
<path d="M 69.2,170.2 Q 69.2,177.2 65,181.9 Q 59.8,186.7 53.2,186.2 L 53.2,174.2 Q 56.8,173.7 56.5,173.5 Q 57.2,173.2 57.2,170.2 Z" fill="black" />
<path d="M 53.2,180.2 L 53.2,174.2 37.2,174.2 37.2,177.2 Z" fill="black" />
<path d="M 28.7,62 L 63.2,62 63.2,66 28.7,66 Z" fill="black" />
<path d="M 28.7,104.3 L 63.2,104.3 63.2,108.3 28.7,108.3 Z" fill="black" />
<path d="M 89.3,18.1 Q 98.3,21 103.7,26.1 Q 109.5,31.6 112.8,38.1 L 101.5,42.1 Q 100.5,36.6 97.3,31.6 Q 93.3,26 88.3,19.7 Z" fill="black" />
<path d="M 112.8,38.1 Q 114,43.4 109.1,45.8 Q 103.9,47 101.5,42.1 Z" fill="black" />
<path d="M 168.2,23.7 Q 163.6,30.4 157.6,36.7 Q 150.8,43.7 142,50.1 L 140.6,48.9 Q 146.8,38.7 150.8,31.6 Q 155.6,23.4 157.7,18 Z" fill="black" />
<path d="M 157.2,18.9 L 168.2,23.7 158.2,17 Z" fill="black" />
<path d="M 168.2,23.7 L 169.9,26.9 164,27.2 Z" fill="black" />
<path d="M 84.8,47.5 L 174.5,47.5 174.5,51.5 84.8,51.5 Z" fill="black" />
<path d="M 174.5,47.5 L 150.5,49.5 162.5,37.5 Z" fill="black" />
<path d="M 75,69.7 L 184.9,69.7 184.9,73.7 75,73.7 Z" fill="black" />
<path d="M 184.9,69.7 L 160.9,71.7 172.9,59.7 Z" fill="black" />
<path d="M 136.6,18 Q 128.9,52.4 113.2,75.7 Q 96.1,101.2 72.3,115 L 71.2,113.6 Q 94.1,94.2 105.9,71.3 Q 119.9,45.4 124.8,15.7 Z" fill="black" />
<path d="M 124.6,16.7 L 136.6,18 125.2,13.8 Z" fill="black" />
<path d="M 136.6,18 L 139.1,20.6 133.7,22.6 Z" fill="black" />
<path d="M 138,50 Q 150.3,67.6 161.1,78.9 Q 173,90.9 185,97.1 L 178.2,108.5 Q 164,98.9 153.9,84.9 Q 142.3,69.6 136.4,50.8 Z" fill="black" />
<path d="M 178.2,108.5 L 185,97.1 189.3,99.8 Z" fill="black" />
<path d="M 95.4,102.1 L 164.5,102.1 164.5,106.1 95.4,106.1 Z" fill="black" />
<path d="M 164.5,102.1 L 140.5,104.1 152.5,92.1 Z" fill="black" />
<path d="M 136,80.1 L 136,132.7 124,132.7 124,78.1 Z" fill="black" />
<path d="M 136,80.1 L 139,82.1 134,85.1 Z" fill="black" />
<path d="M 78.8,128.7 L 181.1,128.7 181.1,132.7 78.8,132.7 Z" fill="black" />
<path d="M 181.1,128.7 L 157.1,130.7 169.1,118.7 Z" fill="black" />
<path d="M 83.8,154.1 L 176.2,154.1 176.2,158.1 83.8,158.1 Z" fill="black" />
<path d="M 176.2,154.1 L 152.2,156.1 164.2,144.1 Z" fill="black" />
<path d="M 136,135.6 L 136,184.9 124,184.9 124,133.6 Z" fill="black" />
<path d="M 136,135.6 L 139,137.6 134,140.6 Z" fill="black" />
<path d="M 73.3,180.9 L 186.7,180.9 186.7,184.9 73.3,184.9 Z" fill="black" />
<path d="M 186.7,180.9 L 162.7,182.9 174.7,170.9 Z" fill="black" />
</svg>
