<svg xmlns="http://www.w3.org/2000/svg" xmlns:xlink="http://www.w3.org/1999/xlink" version="1.1" baseProfile="full" viewBox="0 0 200 200" width="200" height="200">
<path d="M 97.9,19.6 Q 89.7,28.2 80.9,35 Q 71.5,42.4 61.5,46.7 L 60.4,45.2 Q 68.5,36.4 75.1,28.8 Q 82.7,20.2 88.7,11.9 Z" fill="black" />
<path d="M 88.1,12.6 L 97.9,19.6 89.1,11.4 Z" fill="black" />
<path d="M 97.9,19.6 L 98.9,23 93.2,22.1 Z" fill="black" />
<path d="M 34.6,42.9 Q 64.2,41.9 92.6,41 Q 124.1,39.5 154.9,39.1 L 155,40.8 Q 121.1,46.5 93.3,49.4 Q 61.2,52.9 35.3,54.9 Z" fill="black" />
<path d="M 35.3,54.9 L 34.6,42.9 32.6,43 Z" fill="black" />
<path d="M 35.3,54.9 L 37.4,57.8 41.1,51.6 Z" fill="black" />
<path d="M 121.2,23.4 Q 137.8,26.6 148.6,32.3 Q 160.4,38.2 167.7,45.8 L 158.4,53.4 Q 153.4,46.2 144.3,39.6 Q 133.8,32.6 120.6,25.1 Z" fill="black" />
<path d="M 167.7,45.8 Q 170.6,50.4 166.9,54.3 Q 162.3,57.2 158.4,53.4 Z" fill="black" />
<path d="M 54.9,60.4 Q 49.8,69.8 43.8,78 Q 37.5,87.4 29.7,94.4 L 28.2,93.5 Q 32.5,82.4 36.4,73.8 Q 40.8,63.8 44.1,55.3 Z" fill="black" />
<path d="M 43.7,56.2 L 54.9,60.4 44.6,54.1 Z" fill="black" />
<path d="M 54.9,60.4 L 56.8,63.5 51,64.1 Z" fill="black" />
<path d="M 15.8,89.9 Q 28.8,87.9 41.7,86 Q 55.8,83.5 69.7,82.1 L 70.2,83.8 Q 55.8,90.5 43.7,94.3 Q 29.8,98.9 18.1,101.7 Z" fill="black" />
<path d="M 18.1,101.7 L 15.8,89.9 13.8,90.2 Z" fill="black" />
<path d="M 18.1,101.7 L 20.6,104.2 23.4,97.6 Z" fill="black" />
<path d="M 58.3,66 Q 66.2,70.2 70.4,75.3 Q 75.5,81 77.8,86.3 L 66.3,89.8 Q 65.5,85 63.4,80 Q 60.2,74.2 57,67.3 Z" fill="black" />
<path d="M 77.8,86.3 Q 78.8,91.7 73.8,93.8 Q 68.5,94.8 66.3,89.8 Z" fill="black" />
<path d="M 157.3,57.9 Q 153.3,66.3 148.4,74.5 Q 143,83.4 135.7,91.4 L 134.2,90.5 Q 138,79.4 140.8,70.9 Q 144.3,61.3 146,53.9 Z" fill="black" />
<path d="M 145.6,54.8 L 157.3,57.9 146.5,52.4 Z" fill="black" />
<path d="M 157.3,57.9 L 159.4,60.8 153.7,61.9 Z" fill="black" />
<path d="M 127,85.9 Q 139.8,84.4 150.5,83.7 Q 162.3,82.5 172.8,83.1 L 173.1,84.8 Q 162.3,89.5 151.9,92.1 Q 139.8,95.4 128.9,97.7 Z" fill="black" />
<path d="M 128.9,97.7 L 127,85.9 125,86.2 Z" fill="black" />
<path d="M 128.9,97.7 L 131.3,100.4 134.3,93.8 Z" fill="black" />
<path d="M 162.3,65 Q 171.7,70.2 177,76.1 Q 183.4,82.5 186.4,88.9 L 175.3,93.4 Q 173.4,87.5 170.2,81.2 Q 165.7,74.2 161.1,66.3 Z" fill="black" />
<path d="M 186.4,88.9 Q 187.9,94.2 183.1,96.7 Q 177.8,98.2 175.3,93.4 Z" fill="black" />
<path d="M 105.8,78 Q 86.8,98.1 64.3,111 Q 39.2,125.6 11.2,131.7 L 10.7,130 Q 40.2,117.6 59.8,103.9 Q 82.8,88.1 96.8,70.1 Z" fill="black" />
<path d="M 96.1,70.9 L 105.8,78 97.1,69.7 Z" fill="black" />
<path d="M 105.8,78 L 106.8,81.5 101,80.5 Z" fill="black" />
<path d="M 99.3,75.5 Q 119.1,90.3 138.2,100 Q 159.2,110.5 180.8,116 L 177.1,128.7 Q 152.2,120.5 133.6,108.1 Q 112.1,94.3 98.1,76.8 Z" fill="black" />
<path d="M 177.1,128.7 L 180.8,116 188.8,118.4 Z" fill="black" />
<path d="M 57,117.9 L 143,117.9 143,121.9 57,121.9 Z" fill="black" />
<path d="M 143,117.9 L 119,119.9 131,107.9 Z" fill="black" />
<path d="M 33,140.7 L 167,140.7 167,144.7 33,144.7 Z" fill="black" />
<path d="M 167,140.7 L 143,142.7 155,130.7 Z" fill="black" />
<path d="M 106,117.9 L 106,186.8 94,186.8 94,117.9 Z" fill="black" />
<path d="M 47.3,150.7 Q 57.3,154.2 63.2,159.2 Q 69.8,164.5 73.3,170.7 L 62.3,175.4 Q 60.8,170.5 57.1,165.1 Q 52.3,159.2 46.3,152.3 Z" fill="black" />
<path d="M 73.3,170.7 Q 74.9,175.8 70.1,178.6 Q 65,180.2 62.3,175.4 Z" fill="black" />
<path d="M 151.2,157.4 Q 145.2,164.3 138.4,170 Q 131,176.7 121.5,181.3 L 120.4,179.9 Q 127,170.7 132.2,164.1 Q 138.2,156.3 141.5,150.3 Z" fill="black" />
<path d="M 140.9,151.1 L 151.2,157.4 142,149.7 Z" fill="black" />
<path d="M 151.2,157.4 L 152.5,160.7 146.7,160.2 Z" fill="black" />
<path d="M 19,182.8 L 181,182.8 181,186.8 19,186.8 Z" fill="black" />
<path d="M 181,182.8 L 157,184.8 169,172.8 Z" fill="black" />
</svg>
