<svg xmlns="http://www.w3.org/2000/svg" xmlns:xlink="http://www.w3.org/1999/xlink" version="1.1" baseProfile="full" viewBox="0 0 200 200" width="200" height="200">
<path d="M 30.3,41.7 L 30.3,146.2 18.3,152.2 18.3,35.7 Z" fill="black" />
<path d="M 24.3,41.7 L 60.5,41.7 60.5,45.7 24.3,45.7 Z" fill="black" />
<path d="M 66.5,43.7 L 66.5,140.2 54.5,146.2 54.5,43.7 Z" fill="black" />
<path d="M 54.5,41.7 L 60.5,36.7 71.5,45.7 66.5,49.7 54.5,43.7 Z" fill="black" />
<path d="M 24.3,130.2 L 60.5,130.2 60.5,134.2 24.3,134.2 Z" fill="black" />
<path d="M 110.1,16.6 Q 119.9,18.6 125.8,23.9 Q 132.5,29.4 134.7,36.7 L 122.9,39.3 Q 122.5,34.4 119.6,29.7 Q 115.9,24.6 109.3,18.2 Z" fill="black" />
<path d="M 134.7,36.7 Q 135.2,42.2 130.1,43.9 Q 124.7,44.4 122.9,39.3 Z" fill="black" />
<path d="M 66.5,47 L 186.9,47 186.9,51 66.5,51 Z" fill="black" />
<path d="M 186.9,47 L 162.9,49 174.9,37 Z" fill="black" />
<path d="M 92,79 L 92,164 80,170 80,73 Z" fill="black" />
<path d="M 86,79 L 167.4,79 167.4,83 86,83 Z" fill="black" />
<path d="M 173.4,81 L 173.4,153 161.4,153 161.4,81 Z" fill="black" />
<path d="M 161.4,79 L 167.4,74 178.4,83 173.4,87 161.4,81 Z" fill="black" />
<path d="M 161.4,153 Q 162,158.4 167.4,159 Q 172.8,158.4 173.4,153 Z" fill="black" />
<path d="M 173.4,153 Q 173.4,159.9 169.1,164.7 Q 163.9,169.5 157.4,169 L 157.4,157 Q 160.9,156.5 160.7,156.2 Q 161.4,155.9 161.4,153 Z" fill="black" />
<path d="M 157.4,163 L 157.4,157 147.4,157 147.4,160 Z" fill="black" />
<path d="M 131.1,47 L 131.1,182 119.1,188 119.1,47 Z" fill="black" />
</svg>
