<svg xmlns="http://www.w3.org/2000/svg" xmlns:xlink="http://www.w3.org/1999/xlink" version="1.1" baseProfile="full" viewBox="0 0 200 200" width="200" height="200">
<g fill="black">
<polygon points="13.6,23.9 103.2,23.9 103.2,27.9 13.6,27.9 " />
<polygon points="103.2,23.9 79.2,25.9 91.2,13.9 " />
<polygon points="64.3,25.9 62.8,28.2 61.5,30.1 60.1,31.9 58.6,33.7 57.1,35.5 55.4,37.2 53.7,38.8 51.9,40.4 50,42 47.9,43.4 46.2,45.2 44.8,44 46.2,42 47,39.7 47.8,37.5 48.6,35.4 49.3,33.3 49.9,31.3 50.5,29.3 51,27.3 51.2,25.9 " />
<polygon points="39.8,42.6 39.8,107.7 27.8,113.7 27.8,36.6 " />
<polygon points="33.8,42.6 84.7,42.6 84.7,46.6 33.8,46.6 " />
<polygon points="90.7,44.6 90.7,107.7 78.7,113.7 78.7,44.6 " />
<polygon points="78.7,42.6 84.7,37.6 95.7,46.6 90.7,50.6 78.7,44.6 " />
<polygon points="33.8,103.7 84.7,103.7 84.7,107.7 33.8,107.7 " />
<polygon points="33.8,61.9 84.7,61.9 84.7,65.9 33.8,65.9 " />
<polygon points="33.8,81.1 84.7,81.1 84.7,85.1 33.8,85.1 " />
<polygon points="53.4,125.7 51.4,130.3 49.1,134.7 46.4,138.9 43.4,142.9 40.1,146.6 36.4,150 32.4,153.2 28.1,156 23.4,158.5 18.4,160.7 17.5,159.2 21.4,155.6 24.9,152 28.1,148.5 31.1,144.9 33.7,141.3 35.9,137.6 37.9,133.9 39.5,130.1 40.9,126.2 41.9,122.2 " />
<polygon points="41.6,123.1 53.4,125.7 42.4,120.6 " />
<polygon points="53.4,125.7 55.7,128.4 50,129.9 " />
<polygon points="44,132 83,132 83,136 44,136 " />
<polygon points="88.5,136.3 84.3,144.1 79.3,151.4 73.4,158.1 66.7,164.3 59.2,169.9 51,174.9 41.9,179.3 32.1,183.1 21.6,186.3 10.2,188.8 9.7,187.1 20.3,182.7 30.1,178.2 39,173.4 47,168.4 54.2,163 60.5,157.4 65.9,151.4 70.6,145.1 74.4,138.5 77.4,131.6 " />
<polygon points="77,132 83,127 94,136 89,139 77,144 " />
<polygon points="37,142.8 40.8,149.4 46.4,155 54.1,159.8 64.2,163.8 76.9,167.2 92.1,169.7 109.9,171.4 130.3,172.2 153.2,172.2 178.7,171.4 179.2,184.5 153.2,184.8 129.8,184 108.9,182.4 90.5,179.8 74.6,176.2 61.3,171.7 50.5,166 42.3,159.3 37.2,151.5 35.3,143.1 " />
<polygon points="179.2,184.5 178.7,171.4 190.1,170.9 " />
<polygon points="46.2,116.4 44,118.4 41.8,120.5 39.5,122.5 37.2,124.4 34.8,126.3 32.3,128.1 29.7,129.8 27,131.4 24.2,132.9 21.5,134.6 20.4,133.3 22.5,131 24.2,128.4 26,125.9 27.7,123.4 29.3,121 30.9,118.6 32.4,116.2 33.9,113.9 35.2,111.5 36.5,109.2 " />
<polygon points="35.9,110 46.2,116.4 37,108.5 " />
<polygon points="46.2,116.4 47.4,119.7 41.6,119.2 " />
<polygon points="75.2,111.4 78.1,112.1 81,112.6 83.9,113.3 86.6,114.3 89.2,115.4 91.8,116.8 94.1,118.3 96.4,120.1 98.5,122.1 100.5,124.3 90.3,130.5 89.5,128.6 88.6,126.8 87.5,125 86.3,123.1 84.8,121.4 83.2,119.6 81.4,117.9 79.4,116.1 77.2,114.4 74.6,113.1 " />
<polygon points="100.5,124.3 101.2,128.8 98.5,132.5 94,133.2 90.3,130.5 " />
<polygon points="118,58 118,160 106,160 106,52 " />
<polygon points="112,58 184,58 184,62 112,62 " />
<polygon points="184,58 160,60 172,48 " />
<polygon points="159.2,24.5 161.9,25.5 164.6,26.1 167.2,26.8 169.6,27.7 171.9,28.8 174.1,30 176.1,31.4 178,33 179.7,34.8 181.2,36.7 170.2,41.7 170.1,40.4 169.7,39 169.1,37.6 168.3,36 167.3,34.4 166,32.8 164.6,31.1 162.8,29.3 160.9,27.5 158.5,26.2 " />
<polygon points="181.2,36.7 181.3,41.3 178.2,44.7 173.6,44.8 170.2,41.7 " />
<polygon points="150.9,22 151.1,46.8 152.1,69.1 153.7,88.9 156.1,106.2 159.3,121 163,133.1 167.4,142.6 172.2,149.5 177.2,153.9 182.4,156.1 179.5,167.8 170.7,164 163.2,157.4 156.9,148.5 151.8,137.3 147.6,123.9 144.3,108.3 141.8,90.2 140.1,69.8 139.1,47.1 138.9,21.9 " />
<polygon points="138.9,22.9 150.9,22 139,19.5 " />
<polygon points="150.9,22 153.9,24 148.9,27 " />
<polygon points="182.4,156.1 186,158.9 186.8,163.4 184,167 179.5,167.8 " />
<polygon points="181,157 183,131 181,131 175,157 " />
<polygon points="102.6,158.9 105.9,156.3 109.2,153.6 112.5,151 115.9,148.4 119.3,145.8 122.8,143.2 126.3,140.7 129.9,138.1 133.6,135.7 137.3,133.3 138.6,134.6 135.9,138.2 133.3,141.7 130.5,145.1 127.7,148.5 124.9,151.8 122.1,155 119.3,158.2 116.4,161.4 113.6,164.5 110.8,167.6 " />
<polygon points="110.8,167.6 102.6,158.9 101.1,160.3 " />
<polygon points="110.8,167.6 114.3,168.5 113.1,161.4 " />
</g>
</svg>
