<svg xmlns="http://www.w3.org/2000/svg" xmlns:xlink="http://www.w3.org/1999/xlink" version="1.1" baseProfile="full" viewBox="0 0 200 200" width="200" height="200">
<path d="M 38,16.6 L 38,119.3 26,125.3 26,10.6 Z" fill="black" />
<path d="M 32,16.6 L 168,16.6 168,20.6 32,20.6 Z" fill="black" />
<path d="M 174,18.6 L 174,109.7 162,109.7 162,18.6 Z" fill="black" />
<path d="M 162,16.6 L 168,11.6 179,20.6 174,24.6 162,18.6 Z" fill="black" />
<path d="M 162,109.7 Q 162.6,115.1 168,115.7 Q 173.4,115.1 174,109.7 Z" fill="black" />
<path d="M 174,109.7 Q 174,116.6 169.7,121.4 Q 164.5,126.2 158,125.7 L 158,113.7 Q 161.5,113.2 161.2,112.9 Q 162,112.6 162,109.7 Z" fill="black" />
<path d="M 158,119.7 L 158,113.7 138,113.7 138,116.7 Z" fill="black" />
<path d="M 69,36.9 L 129,36.9 129,40.9 69,40.9 Z" fill="black" />
<path d="M 135,38.9 L 135,69.6 123,75.6 123,38.9 Z" fill="black" />
<path d="M 123,36.9 L 129,31.9 140,40.9 135,44.9 123,38.9 Z" fill="black" />
<path d="M 69,61.6 L 129,61.6 129,65.6 69,65.6 Z" fill="black" />
<path d="M 75,36.9 L 75,86.7 63,86.7 63,30.9 Z" fill="black" />
<path d="M 63,86.7 Q 63.6,92.1 69,92.7 Q 74.4,92.1 75,86.7 Z" fill="black" />
<path d="M 75,86.7 Q 75.5,90.1 75.7,89.9 Q 75.9,90.7 79,90.7 L 79,102.7 Q 71.9,102.7 67.2,98.4 Q 62.5,93.1 63,86.7 Z" fill="black" />
<path d="M 79,90.7 Q 84.4,91.3 85,96.7 Q 84.4,102.1 79,102.7 Z" fill="black" />
<path d="M 79,90.7 L 138,90.7 138,102.7 79,102.7 Z" fill="black" />
<path d="M 138,90.7 Q 143.4,91.3 144,96.7 Q 143.4,102.1 138,102.7 Z" fill="black" />
<path d="M 138,91.7 L 140,65.7 138,65.7 132,91.7 Z" fill="black" />
<path d="M 63.7,126.1 Q 64.9,138.3 59.3,147.1 Q 53.4,156.8 43.2,162.2 L 38.2,151.2 Q 47.4,147.8 52.4,142.2 Q 57.9,135.3 61.9,125.8 Z" fill="black" />
<path d="M 43.2,162.2 Q 38,163.9 35.2,159.2 Q 33.5,154 38.2,151.2 Z" fill="black" />
<path d="M 163.8,133.3 Q 154.6,139.2 144,144.7 Q 132.6,150.9 119.4,154.7 L 118.5,153.2 Q 130.6,143.9 139.5,137.5 Q 149.6,130.2 156.5,123.8 Z" fill="black" />
<path d="M 155.7,124.4 L 163.8,133.3 156.6,123.8 Z" fill="black" />
<path d="M 163.8,133.3 L 164,136.9 158.6,134.8 Z" fill="black" />
<path d="M 106.9,118 Q 104.9,151.7 81.9,168.7 Q 56.9,186.9 16.1,188.8 L 15.8,187.1 Q 59.9,178.9 76.5,162.2 Q 95.9,143.7 94.9,117.9 Z" fill="black" />
<path d="M 94.9,118.9 L 106.9,118 95,115.5 Z" fill="black" />
<path d="M 106.9,118 L 109.9,120.1 104.9,123 Z" fill="black" />
<path d="M 104,123.8 Q 110.5,149.2 127.4,160.3 Q 146.1,172.9 177.6,175.4 L 176.3,188.5 Q 139.1,183.9 121.6,167.6 Q 101.5,149.2 102.2,124 Z" fill="black" />
<path d="M 176.3,188.5 L 177.6,175.4 188.2,176.5 Z" fill="black" />
</svg>
