<svg xmlns="http://www.w3.org/2000/svg" xmlns:xlink="http://www.w3.org/1999/xlink" version="1.1" baseProfile="full" viewBox="0 0 200 200" width="200" height="200">
<g fill="black">
<polygon points="12,68 69.6,68 69.6,72 12,72 " />
<polygon points="69.6,68 49.5,70 59.6,59 " />
<polygon points="46,19 46,143 34,143 34,17 " />
<polygon points="46,19 49,21 44,24 " />
<polygon points="10.7,151 15.3,149.5 20.2,147.8 25.3,145.9 30.8,143.8 36.5,141.5 42.6,139.1 48.9,136.5 55.6,133.8 62.6,131 69.9,128.2 70.8,129.7 64.3,134.3 58,138.5 51.9,142.3 45.9,145.9 40.2,149.2 34.7,152.2 29.5,155.1 24.4,157.6 19.6,160 15.1,162.2 " />
<polygon points="15.1,162.2 10.7,151 8.8,151.7 " />
<polygon points="15.1,162.2 18,164.3 19.6,157.2 " />
<polygon points="88.2,26 88.2,116 76.2,116 76.2,20 " />
<polygon points="76.2,116 78.6,119.6 82.2,122 85.8,119.6 88.2,116 " />
<polygon points="88.2,116 87.7,125.5 86.9,134.6 85.7,143.3 84.1,151.4 82.2,159.1 79.9,166.3 77.2,173 74.1,179.1 70.5,184.6 66.5,189.4 64.9,188.5 67.2,182.8 69.2,176.9 71,170.8 72.6,164.2 73.9,157.3 75,149.9 75.7,142.1 76.2,133.8 76.3,125.1 76.2,116 " />
<polygon points="82.2,26 176,26 176,30 82.2,30 " />
<polygon points="182,28 182,172 170,172 170,28 " />
<polygon points="170,26 176,21 187,30 182,34 170,28 " />
<polygon points="170,172 172.4,175.6 176,178 179.6,175.6 182,172 " />
<polygon points="182,172 181.8,174.5 181.4,177 180.6,179.4 179.3,181.7 177.7,183.7 175.7,185.3 173.4,186.6 171,187.4 168.5,187.8 166,188 166,176 167.2,175.9 168.1,175.7 168.7,175.5 169,175.4 169.2,175.2 169.4,175 169.5,174.7 169.7,174.1 169.9,173.2 170,172 " />
<polygon points="166,182 166,176 146,176 146,179 " />
<polygon points="95,64 164,64 164,68 95,68 " />
<polygon points="164,64 140,66 152,54 " />
<polygon points="95,89 164,89 164,93 95,93 " />
<polygon points="164,89 140,91 152,79 " />
<polygon points="134,41 134,120 122,120 122,39 " />
<polygon points="134,41 137,43 132,46 " />
<polygon points="113.7,116 113.7,164 101.7,170 101.7,110 " />
<polygon points="107.7,116 149,116 149,120 107.7,120 " />
<polygon points="155,118 155,158 143,164 143,118 " />
<polygon points="143,116 149,111 160,120 155,124 143,118 " />
<polygon points="107.7,148 149,148 149,152 107.7,152 " />
</g>
</svg>
