<svg xmlns="http://www.w3.org/2000/svg" xmlns:xlink="http://www.w3.org/1999/xlink" version="1.1" baseProfile="full" viewBox="0 0 200 200" width="200" height="200">
<path d="M 12.4,68 L 72.2,68 72.2,72 12.4,72 Z" fill="black" />
<path d="M 72.2,68 L 48.2,70 60.2,58 Z" fill="black" />
<path d="M 47.5,19 L 47.5,143 35.5,143 35.5,17 Z" fill="black" />
<path d="M 47.5,19 L 50.5,21 45.5,24 Z" fill="black" />
<path d="M 11.2,151 Q 23.3,147.3 38,141.5 Q 54,135 72.6,128.2 L 73.4,129.7 Q 55,142 41.6,149.2 Q 26.3,157.3 15.4,162.2 Z" fill="black" />
<path d="M 15.4,162.2 L 11.2,151 9.4,151.7 Z" fill="black" />
<path d="M 15.4,162.2 L 18.4,164.3 20,157.3 Z" fill="black" />
<path d="M 171.5,28 Q 151.3,33.5 129.7,36.9 Q 105.8,40.9 80.8,41.8 L 80.6,40.1 Q 107.8,33.9 128,28.6 Q 151.3,22.5 167.9,16.5 Z" fill="black" />
<path d="M 167,16.8 L 171.5,28 177.8,26 Z" fill="black" />
<path d="M 177.8,26 L 178.1,29.1 171.2,26 Z" fill="black" />
<path d="M 77.3,68 L 185.3,68 185.3,72 77.3,72 Z" fill="black" />
<path d="M 185.3,68 L 161.3,70 173.3,58 Z" fill="black" />
<path d="M 123.6,40.7 L 118.1,81.7 106.3,80.2 112,37.2 Z" fill="black" />
<path d="M 123.6,40.7 L 126.3,43.1 121.1,44.8 Z" fill="black" />
<path d="M 118.1,81.8 Q 111.1,121.6 96.9,147.1 Q 81.3,175.3 58.7,188.7 L 57.7,187.2 Q 78.3,168.3 89.3,143.3 Q 102.1,114.6 106.3,80.1 Z" fill="black" />
<path d="M 108.8,99 L 167.3,99 167.3,103 108.8,103 Z" fill="black" />
<path d="M 173.1,102.6 Q 161.4,137.6 140,158.4 Q 116,181.3 84.4,189.8 L 83.8,188.1 Q 117,173.3 133.9,152.5 Q 154.4,128.6 161.6,99.3 Z" fill="black" />
<path d="M 161.3,99 L 167.3,94 178.3,103 173.3,106 161.3,111 Z" fill="black" />
<path d="M 114.5,101.7 Q 126.9,133.1 142.1,150.3 Q 159.2,168.9 179.6,174.7 L 175.3,187.2 Q 149.2,176.9 134.8,156.1 Q 117.9,133.1 112.7,102.2 Z" fill="black" />
<path d="M 175.3,187.2 L 179.6,174.7 186.9,177.2 Z" fill="black" />
</svg>
