<svg xmlns="http://www.w3.org/2000/svg" xmlns:xlink="http://www.w3.org/1999/xlink" version="1.1" baseProfile="full" viewBox="0 0 200 200" width="200" height="200">
<path d="M 12.6,68 L 73,68 73,72 12.6,72 Z" fill="black" />
<path d="M 73,68 L 49,70 61,58 Z" fill="black" />
<path d="M 48,19 L 48,143 36,143 36,17 Z" fill="black" />
<path d="M 48,19 L 51,21 46,24 Z" fill="black" />
<path d="M 11.4,151 Q 23.6,147.3 38.5,141.5 Q 54.7,135 73.5,128.1 L 74.3,129.8 Q 55.7,142 42.1,149.2 Q 26.6,157.3 15.6,162.2 Z" fill="black" />
<path d="M 15.6,162.2 L 11.4,151 9.5,151.7 Z" fill="black" />
<path d="M 15.6,162.2 L 18.5,164.4 20.2,157.3 Z" fill="black" />
<path d="M 90.3,26 L 90.3,94 78.3,94 78.3,20 Z" fill="black" />
<path d="M 78.3,94 Q 78.9,99.4 84.3,100 Q 89.7,99.4 90.3,94 Z" fill="black" />
<path d="M 90.3,94 Q 89.3,131.1 83.9,153.8 Q 77.8,178.8 66.7,188.5 L 65.3,187.4 Q 72.8,173.8 75.6,152.1 Q 79.3,127.1 78.3,94 Z" fill="black" />
<path d="M 84.3,26 L 168.9,26 168.9,30 84.3,30 Z" fill="black" />
<path d="M 174.8,29 L 174.9,28.1 174.4,64.3 174.8,94.2 176,118.4 177.8,137.4 180.1,151.9 182.6,162.3 185.2,169 187.4,172.7 188.6,173.9 188.7,174 187.2,185.9 182.3,184.1 178,180.2 174.4,174.2 171.2,165.8 168.3,154.2 165.9,138.9 164,119.2 162.8,94.5 162.4,64.2 162.8,28 Z" fill="black" />
<path d="M 162.9,26 L 168.9,21 179.9,30 174.9,33 162.9,38 Z" fill="black" />
<path d="M 188.7,174 Q 194,175.3 193.9,180.7 Q 192.6,186 187.2,185.9 Z" fill="black" />
<path d="M 188,175 L 190,149 188,149 182,175 Z" fill="black" />
<path d="M 91.1,59.6 L 162.2,59.6 162.2,63.6 91.1,63.6 Z" fill="black" />
<path d="M 162.2,59.6 L 138.2,61.6 150.2,49.6 Z" fill="black" />
<path d="M 129.8,62.8 Q 123.2,90.2 114.3,108.7 Q 104.3,129.7 91.8,140.9 L 90.4,139.7 Q 100.3,123.7 106.5,105.5 Q 114.2,84.2 118.1,60.4 Z" fill="black" />
<path d="M 116,89 L 148.8,89 148.8,93 116,93 Z" fill="black" />
<path d="M 154.7,92.1 Q 146.3,131.9 131.7,154.2 Q 115.6,178.7 94.6,184.9 L 93.8,183.2 Q 113.6,171.7 124.4,149.9 Q 137.3,124.9 142.9,89.9 Z" fill="black" />
<path d="M 142.8,89 L 148.8,84 159.8,93 154.8,96 142.8,101 Z" fill="black" />
<path d="M 114.6,111.4 Q 122,113 126.8,118.3 Q 132.2,124.1 135.4,131.6 L 124,135.4 Q 122.2,128.1 120,123.3 Q 117,118 113.7,113 Z" fill="black" />
<path d="M 135.4,131.6 Q 136.5,136.9 131.6,139.2 Q 126.3,140.3 124,135.4 Z" fill="black" />
</svg>
