<svg xmlns="http://www.w3.org/2000/svg" xmlns:xlink="http://www.w3.org/1999/xlink" version="1.1" baseProfile="full" viewBox="0 0 200 200" width="200" height="200">
<g fill="black">
<polygon points="12,68 69.6,68 69.6,72 12,72 " />
<polygon points="69.6,68 49.5,70 59.6,59 " />
<polygon points="46,19 46,143 34,143 34,17 " />
<polygon points="46,19 49,21 44,24 " />
<polygon points="10.7,151 15.3,149.5 20.2,147.8 25.3,145.9 30.8,143.8 36.5,141.5 42.6,139.1 48.9,136.5 55.6,133.8 62.6,131 69.9,128.2 70.8,129.7 64.3,134.3 58,138.5 51.9,142.3 45.9,145.9 40.2,149.2 34.7,152.2 29.5,155.1 24.4,157.6 19.6,160 15.1,162.2 " />
<polygon points="15.1,162.2 10.7,151 8.8,151.7 " />
<polygon points="15.1,162.2 18,164.3 19.6,157.2 " />
<polygon points="165.2,25 156.4,26.5 147.4,27.8 138.3,29.1 129,30.3 119.6,31.4 110,32.5 100.3,33.4 90.4,34.1 80.3,34.6 70.1,34.8 69.8,33.1 79.8,30.8 89.7,28.8 99.4,26.8 108.9,24.9 118.3,23.1 127.5,21.2 136.6,19.2 145.5,17.3 154.2,15.3 162.8,13.3 " />
<polygon points="161.8,13.5 165.2,25 173.7,23.3 " />
<polygon points="173.7,23.3 174,26.3 166.7,22.7 " />
<polygon points="81.3,42.8 84.7,44.8 88.1,46.7 91.1,48.8 93.9,51.2 96.3,53.8 98.5,56.6 100.3,59.5 101.8,62.7 103,66.1 103.8,69.6 91.8,70.3 91.9,67.9 91.8,65.5 91.5,63 90.8,60.5 89.9,57.9 88.6,55.3 87.1,52.6 85.2,49.8 83,46.9 80.2,44.3 " />
<polygon points="103.8,69.6 102.2,73.9 98.1,75.9 93.8,74.4 91.8,70.3 " />
<polygon points="110.3,35.9 113.7,38.2 117.1,40.4 120.2,42.7 123,45.2 125.5,47.7 127.7,50.4 129.6,53.1 131.3,56 132.6,59.1 133.5,62.2 121.6,63.7 121.7,61.7 121.4,59.5 121,57.1 120.2,54.6 119.1,52 117.8,49.3 116.1,46.4 114.1,43.4 111.9,40.3 109.1,37.3 " />
<polygon points="133.5,62.2 132.3,66.6 128.3,68.9 123.9,67.7 121.6,63.7 " />
<polygon points="169.9,39.5 167.4,43.7 164.9,48 162.2,52.3 159.4,56.7 156.6,61.2 153.6,65.8 150.4,70.4 147.1,75.1 143.6,79.7 139.7,84.4 138.2,83.5 140.3,77.9 142.4,72.4 144.7,67.2 146.9,62.1 149.1,57.2 151.3,52.3 153.3,47.6 155.3,43 157.3,38.5 159.1,34.2 " />
<polygon points="158.7,35.1 169.9,39.5 159.7,33.1 " />
<polygon points="169.9,39.5 171.7,42.7 165.8,43.1 " />
<polygon points="81.8,71 82.1,76.1 82.4,81 82.2,85.6 81.8,90 81,94.1 79.9,97.9 78.5,101.6 76.7,104.9 74.6,108 72,110.8 64.6,101.4 66.5,100.2 68.4,98.6 70.2,96.6 71.9,94.2 73.6,91.4 75.1,88.1 76.5,84.5 77.8,80.4 79.1,75.9 80,70.9 " />
<polygon points="72,110.8 67.6,112 63.6,109.8 62.4,105.4 64.6,101.4 " />
<polygon points="81,82 175,82 175,86 81,86 " />
<polygon points="179.4,87.9 177.5,89.5 175.6,91 173.6,92.6 171.6,94.2 169.5,95.9 167.4,97.5 165.3,99.2 163,100.9 160.7,102.5 158.6,104.5 157.3,103.4 158.8,101 160,98.4 161.3,95.9 162.6,93.4 163.9,91 165.2,88.7 166.5,86.5 167.8,84.2 169.2,82.1 170.5,80 " />
<polygon points="169,82 175,77 186,86 181,89 169,94 " />
<polygon points="80,109 151,109 151,113 80,113 " />
<polygon points="156.5,113.3 150.2,125.5 142.9,136.6 134.4,146.8 125,156 114.5,164.1 103,171.2 90.5,177.3 77,182.3 62.5,186.1 47.1,188.8 46.8,187.1 61.5,182.5 75.1,177.2 87.7,171.3 99.1,164.7 109.4,157.3 118.7,149.1 126.9,140.2 134.1,130.5 140.2,119.9 145.4,108.6 " />
<polygon points="145,109 151,104 162,113 157,116 145,121 " />
<polygon points="96.1,111.6 101.7,122 107.5,131.4 113.8,139.9 120.6,147.4 127.9,153.9 135.7,159.6 144.2,164.4 153.2,168.3 162.9,171.3 173.2,173.5 170.7,186.4 159.3,183.3 148.7,179.2 138.9,174 129.9,168 121.7,160.9 114.4,153 107.9,144.1 102.4,134.4 97.9,123.7 94.4,112.2 " />
<polygon points="170.7,186.4 173.2,173.5 182.5,175.3 " />
</g>
</svg>
