<svg xmlns="http://www.w3.org/2000/svg" xmlns:xlink="http://www.w3.org/1999/xlink" version="1.1" baseProfile="full" viewBox="0 0 200 200" width="200" height="200">
<path d="M 10.8,68 L 63,68 63,72 10.8,72 Z" fill="black" />
<path d="M 63,68 L 43,70 53,59 Z" fill="black" />
<path d="M 42.2,19 L 42.2,143 30.2,143 30.2,17 Z" fill="black" />
<path d="M 42.2,19 L 45.2,21 40.2,24 Z" fill="black" />
<path d="M 9.4,151 Q 20.2,147.3 32.8,141.6 Q 46.6,135 63.3,128.2 L 64.2,129.7 Q 48.6,142 36.8,149.1 Q 23.2,157.3 14.1,162.1 Z" fill="black" />
<path d="M 14.1,162.1 L 9.4,151 7.5,151.8 Z" fill="black" />
<path d="M 14.1,162.1 L 17.1,164 18.4,157 Z" fill="black" />
<path d="M 58.1,27 L 106.8,27 106.8,31 58.1,31 Z" fill="black" />
<path d="M 112.2,31.5 Q 107.3,40.4 101.1,49 Q 94.7,58.8 86.2,67.4 L 84.7,66.5 Q 89.7,53.8 93.7,44.9 Q 98.3,34.4 101.3,26.4 Z" fill="black" />
<path d="M 100.8,27 L 106.8,22 117.8,31 112.8,34 100.8,39 Z" fill="black" />
<path d="M 91.5,64 L 91.5,172 79.5,172 79.5,62 Z" fill="black" />
<path d="M 91.5,64 L 94.5,66 89.5,69 Z" fill="black" />
<path d="M 79.5,172 Q 80.1,177.4 85.5,178 Q 90.9,177.4 91.5,172 Z" fill="black" />
<path d="M 91.5,172 Q 91.5,178.9 87.2,183.7 Q 82,188.5 75.5,188 L 75.5,176 Q 79,175.5 78.7,175.2 Q 79.5,174.9 79.5,172 Z" fill="black" />
<path d="M 75.5,182 L 75.5,176 55.5,176 55.5,179 Z" fill="black" />
<path d="M 57.2,107.9 Q 71.1,104.3 84.6,99.7 Q 99.5,94.5 114.4,90.1 L 115.1,91.8 Q 100.5,101.5 87.8,107.6 Q 73.1,114.3 61,119.3 Z" fill="black" />
<path d="M 61,119.3 L 57.2,107.9 55.3,108.6 Z" fill="black" />
<path d="M 61,119.3 L 63.8,121.6 65.7,114.6 Z" fill="black" />
<path d="M 182,27.7 Q 164.8,33.3 147.8,37.3 Q 128.7,42.1 110,44.4 L 109.6,42.7 Q 129.7,35.1 145.3,29.2 Q 163.8,22.3 177.9,16.5 Z" fill="black" />
<path d="M 176.9,16.8 L 182,27.7 187.3,25.8 Z" fill="black" />
<path d="M 187.3,25.8 L 187.5,28.9 180.9,26 Z" fill="black" />
<path d="M 152.1,41.8 Q 147.6,50.4 142.9,57.8 Q 137.7,65.8 131.4,71.7 L 129.8,70.8 Q 132.7,61.8 135.3,54 Q 138.6,45.4 141,37.3 Z" fill="black" />
<path d="M 140.6,38.2 L 152.1,41.8 141.5,36 Z" fill="black" />
<path d="M 152.1,41.8 L 154.1,44.8 148.4,45.7 Z" fill="black" />
<path d="M 119.2,63 Q 127.6,64.5 133.3,71.5 Q 139.5,79.1 143.3,89.5 L 131.7,92.8 Q 129.5,82.1 126.3,76.3 Q 122.6,69.5 118.4,64.6 Z" fill="black" />
<path d="M 143.3,89.5 Q 144.2,94.9 139.1,96.9 Q 133.8,97.8 131.7,92.8 Z" fill="black" />
<path d="M 173.4,54.6 Q 166,71.1 157.5,86 Q 148.6,102.3 137.7,116.3 L 136.2,115.4 Q 143.6,97.3 149.9,82.3 Q 157,65.1 162.3,50.2 Z" fill="black" />
<path d="M 161.9,51.1 L 173.4,54.6 162.8,48.8 Z" fill="black" />
<path d="M 173.4,54.6 L 175.4,57.6 169.7,58.5 Z" fill="black" />
<path d="M 111,114.7 Q 130.2,111.7 145.9,109.4 Q 163.1,106.4 177.5,105.1 L 177.9,106.8 Q 163.1,113.4 147.7,117.7 Q 130.2,122.7 113.2,126.5 Z" fill="black" />
<path d="M 113.2,126.5 L 111,114.7 109.1,115.1 Z" fill="black" />
<path d="M 113.2,126.5 L 115.7,129.1 118.6,122.5 Z" fill="black" />
<path d="M 169.5,84.4 Q 178.3,92.4 182.4,102.5 Q 187.4,113.7 188.9,126.2 L 176.9,127.2 Q 176.4,114.7 174.3,105.3 Q 171.3,94.4 168,85.5 Z" fill="black" />
<path d="M 188.9,126.2 Q 188.7,131.6 183.4,132.7 Q 177.9,132.5 176.9,127.2 Z" fill="black" />
<path d="M 153.8,109.9 L 153.8,184.1 141.8,190.1 141.8,109.9 Z" fill="black" />
<path d="M 136.9,138.4 Q 132.1,150.9 125.4,161.5 Q 118.3,173.6 108.3,183.6 L 106.8,182.6 Q 113.3,168.6 117.8,157.7 Q 123.1,144.9 125.5,134.7 Z" fill="black" />
<path d="M 125.2,135.7 L 136.9,138.4 126,133.2 Z" fill="black" />
<path d="M 136.9,138.4 L 139.2,141.2 133.5,142.6 Z" fill="black" />
<path d="M 160.5,130.8 Q 169,136.9 175.1,145.9 Q 181.7,155.9 186.8,167.3 L 175.6,171.5 Q 171.7,158.9 167.7,150.1 Q 163,139.9 159.1,132 Z" fill="black" />
<path d="M 186.8,167.3 Q 188.1,172.6 183.3,175.1 Q 178,176.4 175.6,171.5 Z" fill="black" />
</svg>
