<svg xmlns="http://www.w3.org/2000/svg" xmlns:xlink="http://www.w3.org/1999/xlink" version="1.1" baseProfile="full" viewBox="0 0 200 200" width="200" height="200">
<path d="M 9.6,68 L 56.1,68 56.1,72 9.6,72 Z" fill="black" />
<path d="M 56.1,68 L 40.1,70 48.1,61 Z" fill="black" />
<path d="M 38.2,19 L 38.2,143 26.2,143 26.2,17 Z" fill="black" />
<path d="M 38.2,19 L 41.2,21 36.2,24 Z" fill="black" />
<path d="M 7.9,151.1 Q 17.3,147.3 28.8,141.7 Q 41.4,135 56.2,128.2 L 57.2,129.7 Q 43.4,142 33.1,149 Q 21.3,157.3 13.1,161.9 Z" fill="black" />
<path d="M 13.1,161.9 L 7.9,151.1 6.1,152 Z" fill="black" />
<path d="M 13.1,161.9 L 16.2,163.8 17.2,156.6 Z" fill="black" />
<path d="M 129.4,13.3 L 129.4,43.9 117.4,43.9 117.4,11.3 Z" fill="black" />
<path d="M 129.4,13.3 L 132.4,15.3 127.4,18.3 Z" fill="black" />
<path d="M 79.1,16.2 Q 86.7,17.9 92.1,21.8 Q 97.9,26.1 101.3,31.8 L 90.4,36.9 Q 88.9,32.1 86.1,27.8 Q 82.7,22.9 78.2,17.7 Z" fill="black" />
<path d="M 101.3,31.8 Q 103,36.9 98.4,39.8 Q 93.3,41.5 90.4,36.9 Z" fill="black" />
<path d="M 168.8,22 Q 165.3,25.1 159.9,30.3 Q 153.7,35.7 144.2,42.5 L 142.9,41.2 Q 149.7,30.7 153.5,24.7 Q 158.3,18.1 158.9,15.3 Z" fill="black" />
<path d="M 158.3,16.1 L 168.8,22 159.4,14.5 Z" fill="black" />
<path d="M 168.8,22 L 170.2,25.3 164.3,25 Z" fill="black" />
<path d="M 71,32 Q 74,45.6 72.3,54.8 Q 70.9,65 64.4,70.5 L 57.4,60.8 Q 60.9,59 64.1,52.6 Q 67,44.6 69.2,32.1 Z" fill="black" />
<path d="M 64.4,70.5 Q 59.7,73.2 56,69.2 Q 53.4,64.4 57.4,60.8 Z" fill="black" />
<path d="M 70.8,40.2 L 182.2,40.2 182.2,44.2 70.8,44.2 Z" fill="black" />
<path d="M 187.5,45 Q 184.4,49.6 179.5,54.9 Q 174.7,60.9 167.4,66.5 L 166,65.4 Q 169.7,55.9 172.4,50.3 Q 175.4,43.6 176.9,39.4 Z" fill="black" />
<path d="M 176.2,40.2 L 182.2,35.2 193.2,44.2 188.2,47.2 176.2,52.2 Z" fill="black" />
<path d="M 96.8,55 L 96.8,82.1 84.8,88.1 84.8,49 Z" fill="black" />
<path d="M 90.8,55 L 153.6,55 153.6,59 90.8,59 Z" fill="black" />
<path d="M 159.6,57 L 159.6,79.1 147.6,85.1 147.6,57 Z" fill="black" />
<path d="M 147.6,55 L 153.6,50 164.6,59 159.6,63 147.6,57 Z" fill="black" />
<path d="M 90.8,75.1 L 153.6,75.1 153.6,79.1 90.8,79.1 Z" fill="black" />
<path d="M 164.2,98.9 Q 155.5,101.1 135.1,102.5 Q 112.1,104.4 76.8,104.8 L 76.6,103.1 Q 115.1,97.4 134,94.1 Q 156.5,90.1 160,87.7 Z" fill="black" />
<path d="M 159.1,88 L 164.2,98.9 169.4,97 Z" fill="black" />
<path d="M 169.4,97 L 169.6,100.1 163,97.3 Z" fill="black" />
<path d="M 82.7,86 L 82.7,110 70.7,110 70.7,84 Z" fill="black" />
<path d="M 82.7,86 L 85.7,88 80.7,91 Z" fill="black" />
<path d="M 70.7,110 Q 71.3,115.4 76.7,116 Q 82.1,115.4 82.7,110 Z" fill="black" />
<path d="M 82.7,110 Q 83.2,113.4 83.4,113.2 Q 83.7,114 86.7,114 L 86.7,126 Q 79.7,126 75,121.7 Q 70.2,116.4 70.7,110 Z" fill="black" />
<path d="M 86.7,115 Q 91.2,115.5 91.7,120 Q 91.2,124.5 86.7,125 Z" fill="black" />
<path d="M 86.7,115 L 176.4,115 176.4,125 86.7,125 Z" fill="black" />
<path d="M 176.4,115 Q 180.9,115.5 181.4,120 Q 180.9,124.5 176.4,125 Z" fill="black" />
<path d="M 176.4,116 L 178.4,98 176.4,98 171.4,116 Z" fill="black" />
<path d="M 86.5,136.8 L 86.5,182.4 74.5,188.4 74.5,130.8 Z" fill="black" />
<path d="M 80.5,136.8 L 162.4,136.8 162.4,140.8 80.5,140.8 Z" fill="black" />
<path d="M 168.4,138.8 L 168.4,181.4 156.4,187.4 156.4,138.8 Z" fill="black" />
<path d="M 156.4,136.8 L 162.4,131.8 173.4,140.8 168.4,144.8 156.4,138.8 Z" fill="black" />
<path d="M 80.5,155.5 L 162.4,155.5 162.4,159.5 80.5,159.5 Z" fill="black" />
<path d="M 80.5,175.4 L 162.4,175.4 162.4,179.4 80.5,179.4 Z" fill="black" />
</svg>
