<svg xmlns="http://www.w3.org/2000/svg" xmlns:xlink="http://www.w3.org/1999/xlink" version="1.1" baseProfile="full" viewBox="0 0 200 200" width="200" height="200">
<path d="M 12.3,68 L 71.7,68 71.7,72 12.3,72 Z" fill="black" />
<path d="M 71.7,68 L 47.7,70 59.7,58 Z" fill="black" />
<path d="M 47.2,19 L 47.2,143 35.2,143 35.2,17 Z" fill="black" />
<path d="M 47.2,19 L 50.2,21 45.2,24 Z" fill="black" />
<path d="M 11.1,151 Q 23.1,147.3 37.8,141.5 Q 53.7,135 72.1,128.2 L 73,129.7 Q 54.7,142 41.4,149.2 Q 26.1,157.3 15.4,162.2 Z" fill="black" />
<path d="M 15.4,162.2 L 11.1,151 9.3,151.7 Z" fill="black" />
<path d="M 15.4,162.2 L 18.3,164.3 19.9,157.3 Z" fill="black" />
<path d="M 81.2,30 L 174.8,30 174.8,34 81.2,34 Z" fill="black" />
<path d="M 174.8,30 L 150.8,32 162.8,20 Z" fill="black" />
<path d="M 134,9.8 L 134,66 122,66 122,7.8 Z" fill="black" />
<path d="M 134,9.8 L 137,11.8 132,14.8 Z" fill="black" />
<path d="M 72.7,62 L 183.2,62 183.2,66 72.7,66 Z" fill="black" />
<path d="M 183.2,62 L 159.2,64 171.2,52 Z" fill="black" />
<path d="M 98,80 L 98,157 86,163 86,74 Z" fill="black" />
<path d="M 92,80 L 164,80 164,84 92,84 Z" fill="black" />
<path d="M 170,82 L 170,150 158,156 158,82 Z" fill="black" />
<path d="M 158,80 L 164,75 175,84 170,88 158,82 Z" fill="black" />
<path d="M 92,102 L 164,102 164,106 92,106 Z" fill="black" />
<path d="M 92,124 L 164,124 164,128 92,128 Z" fill="black" />
<path d="M 92,146 L 164,146 164,150 92,150 Z" fill="black" />
<path d="M 118.3,165 Q 109.6,172.2 97.3,177.8 Q 84,184.4 67.1,188.8 L 66.4,187.1 Q 83,177.4 93.1,170.4 Q 104.6,162.2 110.2,156.2 Z" fill="black" />
<path d="M 109.4,156.9 L 118.3,165 110.4,156 Z" fill="black" />
<path d="M 118.3,165 L 118.9,168.6 113.3,167 Z" fill="black" />
<path d="M 136.4,159.3 Q 154,161.5 165.1,166.4 Q 177.6,171.7 184.6,178.8 L 175.4,186.6 Q 170.6,179.7 161.2,174 Q 150,167.5 135.9,161.1 Z" fill="black" />
<path d="M 184.6,178.8 Q 187.6,183.3 183.9,187.2 Q 179.4,190.3 175.4,186.6 Z" fill="black" />
</svg>
