<svg xmlns="http://www.w3.org/2000/svg" xmlns:xlink="http://www.w3.org/1999/xlink" version="1.1" baseProfile="full" viewBox="0 0 200 200" width="200" height="200">
<path d="M 12,68 L 69.6,68 69.6,72 12,72 Z" fill="black" />
<path d="M 69.6,68 L 49.5,70 59.6,59 Z" fill="black" />
<path d="M 46,19 L 46,143 34,143 34,17 Z" fill="black" />
<path d="M 46,19 L 49,21 44,24 Z" fill="black" />
<path d="M 10.7,151 Q 22.4,147.3 36.5,141.5 Q 52.1,135 69.9,128.2 L 70.8,129.7 Q 53.1,142 40.2,149.2 Q 25.4,157.3 15.1,162.2 Z" fill="black" />
<path d="M 15.1,162.2 L 10.7,151 8.8,151.7 Z" fill="black" />
<path d="M 15.1,162.2 L 18,164.3 19.6,157.2 Z" fill="black" />
<path d="M 129,14.2 L 129,45.9 117,45.9 117,12.2 Z" fill="black" />
<path d="M 129,14.2 L 132,16.2 127,19.2 Z" fill="black" />
<path d="M 57.5,41.9 L 188.4,41.9 188.4,45.9 57.5,45.9 Z" fill="black" />
<path d="M 188.4,41.9 L 164.4,43.9 176.4,31.9 Z" fill="black" />
<path d="M 109.1,55.3 Q 98,78.5 85.3,97.6 Q 71.6,118.4 55.5,134.1 L 54.1,133 Q 67.6,112.4 78.1,93.2 Q 90,71.5 98.1,50.5 Z" fill="black" />
<path d="M 97.7,51.4 L 109.1,55.3 98.7,49.2 Z" fill="black" />
<path d="M 109.1,55.3 L 111.1,58.3 105.3,59 Z" fill="black" />
<path d="M 90.2,99.4 L 90.2,185.8 78.2,191.8 78.2,97.4 Z" fill="black" />
<path d="M 90.2,99.4 L 93.2,101.4 88.2,104.4 Z" fill="black" />
<path d="M 143.2,52.2 Q 135.5,83.1 125.4,103.4 Q 114.3,125.8 100.5,136.6 L 99.2,135.3 Q 110.3,119.8 117.7,100 Q 126.5,77.1 131.5,49.6 Z" fill="black" />
<path d="M 131.3,50.6 L 143.2,52.2 131.9,47.8 Z" fill="black" />
<path d="M 143.2,52.2 L 145.7,54.8 140.2,56.7 Z" fill="black" />
<path d="M 131.4,77 L 172.2,77 172.2,81 131.4,81 Z" fill="black" />
<path d="M 178.1,80.2 Q 167.5,125 147.2,151.2 Q 124.4,179.8 94,188.8 L 93.4,187.1 Q 124.4,171.8 140.3,146.2 Q 159.5,117 166.4,77.7 Z" fill="black" />
<path d="M 166.2,77 L 172.2,72 183.2,81 178.2,84 166.2,89 Z" fill="black" />
<path d="M 130.4,92.7 Q 138.1,94.7 143.2,100 Q 149,106 152.2,113.1 L 140.9,117.2 Q 139,110 136.5,105.2 Q 133.1,99.7 129.5,94.2 Z" fill="black" />
<path d="M 152.2,113.1 Q 153.5,118.4 148.6,120.8 Q 143.3,122 140.9,117.2 Z" fill="black" />
<path d="M 121.8,102.6 Q 136,133.6 150.7,150 Q 167.4,167.9 185.2,172.7 L 180.9,185.2 Q 157.4,175.9 143.5,155.9 Q 127,133.6 120.1,103.2 Z" fill="black" />
<path d="M 180.9,185.2 L 185.2,172.7 192.4,175.2 Z" fill="black" />
</svg>
