<svg xmlns="http://www.w3.org/2000/svg" xmlns:xlink="http://www.w3.org/1999/xlink" version="1.1" baseProfile="full" viewBox="0 0 200 200" width="200" height="200">
<path d="M 12.8,68 L 74.3,68 74.3,72 12.8,72 Z" fill="black" />
<path d="M 74.3,68 L 50.3,70 62.3,58 Z" fill="black" />
<path d="M 48.7,19 L 48.7,143 36.7,143 36.7,17 Z" fill="black" />
<path d="M 48.7,19 L 51.7,21 46.7,24 Z" fill="black" />
<path d="M 11.7,151 Q 24.5,147.3 39.3,141.5 Q 55.7,135 74.8,128.1 L 75.6,129.8 Q 56.7,142 42.8,149.2 Q 26.5,157.3 15.8,162.2 Z" fill="black" />
<path d="M 15.8,162.2 L 11.7,151 9.8,151.7 Z" fill="black" />
<path d="M 15.8,162.2 L 18.7,164.4 20.4,157.4 Z" fill="black" />
<path d="M 131.9,16.6 Q 121.4,48.6 105.7,71.9 Q 88.1,97.8 65.9,114.6 L 64.7,113.3 Q 86.1,90.8 98.5,67.5 Q 113.4,40.6 120.4,13.2 Z" fill="black" />
<path d="M 120.1,14.2 L 131.9,16.6 120.9,11.6 Z" fill="black" />
<path d="M 131.9,16.6 L 134.2,19.4 128.6,20.8 Z" fill="black" />
<path d="M 68.4,46 L 184.5,46 184.5,50 68.4,50 Z" fill="black" />
<path d="M 184.5,46 L 160.5,48 172.5,36 Z" fill="black" />
<path d="M 105,78 L 105,183 93,189 93,72 Z" fill="black" />
<path d="M 99,78 L 160.2,78 160.2,82 99,82 Z" fill="black" />
<path d="M 166.2,80 L 166.2,172 154.2,172 154.2,80 Z" fill="black" />
<path d="M 154.2,78 L 160.2,73 171.2,82 166.2,86 154.2,80 Z" fill="black" />
<path d="M 154.2,172 Q 154.8,177.4 160.2,178 Q 165.6,177.4 166.2,172 Z" fill="black" />
<path d="M 166.2,172 Q 166.2,178.9 162,183.7 Q 156.8,188.5 150.2,188 L 150.2,176 Q 153.8,175.5 153.5,175.2 Q 154.2,174.9 154.2,172 Z" fill="black" />
<path d="M 150.2,182 L 150.2,176 136.2,176 136.2,179 Z" fill="black" />
<path d="M 99,108 L 160.2,108 160.2,112 99,112 Z" fill="black" />
<path d="M 99,138 L 160.2,138 160.2,142 99,142 Z" fill="black" />
</svg>
