<svg xmlns="http://www.w3.org/2000/svg" xmlns:xlink="http://www.w3.org/1999/xlink" version="1.1" baseProfile="full" viewBox="0 0 200 200" width="200" height="200">
<path d="M 10.2,68 L 59.1,68 59.1,72 10.2,72 Z" fill="black" />
<path d="M 59.1,68 L 43.1,70 51.1,61 Z" fill="black" />
<path d="M 40,19 L 40,143 28,143 28,17 Z" fill="black" />
<path d="M 40,19 L 43,21 38,24 Z" fill="black" />
<path d="M 8.6,151.1 Q 18.4,147.3 30.6,141.7 Q 43.7,135 59.3,128.2 L 60.3,129.7 Q 45.7,142 34.7,149 Q 22.4,157.3 13.6,162 Z" fill="black" />
<path d="M 13.6,162 L 8.6,151.1 6.7,151.9 Z" fill="black" />
<path d="M 13.6,162 L 16.6,163.9 17.8,156.8 Z" fill="black" />
<path d="M 88.5,18.1 Q 83.9,33.2 76.2,44.4 Q 67.7,57.2 55.6,65.3 L 54.4,64 Q 63.7,51.2 68.8,40.2 Q 74.9,27.2 76.9,15.3 Z" fill="black" />
<path d="M 76.6,16.2 L 88.5,18.1 77.3,13.5 Z" fill="black" />
<path d="M 88.5,18.1 L 91,20.7 85.4,22.4 Z" fill="black" />
<path d="M 77.6,32.3 L 125.9,32.3 125.9,36.3 77.6,36.3 Z" fill="black" />
<path d="M 125.9,32.3 L 105.9,34.3 115.9,23.3 Z" fill="black" />
<path d="M 83.5,34 Q 92.6,36.5 97.8,41 Q 103.8,45.7 107.1,52.1 L 95.9,56.4 Q 94.8,51.7 91.7,46.8 Q 87.6,41.5 82.6,35.6 Z" fill="black" />
<path d="M 107.1,52.1 Q 108.4,57.4 103.6,59.9 Q 98.4,61.3 95.9,56.4 Z" fill="black" />
<path d="M 148.1,18.1 Q 143.6,32.8 135.7,43.3 Q 127.3,55.2 115.2,61.9 L 114,60.5 Q 123.3,49.2 128.5,38.9 Q 134.6,26.8 136.5,15.2 Z" fill="black" />
<path d="M 136.2,16.2 L 148.1,18.1 136.9,13.5 Z" fill="black" />
<path d="M 148.1,18.1 L 150.6,20.7 145,22.5 Z" fill="black" />
<path d="M 136.5,32.3 L 186.3,32.3 186.3,36.3 136.5,36.3 Z" fill="black" />
<path d="M 186.3,32.3 L 166.3,34.3 176.3,23.3 Z" fill="black" />
<path d="M 143.1,34 Q 152.2,36.5 157.4,41 Q 163.5,45.7 166.7,52.1 L 155.5,56.4 Q 154.5,51.7 151.3,46.8 Q 147.2,41.5 142.2,35.6 Z" fill="black" />
<path d="M 166.7,52.1 Q 168.1,57.4 163.2,59.9 Q 158,61.3 155.5,56.4 Z" fill="black" />
<path d="M 67.8,63.2 Q 76.8,63.5 82.9,66.1 Q 89.5,68.8 93.7,73.4 L 83.9,80.3 Q 82.5,76.8 78.5,73.3 Q 73.8,69.5 67.3,64.9 Z" fill="black" />
<path d="M 93.7,73.4 Q 96.4,78.1 92.3,81.7 Q 87.6,84.4 83.9,80.3 Z" fill="black" />
<path d="M 55.2,97.2 Q 64.8,97.5 71.1,100 Q 77.9,102.8 82,107.6 L 71.9,114.1 Q 70.9,110.8 66.8,107.4 Q 61.8,103.5 54.7,98.9 Z" fill="black" />
<path d="M 82,107.6 Q 84.4,112.4 80.2,115.9 Q 75.3,118.3 71.9,114.1 Z" fill="black" />
<path d="M 56.5,146.8 Q 69.3,147.8 76.1,157.3 Q 82.9,167.9 82.2,182.6 L 70.2,181.6 Q 71.9,167.9 68.7,161.6 Q 65.3,153.8 56,148.5 Z" fill="black" />
<path d="M 82.2,182.6 Q 81.1,188 75.7,188.1 Q 70.3,187 70.2,181.6 Z" fill="black" />
<path d="M 66.8,158.2 Q 69.4,152.6 77.8,138.3 Q 87.1,122.1 102.4,98.1 L 104,99 Q 91.1,128.1 85.4,142 Q 78.4,158.6 78.3,161.7 Z" fill="black" />
<path d="M 99.9,75 L 188.4,75 188.4,79 99.9,79 Z" fill="black" />
<path d="M 188.4,75 L 168.4,77 178.4,66 Z" fill="black" />
<path d="M 118.9,89 L 118.9,132 106.9,138 106.9,83 Z" fill="black" />
<path d="M 112.9,89 L 173.8,89 173.8,93 112.9,93 Z" fill="black" />
<path d="M 179.8,91 L 179.8,131 167.8,137 167.8,91 Z" fill="black" />
<path d="M 167.8,89 L 173.8,84 184.8,93 179.8,97 167.8,91 Z" fill="black" />
<path d="M 149.7,59 L 149.7,129 137.7,129 137.7,57 Z" fill="black" />
<path d="M 149.7,59 L 152.7,61 147.7,64 Z" fill="black" />
<path d="M 112.9,106 L 173.8,106 173.8,110 112.9,110 Z" fill="black" />
<path d="M 112.9,125 L 173.8,125 173.8,129 112.9,129 Z" fill="black" />
<path d="M 166.6,48.2 Q 171.7,50.8 174.6,54.8 Q 177.9,59.5 180.2,64.4 L 168.7,67.8 Q 167.9,62.5 167,58.6 Q 165.7,53.8 165.2,49.3 Z" fill="black" />
<path d="M 180.2,64.4 Q 181.2,69.7 176.2,71.8 Q 170.8,72.8 168.7,67.8 Z" fill="black" />
<path d="M 99.9,146 L 189.2,146 189.2,150 99.9,150 Z" fill="black" />
<path d="M 189.2,146 L 169.2,148 179.2,137 Z" fill="black" />
<path d="M 165.9,132 L 165.9,172 153.9,172 153.9,130 Z" fill="black" />
<path d="M 165.9,132 L 168.9,134 163.9,137 Z" fill="black" />
<path d="M 153.9,172 Q 154.5,177.4 159.9,178 Q 165.3,177.4 165.9,172 Z" fill="black" />
<path d="M 165.9,172 Q 165.9,178.9 161.7,183.7 Q 156.5,188.5 149.9,188 L 149.9,176 Q 153.5,175.5 153.2,175.2 Q 153.9,174.9 153.9,172 Z" fill="black" />
<path d="M 149.9,182 L 149.9,176 129.9,176 129.9,179 Z" fill="black" />
<path d="M 111.9,153.5 Q 120.7,154.1 126.2,157.5 Q 132.4,161.1 136.2,166.5 L 125.5,172 Q 124.4,168.1 121,164.2 Q 116.7,160.1 111.2,155.2 Z" fill="black" />
<path d="M 136.2,166.5 Q 138.1,171.6 133.6,174.6 Q 128.5,176.6 125.5,172 Z" fill="black" />
</svg>
