<svg xmlns="http://www.w3.org/2000/svg" xmlns:xlink="http://www.w3.org/1999/xlink" version="1.1" baseProfile="full" viewBox="0 0 200 200" width="200" height="200">
<path d="M 11.7,68 L 68.2,68 68.2,72 11.7,72 Z" fill="black" />
<path d="M 68.2,68 L 48.2,70 58.2,59 Z" fill="black" />
<path d="M 45.2,19 L 45.2,143 33.2,143 33.2,17 Z" fill="black" />
<path d="M 45.2,19 L 48.2,21 43.2,24 Z" fill="black" />
<path d="M 10.4,151 Q 22,147.3 35.8,141.5 Q 51.1,135 68.6,128.2 L 69.5,129.7 Q 52.1,142 39.5,149.2 Q 25,157.3 14.9,162.2 Z" fill="black" />
<path d="M 14.9,162.2 L 10.4,151 8.6,151.7 Z" fill="black" />
<path d="M 14.9,162.2 L 17.8,164.2 19.3,157.2 Z" fill="black" />
<path d="M 66.2,34 L 115.6,34 115.6,38 66.2,38 Z" fill="black" />
<path d="M 121.6,36 L 121.6,172 109.6,172 109.6,36 Z" fill="black" />
<path d="M 109.6,34 L 115.6,29 126.6,38 121.6,42 109.6,36 Z" fill="black" />
<path d="M 109.6,172 Q 110.2,177.4 115.6,178 Q 121,177.4 121.6,172 Z" fill="black" />
<path d="M 121.6,172 Q 121.6,178.9 117.3,183.7 Q 112.1,188.5 105.6,188 L 105.6,176 Q 109.1,175.5 108.8,175.2 Q 109.6,174.9 109.6,172 Z" fill="black" />
<path d="M 105.6,182 L 105.6,176 85.6,176 85.6,179 Z" fill="black" />
<path d="M 75.9,55 Q 85.1,60.2 90.5,69.5 Q 96.8,79.4 99.6,90.8 L 87.8,93.2 Q 85.8,81.4 83,73.3 Q 79.1,64.2 74.6,56.3 Z" fill="black" />
<path d="M 99.6,90.8 Q 100.1,96.2 94.9,97.9 Q 89.5,98.4 87.8,93.2 Z" fill="black" />
<path d="M 62.6,136.2 Q 74.8,130.3 86.7,123.8 Q 100,116.5 113.5,109.2 L 114.6,110.7 Q 102,122.5 91.3,130.9 Q 78.8,140.3 68.4,146.7 Z" fill="black" />
<path d="M 68.4,146.7 L 62.6,136.2 60.9,137.2 Z" fill="black" />
<path d="M 68.4,146.7 L 71.6,148.4 72.2,141.2 Z" fill="black" />
<path d="M 130.8,34 L 177.2,34 177.2,38 130.8,38 Z" fill="black" />
<path d="M 183.2,36 L 183.2,172 171.2,172 171.2,36 Z" fill="black" />
<path d="M 171.2,34 L 177.2,29 188.2,38 183.2,42 171.2,36 Z" fill="black" />
<path d="M 171.2,172 Q 171.7,177.4 177.2,178 Q 182.6,177.4 183.2,172 Z" fill="black" />
<path d="M 183.2,172 Q 183.2,178.9 178.9,183.7 Q 173.7,188.5 167.2,188 L 167.2,176 Q 170.7,175.5 170.4,175.2 Q 171.2,174.9 171.2,172 Z" fill="black" />
<path d="M 167.2,182 L 167.2,176 153.2,176 153.2,179 Z" fill="black" />
<path d="M 139,53.1 Q 147.7,59.2 153.2,67.7 Q 159,76.9 162.5,87.6 L 150.8,90.5 Q 149,79.9 145.6,71.6 Q 141.7,62.2 137.6,54.3 Z" fill="black" />
<path d="M 162.5,87.6 Q 163.2,93 158.1,94.9 Q 152.7,95.6 150.8,90.5 Z" fill="black" />
<path d="M 125.8,135.2 Q 137.1,129.8 148.3,124 Q 160.8,117.5 173.6,111.2 L 174.6,112.7 Q 162.8,123.5 152.8,131.2 Q 141.1,139.8 131.5,145.7 Z" fill="black" />
<path d="M 131.5,145.7 L 125.8,135.2 124,136.2 Z" fill="black" />
<path d="M 131.5,145.7 L 134.7,147.4 135.3,140.2 Z" fill="black" />
</svg>
