<svg xmlns="http://www.w3.org/2000/svg" xmlns:xlink="http://www.w3.org/1999/xlink" version="1.1" baseProfile="full" viewBox="0 0 200 200" width="200" height="200">
<path d="M 12.8,68 L 74.3,68 74.3,72 12.8,72 Z" fill="black" />
<path d="M 74.3,68 L 50.3,70 62.3,58 Z" fill="black" />
<path d="M 48.7,19 L 48.7,143 36.7,143 36.7,17 Z" fill="black" />
<path d="M 48.7,19 L 51.7,21 46.7,24 Z" fill="black" />
<path d="M 11.7,151 Q 24.5,147.3 39.3,141.5 Q 55.7,135 74.8,128.1 L 75.6,129.8 Q 56.7,142 42.8,149.2 Q 26.5,157.3 15.8,162.2 Z" fill="black" />
<path d="M 15.8,162.2 L 11.7,151 9.8,151.7 Z" fill="black" />
<path d="M 15.8,162.2 L 18.7,164.4 20.4,157.4 Z" fill="black" />
<path d="M 172.9,26 Q 150.6,32.5 125.4,35.7 Q 97.3,39.4 66.1,38.8 L 66,37.1 Q 100.3,32.4 123.9,27.3 Q 151.6,21.5 169,14.6 Z" fill="black" />
<path d="M 168,14.9 L 172.9,26 178.6,24 Z" fill="black" />
<path d="M 178.6,24 L 178.9,27.1 172.1,24.1 Z" fill="black" />
<path d="M 80.3,42 Q 88.8,46.2 93.3,52.1 Q 98.7,58.4 101.3,65.5 L 89.7,68.6 Q 88.7,62.4 86.2,56.7 Q 82.8,50.2 79.1,43.3 Z" fill="black" />
<path d="M 101.3,65.5 Q 102.1,70.9 97.1,72.8 Q 91.7,73.7 89.7,68.6 Z" fill="black" />
<path d="M 116,40 Q 123.3,43.2 127.5,49 Q 132.2,55.4 134.8,62.6 L 123.2,65.5 Q 122.2,58.4 120.1,53.3 Q 117.3,47.2 114.8,41.3 Z" fill="black" />
<path d="M 134.8,62.6 Q 135.6,67.9 130.5,69.9 Q 125.1,70.6 123.2,65.5 Z" fill="black" />
<path d="M 172.9,40.8 Q 168.7,51.3 162.5,59.8 Q 155.6,69.4 146.6,76.5 L 145.3,75.4 Q 151.6,64.4 155.2,55.6 Q 159.7,45.3 161.5,37.1 Z" fill="black" />
<path d="M 161.2,38 L 172.9,40.8 162,35.5 Z" fill="black" />
<path d="M 172.9,40.8 L 175.2,43.6 169.5,44.9 Z" fill="black" />
<path d="M 77.9,76 L 182.7,76 182.7,80 77.9,80 Z" fill="black" />
<path d="M 182.7,76 L 158.7,78 170.7,66 Z" fill="black" />
<path d="M 65,101 L 188.1,101 188.1,105 65,105 Z" fill="black" />
<path d="M 188.1,101 L 168.1,103 178.1,92 Z" fill="black" />
<path d="M 116.3,78.4 Q 111.6,120.6 97.7,146.8 Q 81.8,175.8 57.9,188.7 L 56.9,187.2 Q 79.8,168.8 90,143.1 Q 102.6,113.6 104.3,77.5 Z" fill="black" />
<path d="M 99.5,123 L 164.3,123 164.3,127 99.5,127 Z" fill="black" />
<path d="M 169.8,127.4 Q 157.2,152.2 136.4,167 Q 113.3,183.4 83.6,188.8 L 83.1,187.1 Q 114.3,175.4 131.2,160.4 Q 151.2,143.2 158.8,122.5 Z" fill="black" />
<path d="M 158.3,123 L 164.3,118 175.3,127 170.3,130 158.3,135 Z" fill="black" />
<path d="M 108.3,125.4 Q 123.1,147.2 139.5,158.5 Q 157.8,170.9 178.7,174.5 L 175.9,187.4 Q 149.8,180.9 133.7,165.8 Q 115.1,149.2 106.7,126.3 Z" fill="black" />
<path d="M 175.9,187.4 L 178.7,174.5 187.7,176.4 Z" fill="black" />
</svg>
