<svg xmlns="http://www.w3.org/2000/svg" xmlns:xlink="http://www.w3.org/1999/xlink" version="1.1" baseProfile="full" viewBox="0 0 200 200" width="200" height="200">
<path d="M 11.1,68 L 64.8,68 64.8,72 11.1,72 Z" fill="black" />
<path d="M 64.8,68 L 44.8,70 54.8,59 Z" fill="black" />
<path d="M 43.2,19 L 43.2,143 31.2,143 31.2,17 Z" fill="black" />
<path d="M 43.2,19 L 46.2,21 41.2,24 Z" fill="black" />
<path d="M 9.7,151 Q 20.8,147.3 33.8,141.6 Q 48.5,135 65.1,128.2 L 66,129.7 Q 49.5,142 37.7,149.1 Q 23.8,157.3 14.4,162.1 Z" fill="black" />
<path d="M 14.4,162.1 L 9.7,151 7.9,151.8 Z" fill="black" />
<path d="M 14.4,162.1 L 17.4,164.1 18.7,157 Z" fill="black" />
<path d="M 82.8,24 L 82.8,92 70.8,98 70.8,18 Z" fill="black" />
<path d="M 76.8,24 L 164,24 164,28 76.8,28 Z" fill="black" />
<path d="M 170,26 L 170,86 158,92 158,26 Z" fill="black" />
<path d="M 158,24 L 164,19 175,28 170,32 158,26 Z" fill="black" />
<path d="M 76.8,50 L 164,50 164,54 76.8,54 Z" fill="black" />
<path d="M 76.8,76 L 164,76 164,80 76.8,80 Z" fill="black" />
<path d="M 53.6,107 L 186.4,107 186.4,111 53.6,111 Z" fill="black" />
<path d="M 186.4,107 L 162.4,109 174.4,97 Z" fill="black" />
<path d="M 99.6,85 L 99.6,129 87.6,135 87.6,83 Z" fill="black" />
<path d="M 99.6,85 L 102.6,87 97.6,90 Z" fill="black" />
<path d="M 154,85 L 154,129 142,135 142,83 Z" fill="black" />
<path d="M 154,85 L 157,87 152,90 Z" fill="black" />
<path d="M 57.6,138 L 182.4,138 182.4,142 57.6,142 Z" fill="black" />
<path d="M 182.4,138 L 158.4,140 170.4,128 Z" fill="black" />
<path d="M 63.2,160 L 176.8,160 176.8,164 63.2,164 Z" fill="black" />
<path d="M 176.8,160 L 152.8,162 164.8,150 Z" fill="black" />
<path d="M 126.8,24 L 126.8,184 114.8,190 114.8,24 Z" fill="black" />
</svg>
