<svg xmlns="http://www.w3.org/2000/svg" xmlns:xlink="http://www.w3.org/1999/xlink" version="1.1" baseProfile="full" viewBox="0 0 200 200" width="200" height="200">
<g fill="black">
<polygon points="12,68 69.6,68 69.6,72 12,72 " />
<polygon points="69.6,68 49.5,70 59.6,59 " />
<polygon points="46,19 46,143 34,143 34,17 " />
<polygon points="46,19 49,21 44,24 " />
<polygon points="10.7,151 15.3,149.5 20.2,147.8 25.3,145.9 30.8,143.8 36.5,141.5 42.6,139.1 48.9,136.5 55.6,133.8 62.6,131 69.9,128.2 70.8,129.7 64.3,134.3 58,138.5 51.9,142.3 45.9,145.9 40.2,149.2 34.7,152.2 29.5,155.1 24.4,157.6 19.6,160 15.1,162.2 " />
<polygon points="15.1,162.2 10.7,151 8.8,151.7 " />
<polygon points="15.1,162.2 18,164.3 19.6,157.2 " />
<polygon points="90.5,14.7 93.4,16.2 96.4,17.8 99.1,19.8 101.7,22.2 104,24.9 106.2,27.9 108.1,31.3 109.9,34.9 111.4,38.8 112.6,42.9 100.8,45.1 100.5,41.4 99.9,38 99.2,34.8 98.4,31.7 97.4,28.8 96.2,26.1 94.9,23.4 93.4,20.9 91.7,18.4 89.5,16.2 " />
<polygon points="112.6,42.9 111.6,47.4 107.8,49.9 103.4,48.9 100.8,45.1 " />
<polygon points="162.3,18.5 160.3,21.7 158.2,25 156,28.3 153.7,31.8 151.2,35.4 148.7,39 146,42.8 143.1,46.6 140,50.4 136.8,54.4 135.3,53.5 137.1,48.8 138.8,44.2 140.6,39.8 142.4,35.5 144.1,31.5 145.7,27.5 147.3,23.7 148.8,20.1 150.2,16.5 151.5,13.2 " />
<polygon points="151.1,14 162.3,18.5 152.1,12.1 " />
<polygon points="162.3,18.5 164.1,21.7 158.2,22.1 " />
<polygon points="70,52 187.2,52 187.2,56 70,56 " />
<polygon points="187.2,52 163.2,54 175.2,42 " />
<polygon points="104.2,61.7 102.6,65.8 100.8,70 98.8,74.3 96.7,78.7 94.3,83.1 91.8,87.7 89.1,92.3 86.2,97 82.9,101.7 79.3,106.4 77.7,105.5 79.5,99.9 81.4,94.6 83.2,89.5 84.9,84.5 86.6,79.8 88.1,75.1 89.4,70.7 90.7,66.3 91.8,62.2 92.7,58.2 " />
<polygon points="92.5,59.1 104.2,61.7 93.2,56.6 " />
<polygon points="104.2,61.7 106.5,64.4 100.9,65.9 " />
<polygon points="69.2,94.9 72.3,96.9 75.4,98.7 78.3,100.7 80.9,102.8 83.4,105.1 85.7,107.5 87.8,110 89.7,112.6 91.4,115.4 92.9,118.2 81.5,122 81,119.6 80.4,117.2 79.6,114.8 78.5,112.2 77.3,109.7 75.9,107.1 74.3,104.4 72.5,101.7 70.5,98.9 68.1,96.3 " />
<polygon points="92.9,118.2 92.5,122.8 89.1,125.8 84.5,125.4 81.5,122 " />
<polygon points="118.8,97.2 115.5,104.1 112,111 108.3,118.1 104.4,125.3 100.3,132.6 96,140 91.5,147.5 86.7,155.1 81.6,162.7 76.1,170.4 74.6,169.5 78.3,160.9 82,152.5 85.7,144.4 89.3,136.5 92.8,128.8 96.1,121.2 99.2,113.8 102.3,106.5 105.1,99.4 107.8,92.5 " />
<polygon points="107.4,93.4 118.8,97.2 108.3,91.3 " />
<polygon points="118.8,97.2 120.8,100.2 115,101 " />
<polygon points="54.5,176.1 60.1,173.9 65.6,171.6 71.3,169.5 76.9,167.3 82.6,165.2 88.4,163.2 94.2,161.2 100.1,159.3 106.2,157.6 112.3,156.1 113,157.8 107.6,161.1 102.3,164.2 96.8,167.2 91.5,170.1 86.1,173 80.7,175.8 75.4,178.6 70.1,181.4 64.9,184.2 59.6,187 " />
<polygon points="59.6,187 54.5,176.1 52.7,176.9 " />
<polygon points="59.6,187 62.7,188.8 63.8,181.7 " />
<polygon points="103.3,135.2 106.1,137.8 108.7,141 111.1,144.6 113.3,148.7 115.3,153.1 117.2,158 119,163.2 120.6,168.8 122.1,174.8 123.4,181.1 111.6,182.9 110.9,176.8 110.1,171 109.2,165.5 108.3,160.5 107.3,155.7 106.3,151.3 105.2,147.2 104,143.3 102.9,139.7 101.8,136.3 " />
<polygon points="123.4,181.1 122.3,185.5 118.4,187.9 114,186.8 111.6,182.9 " />
<polygon points="161.6,62.9 159.8,66.9 157.8,71 155.8,75.1 153.6,79.3 151.2,83.4 148.7,87.6 146.1,91.9 143.2,96.1 140.1,100.2 136.8,104.4 135.3,103.5 137,98.5 138.6,93.7 140.3,89 142,84.4 143.6,79.9 145.1,75.6 146.6,71.3 147.9,67.1 149.2,62.9 150.3,58.9 " />
<polygon points="150,59.8 161.6,62.9 150.8,57.4 " />
<polygon points="161.6,62.9 163.8,65.8 158,66.9 " />
<polygon points="125.7,92.9 128.6,94.7 131.7,96.4 134.5,98.5 137.3,100.8 139.9,103.4 142.4,106.1 144.7,109 147,112.1 149.1,115.4 151,118.8 140,123.5 138.9,120.2 137.8,117 136.5,113.9 135.1,110.9 133.6,108 132,105.1 130.4,102.3 128.6,99.6 126.7,96.8 124.6,94.3 " />
<polygon points="151,118.8 151,123.4 147.9,126.7 143.3,126.7 140,123.5 " />
<polygon points="175.4,96.9 172.4,104.5 169.2,112 166,119.6 162.6,127.2 159.1,134.8 155.4,142.4 151.6,149.9 147.7,157.5 143.5,164.9 139,172.3 137.4,171.6 140,163.4 142.8,155.3 145.6,147.3 148.4,139.4 151.2,131.6 153.9,123.8 156.6,116 159.2,108.3 161.7,100.6 164.1,92.9 " />
<polygon points="163.8,93.8 175.4,96.9 164.7,91.4 " />
<polygon points="175.4,96.9 177.6,99.8 171.9,100.9 " />
<polygon points="127.9,174.1 132.8,172.1 137.6,170.1 142.5,168 147.3,166 152.2,164 157.1,162.1 162,160.2 167,158.3 172,156.7 177.2,155.1 178,156.8 173.8,160 169.4,163.1 165,166 160.5,168.9 156,171.6 151.5,174.4 146.9,177 142.4,179.7 137.8,182.3 133.2,184.9 " />
<polygon points="133.2,184.9 127.9,174.1 126.1,175 " />
<polygon points="133.2,184.9 136.3,186.7 137.3,179.6 " />
<polygon points="164,135.2 167.6,138.4 170.8,142.1 173.7,146.1 176.4,150.4 178.7,154.9 180.8,159.8 182.6,164.8 184.1,170.1 185.4,175.6 186.4,181.4 174.5,182.6 174.2,177.3 173.6,172.2 172.9,167.3 171.9,162.5 170.8,157.9 169.4,153.4 167.9,149 166.3,144.8 164.5,140.5 162.6,136.3 " />
<polygon points="186.4,181.4 185.1,185.7 181.1,187.9 176.7,186.6 174.5,182.6 " />
</g>
</svg>
