<svg xmlns="http://www.w3.org/2000/svg" xmlns:xlink="http://www.w3.org/1999/xlink" version="1.1" baseProfile="full" viewBox="0 0 200 200" width="200" height="200">
<path d="M 9.7,68 L 56.5,68 56.5,72 9.7,72 Z" fill="black" />
<path d="M 56.5,68 L 40.5,70 48.5,61 Z" fill="black" />
<path d="M 38.5,19 L 38.5,143 26.5,143 26.5,17 Z" fill="black" />
<path d="M 38.5,19 L 41.5,21 36.5,24 Z" fill="black" />
<path d="M 8,151.1 Q 17.5,147.3 29.1,141.7 Q 41.7,135 56.7,128.2 L 57.6,129.7 Q 43.7,142 33.4,149 Q 21.5,157.3 13.2,161.9 Z" fill="black" />
<path d="M 13.2,161.9 L 8,151.1 6.2,152 Z" fill="black" />
<path d="M 13.2,161.9 L 16.3,163.8 17.3,156.6 Z" fill="black" />
<path d="M 82.7,20.5 Q 79.4,26.4 75,31.3 Q 70.5,37.1 64,41.1 L 62.6,40 Q 65.5,32.1 67.8,26.8 Q 70.4,20.4 71.7,15.8 Z" fill="black" />
<path d="M 71.3,16.7 L 82.7,20.5 72.2,14.5 Z" fill="black" />
<path d="M 82.7,20.5 L 84.7,23.6 78.9,24.3 Z" fill="black" />
<path d="M 64.6,40.5 Q 71.8,42.7 76.4,48.1 Q 81.5,53.7 84.2,60.7 L 72.6,64 Q 71.5,57.7 69.4,52.9 Q 66.8,47.7 63.6,41.9 Z" fill="black" />
<path d="M 84.2,60.7 Q 85.1,66 80.1,68.1 Q 74.7,69 72.6,64 Z" fill="black" />
<path d="M 99.2,20.7 Q 95.8,26.4 91.1,31.4 Q 86.4,37.1 79.6,41.2 L 78.2,40 Q 81.4,32.1 84.1,26.7 Q 86.8,20.4 88.3,15.6 Z" fill="black" />
<path d="M 87.9,16.5 L 99.2,20.7 88.9,14.4 Z" fill="black" />
<path d="M 99.2,20.7 L 101.1,23.7 95.3,24.4 Z" fill="black" />
<path d="M 80.2,40.4 Q 87.9,42.7 92.7,48 Q 97.9,53.7 100.5,60.8 L 88.9,63.9 Q 87.9,57.7 85.8,52.9 Q 82.9,47.7 79.2,41.9 Z" fill="black" />
<path d="M 100.5,60.8 Q 101.4,66.1 96.3,68.1 Q 90.9,69 88.9,63.9 Z" fill="black" />
<path d="M 115.6,20.5 Q 112.3,26.4 107.6,31.4 Q 102.9,37.1 95.9,41.2 L 94.5,40 Q 97.9,32.1 100.5,26.7 Q 103.3,20.4 104.5,15.8 Z" fill="black" />
<path d="M 104.2,16.7 L 115.6,20.5 105.1,14.5 Z" fill="black" />
<path d="M 115.6,20.5 L 117.5,23.6 111.7,24.3 Z" fill="black" />
<path d="M 96.5,40.4 Q 104.2,42.7 108.8,48.1 Q 113.9,53.7 116.3,61 L 104.6,63.6 Q 103.9,57.7 101.8,52.9 Q 99.2,47.7 95.5,41.9 Z" fill="black" />
<path d="M 116.3,61 Q 116.9,66.4 111.8,68.2 Q 106.4,68.8 104.6,63.6 Z" fill="black" />
<path d="M 75.1,73.2 L 75.1,103.7 63.1,109.7 63.1,67.2 Z" fill="black" />
<path d="M 69.1,73.2 L 106.9,73.2 106.9,77.2 69.1,77.2 Z" fill="black" />
<path d="M 112.9,75.2 L 112.9,103.7 100.9,109.7 100.9,75.2 Z" fill="black" />
<path d="M 100.9,73.2 L 106.9,68.2 117.9,77.2 112.9,81.2 100.9,75.2 Z" fill="black" />
<path d="M 69.1,99.7 L 106.9,99.7 106.9,103.7 69.1,103.7 Z" fill="black" />
<path d="M 64.7,116.2 L 111.7,116.2 111.7,120.2 64.7,120.2 Z" fill="black" />
<path d="M 116.7,118.2 L 116.7,150.7 106.7,155.7 106.7,118.2 Z" fill="black" />
<path d="M 106.7,116.2 L 111.7,111.2 121.7,120.2 116.7,123.2 106.7,118.2 Z" fill="black" />
<path d="M 64.7,142.7 L 111.7,142.7 111.7,146.7 64.7,146.7 Z" fill="black" />
<path d="M 70.7,116.2 L 70.7,167.9 58.7,167.9 58.7,110.2 Z" fill="black" />
<path d="M 58.7,167.9 Q 59.3,173.3 64.7,173.9 Q 70.1,173.3 70.7,167.9 Z" fill="black" />
<path d="M 70.7,167.9 Q 71.2,171.3 71.4,171.1 Q 71.6,171.9 74.7,171.9 L 74.7,183.9 Q 67.6,183.9 62.9,179.6 Q 58.2,174.3 58.7,167.9 Z" fill="black" />
<path d="M 74.7,171.9 Q 80.1,172.5 80.7,177.9 Q 80.1,183.3 74.7,183.9 Z" fill="black" />
<path d="M 74.7,171.9 L 118.7,171.9 118.7,183.9 74.7,183.9 Z" fill="black" />
<path d="M 118.7,171.9 Q 124.1,172.5 124.7,177.9 Q 124.1,183.3 118.7,183.9 Z" fill="black" />
<path d="M 118.7,172.9 L 120.7,146.9 118.7,146.9 112.7,172.9 Z" fill="black" />
<path d="M 94.6,116.7 L 94.6,146.7 83.6,146.7 83.6,116.7 Z" fill="black" />
<path d="M 148.1,19.4 Q 141.7,41.2 134,57.3 Q 125.7,75.3 115,87.4 L 113.5,86.5 Q 120.7,70.3 126.2,54.1 Q 132.7,35.2 136.5,16.4 Z" fill="black" />
<path d="M 136.3,17.4 L 148.1,19.4 136.9,14.7 Z" fill="black" />
<path d="M 148.1,19.4 L 150.6,22.1 145,23.7 Z" fill="black" />
<path d="M 138.2,56 L 138.2,181 127.2,186.5 127.2,50.5 Z" fill="black" />
<path d="M 175.5,22.9 Q 171.7,30.8 167.5,39.2 Q 163,48.8 156.2,58.3 L 154.5,57.6 Q 157,44.8 159.6,36.1 Q 162.7,25.8 164.2,18.9 Z" fill="black" />
<path d="M 163.9,19.8 L 175.5,22.9 164.7,17.4 Z" fill="black" />
<path d="M 175.5,22.9 L 177.7,25.8 172,26.9 Z" fill="black" />
<path d="M 132.7,56 L 188.6,56 188.6,60 132.7,60 Z" fill="black" />
<path d="M 188.6,56 L 164.6,58 176.6,46 Z" fill="black" />
<path d="M 164.9,56 L 164.9,174 152.9,174 152.9,56 Z" fill="black" />
<path d="M 132.7,92 L 187.2,92 187.2,96 132.7,96 Z" fill="black" />
<path d="M 187.2,92 L 167.2,94 177.2,83 Z" fill="black" />
<path d="M 132.7,129 L 187.2,129 187.2,133 132.7,133 Z" fill="black" />
<path d="M 187.2,129 L 167.2,131 177.2,120 Z" fill="black" />
<path d="M 132.7,170 L 191.4,170 191.4,174 132.7,174 Z" fill="black" />
<path d="M 191.4,170 L 167.4,172 179.4,160 Z" fill="black" />
</svg>
