<svg xmlns="http://www.w3.org/2000/svg" xmlns:xlink="http://www.w3.org/1999/xlink" version="1.1" baseProfile="full" viewBox="0 0 200 200" width="200" height="200">
<path d="M 10.8,68 L 63,68 63,72 10.8,72 Z" fill="black" />
<path d="M 63,68 L 43,70 53,59 Z" fill="black" />
<path d="M 42.2,19 L 42.2,143 30.2,143 30.2,17 Z" fill="black" />
<path d="M 42.2,19 L 45.2,21 40.2,24 Z" fill="black" />
<path d="M 9.4,151 Q 20.2,147.3 32.8,141.6 Q 46.6,135 63.3,128.2 L 64.2,129.7 Q 48.6,142 36.8,149.1 Q 23.2,157.3 14.1,162.1 Z" fill="black" />
<path d="M 14.1,162.1 L 9.4,151 7.5,151.8 Z" fill="black" />
<path d="M 14.1,162.1 L 17.1,164 18.4,157 Z" fill="black" />
<path d="M 134.3,14.4 L 134.3,45.3 122.3,45.3 122.3,12.4 Z" fill="black" />
<path d="M 134.3,14.4 L 137.3,16.4 132.3,19.4 Z" fill="black" />
<path d="M 86.9,17.4 Q 94.6,19.2 99.3,23.2 Q 104.7,27.9 108,33.3 L 97,38.1 Q 95.7,32.9 93,29 Q 89.6,24.2 85.9,18.9 Z" fill="black" />
<path d="M 108,33.3 Q 109.6,38.5 104.9,41.2 Q 99.7,42.8 97,38.1 Z" fill="black" />
<path d="M 171.2,23 Q 168.2,26.4 162.8,31.4 Q 156.8,37 147.8,43.9 L 146.4,42.7 Q 152.8,32 156.2,26.1 Q 160.2,19.4 161,16.7 Z" fill="black" />
<path d="M 160.5,17.5 L 171.2,23 161.6,15.8 Z" fill="black" />
<path d="M 171.2,23 L 172.7,26.3 166.9,26.2 Z" fill="black" />
<path d="M 79.3,33.4 Q 82.2,47.1 80.7,56.3 Q 79.5,66.2 73.5,72.1 L 66.2,62.6 Q 69.5,61.2 72.5,54.2 Q 75.2,46.1 77.5,33.4 Z" fill="black" />
<path d="M 73.5,72.1 Q 68.9,74.9 65.1,71 Q 62.3,66.4 66.2,62.6 Z" fill="black" />
<path d="M 79.1,41.7 L 183.3,41.7 183.3,45.7 79.1,45.7 Z" fill="black" />
<path d="M 188.7,46.3 Q 185.7,51.1 181.2,56.3 Q 176.4,62.6 169.6,68.2 L 168.1,67.2 Q 171.4,57.6 173.9,52 Q 176.7,45.1 177.9,41 Z" fill="black" />
<path d="M 177.3,41.7 L 183.3,36.7 194.3,45.7 189.3,48.7 177.3,53.7 Z" fill="black" />
<path d="M 103.8,56.6 L 103.8,80.9 91.8,86.9 91.8,50.6 Z" fill="black" />
<path d="M 97.8,56.6 L 156.6,56.6 156.6,60.6 97.8,60.6 Z" fill="black" />
<path d="M 162.6,58.6 L 162.6,80.9 150.6,86.9 150.6,58.6 Z" fill="black" />
<path d="M 150.6,56.6 L 156.6,51.6 167.6,60.6 162.6,64.6 150.6,58.6 Z" fill="black" />
<path d="M 97.8,76.9 L 156.6,76.9 156.6,80.9 97.8,80.9 Z" fill="black" />
<path d="M 91.3,92.3 L 91.3,130.3 79.3,136.3 79.3,86.3 Z" fill="black" />
<path d="M 85.3,92.3 L 167.6,92.3 167.6,96.3 85.3,96.3 Z" fill="black" />
<path d="M 173.6,94.3 L 173.6,130.3 161.6,136.3 161.6,94.3 Z" fill="black" />
<path d="M 161.6,92.3 L 167.6,87.3 178.6,96.3 173.6,100.3 161.6,94.3 Z" fill="black" />
<path d="M 96.9,101.1 Q 104.3,102.6 108.6,106.3 Q 113.5,110.6 116.4,115.8 L 105.1,119.9 Q 104.5,115.6 102.3,111.9 Q 99.3,107.6 96,102.6 Z" fill="black" />
<path d="M 116.4,115.8 Q 117.6,121.1 112.8,123.5 Q 107.5,124.7 105.1,119.9 Z" fill="black" />
<path d="M 157.5,106.6 Q 154.1,110.5 149.3,114.8 Q 143.9,119.6 136.7,124.2 L 135.3,123 Q 139.9,114.6 142.7,109.4 Q 146.1,103.5 147.3,100.2 Z" fill="black" />
<path d="M 146.8,101 L 157.5,106.6 147.8,99.4 Z" fill="black" />
<path d="M 157.5,106.6 L 158.9,109.8 153.1,109.7 Z" fill="black" />
<path d="M 85.3,126.3 L 167.6,126.3 167.6,130.3 85.3,130.3 Z" fill="black" />
<path d="M 132.5,92.3 L 132.5,160.7 120.5,160.7 120.5,92.3 Z" fill="black" />
<path d="M 73.5,142.1 L 179.4,142.1 179.4,146.1 73.5,146.1 Z" fill="black" />
<path d="M 179.4,142.1 L 159.4,144.1 169.4,133.1 Z" fill="black" />
<path d="M 63.2,156.7 L 189.7,156.7 189.7,160.7 63.2,160.7 Z" fill="black" />
<path d="M 189.7,156.7 L 169.7,158.7 179.7,147.7 Z" fill="black" />
<path d="M 85.4,165.5 Q 87.7,173.3 84.5,179.3 Q 80.9,185.9 74,189.2 L 69.9,177.9 Q 74.9,176.9 77.5,174.5 Q 80.7,171.3 83.6,165.4 Z" fill="black" />
<path d="M 74,189.2 Q 68.7,190.5 66.3,185.6 Q 65,180.3 69.9,177.9 Z" fill="black" />
<path d="M 105,165.3 Q 111.7,167.2 115,171.3 Q 118.9,175.5 118.9,181.5 L 107,179.8 Q 107.9,178.5 107.6,175.5 Q 106.7,172.2 103.9,166.7 Z" fill="black" />
<path d="M 118.9,181.5 Q 117.5,186.8 112.1,186.6 Q 106.8,185.2 107,179.8 Z" fill="black" />
<path d="M 132.9,165.1 Q 140.9,166.7 145.6,170.5 Q 150.6,174 152.5,179.8 L 140.7,181.5 Q 141.6,180 139.5,176.3 Q 136.9,172.7 132,166.7 Z" fill="black" />
<path d="M 152.5,179.8 Q 152.7,185.2 147.5,186.6 Q 142,186.8 140.7,181.5 Z" fill="black" />
<path d="M 162.3,164.6 Q 172.2,166.6 178,170.5 Q 184.2,174.4 187.4,179.5 L 176.4,184.1 Q 176.2,181.4 172.6,177.1 Q 168.2,172.6 161.5,166.2 Z" fill="black" />
<path d="M 187.4,179.5 Q 189,184.7 184.2,187.3 Q 179,188.9 176.4,184.1 Z" fill="black" />
</svg>
