<svg xmlns="http://www.w3.org/2000/svg" xmlns:xlink="http://www.w3.org/1999/xlink" version="1.1" baseProfile="full" viewBox="0 0 200 200" width="200" height="200">
<g fill="black">
<polygon points="12,68 69.6,68 69.6,72 12,72 " />
<polygon points="69.6,68 49.5,70 59.6,59 " />
<polygon points="46,19 46,143 34,143 34,17 " />
<polygon points="46,19 49,21 44,24 " />
<polygon points="10.7,151 15.3,149.5 20.2,147.8 25.3,145.9 30.8,143.8 36.5,141.5 42.6,139.1 48.9,136.5 55.6,133.8 62.6,131 69.9,128.2 70.8,129.7 64.3,134.3 58,138.5 51.9,142.3 45.9,145.9 40.2,149.2 34.7,152.2 29.5,155.1 24.4,157.6 19.6,160 15.1,162.2 " />
<polygon points="15.1,162.2 10.7,151 8.8,151.7 " />
<polygon points="15.1,162.2 18,164.3 19.6,157.2 " />
<polygon points="63.7,23.8 183,23.8 183,27.8 63.7,27.8 " />
<polygon points="183,23.8 159,25.8 171,13.8 " />
<polygon points="133.3,9.9 128.3,42.4 116.1,42.4 121.8,6 " />
<polygon points="133.3,9.9 136,12.3 130.7,14 " />
<polygon points="98.2,40.4 98.2,109.6 86.2,109.6 86.2,34.4 " />
<polygon points="92.2,40.4 156.8,40.4 156.8,44.4 92.2,44.4 " />
<polygon points="162.8,42.4 162.8,109.6 150.8,109.6 150.8,42.4 " />
<polygon points="150.8,40.4 156.8,35.4 167.8,44.4 162.8,48.4 150.8,42.4 " />
<polygon points="92.2,61.9 156.8,61.9 156.8,65.9 92.2,65.9 " />
<polygon points="92.2,83.4 156.8,83.4 156.8,87.4 92.2,87.4 " />
<polygon points="59,105.6 189.9,105.6 189.9,109.6 59,109.6 " />
<polygon points="189.9,105.6 169.9,107.6 179.9,96.6 " />
<polygon points="59.4,122.3 188.6,122.3 188.6,126.3 59.4,126.3 " />
<polygon points="188.6,122.3 164.6,124.3 176.6,112.3 " />
<polygon points="130,109.4 130,184.6 118,190.6 118,107.4 " />
<polygon points="130,109.4 133,111.4 128,114.4 " />
<polygon points="126.4,124.3 124.6,127.2 119.7,134.7 114.4,141.9 108.7,148.6 102.6,154.9 96.1,160.8 89.2,166.3 81.8,171.3 74.1,175.8 66,179.8 57.5,183.2 56.7,181.5 64.1,176.5 71.2,171.3 78,166 84.3,160.4 90.3,154.6 95.8,148.5 101,142.2 105.8,135.5 110.2,128.6 112.5,124.3 " />
<polygon points="129.1,124.6 134.5,129.8 139.9,135 145.4,140 150.9,144.8 156.6,149.3 162.5,153.7 168.6,157.8 174.8,161.6 181.2,165.2 187.9,168.6 181.6,180.2 174.8,176 168.3,171.5 162.1,166.7 156.1,161.7 150.5,156.4 145.1,150.8 140.1,145 135.5,138.9 131.3,132.4 127.6,125.6 " />
<polygon points="181.6,180.2 187.9,168.6 192.8,171.3 " />
</g>
</svg>
