<svg xmlns="http://www.w3.org/2000/svg" xmlns:xlink="http://www.w3.org/1999/xlink" version="1.1" baseProfile="full" viewBox="0 0 200 200" width="200" height="200">
<path d="M 59.3,13.8 Q 52.3,31 42.4,44 Q 31.1,58.5 16.6,68.5 L 15.3,67.1 Q 28.1,52.5 35.4,39.3 Q 44.3,24 47.9,10 Z" fill="black" />
<path d="M 47.6,10.9 L 59.3,13.8 48.4,8.5 Z" fill="black" />
<path d="M 59.3,13.8 L 61.5,16.7 55.8,17.9 Z" fill="black" />
<path d="M 44,29.3 L 87,29.3 87,33.3 44,33.3 Z" fill="black" />
<path d="M 92.8,32.6 Q 84.5,63.7 65.6,82.2 Q 44.7,102.5 15.2,109.3 L 14.7,107.6 Q 44.7,94.5 59.3,76.4 Q 76.5,55.7 81.1,29.9 Z" fill="black" />
<path d="M 81,29.3 L 87,24.3 98,33.3 93,36.3 81,41.3 Z" fill="black" />
<path d="M 35.2,46.4 Q 45.8,47.5 52.3,50.6 Q 59.9,53.9 64.5,58.1 L 55.4,66 Q 52.9,61.9 48,57.9 Q 41.8,53.5 34.6,48.1 Z" fill="black" />
<path d="M 64.5,58.1 Q 67.6,62.6 63.9,66.6 Q 59.4,69.7 55.4,66 Z" fill="black" />
<path d="M 105.7,82.7 Q 86.8,101.9 64.2,114.4 Q 39.2,128.4 11.2,134.2 L 10.7,132.5 Q 40.2,120.4 59.8,107.2 Q 82.8,91.9 96.8,74.6 Z" fill="black" />
<path d="M 96.2,75.4 L 105.7,82.7 97.2,74.2 Z" fill="black" />
<path d="M 105.7,82.7 L 106.6,86.2 100.9,85 Z" fill="black" />
<path d="M 99.3,80 Q 119.1,93.7 138.1,103.5 Q 159.2,113.6 180.7,118.8 L 177.2,131.5 Q 152.2,123.6 133.6,111.6 Q 112.1,98.7 98.1,81.3 Z" fill="black" />
<path d="M 177.2,131.5 L 180.7,118.8 188.8,121.1 Z" fill="black" />
<path d="M 57,120.8 L 143,120.8 143,124.8 57,124.8 Z" fill="black" />
<path d="M 143,120.8 L 119,122.8 131,110.8 Z" fill="black" />
<path d="M 33,142.8 L 167,142.8 167,146.8 33,146.8 Z" fill="black" />
<path d="M 167,142.8 L 143,144.8 155,132.8 Z" fill="black" />
<path d="M 106,120.8 L 106,187.3 94,187.3 94,120.8 Z" fill="black" />
<path d="M 47.3,152.5 Q 57.3,155.8 63.1,160.5 Q 69.8,165.6 73.2,171.5 L 62.2,176.4 Q 60.8,171.6 57.1,166.5 Q 52.3,160.8 46.3,154 Z" fill="black" />
<path d="M 73.2,171.5 Q 74.9,176.6 70.2,179.4 Q 65,181.1 62.2,176.4 Z" fill="black" />
<path d="M 151.1,159.1 Q 145.2,165.7 138.3,171.2 Q 130.5,177.6 121.5,182 L 120.4,180.6 Q 127.5,171.6 132.3,165.3 Q 138.2,157.7 141.6,151.9 Z" fill="black" />
<path d="M 141,152.7 L 151.1,159.1 142,151.3 Z" fill="black" />
<path d="M 151.1,159.1 L 152.3,162.5 146.5,161.9 Z" fill="black" />
<path d="M 19,183.3 L 181,183.3 181,187.3 19,187.3 Z" fill="black" />
<path d="M 181,183.3 L 157,185.3 169,173.3 Z" fill="black" />
<path d="M 101.8,43 L 187.8,36 188.1,39.9 102.1,46.9 Z" fill="black" />
<path d="M 187.8,36 L 164,39.9 175,27 Z" fill="black" />
<path d="M 135,9 L 136.2,31.1 139.4,49.2 144.2,63.7 150.1,75 156.5,83.5 163.1,89.7 169.4,93.9 175,96.4 179.4,97.6 182,98 182,110 177.1,109.4 170.9,107.7 163.7,104.4 155.7,99.1 147.6,91.6 139.9,81.5 133.2,68.4 127.8,52.2 124.2,32.5 123,9 Z" fill="black" />
<path d="M 123,10 L 135,9 123,6.6 Z" fill="black" />
<path d="M 135,9 L 138,11 133,14 Z" fill="black" />
<path d="M 182,98 Q 187.4,98.6 188,104 Q 187.4,109.4 182,110 Z" fill="black" />
<path d="M 182,99 L 184,73 182,73 176,99 Z" fill="black" />
<path d="M 168.9,55.6 Q 155.7,69.2 142.6,76.9 Q 128.1,85.4 113.2,86.8 L 112.7,85.1 Q 127.1,78.4 137.9,69.9 Q 150.7,60.2 159.7,47.8 Z" fill="black" />
<path d="M 159.1,48.6 L 168.9,55.6 160.1,47.4 Z" fill="black" />
<path d="M 168.9,55.6 L 169.9,59.1 164.1,58.1 Z" fill="black" />
<path d="M 145.1,11.3 Q 155.3,11.6 162.1,13.9 Q 169.4,16.3 174.4,20.7 L 165.5,28.7 Q 163.4,25.3 158.3,21.5 Q 152.3,17.6 144.7,13.1 Z" fill="black" />
<path d="M 174.4,20.7 Q 177.6,25.1 174,29.2 Q 169.5,32.3 165.5,28.7 Z" fill="black" />
</svg>
