<svg xmlns="http://www.w3.org/2000/svg" xmlns:xlink="http://www.w3.org/1999/xlink" version="1.1" baseProfile="full" viewBox="0 0 200 200" width="200" height="200">
<path d="M 107.5,9.8 L 107.5,30.5 95.5,30.5 95.5,7.8 Z" fill="black" />
<path d="M 107.5,9.8 L 110.5,11.8 105.5,14.8 Z" fill="black" />
<path d="M 37.2,21.5 Q 40.2,32 37.7,39.7 Q 35.1,48.4 27.3,52.7 L 22.3,41.8 Q 27.1,40.4 30,36.3 Q 33.2,31 35.4,21.5 Z" fill="black" />
<path d="M 27.3,52.7 Q 22.1,54.4 19.3,49.7 Q 17.7,44.6 22.3,41.8 Z" fill="black" />
<path d="M 37.2,27.1 L 173.3,27.1 173.3,31.1 37.2,31.1 Z" fill="black" />
<path d="M 177.9,32.9 Q 174,36.5 168.7,40.1 Q 163.1,44.6 155,48 L 153.8,46.7 Q 159.1,38.6 162.8,34 Q 167,28.5 168.6,25.2 Z" fill="black" />
<path d="M 167.3,27.1 L 173.3,22.1 184.3,31.1 179.3,34.1 167.3,39.1 Z" fill="black" />
<path d="M 97.5,42.5 L 63.6,96.2 50.3,94.8 88.4,34.4 Z" fill="black" />
<path d="M 97.5,42.5 L 99,45.8 93.7,46.4 Z" fill="black" />
<path d="M 68,85.2 Q 99.7,86.3 122.7,92.1 Q 148,98.5 165.5,108.5 L 159.3,118.8 Q 142,107.5 120.4,100.3 Q 95.7,92.3 67.8,87 Z" fill="black" />
<path d="M 165.5,108.5 Q 169.8,111.9 167.5,116.8 Q 164.2,121.1 159.3,118.8 Z" fill="black" />
<path d="M 136.9,62.8 Q 133.5,90.5 104.6,102.6 Q 73.5,116.3 22,117.6 L 21.9,115.8 Q 78.5,108.3 100.8,95 Q 126.5,79.5 125,62.3 Z" fill="black" />
<path d="M 14,60.6 L 186,60.6 186,64.6 14,64.6 Z" fill="black" />
<path d="M 186,60.6 L 162,62.6 174,50.6 Z" fill="black" />
<path d="M 63.7,126.1 Q 64.4,136.4 60.7,144.8 Q 56.6,154.4 49.2,161.5 L 41.2,152.5 Q 48.6,146.4 53.3,140.6 Q 58.4,133.4 61.9,125.8 Z" fill="black" />
<path d="M 49.2,161.5 Q 44.7,164.6 40.7,160.9 Q 37.6,156.5 41.2,152.5 Z" fill="black" />
<path d="M 165.5,134.9 Q 157.2,142.2 147.9,148 Q 137.6,154.4 126.4,158.7 L 125.5,157.2 Q 135.6,148.4 142.7,141.3 Q 151.2,133.2 157,126.4 Z" fill="black" />
<path d="M 156.3,127.1 L 165.5,134.9 157.3,126.1 Z" fill="black" />
<path d="M 165.5,134.9 L 166.2,138.4 160.5,137 Z" fill="black" />
<path d="M 107,117.5 Q 108,151.7 84.9,168.7 Q 59.4,186.9 16,188.8 L 15.9,187.1 Q 63.4,178.9 79.5,162.2 Q 99,143.7 95.1,118.4 Z" fill="black" />
<path d="M 95.1,119.4 L 107,117.5 94.9,116.3 Z" fill="black" />
<path d="M 107,117.5 L 110.2,119.2 105.4,122.6 Z" fill="black" />
<path d="M 95.1,148.3 Q 121.2,151.5 141.9,158.9 Q 164.5,167 181.7,177.3 L 175.2,187.4 Q 157.5,175 138.7,166.8 Q 117.2,157.5 94.7,150 Z" fill="black" />
<path d="M 181.7,177.3 Q 185.9,180.7 183.5,185.6 Q 180,189.8 175.2,187.4 Z" fill="black" />
</svg>
