<svg xmlns="http://www.w3.org/2000/svg" xmlns:xlink="http://www.w3.org/1999/xlink" version="1.1" baseProfile="full" viewBox="0 0 200 200" width="200" height="200">
<path d="M 43,27 L 157,27 157,31 43,31 Z" fill="black" />
<path d="M 163,29 L 163,68 151,74 151,29 Z" fill="black" />
<path d="M 151,27 L 157,22 168,31 163,35 151,29 Z" fill="black" />
<path d="M 43,60 L 157,60 157,64 43,64 Z" fill="black" />
<path d="M 49,27 L 49,97 37,97 37,21 Z" fill="black" />
<path d="M 37,97 Q 37.6,102.4 43,103 Q 48.4,102.4 49,97 Z" fill="black" />
<path d="M 49,97 Q 48,132.1 40,153.2 Q 31.1,176.8 15.5,185.7 L 14.4,184.2 Q 27.1,170.8 31.9,150.7 Q 38,127.1 37,97 Z" fill="black" />
<path d="M 43,86 L 170,86 170,90 43,90 Z" fill="black" />
<path d="M 176,88 Q 176,123.6 173.4,144 Q 171,166.5 165.1,176.3 L 154.8,170.3 Q 159,162.5 161.5,142.6 Q 164,119.6 164,88 Z" fill="black" />
<path d="M 164,86 L 170,81 181,90 176,93 164,98 Z" fill="black" />
<path d="M 165.1,176.3 Q 161.9,180.7 156.9,178.5 Q 152.6,175.3 154.8,170.3 Z" fill="black" />
<path d="M 165.1,176.3 Q 162,182.1 156.7,185 Q 151,188 145,188 L 145,176 Q 149,176 150.7,174.6 Q 153,173.1 154.8,170.3 Z" fill="black" />
<path d="M 145,182 L 145,176 125,176 125,179 Z" fill="black" />
<path d="M 67.1,110.9 Q 70.3,121.9 67.3,130.3 Q 63.7,139.3 55.4,144.2 L 50.4,133.3 Q 56.7,131.3 59.7,126.6 Q 63.3,120.9 65.3,111 Z" fill="black" />
<path d="M 55.4,144.2 Q 50.2,145.9 47.4,141.3 Q 45.7,136.1 50.4,133.3 Z" fill="black" />
<path d="M 141.4,118.5 Q 133.3,123.8 124.7,128.3 Q 115.2,133.1 105,136.1 L 104.1,134.5 Q 113.2,127.1 120.1,121.2 Q 128.3,114.8 133.9,109.1 Z" fill="black" />
<path d="M 133.2,109.8 L 141.4,118.5 134,109.1 Z" fill="black" />
<path d="M 141.4,118.5 L 141.7,122.1 136.3,120.1 Z" fill="black" />
<path d="M 101,95.4 Q 100,130 84.8,149.2 Q 68,170 40.8,173.8 L 40.3,172 Q 68,162 77.9,144.3 Q 90,124 89,95.4 Z" fill="black" />
<path d="M 89,96.4 L 101,95.4 89,93 Z" fill="black" />
<path d="M 101,95.4 L 104,97.4 99,100.4 Z" fill="black" />
<path d="M 98.4,102.5 Q 102,129.3 112.9,142.5 Q 124.8,157.3 145.6,162.8 L 141.6,175.4 Q 115.8,166.3 105.2,147.8 Q 93,127.3 96.6,102.5 Z" fill="black" />
<path d="M 141.6,175.4 L 145.6,162.8 153.2,165.3 Z" fill="black" />
</svg>
