<svg xmlns="http://www.w3.org/2000/svg" xmlns:xlink="http://www.w3.org/1999/xlink" version="1.1" baseProfile="full" viewBox="0 0 200 200" width="200" height="200">
<path d="M 106,16 L 106,66.2 94,66.2 94,14 Z" fill="black" />
<path d="M 106,16 L 109,18 104,21 Z" fill="black" />
<path d="M 43.9,29.4 L 43.9,78.2 31.9,84.2 31.9,27.4 Z" fill="black" />
<path d="M 43.9,29.4 L 46.9,31.4 41.9,34.4 Z" fill="black" />
<path d="M 37.9,62.2 L 162,62.2 162,66.2 37.9,66.2 Z" fill="black" />
<path d="M 168,29.4 L 168,72.2 156,78.2 156,27.4 Z" fill="black" />
<path d="M 168,29.4 L 171,31.4 166,34.4 Z" fill="black" />
<path d="M 76.2,71.1 Q 87.8,72.9 95.8,77.4 Q 104.9,81.9 110.7,88.2 L 101.4,95.9 Q 96.9,89.9 91.1,84.5 Q 83.8,78.9 75.6,72.8 Z" fill="black" />
<path d="M 110.7,88.2 Q 113.6,92.8 109.9,96.7 Q 105.3,99.7 101.4,95.9 Z" fill="black" />
<path d="M 22,101.7 L 178,101.7 178,105.7 22,105.7 Z" fill="black" />
<path d="M 178,101.7 L 154,103.7 166,91.7 Z" fill="black" />
<path d="M 106,101.7 L 106,185.3 94,185.3 94,101.7 Z" fill="black" />
<path d="M 33,139.5 L 167,139.5 167,143.5 33,143.5 Z" fill="black" />
<path d="M 167,139.5 L 143,141.5 155,129.5 Z" fill="black" />
<path d="M 14,181.3 L 186,181.3 186,185.3 14,185.3 Z" fill="black" />
<path d="M 186,181.3 L 162,183.3 174,171.3 Z" fill="black" />
</svg>
