<svg xmlns="http://www.w3.org/2000/svg" xmlns:xlink="http://www.w3.org/1999/xlink" version="1.1" baseProfile="full" viewBox="0 0 200 200" width="200" height="200">
<path d="M 110.4,19.1 L 110.4,84.4 98.4,90.4 98.4,13.1 Z" fill="black" />
<path d="M 104.4,19.1 L 182.6,19.1 182.6,23.1 104.4,23.1 Z" fill="black" />
<path d="M 182.6,19.1 L 158.6,21.1 170.6,9.1 Z" fill="black" />
<path d="M 144.2,19.1 L 144.2,84.4 132.2,84.4 132.2,19.1 Z" fill="black" />
<path d="M 104.4,39.5 L 178.7,39.5 178.7,43.5 104.4,43.5 Z" fill="black" />
<path d="M 178.7,39.5 L 158.7,41.5 168.7,30.5 Z" fill="black" />
<path d="M 104.4,60 L 178.7,60 178.7,64 104.4,64 Z" fill="black" />
<path d="M 178.7,60 L 158.7,62 168.7,51 Z" fill="black" />
<path d="M 104.4,80.4 L 176.8,80.4 176.8,84.4 104.4,84.4 Z" fill="black" />
<path d="M 182.8,82.4 Q 182.8,98.8 181.2,108.4 Q 179.8,119 175.3,124.5 L 166.1,116.8 Q 167.8,115 169.3,106.6 Q 170.8,96.8 170.8,82.4 Z" fill="black" />
<path d="M 170.8,80.4 L 176.8,75.4 187.8,84.4 182.8,87.4 170.8,92.4 Z" fill="black" />
<path d="M 175.3,124.5 Q 171.3,128.2 166.8,125.2 Q 163.1,121.3 166.1,116.8 Z" fill="black" />
<path d="M 175.3,124.5 Q 171,129.4 165.9,131.8 Q 160.3,134.3 154.2,134.3 L 154.2,122.3 Q 158.3,122.3 160.8,120.9 Q 164,119.4 166.1,116.8 Z" fill="black" />
<path d="M 154.2,128.3 L 154.2,122.3 136.2,122.3 136.2,125.3 Z" fill="black" />
<path d="M 103.5,93.9 Q 107,105.2 105.5,112.9 Q 104,121.6 97.6,126.9 L 91.3,116.6 Q 95,115.6 97.4,110.5 Q 100,104.2 101.7,94.1 Z" fill="black" />
<path d="M 97.6,126.9 Q 92.7,129.2 89.3,124.9 Q 87,120 91.3,116.6 Z" fill="black" />
<path d="M 114.4,94 Q 120.2,97.9 122.7,103.3 Q 125.6,109.5 125.3,115.6 L 113.4,113.9 Q 114.6,109.5 114.6,105.6 Q 114.2,100.9 113,95.1 Z" fill="black" />
<path d="M 125.3,115.6 Q 123.9,120.8 118.5,120.7 Q 113.2,119.3 113.4,113.9 Z" fill="black" />
<path d="M 127,92.1 Q 134.3,93.9 138.3,98.2 Q 143,102.9 144.6,108.9 L 132.8,110.7 Q 133,106.9 131.5,103.2 Q 129.3,98.9 126,93.6 Z" fill="black" />
<path d="M 144.6,108.9 Q 144.9,114.3 139.6,115.7 Q 134.2,115.9 132.8,110.7 Z" fill="black" />
<path d="M 141.4,89.7 Q 148.8,89.8 153.4,92.9 Q 159,96.3 161.8,101.3 L 150.8,106 Q 150,102.3 147.9,99.3 Q 144.8,95.8 140.7,91.4 Z" fill="black" />
<path d="M 161.8,101.3 Q 163.4,106.5 158.7,109.2 Q 153.5,110.7 150.8,106 Z" fill="black" />
<path d="M 17.8,40.3 L 93,40.3 93,44.3 17.8,44.3 Z" fill="black" />
<path d="M 93,40.3 L 69,42.3 81,30.3 Z" fill="black" />
<path d="M 13.1,76.2 L 94,76.2 94,80.2 13.1,80.2 Z" fill="black" />
<path d="M 94,76.2 L 74,78.2 84,67.2 Z" fill="black" />
<path d="M 44.5,40.3 L 44.5,79.6 32.5,79.6 32.5,40.3 Z" fill="black" />
<path d="M 32.5,79.6 Q 33.1,85 38.5,85.6 Q 43.9,85 44.5,79.6 Z" fill="black" />
<path d="M 44.5,79.6 Q 43.5,100.8 37,113.8 Q 29.8,128.4 17.4,133.2 L 16.4,131.7 Q 25.8,122.4 29.2,110.6 Q 33.5,96.8 32.5,79.6 Z" fill="black" />
<path d="M 72.7,40.3 L 72.7,127.4 60.7,133.4 60.7,40.3 Z" fill="black" />
<path d="M 21.9,12.3 Q 31,14.6 36.2,19.3 Q 42.5,24.5 45.2,31.2 L 33.7,34.9 Q 32.5,29.5 29.9,24.9 Q 26,19.6 21.1,13.9 Z" fill="black" />
<path d="M 45.2,31.2 Q 46.2,36.6 41.3,38.8 Q 35.9,39.8 33.7,34.9 Z" fill="black" />
<path d="M 82.7,15.1 Q 77.5,22 72.3,28.9 Q 66.4,36.6 59,42.8 L 57.5,41.7 Q 61.4,31.6 65.1,24.3 Q 69.5,16 72.3,9.1 Z" fill="black" />
<path d="M 71.8,10 L 82.7,15.1 72.8,8.2 Z" fill="black" />
<path d="M 82.7,15.1 L 84.3,18.3 78.5,18.4 Z" fill="black" />
<path d="M 63.7,139.6 Q 64.4,149.8 59,157.4 Q 53,165.9 42.9,170.1 L 38.7,158.8 Q 48,155.9 52.7,151.8 Q 58.4,146.8 61.9,139.3 Z" fill="black" />
<path d="M 42.9,170.1 Q 37.6,171.4 35.1,166.6 Q 33.8,161.3 38.7,158.8 Z" fill="black" />
<path d="M 163.3,146.5 Q 154.1,151.5 143.7,155.5 Q 132.1,160.3 119.3,163.1 L 118.6,161.4 Q 131.1,153.3 139.8,147.9 Q 150.1,141.5 156.9,136.4 Z" fill="black" />
<path d="M 156.1,136.9 L 163.3,146.5 164.5,145.8 Z" fill="black" />
<path d="M 164.5,145.8 L 164.6,149.2 158.9,146.9 Z" fill="black" />
<path d="M 106.9,133 Q 104.4,161.7 81.6,175.2 Q 56.9,190 16,191 L 15.9,189.2 Q 59.9,182 76.8,168.2 Q 96.4,152.7 94.9,132.8 Z" fill="black" />
<path d="M 94.9,133.8 L 106.9,133 95,130.4 Z" fill="black" />
<path d="M 106.9,133 L 109.9,135.1 104.8,138 Z" fill="black" />
<path d="M 104,137.7 Q 110.5,157.9 127,166.5 Q 145.6,176.8 177.5,178.6 L 176.4,191.8 Q 139.6,187.8 122,174.4 Q 101.5,158.9 102.2,137.9 Z" fill="black" />
<path d="M 176.4,191.8 L 177.5,178.6 188.3,179.5 Z" fill="black" />
</svg>
