<svg xmlns="http://www.w3.org/2000/svg" xmlns:xlink="http://www.w3.org/1999/xlink" version="1.1" baseProfile="full" viewBox="0 0 200 200" width="200" height="200">
<path d="M 104.8,38 L 185.1,38 185.1,42 104.8,42 Z" fill="black" />
<path d="M 185.1,38 L 161.1,40 173.1,28 Z" fill="black" />
<path d="M 146.7,16 L 146.7,170 134.7,170 134.7,14 Z" fill="black" />
<path d="M 146.7,16 L 149.7,18 144.7,21 Z" fill="black" />
<path d="M 140.7,143 L 178.1,143 178.1,147 140.7,147 Z" fill="black" />
<path d="M 178.1,143 L 158.1,145 168.1,134 Z" fill="black" />
<path d="M 121.6,122.6 Q 118.3,143.3 112.7,158.6 Q 106.6,175.8 97.8,186.4 L 96.2,185.5 Q 101.6,170.8 104.6,156.3 Q 108.3,139.3 109.6,121.2 Z" fill="black" />
<path d="M 109.5,122.2 L 121.6,122.6 109.9,119.2 Z" fill="black" />
<path d="M 121.6,122.6 L 124.3,125 119,127.4 Z" fill="black" />
<path d="M 112.9,142.7 Q 121.1,161.7 136.4,167 Q 154.1,173.5 182.8,169.4 L 184.3,182.5 Q 150.1,185.5 132.5,175.4 Q 112.1,163.7 111.2,143.1 Z" fill="black" />
<path d="M 184.3,182.5 L 182.8,169.4 193.2,168.2 Z" fill="black" />
<path d="M 111.8,59 L 166.4,59 166.4,63 111.8,63 Z" fill="black" />
<path d="M 172.4,61 L 172.4,119 160.4,125 160.4,61 Z" fill="black" />
<path d="M 160.4,59 L 166.4,54 177.4,63 172.4,67 160.4,61 Z" fill="black" />
<path d="M 111.8,109 L 166.4,109 166.4,113 111.8,113 Z" fill="black" />
<path d="M 104.8,83 L 189,83 189,87 104.8,87 Z" fill="black" />
<path d="M 189,83 L 173,85 181,76 Z" fill="black" />
<path d="M 64.5,14 L 64.5,39 52.5,39 52.5,12 Z" fill="black" />
<path d="M 64.5,14 L 67.5,16 62.5,19 Z" fill="black" />
<path d="M 22.8,35 L 100.3,35 100.3,39 22.8,39 Z" fill="black" />
<path d="M 100.3,35 L 76.3,37 88.3,25 Z" fill="black" />
<path d="M 28.8,35 L 28.8,96 16.8,96 16.8,29 Z" fill="black" />
<path d="M 16.8,96 Q 17.4,101.4 22.8,102 Q 28.2,101.4 28.8,96 Z" fill="black" />
<path d="M 28.8,96 Q 27.8,131.1 24.2,152.7 Q 20.3,176.8 12.5,187.3 L 10.9,186.6 Q 14.3,172.8 15.8,151.7 Q 17.8,127.1 16.8,96 Z" fill="black" />
<path d="M 27.7,58.8 L 94.8,58.8 94.8,62.8 27.7,62.8 Z" fill="black" />
<path d="M 94.8,58.8 L 82.8,60.8 88.8,52.8 Z" fill="black" />
<path d="M 54.8,43.7 L 54.8,81.8 43.8,87.3 43.8,41.7 Z" fill="black" />
<path d="M 54.8,43.7 L 57.5,45.7 52.8,48.7 Z" fill="black" />
<path d="M 78.7,43.7 L 78.7,81.8 67.7,87.3 67.7,41.7 Z" fill="black" />
<path d="M 78.7,43.7 L 81.4,45.7 76.7,48.7 Z" fill="black" />
<path d="M 49.3,77.8 L 73.2,77.8 73.2,81.8 49.3,81.8 Z" fill="black" />
<path d="M 22.8,91 L 99.7,91 99.7,95 22.8,95 Z" fill="black" />
<path d="M 99.7,91 L 83.7,93 91.7,84 Z" fill="black" />
<path d="M 42.9,107.5 L 42.9,154.4 31.9,159.9 31.9,102 Z" fill="black" />
<path d="M 37.4,107.5 L 85.1,107.5 85.1,111.5 37.4,111.5 Z" fill="black" />
<path d="M 90.6,109.5 L 90.6,154.4 79.6,159.9 79.6,109.5 Z" fill="black" />
<path d="M 79.6,107.5 L 85.1,102.5 95.6,111.5 90.6,115 79.6,109.5 Z" fill="black" />
<path d="M 66.2,91 L 66.2,154.4 56.2,154.4 56.2,91 Z" fill="black" />
<path d="M 37.4,129 L 85.1,129 85.1,133 37.4,133 Z" fill="black" />
<path d="M 37.4,150.4 L 85.1,150.4 85.1,154.4 37.4,154.4 Z" fill="black" />
<path d="M 56.9,167.7 Q 50.3,174.1 42.8,179 Q 34.3,184.2 24.5,187 L 23.7,185.4 Q 32.3,178.2 37.6,172.4 Q 44.3,166.1 47.5,160.1 Z" fill="black" />
<path d="M 46.9,160.9 L 56.9,167.7 48,159.6 Z" fill="black" />
<path d="M 56.9,167.7 L 58,171.1 52.2,170.3 Z" fill="black" />
<path d="M 70,161.1 Q 79.3,162.8 85.8,167.4 Q 92.9,171.9 97.7,177.9 L 87.7,184.6 Q 84.9,178.9 80.4,173.9 Q 75.3,168.8 69.2,162.7 Z" fill="black" />
<path d="M 97.7,177.9 Q 100.2,182.8 96,186.3 Q 91.2,188.7 87.7,184.6 Z" fill="black" />
</svg>
