<svg xmlns="http://www.w3.org/2000/svg" xmlns:xlink="http://www.w3.org/1999/xlink" version="1.1" baseProfile="full" viewBox="0 0 200 200" width="200" height="200">
<path d="M 18,19 L 73,19 73,23 18,23 Z" fill="black" />
<path d="M 79,21 L 79,61 67,67 67,21 Z" fill="black" />
<path d="M 67,19 L 73,14 84,23 79,27 67,21 Z" fill="black" />
<path d="M 32,51 L 73,51 73,55 32,55 Z" fill="black" />
<path d="M 38.2,52 L 30.6,98.2 17.8,102.2 27.3,44.1 Z" fill="black" />
<path d="M 27,81.4 L 74,81.4 74,85.4 27,85.4 Z" fill="black" />
<path d="M 79.9,83.6 Q 79.5,103.4 76.8,115.9 Q 73.9,129.7 68.6,137.2 L 58.9,130.3 Q 62.9,124.7 65,113.5 Q 67.5,100.4 68,83.2 Z" fill="black" />
<path d="M 68,81.4 L 74,76.4 85,85.4 80,88.4 68,93.4 Z" fill="black" />
<path d="M 68.6,137.2 Q 65,141.3 60.3,138.7 Q 56.2,135 58.9,130.3 Z" fill="black" />
<path d="M 68.6,137.2 Q 64.9,142.8 59.6,145.2 Q 54,147.9 48,147.9 L 48,135.9 Q 52,135.9 54.2,134.5 Q 56.9,132.8 58.9,130.3 Z" fill="black" />
<path d="M 48,141.9 L 48,135.9 32,135.9 32,138.9 Z" fill="black" />
<path d="M 82.5,34.5 L 190.4,34.5 190.4,38.5 82.5,38.5 Z" fill="black" />
<path d="M 190.4,34.5 L 166.4,36.5 178.4,24.5 Z" fill="black" />
<path d="M 142.5,12.4 L 142.5,73.1 130.5,73.1 130.5,10.4 Z" fill="black" />
<path d="M 142.5,12.4 L 145.5,14.4 140.5,17.4 Z" fill="black" />
<path d="M 89.5,69.1 L 183.4,69.1 183.4,73.1 89.5,73.1 Z" fill="black" />
<path d="M 183.4,69.1 L 159.4,71.1 171.4,59.1 Z" fill="black" />
<path d="M 108.8,90 L 108.8,136.1 96.8,142.1 96.8,84 Z" fill="black" />
<path d="M 102.8,90 L 169.5,90 169.5,94 102.8,94 Z" fill="black" />
<path d="M 175.5,92 L 175.5,138.1 163.5,144.1 163.5,92 Z" fill="black" />
<path d="M 163.5,90 L 169.5,85 180.5,94 175.5,98 163.5,92 Z" fill="black" />
<path d="M 102.8,132.1 L 169.5,132.1 169.5,136.1 102.8,136.1 Z" fill="black" />
<path d="M 43.8,148.8 Q 45.9,162.6 41.6,172.3 Q 36.9,182.8 27.2,188.4 L 22.1,177.6 Q 29.9,174.8 34.1,168.3 Q 38.9,160.6 42,148.7 Z" fill="black" />
<path d="M 27.2,188.4 Q 22.1,190.2 19.2,185.6 Q 17.5,180.5 22.1,177.6 Z" fill="black" />
<path d="M 70.3,149.6 Q 79.2,155.2 83.1,163 Q 87.6,171.3 87.2,180.2 L 75.3,178.9 Q 76.6,172.3 75.3,166.1 Q 73.2,159.2 69,150.8 Z" fill="black" />
<path d="M 87.2,180.2 Q 86.1,185.5 80.6,185.5 Q 75.3,184.3 75.3,178.9 Z" fill="black" />
<path d="M 108.3,149.4 Q 119.3,155.1 125.3,162.2 Q 131.8,170.3 133.6,178.9 L 121.7,180.2 Q 121.8,173.3 118.3,166.9 Q 114.3,159.1 107.2,150.8 Z" fill="black" />
<path d="M 133.6,178.9 Q 133.6,184.3 128.3,185.5 Q 122.8,185.5 121.7,180.2 Z" fill="black" />
<path d="M 148.3,148.4 Q 161.7,154.6 169.6,162.4 Q 178.5,170.7 181.8,179.6 L 170.3,183.2 Q 168.5,175.7 163.2,168 Q 156.7,159.6 147.3,149.9 Z" fill="black" />
<path d="M 181.8,179.6 Q 182.8,185 177.8,187.2 Q 172.5,188.2 170.3,183.2 Z" fill="black" />
</svg>
