<svg xmlns="http://www.w3.org/2000/svg" xmlns:xlink="http://www.w3.org/1999/xlink" version="1.1" baseProfile="full" viewBox="0 0 200 200" width="200" height="200">
<path d="M 67.9,15.9 Q 57.8,23.1 45.9,29.7 Q 33.1,36.9 18.1,41.6 L 17.3,40 Q 31.1,29.9 41.3,22.5 Q 52.8,14.1 60.3,6.7 Z" fill="black" />
<path d="M 59.5,7.3 L 67.9,15.9 60.4,6.6 Z" fill="black" />
<path d="M 67.9,15.9 L 68.3,19.5 62.8,17.6 Z" fill="black" />
<path d="M 72.4,36.7 Q 60.5,49.9 46.2,60.5 Q 30.7,72.4 12.4,80.4 L 11.5,78.9 Q 28.7,65.4 40.7,54 Q 54.5,40.9 63.2,29.1 Z" fill="black" />
<path d="M 62.5,29.8 L 72.4,36.7 63.6,28.6 Z" fill="black" />
<path d="M 72.4,36.7 L 73.5,40.1 67.7,39.3 Z" fill="black" />
<path d="M 53,59.2 L 53,120.9 41,126.9 41,57.2 Z" fill="black" />
<path d="M 53,59.2 L 56,61.2 51,64.2 Z" fill="black" />
<path d="M 114,13.5 Q 107.3,26.1 96.9,34.7 Q 85.6,44.6 71.4,49.6 L 70.5,48.1 Q 83.6,37.6 90.8,28.7 Q 99.3,18.1 103.1,8.4 Z" fill="black" />
<path d="M 102.7,9.3 L 114,13.5 103.6,7.2 Z" fill="black" />
<path d="M 114,13.5 L 115.8,16.5 110,17.1 Z" fill="black" />
<path d="M 103,23.4 L 187,23.4 187,27.4 103,27.4 Z" fill="black" />
<path d="M 187,23.4 L 167,25.4 177,14.4 Z" fill="black" />
<path d="M 104.9,37.6 L 104.9,73.5 92.9,79.5 92.9,31.6 Z" fill="black" />
<path d="M 98.9,37.6 L 162,37.6 162,41.6 98.9,41.6 Z" fill="black" />
<path d="M 168,39.6 L 168,73.5 156,79.5 156,39.6 Z" fill="black" />
<path d="M 156,37.6 L 162,32.6 173,41.6 168,45.6 156,39.6 Z" fill="black" />
<path d="M 98.9,53.1 L 162,53.1 162,57.1 98.9,57.1 Z" fill="black" />
<path d="M 98.9,69.5 L 162,69.5 162,73.5 98.9,73.5 Z" fill="black" />
<path d="M 123.1,80.1 Q 113.7,90.8 101.5,97.9 Q 88.1,105.9 72.3,109.3 L 71.6,107.7 Q 87.1,98.9 96.6,91 Q 107.7,81.8 113.6,72.8 Z" fill="black" />
<path d="M 113,73.6 L 123.1,80.1 114,72.2 Z" fill="black" />
<path d="M 123.1,80.1 L 124.2,83.5 118.5,82.9 Z" fill="black" />
<path d="M 110,84.4 L 161,84.4 161,88.4 110,88.4 Z" fill="black" />
<path d="M 165.4,90.4 Q 148.1,107.5 124,115.8 Q 97.3,125 65,126.1 L 64.9,124.3 Q 100.3,118 120.9,107.9 Q 145.1,96.5 156.5,82.3 Z" fill="black" />
<path d="M 155,84.4 L 161,79.4 172,88.4 167,91.4 155,96.4 Z" fill="black" />
<path d="M 111.2,86.8 Q 120.6,98.1 136.1,104.2 Q 153.7,111 178.8,113.3 L 177.1,126.4 Q 147.7,122 132,112.6 Q 113.6,102.1 109.6,87.7 Z" fill="black" />
<path d="M 177.1,126.4 L 178.8,113.3 189,114.6 Z" fill="black" />
<path d="M 27,146.4 L 173,146.4 173,150.4 27,150.4 Z" fill="black" />
<path d="M 173,146.4 L 149,148.4 161,136.4 Z" fill="black" />
<path d="M 106,128.2 L 106,179.4 94,179.4 94,126.2 Z" fill="black" />
<path d="M 106,128.2 L 109,130.2 104,133.2 Z" fill="black" />
<path d="M 14,175.4 L 186,175.4 186,179.4 14,179.4 Z" fill="black" />
<path d="M 186,175.4 L 162,177.4 174,165.4 Z" fill="black" />
</svg>
