<svg xmlns="http://www.w3.org/2000/svg" xmlns:xlink="http://www.w3.org/1999/xlink" version="1.1" baseProfile="full" viewBox="0 0 200 200" width="200" height="200">
<path d="M 15.2,53 L 67.4,53 67.4,57 15.2,57 Z" fill="black" />
<path d="M 67.4,53 L 47.4,55 57.4,44 Z" fill="black" />
<path d="M 47,16 L 47,171 35,171 35,14 Z" fill="black" />
<path d="M 47,16 L 50,18 45,21 Z" fill="black" />
<path d="M 35,171 Q 35.6,176.4 41,177 Q 46.4,176.4 47,171 Z" fill="black" />
<path d="M 47,171 Q 47,177.9 42.7,182.7 Q 37.5,187.5 31,187 L 31,175 Q 34.5,174.5 34.2,174.2 Q 35,173.9 35,171 Z" fill="black" />
<path d="M 31,181 L 31,175 19,175 19,178 Z" fill="black" />
<path d="M 13.7,116.2 Q 27.6,109.3 40.2,102.9 Q 53.9,95.5 66.9,90.2 L 67.8,91.7 Q 55.9,102.5 44.6,110.2 Q 31.6,119.3 19.5,126.7 Z" fill="black" />
<path d="M 19.5,126.7 L 13.7,116.2 12,117.2 Z" fill="black" />
<path d="M 19.5,126.7 L 22.7,128.4 23.3,121.2 Z" fill="black" />
<path d="M 82.8,41.7 L 82.8,146.2 70.8,152.2 70.8,35.7 Z" fill="black" />
<path d="M 76.8,41.7 L 104,41.7 104,45.7 76.8,45.7 Z" fill="black" />
<path d="M 109.5,43.7 L 109.5,140.2 98.5,145.7 98.5,43.7 Z" fill="black" />
<path d="M 98.5,41.7 L 104,36.7 114.5,45.7 109.5,49.2 98.5,43.7 Z" fill="black" />
<path d="M 76.8,130.2 L 104,130.2 104,134.2 76.8,134.2 Z" fill="black" />
<path d="M 158,16.8 Q 149,40.7 137.6,59 Q 125,79.3 108.7,93.6 L 107.4,92.3 Q 121,73.3 130.2,54.8 Q 141,33.7 146.6,13 Z" fill="black" />
<path d="M 146.3,14 L 158,16.8 147.1,11.5 Z" fill="black" />
<path d="M 158,16.8 L 160.2,19.6 154.5,20.9 Z" fill="black" />
<path d="M 150.6,22.4 Q 161.7,37.7 170.8,49.2 Q 181.2,61.9 191.4,70.2 L 182.3,79.7 Q 171.2,67.9 163.2,54.6 Q 153.7,39.7 149,23.2 Z" fill="black" />
<path d="M 182.3,79.7 L 191.4,70.2 193.1,71.8 Z" fill="black" />
<path d="M 128.2,82 L 172.3,82 172.3,86 128.2,86 Z" fill="black" />
<path d="M 172.3,82 L 152.3,84 162.3,73 Z" fill="black" />
<path d="M 131.4,109 L 131.4,182 120.4,187.5 120.4,103.5 Z" fill="black" />
<path d="M 125.9,109 L 173.7,109 173.7,113 125.9,113 Z" fill="black" />
<path d="M 179.7,111 L 179.7,176 167.7,182 167.7,111 Z" fill="black" />
<path d="M 167.7,109 L 173.7,104 184.7,113 179.7,117 167.7,111 Z" fill="black" />
<path d="M 125.9,166 L 173.7,166 173.7,170 125.9,170 Z" fill="black" />
</svg>
