<svg xmlns="http://www.w3.org/2000/svg" xmlns:xlink="http://www.w3.org/1999/xlink" version="1.1" baseProfile="full" viewBox="0 0 200 200" width="200" height="200">
<path d="M 14.3,53 L 77.4,53 77.4,57 14.3,57 Z" fill="black" />
<path d="M 77.4,53 L 53.4,55 65.4,43 Z" fill="black" />
<path d="M 51.5,16 L 51.5,171 39.5,171 39.5,14 Z" fill="black" />
<path d="M 51.5,16 L 54.5,18 49.5,21 Z" fill="black" />
<path d="M 39.5,171 Q 40.1,176.4 45.5,177 Q 50.9,176.4 51.5,171 Z" fill="black" />
<path d="M 51.5,171 Q 51.5,177.9 47.2,182.7 Q 42,187.5 35.5,187 L 35.5,175 Q 39,174.5 38.7,174.2 Q 39.5,173.9 39.5,171 Z" fill="black" />
<path d="M 35.5,181 L 35.5,175 21.5,175 21.5,178 Z" fill="black" />
<path d="M 13.4,116.1 Q 30.1,109.3 45.2,102.8 Q 61.8,95.5 76.9,90.2 L 77.8,91.7 Q 62.8,102.5 49,110.4 Q 33.1,119.3 18.4,127 Z" fill="black" />
<path d="M 18.4,127 L 13.4,116.1 11.6,116.9 Z" fill="black" />
<path d="M 18.4,127 L 21.5,128.9 22.6,121.8 Z" fill="black" />
<path d="M 129.2,24.9 Q 120.3,29.9 110.9,33.3 Q 100.4,37.6 89.3,39.1 L 88.6,37.4 Q 99.4,30.6 107.1,25.7 Q 116.3,19.9 122.6,14.9 Z" fill="black" />
<path d="M 121.8,15.4 L 129.2,24.9 130,24.4 Z" fill="black" />
<path d="M 130,24.4 L 130.2,27.9 124.6,25.6 Z" fill="black" />
<path d="M 95,36.3 L 95,116 83,122 83,30.3 Z" fill="black" />
<path d="M 89,65.8 L 127.4,65.8 127.4,69.8 89,69.8 Z" fill="black" />
<path d="M 127.4,65.8 L 107.4,67.8 117.4,56.8 Z" fill="black" />
<path d="M 136.2,31.5 L 170,31.5 170,35.5 136.2,35.5 Z" fill="black" />
<path d="M 176,33.5 L 176,110 164,116 164,33.5 Z" fill="black" />
<path d="M 164,31.5 L 170,26.5 181,35.5 176,39.5 164,33.5 Z" fill="black" />
<path d="M 135.5,65.8 L 170,65.8 170,69.8 135.5,69.8 Z" fill="black" />
<path d="M 89,100 L 170,100 170,104 89,104 Z" fill="black" />
<path d="M 80.2,135.5 L 178.7,135.5 178.7,139.5 80.2,139.5 Z" fill="black" />
<path d="M 178.7,135.5 L 154.7,137.5 166.7,125.5 Z" fill="black" />
<path d="M 135.5,112.1 L 135.5,175.8 123.5,175.8 123.5,110.1 Z" fill="black" />
<path d="M 135.5,112.1 L 138.5,114.1 133.5,117.1 Z" fill="black" />
<path d="M 71.4,171.8 L 187.5,171.8 187.5,175.8 71.4,175.8 Z" fill="black" />
<path d="M 187.5,171.8 L 163.5,173.8 175.5,161.8 Z" fill="black" />
</svg>
