<svg xmlns="http://www.w3.org/2000/svg" xmlns:xlink="http://www.w3.org/1999/xlink" version="1.1" baseProfile="full" viewBox="0 0 200 200" width="200" height="200">
<path d="M 11.4,59 L 79.2,59 79.2,63 11.4,63 Z" fill="black" />
<path d="M 79.2,59 L 55.2,61 67.2,49 Z" fill="black" />
<path d="M 52.6,16 L 52.6,183 40.6,189 40.6,14 Z" fill="black" />
<path d="M 52.6,16 L 55.6,18 50.6,21 Z" fill="black" />
<path d="M 49.9,62 Q 44.1,88.2 35.4,108.7 Q 25.9,131.8 12.2,148.4 L 10.6,147.5 Q 20.9,125.8 27.4,105.7 Q 35.1,82.2 38,59.9 Z" fill="black" />
<path d="M 49.6,85.6 Q 59.1,87.1 65.9,91.9 Q 73.1,96.6 78.2,103.2 L 68.1,109.7 Q 65.1,103.6 60.4,98.4 Q 55.1,93.1 48.9,87.2 Z" fill="black" />
<path d="M 78.2,103.2 Q 80.6,108 76.4,111.5 Q 71.5,113.9 68.1,109.7 Z" fill="black" />
<path d="M 84.4,16.8 L 151.4,16.8 151.4,20.8 84.4,20.8 Z" fill="black" />
<path d="M 156.7,19.8 L 150.1,41.2 136.8,43 145.1,18.8 Z" fill="black" />
<path d="M 145.4,16.8 L 151.4,11.8 162.4,20.8 157.4,23.8 145.4,28.8 Z" fill="black" />
<path d="M 145.1,35.4 L 171.9,35.4 171.9,39.4 145.1,39.4 Z" fill="black" />
<path d="M 177.8,38 Q 176.8,47.9 175.7,53.4 Q 175.3,58.5 172,62.8 L 163.7,54.1 Q 162.3,56.5 163.9,51.2 Q 164.8,45.9 165.9,36.7 Z" fill="black" />
<path d="M 165.9,35.4 L 171.9,30.4 182.9,39.4 177.9,42.4 165.9,47.4 Z" fill="black" />
<path d="M 172,62.8 Q 167.6,66.1 163.5,62.6 Q 160.2,58.2 163.7,54.1 Z" fill="black" />
<path d="M 172,62.8 Q 167.3,67.3 162.1,69.2 Q 156.1,71.3 150.6,71.3 L 150.6,59.3 Q 155.1,59.3 157.7,58 Q 161.3,56.3 163.7,54.1 Z" fill="black" />
<path d="M 150.6,65.3 L 150.6,59.3 130.6,59.3 130.6,62.3 Z" fill="black" />
<path d="M 127.7,19.9 Q 122.8,40.4 110.1,52.2 Q 96.4,65.1 77,68.8 L 76.4,67.1 Q 95.4,58.1 103.9,46.5 Q 113.8,33.4 115.9,17.6 Z" fill="black" />
<path d="M 96.6,75.5 L 96.6,118.6 84.6,124.6 84.6,69.5 Z" fill="black" />
<path d="M 90.6,75.5 L 167.3,75.5 167.3,79.5 90.6,79.5 Z" fill="black" />
<path d="M 173.3,77.5 L 173.3,118.6 161.3,124.6 161.3,77.5 Z" fill="black" />
<path d="M 161.3,75.5 L 167.3,70.5 178.3,79.5 173.3,83.5 161.3,77.5 Z" fill="black" />
<path d="M 90.6,94.5 L 167.3,94.5 167.3,98.5 90.6,98.5 Z" fill="black" />
<path d="M 90.6,114.6 L 167.3,114.6 167.3,118.6 90.6,118.6 Z" fill="black" />
<path d="M 88.1,132 L 162.3,132 162.3,136 88.1,136 Z" fill="black" />
<path d="M 165.9,138.9 Q 160,142.2 151.9,145.3 Q 143,149.2 130.7,152 L 129.9,150.3 Q 141,142.2 147.9,137.8 Q 156,132.2 158.8,129.2 Z" fill="black" />
<path d="M 156.3,132 L 162.3,127 173.3,136 168.3,139 156.3,144 Z" fill="black" />
<path d="M 135,149.7 L 135,177.9 123,177.9 123,147.7 Z" fill="black" />
<path d="M 135,149.7 L 138,151.7 133,154.7 Z" fill="black" />
<path d="M 123,177.9 Q 123.6,183.3 129,183.9 Q 134.4,183.3 135,177.9 Z" fill="black" />
<path d="M 135,177.9 Q 135,184.9 130.7,189.7 Q 125.5,194.4 119,193.9 L 119,181.9 Q 122.5,181.4 122.2,181.2 Q 123,180.9 123,177.9 Z" fill="black" />
<path d="M 119,187.9 L 119,181.9 99,181.9 99,184.9 Z" fill="black" />
<path d="M 70.3,157.4 L 187.6,157.4 187.6,161.4 70.3,161.4 Z" fill="black" />
<path d="M 187.6,157.4 L 163.6,159.4 175.6,147.4 Z" fill="black" />
</svg>
