<svg xmlns="http://www.w3.org/2000/svg" xmlns:xlink="http://www.w3.org/1999/xlink" version="1.1" baseProfile="full" viewBox="0 0 200 200" width="200" height="200">
<path d="M 8.7,59 L 60.7,59 60.7,63 8.7,63 Z" fill="black" />
<path d="M 60.7,59 L 44.7,61 52.7,52 Z" fill="black" />
<path d="M 41.7,16 L 41.7,183 29.7,189 29.7,14 Z" fill="black" />
<path d="M 41.7,16 L 44.7,18 39.7,21 Z" fill="black" />
<path d="M 39.6,61.8 Q 35.4,87.7 28.2,108.4 Q 20.4,131.3 9.5,148.3 L 7.9,147.6 Q 15.4,126.3 20,106 Q 25.4,82.7 27.8,60.1 Z" fill="black" />
<path d="M 38.4,85.7 Q 46.4,87.7 51.6,92.3 Q 57.4,97.5 61.4,103.6 L 50.6,108.9 Q 48.4,102.5 45.3,98 Q 41.4,92.7 37.4,87.2 Z" fill="black" />
<path d="M 61.4,103.6 Q 63.2,108.7 58.7,111.6 Q 53.6,113.5 50.6,108.9 Z" fill="black" />
<path d="M 67,23.4 L 94.6,23.4 94.6,27.4 67,27.4 Z" fill="black" />
<path d="M 99.6,25.4 L 99.6,75.2 89.6,80.2 89.6,25.4 Z" fill="black" />
<path d="M 89.6,23.4 L 94.6,18.4 104.6,27.4 99.6,30.4 89.6,25.4 Z" fill="black" />
<path d="M 70,65.2 L 94.6,65.2 94.6,69.2 70,69.2 Z" fill="black" />
<path d="M 76.1,65.4 L 73.7,124.3 61.5,129.8 64.4,59 Z" fill="black" />
<path d="M 68.3,108 L 96.1,108 96.1,112 68.3,112 Z" fill="black" />
<path d="M 102.1,110.2 Q 101.6,136.4 100.5,151.1 Q 99.4,167.3 97.5,174.1 L 86,170.9 Q 87.4,165.3 88.5,150.3 Q 89.6,133.4 90.1,109.9 Z" fill="black" />
<path d="M 90.1,108 L 96.1,103 107.1,112 102.1,115 90.1,120 Z" fill="black" />
<path d="M 97.5,174.1 Q 95.6,179.1 90.2,178.3 Q 85.1,176.3 86,170.9 Z" fill="black" />
<path d="M 97.5,174.1 Q 96,180.8 90.9,184.5 Q 85.2,188.1 79.1,188.1 L 79.1,176.1 Q 83.2,176.1 83.6,175 Q 85,173.8 86,170.9 Z" fill="black" />
<path d="M 79.1,182.1 L 79.1,176.1 67.1,176.1 67.1,179.1 Z" fill="black" />
<path d="M 154.6,23.4 L 182.2,23.4 182.2,27.4 154.6,27.4 Z" fill="black" />
<path d="M 188.2,25.4 L 188.2,75.2 176.2,81.2 176.2,25.4 Z" fill="black" />
<path d="M 176.2,23.4 L 182.2,18.4 193.2,27.4 188.2,31.4 176.2,25.4 Z" fill="black" />
<path d="M 157.6,65.2 L 182.2,65.2 182.2,69.2 157.6,69.2 Z" fill="black" />
<path d="M 163.7,65.4 L 161.3,124.3 149.1,129.8 152,59 Z" fill="black" />
<path d="M 155.9,108 L 183.7,108 183.7,112 155.9,112 Z" fill="black" />
<path d="M 189.7,110.2 Q 189.2,136.4 188.1,151.1 Q 187,167.3 185.1,174.1 L 173.6,170.9 Q 175,165.3 176.1,150.3 Q 177.2,133.4 177.7,109.9 Z" fill="black" />
<path d="M 177.7,108 L 183.7,103 194.7,112 189.7,115 177.7,120 Z" fill="black" />
<path d="M 185.1,174.1 Q 183.2,179.1 177.8,178.3 Q 172.7,176.3 173.6,170.9 Z" fill="black" />
<path d="M 185.1,174.1 Q 183.6,180.8 178.5,184.5 Q 172.8,188.1 166.7,188.1 L 166.7,176.1 Q 170.8,176.1 171.2,175 Q 172.6,173.8 173.6,170.9 Z" fill="black" />
<path d="M 166.7,182.1 L 166.7,176.1 146.7,176.1 146.7,179.1 Z" fill="black" />
<path d="M 103.8,27.4 L 150.1,27.4 150.1,31.4 103.8,31.4 Z" fill="black" />
<path d="M 150.1,27.4 L 130.1,29.4 140.1,18.4 Z" fill="black" />
<path d="M 133.4,30.3 Q 131.2,39.6 128.7,47.1 Q 126,55.3 122,61.9 L 120.3,61.5 Q 120,53.3 120.4,45.5 Q 121.2,36.6 121.5,28.5 Z" fill="black" />
<path d="M 117,59.7 L 117,180.6 107,185.6 107,54.7 Z" fill="black" />
<path d="M 112,59.7 L 141.9,59.7 141.9,63.7 112,63.7 Z" fill="black" />
<path d="M 147.9,61.7 L 147.9,174.6 135.9,180.6 135.9,61.7 Z" fill="black" />
<path d="M 135.9,59.7 L 141.9,54.7 152.9,63.7 147.9,67.7 135.9,61.7 Z" fill="black" />
<path d="M 112,110.7 L 141.9,110.7 141.9,114.7 112,114.7 Z" fill="black" />
<path d="M 112,164.6 L 141.9,164.6 141.9,168.6 112,168.6 Z" fill="black" />
</svg>
