<svg xmlns="http://www.w3.org/2000/svg" xmlns:xlink="http://www.w3.org/1999/xlink" version="1.1" baseProfile="full" viewBox="0 0 200 200" width="200" height="200">
<path d="M 9.6,59 L 67,59 67,63 9.6,63 Z" fill="black" />
<path d="M 67,59 L 47,61 57,50 Z" fill="black" />
<path d="M 45.4,16 L 45.4,183 33.4,189 33.4,14 Z" fill="black" />
<path d="M 45.4,16 L 48.4,18 43.4,21 Z" fill="black" />
<path d="M 43.1,61.9 Q 38.5,87.7 30.6,108.5 Q 22.3,131.3 10.4,148.4 L 8.8,147.5 Q 17.3,126.3 22.5,105.9 Q 28.5,82.7 31.3,60 Z" fill="black" />
<path d="M 42.2,85.7 Q 50.9,87.7 56.4,92.2 Q 62.9,97.1 67.1,103.4 L 56.6,109.2 Q 53.9,103.1 50.5,98.2 Q 45.9,92.7 41.4,87.2 Z" fill="black" />
<path d="M 67.1,103.4 Q 69.2,108.5 64.7,111.6 Q 59.7,113.6 56.6,109.2 Z" fill="black" />
<path d="M 117.3,24.2 Q 108.2,35.8 97.8,44.9 Q 86.6,54.9 73.5,61.7 L 72.4,60.2 Q 83.6,48.9 91.8,38.9 Q 101.2,27.8 107.5,17.3 Z" fill="black" />
<path d="M 106.9,18.2 L 117.3,24.2 107.9,16.6 Z" fill="black" />
<path d="M 117.3,24.2 L 118.6,27.6 112.8,27.2 Z" fill="black" />
<path d="M 141.3,18.7 Q 152.3,22.1 160.3,29.2 Q 169.1,36.6 175.6,46.3 L 165.3,52.4 Q 160.1,42.6 154.3,35.2 Q 147.3,27.1 140.4,20.2 Z" fill="black" />
<path d="M 175.6,46.3 Q 177.8,51.3 173.5,54.5 Q 168.5,56.8 165.3,52.4 Z" fill="black" />
<path d="M 101,92 L 155,92 155,96 101,96 Z" fill="black" />
<path d="M 155,92 L 131,94 143,82 Z" fill="black" />
<path d="M 81,119 L 174,119 174,123 81,123 Z" fill="black" />
<path d="M 174,119 L 150,121 162,109 Z" fill="black" />
<path d="M 134,92 L 134,180 122,180 122,92 Z" fill="black" />
<path d="M 96.2,133.3 Q 103.2,138.8 106.4,146.2 Q 110.7,153.9 112.4,162.1 L 100.6,163.9 Q 99.7,155.9 98.5,149.2 Q 96.2,141.8 94.7,134.3 Z" fill="black" />
<path d="M 112.4,162.1 Q 112.7,167.5 107.4,168.9 Q 102,169.2 100.6,163.9 Z" fill="black" />
<path d="M 163.4,135.7 Q 159.3,145.3 155.1,154.2 Q 150.5,164.3 143.8,173.3 L 142.1,172.6 Q 144.5,160.3 147.2,151.2 Q 150.3,140.3 151.9,132.1 Z" fill="black" />
<path d="M 151.6,133.1 L 163.4,135.7 152.4,130.6 Z" fill="black" />
<path d="M 163.4,135.7 L 165.6,138.5 160,139.9 Z" fill="black" />
<path d="M 71,176 L 186,176 186,180 71,180 Z" fill="black" />
<path d="M 186,176 L 162,178 174,166 Z" fill="black" />
<path d="M 135.5,49.2 Q 122.8,69.6 107.1,82.5 Q 89.9,97 70.7,103.6 L 69.9,102 Q 88.9,90 101.3,76.3 Q 115.8,60.6 125.1,43.2 Z" fill="black" />
<path d="M 124.6,44 L 135.5,49.2 125.6,42.2 Z" fill="black" />
<path d="M 135.5,49.2 L 137.1,52.4 131.2,52.5 Z" fill="black" />
<path d="M 129.4,47.7 Q 143.9,62.9 156.4,72.5 Q 170.5,83 184.6,88.3 L 179.3,100.3 Q 162.5,92 150.3,79.6 Q 135.9,65.9 128,48.8 Z" fill="black" />
<path d="M 179.3,100.3 L 184.6,88.3 190.7,90.9 Z" fill="black" />
</svg>
