<svg xmlns="http://www.w3.org/2000/svg" xmlns:xlink="http://www.w3.org/1999/xlink" version="1.1" baseProfile="full" viewBox="0 0 200 200" width="200" height="200">
<path d="M 10.9,59 L 76,59 76,63 10.9,63 Z" fill="black" />
<path d="M 76,59 L 52,61 64,49 Z" fill="black" />
<path d="M 50.7,16 L 50.7,183 38.7,189 38.7,14 Z" fill="black" />
<path d="M 50.7,16 L 53.7,18 48.7,21 Z" fill="black" />
<path d="M 48.1,62 Q 42.5,88.2 34.2,108.6 Q 25,131.8 11.7,148.4 L 10.2,147.5 Q 20,125.8 26.2,105.8 Q 33.5,82.2 36.3,59.9 Z" fill="black" />
<path d="M 47.7,85.6 Q 56.8,87.1 63.4,92 Q 70.8,97.1 75.3,103.2 L 65.1,109.6 Q 61.8,103.1 57.8,98.4 Q 52.8,93.1 46.9,87.2 Z" fill="black" />
<path d="M 75.3,103.2 Q 77.6,108.1 73.4,111.5 Q 68.4,113.8 65.1,109.6 Z" fill="black" />
<path d="M 140.9,14 L 140.9,45 128.9,45 128.9,12 Z" fill="black" />
<path d="M 140.9,14 L 143.9,16 138.9,19 Z" fill="black" />
<path d="M 87.6,41 L 190.4,41 190.4,45 87.6,45 Z" fill="black" />
<path d="M 190.4,41 L 166.4,43 178.4,31 Z" fill="black" />
<path d="M 93.6,41 L 93.6,104 81.6,104 81.6,35 Z" fill="black" />
<path d="M 81.6,104 Q 82.2,109.4 87.6,110 Q 93,109.4 93.6,104 Z" fill="black" />
<path d="M 93.6,104 Q 92.6,134.2 87.3,154.6 Q 81.3,177.3 70.6,189.4 L 69,188.5 Q 76.3,172.3 79,152.8 Q 82.6,130.2 81.6,104 Z" fill="black" />
<path d="M 124.2,57.3 L 124.2,108 112.2,114 112.2,55.3 Z" fill="black" />
<path d="M 124.2,57.3 L 127.2,59.3 122.2,62.3 Z" fill="black" />
<path d="M 163.3,57.3 L 163.3,107 151.3,113 151.3,55.3 Z" fill="black" />
<path d="M 163.3,57.3 L 166.3,59.3 161.3,62.3 Z" fill="black" />
<path d="M 91.7,72.2 L 185.5,72.2 185.5,76.2 91.7,76.2 Z" fill="black" />
<path d="M 185.5,72.2 L 165.5,74.2 175.5,63.2 Z" fill="black" />
<path d="M 118.2,101 L 157.3,101 157.3,105 118.2,105 Z" fill="black" />
<path d="M 103.2,121.2 L 162.7,121.2 162.7,125.2 103.2,125.2 Z" fill="black" />
<path d="M 168.1,125.7 Q 153.6,155.6 133.6,171.1 Q 111.5,188.4 86.4,190.1 L 86.1,188.4 Q 112.5,180.4 128.1,164.7 Q 146.6,146.6 157.2,120.7 Z" fill="black" />
<path d="M 156.7,121.2 L 162.7,116.2 173.7,125.2 168.7,128.2 156.7,133.2 Z" fill="black" />
<path d="M 117.7,125.1 Q 126,148.5 140.8,159.3 Q 157.4,170.9 182.8,173.1 L 181.3,186.2 Q 150.4,181.9 134.9,166.4 Q 117,149.5 115.9,125.4 Z" fill="black" />
<path d="M 181.3,186.2 L 182.8,173.1 193.2,174.3 Z" fill="black" />
</svg>
