<svg xmlns="http://www.w3.org/2000/svg" xmlns:xlink="http://www.w3.org/1999/xlink" version="1.1" baseProfile="full" viewBox="0 0 200 200" width="200" height="200">
<path d="M 12.1,59 L 84.1,59 84.1,63 12.1,63 Z" fill="black" />
<path d="M 84.1,59 L 60.1,61 72.1,49 Z" fill="black" />
<path d="M 55.5,16 L 55.5,183 43.5,189 43.5,14 Z" fill="black" />
<path d="M 55.5,16 L 58.5,18 53.5,21 Z" fill="black" />
<path d="M 52.6,62.1 Q 46.6,88.2 37.3,108.8 Q 26.9,131.8 12.9,148.4 L 11.4,147.5 Q 22.9,125.8 29.4,105.6 Q 37.6,82.2 40.8,59.8 Z" fill="black" />
<path d="M 52.7,85.5 Q 62.6,87.1 69.7,91.9 Q 77.4,96.7 82.7,103.1 L 72.8,109.9 Q 69.4,103.7 64.4,98.5 Q 58.6,93.1 51.9,87.2 Z" fill="black" />
<path d="M 82.7,103.1 Q 85.2,107.9 81.1,111.4 Q 76.3,114 72.8,109.9 Z" fill="black" />
<path d="M 143,15 L 143,47 131,47 131,13 Z" fill="black" />
<path d="M 143,15 L 146,17 141,20 Z" fill="black" />
<path d="M 94.4,33.3 Q 97.3,50.3 96.1,60.5 Q 95.1,71.9 90.5,78.4 L 81.7,70.2 Q 85.1,67.9 87.8,59 Q 90.3,48.3 92.6,33.4 Z" fill="black" />
<path d="M 90.5,78.4 Q 86.3,81.9 82,78.6 Q 78.4,74.5 81.7,70.2 Z" fill="black" />
<path d="M 94.1,43.9 L 184.8,43.9 184.8,47.9 94.1,47.9 Z" fill="black" />
<path d="M 190.5,47.8 Q 187.5,53.7 183.7,60.2 Q 179.7,67.6 173,75 L 171.4,74.3 Q 173.7,63.6 175.9,56.7 Q 178.5,48.7 179.2,43.9 Z" fill="black" />
<path d="M 178.8,43.9 L 184.8,38.9 195.8,47.9 190.8,50.9 178.8,55.9 Z" fill="black" />
<path d="M 102.3,76 L 171.6,76 171.6,80 102.3,80 Z" fill="black" />
<path d="M 171.6,76 L 147.6,78 159.6,66 Z" fill="black" />
<path d="M 83.4,118 L 190.5,118 190.5,122 83.4,122 Z" fill="black" />
<path d="M 190.5,118 L 166.5,120 178.5,108 Z" fill="black" />
<path d="M 143,76 L 143,172 131,172 131,76 Z" fill="black" />
<path d="M 131,172 Q 131.6,177.4 137,178 Q 142.4,177.4 143,172 Z" fill="black" />
<path d="M 143,172 Q 143,178.9 138.7,183.7 Q 133.5,188.5 127,188 L 127,176 Q 130.5,175.5 130.2,175.2 Q 131,174.9 131,172 Z" fill="black" />
<path d="M 127,182 L 127,176 111,176 111,179 Z" fill="black" />
</svg>
