<svg xmlns="http://www.w3.org/2000/svg" xmlns:xlink="http://www.w3.org/1999/xlink" version="1.1" baseProfile="full" viewBox="0 0 200 200" width="200" height="200">
<path d="M 11.1,59 L 76.9,59 76.9,63 11.1,63 Z" fill="black" />
<path d="M 76.9,59 L 52.9,61 64.9,49 Z" fill="black" />
<path d="M 51.3,16 L 51.3,183 39.3,189 39.3,14 Z" fill="black" />
<path d="M 51.3,16 L 54.3,18 49.3,21 Z" fill="black" />
<path d="M 48.6,62 Q 43,88.2 34.5,108.6 Q 25.2,131.8 11.8,148.4 L 10.3,147.5 Q 20.2,125.8 26.5,105.8 Q 34,82.2 36.8,59.9 Z" fill="black" />
<path d="M 48.3,85.6 Q 57.5,87.1 64.1,92 Q 71.6,97.1 76.1,103.2 L 65.9,109.6 Q 62.6,103.1 58.6,98.4 Q 53.5,93.1 47.5,87.2 Z" fill="black" />
<path d="M 76.1,103.2 Q 78.5,108.1 74.2,111.5 Q 69.3,113.9 65.9,109.6 Z" fill="black" />
<path d="M 121.6,19.1 Q 116.4,40.2 107.2,56.6 Q 97.1,74.8 82.6,87.5 L 81.3,86.4 Q 93.1,68.8 99.6,52.8 Q 107.4,34.2 109.9,16.8 Z" fill="black" />
<path d="M 109.7,17.7 L 121.6,19.1 110.2,14.9 Z" fill="black" />
<path d="M 121.6,19.1 L 124.2,21.7 118.7,23.6 Z" fill="black" />
<path d="M 105,38 L 183,38 183,42 105,42 Z" fill="black" />
<path d="M 183,38 L 159,40 171,28 Z" fill="black" />
<path d="M 166.1,45.2 Q 153.9,70.2 133,85.3 Q 109.8,101.9 79.2,107.8 L 78.7,106.1 Q 110.8,93.9 127.7,78.6 Q 147.9,61.2 155,40.5 Z" fill="black" />
<path d="M 154.6,41.4 L 166.1,45.2 155.6,39.3 Z" fill="black" />
<path d="M 166.1,45.2 L 168.1,48.2 162.3,49 Z" fill="black" />
<path d="M 113.1,39.7 Q 122.5,59.2 137.4,71 Q 154.7,84.4 179.1,91.7 L 174.8,104.2 Q 145.7,93.4 131.2,77.9 Q 113.5,60.2 111.4,40.2 Z" fill="black" />
<path d="M 174.8,104.2 L 179.1,91.7 186.4,94.2 Z" fill="black" />
<path d="M 83,119 L 185,119 185,123 83,123 Z" fill="black" />
<path d="M 185,119 L 161,121 173,109 Z" fill="black" />
<path d="M 138,97 L 138,182 126,188 126,95 Z" fill="black" />
<path d="M 138,97 L 141,99 136,102 Z" fill="black" />
<path d="M 132.4,123.4 Q 122.5,142.8 107.7,156.2 Q 91.2,170.8 70.4,178.8 L 69.5,177.1 Q 90.2,163.8 101.7,150.2 Q 115.5,134.8 121.5,118.5 Z" fill="black" />
<path d="M 139.2,121.4 Q 150.6,135.2 160.8,145.8 Q 172.3,157.4 184.7,164.5 L 177.2,175.4 Q 163.3,164.4 153.8,152 Q 142.6,138.2 137.6,122.3 Z" fill="black" />
<path d="M 177.2,175.4 L 184.7,164.5 188.2,166.9 Z" fill="black" />
</svg>
