<svg xmlns="http://www.w3.org/2000/svg" xmlns:xlink="http://www.w3.org/1999/xlink" version="1.1" baseProfile="full" viewBox="0 0 200 200" width="200" height="200">
<path d="M 9.4,59 L 65.7,59 65.7,63 9.4,63 Z" fill="black" />
<path d="M 65.7,59 L 45.7,61 55.7,50 Z" fill="black" />
<path d="M 44.6,16 L 44.6,183 32.6,189 32.6,14 Z" fill="black" />
<path d="M 44.6,16 L 47.6,18 42.6,21 Z" fill="black" />
<path d="M 42.4,61.8 Q 37.8,87.7 30.1,108.5 Q 21.9,131.3 10.2,148.4 L 8.6,147.5 Q 16.9,126.3 22,105.9 Q 27.8,82.7 30.5,60.1 Z" fill="black" />
<path d="M 41.4,85.7 Q 49.9,87.7 55.4,92.2 Q 61.7,97.1 65.9,103.5 L 55.3,109.1 Q 52.7,103.1 49.4,98.1 Q 44.9,92.7 40.5,87.2 Z" fill="black" />
<path d="M 65.9,103.5 Q 67.9,108.5 63.4,111.6 Q 58.4,113.6 55.3,109.1 Z" fill="black" />
<path d="M 65.8,34 L 129.6,34 129.6,38 65.8,38 Z" fill="black" />
<path d="M 129.6,34 L 105.6,36 117.6,24 Z" fill="black" />
<path d="M 103,13.9 L 103,61.1 91,61.1 91,11.9 Z" fill="black" />
<path d="M 103,13.9 L 106,15.9 101,18.9 Z" fill="black" />
<path d="M 73.1,57.1 L 125.3,57.1 125.3,61.1 73.1,61.1 Z" fill="black" />
<path d="M 125.3,57.1 L 105.3,59.1 115.3,48.1 Z" fill="black" />
<path d="M 72.7,69.1 Q 76.7,76 76.7,81.7 Q 76.9,88.2 73.8,93.4 L 64.4,86 Q 66.9,84.2 68.3,80.6 Q 69.7,76 70.9,69.4 Z" fill="black" />
<path d="M 73.8,93.4 Q 70,97.3 65.4,94.4 Q 61.5,90.6 64.4,86 Z" fill="black" />
<path d="M 72.4,74.9 L 120.2,74.9 120.2,78.9 72.4,78.9 Z" fill="black" />
<path d="M 125.7,79.3 Q 123.3,82.6 120.8,85.9 Q 118.1,89.5 113.8,93.1 L 112.1,92.3 Q 112.1,86.5 113.1,82.4 Q 114.3,77.6 114.7,74.5 Z" fill="black" />
<path d="M 114.2,74.9 L 120.2,69.9 131.2,78.9 126.2,81.9 114.2,86.9 Z" fill="black" />
<path d="M 68.7,114.5 L 125.3,114.5 125.3,118.5 68.7,118.5 Z" fill="black" />
<path d="M 125.3,114.5 L 101.3,116.5 113.3,104.5 Z" fill="black" />
<path d="M 148.3,19.4 L 148.3,37.3 136.3,37.3 136.3,13.4 Z" fill="black" />
<path d="M 136.3,37.3 Q 136.9,42.7 142.3,43.3 Q 147.7,42.7 148.3,37.3 Z" fill="black" />
<path d="M 148.3,37.3 Q 147.3,48.4 141.6,56.5 Q 135.5,65.3 125.2,69.7 L 124.1,68.2 Q 131.5,59.3 134.1,52.4 Q 137.3,44.4 136.3,37.3 Z" fill="black" />
<path d="M 142.3,19.4 L 168.4,19.4 168.4,23.4 142.3,23.4 Z" fill="black" />
<path d="M 174.4,21.4 L 174.4,47.7 162.4,47.7 162.4,21.4 Z" fill="black" />
<path d="M 162.4,19.4 L 168.4,14.4 179.4,23.4 174.4,27.4 162.4,21.4 Z" fill="black" />
<path d="M 162.4,47.7 Q 163,53.1 168.4,53.7 Q 173.8,53.1 174.4,47.7 Z" fill="black" />
<path d="M 174.4,47.7 Q 174.9,51.2 175.2,51 Q 175.4,51.7 178.4,51.7 L 178.4,63.7 Q 171.4,63.7 166.7,59.5 Q 161.9,54.2 162.4,47.7 Z" fill="black" />
<path d="M 178.4,53.2 Q 182.5,53.7 182.9,57.7 Q 182.5,61.8 178.4,62.2 Z" fill="black" />
<path d="M 178.4,53.2 L 186.6,53.2 186.6,62.2 178.4,62.2 Z" fill="black" />
<path d="M 186.6,53.2 Q 190.7,53.7 191.1,57.7 Q 190.7,61.8 186.6,62.2 Z" fill="black" />
<path d="M 186.6,54.2 L 188.6,40.2 186.6,40.2 182.1,54.2 Z" fill="black" />
<path d="M 132,70.3 L 174.7,70.3 174.7,74.3 132,74.3 Z" fill="black" />
<path d="M 180.5,74 Q 172.2,98.1 157.2,111.1 Q 140.5,125.2 119.1,127.9 L 118.7,126.2 Q 140.5,118.2 151.2,105 Q 164.2,90.1 168.9,70.5 Z" fill="black" />
<path d="M 168.7,70.3 L 174.7,65.3 185.7,74.3 180.7,77.3 168.7,82.3 Z" fill="black" />
<path d="M 140.5,73.1 Q 148,91.8 158.1,101.1 Q 169.7,111.1 185.9,114 L 182.9,126.9 Q 161.7,121.1 151.3,107.6 Q 139,92.8 138.7,73.4 Z" fill="black" />
<path d="M 182.9,126.9 L 185.9,114 194.6,116 Z" fill="black" />
<path d="M 82.7,136.3 Q 85.6,151.6 83.4,161.4 Q 81,172.7 74,179.1 L 66.7,169.6 Q 72,166.7 75.2,159 Q 78.6,149.6 80.9,136.4 Z" fill="black" />
<path d="M 74,179.1 Q 69.4,181.9 65.6,178 Q 62.8,173.3 66.7,169.6 Z" fill="black" />
<path d="M 108.8,137.2 L 108.8,169.6 96.8,169.6 96.8,135.2 Z" fill="black" />
<path d="M 108.8,137.2 L 111.8,139.2 106.8,142.2 Z" fill="black" />
<path d="M 96.8,169.6 Q 97.4,175 102.8,175.6 Q 108.2,175 108.8,169.6 Z" fill="black" />
<path d="M 108.8,169.6 Q 109.3,173 109.5,172.8 Q 109.8,173.6 112.8,173.6 L 112.8,185.6 Q 105.8,185.6 101.1,181.3 Q 96.3,176 96.8,169.6 Z" fill="black" />
<path d="M 112.8,173.6 Q 118.2,174.2 118.8,179.6 Q 118.2,185 112.8,185.6 Z" fill="black" />
<path d="M 112.8,173.6 L 161.5,173.6 161.5,185.6 112.8,185.6 Z" fill="black" />
<path d="M 161.5,173.6 Q 166.9,174.2 167.5,179.6 Q 166.9,185 161.5,185.6 Z" fill="black" />
<path d="M 161.5,174.6 L 163.5,148.6 161.5,148.6 155.5,174.6 Z" fill="black" />
<path d="M 119.3,130.8 Q 128.1,133.1 133.9,138.3 Q 140.3,144.2 144.7,151.3 L 133.8,156.4 Q 131.3,149.2 127.7,144 Q 123.1,138.1 118.4,132.4 Z" fill="black" />
<path d="M 144.7,151.3 Q 146.4,156.5 141.8,159.3 Q 136.6,161.1 133.8,156.4 Z" fill="black" />
<path d="M 163.6,137 Q 174.3,142.1 180.1,149.6 Q 186.8,158.2 189.9,167.6 L 178.2,170.4 Q 176.8,161.2 173.1,154.3 Q 168.3,146.1 162.5,138.4 Z" fill="black" />
<path d="M 189.9,167.6 Q 190.5,173 185.4,174.8 Q 180,175.5 178.2,170.4 Z" fill="black" />
</svg>
