<svg xmlns="http://www.w3.org/2000/svg" xmlns:xlink="http://www.w3.org/1999/xlink" version="1.1" baseProfile="full" viewBox="0 0 200 200" width="200" height="200">
<path d="M 10.7,59 L 74.7,59 74.7,63 10.7,63 Z" fill="black" />
<path d="M 74.7,59 L 50.7,61 62.7,49 Z" fill="black" />
<path d="M 49.9,16 L 49.9,183 37.9,189 37.9,14 Z" fill="black" />
<path d="M 49.9,16 L 52.9,18 47.9,21 Z" fill="black" />
<path d="M 47.4,62 Q 41.8,88.2 33.6,108.6 Q 24.6,131.3 11.5,148.4 L 10,147.5 Q 19.6,126.3 25.6,105.8 Q 32.8,82.2 35.5,59.9 Z" fill="black" />
<path d="M 46.9,85.6 Q 55.9,87.1 62.4,92 Q 69.6,97.1 74.1,103.3 L 63.8,109.5 Q 60.6,103.1 56.7,98.3 Q 51.9,93.1 46.1,87.2 Z" fill="black" />
<path d="M 74.1,103.3 Q 76.4,108.2 72.1,111.5 Q 67.1,113.8 63.8,109.5 Z" fill="black" />
<path d="M 131.2,20.3 Q 127.7,23.8 124.2,26.7 Q 120.5,29.9 115.7,32.5 L 114.3,31.4 Q 115.5,25.9 117.4,21.6 Q 119.7,16.8 121.5,13.2 Z" fill="black" />
<path d="M 120.9,14 L 131.2,20.3 122,12.6 Z" fill="black" />
<path d="M 131.2,20.3 L 132.4,23.7 126.6,23.2 Z" fill="black" />
<path d="M 95.7,32 L 95.7,116 83.7,122 83.7,26 Z" fill="black" />
<path d="M 89.7,32 L 155.3,32 155.3,36 89.7,36 Z" fill="black" />
<path d="M 161.3,34 L 161.3,70 149.3,76 149.3,34 Z" fill="black" />
<path d="M 149.3,32 L 155.3,27 166.3,36 161.3,40 149.3,34 Z" fill="black" />
<path d="M 89.7,49 L 155.3,49 155.3,53 89.7,53 Z" fill="black" />
<path d="M 89.7,66 L 155.3,66 155.3,70 89.7,70 Z" fill="black" />
<path d="M 89.7,83 L 180.6,83 180.6,87 89.7,87 Z" fill="black" />
<path d="M 180.6,83 L 160.6,85 170.6,74 Z" fill="black" />
<path d="M 89.7,100 L 170.2,100 170.2,104 89.7,104 Z" fill="black" />
<path d="M 176.1,101.3 Q 176.9,108.9 176.3,114.3 Q 175.7,120.2 172.3,124.3 L 163.2,116.5 Q 163.7,116.2 164.3,112.8 Q 164.9,108.9 164.2,102.6 Z" fill="black" />
<path d="M 164.2,100 L 170.2,95 181.2,104 176.2,107 164.2,112 Z" fill="black" />
<path d="M 172.3,124.3 Q 168.3,128 163.8,124.9 Q 160.2,120.9 163.2,116.5 Z" fill="black" />
<path d="M 172.3,124.3 Q 168,129.1 162.8,131.5 Q 157.3,134 151.2,134 L 151.2,122 Q 155.3,122 157.9,120.6 Q 161,119.1 163.2,116.5 Z" fill="black" />
<path d="M 151.2,128 L 151.2,122 141.2,122 141.2,125 Z" fill="black" />
<path d="M 64.4,136 L 186.5,136 186.5,140 64.4,140 Z" fill="black" />
<path d="M 186.5,136 L 162.5,138 174.5,126 Z" fill="black" />
<path d="M 131.5,115 L 131.5,182 119.5,188 119.5,113 Z" fill="black" />
<path d="M 131.5,115 L 134.5,117 129.5,120 Z" fill="black" />
<path d="M 125.9,141.4 Q 114,156.8 98.3,166.7 Q 80.9,177.4 60.9,181.8 L 60.3,180.1 Q 80.9,170.4 93.4,159.7 Q 108,147.8 116,134.5 Z" fill="black" />
<path d="M 130.5,138.1 Q 144.1,148.7 156.9,156.3 Q 171.3,164.9 186.7,169.8 L 181.9,182.1 Q 164.3,173.9 151.7,164 Q 137.1,152.7 129.2,139.3 Z" fill="black" />
<path d="M 181.9,182.1 L 186.7,169.8 193.4,172.4 Z" fill="black" />
</svg>
