<svg xmlns="http://www.w3.org/2000/svg" xmlns:xlink="http://www.w3.org/1999/xlink" version="1.1" baseProfile="full" viewBox="0 0 200 200" width="200" height="200">
<path d="M 10.9,59 L 76,59 76,63 10.9,63 Z" fill="black" />
<path d="M 76,59 L 52,61 64,49 Z" fill="black" />
<path d="M 50.7,16 L 50.7,183 38.7,189 38.7,14 Z" fill="black" />
<path d="M 50.7,16 L 53.7,18 48.7,21 Z" fill="black" />
<path d="M 48.1,62 Q 42.5,88.2 34.2,108.6 Q 25,131.8 11.7,148.4 L 10.2,147.5 Q 20,125.8 26.2,105.8 Q 33.5,82.2 36.3,59.9 Z" fill="black" />
<path d="M 47.7,85.6 Q 56.8,87.1 63.4,92 Q 70.8,97.1 75.3,103.2 L 65.1,109.6 Q 61.8,103.1 57.8,98.4 Q 52.8,93.1 46.9,87.2 Z" fill="black" />
<path d="M 75.3,103.2 Q 77.6,108.1 73.4,111.5 Q 68.4,113.8 65.1,109.6 Z" fill="black" />
<path d="M 78.1,21.3 Q 86.8,23.4 92.6,27.5 Q 99,32.1 102.5,37.9 L 91.7,43.1 Q 90,38.1 86.8,33.6 Q 82.8,28.4 77.3,22.8 Z" fill="black" />
<path d="M 102.5,37.9 Q 104.3,43 99.7,45.9 Q 94.6,47.7 91.7,43.1 Z" fill="black" />
<path d="M 67.9,75.5 Q 81.1,70 92.9,64.8 Q 105.9,58.8 118.9,54.8 L 119.7,56.4 Q 107.9,65.8 96.8,72.4 Q 84.1,80 73.2,86.3 Z" fill="black" />
<path d="M 73.2,86.3 L 67.9,75.5 66.1,76.4 Z" fill="black" />
<path d="M 73.2,86.3 L 76.3,88.1 77.2,80.9 Z" fill="black" />
<path d="M 126.5,28.9 L 179.1,28.9 179.1,32.9 126.5,32.9 Z" fill="black" />
<path d="M 184.7,33 Q 181.1,40 176.7,46.2 Q 171.9,52.9 165.4,58.1 L 163.9,57.1 Q 166.9,48.9 169.2,42.2 Q 172.1,35 173.5,28.7 Z" fill="black" />
<path d="M 173.1,28.9 L 179.1,23.9 190.1,32.9 185.1,35.9 173.1,40.9 Z" fill="black" />
<path d="M 154.1,31.4 Q 150.8,53.7 139.6,66.7 Q 126.8,80.6 108.1,84.2 L 107.5,82.5 Q 125.8,73.6 132.9,61.5 Q 141.8,47.7 142.1,30.3 Z" fill="black" />
<path d="M 150.5,31.8 Q 156.2,52.8 164.2,62.2 Q 173.3,72.7 185.8,75 L 182.4,87.7 Q 164.3,81.7 156.5,67.5 Q 147.2,51.8 148.8,31.9 Z" fill="black" />
<path d="M 182.4,87.7 L 185.8,75 194.1,77.2 Z" fill="black" />
<path d="M 139.8,18.2 Q 135.9,27.5 129.1,36 Q 121.8,45.6 111.3,53.1 L 110,51.9 Q 117.8,39.6 122,31.4 Q 126.9,21.5 128.4,14.5 Z" fill="black" />
<path d="M 128.1,15.4 L 139.8,18.2 128.9,13 Z" fill="black" />
<path d="M 139.8,18.2 L 142,21.1 136.4,22.3 Z" fill="black" />
<path d="M 98,88 L 98,155.4 86,161.4 86,82 Z" fill="black" />
<path d="M 92,88 L 164,88 164,92 92,92 Z" fill="black" />
<path d="M 170,90 L 170,152.4 158,158.4 158,90 Z" fill="black" />
<path d="M 158,88 L 164,83 175,92 170,96 158,90 Z" fill="black" />
<path d="M 92,108.1 L 164,108.1 164,112.1 92,112.1 Z" fill="black" />
<path d="M 92,128.2 L 164,128.2 164,132.2 92,132.2 Z" fill="black" />
<path d="M 92,148.4 L 164,148.4 164,152.4 92,152.4 Z" fill="black" />
<path d="M 118.1,166.6 Q 109.1,173 97.2,178.1 Q 84,184 67.1,187.8 L 66.4,186.1 Q 83,177 93.2,170.6 Q 105.1,163 110.3,157.4 Z" fill="black" />
<path d="M 109.6,158.1 L 118.1,166.6 110.5,157.3 Z" fill="black" />
<path d="M 118.1,166.6 L 118.5,170.2 113,168.3 Z" fill="black" />
<path d="M 136.3,160.7 Q 154,162.5 164.9,166.9 Q 177.5,171.2 184.3,177.9 L 175.5,186.1 Q 170.5,180.2 161.3,174.5 Q 150,168.5 135.9,162.5 Z" fill="black" />
<path d="M 184.3,177.9 Q 187.5,182.3 184,186.4 Q 179.6,189.7 175.5,186.1 Z" fill="black" />
</svg>
