<svg xmlns="http://www.w3.org/2000/svg" xmlns:xlink="http://www.w3.org/1999/xlink" version="1.1" baseProfile="full" viewBox="0 0 200 200" width="200" height="200">
<path d="M 9.2,59 L 63.9,59 63.9,63 9.2,63 Z" fill="black" />
<path d="M 63.9,59 L 43.9,61 53.9,50 Z" fill="black" />
<path d="M 43.6,16 L 43.6,183 31.6,189 31.6,14 Z" fill="black" />
<path d="M 43.6,16 L 46.6,18 41.6,21 Z" fill="black" />
<path d="M 41.4,61.8 Q 36.9,87.7 29.4,108.4 Q 21.4,131.3 10,148.4 L 8.4,147.5 Q 16.4,126.3 21.3,106 Q 26.9,82.7 29.5,60.1 Z" fill="black" />
<path d="M 40.3,85.7 Q 48.6,87.7 54,92.2 Q 60.2,97.1 64.2,103.5 L 53.6,109.1 Q 51.2,103.1 47.9,98.1 Q 43.6,92.7 39.4,87.2 Z" fill="black" />
<path d="M 64.2,103.5 Q 66.2,108.6 61.7,111.6 Q 56.6,113.6 53.6,109.1 Z" fill="black" />
<path d="M 74.3,26 L 103.3,26 103.3,30 74.3,30 Z" fill="black" />
<path d="M 109.2,29.3 Q 106,40.3 100.7,51.9 Q 95.1,64.3 87.2,76.3 L 85.6,75.6 Q 90.1,60.3 92.7,49 Q 96,36.3 97.4,26.6 Z" fill="black" />
<path d="M 97.3,26 L 103.3,21 114.3,30 109.3,33 97.3,38 Z" fill="black" />
<path d="M 87.7,75.3 Q 98.9,86.7 102.9,99.1 Q 107.6,112.9 106,126 L 94.2,124.2 Q 96.6,111.9 94.7,101.3 Q 91.9,88.7 86.3,76.3 Z" fill="black" />
<path d="M 106,126 Q 104.6,131.2 99.2,131 Q 93.9,129.6 94.2,124.2 Z" fill="black" />
<path d="M 106,126 Q 104.8,133 100.4,137 Q 95.1,141 88.6,141 L 88.6,129 Q 92.1,129 92.5,127.9 Q 93.8,127 94.2,124.2 Z" fill="black" />
<path d="M 88.6,135 L 88.6,129 80.6,129 80.6,132 Z" fill="black" />
<path d="M 80.3,26 L 80.3,183 68.3,189 68.3,20 Z" fill="black" />
<path d="M 126.9,22.5 L 126.9,78.4 114.9,84.4 114.9,16.5 Z" fill="black" />
<path d="M 120.9,22.5 L 173.2,22.5 173.2,26.5 120.9,26.5 Z" fill="black" />
<path d="M 179.2,24.5 L 179.2,77.4 167.2,83.4 167.2,24.5 Z" fill="black" />
<path d="M 167.2,22.5 L 173.2,17.5 184.2,26.5 179.2,30.5 167.2,24.5 Z" fill="black" />
<path d="M 120.9,46.2 L 173.2,46.2 173.2,50.2 120.9,50.2 Z" fill="black" />
<path d="M 120.9,71.4 L 173.2,71.4 173.2,75.4 120.9,75.4 Z" fill="black" />
<path d="M 103.2,94 L 190.3,94 190.3,98 103.2,98 Z" fill="black" />
<path d="M 190.3,94 L 170.3,96 180.3,85 Z" fill="black" />
<path d="M 140.1,98 Q 132.9,114.8 124.1,125.2 Q 114.1,136.9 102.2,141.7 L 101.2,140.2 Q 111.1,130.9 117.2,120.2 Q 124.9,107.8 128.8,93.9 Z" fill="black" />
<path d="M 125.5,116 L 179.1,116 179.1,120 125.5,120 Z" fill="black" />
<path d="M 185.1,118.1 Q 184.7,135.8 183.3,148.4 Q 182,162 179.4,170.9 L 167.8,167.7 Q 170,159 171.4,147.1 Q 172.7,133.8 173.1,117.8 Z" fill="black" />
<path d="M 173.1,116 L 179.1,111 190.1,120 185.1,123 173.1,128 Z" fill="black" />
<path d="M 179.4,170.9 Q 177.3,176 172,175.1 Q 166.9,173.1 167.8,167.7 Z" fill="black" />
<path d="M 179.4,170.9 Q 177.8,177.6 172.7,181.3 Q 167,185 160.9,185 L 160.9,173 Q 165,173 165.4,171.8 Q 166.8,170.6 167.8,167.7 Z" fill="black" />
<path d="M 160.9,179 L 160.9,173 142.9,173 142.9,176 Z" fill="black" />
<path d="M 149.7,120.2 Q 140.7,139.8 128.9,153.8 Q 116,169.3 100,177.7 L 98.9,176.2 Q 113,162.3 122.1,148.6 Q 132.7,132.8 138.5,115.7 Z" fill="black" />
<path d="M 169.3,119.4 Q 162.8,142.2 152.1,158.6 Q 140.2,176.3 124.6,186.6 L 123.4,185.3 Q 137.2,170.3 144.7,154.3 Q 153.8,136.2 157.6,116.5 Z" fill="black" />
</svg>
