<svg xmlns="http://www.w3.org/2000/svg" xmlns:xlink="http://www.w3.org/1999/xlink" version="1.1" baseProfile="full" viewBox="0 0 200 200" width="200" height="200">
<path d="M 20,34 L 180,34 180,38 20,38 Z" fill="black" />
<path d="M 180,34 L 156,36 168,24 Z" fill="black" />
<path d="M 55,51 L 55,103 43,109 43,45 Z" fill="black" />
<path d="M 49,51 L 151,51 151,55 49,55 Z" fill="black" />
<path d="M 157,53 L 157,100 145,106 145,53 Z" fill="black" />
<path d="M 145,51 L 151,46 162,55 157,59 145,53 Z" fill="black" />
<path d="M 49,73 L 151,73 151,77 49,77 Z" fill="black" />
<path d="M 49,96 L 151,96 151,100 49,100 Z" fill="black" />
<path d="M 106,15 L 106,184 94,190 94,13 Z" fill="black" />
<path d="M 106,15 L 109,17 104,20 Z" fill="black" />
<path d="M 39,120 L 77,120 77,124 39,124 Z" fill="black" />
<path d="M 82.9,123 Q 78,143.3 61.8,156.1 Q 44.2,170.4 17.2,176.8 L 16.7,175.1 Q 44.2,162.4 56.1,149.8 Q 70,135.3 71,120.9 Z" fill="black" />
<path d="M 71,120 L 77,115 88,124 83,127 71,132 Z" fill="black" />
<path d="M 155.6,115.8 Q 147.7,123.2 139.5,129.9 Q 131,137.4 121.6,142.6 L 120.3,141.3 Q 127,131.4 133.5,123.9 Q 140.7,115.2 146.9,107.6 Z" fill="black" />
<path d="M 146.2,108.3 L 155.6,115.8 147.2,107.2 Z" fill="black" />
<path d="M 155.6,115.8 L 156.5,119.3 150.8,118.1 Z" fill="black" />
<path d="M 106.1,110.7 Q 116.5,134.2 132.6,147.2 Q 150.7,161.9 176.7,167.6 L 173.2,180.3 Q 142.7,170.9 126.4,154.2 Q 107.5,135.2 104.4,111.2 Z" fill="black" />
<path d="M 173.2,180.3 L 176.7,167.6 184.9,169.8 Z" fill="black" />
</svg>
