<svg xmlns="http://www.w3.org/2000/svg" xmlns:xlink="http://www.w3.org/1999/xlink" version="1.1" baseProfile="full" viewBox="0 0 200 200" width="200" height="200">
<path d="M 12.3,38.2 L 79.7,38.2 79.7,42.2 12.3,42.2 Z" fill="black" />
<path d="M 79.7,38.2 L 55.7,40.2 67.7,28.2 Z" fill="black" />
<path d="M 53.3,10.9 L 53.3,119.7 41.3,125.7 41.3,8.9 Z" fill="black" />
<path d="M 53.3,10.9 L 56.3,12.9 51.3,15.9 Z" fill="black" />
<path d="M 50.5,41.8 Q 44.9,59.2 35.9,72.8 Q 26.3,88 13,98.2 L 11.7,97 Q 22.3,82 28.5,68.7 Q 35.9,53.2 38.9,38.6 Z" fill="black" />
<path d="M 50.3,56.2 Q 59.3,56.5 65.7,59 Q 72.9,61.8 77.5,65.6 L 68.9,73.9 Q 65.9,69.8 61.6,66.4 Q 56.3,62.5 49.8,57.9 Z" fill="black" />
<path d="M 77.5,65.6 Q 80.9,69.8 77.4,74 Q 73.1,77.4 68.9,73.9 Z" fill="black" />
<path d="M 99.9,14.1 L 99.9,50.4 87.9,56.4 87.9,8.1 Z" fill="black" />
<path d="M 93.9,14.1 L 164.1,14.1 164.1,18.1 93.9,18.1 Z" fill="black" />
<path d="M 170.1,16.1 L 170.1,50.4 158.1,56.4 158.1,16.1 Z" fill="black" />
<path d="M 158.1,14.1 L 164.1,9.1 175.1,18.1 170.1,22.1 158.1,16.1 Z" fill="black" />
<path d="M 93.9,29.8 L 164.1,29.8 164.1,33.8 93.9,33.8 Z" fill="black" />
<path d="M 93.9,46.4 L 164.1,46.4 164.1,50.4 93.9,50.4 Z" fill="black" />
<path d="M 70,61.3 L 187,61.3 187,65.3 70,65.3 Z" fill="black" />
<path d="M 187,61.3 L 171,63.3 179,54.3 Z" fill="black" />
<path d="M 116.8,66.9 Q 107.5,77.9 95.8,84.5 Q 83.1,91.8 68.2,93.9 L 67.7,92.2 Q 82.1,84.8 91.1,77.4 Q 101.5,68.9 107.1,59.8 Z" fill="black" />
<path d="M 100,75.8 L 172,75.8 172,79.8 100,79.8 Z" fill="black" />
<path d="M 177.9,78.1 Q 177.5,89.9 175.8,98.1 Q 173.9,106.8 171.1,112.3 L 160.6,106.4 Q 162.9,102.8 164,95.8 Q 165.5,87.9 166,77.6 Z" fill="black" />
<path d="M 166,75.8 L 172,70.8 183,79.8 178,82.8 166,87.8 Z" fill="black" />
<path d="M 171.1,112.3 Q 167.9,116.7 162.9,114.6 Q 158.5,111.4 160.6,106.4 Z" fill="black" />
<path d="M 171.1,112.3 Q 167.9,118.2 162.7,121.1 Q 157,124.1 151,124.1 L 151,112.1 Q 155,112.1 156.6,110.7 Q 158.9,109.2 160.6,106.4 Z" fill="black" />
<path d="M 151,118.1 L 151,112.1 131,112.1 131,115.1 Z" fill="black" />
<path d="M 129.6,81.6 Q 117.5,94.9 102.3,103.3 Q 85.1,112.9 65.3,117.6 L 64.6,115.9 Q 85.1,105.9 97.6,96.2 Q 112.5,84.9 120.3,74 Z" fill="black" />
<path d="M 156.3,80.5 Q 147.5,96.4 133.4,106.5 Q 118.1,117.9 98.3,123.5 L 97.6,121.9 Q 117.1,110.9 128,100 Q 140.5,87.4 145.6,75.2 Z" fill="black" />
<path d="M 63.7,132.4 Q 64.9,143.7 59.2,152 Q 53.4,160.8 43,165.9 L 38.4,154.8 Q 47.4,151.8 52.5,146.7 Q 57.9,140.7 61.9,132.2 Z" fill="black" />
<path d="M 43,165.9 Q 37.8,167.4 35.2,162.7 Q 33.7,157.5 38.4,154.8 Z" fill="black" />
<path d="M 163.6,139.6 Q 154.1,145.2 143.8,149.8 Q 132.6,155.4 119.3,158.7 L 118.6,157 Q 130.6,148.4 139.7,142.4 Q 150.1,135.2 156.7,129.7 Z" fill="black" />
<path d="M 155.9,130.3 L 163.6,139.6 163.9,139.4 Z" fill="black" />
<path d="M 163.9,139.4 L 164,142.9 158.6,140.6 Z" fill="black" />
<path d="M 106.9,125.1 Q 104.4,156.6 81.7,171.8 Q 56.9,188.3 16,189.9 L 15.9,188.1 Q 59.9,180.3 76.6,165 Q 96.4,147.6 94.9,124.9 Z" fill="black" />
<path d="M 94.9,125.9 L 106.9,125.1 95,122.5 Z" fill="black" />
<path d="M 106.9,125.1 L 109.9,127.2 104.8,130.1 Z" fill="black" />
<path d="M 104,130.4 Q 110.5,153.1 127.2,163.2 Q 146.1,174.7 177.6,176.9 L 176.3,190.1 Q 139.1,185.7 121.8,170.8 Q 101.5,154.1 102.2,130.6 Z" fill="black" />
<path d="M 176.3,190.1 L 177.6,176.9 188.2,177.9 Z" fill="black" />
</svg>
