<svg xmlns="http://www.w3.org/2000/svg" xmlns:xlink="http://www.w3.org/1999/xlink" version="1.1" baseProfile="full" viewBox="0 0 200 200" width="200" height="200">
<path d="M 22,19.5 Q 31.5,20.6 37.7,24.9 Q 44.9,29.1 48.8,35.5 L 38.1,41.1 Q 35.9,36.1 32.3,31.4 Q 27.5,26.6 21.3,21.2 Z" fill="black" />
<path d="M 48.8,35.5 Q 50.7,40.6 46.2,43.6 Q 41.2,45.6 38.1,41.1 Z" fill="black" />
<path d="M 9.2,65.5 Q 19.4,66.6 25.8,70.8 Q 33.3,75 36.9,81.7 L 26.1,86.8 Q 24.3,82 20.5,77.4 Q 15.4,72.6 8.6,67.2 Z" fill="black" />
<path d="M 36.9,81.7 Q 38.7,86.8 34.1,89.7 Q 28.9,91.4 26.1,86.8 Z" fill="black" />
<path d="M 10.6,132.5 Q 23.9,135.1 30.4,147.9 Q 37,161.8 36.3,181.3 L 24.3,180.6 Q 26,160.8 22.6,151.2 Q 18.9,140.1 9.9,134.1 Z" fill="black" />
<path d="M 36.3,181.3 Q 35.3,186.7 29.9,186.9 Q 24.6,186 24.3,180.6 Z" fill="black" />
<path d="M 20.9,148.6 Q 23.6,141 31.8,121.7 Q 40.9,99.8 56.7,66.6 L 58.4,67.3 Q 45.9,105.8 39.8,124.7 Q 32.6,147 32.6,151.3 Z" fill="black" />
<path d="M 125.7,20.5 L 175.5,20.5 175.5,24.5 125.7,24.5 Z" fill="black" />
<path d="M 181.5,22.5 Q 181.5,40.9 180.3,51.5 Q 179.2,63.1 176.2,68.5 L 165.8,62.5 Q 167.2,60.1 168.4,50.2 Q 169.5,38.9 169.5,22.5 Z" fill="black" />
<path d="M 169.5,20.5 L 175.5,15.5 186.5,24.5 181.5,27.5 169.5,32.5 Z" fill="black" />
<path d="M 176.2,68.5 Q 173,72.9 168,70.7 Q 163.6,67.5 165.8,62.5 Z" fill="black" />
<path d="M 176.2,68.5 Q 173,74.3 167.7,77.2 Q 162,80.2 156,80.2 L 156,68.2 Q 160,68.2 161.7,66.8 Q 164,65.3 165.8,62.5 Z" fill="black" />
<path d="M 156,74.2 L 156,68.2 136,68.2 136,71.2 Z" fill="black" />
<path d="M 152.2,22.7 Q 150.4,43.9 142.3,57.2 Q 133.2,72.4 119.1,78 L 118.1,76.4 Q 130.2,65.4 134.7,53.3 Q 140.4,38.9 140.2,22.2 Z" fill="black" />
<path d="M 60.9,26.5 L 124.9,26.5 124.9,30.5 60.9,30.5 Z" fill="black" />
<path d="M 124.9,26.5 L 100.9,28.5 112.9,16.5 Z" fill="black" />
<path d="M 95.4,12.2 L 95.4,71 83.4,71 83.4,10.2 Z" fill="black" />
<path d="M 95.4,12.2 L 98.4,14.2 93.4,17.2 Z" fill="black" />
<path d="M 64.9,46.7 L 118.6,46.7 118.6,50.7 64.9,50.7 Z" fill="black" />
<path d="M 118.6,46.7 L 98.6,48.7 108.6,37.7 Z" fill="black" />
<path d="M 59.3,70.4 Q 71.2,69 87,67.2 Q 104.6,64.7 126.3,62.8 L 126.7,64.6 Q 103.6,71.7 88.6,75.5 Q 71.2,80 61.3,82.2 Z" fill="black" />
<path d="M 61.3,82.2 L 59.3,70.4 57.4,70.7 Z" fill="black" />
<path d="M 61.3,82.2 L 63.7,84.8 66.7,78.3 Z" fill="black" />
<path d="M 65.7,90.9 L 176.3,90.9 176.3,94.9 65.7,94.9 Z" fill="black" />
<path d="M 176.3,90.9 L 156.3,92.9 166.3,81.9 Z" fill="black" />
<path d="M 127,79 L 127,126.1 115,126.1 115,77 Z" fill="black" />
<path d="M 127,79 L 130,81 125,84 Z" fill="black" />
<path d="M 71.2,106.5 L 170.7,106.5 170.7,110.5 71.2,110.5 Z" fill="black" />
<path d="M 170.7,106.5 L 154.7,108.5 162.7,99.5 Z" fill="black" />
<path d="M 53,122.1 L 188.9,122.1 188.9,126.1 53,126.1 Z" fill="black" />
<path d="M 188.9,122.1 L 172.9,124.1 180.9,115.1 Z" fill="black" />
<path d="M 90,135.9 L 90,186.8 78,192.8 78,129.9 Z" fill="black" />
<path d="M 84,135.9 L 157.9,135.9 157.9,139.9 84,139.9 Z" fill="black" />
<path d="M 163.9,137.9 L 163.9,177.4 151.9,177.4 151.9,137.9 Z" fill="black" />
<path d="M 151.9,135.9 L 157.9,130.9 168.9,139.9 163.9,143.9 151.9,137.9 Z" fill="black" />
<path d="M 151.9,177.4 Q 152.5,182.8 157.9,183.4 Q 163.3,182.8 163.9,177.4 Z" fill="black" />
<path d="M 163.9,177.4 Q 163.9,184.4 159.7,189.2 Q 154.5,193.9 147.9,193.4 L 147.9,181.4 Q 151.5,180.9 151.2,180.7 Q 151.9,180.4 151.9,177.4 Z" fill="black" />
<path d="M 147.9,187.4 L 147.9,181.4 133.9,181.4 133.9,184.4 Z" fill="black" />
<path d="M 84,151 L 157.9,151 157.9,155 84,155 Z" fill="black" />
<path d="M 84,166.2 L 157.9,166.2 157.9,170.2 84,170.2 Z" fill="black" />
</svg>
