<svg xmlns="http://www.w3.org/2000/svg" xmlns:xlink="http://www.w3.org/1999/xlink" version="1.1" baseProfile="full" viewBox="0 0 200 200" width="200" height="200">
<path d="M 26.1,19.4 Q 37.3,20.6 44.4,24.6 Q 52.6,29.1 57.4,35.2 L 47.2,41.6 Q 44.6,36.1 39.6,31.6 Q 33.3,26.6 25.6,21.1 Z" fill="black" />
<path d="M 57.4,35.2 Q 59.7,40.1 55.5,43.5 Q 50.6,45.9 47.2,41.6 Z" fill="black" />
<path d="M 10.8,65.4 Q 22.4,66.6 30.1,70.6 Q 38.6,75.1 43.1,81.4 L 32.7,87.3 Q 30.6,82.1 25.4,77.7 Q 19.4,72.6 10.3,67.1 Z" fill="black" />
<path d="M 43.1,81.4 Q 45.3,86.3 40.9,89.6 Q 35.9,91.7 32.7,87.3 Z" fill="black" />
<path d="M 12.4,132.4 Q 28.1,135.1 35.6,147.6 Q 43.4,161.8 42.4,181.4 L 30.4,180.5 Q 32.4,160.8 28.1,151.4 Q 23.1,140.1 11.9,134.1 Z" fill="black" />
<path d="M 42.4,181.4 Q 41.4,186.8 35.9,186.9 Q 30.6,185.9 30.4,180.5 Z" fill="black" />
<path d="M 26.4,148.4 Q 29.2,141 39.1,121.5 Q 50.1,99.3 68.4,66.6 L 70,67.3 Q 54.1,106.3 46.9,124.9 Q 38.2,147 37.9,151.5 Z" fill="black" />
<path d="M 86.1,71 L 86.1,182 74.1,188 74.1,65 Z" fill="black" />
<path d="M 80.1,71 L 169.2,71 169.2,75 80.1,75 Z" fill="black" />
<path d="M 175.2,73 L 175.2,171 163.2,171 163.2,73 Z" fill="black" />
<path d="M 163.2,71 L 169.2,66 180.2,75 175.2,79 163.2,73 Z" fill="black" />
<path d="M 163.2,171 Q 163.7,176.4 169.2,177 Q 174.6,176.4 175.2,171 Z" fill="black" />
<path d="M 175.2,171 Q 175.2,177.9 170.9,182.7 Q 165.7,187.5 159.2,187 L 159.2,175 Q 162.7,174.5 162.4,174.2 Q 163.2,173.9 163.2,171 Z" fill="black" />
<path d="M 159.2,181 L 159.2,175 143.2,175 143.2,178 Z" fill="black" />
<path d="M 130.1,30 L 130.1,65 118.1,65 118.1,30 Z" fill="black" />
<path d="M 118.1,65 Q 118.7,70.4 124.1,71 Q 129.5,70.4 130.1,65 Z" fill="black" />
<path d="M 130.1,65 Q 129.1,104.1 116.9,127.2 Q 103.3,152.8 80.5,161.7 L 79.6,160.2 Q 101.3,145.8 109.2,123.7 Q 119.1,98.1 118.1,65 Z" fill="black" />
<path d="M 124.3,98.8 Q 136.8,104.2 144.3,113.4 Q 152.4,123.4 155.7,134.7 L 143.9,137.3 Q 142.4,126.4 137.4,118.3 Q 131.8,109.2 123.3,100.3 Z" fill="black" />
<path d="M 155.7,134.7 Q 156.2,140.1 151.1,141.9 Q 145.7,142.5 143.9,137.3 Z" fill="black" />
<path d="M 69.1,30 L 185.7,30 185.7,34 69.1,34 Z" fill="black" />
<path d="M 185.7,30 L 161.7,32 173.7,20 Z" fill="black" />
</svg>
