<svg xmlns="http://www.w3.org/2000/svg" xmlns:xlink="http://www.w3.org/1999/xlink" version="1.1" baseProfile="full" viewBox="0 0 200 200" width="200" height="200">
<path d="M 26.5,19.4 Q 37.8,20.6 44.9,24.6 Q 53.2,29.1 58,35.2 L 47.9,41.7 Q 45.2,36.1 40.2,31.7 Q 33.8,26.6 25.9,21.1 Z" fill="black" />
<path d="M 58,35.2 Q 60.4,40.1 56.2,43.5 Q 51.3,45.9 47.9,41.7 Z" fill="black" />
<path d="M 11,65.4 Q 22.6,66.6 30.5,70.6 Q 39,75.1 43.6,81.3 L 33.2,87.4 Q 31,82.1 25.8,77.7 Q 19.6,72.6 10.4,67.1 Z" fill="black" />
<path d="M 43.6,81.3 Q 45.8,86.3 41.4,89.5 Q 36.4,91.7 33.2,87.4 Z" fill="black" />
<path d="M 12.6,132.4 Q 28.5,135.1 36,147.6 Q 43.9,161.8 42.8,181.4 L 30.9,180.5 Q 32.9,160.8 28.5,151.5 Q 23.5,140.1 12,134.1 Z" fill="black" />
<path d="M 42.8,181.4 Q 41.8,186.8 36.4,186.9 Q 31.1,185.9 30.9,180.5 Z" fill="black" />
<path d="M 26.8,148.4 Q 29.7,141 39.7,121.5 Q 50.8,99.3 69.2,66.6 L 70.9,67.3 Q 54.8,106.3 47.4,124.9 Q 38.7,147 38.3,151.5 Z" fill="black" />
<path d="M 64.7,37.4 L 188.2,37.4 188.2,41.4 64.7,41.4 Z" fill="black" />
<path d="M 188.2,37.4 L 164.2,39.4 176.2,27.4 Z" fill="black" />
<path d="M 132.5,13.9 L 132.5,72.6 120.5,72.6 120.5,11.9 Z" fill="black" />
<path d="M 132.5,13.9 L 135.5,15.9 130.5,18.9 Z" fill="black" />
<path d="M 73.5,68.6 L 179.4,68.6 179.4,72.6 73.5,72.6 Z" fill="black" />
<path d="M 179.4,68.6 L 155.4,70.6 167.4,58.6 Z" fill="black" />
<path d="M 96.6,88.9 L 96.6,128 84.6,134 84.6,82.9 Z" fill="black" />
<path d="M 90.6,88.9 L 162.3,88.9 162.3,92.9 90.6,92.9 Z" fill="black" />
<path d="M 168.3,90.9 L 168.3,134 156.3,140 156.3,90.9 Z" fill="black" />
<path d="M 156.3,88.9 L 162.3,83.9 173.3,92.9 168.3,96.9 156.3,90.9 Z" fill="black" />
<path d="M 90.6,124 L 162.3,124 162.3,128 90.6,128 Z" fill="black" />
<path d="M 96.9,135.2 Q 104.7,141.3 109.2,149.2 Q 113.9,157.9 116.4,167 L 104.6,169 Q 103.9,159.9 101.5,152.6 Q 98.7,144.3 95.5,136.3 Z" fill="black" />
<path d="M 116.4,167 Q 116.7,172.4 111.5,173.9 Q 106.1,174.2 104.6,169 Z" fill="black" />
<path d="M 156.8,140.7 Q 153.2,148.9 148.9,157.5 Q 144.2,167.3 136.8,177.3 L 135.2,176.6 Q 138.2,163.3 141,154.4 Q 144.2,143.9 145.4,137.1 Z" fill="black" />
<path d="M 145.1,138 L 156.8,140.7 145.9,135.5 Z" fill="black" />
<path d="M 156.8,140.7 L 159.1,143.6 153.4,144.9 Z" fill="black" />
<path d="M 64,175 L 188.9,175 188.9,179 64,179 Z" fill="black" />
<path d="M 188.9,175 L 164.9,177 176.9,165 Z" fill="black" />
</svg>
