<svg xmlns="http://www.w3.org/2000/svg" xmlns:xlink="http://www.w3.org/1999/xlink" version="1.1" baseProfile="full" viewBox="0 0 200 200" width="200" height="200">
<path d="M 21.2,19.5 Q 30.4,20.6 36.5,24.9 Q 43.4,29.6 47.2,35.6 L 36.5,41 Q 34.4,35.6 30.9,31.4 Q 26.4,26.6 20.5,21.2 Z" fill="black" />
<path d="M 47.2,35.6 Q 49.1,40.6 44.5,43.6 Q 39.4,45.5 36.5,41 Z" fill="black" />
<path d="M 9,65.5 Q 18.8,66.6 25,70.8 Q 32.2,75.5 35.7,81.7 L 24.9,86.7 Q 23.2,81.5 19.6,77.4 Q 14.8,72.6 8.3,67.2 Z" fill="black" />
<path d="M 35.7,81.7 Q 37.5,86.9 32.8,89.7 Q 27.7,91.4 24.9,86.7 Z" fill="black" />
<path d="M 10.2,132.5 Q 23.1,135.1 29.5,148 Q 35.9,161.8 35.1,181.3 L 23.2,180.6 Q 24.9,160.8 21.6,151.1 Q 18.1,140.1 9.6,134.2 Z" fill="black" />
<path d="M 35.1,181.3 Q 34.2,186.7 28.8,186.9 Q 23.4,186 23.2,180.6 Z" fill="black" />
<path d="M 19.9,148.7 Q 22.5,141.5 30.5,121.8 Q 39.2,99.8 54.6,66.6 L 56.3,67.3 Q 44.2,105.8 38.5,124.6 Q 31.5,146.5 31.6,151.2 Z" fill="black" />
<path d="M 127.5,14.5 L 127.5,38.7 115.5,38.7 115.5,12.5 Z" fill="black" />
<path d="M 127.5,14.5 L 130.5,16.5 125.5,19.5 Z" fill="black" />
<path d="M 68.2,28.2 Q 71.2,40.6 69.4,49.1 Q 67.6,58.4 61.3,63.7 L 54.8,53.7 Q 58.6,52.4 61.3,46.6 Q 64.2,39.6 66.4,28.3 Z" fill="black" />
<path d="M 61.3,63.7 Q 56.4,66.2 53,62 Q 50.6,57.1 54.8,53.7 Z" fill="black" />
<path d="M 68.1,35.4 L 181.1,35.4 181.1,39.4 68.1,39.4 Z" fill="black" />
<path d="M 186.3,40.4 Q 182.8,44.9 178.3,49.3 Q 173.5,54.7 166.1,59.5 L 164.7,58.4 Q 168.5,49.7 171.4,44.3 Q 174.8,37.9 175.9,34.4 Z" fill="black" />
<path d="M 175.1,35.4 L 181.1,30.4 192.1,39.4 187.1,42.4 175.1,47.4 Z" fill="black" />
<path d="M 103.3,51.2 L 103.3,182.2 91.3,188.2 91.3,49.2 Z" fill="black" />
<path d="M 103.3,51.2 L 106.3,53.2 101.3,56.2 Z" fill="black" />
<path d="M 57.5,124.3 L 97.3,124.3 97.3,128.3 57.5,128.3 Z" fill="black" />
<path d="M 75,59.8 L 75,105.5 63,111.5 63,57.8 Z" fill="black" />
<path d="M 75,59.8 L 78,61.8 73,64.8 Z" fill="black" />
<path d="M 69,94.5 L 97.3,94.5 97.3,98.5 69,98.5 Z" fill="black" />
<path d="M 78.8,124.3 L 78.8,138.9 66.8,138.9 66.8,124.3 Z" fill="black" />
<path d="M 66.8,138.9 Q 67.4,144.3 72.8,144.9 Q 78.2,144.3 78.8,138.9 Z" fill="black" />
<path d="M 78.8,138.9 Q 77.8,155.1 72.8,167.3 Q 67.3,180.5 57.4,188.1 L 56,186.9 Q 62.3,175.5 64.8,164.6 Q 67.8,152.1 66.8,138.9 Z" fill="black" />
<path d="M 124.1,55.2 L 168.7,55.2 168.7,59.2 124.1,59.2 Z" fill="black" />
<path d="M 174.7,57.2 L 174.7,96 162.7,102 162.7,57.2 Z" fill="black" />
<path d="M 162.7,55.2 L 168.7,50.2 179.7,59.2 174.7,63.2 162.7,57.2 Z" fill="black" />
<path d="M 114.7,73.6 L 186.3,73.6 186.3,77.6 114.7,77.6 Z" fill="black" />
<path d="M 186.3,73.6 L 174.3,75.6 180.3,67.6 Z" fill="black" />
<path d="M 124.1,92 L 168.7,92 168.7,96 124.1,96 Z" fill="black" />
<path d="M 116.4,104.8 Q 119.2,114.4 118.7,120.4 Q 118.9,127.2 114.9,131.9 L 107,122.9 Q 107.9,123.2 110.4,118.8 Q 112.2,113.4 114.6,104.9 Z" fill="black" />
<path d="M 114.9,131.9 Q 110.4,135 106.4,131.3 Q 103.3,126.8 107,122.9 Z" fill="black" />
<path d="M 115.9,109.7 L 180.5,109.7 180.5,113.7 115.9,113.7 Z" fill="black" />
<path d="M 186,114 Q 183.7,117.3 180.7,121 Q 177.2,125.1 172.3,128.8 L 170.8,127.8 Q 172.2,121.1 173.2,116.9 Q 174.7,112.3 175,109.3 Z" fill="black" />
<path d="M 174.5,109.7 L 180.5,104.7 191.5,113.7 186.5,116.7 174.5,121.7 Z" fill="black" />
<path d="M 119.1,128.8 L 167.5,128.8 167.5,132.8 119.1,132.8 Z" fill="black" />
<path d="M 173.1,132.9 Q 163.2,155.3 148.3,168.4 Q 131.2,182.6 110.6,186.8 L 110,185.1 Q 131.2,175.6 142.4,162.3 Q 156.2,147.3 161.8,128.6 Z" fill="black" />
<path d="M 161.5,128.8 L 167.5,123.8 178.5,132.8 173.5,135.8 161.5,140.8 Z" fill="black" />
<path d="M 132.2,131.4 Q 141.7,150.5 153.1,160.1 Q 165.6,171 181.1,174 L 177.6,186.7 Q 157.6,180 146.5,166.7 Q 133.7,151.5 130.5,132 Z" fill="black" />
<path d="M 177.6,186.7 L 181.1,174 189.3,176.2 Z" fill="black" />
</svg>
