<svg xmlns="http://www.w3.org/2000/svg" xmlns:xlink="http://www.w3.org/1999/xlink" version="1.1" baseProfile="full" viewBox="0 0 200 200" width="200" height="200">
<path d="M 24.1,19.5 Q 34.5,20.6 41.2,24.7 Q 48.7,29.1 53.2,35.3 L 42.8,41.4 Q 40.7,36.1 36.1,31.5 Q 30.5,26.6 23.5,21.1 Z" fill="black" />
<path d="M 53.2,35.3 Q 55.4,40.3 51,43.5 Q 46.1,45.7 42.8,41.4 Z" fill="black" />
<path d="M 10.1,65.4 Q 21.2,66.6 28,70.7 Q 35.8,75.1 40.1,81.5 L 29.5,87.1 Q 27.8,82.1 23.1,77.6 Q 17.2,72.6 9.5,67.1 Z" fill="black" />
<path d="M 40.1,81.5 Q 42.1,86.5 37.6,89.6 Q 32.6,91.6 29.5,87.1 Z" fill="black" />
<path d="M 11.6,132.4 Q 26.1,135.1 33.1,147.7 Q 40.3,161.8 39.4,181.4 L 27.5,180.5 Q 29.3,160.8 25.4,151.3 Q 21.1,140.1 11,134.1 Z" fill="black" />
<path d="M 39.4,181.4 Q 38.5,186.7 33,186.9 Q 27.7,186 27.5,180.5 Z" fill="black" />
<path d="M 23.7,148.5 Q 26.5,141 35.6,121.6 Q 45.4,99.8 62.8,66.6 L 64.4,67.3 Q 50.4,105.8 43.5,124.8 Q 35.5,147 35.4,151.4 Z" fill="black" />
<path d="M 85.1,26 L 85.1,182 73.1,188 73.1,20 Z" fill="black" />
<path d="M 79.1,26 L 167.8,26 167.8,30 79.1,30 Z" fill="black" />
<path d="M 173.8,28 L 173.8,172 161.8,172 161.8,28 Z" fill="black" />
<path d="M 161.8,26 L 167.8,21 178.8,30 173.8,34 161.8,28 Z" fill="black" />
<path d="M 161.8,172 Q 162.4,177.4 167.8,178 Q 173.2,177.4 173.8,172 Z" fill="black" />
<path d="M 173.8,172 Q 173.8,178.9 169.6,183.7 Q 164.4,188.5 157.8,188 L 157.8,176 Q 161.4,175.5 161.1,175.2 Q 161.8,174.9 161.8,172 Z" fill="black" />
<path d="M 157.8,182 L 157.8,176 141.8,176 141.8,179 Z" fill="black" />
<path d="M 58.4,100 L 189.2,100 189.2,104 58.4,104 Z" fill="black" />
<path d="M 189.2,100 L 177.2,102 183.2,94 Z" fill="black" />
<path d="M 114.2,26 L 114.2,171 102.2,177 102.2,26 Z" fill="black" />
<path d="M 144.8,26 L 144.8,171 132.8,177 132.8,26 Z" fill="black" />
</svg>
