<svg xmlns="http://www.w3.org/2000/svg" xmlns:xlink="http://www.w3.org/1999/xlink" version="1.1" baseProfile="full" viewBox="0 0 200 200" width="200" height="200">
<path d="M 23.4,19.5 Q 33.4,20.6 39.9,24.8 Q 47.2,29.1 51.6,35.4 L 41.2,41.3 Q 39.2,36.1 34.8,31.5 Q 29.4,26.6 22.7,21.2 Z" fill="black" />
<path d="M 51.6,35.4 Q 53.7,40.4 49.3,43.6 Q 44.3,45.7 41.2,41.3 Z" fill="black" />
<path d="M 9.8,65.4 Q 20.6,66.6 27.2,70.7 Q 34.7,75.1 39,81.5 L 28.3,87 Q 26.7,82.1 22.2,77.5 Q 16.6,72.6 9.2,67.1 Z" fill="black" />
<path d="M 39,81.5 Q 40.9,86.6 36.3,89.6 Q 31.3,91.5 28.3,87 Z" fill="black" />
<path d="M 11.2,132.4 Q 25.3,135.1 32.2,147.8 Q 39.2,161.8 38.3,181.4 L 26.3,180.5 Q 28.2,160.8 24.4,151.3 Q 20.3,140.1 10.6,134.1 Z" fill="black" />
<path d="M 38.3,181.4 Q 37.3,186.7 31.9,186.9 Q 26.6,186 26.3,180.5 Z" fill="black" />
<path d="M 22.7,148.6 Q 25.5,141 34.3,121.6 Q 43.8,99.8 60.6,66.6 L 62.3,67.3 Q 48.8,105.8 42.1,124.8 Q 34.5,147 34.4,151.3 Z" fill="black" />
<path d="M 108.6,60.1 Q 121.4,61.5 130,65.6 Q 139.7,70 146.2,76 L 137.4,84.1 Q 132.7,78 125.8,73 Q 117.4,67.5 108.1,61.8 Z" fill="black" />
<path d="M 146.2,76 Q 149.4,80.3 145.9,84.4 Q 141.5,87.7 137.4,84.1 Z" fill="black" />
<path d="M 84.9,93.7 L 131.7,93.7 131.7,97.7 84.9,97.7 Z" fill="black" />
<path d="M 137.7,95.7 L 137.7,177.3 125.7,177.3 125.7,95.7 Z" fill="black" />
<path d="M 125.7,93.7 L 131.7,88.7 142.7,97.7 137.7,101.7 125.7,95.7 Z" fill="black" />
<path d="M 125.7,177.3 Q 126.3,182.7 131.7,183.3 Q 137.1,182.7 137.7,177.3 Z" fill="black" />
<path d="M 137.7,177.3 Q 137.7,184.2 133.4,189 Q 128.2,193.8 121.7,193.3 L 121.7,181.3 Q 125.2,180.8 125,180.5 Q 125.7,180.2 125.7,177.3 Z" fill="black" />
<path d="M 121.7,187.3 L 121.7,181.3 101.7,181.3 101.7,184.3 Z" fill="black" />
<path d="M 80.3,118.2 L 111.1,118.2 111.1,122.2 80.3,122.2 Z" fill="black" />
<path d="M 117.1,121.2 Q 112.8,140.9 103.3,154.6 Q 92.7,170.2 77.1,178.3 L 76,176.9 Q 89.7,163.2 96,150.3 Q 103.8,134.9 105.2,119.3 Z" fill="black" />
<path d="M 105.1,118.2 L 111.1,113.2 122.1,122.2 117.1,125.2 105.1,130.2 Z" fill="black" />
<path d="M 183,103.5 Q 176,109.8 167.2,115.7 Q 157.6,122.4 145.3,128.4 L 144.3,127 Q 154.6,116.4 161.8,109.2 Q 170,100.8 174.4,95.2 Z" fill="black" />
<path d="M 173.7,95.9 L 183,103.5 174.7,94.9 Z" fill="black" />
<path d="M 183,103.5 L 183.8,107 178.1,105.7 Z" fill="black" />
<path d="M 137.5,103.1 Q 147.5,127.9 158.5,142.8 Q 171.1,159.1 186.4,166.7 L 179.8,178.1 Q 161.1,166.1 150.8,148 Q 138.5,127.9 135.7,103.5 Z" fill="black" />
<path d="M 179.8,178.1 L 186.4,166.7 191,169.3 Z" fill="black" />
<path d="M 73.6,23 L 174,23 174,27 73.6,27 Z" fill="black" />
<path d="M 180,25 L 180,60 168,66 168,25 Z" fill="black" />
<path d="M 168,23 L 174,18 185,27 180,31 168,25 Z" fill="black" />
<path d="M 73.6,52 L 174,52 174,56 73.6,56 Z" fill="black" />
<path d="M 79.6,23 L 79.6,87 67.6,87 67.6,17 Z" fill="black" />
<path d="M 67.6,87 Q 68.2,92.4 73.6,93 Q 79,92.4 79.6,87 Z" fill="black" />
<path d="M 79.6,87 Q 78.6,120.6 72.8,144.3 Q 66.3,170.3 54.7,185.4 L 53.2,184.5 Q 61.3,165.3 64.5,142.6 Q 68.6,116.6 67.6,87 Z" fill="black" />
</svg>
