<svg xmlns="http://www.w3.org/2000/svg" xmlns:xlink="http://www.w3.org/1999/xlink" version="1.1" baseProfile="full" viewBox="0 0 200 200" width="200" height="200">
<path d="M 23.4,19.5 Q 33.4,20.6 39.9,24.8 Q 47.2,29.1 51.6,35.4 L 41.2,41.3 Q 39.2,36.1 34.8,31.5 Q 29.4,26.6 22.7,21.2 Z" fill="black" />
<path d="M 51.6,35.4 Q 53.7,40.4 49.3,43.6 Q 44.3,45.7 41.2,41.3 Z" fill="black" />
<path d="M 9.8,65.4 Q 20.6,66.6 27.2,70.7 Q 34.7,75.1 39,81.5 L 28.3,87 Q 26.7,82.1 22.2,77.5 Q 16.6,72.6 9.2,67.1 Z" fill="black" />
<path d="M 39,81.5 Q 40.9,86.6 36.3,89.6 Q 31.3,91.5 28.3,87 Z" fill="black" />
<path d="M 11.2,132.4 Q 25.3,135.1 32.2,147.8 Q 39.2,161.8 38.3,181.4 L 26.3,180.5 Q 28.2,160.8 24.4,151.3 Q 20.3,140.1 10.6,134.1 Z" fill="black" />
<path d="M 38.3,181.4 Q 37.3,186.7 31.9,186.9 Q 26.6,186 26.3,180.5 Z" fill="black" />
<path d="M 22.7,148.6 Q 25.5,141 34.3,121.6 Q 43.8,99.8 60.6,66.6 L 62.3,67.3 Q 48.8,105.8 42.1,124.8 Q 34.5,147 34.4,151.3 Z" fill="black" />
<path d="M 73.6,23 L 174,23 174,27 73.6,27 Z" fill="black" />
<path d="M 180,25 L 180,60 168,66 168,25 Z" fill="black" />
<path d="M 168,23 L 174,18 185,27 180,31 168,25 Z" fill="black" />
<path d="M 73.6,52 L 174,52 174,56 73.6,56 Z" fill="black" />
<path d="M 79.6,23 L 79.6,87 67.6,87 67.6,17 Z" fill="black" />
<path d="M 67.6,87 Q 68.2,92.4 73.6,93 Q 79,92.4 79.6,87 Z" fill="black" />
<path d="M 79.6,87 Q 78.6,120.6 72.8,144.3 Q 66.3,170.3 54.7,185.4 L 53.2,184.5 Q 61.3,165.3 64.5,142.6 Q 68.6,116.6 67.6,87 Z" fill="black" />
<path d="M 83,76.4 L 133.8,76.4 133.8,80.4 83,80.4 Z" fill="black" />
<path d="M 133.8,76.4 L 117.8,78.4 125.8,69.4 Z" fill="black" />
<path d="M 116.5,59.7 L 116.5,119.2 104.5,125.2 104.5,57.7 Z" fill="black" />
<path d="M 116.5,59.7 L 119.5,61.7 114.5,64.7 Z" fill="black" />
<path d="M 113.8,80.2 Q 108.3,94.8 99.9,104.9 Q 90.7,116 79.2,121.4 L 78.2,119.9 Q 87.7,110 93,100.1 Q 99.3,88.8 102.4,76.6 Z" fill="black" />
<path d="M 111.8,87 Q 119.4,87.2 124.3,90.6 Q 130,94.3 133.1,99.6 L 122.2,104.6 Q 121,100.3 118.7,97 Q 115.4,93.2 111.1,88.6 Z" fill="black" />
<path d="M 133.1,99.6 Q 134.8,104.7 130.1,107.5 Q 125,109.2 122.2,104.6 Z" fill="black" />
<path d="M 134.4,76.4 L 181.5,76.4 181.5,80.4 134.4,80.4 Z" fill="black" />
<path d="M 181.5,76.4 L 161.5,78.4 171.5,67.4 Z" fill="black" />
<path d="M 160,59.7 L 160,119.2 148,125.2 148,57.7 Z" fill="black" />
<path d="M 160,59.7 L 163,61.7 158,64.7 Z" fill="black" />
<path d="M 157.2,80.2 Q 151.8,94.4 143,104.2 Q 133.6,114.5 121.4,119.2 L 120.5,117.6 Q 130.6,108.5 136.2,99 Q 142.8,88.4 145.8,76.5 Z" fill="black" />
<path d="M 155.9,87.1 Q 165.7,89.7 172,94.8 Q 179.2,100.4 183.6,107.7 L 173,113.2 Q 170.2,106.4 166,100.8 Q 160.7,94.7 155,88.7 Z" fill="black" />
<path d="M 183.6,107.7 Q 185.6,112.8 181.1,115.8 Q 176,117.7 173,113.2 Z" fill="black" />
<path d="M 106.7,125.2 Q 108.3,136 104.9,143.9 Q 101.6,152.7 94.4,157.7 L 88.2,147.4 Q 93.6,144.7 97.4,139.9 Q 101.3,134 104.9,125 Z" fill="black" />
<path d="M 94.4,157.7 Q 89.4,160 86.1,155.6 Q 83.8,150.7 88.2,147.4 Z" fill="black" />
<path d="M 176.7,131.8 Q 170,137.5 162.6,142.1 Q 154.5,147.5 144.8,151.2 L 143.8,149.7 Q 151.5,141.5 157.3,135.5 Q 164,128.5 168.2,123.3 Z" fill="black" />
<path d="M 167.5,124 L 176.7,131.8 168.5,123 Z" fill="black" />
<path d="M 176.7,131.8 L 177.5,135.3 171.8,133.9 Z" fill="black" />
<path d="M 137.9,117.9 Q 136.1,148.3 120.1,163.8 Q 102.2,180.8 73.7,182.3 L 73.4,180.5 Q 103.2,172.8 113.9,158.1 Q 127.1,141.3 125.9,117.8 Z" fill="black" />
<path d="M 125.9,118.8 L 137.9,117.9 126,115.4 Z" fill="black" />
<path d="M 137.9,117.9 L 140.9,120 135.9,122.9 Z" fill="black" />
<path d="M 134.3,123.2 Q 139.9,146.2 151.5,156.3 Q 164.1,167.7 185,169.4 L 183.3,182.5 Q 157.1,177.7 144.8,162.8 Q 130.9,146.2 132.5,123.4 Z" fill="black" />
<path d="M 183.3,182.5 L 185,169.4 195.1,170.7 Z" fill="black" />
</svg>
