<svg xmlns="http://www.w3.org/2000/svg" xmlns:xlink="http://www.w3.org/1999/xlink" version="1.1" baseProfile="full" viewBox="0 0 200 200" width="200" height="200">
<path d="M 22.8,19.5 Q 32.6,20.6 38.9,24.8 Q 45.9,29.1 50.3,35.4 L 39.8,41.2 Q 37.9,36.1 33.7,31.5 Q 28.6,26.6 22.1,21.2 Z" fill="black" />
<path d="M 50.3,35.4 Q 52.4,40.5 48,43.6 Q 42.9,45.6 39.8,41.2 Z" fill="black" />
<path d="M 9.5,65.5 Q 20.1,66.6 26.6,70.7 Q 33.8,75.1 38,81.6 L 27.3,86.9 Q 25.8,82.1 21.4,77.5 Q 16.1,72.6 8.9,67.1 Z" fill="black" />
<path d="M 38,81.6 Q 39.9,86.7 35.3,89.6 Q 30.2,91.5 27.3,86.9 Z" fill="black" />
<path d="M 10.9,132.5 Q 24.7,135.1 31.4,147.8 Q 38.2,161.8 37.4,181.4 L 25.4,180.6 Q 27.2,160.8 23.6,151.2 Q 19.7,140.1 10.3,134.1 Z" fill="black" />
<path d="M 37.4,181.4 Q 36.5,186.7 31,186.9 Q 25.7,186 25.4,180.6 Z" fill="black" />
<path d="M 21.9,148.6 Q 24.6,141 33.2,121.7 Q 42.5,99.8 58.9,66.6 L 60.6,67.3 Q 47.5,105.8 41.1,124.7 Q 33.6,147 33.6,151.3 Z" fill="black" />
<path d="M 125,8 L 125,22 113,22 113,6 Z" fill="black" />
<path d="M 125,8 L 128,10 123,13 Z" fill="black" />
<path d="M 72.2,14.5 Q 77.1,19.4 77.1,25.2 Q 76.7,31.6 71.8,36.1 L 65,26.3 Q 67.7,25.6 68.7,23.8 Q 70.1,21.4 70.5,15.2 Z" fill="black" />
<path d="M 71.8,36.1 Q 67.1,38.8 63.5,34.7 Q 60.9,29.9 65,26.3 Z" fill="black" />
<path d="M 72,18 L 172,18 172,22 72,22 Z" fill="black" />
<path d="M 175.9,24.5 Q 172,26.9 167.8,29.9 Q 163.5,33.4 157.7,36.5 L 156.2,35.4 Q 158.5,28.4 161.6,24 Q 165,18.9 168,15.4 Z" fill="black" />
<path d="M 166,18 L 172,13 183,22 178,25 166,30 Z" fill="black" />
<path d="M 115.6,33.9 L 94.6,69.4 81.3,68.5 106.3,26 Z" fill="black" />
<path d="M 115.6,33.9 L 117.2,37.1 111.9,37.8 Z" fill="black" />
<path d="M 93.1,61.2 Q 121.7,63 139.1,66.5 Q 158.6,70.2 168.3,75.3 L 162.4,85.7 Q 153.6,80.2 137,74.7 Q 117.7,69 92.8,63 Z" fill="black" />
<path d="M 168.3,75.3 Q 172.7,78.5 170.6,83.4 Q 167.4,87.8 162.4,85.7 Z" fill="black" />
<path d="M 154.7,45.6 Q 146.5,66.8 123.2,75.8 Q 97.8,85.9 59,86.8 L 58.9,85.1 Q 100.8,78.9 119.7,68.1 Q 141.5,55.8 143.2,42.3 Z" fill="black" />
<path d="M 61,42 L 184,42 184,46 61,46 Z" fill="black" />
<path d="M 184,42 L 160,44 172,32 Z" fill="black" />
<path d="M 66,97 L 180,97 180,101 66,101 Z" fill="black" />
<path d="M 180,97 L 160,99 170,88 Z" fill="black" />
<path d="M 127,87 L 127,129 115,129 115,85 Z" fill="black" />
<path d="M 127,87 L 130,89 125,92 Z" fill="black" />
<path d="M 72,111 L 173,111 173,115 72,115 Z" fill="black" />
<path d="M 173,111 L 157,113 165,104 Z" fill="black" />
<path d="M 59,125 L 189,125 189,129 59,129 Z" fill="black" />
<path d="M 189,125 L 173,127 181,118 Z" fill="black" />
<path d="M 91,137 L 91,189 79,195 79,131 Z" fill="black" />
<path d="M 85,137 L 160,137 160,141 85,141 Z" fill="black" />
<path d="M 166,139 L 166,178 154,178 154,139 Z" fill="black" />
<path d="M 154,137 L 160,132 171,141 166,145 154,139 Z" fill="black" />
<path d="M 154,178 Q 154.6,183.4 160,184 Q 165.4,183.4 166,178 Z" fill="black" />
<path d="M 166,178 Q 166,184.9 161.7,189.7 Q 156.5,194.5 150,194 L 150,182 Q 153.5,181.5 153.2,181.2 Q 154,180.9 154,178 Z" fill="black" />
<path d="M 150,188 L 150,182 134,182 134,185 Z" fill="black" />
<path d="M 85,150 L 160,150 160,154 85,154 Z" fill="black" />
<path d="M 85,165 L 160,165 160,169 85,169 Z" fill="black" />
</svg>
