<svg xmlns="http://www.w3.org/2000/svg" xmlns:xlink="http://www.w3.org/1999/xlink" version="1.1" baseProfile="full" viewBox="0 0 200 200" width="200" height="200">
<path d="M 26.3,19.4 Q 37.6,20.6 44.7,24.6 Q 52.9,29.1 57.7,35.2 L 47.5,41.6 Q 44.9,36.1 39.9,31.7 Q 33.6,26.6 25.7,21.1 Z" fill="black" />
<path d="M 57.7,35.2 Q 60.1,40.1 55.8,43.5 Q 51,45.9 47.5,41.6 Z" fill="black" />
<path d="M 10.9,65.4 Q 22.5,66.6 30.3,70.6 Q 38.8,75.1 43.3,81.3 L 32.9,87.4 Q 30.8,82.1 25.6,77.7 Q 19.5,72.6 10.3,67.1 Z" fill="black" />
<path d="M 43.3,81.3 Q 45.5,86.3 41.1,89.5 Q 36.2,91.7 32.9,87.4 Z" fill="black" />
<path d="M 12.5,132.4 Q 28.3,135.1 35.8,147.6 Q 43.7,161.8 42.6,181.4 L 30.6,180.5 Q 32.7,160.8 28.3,151.5 Q 23.3,140.1 12,134.1 Z" fill="black" />
<path d="M 42.6,181.4 Q 41.6,186.8 36.2,186.9 Q 30.8,185.9 30.6,180.5 Z" fill="black" />
<path d="M 26.6,148.4 Q 29.5,141 39.4,121.5 Q 50.4,99.3 68.8,66.6 L 70.4,67.3 Q 54.4,106.3 47.2,124.9 Q 38.5,147 38.1,151.5 Z" fill="black" />
<path d="M 80.9,46 L 124.2,46 124.2,50 80.9,50 Z" fill="black" />
<path d="M 124.2,46 L 104.2,48 114.2,37 Z" fill="black" />
<path d="M 86.9,14.5 L 86.9,99.4 74.9,99.4 74.9,12.5 Z" fill="black" />
<path d="M 86.9,14.5 L 89.9,16.5 84.9,19.5 Z" fill="black" />
<path d="M 63.7,95.9 Q 75.6,93.8 90.9,91.1 Q 107.5,87.6 127.7,84.5 L 128.2,86.2 Q 107.5,94.6 93,99.3 Q 76.6,104.8 66.2,107.6 Z" fill="black" />
<path d="M 66.2,107.6 L 63.7,95.9 61.7,96.4 Z" fill="black" />
<path d="M 66.2,107.6 L 68.8,110.1 71.5,103.4 Z" fill="black" />
<path d="M 185,42.2 Q 174.6,46.8 163.8,50.8 Q 151.7,55.4 138.5,58 L 137.9,56.3 Q 150.7,48.4 160.3,43.1 Q 171.6,36.8 179.3,31.7 Z" fill="black" />
<path d="M 178.4,32.1 L 185,42.2 187.4,40.9 Z" fill="black" />
<path d="M 187.4,40.9 L 187.5,44.3 181.6,41.8 Z" fill="black" />
<path d="M 144.2,14.5 L 144.2,90.3 132.2,90.3 132.2,12.5 Z" fill="black" />
<path d="M 144.2,14.5 L 147.2,16.5 142.2,19.5 Z" fill="black" />
<path d="M 132.2,90.3 Q 132.8,95.7 138.2,96.3 Q 143.6,95.7 144.2,90.3 Z" fill="black" />
<path d="M 144.2,90.3 Q 144.7,93.7 145,93.5 Q 145.2,94.3 148.2,94.3 L 148.2,106.3 Q 141.2,106.3 136.5,102 Q 131.7,96.7 132.2,90.3 Z" fill="black" />
<path d="M 148.2,94.3 Q 153.6,94.9 154.2,100.3 Q 153.6,105.7 148.2,106.3 Z" fill="black" />
<path d="M 148.2,94.3 L 185.3,94.3 185.3,106.3 148.2,106.3 Z" fill="black" />
<path d="M 185.3,94.3 Q 190.7,94.9 191.3,100.3 Q 190.7,105.7 185.3,106.3 Z" fill="black" />
<path d="M 185.3,95.3 L 187.3,69.3 185.3,69.3 179.3,95.3 Z" fill="black" />
<path d="M 72.8,133.5 L 180.1,133.5 180.1,137.5 72.8,137.5 Z" fill="black" />
<path d="M 180.1,133.5 L 156.1,135.5 168.1,123.5 Z" fill="black" />
<path d="M 132.5,104.5 L 132.5,181.5 120.5,181.5 120.5,102.5 Z" fill="black" />
<path d="M 132.5,104.5 L 135.5,106.5 130.5,109.5 Z" fill="black" />
<path d="M 63.2,177.5 L 189.7,177.5 189.7,181.5 63.2,181.5 Z" fill="black" />
<path d="M 189.7,177.5 L 165.7,179.5 177.7,167.5 Z" fill="black" />
</svg>
