<svg xmlns="http://www.w3.org/2000/svg" xmlns:xlink="http://www.w3.org/1999/xlink" version="1.1" baseProfile="full" viewBox="0 0 200 200" width="200" height="200">
<path d="M 25.2,19.4 Q 36,20.6 42.9,24.7 Q 50.8,29.1 55.4,35.3 L 45.2,41.5 Q 42.8,36.1 38,31.6 Q 32,26.6 24.6,21.1 Z" fill="black" />
<path d="M 55.4,35.3 Q 57.7,40.2 53.4,43.5 Q 48.5,45.8 45.2,41.5 Z" fill="black" />
<path d="M 10.5,65.4 Q 22.1,66.6 29.2,70.6 Q 37.3,75.1 41.7,81.4 L 31.2,87.2 Q 29.3,82.1 24.4,77.6 Q 18.1,72.6 9.9,67.1 Z" fill="black" />
<path d="M 41.7,81.4 Q 43.8,86.4 39.4,89.6 Q 34.4,91.7 31.2,87.2 Z" fill="black" />
<path d="M 12,132.4 Q 27.2,135.1 34.5,147.7 Q 42,161.8 41,181.4 L 29.1,180.5 Q 31,160.8 26.8,151.4 Q 22.2,140.1 11.5,134.1 Z" fill="black" />
<path d="M 41,181.4 Q 40,186.7 34.6,186.9 Q 29.3,185.9 29.1,180.5 Z" fill="black" />
<path d="M 25.1,148.4 Q 28,141 37.5,121.5 Q 48.2,99.8 65.8,66.6 L 67.4,67.3 Q 52.2,105.8 45.3,124.9 Q 37,147 36.8,151.5 Z" fill="black" />
<path d="M 128,6.8 L 128,60.9 116,60.9 116,4.8 Z" fill="black" />
<path d="M 128,6.8 L 131,8.8 126,11.8 Z" fill="black" />
<path d="M 116,60.9 Q 116.6,66.3 122,66.9 Q 127.4,66.3 128,60.9 Z" fill="black" />
<path d="M 128,60.9 Q 128,67.9 123.7,72.7 Q 118.5,77.4 112,76.9 L 112,64.9 Q 115.5,64.4 115.2,64.2 Q 116,63.9 116,60.9 Z" fill="black" />
<path d="M 112,70.9 L 112,64.9 92,64.9 92,67.9 Z" fill="black" />
<path d="M 58,25.3 L 100.9,25.3 100.9,29.3 58,29.3 Z" fill="black" />
<path d="M 106.7,28.8 Q 101.4,44.2 88.4,53.2 Q 74.2,62.9 54.4,66.3 L 53.8,64.6 Q 74.2,55.9 83,46.6 Q 93.4,36.2 95.1,25.7 Z" fill="black" />
<path d="M 94.9,25.3 L 100.9,20.3 111.9,29.3 106.9,32.3 94.9,37.3 Z" fill="black" />
<path d="M 179.9,27.6 Q 172.2,30.5 162.3,33.4 Q 151.4,36.8 137.8,38.6 L 137.3,36.9 Q 150.4,29.8 159.2,25.5 Q 169.2,20.5 174.5,16.9 Z" fill="black" />
<path d="M 173.6,17.3 L 179.9,27.6 182.9,26.1 Z" fill="black" />
<path d="M 182.9,26.1 L 183.1,29.4 176.9,26.9 Z" fill="black" />
<path d="M 126.9,11 Q 133.1,30.2 146.5,40.5 Q 162,52 186.7,57.1 L 183.6,69.9 Q 154,62 140.3,47.5 Q 124.1,31.2 125.1,11.2 Z" fill="black" />
<path d="M 183.6,69.9 L 186.7,57.1 195.3,59.2 Z" fill="black" />
<path d="M 77.5,92.7 L 157.8,92.7 157.8,96.7 77.5,96.7 Z" fill="black" />
<path d="M 163.8,94.7 L 163.8,133.1 151.8,139.1 151.8,94.7 Z" fill="black" />
<path d="M 151.8,92.7 L 157.8,87.7 168.8,96.7 163.8,100.7 151.8,94.7 Z" fill="black" />
<path d="M 75.9,129.1 L 157.8,129.1 157.8,133.1 75.9,133.1 Z" fill="black" />
<path d="M 60.3,110.9 L 185.9,110.9 185.9,114.9 60.3,114.9 Z" fill="black" />
<path d="M 185.9,110.9 L 165.9,112.9 175.9,101.9 Z" fill="black" />
<path d="M 128,80.1 L 128,189.2 116,195.2 116,78.1 Z" fill="black" />
<path d="M 128,80.1 L 131,82.1 126,85.1 Z" fill="black" />
<path d="M 68.9,147.3 L 173.4,147.3 173.4,151.3 68.9,151.3 Z" fill="black" />
<path d="M 173.4,147.3 L 153.4,149.3 163.4,138.3 Z" fill="black" />
<path d="M 58.8,164.8 L 185.9,164.8 185.9,168.8 58.8,168.8 Z" fill="black" />
<path d="M 185.9,164.8 L 161.9,166.8 173.9,154.8 Z" fill="black" />
</svg>
