<svg xmlns="http://www.w3.org/2000/svg" xmlns:xlink="http://www.w3.org/1999/xlink" version="1.1" baseProfile="full" viewBox="0 0 200 200" width="200" height="200">
<path d="M 21.4,19.5 Q 30.6,20.6 36.7,24.9 Q 43.7,29.6 47.5,35.5 L 36.8,41 Q 34.7,35.6 31.2,31.4 Q 26.6,26.6 20.7,21.2 Z" fill="black" />
<path d="M 47.5,35.5 Q 49.4,40.6 44.9,43.6 Q 39.8,45.5 36.8,41 Z" fill="black" />
<path d="M 9,65.5 Q 18.9,66.6 25.1,70.8 Q 32.4,75.5 36,81.7 L 25.1,86.8 Q 23.4,81.5 19.8,77.4 Q 14.9,72.6 8.3,67.2 Z" fill="black" />
<path d="M 36,81.7 Q 37.7,86.9 33.1,89.7 Q 27.9,91.4 25.1,86.8 Z" fill="black" />
<path d="M 10.3,132.5 Q 23.3,135.1 29.7,147.9 Q 36.1,161.8 35.4,181.3 L 23.4,180.6 Q 25.1,160.8 21.8,151.1 Q 18.3,140.1 9.6,134.2 Z" fill="black" />
<path d="M 35.4,181.3 Q 34.4,186.7 29,186.9 Q 23.7,186 23.4,180.6 Z" fill="black" />
<path d="M 20.1,148.7 Q 22.7,141.5 30.7,121.8 Q 39.6,99.8 55,66.6 L 56.7,67.3 Q 44.6,105.8 38.7,124.6 Q 31.7,146.5 31.8,151.2 Z" fill="black" />
<path d="M 86.3,19.6 Q 83.1,26.7 78.7,34.5 Q 73.7,43.1 66.6,52.1 L 65,51.3 Q 68.7,39.1 71,31.1 Q 74.1,21.7 74.9,16 Z" fill="black" />
<path d="M 74.6,17 L 86.3,19.6 75.4,14.5 Z" fill="black" />
<path d="M 86.3,19.6 L 88.6,22.4 82.9,23.8 Z" fill="black" />
<path d="M 55.8,44.5 Q 64,46.9 69.3,52.2 Q 75,57.7 78.9,64.5 L 67.9,69.2 Q 66,62.7 62.8,57.6 Q 59,51.9 54.8,46 Z" fill="black" />
<path d="M 78.9,64.5 Q 80.5,69.7 75.8,72.4 Q 70.6,74 67.9,69.2 Z" fill="black" />
<path d="M 106.1,34 Q 98.5,50.5 89.3,67.2 Q 79.7,85.3 67.9,102.9 L 66.3,102 Q 74.7,80.3 81.7,63.5 Q 89.5,44.5 95.1,29.4 Z" fill="black" />
<path d="M 94.7,30.3 L 106.1,34 95.6,28.1 Z" fill="black" />
<path d="M 106.1,34 L 108.1,37.1 102.3,37.9 Z" fill="black" />
<path d="M 54.7,100.4 Q 66.4,98.3 77.1,95.6 Q 88.8,92.5 99.4,90.7 L 100.1,92.3 Q 89.8,99.5 79.8,103.7 Q 68.4,108.3 57.6,112 Z" fill="black" />
<path d="M 57.6,112 L 54.7,100.4 52.7,100.8 Z" fill="black" />
<path d="M 57.6,112 L 60.2,114.4 62.7,107.6 Z" fill="black" />
<path d="M 90.4,71.9 Q 98.8,78.9 102.8,88.2 Q 107.8,98.4 109.7,108.6 L 97.8,110.2 Q 96.8,99.4 94.9,91.2 Q 91.8,81.9 88.9,72.9 Z" fill="black" />
<path d="M 109.7,108.6 Q 109.8,114.1 104.5,115.4 Q 99.1,115.5 97.8,110.2 Z" fill="black" />
<path d="M 86.3,99.4 L 86.3,182 74.3,188 74.3,99.4 Z" fill="black" />
<path d="M 70.6,123.3 Q 69.6,136.7 66.5,149.2 Q 63.2,163 56.6,176.3 L 54.9,175.8 Q 57.2,160 58.2,147.8 Q 59.6,133.7 58.6,123.3 Z" fill="black" />
<path d="M 58.6,124.3 L 70.6,123.3 58.6,120.9 Z" fill="black" />
<path d="M 70.6,123.3 L 73.6,125.3 68.6,128.3 Z" fill="black" />
<path d="M 91,118.6 Q 99.1,124.7 102.4,133.7 Q 106.5,143.6 107,154.2 L 95,154.2 Q 95.5,143.6 94.3,136.2 Q 92.1,127.7 89.6,119.7 Z" fill="black" />
<path d="M 95,154.2 Q 95.6,159.6 101,160.2 Q 106.4,159.6 107,154.2 Z" fill="black" />
<path d="M 183.4,45.9 Q 166.9,52.1 148.5,55.7 Q 128.3,59.9 105.9,60.8 L 105.7,59.1 Q 129.3,52.9 146.3,47.4 Q 165.9,41.1 178.8,34.8 Z" fill="black" />
<path d="M 177.8,35.2 L 183.4,45.9 187.7,44.1 Z" fill="black" />
<path d="M 187.7,44.1 L 187.9,47.2 181.5,44.5 Z" fill="black" />
<path d="M 126.7,78 L 126.7,137 114.7,143 114.7,76 Z" fill="black" />
<path d="M 126.7,78 L 129.7,80 124.7,83 Z" fill="black" />
<path d="M 120.7,121 L 175.3,121 175.3,125 120.7,125 Z" fill="black" />
<path d="M 181.3,78 L 181.3,131 169.3,137 169.3,76 Z" fill="black" />
<path d="M 181.3,78 L 184.3,80 179.3,83 Z" fill="black" />
<path d="M 153.6,18 L 153.6,169 141.6,169 141.6,16 Z" fill="black" />
<path d="M 153.6,18 L 156.6,20 151.6,23 Z" fill="black" />
<path d="M 141.6,169 Q 142.2,174.4 147.6,175 Q 153,174.4 153.6,169 Z" fill="black" />
<path d="M 153.6,169 Q 154.1,172.4 154.4,172.2 Q 154.6,173 157.6,173 L 157.6,185 Q 150.6,185 145.9,180.7 Q 141.1,175.4 141.6,169 Z" fill="black" />
<path d="M 157.6,173 Q 163,173.6 163.6,179 Q 163,184.4 157.6,185 Z" fill="black" />
<path d="M 157.6,173 L 185.8,173 185.8,185 157.6,185 Z" fill="black" />
<path d="M 185.8,173 Q 191.2,173.6 191.8,179 Q 191.2,184.4 185.8,185 Z" fill="black" />
<path d="M 185.8,174 L 187.8,148 185.8,148 179.8,174 Z" fill="black" />
</svg>
