<svg xmlns="http://www.w3.org/2000/svg" xmlns:xlink="http://www.w3.org/1999/xlink" version="1.1" baseProfile="full" viewBox="0 0 200 200" width="200" height="200">
<path d="M 20,19.6 Q 28.7,20.6 34.5,25 Q 41,29.5 44.6,35.7 L 33.8,40.8 Q 32,35.5 28.8,31.3 Q 24.7,26.6 19.2,21.2 Z" fill="black" />
<path d="M 44.6,35.7 Q 46.4,40.8 41.8,43.7 Q 36.6,45.4 33.8,40.8 Z" fill="black" />
<path d="M 8.5,65.5 Q 17.8,66.6 23.7,70.9 Q 30.5,75.5 33.9,81.8 L 22.9,86.6 Q 21.5,81.5 18.1,77.3 Q 13.8,72.6 7.8,67.2 Z" fill="black" />
<path d="M 33.9,81.8 Q 35.5,87 30.8,89.7 Q 25.6,91.3 22.9,86.6 Z" fill="black" />
<path d="M 9.7,132.5 Q 22.4,135.1 27.9,148 Q 34,161.8 33.3,181.3 L 21.4,180.6 Q 23,160.8 20,151 Q 16.4,140.1 9,134.2 Z" fill="black" />
<path d="M 33.3,181.3 Q 32.4,186.7 27,186.9 Q 21.6,186 21.4,180.6 Z" fill="black" />
<path d="M 18.3,148.8 Q 20.8,141.5 28.3,121.9 Q 36.6,99.8 51.1,66.6 L 52.8,67.3 Q 41.6,105.8 36.3,124.5 Q 29.8,146.5 30,151.1 Z" fill="black" />
<path d="M 95.5,14 L 95.5,48 83.5,48 83.5,12 Z" fill="black" />
<path d="M 95.5,14 L 98.5,16 93.5,19 Z" fill="black" />
<path d="M 89.5,26 L 120.9,26 120.9,30 89.5,30 Z" fill="black" />
<path d="M 120.9,26 L 104.9,28 112.9,19 Z" fill="black" />
<path d="M 67.8,44 L 67.8,111 55.8,111 55.8,38 Z" fill="black" />
<path d="M 55.8,111 Q 56.4,116.4 61.8,117 Q 67.2,116.4 67.8,111 Z" fill="black" />
<path d="M 67.8,111 Q 66.8,138.2 63.4,156 Q 59.6,175.8 52.2,185.3 L 50.5,184.6 Q 53.6,171.8 55,154.9 Q 56.8,135.2 55.8,111 Z" fill="black" />
<path d="M 61.8,44 L 125.8,44 125.8,48 61.8,48 Z" fill="black" />
<path d="M 131.6,47.8 Q 129.3,52.9 126.3,57.9 Q 123.4,63.4 119,68.3 L 117.3,67.6 Q 117.4,60.4 118.3,55 Q 119.3,48.9 120.1,44.1 Z" fill="black" />
<path d="M 119.8,44 L 125.8,39 136.8,48 131.8,51 119.8,56 Z" fill="black" />
<path d="M 66,70 L 115,61 115.8,64.9 66.7,73.9 Z" fill="black" />
<path d="M 115,61 L 95.7,66.6 103.8,54.1 Z" fill="black" />
<path d="M 92.8,49 L 92.8,75 80.8,75 80.8,47 Z" fill="black" />
<path d="M 92.8,49 L 95.8,51 90.8,54 Z" fill="black" />
<path d="M 80.8,75 Q 81.4,80.4 86.8,81 Q 92.2,80.4 92.8,75 Z" fill="black" />
<path d="M 92.8,75 Q 93.3,78.4 93.5,78.2 Q 93.7,79 96.8,79 L 96.8,91 Q 89.7,91 85,86.7 Q 80.3,81.4 80.8,75 Z" fill="black" />
<path d="M 96.8,81 Q 100.4,81.4 100.8,85 Q 100.4,88.6 96.8,89 Z" fill="black" />
<path d="M 96.8,81 L 123.1,81 123.1,89 96.8,89 Z" fill="black" />
<path d="M 123.1,81 Q 126.7,81.4 127.1,85 Q 126.7,88.6 123.1,89 Z" fill="black" />
<path d="M 123.1,82 L 125.1,72 123.1,72 119.1,82 Z" fill="black" />
<path d="M 69.2,96.9 L 129.6,96.9 129.6,100.9 69.2,100.9 Z" fill="black" />
<path d="M 129.6,96.9 L 113.6,98.9 121.6,89.9 Z" fill="black" />
<path d="M 88.3,109.8 L 88.3,128.9 76.3,134.9 76.3,103.8 Z" fill="black" />
<path d="M 82.3,109.8 L 116.1,109.8 116.1,113.8 82.3,113.8 Z" fill="black" />
<path d="M 122.1,111.8 L 122.1,128.9 110.1,134.9 110.1,111.8 Z" fill="black" />
<path d="M 110.1,109.8 L 116.1,104.8 127.1,113.8 122.1,117.8 110.1,111.8 Z" fill="black" />
<path d="M 82.3,124.9 L 116.1,124.9 116.1,128.9 82.3,128.9 Z" fill="black" />
<path d="M 79,137.8 L 79,181.9 67,187.9 67,131.8 Z" fill="black" />
<path d="M 73,137.8 L 125.5,137.8 125.5,141.8 73,141.8 Z" fill="black" />
<path d="M 131,139.8 L 131,169.5 120,169.5 120,139.8 Z" fill="black" />
<path d="M 120,137.8 L 125.5,132.8 136,141.8 131,145.3 120,139.8 Z" fill="black" />
<path d="M 120,169.5 Q 120.5,174.5 125.5,175 Q 130.4,174.5 131,169.5 Z" fill="black" />
<path d="M 131,169.5 Q 131,176 127.4,180.6 Q 122.7,185.5 116.7,185 L 116.7,174 Q 119.7,173.5 119.2,173.4 Q 120,173 120,169.5 Z" fill="black" />
<path d="M 116.7,179.5 L 116.7,174 108.7,174 108.7,176.8 Z" fill="black" />
<path d="M 98.7,141.2 Q 95.3,150.8 90.2,156.9 Q 84.1,163.7 76.8,165.2 L 75.9,163.7 Q 81.1,157.7 83.1,152.2 Q 86.3,145.8 87,138.3 Z" fill="black" />
<path d="M 110,137.8 L 110,145.9 99,145.9 99,137.8 Z" fill="black" />
<path d="M 99,145.9 Q 99.5,150.8 104.5,151.4 Q 109.4,150.8 110,145.9 Z" fill="black" />
<path d="M 109.6,145.9 Q 111,149.3 111.7,148.7 Q 111.9,148.4 114.5,147.7 L 114.5,164 Q 106.9,163.4 102.3,158.1 Q 98,152.3 99.3,145.9 Z" fill="black" />
<path d="M 114.5,152.4 Q 117.6,152.7 118,155.9 Q 117.6,159 114.5,159.4 Z" fill="black" />
<path d="M 114.5,152.4 L 119.1,152.4 119.1,159.4 114.5,159.4 Z" fill="black" />
<path d="M 119.1,152.4 Q 122.3,152.7 122.6,155.9 Q 122.3,159 119.1,159.4 Z" fill="black" />
<path d="M 119.1,153.4 L 121.1,147.4 119.1,147.4 115.6,153.4 Z" fill="black" />
<path d="M 82.3,165.7 L 115.7,165.7 115.7,169.7 82.3,169.7 Z" fill="black" />
<path d="M 115.7,165.7 L 99.7,167.7 107.7,158.7 Z" fill="black" />
<path d="M 105.2,165.7 L 105.2,181.9 93.2,187.9 93.2,165.7 Z" fill="black" />
<path d="M 131.4,67 L 188.1,67 188.1,71 131.4,71 Z" fill="black" />
<path d="M 188.1,67 L 168.1,69 178.1,58 Z" fill="black" />
<path d="M 162.5,14 L 162.5,75 150.5,75 150.5,12 Z" fill="black" />
<path d="M 162.5,14 L 165.5,16 160.5,19 Z" fill="black" />
<path d="M 150.5,75 Q 151.1,80.4 156.5,81 Q 161.9,80.4 162.5,75 Z" fill="black" />
<path d="M 162.5,75.2 Q 159.9,119.5 151.4,146.5 Q 141.9,176.8 126.9,189.6 L 125.6,188.3 Q 137.9,170.8 143.2,144.4 Q 149.9,113.5 150.5,74.7 Z" fill="black" />
<path d="M 159.4,60.9 Q 164.1,104.5 171.7,132.1 Q 180.6,162.8 192.2,178.2 L 181.3,185.7 Q 167.6,163.8 162.6,134.3 Q 156.1,100.5 157.6,61 Z" fill="black" />
<path d="M 181.3,185.7 L 192.2,178.2 181.9,186.5 Z" fill="black" />
<path d="M 166.9,17.1 Q 174.3,21.8 178.5,28.6 Q 182.8,36.4 185.1,45 L 173.3,46.9 Q 172.8,38.4 170.7,32.2 Q 168.3,24.8 165.5,18.3 Z" fill="black" />
<path d="M 185.1,45 Q 185.4,50.5 180.2,51.9 Q 174.7,52.2 173.3,46.9 Z" fill="black" />
</svg>
