<svg xmlns="http://www.w3.org/2000/svg" xmlns:xlink="http://www.w3.org/1999/xlink" version="1.1" baseProfile="full" viewBox="0 0 200 200" width="200" height="200">
<path d="M 19.8,19.6 Q 28.4,20.6 34.2,25 Q 40.7,29.5 44.3,35.7 L 33.4,40.8 Q 31.7,35.5 28.5,31.2 Q 24.4,26.6 19.1,21.2 Z" fill="black" />
<path d="M 44.3,35.7 Q 46.1,40.8 41.4,43.7 Q 36.3,45.4 33.4,40.8 Z" fill="black" />
<path d="M 8.4,65.5 Q 17.6,66.6 23.6,70.9 Q 30.2,75.5 33.7,81.8 L 22.7,86.6 Q 21.2,81.5 17.9,77.3 Q 13.6,72.6 7.7,67.2 Z" fill="black" />
<path d="M 33.7,81.8 Q 35.3,87 30.5,89.7 Q 25.3,91.3 22.7,86.6 Z" fill="black" />
<path d="M 9.6,132.5 Q 22.2,135.1 27.7,148.1 Q 33.7,161.8 33.1,181.3 L 21.1,180.6 Q 22.7,160.8 19.8,151 Q 16.2,140.1 8.9,134.2 Z" fill="black" />
<path d="M 33.1,181.3 Q 32.2,186.7 26.8,186.9 Q 21.4,186 21.1,180.6 Z" fill="black" />
<path d="M 18.1,148.8 Q 20.6,141.5 28,121.9 Q 36.3,99.8 50.7,66.6 L 52.4,67.3 Q 41.3,105.8 36.1,124.5 Q 29.6,146.5 29.8,151.1 Z" fill="black" />
<path d="M 152.8,26 L 152.8,52 140.8,52 140.8,20 Z" fill="black" />
<path d="M 140.8,52 Q 141.4,57.4 146.8,58 Q 152.2,57.4 152.8,52 Z" fill="black" />
<path d="M 152.8,52 Q 151.8,67.8 146.4,79.4 Q 140.7,92.4 130.1,100.5 L 128.7,99.4 Q 135.7,87.4 138.4,76.5 Q 141.8,63.8 140.8,52 Z" fill="black" />
<path d="M 146.8,26 L 172.5,26 172.5,30 146.8,30 Z" fill="black" />
<path d="M 178.5,28 L 178.5,73 166.5,73 166.5,28 Z" fill="black" />
<path d="M 166.5,26 L 172.5,21 183.5,30 178.5,34 166.5,28 Z" fill="black" />
<path d="M 166.5,73 Q 167.1,78.4 172.5,79 Q 177.9,78.4 178.5,73 Z" fill="black" />
<path d="M 178.5,73 Q 179,76.4 179.3,76.2 Q 179.5,77 182.5,77 L 182.5,89 Q 175.5,89 170.8,84.7 Q 166,79.4 166.5,73 Z" fill="black" />
<path d="M 182.5,78 Q 187,78.5 187.5,83 Q 187,87.5 182.5,88 Z" fill="black" />
<path d="M 182.5,78 L 190.4,78 190.4,88 182.5,88 Z" fill="black" />
<path d="M 190.4,78 Q 194.9,78.5 195.4,83 Q 194.9,87.5 190.4,88 Z" fill="black" />
<path d="M 190.4,79 L 192.4,61 190.4,61 185.4,79 Z" fill="black" />
<path d="M 136.7,103 L 178.7,103 178.7,107 136.7,107 Z" fill="black" />
<path d="M 184.6,106.1 Q 176.8,141.6 162,161.5 Q 145.5,183.4 124.1,188.8 L 123.5,187.1 Q 144.5,176.4 155,156.9 Q 167.8,134.6 172.8,103.8 Z" fill="black" />
<path d="M 172.7,103 L 178.7,98 189.7,107 184.7,110 172.7,115 Z" fill="black" />
<path d="M 145,105.8 Q 152.4,135.7 162.9,151 Q 174.8,167.4 190.4,171.7 L 186,184.2 Q 164.8,175.4 155,155.9 Q 143.4,134.7 143.2,106.1 Z" fill="black" />
<path d="M 186,184.2 L 190.4,171.7 197.5,174.3 Z" fill="black" />
<path d="M 66.6,15.2 Q 63.3,30.8 56.9,42.6 Q 50.3,55.9 40.5,64.8 L 39.1,63.8 Q 45.3,50.9 49.1,39.3 Q 53.3,25.8 54.8,13.1 Z" fill="black" />
<path d="M 54.6,14.1 L 66.6,15.2 55.1,11.2 Z" fill="black" />
<path d="M 66.6,15.2 L 69.2,17.7 63.8,19.8 Z" fill="black" />
<path d="M 56.9,30.6 L 93.4,30.6 93.4,34.6 56.9,34.6 Z" fill="black" />
<path d="M 93.4,30.6 L 73.4,32.6 83.4,21.6 Z" fill="black" />
<path d="M 61.7,32.6 Q 68.8,35.1 73.4,40.3 Q 78.3,45.7 80.7,51.9 L 69.1,55.1 Q 68.3,49.7 66.3,45.1 Q 63.8,40.1 60.5,34 Z" fill="black" />
<path d="M 80.7,51.9 Q 81.5,57.3 76.5,59.3 Q 71.1,60.1 69.1,55.1 Z" fill="black" />
<path d="M 111.6,15.2 Q 108.3,30.4 101.9,41.5 Q 95.4,53.8 85.5,61.3 L 84.1,60.1 Q 90.4,48.8 94.2,38 Q 98.3,25.4 99.8,13.1 Z" fill="black" />
<path d="M 99.7,14.1 L 111.6,15.2 100.2,11.2 Z" fill="black" />
<path d="M 111.6,15.2 L 114.2,17.7 108.8,19.8 Z" fill="black" />
<path d="M 101.4,30.6 L 139,30.6 139,34.6 101.4,34.6 Z" fill="black" />
<path d="M 139,30.6 L 119,32.6 129,21.6 Z" fill="black" />
<path d="M 106.7,32.6 Q 113.9,35.1 118.4,40.3 Q 123.3,45.7 125.7,51.9 L 114.1,55.1 Q 113.3,49.7 111.4,45.1 Q 108.9,40.1 105.5,34 Z" fill="black" />
<path d="M 125.7,51.9 Q 126.6,57.3 121.5,59.3 Q 116.2,60.1 114.1,55.1 Z" fill="black" />
<path d="M 66.7,64.9 L 66.7,136.1 54.7,142.1 54.7,58.9 Z" fill="black" />
<path d="M 60.7,64.9 L 119.2,64.9 119.2,68.9 60.7,68.9 Z" fill="black" />
<path d="M 125.2,66.9 L 125.2,135.1 113.2,141.1 113.2,66.9 Z" fill="black" />
<path d="M 113.2,64.9 L 119.2,59.9 130.2,68.9 125.2,72.9 113.2,66.9 Z" fill="black" />
<path d="M 60.7,85.8 L 119.2,85.8 119.2,89.8 60.7,89.8 Z" fill="black" />
<path d="M 60.7,106.8 L 119.2,106.8 119.2,110.8 60.7,110.8 Z" fill="black" />
<path d="M 60.7,129.1 L 119.2,129.1 119.2,133.1 60.7,133.1 Z" fill="black" />
<path d="M 40.9,151 L 139,151 139,155 40.9,155 Z" fill="black" />
<path d="M 139,151 L 115,153 127,141 Z" fill="black" />
<path d="M 84,129 L 84,137 72,137 72,129 Z" fill="black" />
<path d="M 72,137 Q 72.6,142.4 78,143 Q 83.4,142.4 84,137 Z" fill="black" />
<path d="M 84,137 Q 83,160.2 73.9,172.9 Q 63.7,186.9 47.5,188.8 L 46.9,187.1 Q 61.7,179.9 66.7,168.5 Q 73,155.2 72,137 Z" fill="black" />
<path d="M 112.5,129 L 112.5,183 100.5,189 100.5,129 Z" fill="black" />
</svg>
