<svg xmlns="http://www.w3.org/2000/svg" xmlns:xlink="http://www.w3.org/1999/xlink" version="1.1" baseProfile="full" viewBox="0 0 200 200" width="200" height="200">
<path d="M 24.8,19.5 Q 35.4,20.6 42.2,24.7 Q 49.9,29.1 54.5,35.3 L 44.2,41.5 Q 41.9,36.1 37.2,31.6 Q 31.4,26.6 24.1,21.1 Z" fill="black" />
<path d="M 54.5,35.3 Q 56.7,40.2 52.4,43.5 Q 47.5,45.8 44.2,41.5 Z" fill="black" />
<path d="M 10.3,65.4 Q 21.7,66.6 28.7,70.6 Q 36.6,75.1 41,81.5 L 30.5,87.2 Q 28.6,82.1 23.8,77.6 Q 17.7,72.6 9.7,67.1 Z" fill="black" />
<path d="M 41,81.5 Q 43.1,86.5 38.6,89.6 Q 33.6,91.6 30.5,87.2 Z" fill="black" />
<path d="M 11.8,132.4 Q 26.7,135.1 33.9,147.7 Q 41.3,161.8 40.4,181.4 L 28.4,180.5 Q 30.3,160.8 26.2,151.4 Q 21.7,140.1 11.2,134.1 Z" fill="black" />
<path d="M 40.4,181.4 Q 39.4,186.7 33.9,186.9 Q 28.6,186 28.4,180.5 Z" fill="black" />
<path d="M 24.5,148.5 Q 27.4,141 36.7,121.6 Q 47.2,99.8 64.5,66.6 L 66.1,67.3 Q 51.2,105.8 44.5,124.8 Q 36.4,147 36.2,151.4 Z" fill="black" />
<path d="M 55,30.2 L 189.9,30.2 189.9,34.2 55,34.2 Z" fill="black" />
<path d="M 189.9,30.2 L 165.9,32.2 177.9,20.2 Z" fill="black" />
<path d="M 106.8,13.7 L 106.8,48 94.8,54 94.8,11.7 Z" fill="black" />
<path d="M 106.8,13.7 L 109.8,15.7 104.8,18.7 Z" fill="black" />
<path d="M 150.2,13.7 L 150.2,48 138.2,54 138.2,11.7 Z" fill="black" />
<path d="M 150.2,13.7 L 153.2,15.7 148.2,18.7 Z" fill="black" />
<path d="M 115.3,55.7 Q 105.6,69 93.4,79.1 Q 80.2,90.2 64.8,96.5 L 63.9,95 Q 78.2,83.2 87.6,72.9 Q 98.6,61 105.2,49.2 Z" fill="black" />
<path d="M 104.7,50 L 115.3,55.7 105.8,48.4 Z" fill="black" />
<path d="M 115.3,55.7 L 116.8,59 110.9,58.8 Z" fill="black" />
<path d="M 100,62.8 L 153.5,62.8 153.5,66.8 100,66.8 Z" fill="black" />
<path d="M 158.4,68.2 Q 142,88.9 117.3,103 Q 89.6,118.6 54.5,126.8 L 54,125.1 Q 91.6,110.6 112.9,95.8 Q 138,78.9 148.5,61.3 Z" fill="black" />
<path d="M 147.5,62.8 L 153.5,57.8 164.5,66.8 159.5,69.8 147.5,74.8 Z" fill="black" />
<path d="M 99.7,67.3 Q 117.7,84.7 137.3,94.8 Q 159.4,105.8 184.9,109.4 L 182.5,122.4 Q 152.4,115.8 132.7,102.9 Q 109.7,88.7 98.3,68.4 Z" fill="black" />
<path d="M 182.5,122.4 L 184.9,109.4 194.3,111.1 Z" fill="black" />
<path d="M 78.3,127.9 L 168.2,127.9 168.2,131.9 78.3,131.9 Z" fill="black" />
<path d="M 168.2,127.9 L 144.2,129.9 156.2,117.9 Z" fill="black" />
<path d="M 79.8,147.2 L 165.9,147.2 165.9,151.2 79.8,151.2 Z" fill="black" />
<path d="M 165.9,147.2 L 145.9,149.2 155.9,138.2 Z" fill="black" />
<path d="M 63.6,165.8 L 184.5,165.8 184.5,169.8 63.6,169.8 Z" fill="black" />
<path d="M 184.5,165.8 L 160.5,167.8 172.5,155.8 Z" fill="black" />
<path d="M 129.2,109.2 L 129.2,183.4 117.2,189.4 117.2,107.2 Z" fill="black" />
<path d="M 129.2,109.2 L 132.2,111.2 127.2,114.2 Z" fill="black" />
</svg>
