<svg xmlns="http://www.w3.org/2000/svg" xmlns:xlink="http://www.w3.org/1999/xlink" version="1.1" baseProfile="full" viewBox="0 0 200 200" width="200" height="200">
<path d="M 19.4,19.6 Q 27.8,20.6 33.5,25 Q 39.8,29.5 43.3,35.7 L 32.4,40.7 Q 30.8,35.5 27.7,31.2 Q 23.8,26.6 18.6,21.2 Z" fill="black" />
<path d="M 43.3,35.7 Q 45.1,40.9 40.4,43.7 Q 35.2,45.4 32.4,40.7 Z" fill="black" />
<path d="M 8.2,65.5 Q 17.3,66.6 23.1,71 Q 29.6,75.5 33,81.9 L 21.9,86.5 Q 20.6,81.5 17.4,77.2 Q 13.3,72.6 7.5,67.2 Z" fill="black" />
<path d="M 33,81.9 Q 34.5,87.1 29.8,89.7 Q 24.6,91.2 21.9,86.5 Z" fill="black" />
<path d="M 9.4,132.5 Q 21.7,135.1 27.2,148.1 Q 33,161.8 32.4,181.3 L 20.5,180.6 Q 22,160.8 19.2,151 Q 15.7,140.1 8.7,134.2 Z" fill="black" />
<path d="M 32.4,181.3 Q 31.5,186.6 26.1,186.9 Q 20.7,186 20.5,180.6 Z" fill="black" />
<path d="M 17.5,148.8 Q 20,141.5 27.2,121.9 Q 35.4,99.8 49.4,66.7 L 51.1,67.2 Q 40.4,105.8 35.3,124.5 Q 29,146.5 29.2,151.1 Z" fill="black" />
<path d="M 75.3,96.4 L 158.6,96.4 158.6,100.4 75.3,100.4 Z" fill="black" />
<path d="M 158.6,96.4 L 138.6,98.4 148.6,87.4 Z" fill="black" />
<path d="M 123,84 L 123,121.5 111,121.5 111,82 Z" fill="black" />
<path d="M 123,84 L 126,86 121,89 Z" fill="black" />
<path d="M 67.9,117.5 L 166,117.5 166,121.5 67.9,121.5 Z" fill="black" />
<path d="M 166,117.5 L 142,119.5 154,107.5 Z" fill="black" />
<path d="M 81.6,136.4 Q 85,145 84.5,151.8 Q 84.2,159.3 80.3,164.3 L 71.7,155.9 Q 74.2,154.3 76.1,150.1 Q 78,145 79.8,136.5 Z" fill="black" />
<path d="M 80.3,164.3 Q 76.2,167.7 71.9,164.4 Q 68.4,160.3 71.7,155.9 Z" fill="black" />
<path d="M 101.6,139.1 L 101.6,162.7 89.6,162.7 89.6,137.1 Z" fill="black" />
<path d="M 101.6,139.1 L 104.6,141.1 99.6,144.1 Z" fill="black" />
<path d="M 89.6,162.7 Q 90.2,168.1 95.6,168.7 Q 101,168.1 101.6,162.7 Z" fill="black" />
<path d="M 101.6,162.7 Q 102.1,166.1 102.3,165.9 Q 102.5,166.7 105.6,166.7 L 105.6,178.7 Q 98.5,178.7 93.8,174.4 Q 89.1,169.1 89.6,162.7 Z" fill="black" />
<path d="M 105.6,166.7 Q 111,167.2 111.6,172.7 Q 111,178.1 105.6,178.7 Z" fill="black" />
<path d="M 105.6,166.7 L 142.2,166.7 142.2,178.7 105.6,178.7 Z" fill="black" />
<path d="M 142.2,166.7 Q 147.6,167.2 148.2,172.7 Q 147.6,178.1 142.2,178.7 Z" fill="black" />
<path d="M 142.2,167.7 L 144.2,141.7 142.2,141.7 136.2,167.7 Z" fill="black" />
<path d="M 99.6,125.4 Q 105.8,124.8 110.7,127.8 Q 115.9,131 118.9,136.4 L 107.8,141 Q 106.9,137 105.1,134.1 Q 102.8,130.8 99,127.1 Z" fill="black" />
<path d="M 118.9,136.4 Q 120.4,141.7 115.6,144.3 Q 110.4,145.8 107.8,141 Z" fill="black" />
<path d="M 147.4,137.2 Q 154.4,140.2 157.9,145.5 Q 161.7,151 163.4,157.7 L 151.4,159.1 Q 151.7,154 150.3,149.4 Q 148.4,144.2 146.2,138.5 Z" fill="black" />
<path d="M 163.4,157.7 Q 163.4,163.2 158.1,164.4 Q 152.6,164.4 151.4,159.1 Z" fill="black" />
<path d="M 143.8,134.4 Q 130.1,152.8 111.7,163 Q 91.2,174.4 66.9,177.8 L 66.5,176.1 Q 92.2,167.4 107.2,155.9 Q 125.1,142.8 133.9,127.7 Z" fill="black" />
<path d="M 133.3,128.6 L 143.8,134.4 134.4,127 Z" fill="black" />
<path d="M 143.8,134.4 L 145.2,137.8 139.4,137.5 Z" fill="black" />
<path d="M 65.7,25 L 65.7,183 53.7,189 53.7,19 Z" fill="black" />
<path d="M 59.7,25 L 104,25 104,29 59.7,29 Z" fill="black" />
<path d="M 110,27 L 110,80 98,86 98,27 Z" fill="black" />
<path d="M 98,25 L 104,20 115,29 110,33 98,27 Z" fill="black" />
<path d="M 59.7,49 L 104,49 104,53 59.7,53 Z" fill="black" />
<path d="M 59.7,74 L 104,74 104,78 59.7,78 Z" fill="black" />
<path d="M 137.9,25 L 137.9,81 125.9,87 125.9,19 Z" fill="black" />
<path d="M 131.9,25 L 176.2,25 176.2,29 131.9,29 Z" fill="black" />
<path d="M 182.2,27 L 182.2,172 170.2,172 170.2,27 Z" fill="black" />
<path d="M 170.2,25 L 176.2,20 187.2,29 182.2,33 170.2,27 Z" fill="black" />
<path d="M 170.2,172 Q 170.8,177.4 176.2,178 Q 181.6,177.4 182.2,172 Z" fill="black" />
<path d="M 182.2,172 Q 182.2,178.9 177.9,183.7 Q 172.7,188.5 166.2,188 L 166.2,176 Q 169.7,175.5 169.4,175.2 Q 170.2,174.9 170.2,172 Z" fill="black" />
<path d="M 166.2,182 L 166.2,176 146.2,176 146.2,179 Z" fill="black" />
<path d="M 131.9,49 L 176.2,49 176.2,53 131.9,53 Z" fill="black" />
<path d="M 131.9,74 L 176.2,74 176.2,78 131.9,78 Z" fill="black" />
</svg>
