<svg xmlns="http://www.w3.org/2000/svg" xmlns:xlink="http://www.w3.org/1999/xlink" version="1.1" baseProfile="full" viewBox="0 0 200 200" width="200" height="200">
<path d="M 20.1,19.5 Q 28.9,20.6 34.7,25 Q 41.3,29.5 44.9,35.7 L 34.1,40.8 Q 32.3,35.5 29,31.3 Q 24.9,26.6 19.4,21.2 Z" fill="black" />
<path d="M 44.9,35.7 Q 46.7,40.8 42.1,43.7 Q 37,45.4 34.1,40.8 Z" fill="black" />
<path d="M 8.5,65.5 Q 17.9,66.6 23.9,70.9 Q 30.7,75.5 34.1,81.8 L 23.1,86.6 Q 21.7,81.5 18.3,77.3 Q 13.9,72.6 7.8,67.2 Z" fill="black" />
<path d="M 34.1,81.8 Q 35.7,87 31,89.7 Q 25.8,91.3 23.1,86.6 Z" fill="black" />
<path d="M 9.8,132.5 Q 22.5,135.1 28.1,148 Q 34.2,161.8 33.6,181.3 L 21.6,180.6 Q 23.2,160.8 20.2,151.1 Q 16.5,140.1 9.1,134.2 Z" fill="black" />
<path d="M 33.6,181.3 Q 32.7,186.7 27.2,186.9 Q 21.9,186 21.6,180.6 Z" fill="black" />
<path d="M 18.5,148.8 Q 21.1,141.5 28.6,121.8 Q 37,99.8 51.6,66.6 L 53.3,67.3 Q 42,105.8 36.6,124.6 Q 30.1,146.5 30.2,151.1 Z" fill="black" />
<path d="M 86.2,26 L 186.7,26 186.7,30 86.2,30 Z" fill="black" />
<path d="M 186.7,26 L 162.7,28 174.7,16 Z" fill="black" />
<path d="M 105.5,44 L 105.5,73 93.5,79 93.5,38 Z" fill="black" />
<path d="M 99.5,44 L 173.4,44 173.4,48 99.5,48 Z" fill="black" />
<path d="M 179.4,46 L 179.4,72 167.4,78 167.4,46 Z" fill="black" />
<path d="M 167.4,44 L 173.4,39 184.4,48 179.4,52 167.4,46 Z" fill="black" />
<path d="M 99.5,66 L 173.4,66 173.4,70 99.5,70 Z" fill="black" />
<path d="M 129.6,26 L 129.6,70 117.6,70 117.6,26 Z" fill="black" />
<path d="M 155.3,26 L 155.3,70 143.3,70 143.3,26 Z" fill="black" />
<path d="M 89.6,90 L 185.8,90 185.8,94 89.6,94 Z" fill="black" />
<path d="M 185.8,90 L 165.8,92 175.8,81 Z" fill="black" />
<path d="M 141.1,74.4 Q 131.1,93.2 118,106.7 Q 103.2,121.8 85.1,130.7 L 84.1,129.2 Q 101.2,114.8 111.6,101.1 Q 124.1,85.2 130.2,69.3 Z" fill="black" />
<path d="M 129.8,70.3 L 141.1,74.4 130.7,68.2 Z" fill="black" />
<path d="M 141.1,74.4 L 143,77.4 137.2,78.1 Z" fill="black" />
<path d="M 150.7,92.1 Q 161.4,100.2 169.3,105.8 Q 178.5,111.9 186.4,115.1 L 180.3,126.8 Q 170.5,120.9 163.3,113 Q 154.4,104.2 149.3,93.3 Z" fill="black" />
<path d="M 180.3,126.8 L 186.4,115.1 191.6,117.8 Z" fill="black" />
<path d="M 114.5,110 L 154.3,110 154.3,114 114.5,114 Z" fill="black" />
<path d="M 160.3,112 L 160.3,129 148.3,129 148.3,112 Z" fill="black" />
<path d="M 148.3,110 L 154.3,105 165.3,114 160.3,118 148.3,112 Z" fill="black" />
<path d="M 148.3,129 Q 148.9,134.4 154.3,135 Q 159.7,134.4 160.3,129 Z" fill="black" />
<path d="M 160.3,129 Q 160.3,135.9 156,140.7 Q 150.8,145.5 144.3,145 L 144.3,133 Q 147.8,132.5 147.6,132.2 Q 148.3,131.9 148.3,129 Z" fill="black" />
<path d="M 144.3,139 L 144.3,133 128.3,133 128.3,136 Z" fill="black" />
<path d="M 120.5,110 L 120.5,149 108.5,149 108.5,104 Z" fill="black" />
<path d="M 108.5,149 Q 109.1,154.4 114.5,155 Q 119.9,154.4 120.5,149 Z" fill="black" />
<path d="M 120.5,149 Q 121,152.4 121.2,152.2 Q 121.4,153 124.5,153 L 124.5,165 Q 117.4,165 112.7,160.7 Q 108,155.4 108.5,149 Z" fill="black" />
<path d="M 124.5,153 Q 129.9,153.6 130.5,159 Q 129.9,164.4 124.5,165 Z" fill="black" />
<path d="M 124.5,153 L 171.7,153 171.7,165 124.5,165 Z" fill="black" />
<path d="M 171.7,153 Q 177.1,153.6 177.7,159 Q 177.1,164.4 171.7,165 Z" fill="black" />
<path d="M 171.7,154 L 173.7,128 171.7,128 165.7,154 Z" fill="black" />
<path d="M 57.7,20.7 Q 67.1,23.2 73.4,28.1 Q 80.8,33.6 85.6,40.2 L 75.4,46.6 Q 71.8,39.6 67.6,34.3 Q 62.1,28.2 56.8,22.2 Z" fill="black" />
<path d="M 85.6,40.2 Q 87.9,45.1 83.7,48.5 Q 78.8,50.8 75.4,46.6 Z" fill="black" />
<path d="M 48.5,56.6 Q 57.5,58.1 64.5,63.2 Q 71.9,68.2 77.7,75 L 68,82 Q 63.9,75.2 59,69.7 Q 53.5,64.1 47.7,58.2 Z" fill="black" />
<path d="M 77.7,75 Q 80.4,79.7 76.4,83.4 Q 71.7,86.1 68,82 Z" fill="black" />
<path d="M 45.6,105 L 75.5,105 75.5,109 45.6,109 Z" fill="black" />
<path d="M 81.5,107 L 81.5,155 69.5,161 69.5,107 Z" fill="black" />
<path d="M 69.5,105 L 75.5,100 86.5,109 81.5,113 69.5,107 Z" fill="black" />
<path d="M 44.6,173.5 Q 53,168.7 60.8,163.7 Q 69.7,158 79,153.3 L 80.2,154.6 Q 72.7,164 66,170.4 Q 58,177.7 51.5,183.3 Z" fill="black" />
<path d="M 51.5,183.3 L 44.6,173.5 43,174.6 Z" fill="black" />
<path d="M 51.5,183.3 L 54.8,184.6 54.7,177.4 Z" fill="black" />
<path d="M 79.2,152.3 L 83.8,157 88.4,161 93.4,164.2 99.3,166.9 106.7,169.1 116.1,170.6 128,171.6 142.7,171.9 160.6,171.5 182.2,170.4 182.9,183.5 160.9,184 142.4,183.7 127.1,182.6 114.4,180.7 104.1,178 95.8,174.5 89.2,170.2 84.2,165.1 80.5,159.5 77.7,153.3 Z" fill="black" />
<path d="M 182.9,183.5 L 182.2,170.4 193.4,169.8 Z" fill="black" />
</svg>
