<svg xmlns="http://www.w3.org/2000/svg" xmlns:xlink="http://www.w3.org/1999/xlink" version="1.1" baseProfile="full" viewBox="0 0 200 200" width="200" height="200">
<path d="M 20.1,19.5 Q 28.9,20.6 34.7,25 Q 41.3,29.5 44.9,35.7 L 34.1,40.8 Q 32.3,35.5 29,31.3 Q 24.9,26.6 19.4,21.2 Z" fill="black" />
<path d="M 44.9,35.7 Q 46.7,40.8 42.1,43.7 Q 37,45.4 34.1,40.8 Z" fill="black" />
<path d="M 8.5,65.5 Q 17.9,66.6 23.9,70.9 Q 30.7,75.5 34.1,81.8 L 23.1,86.6 Q 21.7,81.5 18.3,77.3 Q 13.9,72.6 7.8,67.2 Z" fill="black" />
<path d="M 34.1,81.8 Q 35.7,87 31,89.7 Q 25.8,91.3 23.1,86.6 Z" fill="black" />
<path d="M 9.8,132.5 Q 22.5,135.1 28.1,148 Q 34.2,161.8 33.6,181.3 L 21.6,180.6 Q 23.2,160.8 20.2,151.1 Q 16.5,140.1 9.1,134.2 Z" fill="black" />
<path d="M 33.6,181.3 Q 32.7,186.7 27.2,186.9 Q 21.9,186 21.6,180.6 Z" fill="black" />
<path d="M 18.5,148.8 Q 21.1,141.5 28.6,121.8 Q 37,99.8 51.6,66.6 L 53.3,67.3 Q 42,105.8 36.6,124.6 Q 30.1,146.5 30.2,151.1 Z" fill="black" />
<path d="M 72,23 L 176,23 176,27 72,27 Z" fill="black" />
<path d="M 176,23 L 152,25 164,13 Z" fill="black" />
<path d="M 69.9,33 Q 72.5,45.8 70.9,54.8 Q 69.6,64.4 64.2,70.4 L 56.1,61.5 Q 59.6,59.4 62.7,52.6 Q 65.5,44.8 68.1,33 Z" fill="black" />
<path d="M 64.2,70.4 Q 59.8,73.6 55.7,70 Q 52.5,65.6 56.1,61.5 Z" fill="black" />
<path d="M 69,41 L 183,41 183,45 69,45 Z" fill="black" />
<path d="M 188.5,45.2 Q 185.5,50.4 182.2,54.7 Q 178.5,59.4 173.7,62.4 L 172.2,61.5 Q 173.5,55.4 174.7,50.7 Q 176.5,45.4 177.4,40.7 Z" fill="black" />
<path d="M 177,41 L 183,36 194,45 189,48 177,53 Z" fill="black" />
<path d="M 129,23 L 129,63 117,69 117,23 Z" fill="black" />
<path d="M 79.7,74.1 L 79.7,140.9 67.7,140.9 67.7,68.1 Z" fill="black" />
<path d="M 67.7,140.9 Q 68.3,146.3 73.7,146.9 Q 79.1,146.3 79.7,140.9 Z" fill="black" />
<path d="M 79.7,140.9 Q 78.7,161.3 73.7,174 Q 67.7,188 58.1,192.7 L 56.9,191.3 Q 63.7,183 65.6,171.5 Q 68.7,158.3 67.7,140.9 Z" fill="black" />
<path d="M 73.7,74.1 L 112.2,74.1 112.2,78.1 73.7,78.1 Z" fill="black" />
<path d="M 118.2,76.1 L 118.2,175.6 106.2,175.6 106.2,76.1 Z" fill="black" />
<path d="M 106.2,74.1 L 112.2,69.1 123.2,78.1 118.2,82.1 106.2,76.1 Z" fill="black" />
<path d="M 106.2,175.6 Q 106.8,181 112.2,181.6 Q 117.6,181 118.2,175.6 Z" fill="black" />
<path d="M 118.2,175.6 Q 118.2,182.5 113.9,187.3 Q 108.7,192.1 102.2,191.6 L 102.2,179.6 Q 105.7,179.1 105.4,178.8 Q 106.2,178.5 106.2,175.6 Z" fill="black" />
<path d="M 102.2,185.6 L 102.2,179.6 82.2,179.6 82.2,182.6 Z" fill="black" />
<path d="M 73.7,106.5 L 112.2,106.5 112.2,110.5 73.7,110.5 Z" fill="black" />
<path d="M 73.7,139.6 L 112.2,139.6 112.2,143.6 73.7,143.6 Z" fill="black" />
<path d="M 144.4,74.1 L 144.4,140.9 132.4,140.9 132.4,68.1 Z" fill="black" />
<path d="M 132.4,140.9 Q 133,146.3 138.4,146.9 Q 143.8,146.3 144.4,140.9 Z" fill="black" />
<path d="M 144.3,140.8 Q 143.7,161.7 138.3,174.5 Q 132,188.8 121.1,192.8 L 120.1,191.3 Q 128,182.8 130.3,171.7 Q 133.7,158.7 132.4,141 Z" fill="black" />
<path d="M 138.4,74.1 L 178.4,74.1 178.4,78.1 138.4,78.1 Z" fill="black" />
<path d="M 184.4,76.1 L 184.4,177 172.4,177 172.4,76.1 Z" fill="black" />
<path d="M 172.4,74.1 L 178.4,69.1 189.4,78.1 184.4,82.1 172.4,76.1 Z" fill="black" />
<path d="M 172.4,177 Q 173,182.4 178.4,183 Q 183.8,182.4 184.4,177 Z" fill="black" />
<path d="M 184.4,177 Q 184.4,183.9 180.1,188.7 Q 174.9,193.5 168.4,193 L 168.4,181 Q 171.9,180.5 171.6,180.2 Q 172.4,179.9 172.4,177 Z" fill="black" />
<path d="M 168.4,187 L 168.4,181 148.4,181 148.4,184 Z" fill="black" />
<path d="M 138.4,106.5 L 178.4,106.5 178.4,110.5 138.4,110.5 Z" fill="black" />
<path d="M 138.4,139.6 L 178.4,139.6 178.4,143.6 138.4,143.6 Z" fill="black" />
</svg>
