<svg xmlns="http://www.w3.org/2000/svg" xmlns:xlink="http://www.w3.org/1999/xlink" version="1.1" baseProfile="full" viewBox="0 0 200 200" width="200" height="200">
<path d="M 19.4,19.6 Q 26.8,21.2 32,25.3 Q 37.5,30 40.8,35.9 L 29.6,40.4 Q 28.5,35 25.8,31 Q 22.8,26.2 18.5,21.2 Z" fill="black" />
<path d="M 40.8,35.9 Q 42.2,41.2 37.4,43.7 Q 32.2,45.2 29.6,40.4 Z" fill="black" />
<path d="M 9.7,65.6 Q 17.7,66.6 23,71.2 Q 28.6,76 31.8,82.1 L 20.5,86.2 Q 19.6,81 16.9,77 Q 13.7,72.6 8.9,67.2 Z" fill="black" />
<path d="M 31.8,82.1 Q 33.1,87.4 28.2,89.8 Q 22.9,91 20.5,86.2 Z" fill="black" />
<path d="M 10.7,132.6 Q 21.7,135.6 26.6,148.3 Q 31.8,161.8 31.3,181.2 L 19.3,180.7 Q 20.8,160.8 18.5,150.8 Q 15.7,139.6 9.9,134.2 Z" fill="black" />
<path d="M 31.3,181.2 Q 30.4,186.6 25,186.9 Q 19.7,186.1 19.3,180.7 Z" fill="black" />
<path d="M 16.7,149 Q 18.6,141.5 25.4,122.1 Q 32.7,99.8 45.1,66.7 L 46.8,67.2 Q 37.7,105.8 33.6,124.3 Q 28.6,146.5 28.5,150.9 Z" fill="black" />
<path d="M 83.7,18.6 L 83.7,114.8 71.7,114.8 71.7,16.6 Z" fill="black" />
<path d="M 83.7,18.6 L 86.7,20.6 81.7,23.6 Z" fill="black" />
<path d="M 71.7,114.8 Q 72.3,120.2 77.7,120.8 Q 83.1,120.2 83.7,114.8 Z" fill="black" />
<path d="M 83.7,114.8 Q 83.7,121.8 79.4,126.6 Q 74.2,131.3 67.7,130.8 L 67.7,118.8 Q 71.2,118.3 70.9,118.1 Q 71.7,117.8 71.7,114.8 Z" fill="black" />
<path d="M 67.7,124.8 L 67.7,118.8 49.7,118.8 49.7,121.8 Z" fill="black" />
<path d="M 67.4,58.4 Q 64.5,74 59.4,87.1 Q 53.7,101.3 45.6,112.6 L 44,111.7 Q 48.7,97.3 51.3,84.6 Q 54.5,70 55.5,56.8 Z" fill="black" />
<path d="M 55.3,57.8 L 67.4,58.4 55.8,54.7 Z" fill="black" />
<path d="M 67.4,58.4 L 70.1,60.7 64.7,63.1 Z" fill="black" />
<path d="M 89.1,53.8 Q 98.1,60.7 103.7,69.4 Q 109.8,78.9 113.5,89.1 L 102,92.4 Q 99.8,81.9 96.2,73.4 Q 92.1,63.7 87.7,55 Z" fill="black" />
<path d="M 113.5,89.1 Q 114.5,94.4 109.4,96.5 Q 104.1,97.4 102,92.4 Z" fill="black" />
<path d="M 105.4,106 Q 95.1,138.3 78.4,157.6 Q 59.9,178.9 36.4,187.1 L 35.6,185.4 Q 58.9,171.9 71.7,152.4 Q 87.1,130.3 93.8,102.7 Z" fill="black" />
<path d="M 93.5,103.7 L 105.4,106 94.3,101.1 Z" fill="black" />
<path d="M 105.4,106 L 107.7,108.7 102.1,110.2 Z" fill="black" />
<path d="M 108.1,32 L 193.6,32 193.6,36 108.1,36 Z" fill="black" />
<path d="M 193.6,32 L 169.6,34 181.6,22 Z" fill="black" />
<path d="M 141.5,13 L 141.5,50 129.5,56 129.5,11 Z" fill="black" />
<path d="M 141.5,13 L 144.5,15 139.5,18 Z" fill="black" />
<path d="M 169,13 L 169,49 157,55 157,11 Z" fill="black" />
<path d="M 169,13 L 172,15 167,18 Z" fill="black" />
<path d="M 128.3,59 L 128.3,116 116.3,122 116.3,53 Z" fill="black" />
<path d="M 122.3,59 L 175.7,59 175.7,63 122.3,63 Z" fill="black" />
<path d="M 181.7,61 L 181.7,113 169.7,119 169.7,61 Z" fill="black" />
<path d="M 169.7,59 L 175.7,54 186.7,63 181.7,67 169.7,61 Z" fill="black" />
<path d="M 122.3,81 L 173.6,81 173.6,85 122.3,85 Z" fill="black" />
<path d="M 122.3,105 L 175.7,105 175.7,109 122.3,109 Z" fill="black" />
<path d="M 105.4,135 L 192.6,135 192.6,139 105.4,139 Z" fill="black" />
<path d="M 192.6,135 L 168.6,137 180.6,125 Z" fill="black" />
<path d="M 155.7,112.5 Q 151.4,147.1 138.2,165.7 Q 123,186.4 100.9,188.8 L 100.5,187.1 Q 122,178.4 131,161.1 Q 142.4,141.1 143.7,111.4 Z" fill="black" />
<path d="M 143.6,112.4 L 155.7,112.5 143.9,109.3 Z" fill="black" />
<path d="M 155.7,112.5 L 158.5,114.7 153.2,117.3 Z" fill="black" />
<path d="M 149.9,137.7 Q 158.4,155.7 167,163.9 Q 176.4,172.4 186.4,173.5 L 183.9,186.4 Q 168.4,182.4 159.9,170 Q 150.4,156.7 148.2,138.2 Z" fill="black" />
<path d="M 183.9,186.4 L 186.4,173.5 195.7,175.3 Z" fill="black" />
</svg>
