<svg xmlns="http://www.w3.org/2000/svg" xmlns:xlink="http://www.w3.org/1999/xlink" version="1.1" baseProfile="full" viewBox="0 0 200 200" width="200" height="200">
<path d="M 28.6,13.1 Q 38.4,13.3 44.7,15.5 Q 52.1,17.7 56.2,22.1 L 47,29.7 Q 45.1,26.7 40.8,23 Q 35.4,19.3 28.2,14.9 Z" fill="black" />
<path d="M 56.2,22.1 Q 59.2,26.6 55.4,30.5 Q 50.9,33.5 47,29.7 Z" fill="black" />
<path d="M 14.8,44.8 Q 25.3,45 31.8,47.1 Q 38.9,49.4 43.5,53.9 L 33.9,61.1 Q 32.9,58.4 28.1,54.8 Q 22.3,51 14.4,46.6 Z" fill="black" />
<path d="M 43.5,53.9 Q 46.2,58.6 42.3,62.3 Q 37.6,65.1 33.9,61.1 Z" fill="black" />
<path d="M 16.3,91 Q 30.2,91.8 37.2,100.5 Q 44.7,110.2 43.8,124.4 L 31.9,123.2 Q 33.7,111.2 30.2,105.3 Q 26.2,97.8 15.9,92.8 Z" fill="black" />
<path d="M 43.8,124.4 Q 42.7,129.7 37.3,129.8 Q 32,128.7 31.9,123.2 Z" fill="black" />
<path d="M 28.3,101.4 Q 31.4,95.8 40.1,82.8 Q 49.9,67.9 66.5,45.7 L 68.1,46.6 Q 53.9,73.9 47.4,87.1 Q 39.4,102.8 39.6,105.4 Z" fill="black" />
<path d="M 89.5,15.8 L 89.5,56.4 77.5,62.4 77.5,9.8 Z" fill="black" />
<path d="M 83.5,15.8 L 155.4,15.8 155.4,19.8 83.5,19.8 Z" fill="black" />
<path d="M 161.4,17.8 L 161.4,53.4 149.4,59.4 149.4,17.8 Z" fill="black" />
<path d="M 149.4,15.8 L 155.4,10.8 166.4,19.8 161.4,23.8 149.4,17.8 Z" fill="black" />
<path d="M 83.5,49.4 L 155.4,49.4 155.4,53.4 83.5,53.4 Z" fill="black" />
<path d="M 165.9,72.4 Q 156.3,74.9 134,76 Q 108.7,77.6 71,77.1 L 70.9,75.4 Q 112.7,70.6 133.1,67.6 Q 157.3,63.9 161.7,61.2 Z" fill="black" />
<path d="M 160.8,61.5 L 165.9,72.4 171.1,70.5 Z" fill="black" />
<path d="M 171.1,70.5 L 171.3,73.6 164.7,70.7 Z" fill="black" />
<path d="M 68.6,95.3 L 171.9,95.3 171.9,99.3 68.6,99.3 Z" fill="black" />
<path d="M 171.9,95.3 L 147.9,97.3 159.9,85.3 Z" fill="black" />
<path d="M 56.6,123.3 L 183.1,123.3 183.1,127.3 56.6,127.3 Z" fill="black" />
<path d="M 183.1,123.3 L 159.1,125.3 171.1,113.3 Z" fill="black" />
<path d="M 125.5,72.2 L 125.5,127.3 113.5,127.3 113.5,72.2 Z" fill="black" />
<path d="M 27,147.8 L 173,147.8 173,151.8 27,151.8 Z" fill="black" />
<path d="M 173,147.8 L 149,149.8 161,137.8 Z" fill="black" />
<path d="M 106,130.3 L 106,180 94,180 94,128.3 Z" fill="black" />
<path d="M 106,130.3 L 109,132.3 104,135.3 Z" fill="black" />
<path d="M 14,176 L 186,176 186,180 14,180 Z" fill="black" />
<path d="M 186,176 L 162,178 174,166 Z" fill="black" />
</svg>
