<svg xmlns="http://www.w3.org/2000/svg" xmlns:xlink="http://www.w3.org/1999/xlink" version="1.1" baseProfile="full" viewBox="0 0 200 200" width="200" height="200">
<path d="M 58.9,16.3 L 56.7,31.6 53.9,45 50.4,56.7 46.1,66.9 41.1,75.8 35.5,83.4 29.1,89.8 22,95.2 14.3,99.8 6,103.6 5.1,102 12.3,96.6 18.7,91 24.4,85.1 29.5,78.7 33.8,71.5 37.6,63.2 40.8,53.6 43.4,42.6 45.5,29.9 46.9,15.2 Z" fill="black" />
<path d="M 46.8,16.2 L 58.9,16.3 47.1,13.1 Z" fill="black" />
<path d="M 58.9,16.3 L 61.7,18.6 56.4,21.1 Z" fill="black" />
<path d="M 51.6,44.1 Q 61.4,65.4 70.7,75.4 Q 81.6,86.1 92.5,86.7 L 90,99.7 Q 72.6,95.1 63.5,81.3 Q 52.4,66.4 49.9,44.6 Z" fill="black" />
<path d="M 90,99.7 L 92.5,86.7 101.8,88.5 Z" fill="black" />
<path d="M 30.8,21.2 Q 31.7,39.9 29.2,50.7 Q 27,62.9 21.6,69 L 13.3,60.3 Q 17,57.9 21,48.3 Q 24.7,36.9 29,21 Z" fill="black" />
<path d="M 21.6,69 Q 17.2,72.3 13.1,68.8 Q 9.8,64.5 13.3,60.3 Z" fill="black" />
<path d="M 89.1,26.9 Q 86.2,35.7 80.6,47.7 Q 74.7,61.1 66.1,77.7 L 64.4,77 Q 69.7,57.1 72.6,44.9 Q 76.2,30.7 77.5,23.7 Z" fill="black" />
<path d="M 77.3,24.7 L 89.1,26.9 78,22.1 Z" fill="black" />
<path d="M 89.1,26.9 L 91.5,29.6 85.9,31.2 Z" fill="black" />
<path d="M 9.1,110.2 L 92.8,110.2 92.8,114.2 9.1,114.2 Z" fill="black" />
<path d="M 92.8,110.2 L 68.8,112.2 80.8,100.2 Z" fill="black" />
<path d="M 58,110.2 L 58,172.9 46,172.9 46,110.2 Z" fill="black" />
<path d="M 46,172.9 Q 46.6,178.3 52,178.9 Q 57.4,178.3 58,172.9 Z" fill="black" />
<path d="M 58,172.9 Q 58,179.8 53.7,184.6 Q 48.5,189.4 42,188.9 L 42,176.9 Q 45.5,176.4 45.2,176.1 Q 46,175.8 46,172.9 Z" fill="black" />
<path d="M 42,182.9 L 42,176.9 28,176.9 28,179.9 Z" fill="black" />
<path d="M 93,26 L 188.5,26 188.5,30 93,30 Z" fill="black" />
<path d="M 188.5,26 L 164.5,28 176.5,16 Z" fill="black" />
<path d="M 148,30.7 Q 142.9,38.4 137.6,44.8 Q 131.3,51.9 124.2,56.5 L 122.9,55.4 Q 127.3,46.9 130.6,40.1 Q 134.9,32.4 137.3,25.2 Z" fill="black" />
<path d="M 116.2,54 L 116.2,151 104.2,157 104.2,48 Z" fill="black" />
<path d="M 110.2,54 L 169.4,54 169.4,58 110.2,58 Z" fill="black" />
<path d="M 175.4,56 L 175.4,144 163.4,150 163.4,56 Z" fill="black" />
<path d="M 163.4,54 L 169.4,49 180.4,58 175.4,62 163.4,56 Z" fill="black" />
<path d="M 110.2,83 L 169.4,83 169.4,87 110.2,87 Z" fill="black" />
<path d="M 110.2,111 L 169.4,111 169.4,115 110.2,115 Z" fill="black" />
<path d="M 110.2,140 L 169.4,140 169.4,144 110.2,144 Z" fill="black" />
<path d="M 133.6,162 Q 123.4,170.7 110,177 Q 95.6,184.4 78,188.8 L 77.4,187.1 Q 94.6,177.4 105.7,169.7 Q 118.4,160.7 125.4,153.3 Z" fill="black" />
<path d="M 124.7,153.9 L 133.6,162 125.6,153 Z" fill="black" />
<path d="M 133.6,162 L 134.2,165.6 128.6,164 Z" fill="black" />
<path d="M 145.8,153.5 Q 158.4,155.6 167.5,161.2 Q 177.6,167.2 184.6,174.9 L 175.2,182.3 Q 169.6,174.2 162.7,168.2 Q 154.4,161.6 145.2,155.2 Z" fill="black" />
<path d="M 184.6,174.9 Q 187.5,179.5 183.7,183.3 Q 179.1,186.2 175.2,182.3 Z" fill="black" />
</svg>
