<svg xmlns="http://www.w3.org/2000/svg" xmlns:xlink="http://www.w3.org/1999/xlink" version="1.1" baseProfile="full" viewBox="0 0 200 200" width="200" height="200">
<path d="M 20.3,53.8 Q 25.1,70.8 24.7,83.2 Q 24.3,97.1 20.1,106.2 L 9.5,100.4 Q 14.3,93.1 16.2,82.4 Q 18.1,69.8 18.6,54.1 Z" fill="black" />
<path d="M 20.1,106.2 Q 16.9,110.7 11.9,108.6 Q 7.5,105.5 9.5,100.4 Z" fill="black" />
<path d="M 69,55.3 Q 63.7,61.3 56.5,68.3 Q 49,75.9 39.4,83.5 L 38,82.4 Q 45,70.9 50,63 Q 55.7,54.3 59.4,48.2 Z" fill="black" />
<path d="M 58.8,49 L 69,55.3 59.8,47.6 Z" fill="black" />
<path d="M 69,55.3 L 70.2,58.7 64.4,58.2 Z" fill="black" />
<path d="M 44.7,19 L 44.7,95 32.7,95 32.7,17 Z" fill="black" />
<path d="M 44.7,19 L 47.7,21 42.7,24 Z" fill="black" />
<path d="M 32.7,95 Q 33.3,100.4 38.7,101 Q 44.1,100.4 44.7,95 Z" fill="black" />
<path d="M 44.7,95 Q 43.7,128.6 35.3,150.3 Q 25.9,174.3 9.5,185.6 L 8.3,184.3 Q 21.9,168.3 27.2,147.6 Q 33.7,123.6 32.7,95 Z" fill="black" />
<path d="M 39.3,121.1 Q 50.1,129.7 56.3,138.2 Q 63,147.9 66.1,156.5 L 54.5,159.6 Q 53,150.9 49,142.6 Q 44.1,132.7 37.9,122.3 Z" fill="black" />
<path d="M 66.1,156.5 Q 66.9,161.9 61.8,163.9 Q 56.4,164.6 54.5,159.6 Z" fill="black" />
<path d="M 72.3,30.6 L 121.3,30.6 121.3,34.6 72.3,34.6 Z" fill="black" />
<path d="M 127.3,32.6 Q 127.3,53.1 126,66.1 Q 124.8,80.1 121.8,87.4 L 110.6,83.1 Q 112.8,77.1 114,64.9 Q 115.3,51.1 115.3,32.6 Z" fill="black" />
<path d="M 115.3,30.6 L 121.3,25.6 132.3,34.6 127.3,37.6 115.3,42.6 Z" fill="black" />
<path d="M 121.8,87.4 Q 119.3,92.3 114.1,90.9 Q 109.2,88.4 110.6,83.1 Z" fill="black" />
<path d="M 121.8,87.4 Q 119.4,93.9 114.4,97.2 Q 108.7,100.6 102.6,100.6 L 102.6,88.6 Q 106.7,88.6 107.6,87.3 Q 109.4,85.9 110.6,83.1 Z" fill="black" />
<path d="M 102.6,94.6 L 102.6,88.6 82.6,88.6 82.6,91.6 Z" fill="black" />
<path d="M 99.9,32.8 Q 97.9,60.2 90.1,76 Q 81.1,93.8 67.4,99.1 L 66.5,97.6 Q 78.1,87.8 82.3,72.8 Q 87.9,55.2 87.9,32.3 Z" fill="black" />
<path d="M 82.3,114.2 L 82.3,179.8 70.3,185.8 70.3,108.2 Z" fill="black" />
<path d="M 76.3,114.2 L 118,114.2 118,118.2 76.3,118.2 Z" fill="black" />
<path d="M 124,116.2 L 124,172.8 112,178.8 112,116.2 Z" fill="black" />
<path d="M 112,114.2 L 118,109.2 129,118.2 124,122.2 112,116.2 Z" fill="black" />
<path d="M 76.3,168.8 L 118,168.8 118,172.8 76.3,172.8 Z" fill="black" />
<path d="M 132.6,61.6 L 183.6,61.6 183.6,65.6 132.6,65.6 Z" fill="black" />
<path d="M 189.6,63.6 Q 189.6,109.6 187.8,135.2 Q 186,162.9 181.9,172.7 L 170.8,168.2 Q 174,159.9 175.8,134.4 Q 177.6,105.6 177.6,63.6 Z" fill="black" />
<path d="M 177.6,61.6 L 183.6,56.6 194.6,65.6 189.6,68.6 177.6,73.6 Z" fill="black" />
<path d="M 181.9,172.7 Q 179.3,177.5 174.1,176 Q 169.3,173.5 170.8,168.2 Z" fill="black" />
<path d="M 181.9,172.7 Q 179.4,179.1 174.3,182.4 Q 168.6,185.8 162.5,185.8 L 162.5,173.8 Q 166.6,173.8 167.6,172.5 Q 169.4,171.1 170.8,168.2 Z" fill="black" />
<path d="M 162.5,179.8 L 162.5,173.8 142.5,173.8 142.5,176.8 Z" fill="black" />
<path d="M 163,18.1 L 163,62.6 151,62.6 151,16.1 Z" fill="black" />
<path d="M 163,18.1 L 166,20.1 161,23.1 Z" fill="black" />
<path d="M 151,62.6 Q 151.6,68 157,68.6 Q 162.4,68 163,62.6 Z" fill="black" />
<path d="M 163,62.6 Q 162,113.1 152.4,143.3 Q 141.8,176.5 122.9,189.5 L 121.7,188.2 Q 137.8,170.5 144.2,141 Q 152,107.1 151,62.6 Z" fill="black" />
</svg>
