<svg xmlns="http://www.w3.org/2000/svg" xmlns:xlink="http://www.w3.org/1999/xlink" version="1.1" baseProfile="full" viewBox="0 0 200 200" width="200" height="200">
<g fill="black">
<polygon points="22.6,53.8 24.4,60.2 25.7,66.3 26.5,72.2 26.9,77.9 27,83.3 26.7,88.4 26,93.3 24.9,98 23.5,102.4 21.6,106.5 11.3,100.3 13.2,97.5 14.8,94.3 16.3,90.8 17.5,86.8 18.6,82.4 19.4,77.5 20,72.3 20.3,66.6 20.6,60.6 20.8,54.1 " />
<polygon points="21.6,106.5 17.8,109.2 13.3,108.5 10.7,104.8 11.3,100.3 " />
<polygon points="76.1,55.6 73.7,57.9 71.1,60.3 68.4,62.9 65.5,65.6 62.3,68.4 59.1,71.3 55.6,74.2 51.9,77.3 47.9,80.4 43.8,83.6 42.5,82.3 45.5,78.1 48.3,74 51.1,70.1 53.8,66.4 56.3,62.9 58.8,59.6 61,56.4 63.1,53.4 65.1,50.6 66.9,47.9 " />
<polygon points="66.3,48.7 76.1,55.6 67.3,47.4 " />
<polygon points="76.1,55.6 77.2,59 71.4,58.1 " />
<polygon points="49.1,19 49.1,95 37.1,95 37.1,17 " />
<polygon points="49.1,19 52.1,21 47.1,24 " />
<polygon points="37.1,95 39.5,98.6 43.1,101 46.7,98.6 49.1,95 " />
<polygon points="49.1,95 48.5,107.5 47.1,119.3 45.1,130.5 42.3,140.8 38.8,150.4 34.6,159.2 29.6,167.2 24,174.4 17.6,180.5 10.5,185.6 9.3,184.3 14.9,177.9 19.7,171.1 24,163.8 27.7,155.9 30.8,147.5 33.3,138.4 35.2,128.6 36.5,118.1 37.1,106.9 37.1,95 " />
<polygon points="43.6,121 47.9,124.3 52,127.7 55.6,131.1 59,134.6 62.1,138.1 64.8,141.7 67.3,145.3 69.5,149 71.3,152.7 72.9,156.4 61.4,159.7 60.7,156.6 59.8,153.3 58.5,149.9 57,146.3 55.2,142.7 53.2,138.9 50.8,135 48.2,130.9 45.5,126.6 42.3,122.3 " />
<polygon points="72.9,156.4 72.4,160.9 68.8,163.8 64.3,163.3 61.4,159.7 " />
<polygon points="62.3,35 184.7,35 184.7,39 62.3,39 " />
<polygon points="184.7,35 160.7,37 172.7,25 " />
<polygon points="106.5,16 106.5,73 94.5,79 94.5,14 " />
<polygon points="106.5,16 109.5,18 104.5,21 " />
<polygon points="152.4,16 152.4,70 140.4,76 140.4,14 " />
<polygon points="152.4,16 155.4,18 150.4,21 " />
<polygon points="100.5,62 146.4,62 146.4,66 100.5,66 " />
<polygon points="88.1,87 88.1,127 76.1,133 76.1,81 " />
<polygon points="82.1,87 165.5,87 165.5,91 82.1,91 " />
<polygon points="171.5,89 171.5,124 159.5,130 159.5,89 " />
<polygon points="159.5,87 165.5,82 176.5,91 171.5,95 159.5,89 " />
<polygon points="82.1,116 165.5,116 165.5,120 82.1,120 " />
<polygon points="129.5,62 129.5,184 117.5,184 117.5,62 " />
<polygon points="75.3,146 173.2,146 173.2,150 75.3,150 " />
<polygon points="173.2,146 149.2,148 161.2,136 " />
<polygon points="63,180 183.9,180 183.9,184 63,184 " />
<polygon points="183.9,180 159.9,182 171.9,170 " />
</g>
</svg>
