<svg xmlns="http://www.w3.org/2000/svg" xmlns:xlink="http://www.w3.org/1999/xlink" version="1.1" baseProfile="full" viewBox="0 0 200 200" width="200" height="200">
<path d="M 27,53.8 Q 32.5,70.8 31.6,83.4 Q 30.9,97.2 24.6,107.1 L 14.9,100 Q 20.9,93.2 23.2,82.3 Q 25.5,69.8 25.2,54.1 Z" fill="black" />
<path d="M 24.6,107.1 Q 20.9,111.1 16.2,108.4 Q 12.2,104.7 14.9,100 Z" fill="black" />
<path d="M 90.5,55.9 Q 83.2,61.7 74.4,68.8 Q 64.6,76.4 52.5,83.6 L 51.4,82.3 Q 61.6,70.4 68.7,62.5 Q 77.2,53.7 82,47.4 Z" fill="black" />
<path d="M 81.3,48.1 L 90.5,55.9 82.3,47.1 Z" fill="black" />
<path d="M 90.5,55.9 L 91.2,59.4 85.5,58 Z" fill="black" />
<path d="M 58,19 L 58,95 46,95 46,17 Z" fill="black" />
<path d="M 58,19 L 61,21 56,24 Z" fill="black" />
<path d="M 46,95 Q 46.6,100.4 52,101 Q 57.4,100.4 58,95 Z" fill="black" />
<path d="M 58,95 Q 57,128.6 45.8,150.7 Q 33.6,174.8 12.5,185.7 L 11.4,184.2 Q 30.6,167.8 38.1,147.2 Q 47,123.6 46,95 Z" fill="black" />
<path d="M 52.3,120.9 Q 66.2,129.2 74,137.8 Q 82.9,146.9 86.6,156.1 L 75.3,160.1 Q 72.9,151.9 67.3,143.1 Q 60.2,133.2 51.1,122.3 Z" fill="black" />
<path d="M 86.6,156.1 Q 87.8,161.4 82.9,163.8 Q 77.6,165 75.3,160.1 Z" fill="black" />
<path d="M 123.6,20.1 Q 117.9,43.2 109.3,60.6 Q 99.6,80.3 86.7,93.5 L 85.2,92.4 Q 95.6,74.3 101.5,57.3 Q 108.9,37.2 111.9,17.7 Z" fill="black" />
<path d="M 111.7,18.7 L 123.6,20.1 112.2,15.9 Z" fill="black" />
<path d="M 123.6,20.1 L 126.2,22.7 120.7,24.6 Z" fill="black" />
<path d="M 86,107 L 188,107 188,111 86,111 Z" fill="black" />
<path d="M 188,107 L 164,109 176,97 Z" fill="black" />
<path d="M 141,54 L 141,183 129,189 129,54 Z" fill="black" />
<path d="M 104,54 L 178,54 178,58 104,58 Z" fill="black" />
<path d="M 178,54 L 154,56 166,44 Z" fill="black" />
</svg>
