<svg xmlns="http://www.w3.org/2000/svg" xmlns:xlink="http://www.w3.org/1999/xlink" version="1.1" baseProfile="full" viewBox="0 0 200 200" width="200" height="200">
<path d="M 24.9,53.8 Q 30.2,70.8 29.5,83.3 Q 28.8,97.1 23.2,106.8 L 13.2,100.1 Q 18.8,93.1 21,82.3 Q 23.2,69.8 23.1,54.1 Z" fill="black" />
<path d="M 23.2,106.8 Q 19.6,111 14.8,108.4 Q 10.7,104.9 13.2,100.1 Z" fill="black" />
<path d="M 83.7,55.7 Q 77.2,61.8 68.8,68.6 Q 59.5,76.4 48.4,83.6 L 47.2,82.3 Q 56.5,70.4 62.8,62.6 Q 70.2,53.8 74.9,47.6 Z" fill="black" />
<path d="M 74.2,48.4 L 83.7,55.7 75.2,47.3 Z" fill="black" />
<path d="M 83.7,55.7 L 84.6,59.3 78.9,58.1 Z" fill="black" />
<path d="M 53.8,19 L 53.8,95 41.8,95 41.8,17 Z" fill="black" />
<path d="M 53.8,19 L 56.8,21 51.8,24 Z" fill="black" />
<path d="M 41.8,95 Q 42.4,100.4 47.8,101 Q 53.2,100.4 53.8,95 Z" fill="black" />
<path d="M 53.8,95 Q 52.8,128.6 42.5,150.6 Q 31.1,174.8 11.5,185.7 L 10.5,184.2 Q 28.1,167.8 34.7,147.3 Q 42.8,123.6 41.8,95 Z" fill="black" />
<path d="M 48.2,121 Q 61.2,129.2 68.4,137.9 Q 76.7,147.4 80.2,156.3 L 68.8,159.9 Q 66.7,151.4 61.6,142.9 Q 55.2,133.2 47,122.3 Z" fill="black" />
<path d="M 80.2,156.3 Q 81.3,161.6 76.3,163.8 Q 71,164.9 68.8,159.9 Z" fill="black" />
<path d="M 125,19.3 Q 116.3,36.7 104.7,53.2 Q 92.1,71.3 75.6,87.5 L 74.3,86.4 Q 88.1,65.3 97.5,48.7 Q 108.3,29.7 114.1,14.4 Z" fill="black" />
<path d="M 113.7,15.4 L 125,19.3 114.6,13.2 Z" fill="black" />
<path d="M 125,19.3 L 127,22.3 121.2,23.1 Z" fill="black" />
<path d="M 109,36 L 157,36 157,40 109,40 Z" fill="black" />
<path d="M 162.1,41 Q 156.5,48.9 150.4,55.5 Q 143.5,62.9 135.6,68.5 L 134.3,67.4 Q 139.5,57.9 143.5,50.4 Q 148.5,41.9 151.8,34.9 Z" fill="black" />
<path d="M 151,36 L 157,31 168,40 163,43 151,48 Z" fill="black" />
<path d="M 105,65 L 105,104 93,104 93,59 Z" fill="black" />
<path d="M 93,104 Q 93.6,109.4 99,110 Q 104.4,109.4 105,104 Z" fill="black" />
<path d="M 105,104 Q 104,138.6 93.6,158.9 Q 81.6,181.4 62.3,187.8 L 61.6,186.1 Q 79.6,174.4 85.8,155.5 Q 94,133.6 93,104 Z" fill="black" />
<path d="M 99,65 L 187,65 187,69 99,69 Z" fill="black" />
<path d="M 187,65 L 163,67 175,55 Z" fill="black" />
<path d="M 123,93 L 164,93 164,97 123,97 Z" fill="black" />
<path d="M 170,95 L 170,134 158,134 158,95 Z" fill="black" />
<path d="M 158,93 L 164,88 175,97 170,101 158,95 Z" fill="black" />
<path d="M 158,134 Q 158.6,139.4 164,140 Q 169.4,139.4 170,134 Z" fill="black" />
<path d="M 170,134 Q 170,140.9 165.7,145.7 Q 160.5,150.5 154,150 L 154,138 Q 157.5,137.5 157.2,137.2 Q 158,136.9 158,134 Z" fill="black" />
<path d="M 154,144 L 154,138 134,138 134,141 Z" fill="black" />
<path d="M 129,93 L 129,166 117,166 117,87 Z" fill="black" />
<path d="M 117,166 Q 117.6,171.4 123,172 Q 128.4,171.4 129,166 Z" fill="black" />
<path d="M 129,166 Q 129.5,169.4 129.7,169.2 Q 129.9,170 133,170 L 133,182 Q 125.9,182 121.2,177.7 Q 116.5,172.4 117,166 Z" fill="black" />
<path d="M 133,170 Q 138.4,170.6 139,176 Q 138.4,181.4 133,182 Z" fill="black" />
<path d="M 133,170 L 183,170 183,182 133,182 Z" fill="black" />
<path d="M 183,170 Q 188.4,170.6 189,176 Q 188.4,181.4 183,182 Z" fill="black" />
<path d="M 183,171 L 185,145 183,145 177,171 Z" fill="black" />
</svg>
