<svg xmlns="http://www.w3.org/2000/svg" xmlns:xlink="http://www.w3.org/1999/xlink" version="1.1" baseProfile="full" viewBox="0 0 200 200" width="200" height="200">
<path d="M 21.1,53.8 Q 26,70.8 25.5,83.2 Q 25.1,97.1 20.6,106.3 L 10.2,100.4 Q 15.1,93.1 17.1,82.4 Q 19,69.8 19.3,54.1 Z" fill="black" />
<path d="M 20.6,106.3 Q 17.4,110.7 12.4,108.6 Q 8,105.4 10.2,100.4 Z" fill="black" />
<path d="M 71.5,55.4 Q 65.6,61.8 58.6,68.4 Q 50.9,75.9 40.9,83.6 L 39.6,82.3 Q 46.9,70.9 52.2,62.9 Q 58.6,53.8 62,48.1 Z" fill="black" />
<path d="M 61.4,48.9 L 71.5,55.4 62.5,47.5 Z" fill="black" />
<path d="M 71.5,55.4 L 72.7,58.8 66.9,58.1 Z" fill="black" />
<path d="M 46.3,19 L 46.3,95 34.3,95 34.3,17 Z" fill="black" />
<path d="M 46.3,19 L 49.3,21 44.3,24 Z" fill="black" />
<path d="M 34.3,95 Q 34.9,100.4 40.3,101 Q 45.6,100.4 46.3,95 Z" fill="black" />
<path d="M 46.3,95 Q 45.3,128.6 36.5,150.3 Q 26.9,174.3 9.8,185.6 L 8.7,184.3 Q 22.9,168.3 28.5,147.6 Q 35.3,123.6 34.3,95 Z" fill="black" />
<path d="M 40.8,121.1 Q 52,129.7 58.4,138.2 Q 65.4,147.4 68.5,156.5 L 56.9,159.6 Q 55.4,151.4 51.1,142.6 Q 46,132.7 39.5,122.3 Z" fill="black" />
<path d="M 68.5,156.5 Q 69.3,161.9 64.3,163.8 Q 58.9,164.7 56.9,159.6 Z" fill="black" />
<path d="M 138.5,14 L 138.5,39 126.5,39 126.5,12 Z" fill="black" />
<path d="M 138.5,14 L 141.5,16 136.5,19 Z" fill="black" />
<path d="M 82.1,35 L 191.4,35 191.4,39 82.1,39 Z" fill="black" />
<path d="M 191.4,35 L 167.4,37 179.4,25 Z" fill="black" />
<path d="M 88.1,35 L 88.1,96 76.1,96 76.1,29 Z" fill="black" />
<path d="M 76.1,96 Q 76.7,101.4 82.1,102 Q 87.5,101.4 88.1,96 Z" fill="black" />
<path d="M 88.1,96 Q 87.1,131.1 82.4,152.9 Q 76.9,176.8 67.2,187.4 L 65.7,186.5 Q 71.9,172.8 74,151.5 Q 77.1,127.1 76.1,96 Z" fill="black" />
<path d="M 90,56.9 L 115.3,56.9 115.3,60.9 90,60.9 Z" fill="black" />
<path d="M 120.6,59.9 L 105.5,109.3 92.2,111.4 109,58.9 Z" fill="black" />
<path d="M 109.3,56.9 L 115.3,51.9 126.3,60.9 121.3,63.9 109.3,68.9 Z" fill="black" />
<path d="M 100.4,103.6 L 119.9,103.6 119.9,107.6 100.4,107.6 Z" fill="black" />
<path d="M 125.9,105.8 Q 123.8,136.7 115.1,156.6 Q 105.7,178.6 90,188.7 L 88.8,187.4 Q 101.7,172.6 107.2,153.6 Q 113.8,131.7 113.9,105.4 Z" fill="black" />
<path d="M 113.9,103.6 L 119.9,98.6 130.9,107.6 125.9,110.6 113.9,115.6 Z" fill="black" />
<path d="M 98,120 L 102.8,132.9 107.8,143.9 113.3,153 119.4,160.3 126.4,165.9 134.4,170.1 143.9,172.9 155.1,174.5 168.4,174.8 183.8,173.8 184.8,187 168.3,187.3 153.8,186.2 141.2,183.6 130.2,179.4 120.9,173.5 113.2,165.9 107.1,156.8 102.4,146.3 98.8,134.1 96.3,120.4 Z" fill="black" />
<path d="M 184.8,187 L 183.8,173.8 194.7,173 Z" fill="black" />
<path d="M 180.6,57.4 Q 168.6,64.3 156.1,68.5 Q 142.1,73.3 127.5,74.1 L 127.1,72.4 Q 142.1,66.3 152.9,60.7 Q 165.6,54.3 173.9,47.5 Z" fill="black" />
<path d="M 173,48.1 L 180.6,57.4 181.2,57 Z" fill="black" />
<path d="M 181.2,57 L 181.3,60.6 175.8,58.3 Z" fill="black" />
<path d="M 130.6,104.3 L 182.9,104.3 182.9,108.3 130.6,108.3 Z" fill="black" />
<path d="M 182.9,104.3 L 162.9,106.3 172.9,95.3 Z" fill="black" />
<path d="M 162.7,63 L 162.7,156.5 150.7,156.5 150.7,63 Z" fill="black" />
<path d="M 125.1,152.5 L 188.4,152.5 188.4,156.5 125.1,156.5 Z" fill="black" />
<path d="M 188.4,152.5 L 164.4,154.5 176.4,142.5 Z" fill="black" />
</svg>
