<svg xmlns="http://www.w3.org/2000/svg" xmlns:xlink="http://www.w3.org/1999/xlink" version="1.1" baseProfile="full" viewBox="0 0 200 200" width="200" height="200">
<path d="M 18.4,53.8 Q 22.9,70.8 22.6,83.1 Q 22.4,96.5 18.7,105.9 L 8,100.6 Q 12.4,93.5 14.2,82.4 Q 15.9,69.8 16.6,54 Z" fill="black" />
<path d="M 18.7,105.9 Q 15.8,110.5 10.7,108.6 Q 6.1,105.7 8,100.6 Z" fill="black" />
<path d="M 62.7,55.1 Q 57.6,61.3 51.3,68.2 Q 44.2,75.9 35.5,83.5 L 34.1,82.4 Q 40.2,70.9 44.5,63.1 Q 49.6,54.3 52.7,48.4 Z" fill="black" />
<path d="M 52.1,49.3 L 62.7,55.1 53.2,47.7 Z" fill="black" />
<path d="M 62.7,55.1 L 64,58.5 58.2,58.2 Z" fill="black" />
<path d="M 40.8,19 L 40.8,95 28.8,95 28.8,17 Z" fill="black" />
<path d="M 40.8,19 L 43.8,21 38.8,24 Z" fill="black" />
<path d="M 28.8,95 Q 29.4,100.4 34.8,101 Q 40.2,100.4 40.8,95 Z" fill="black" />
<path d="M 40.8,95 Q 39.8,128.6 32.2,150.2 Q 23.5,174.3 8.6,185.6 L 7.4,184.3 Q 19.5,168.3 24,147.7 Q 29.8,123.6 28.8,95 Z" fill="black" />
<path d="M 35.4,121.2 Q 45.4,129.7 51.1,138.4 Q 57.2,147.9 60,156.7 L 48.4,159.4 Q 47.2,150.9 43.6,142.4 Q 39.4,132.7 34,122.3 Z" fill="black" />
<path d="M 60,156.7 Q 60.7,162.1 55.6,163.9 Q 50.2,164.5 48.4,159.4 Z" fill="black" />
<path d="M 100.3,19.8 Q 92.9,31.4 84.3,41.6 Q 74.9,53.1 63.6,61.9 L 62.3,60.7 Q 70.9,47.1 77.4,36.6 Q 84.9,24.4 89.8,14 Z" fill="black" />
<path d="M 89.3,14.9 L 100.3,19.8 90.3,13 Z" fill="black" />
<path d="M 100.3,19.8 L 101.9,23 96.1,23.2 Z" fill="black" />
<path d="M 103.2,51.2 Q 94.5,71.6 84.5,87.9 Q 73.2,106.3 59.7,120.1 L 58.3,119 Q 69.2,100.3 77,83.8 Q 86.5,64.6 92,47 Z" fill="black" />
<path d="M 91.7,47.9 L 103.2,51.2 92.5,45.6 Z" fill="black" />
<path d="M 103.2,51.2 L 105.3,54.2 99.6,55.2 Z" fill="black" />
<path d="M 89.2,88.4 L 89.2,182.9 77.2,188.9 77.2,86.4 Z" fill="black" />
<path d="M 89.2,88.4 L 92.2,90.4 87.2,93.4 Z" fill="black" />
<path d="M 129.7,20.9 Q 125.3,46.4 117.9,64.1 Q 110.1,83.7 98.9,94.9 L 97.5,93.9 Q 105.1,78.7 109.9,61.4 Q 115.3,41.4 117.9,19.2 Z" fill="black" />
<path d="M 117.7,20.2 L 129.7,20.9 118.2,17.2 Z" fill="black" />
<path d="M 129.7,20.9 L 132.4,23.3 127,25.6 Z" fill="black" />
<path d="M 121.7,48.1 Q 129.9,51.5 135,56.2 Q 140.6,60.9 143.9,65.9 L 133.2,71.4 Q 131.6,66.9 128.6,61.8 Q 124.9,56.5 120.5,49.5 Z" fill="black" />
<path d="M 143.9,65.9 Q 145.8,71 141.3,74 Q 136.2,75.9 133.2,71.4 Z" fill="black" />
<path d="M 169.4,20.7 Q 166,44.9 158.2,61.1 Q 149.7,79.2 137.5,88 L 136.2,86.8 Q 145.7,73.2 150.3,57.9 Q 156,39.9 157.5,19.4 Z" fill="black" />
<path d="M 157.4,20.4 L 169.4,20.7 157.7,17.3 Z" fill="black" />
<path d="M 169.4,20.7 L 172.2,23 166.9,25.5 Z" fill="black" />
<path d="M 159.8,46.2 Q 168.7,51 174.3,57.8 Q 180.8,65.3 184.9,73.2 L 173.9,78 Q 170.8,69.3 167.3,62.7 Q 162.7,55 158.5,47.5 Z" fill="black" />
<path d="M 184.9,73.2 Q 186.5,78.4 181.8,81.1 Q 176.6,82.7 173.9,78 Z" fill="black" />
<path d="M 148,89.4 L 148,174.8 136,174.8 136,87.4 Z" fill="black" />
<path d="M 148,89.4 L 151,91.4 146,94.4 Z" fill="black" />
<path d="M 142,119.6 L 180.6,119.6 180.6,123.6 142,123.6 Z" fill="black" />
<path d="M 180.6,119.6 L 160.6,121.6 170.6,110.6 Z" fill="black" />
<path d="M 121.7,105.5 Q 120.7,136.3 114.4,156.5 Q 107.5,178.7 94.8,189.5 L 93.4,188.3 Q 102.5,173.7 106.2,154.4 Q 110.7,132.3 109.7,105.5 Z" fill="black" />
<path d="M 109.7,106.5 L 121.7,105.5 109.7,103.1 Z" fill="black" />
<path d="M 121.7,105.5 L 124.7,107.5 119.7,110.5 Z" fill="black" />
<path d="M 117.2,137.6 Q 121.8,158.5 135.5,165.6 Q 150.9,173.9 178.8,172.2 L 179.2,185.4 Q 145.9,185.9 130.4,173.4 Q 112.8,159.5 115.4,137.7 Z" fill="black" />
<path d="M 179.2,185.4 L 178.8,172.2 190.3,171.9 Z" fill="black" />
</svg>
