<svg xmlns="http://www.w3.org/2000/svg" xmlns:xlink="http://www.w3.org/1999/xlink" version="1.1" baseProfile="full" viewBox="0 0 200 200" width="200" height="200">
<path d="M 22.2,53.8 Q 27.1,70.8 26.6,83.2 Q 26.1,97.1 21.3,106.5 L 11,100.3 Q 16.1,93.1 18.2,82.4 Q 20.1,69.8 20.4,54.1 Z" fill="black" />
<path d="M 21.3,106.5 Q 18,110.8 13.1,108.5 Q 8.8,105.2 11,100.3 Z" fill="black" />
<path d="M 74.9,55.5 Q 68.8,61.8 61.4,68.5 Q 53.4,76.4 43,83.6 L 41.7,82.3 Q 49.4,70.4 55.1,62.8 Q 61.8,53.8 65.6,47.9 Z" fill="black" />
<path d="M 64.9,48.7 L 74.9,55.5 66,47.4 Z" fill="black" />
<path d="M 74.9,55.5 L 75.9,59 70.2,58.1 Z" fill="black" />
<path d="M 48.3,19 L 48.3,95 36.3,95 36.3,17 Z" fill="black" />
<path d="M 48.3,19 L 51.3,21 46.3,24 Z" fill="black" />
<path d="M 36.3,95 Q 36.9,100.4 42.3,101 Q 47.7,100.4 48.3,95 Z" fill="black" />
<path d="M 48.3,95 Q 47.3,128.6 38.2,150.4 Q 28.2,174.8 10.3,185.6 L 9.2,184.3 Q 24.2,167.8 30.2,147.5 Q 37.3,123.6 36.3,95 Z" fill="black" />
<path d="M 42.9,121 Q 54.6,129.2 61.1,138.1 Q 68.5,147.4 71.7,156.4 L 60.2,159.7 Q 58.5,151.4 54,142.7 Q 48.6,133.2 41.6,122.3 Z" fill="black" />
<path d="M 71.7,156.4 Q 72.6,161.8 67.6,163.8 Q 62.2,164.7 60.2,159.7 Z" fill="black" />
<path d="M 75.4,48.8 L 184.6,48.8 184.6,52.8 75.4,52.8 Z" fill="black" />
<path d="M 184.6,48.8 L 160.6,50.8 172.6,38.8 Z" fill="black" />
<path d="M 136,15.8 L 136,95.2 124,95.2 124,13.8 Z" fill="black" />
<path d="M 136,15.8 L 139,17.8 134,20.8 Z" fill="black" />
<path d="M 83.2,91.2 L 176.8,91.2 176.8,95.2 83.2,95.2 Z" fill="black" />
<path d="M 176.8,91.2 L 152.8,93.2 164.8,81.2 Z" fill="black" />
<path d="M 89.3,121.5 Q 92.8,138.1 90.9,149.6 Q 89.3,162 82.3,169.5 L 74.1,160.7 Q 79.3,157 82.7,147.7 Q 85.8,137.1 87.5,121.6 Z" fill="black" />
<path d="M 82.3,169.5 Q 77.9,172.7 73.8,169.2 Q 70.6,164.8 74.1,160.7 Z" fill="black" />
<path d="M 114.5,118.9 L 114.5,166.8 102.5,166.8 102.5,116.9 Z" fill="black" />
<path d="M 114.5,118.9 L 117.5,120.9 112.5,123.9 Z" fill="black" />
<path d="M 102.5,166.8 Q 103.1,172.2 108.5,172.8 Q 113.9,172.2 114.5,166.8 Z" fill="black" />
<path d="M 114.5,166.8 Q 115,170.3 115.2,170.1 Q 115.5,170.8 118.5,170.8 L 118.5,182.8 Q 111.5,182.8 106.8,178.6 Q 102,173.3 102.5,166.8 Z" fill="black" />
<path d="M 118.5,170.8 Q 123.9,171.4 124.5,176.8 Q 123.9,182.2 118.5,182.8 Z" fill="black" />
<path d="M 118.5,170.8 L 160.5,170.8 160.5,182.8 118.5,182.8 Z" fill="black" />
<path d="M 160.5,170.8 Q 165.9,171.4 166.5,176.8 Q 165.9,182.2 160.5,182.8 Z" fill="black" />
<path d="M 160.5,171.8 L 162.5,145.8 160.5,145.8 154.5,171.8 Z" fill="black" />
<path d="M 120.2,104.4 Q 129.2,106.8 135.3,112.5 Q 141.9,118.8 146.5,126.7 L 135.6,131.7 Q 132.9,123.8 129,118.1 Q 124.2,111.8 119.3,106 Z" fill="black" />
<path d="M 146.5,126.7 Q 148.2,131.9 143.5,134.7 Q 138.4,136.4 135.6,131.7 Z" fill="black" />
<path d="M 162.5,122.3 Q 172.6,128.5 178.2,137.5 Q 184.4,146.9 187.3,157.8 L 175.5,160.1 Q 174.4,149.9 170.8,141.6 Q 166.6,132.5 161.2,123.6 Z" fill="black" />
<path d="M 187.3,157.8 Q 187.7,163.2 182.5,164.8 Q 177.1,165.2 175.5,160.1 Z" fill="black" />
</svg>
