<svg xmlns="http://www.w3.org/2000/svg" xmlns:xlink="http://www.w3.org/1999/xlink" version="1.1" baseProfile="full" viewBox="0 0 200 200" width="200" height="200">
<path d="M 25.8,53.8 Q 31.2,70.8 30.4,83.3 Q 29.7,97.1 23.8,106.9 L 14,100 Q 19.7,93.1 22,82.3 Q 24.2,69.8 24.1,54.1 Z" fill="black" />
<path d="M 23.8,106.9 Q 20.2,111 15.4,108.4 Q 11.3,104.8 14,100 Z" fill="black" />
<path d="M 86.7,55.8 Q 79.5,61.8 71.2,68.7 Q 61.7,76.4 50.2,83.6 L 49,82.3 Q 58.7,70.4 65.4,62.6 Q 73.5,53.8 78,47.5 Z" fill="black" />
<path d="M 77.3,48.3 L 86.7,55.8 78.3,47.2 Z" fill="black" />
<path d="M 86.7,55.8 L 87.5,59.3 81.8,58.1 Z" fill="black" />
<path d="M 55.6,19 L 55.6,95 43.6,95 43.6,17 Z" fill="black" />
<path d="M 55.6,19 L 58.6,21 53.6,24 Z" fill="black" />
<path d="M 43.6,95 Q 44.2,100.4 49.6,101 Q 55,100.4 55.6,95 Z" fill="black" />
<path d="M 55.6,95 Q 54.6,128.6 44,150.6 Q 32.2,174.8 11.9,185.7 L 10.9,184.2 Q 29.2,167.8 36.2,147.3 Q 44.6,123.6 43.6,95 Z" fill="black" />
<path d="M 50,120.9 Q 63.4,129.2 70.8,137.8 Q 79.4,146.9 83,156.2 L 71.6,160 Q 69.4,151.9 64.1,143 Q 57.4,133.2 48.8,122.3 Z" fill="black" />
<path d="M 83,156.2 Q 84.1,161.5 79.2,163.8 Q 73.9,164.9 71.6,160 Z" fill="black" />
<path d="M 93,27 L 170,27 170,31 93,31 Z" fill="black" />
<path d="M 175.9,28.8 Q 176.4,50.7 174.6,64.8 Q 173,80 168.1,88.2 L 157.6,82.3 Q 161,76 162.7,63.3 Q 164.4,48.7 164,29.1 Z" fill="black" />
<path d="M 164,27 L 170,22 181,31 176,34 164,39 Z" fill="black" />
<path d="M 168.1,88.2 Q 164.9,92.6 159.9,90.5 Q 155.5,87.3 157.6,82.3 Z" fill="black" />
<path d="M 168.1,88.2 Q 164.9,94.1 159.7,97 Q 154,100 148,100 L 148,88 Q 152,88 153.7,86.6 Q 155.9,85.1 157.6,82.3 Z" fill="black" />
<path d="M 148,94 L 148,88 128,88 128,91 Z" fill="black" />
<path d="M 133.9,29.5 Q 130,61.2 114.3,79.8 Q 96.7,100.4 70.3,106.8 L 69.6,105.1 Q 96.7,92.4 107.6,74.6 Q 121,54.2 122,28.4 Z" fill="black" />
<path d="M 100.1,111.2 L 100.1,183 88.1,189 88.1,105.2 Z" fill="black" />
<path d="M 94.1,111.2 L 169.5,111.2 169.5,115.2 94.1,115.2 Z" fill="black" />
<path d="M 175.5,113.2 L 175.5,180 163.5,186 163.5,113.2 Z" fill="black" />
<path d="M 163.5,111.2 L 169.5,106.2 180.5,115.2 175.5,119.2 163.5,113.2 Z" fill="black" />
<path d="M 137.8,111.2 L 137.8,176 125.8,176 125.8,111.2 Z" fill="black" />
<path d="M 94.1,141.1 L 169.5,141.1 169.5,145.1 94.1,145.1 Z" fill="black" />
<path d="M 94.1,172 L 169.5,172 169.5,176 94.1,176 Z" fill="black" />
</svg>
