<svg xmlns="http://www.w3.org/2000/svg" xmlns:xlink="http://www.w3.org/1999/xlink" version="1.1" baseProfile="full" viewBox="0 0 200 200" width="200" height="200">
<path d="M 24.5,53.8 Q 29.7,70.8 29.1,83.3 Q 28.5,97.1 22.9,106.8 L 12.9,100.1 Q 18.5,93.1 20.6,82.3 Q 22.7,69.8 22.7,54.1 Z" fill="black" />
<path d="M 22.9,106.8 Q 19.4,110.9 14.6,108.4 Q 10.4,105 12.9,100.1 Z" fill="black" />
<path d="M 82.5,55.7 Q 76,61.8 67.7,68.6 Q 59.1,76.4 47.6,83.6 L 46.4,82.3 Q 55.1,70.4 61.7,62.6 Q 69,53.8 73.6,47.7 Z" fill="black" />
<path d="M 72.9,48.4 L 82.5,55.7 73.9,47.3 Z" fill="black" />
<path d="M 82.5,55.7 L 83.3,59.2 77.6,58.1 Z" fill="black" />
<path d="M 53,19 L 53,95 41,95 41,17 Z" fill="black" />
<path d="M 53,19 L 56,21 51,24 Z" fill="black" />
<path d="M 41,95 Q 41.6,100.4 47,101 Q 52.4,100.4 53,95 Z" fill="black" />
<path d="M 53,95 Q 52,128.6 41.9,150.5 Q 30.6,174.8 11.3,185.7 L 10.3,184.2 Q 27.6,167.8 34,147.4 Q 42,123.6 41,95 Z" fill="black" />
<path d="M 47.5,121 Q 60.2,129.2 67.4,137.9 Q 75.5,147.4 79,156.3 L 67.5,159.9 Q 65.5,151.4 60.5,142.9 Q 54.2,133.2 46.2,122.3 Z" fill="black" />
<path d="M 79,156.3 Q 80,161.6 75.1,163.8 Q 69.7,164.9 67.5,159.9 Z" fill="black" />
<path d="M 78.5,33.7 L 183.4,33.7 183.4,37.7 78.5,37.7 Z" fill="black" />
<path d="M 183.4,33.7 L 163.4,35.7 173.4,24.7 Z" fill="black" />
<path d="M 112.1,14.1 L 112.1,96.9 100.1,96.9 100.1,12.1 Z" fill="black" />
<path d="M 112.1,14.1 L 115.1,16.1 110.1,19.1 Z" fill="black" />
<path d="M 161.8,14.1 L 161.8,96.9 149.8,96.9 149.8,12.1 Z" fill="black" />
<path d="M 161.8,14.1 L 164.8,16.1 159.8,19.1 Z" fill="black" />
<path d="M 106.1,53.4 L 155.8,53.4 155.8,57.4 106.1,57.4 Z" fill="black" />
<path d="M 106.1,73.2 L 155.8,73.2 155.8,77.2 106.1,77.2 Z" fill="black" />
<path d="M 74.4,92.9 L 187.5,92.9 187.5,96.9 74.4,96.9 Z" fill="black" />
<path d="M 187.5,92.9 L 167.5,94.9 177.5,83.9 Z" fill="black" />
<path d="M 114.4,97.3 Q 107.4,111 97.3,121.4 Q 86.3,132.6 72.1,139.8 L 71.1,138.3 Q 83.3,126.6 90.8,115.9 Q 99.4,104 103.4,92.5 Z" fill="black" />
<path d="M 154.3,95.3 Q 162.9,104.5 171,112.3 Q 179.9,120.9 189.6,127.3 L 181.3,137.6 Q 170.9,127.9 163.9,118.4 Q 155.9,107.5 152.7,96.2 Z" fill="black" />
<path d="M 181.3,137.6 L 189.6,127.3 192.2,129.4 Z" fill="black" />
<path d="M 95,122 L 166,122 166,126 95,126 Z" fill="black" />
<path d="M 166,122 L 142,124 154,112 Z" fill="black" />
<path d="M 135,100 L 135,184 123,190 123,98 Z" fill="black" />
<path d="M 135,100 L 138,102 133,105 Z" fill="black" />
<path d="M 130.3,126.6 Q 119,147.3 104.2,160.9 Q 87.6,175.9 68.4,182.8 L 67.5,181.1 Q 86.6,168.9 98.2,155 Q 112,139.3 119.6,121.3 Z" fill="black" />
<path d="M 130.2,131.5 Q 148.7,137.1 162.1,146.3 Q 177,156.6 187,169 L 177.3,176.2 Q 168,162.6 156.9,153.1 Q 143.7,142.1 129.5,133.2 Z" fill="black" />
<path d="M 187,169 Q 189.7,173.6 185.7,177.4 Q 181.1,180.1 177.3,176.2 Z" fill="black" />
</svg>
