<svg xmlns="http://www.w3.org/2000/svg" xmlns:xlink="http://www.w3.org/1999/xlink" version="1.1" baseProfile="full" viewBox="0 0 200 200" width="200" height="200">
<path d="M 19.3,53.8 Q 23.9,70.8 23.6,83.2 Q 23.3,96.5 19.3,106.1 L 8.7,100.5 Q 13.3,93.5 15.1,82.4 Q 16.9,69.8 17.5,54.1 Z" fill="black" />
<path d="M 19.3,106.1 Q 16.3,110.6 11.3,108.6 Q 6.7,105.6 8.7,100.5 Z" fill="black" />
<path d="M 65.6,55.2 Q 60.5,61.3 53.7,68.2 Q 46.4,75.9 37.3,83.5 L 35.9,82.4 Q 42.4,70.9 47,63.1 Q 52.5,54.3 55.8,48.3 Z" fill="black" />
<path d="M 55.2,49.1 L 65.6,55.2 56.3,47.6 Z" fill="black" />
<path d="M 65.6,55.2 L 66.9,58.6 61.1,58.2 Z" fill="black" />
<path d="M 42.6,19 L 42.6,95 30.6,95 30.6,17 Z" fill="black" />
<path d="M 42.6,19 L 45.6,21 40.6,24 Z" fill="black" />
<path d="M 30.6,95 Q 31.2,100.4 36.6,101 Q 42,100.4 42.6,95 Z" fill="black" />
<path d="M 42.6,95 Q 41.6,128.6 33.6,150.2 Q 24.6,174.3 9,185.6 L 7.8,184.3 Q 20.6,168.3 25.5,147.7 Q 31.6,123.6 30.6,95 Z" fill="black" />
<path d="M 37.2,121.1 Q 47.6,129.7 53.5,138.3 Q 59.9,147.9 62.9,156.6 L 51.2,159.5 Q 49.9,150.9 46.1,142.5 Q 41.6,132.7 35.9,122.3 Z" fill="black" />
<path d="M 62.9,156.6 Q 63.6,162 58.5,163.9 Q 53.1,164.6 51.2,159.5 Z" fill="black" />
<path d="M 96.6,18.6 Q 92.1,30.3 87.4,40.7 Q 82.4,52.3 75.2,62.3 L 73.5,61.6 Q 76.4,48.3 79.5,37.7 Q 83.1,25.3 85.1,15.2 Z" fill="black" />
<path d="M 84.8,16.1 L 96.6,18.6 85.6,13.6 Z" fill="black" />
<path d="M 96.6,18.6 L 98.9,21.4 93.3,22.8 Z" fill="black" />
<path d="M 63.9,59.9 Q 75.4,58.9 87.3,57.1 Q 100.1,54.5 113.8,52.1 L 114.4,53.8 Q 101.1,61.5 89.4,65.3 Q 76.4,69.9 65.4,71.8 Z" fill="black" />
<path d="M 65.4,71.8 L 63.9,59.9 61.9,60.1 Z" fill="black" />
<path d="M 65.4,71.8 L 67.8,74.5 71,68 Z" fill="black" />
<path d="M 101.7,29.2 Q 109.7,35.8 115.2,45.4 Q 121,55.9 125.2,67.4 L 113.6,70.7 Q 111,57.9 107.5,49 Q 103.7,38.8 100.2,30.3 Z" fill="black" />
<path d="M 125.2,67.4 Q 126.1,72.8 121,74.8 Q 115.7,75.7 113.6,70.7 Z" fill="black" />
<path d="M 86.8,73.9 Q 84,90.5 79.3,101.9 Q 74,114.6 66.6,121.6 L 65.1,120.7 Q 69,110.6 71.2,99.4 Q 74,86.5 74.9,72.5 Z" fill="black" />
<path d="M 74.8,73.5 L 86.8,73.9 75.1,70.4 Z" fill="black" />
<path d="M 86.8,73.9 L 89.5,76.2 84.2,78.6 Z" fill="black" />
<path d="M 77.2,92.6 L 123.3,92.6 123.3,96.6 77.2,96.6 Z" fill="black" />
<path d="M 123.3,92.6 L 103.3,94.6 113.3,83.6 Z" fill="black" />
<path d="M 62.8,128 L 125.6,128 125.6,132 62.8,132 Z" fill="black" />
<path d="M 125.6,128 L 101.6,130 113.6,118 Z" fill="black" />
<path d="M 101.3,92.6 L 101.3,125.2 89.3,125.2 89.3,92.6 Z" fill="black" />
<path d="M 89.3,125.2 Q 89.9,130.6 95.3,131.2 Q 100.7,130.6 101.3,125.2 Z" fill="black" />
<path d="M 101.3,125.2 Q 100.3,150.6 91.4,165.9 Q 81.5,183 64.7,188.6 L 63.9,187 Q 78.5,176 83.8,162.1 Q 90.3,145.6 89.3,125.2 Z" fill="black" />
<path d="M 95.9,141.6 Q 105.4,147 111.2,153.4 Q 117.7,160.4 122.1,167.5 L 111.3,172.8 Q 108.7,165.4 104.5,158.6 Q 99.4,151 94.7,142.9 Z" fill="black" />
<path d="M 122.1,167.5 Q 123.9,172.6 119.4,175.5 Q 114.2,177.4 111.3,172.8 Z" fill="black" />
<path d="M 154.8,17.8 Q 150.9,39.2 143.9,56.1 Q 136.5,74.8 125.8,88.4 L 124.2,87.5 Q 131.5,69.8 135.9,53.3 Q 140.9,34.2 143,16 Z" fill="black" />
<path d="M 142.8,17 L 154.8,17.8 143.3,14 Z" fill="black" />
<path d="M 154.8,17.8 L 157.5,20.3 152.1,22.5 Z" fill="black" />
<path d="M 138.1,59 L 182.7,59 182.7,63 138.1,63 Z" fill="black" />
<path d="M 188.3,63.2 Q 184.8,69.4 180,77.1 Q 174.6,85.3 167,94.4 L 165.4,93.5 Q 169.6,81.3 172.4,73.3 Q 175.8,64.4 177.2,58.7 Z" fill="black" />
<path d="M 176.7,59 L 182.7,54 193.7,63 188.7,66 176.7,71 Z" fill="black" />
<path d="M 158.5,72 Q 157.5,121 146,148.9 Q 133.2,179.8 111,188.7 L 110.1,187.2 Q 130.2,172.8 138,146 Q 147.5,115 146.5,72 Z" fill="black" />
<path d="M 146.5,73 L 158.5,72 146.5,69.6 Z" fill="black" />
<path d="M 158.5,72 L 161.5,74 156.5,77 Z" fill="black" />
<path d="M 155.5,95.9 Q 159.2,124.7 167.5,143 Q 176.9,163.3 190.6,174 L 181.8,183.9 Q 164.9,167.3 158.8,146.4 Q 151.2,122.7 153.7,96 Z" fill="black" />
<path d="M 181.8,183.9 L 190.6,174 192.6,175.8 Z" fill="black" />
</svg>
