<svg xmlns="http://www.w3.org/2000/svg" xmlns:xlink="http://www.w3.org/1999/xlink" version="1.1" baseProfile="full" viewBox="0 0 200 200" width="200" height="200">
<path d="M 27,53.8 Q 32.5,70.8 31.6,83.4 Q 30.9,97.2 24.6,107.1 L 14.9,100 Q 20.9,93.2 23.2,82.3 Q 25.5,69.8 25.2,54.1 Z" fill="black" />
<path d="M 24.6,107.1 Q 20.9,111.1 16.2,108.4 Q 12.2,104.7 14.9,100 Z" fill="black" />
<path d="M 90.5,55.9 Q 83.2,61.7 74.4,68.8 Q 64.6,76.4 52.5,83.6 L 51.4,82.3 Q 61.6,70.4 68.7,62.5 Q 77.2,53.7 82,47.4 Z" fill="black" />
<path d="M 81.3,48.1 L 90.5,55.9 82.3,47.1 Z" fill="black" />
<path d="M 90.5,55.9 L 91.2,59.4 85.5,58 Z" fill="black" />
<path d="M 58,19 L 58,95 46,95 46,17 Z" fill="black" />
<path d="M 58,19 L 61,21 56,24 Z" fill="black" />
<path d="M 46,95 Q 46.6,100.4 52,101 Q 57.4,100.4 58,95 Z" fill="black" />
<path d="M 58,95 Q 57,128.6 45.8,150.7 Q 33.6,174.8 12.5,185.7 L 11.4,184.2 Q 30.6,167.8 38.1,147.2 Q 47,123.6 46,95 Z" fill="black" />
<path d="M 52.3,120.9 Q 66.2,129.2 74,137.8 Q 82.9,146.9 86.6,156.1 L 75.3,160.1 Q 72.9,151.9 67.3,143.1 Q 60.2,133.2 51.1,122.3 Z" fill="black" />
<path d="M 86.6,156.1 Q 87.8,161.4 82.9,163.8 Q 77.6,165 75.3,160.1 Z" fill="black" />
<path d="M 105,28 L 168,28 168,32 105,32 Z" fill="black" />
<path d="M 111,28 L 111,163 99,163 99,22 Z" fill="black" />
<path d="M 99,163 Q 99.6,168.4 105,169 Q 110.4,168.4 111,163 Z" fill="black" />
<path d="M 111,163 Q 111.5,166.4 111.7,166.2 Q 111.9,167 115,167 L 115,179 Q 107.9,179 103.2,174.7 Q 98.5,169.4 99,163 Z" fill="black" />
<path d="M 115,167 Q 120.4,167.6 121,173 Q 120.4,178.4 115,179 Z" fill="black" />
<path d="M 115,167 L 180,167 180,179 115,179 Z" fill="black" />
<path d="M 180,167 Q 185.4,167.6 186,173 Q 185.4,178.4 180,179 Z" fill="black" />
<path d="M 180,168 L 182,142 180,142 174,168 Z" fill="black" />
<path d="M 172.9,29.9 Q 173.4,63.6 172.1,81 Q 171.3,99.6 166,106.3 L 157,98.5 Q 158.3,97.6 160.1,80.1 Q 161.4,60.6 161,30 Z" fill="black" />
<path d="M 161,28 L 167,23 178,32 173,35 161,40 Z" fill="black" />
<path d="M 166,106.3 Q 162,110 157.6,106.9 Q 153.9,102.9 157,98.5 Z" fill="black" />
<path d="M 166,106.3 Q 161.8,111.1 156.6,113.5 Q 151,116 145,116 L 145,104 Q 149,104 151.6,102.6 Q 154.8,101.1 157,98.5 Z" fill="black" />
<path d="M 145,110 L 145,104 125,104 125,107 Z" fill="black" />
</svg>
