<svg xmlns="http://www.w3.org/2000/svg" xmlns:xlink="http://www.w3.org/1999/xlink" version="1.1" baseProfile="full" viewBox="0 0 200 200" width="200" height="200">
<path d="M 21.3,53.8 Q 26.1,70.8 25.6,83.2 Q 25.2,97.1 20.7,106.3 L 10.3,100.4 Q 15.2,93.1 17.2,82.4 Q 19.1,69.8 19.5,54.1 Z" fill="black" />
<path d="M 20.7,106.3 Q 17.5,110.7 12.5,108.6 Q 8.1,105.3 10.3,100.4 Z" fill="black" />
<path d="M 71.9,55.4 Q 66,61.8 59,68.4 Q 51.2,76.4 41.2,83.6 L 39.8,82.3 Q 47.2,70.4 52.5,62.9 Q 59,53.8 62.5,48 Z" fill="black" />
<path d="M 61.8,48.8 L 71.9,55.4 62.9,47.5 Z" fill="black" />
<path d="M 71.9,55.4 L 73.1,58.9 67.3,58.1 Z" fill="black" />
<path d="M 46.5,19 L 46.5,95 34.5,95 34.5,17 Z" fill="black" />
<path d="M 46.5,19 L 49.5,21 44.5,24 Z" fill="black" />
<path d="M 34.5,95 Q 35.1,100.4 40.5,101 Q 45.9,100.4 46.5,95 Z" fill="black" />
<path d="M 46.5,95 Q 45.5,128.6 36.7,150.3 Q 27.1,174.3 9.9,185.6 L 8.7,184.3 Q 23.1,168.3 28.7,147.6 Q 35.5,123.6 34.5,95 Z" fill="black" />
<path d="M 41.1,121.1 Q 52.3,129.7 58.7,138.2 Q 65.8,147.4 68.9,156.5 L 57.3,159.6 Q 55.8,151.4 51.5,142.7 Q 46.3,132.7 39.8,122.3 Z" fill="black" />
<path d="M 68.9,156.5 Q 69.8,161.8 64.7,163.8 Q 59.3,164.7 57.3,159.6 Z" fill="black" />
<path d="M 72.6,40 L 122.7,40 122.7,44 72.6,44 Z" fill="black" />
<path d="M 122.7,40 L 102.7,42 112.7,31 Z" fill="black" />
<path d="M 102.3,16 L 102.3,72 90.3,72 90.3,14 Z" fill="black" />
<path d="M 102.3,16 L 105.3,18 100.3,21 Z" fill="black" />
<path d="M 65,68 L 126.8,68 126.8,72 65,72 Z" fill="black" />
<path d="M 126.8,68 L 102.8,70 114.8,58 Z" fill="black" />
<path d="M 101.6,77 L 101.6,103 89.6,103 89.6,75 Z" fill="black" />
<path d="M 101.6,77 L 104.6,79 99.6,82 Z" fill="black" />
<path d="M 67.1,99 L 125.5,99 125.5,103 67.1,103 Z" fill="black" />
<path d="M 125.5,99 L 105.5,101 115.5,90 Z" fill="black" />
<path d="M 92.1,124 L 118.5,124 118.5,128 92.1,128 Z" fill="black" />
<path d="M 124.5,126 Q 124.5,144.3 123,155.1 Q 121.7,166.7 117.9,172.9 L 107.8,166.3 Q 109.7,163.7 111.1,153.6 Q 112.5,142.3 112.5,126 Z" fill="black" />
<path d="M 112.5,124 L 118.5,119 129.5,128 124.5,131 112.5,136 Z" fill="black" />
<path d="M 117.9,172.9 Q 114.4,177.1 109.6,174.6 Q 105.4,171.1 107.8,166.3 Z" fill="black" />
<path d="M 117.9,172.9 Q 114.1,178.2 109.1,181.1 Q 103.4,184 97.4,184 L 97.4,172 Q 101.4,172 103.4,170.6 Q 106.1,169.2 107.8,166.3 Z" fill="black" />
<path d="M 97.4,178 L 97.4,172 77.4,172 77.4,175 Z" fill="black" />
<path d="M 97.3,105.2 Q 95,137.2 87.4,157 Q 78.9,179.3 65.6,188.6 L 64.4,187.3 Q 74.9,173.3 79.3,154.4 Q 85,132.2 85.4,104.7 Z" fill="black" />
<path d="M 85.3,105.7 L 97.3,105.2 85.5,102.4 Z" fill="black" />
<path d="M 97.3,105.2 L 100.2,107.4 95.1,110.1 Z" fill="black" />
<path d="M 155.8,15.8 Q 151.2,42.2 144,62.4 Q 136.2,84.8 125.6,100.4 L 123.9,99.5 Q 131.2,79.8 135.8,60 Q 141.2,37.2 144,14.1 Z" fill="black" />
<path d="M 143.8,15 L 155.8,15.8 144.3,12.1 Z" fill="black" />
<path d="M 155.8,15.8 L 158.5,18.2 153.1,20.5 Z" fill="black" />
<path d="M 139.9,61 L 186.7,61 186.7,65 139.9,65 Z" fill="black" />
<path d="M 186.7,61 L 166.7,63 176.7,52 Z" fill="black" />
<path d="M 175,63.4 Q 169.8,114.5 155,144.4 Q 138.3,177.8 113.2,188.7 L 112.3,187.2 Q 136.3,169.8 147.3,141 Q 160.8,107.5 163,62.5 Z" fill="black" />
<path d="M 137.1,73.9 Q 144.1,113.1 155.3,136.1 Q 168.2,161.3 185.5,172.6 L 177.8,183.3 Q 156.2,166.3 146.7,139.8 Q 135.1,110.1 135.3,74 Z" fill="black" />
<path d="M 177.8,183.3 L 185.5,172.6 188.8,174.9 Z" fill="black" />
</svg>
