<svg xmlns="http://www.w3.org/2000/svg" xmlns:xlink="http://www.w3.org/1999/xlink" version="1.1" baseProfile="full" viewBox="0 0 200 200" width="200" height="200">
<path d="M 22.6,53.8 Q 27.6,70.8 27,83.3 Q 26.5,97.1 21.6,106.5 L 11.3,100.3 Q 16.5,93.1 18.6,82.4 Q 20.6,69.8 20.8,54.1 Z" fill="black" />
<path d="M 21.6,106.5 Q 18.2,110.8 13.3,108.5 Q 9,105.2 11.3,100.3 Z" fill="black" />
<path d="M 76.1,55.6 Q 70,61.8 62.5,68.5 Q 54.3,76.4 43.8,83.6 L 42.5,82.3 Q 50.3,70.4 56.2,62.8 Q 63,53.8 66.9,47.9 Z" fill="black" />
<path d="M 66.3,48.7 L 76.1,55.6 67.3,47.4 Z" fill="black" />
<path d="M 76.1,55.6 L 77.2,59 71.4,58.1 Z" fill="black" />
<path d="M 49.1,19 L 49.1,95 37.1,95 37.1,17 Z" fill="black" />
<path d="M 49.1,19 L 52.1,21 47.1,24 Z" fill="black" />
<path d="M 37.1,95 Q 37.7,100.4 43.1,101 Q 48.5,100.4 49.1,95 Z" fill="black" />
<path d="M 49.1,95 Q 48.1,128.6 38.8,150.4 Q 28.2,174.8 10.5,185.6 L 9.3,184.3 Q 25.2,167.8 30.8,147.5 Q 38.1,123.6 37.1,95 Z" fill="black" />
<path d="M 43.6,121 Q 55.5,129.2 62.2,138.1 Q 69.7,147.4 72.9,156.4 L 61.4,159.7 Q 59.7,151.4 55.1,142.8 Q 49.5,133.2 42.3,122.3 Z" fill="black" />
<path d="M 72.9,156.4 Q 73.9,161.7 68.8,163.8 Q 63.5,164.8 61.4,159.7 Z" fill="black" />
<path d="M 76.1,63 L 183.2,63 183.2,67 76.1,67 Z" fill="black" />
<path d="M 183.2,63 L 159.2,65 171.2,53 Z" fill="black" />
<path d="M 136,20 L 136,184 124,190 124,18 Z" fill="black" />
<path d="M 136,20 L 139,22 134,25 Z" fill="black" />
<path d="M 108,83 L 108,116 96,116 96,81 Z" fill="black" />
<path d="M 108,83 L 111,85 106,88 Z" fill="black" />
<path d="M 96,116 Q 96.6,121.4 102,122 Q 107.4,121.4 108,116 Z" fill="black" />
<path d="M 108,116 Q 107,141.2 99.6,157.2 Q 91.5,174.9 77.3,181.7 L 76.2,180.2 Q 87.5,168.9 91.7,154.2 Q 97,137.2 96,116 Z" fill="black" />
<path d="M 162.6,83 L 162.6,152 150.6,152 150.6,81 Z" fill="black" />
<path d="M 162.6,83 L 165.6,85 160.6,88 Z" fill="black" />
<path d="M 150.6,152 Q 151.2,157.4 156.6,158 Q 162,157.4 162.6,152 Z" fill="black" />
<path d="M 162.6,152 Q 163.1,155.4 163.3,155.2 Q 163.5,156 166.6,156 L 166.6,168 Q 159.5,168 154.8,163.7 Q 150.1,158.4 150.6,152 Z" fill="black" />
<path d="M 166.6,156 Q 172,156.6 172.6,162 Q 172,167.4 166.6,168 Z" fill="black" />
<path d="M 166.6,156 L 181.8,156 181.8,168 166.6,168 Z" fill="black" />
<path d="M 181.8,156 Q 187.2,156.6 187.8,162 Q 187.2,167.4 181.8,168 Z" fill="black" />
<path d="M 143.2,24.6 Q 153.1,27.1 158.9,32.9 Q 165.7,39.4 168.6,47.5 L 157,50.6 Q 155.7,43.4 152.5,38.3 Q 148.1,32.1 142.3,26.2 Z" fill="black" />
<path d="M 168.6,47.5 Q 169.4,52.8 164.3,54.8 Q 159,55.7 157,50.6 Z" fill="black" />
</svg>
