<svg xmlns="http://www.w3.org/2000/svg" xmlns:xlink="http://www.w3.org/1999/xlink" version="1.1" baseProfile="full" viewBox="0 0 200 200" width="200" height="200">
<path d="M 20.5,53.8 Q 25.2,70.8 24.8,83.2 Q 24.5,97.1 20.2,106.2 L 9.6,100.4 Q 14.5,93.1 16.4,82.4 Q 18.2,69.8 18.7,54.1 Z" fill="black" />
<path d="M 20.2,106.2 Q 17,110.7 12,108.6 Q 7.6,105.4 9.6,100.4 Z" fill="black" />
<path d="M 69.4,55.4 Q 63.6,61.3 56.9,68.3 Q 49.3,75.9 39.6,83.5 L 38.3,82.4 Q 45.3,70.9 50.3,63 Q 56.6,54.3 59.8,48.1 Z" fill="black" />
<path d="M 59.2,48.9 L 69.4,55.4 60.3,47.5 Z" fill="black" />
<path d="M 69.4,55.4 L 70.6,58.8 64.8,58.2 Z" fill="black" />
<path d="M 45,19 L 45,95 33,95 33,17 Z" fill="black" />
<path d="M 45,19 L 48,21 43,24 Z" fill="black" />
<path d="M 33,95 Q 33.6,100.4 39,101 Q 44.4,100.4 45,95 Z" fill="black" />
<path d="M 45,95 Q 44,128.6 35.5,150.3 Q 26.1,174.3 9.6,185.6 L 8.3,184.3 Q 22.1,168.3 27.4,147.6 Q 34,123.6 33,95 Z" fill="black" />
<path d="M 39.5,121.1 Q 50.4,129.7 56.6,138.2 Q 63.4,147.4 66.5,156.5 L 54.9,159.6 Q 53.4,151.4 49.4,142.6 Q 44.4,132.7 38.2,122.3 Z" fill="black" />
<path d="M 66.5,156.5 Q 67.3,161.9 62.2,163.9 Q 56.8,164.6 54.9,159.6 Z" fill="black" />
<path d="M 83,24.8 Q 86.5,30.9 86.3,37 Q 86.2,43.6 83.6,49.4 L 73.3,43.3 Q 76.2,39.6 77.9,35.6 Q 79.5,30.9 81.2,25.1 Z" fill="black" />
<path d="M 83.6,49.4 Q 80.4,53.7 75.4,51.5 Q 71.1,48.3 73.3,43.3 Z" fill="black" />
<path d="M 124.1,24.2 Q 120.8,30.4 116.5,35.3 Q 112,41.4 105.7,45.5 L 104.2,44.4 Q 107,36.4 109.2,31 Q 111.8,24.4 113,19.6 Z" fill="black" />
<path d="M 112.6,20.5 L 124.1,24.2 113.6,18.3 Z" fill="black" />
<path d="M 124.1,24.2 L 126.1,27.2 120.3,28 Z" fill="black" />
<path d="M 105,14 Q 104,40.7 96.1,57.3 Q 87.1,75.4 72.4,81.7 L 71.5,80.2 Q 84.1,69.4 88.3,54.1 Q 94,36.7 93,14 Z" fill="black" />
<path d="M 93,15 L 105,14 93,11.6 Z" fill="black" />
<path d="M 105,14 L 108,16 103,19 Z" fill="black" />
<path d="M 96.3,50.7 Q 105.8,53.7 111.2,56.9 Q 117.4,60.3 121.4,63.7 L 112.5,71.7 Q 110.4,68.3 106.1,63.6 Q 100.8,58.7 95.3,52.2 Z" fill="black" />
<path d="M 121.4,63.7 Q 124.6,68.2 120.9,72.2 Q 116.5,75.3 112.5,71.7 Z" fill="black" />
<path d="M 138,24.8 Q 141.5,30.9 141.3,37 Q 141.2,43.6 138.6,49.4 L 128.3,43.3 Q 131.2,39.6 132.9,35.6 Q 134.5,30.9 136.2,25.1 Z" fill="black" />
<path d="M 138.6,49.4 Q 135.4,53.7 130.4,51.5 Q 126.1,48.3 128.3,43.3 Z" fill="black" />
<path d="M 179.1,24.2 Q 175.8,30.4 171.5,35.3 Q 167,41.4 160.7,45.5 L 159.2,44.4 Q 162,36.4 164.2,31 Q 166.8,24.4 168,19.6 Z" fill="black" />
<path d="M 167.6,20.5 L 179.1,24.2 168.6,18.3 Z" fill="black" />
<path d="M 179.1,24.2 L 181.1,27.2 175.3,28 Z" fill="black" />
<path d="M 160,14 Q 159,40.7 150.8,56.4 Q 141.6,73.9 126.3,77.8 L 125.6,76.1 Q 138.6,66.9 143.1,53 Q 149,36.7 148,14 Z" fill="black" />
<path d="M 148,15 L 160,14 148,11.6 Z" fill="black" />
<path d="M 160,14 L 163,16 158,19 Z" fill="black" />
<path d="M 151.3,50.7 Q 160.8,53.7 167.3,58.6 Q 174.5,63.7 180,70 L 170.3,77.1 Q 166.5,70.7 161.6,64.9 Q 155.8,58.7 150.3,52.2 Z" fill="black" />
<path d="M 180,70 Q 182.7,74.7 178.7,78.4 Q 174,81.1 170.3,77.1 Z" fill="black" />
<path d="M 101,97 L 101,126 89,132 89,91 Z" fill="black" />
<path d="M 95,97 L 151,97 151,101 95,101 Z" fill="black" />
<path d="M 157,99 L 157,125 145,131 145,99 Z" fill="black" />
<path d="M 145,97 L 151,92 162,101 157,105 145,99 Z" fill="black" />
<path d="M 95,119 L 151,119 151,123 95,123 Z" fill="black" />
<path d="M 63,140 L 185,140 185,144 63,144 Z" fill="black" />
<path d="M 185,140 L 161,142 173,130 Z" fill="black" />
<path d="M 130,126 L 130,184 118,190 118,124 Z" fill="black" />
<path d="M 130,126 L 133,128 128,131 Z" fill="black" />
<path d="M 124,149.2 Q 114.5,161.8 100.3,170.2 Q 84.6,179.4 65.3,183.8 L 64.6,182.1 Q 84.6,172.4 95.6,163.2 Q 108.5,152.8 113.9,142.7 Z" fill="black" />
<path d="M 128.3,142.2 Q 140.2,152.2 152.2,159.3 Q 165.8,166.9 181.2,171.7 L 176.7,184.2 Q 158.8,176.9 147,167 Q 133.2,156.2 126.9,143.3 Z" fill="black" />
<path d="M 176.7,184.2 L 181.2,171.7 188.2,174.3 Z" fill="black" />
<path d="M 76.7,75.7 Q 79.6,88.1 78.1,96.5 Q 76.9,105.9 70.6,111.1 L 63.8,101.2 Q 66.9,99.9 69.9,94.2 Q 72.6,87.1 74.9,75.8 Z" fill="black" />
<path d="M 70.6,111.1 Q 65.8,113.6 62.2,109.5 Q 59.7,104.7 63.8,101.2 Z" fill="black" />
<path d="M 76.5,82.9 L 182.3,82.9 182.3,86.9 76.5,86.9 Z" fill="black" />
<path d="M 187.6,87.7 Q 184.1,91.9 179.9,96.7 Q 175.3,102.2 168.3,107 L 166.9,105.9 Q 170.3,97.2 172.9,91.9 Q 176.1,85.9 177,82 Z" fill="black" />
<path d="M 176.3,82.9 L 182.3,77.9 193.3,86.9 188.3,89.9 176.3,94.9 Z" fill="black" />
</svg>
