<svg xmlns="http://www.w3.org/2000/svg" xmlns:xlink="http://www.w3.org/1999/xlink" version="1.1" baseProfile="full" viewBox="0 0 200 200" width="200" height="200">
<path d="M 22.3,53.8 Q 27.3,70.8 26.7,83.2 Q 26.3,97.1 21.4,106.5 L 11.1,100.3 Q 16.3,93.1 18.3,82.4 Q 20.3,69.8 20.5,54.1 Z" fill="black" />
<path d="M 21.4,106.5 Q 18.1,110.8 13.2,108.5 Q 8.8,105.2 11.1,100.3 Z" fill="black" />
<path d="M 75.3,55.5 Q 69.2,61.8 61.8,68.5 Q 53.7,76.4 43.2,83.6 L 41.9,82.3 Q 49.7,70.4 55.5,62.8 Q 62.2,53.8 66,47.9 Z" fill="black" />
<path d="M 65.4,48.7 L 75.3,55.5 66.4,47.4 Z" fill="black" />
<path d="M 75.3,55.5 L 76.3,59 70.6,58.1 Z" fill="black" />
<path d="M 48.6,19 L 48.6,95 36.6,95 36.6,17 Z" fill="black" />
<path d="M 48.6,19 L 51.6,21 46.6,24 Z" fill="black" />
<path d="M 36.6,95 Q 37.2,100.4 42.6,101 Q 48,100.4 48.6,95 Z" fill="black" />
<path d="M 48.6,95 Q 47.6,128.6 38.4,150.4 Q 27.9,174.8 10.4,185.6 L 9.2,184.3 Q 24.9,167.8 30.4,147.5 Q 37.6,123.6 36.6,95 Z" fill="black" />
<path d="M 43.1,121 Q 54.9,129.2 61.5,138.1 Q 68.9,147.4 72.1,156.4 L 60.6,159.7 Q 58.9,151.4 54.4,142.7 Q 48.9,133.2 41.8,122.3 Z" fill="black" />
<path d="M 72.1,156.4 Q 73,161.8 68,163.8 Q 62.7,164.7 60.6,159.7 Z" fill="black" />
<path d="M 88.4,27 Q 92,32.4 92,37.9 Q 92,44 89.6,49.4 L 79.3,43.2 Q 82,40 83.6,36.6 Q 85,32.4 86.7,27.3 Z" fill="black" />
<path d="M 89.6,49.4 Q 86.3,53.7 81.3,51.5 Q 77,48.2 79.3,43.2 Z" fill="black" />
<path d="M 128.6,27.2 Q 125.4,32.9 121.1,37.3 Q 116.7,42.5 110.4,45.6 L 109,44.5 Q 111.7,37.5 114,32.6 Q 116.4,26.9 117.5,22.4 Z" fill="black" />
<path d="M 117.1,23.3 L 128.6,27.2 118.1,21.2 Z" fill="black" />
<path d="M 128.6,27.2 L 130.5,30.2 124.8,31 Z" fill="black" />
<path d="M 110,15.9 Q 109.3,41 101.6,56 Q 92.8,72.9 78.2,77.4 L 77.3,75.8 Q 89.8,65.9 93.8,52.7 Q 99.3,37 98,16.1 Z" fill="black" />
<path d="M 98,17.1 L 110,15.9 97.9,13.7 Z" fill="black" />
<path d="M 110,15.9 L 113,17.9 108,21 Z" fill="black" />
<path d="M 101.8,50.1 Q 110.3,52.2 116.9,56.6 Q 123.8,61.2 129.2,67.6 L 119.4,74.5 Q 115.8,68.2 111.3,62.9 Q 106.3,57.2 100.9,51.7 Z" fill="black" />
<path d="M 129.2,67.6 Q 131.8,72.4 127.7,76 Q 123,78.6 119.4,74.5 Z" fill="black" />
<path d="M 141,27 Q 144.6,32.4 144.5,37.9 Q 144.6,44 142.1,49.4 L 131.8,43.2 Q 134.6,40 136.1,36.6 Q 137.6,32.4 139.2,27.3 Z" fill="black" />
<path d="M 142.1,49.4 Q 138.8,53.7 133.9,51.5 Q 129.5,48.2 131.8,43.2 Z" fill="black" />
<path d="M 181.1,27.2 Q 177.9,32.9 173.6,37.3 Q 169.3,42.5 162.9,45.6 L 161.6,44.5 Q 164.3,37.5 166.5,32.6 Q 168.9,26.9 170.1,22.4 Z" fill="black" />
<path d="M 169.7,23.3 L 181.1,27.2 170.6,21.2 Z" fill="black" />
<path d="M 181.1,27.2 L 183.1,30.2 177.3,31 Z" fill="black" />
<path d="M 162.5,15.9 Q 161.8,41 154.2,56 Q 145.4,72.9 130.7,77.4 L 129.9,75.8 Q 142.4,65.9 146.4,52.7 Q 151.8,37 150.5,16.1 Z" fill="black" />
<path d="M 150.5,17.1 L 162.5,15.9 150.5,13.7 Z" fill="black" />
<path d="M 162.5,15.9 L 165.5,17.9 160.6,21 Z" fill="black" />
<path d="M 154.3,50.1 Q 162.9,52.2 169.5,56.6 Q 176.4,61.2 181.7,67.6 L 171.9,74.5 Q 168.4,68.2 163.9,62.9 Q 158.9,57.2 153.4,51.7 Z" fill="black" />
<path d="M 181.7,67.6 Q 184.3,72.4 180.3,76 Q 175.5,78.6 171.9,74.5 Z" fill="black" />
<path d="M 80.9,72.6 Q 83.8,89.6 82.4,99.9 Q 81.1,111.3 75.6,118.1 L 67.3,109.4 Q 71.1,107.3 74,98.2 Q 76.8,87.6 79.1,72.6 Z" fill="black" />
<path d="M 75.6,118.1 Q 71.3,121.3 67.1,117.8 Q 63.8,113.5 67.3,109.4 Z" fill="black" />
<path d="M 80.7,83.1 L 182.9,83.1 182.9,87.1 80.7,87.1 Z" fill="black" />
<path d="M 188.5,87.3 Q 185.3,93 181,99.6 Q 176.2,106.9 169.5,114.4 L 167.9,113.5 Q 171.2,102.9 173.4,95.9 Q 176.3,88 177.3,82.9 Z" fill="black" />
<path d="M 176.9,83.1 L 182.9,78.1 193.9,87.1 188.9,90.1 176.9,95.1 Z" fill="black" />
<path d="M 98,113.9 Q 101.2,126.8 97.8,136.4 Q 93.8,146.8 84.6,152.3 L 79.3,141.5 Q 86.8,138.8 90.1,132.9 Q 94.2,125.8 96.2,114 Z" fill="black" />
<path d="M 84.6,152.3 Q 79.5,154.1 76.6,149.5 Q 74.7,144.4 79.3,141.5 Z" fill="black" />
<path d="M 180.3,122.1 Q 171.3,128.5 161.9,133.9 Q 151.4,139.6 140,143.5 L 139.2,141.9 Q 149.4,133.6 157.1,126.8 Q 166.3,119.5 172.6,112.9 Z" fill="black" />
<path d="M 171.8,113.5 L 180.3,122.1 172.7,112.8 Z" fill="black" />
<path d="M 180.3,122.1 L 180.7,125.7 175.2,123.8 Z" fill="black" />
<path d="M 135,95.9 Q 134,135.9 117.4,158.4 Q 99.1,182.6 68.8,187.6 L 68.4,185.8 Q 99.1,174.6 110.3,153.7 Q 124,129.9 123,95.9 Z" fill="black" />
<path d="M 123,96.9 L 135,95.9 123,93.5 Z" fill="black" />
<path d="M 135,95.9 L 138,97.9 133,100.9 Z" fill="black" />
<path d="M 132.7,104.1 Q 136.3,135.4 148.5,151.7 Q 162.1,169.7 185,176 L 180.8,188.6 Q 152.1,177.7 140.7,156.8 Q 127.3,133.4 130.9,104.1 Z" fill="black" />
<path d="M 180.8,188.6 L 185,176 192.4,178.5 Z" fill="black" />
</svg>
