<svg xmlns="http://www.w3.org/2000/svg" xmlns:xlink="http://www.w3.org/1999/xlink" version="1.1" baseProfile="full" viewBox="0 0 200 200" width="200" height="200">
<path d="M 22,53.8 Q 27,70.8 26.5,83.2 Q 26,97.1 21.2,106.4 L 10.9,100.3 Q 16,93.1 18,82.4 Q 20,69.8 20.3,54.1 Z" fill="black" />
<path d="M 21.2,106.4 Q 17.9,110.8 13,108.5 Q 8.7,105.2 10.9,100.3 Z" fill="black" />
<path d="M 74.5,55.5 Q 68.4,61.8 61.1,68.5 Q 53.1,76.4 42.7,83.6 L 41.4,82.3 Q 49.1,70.4 54.7,62.8 Q 61.4,53.8 65.1,48 Z" fill="black" />
<path d="M 64.5,48.7 L 74.5,55.5 65.5,47.4 Z" fill="black" />
<path d="M 74.5,55.5 L 75.5,58.9 69.8,58.1 Z" fill="black" />
<path d="M 48.1,19 L 48.1,95 36.1,95 36.1,17 Z" fill="black" />
<path d="M 48.1,19 L 51.1,21 46.1,24 Z" fill="black" />
<path d="M 36.1,95 Q 36.7,100.4 42.1,101 Q 47.5,100.4 48.1,95 Z" fill="black" />
<path d="M 48.1,95 Q 47.1,128.6 38,150.4 Q 28,174.3 10.2,185.6 L 9.1,184.3 Q 24,168.3 30,147.5 Q 37.1,123.6 36.1,95 Z" fill="black" />
<path d="M 42.6,121 Q 54.2,129.2 60.8,138.1 Q 68.1,147.4 71.3,156.4 L 59.8,159.7 Q 58.1,151.4 53.7,142.7 Q 48.2,133.2 41.3,122.3 Z" fill="black" />
<path d="M 71.3,156.4 Q 72.2,161.8 67.2,163.8 Q 61.8,164.7 59.8,159.7 Z" fill="black" />
<path d="M 69.1,39.4 L 190.9,39.4 190.9,43.4 69.1,43.4 Z" fill="black" />
<path d="M 190.9,39.4 L 166.9,41.4 178.9,29.4 Z" fill="black" />
<path d="M 116.4,16.8 L 116.4,63 104.4,69 104.4,14.8 Z" fill="black" />
<path d="M 116.4,16.8 L 119.4,18.8 114.4,21.8 Z" fill="black" />
<path d="M 155.6,16.8 L 155.6,63 143.6,69 143.6,14.8 Z" fill="black" />
<path d="M 155.6,16.8 L 158.6,18.8 153.6,21.8 Z" fill="black" />
<path d="M 71.9,89 L 188.1,89 188.1,93 71.9,93 Z" fill="black" />
<path d="M 188.1,89 L 164.1,91 176.1,79 Z" fill="black" />
<path d="M 138.3,61.4 Q 128.7,94.6 113.2,118.1 Q 95.8,144.3 73.1,160.6 L 72,159.3 Q 93.8,137.3 105.9,113.8 Q 120.7,86.6 126.7,58.4 Z" fill="black" />
<path d="M 126.4,59.4 L 138.3,61.4 127.1,56.7 Z" fill="black" />
<path d="M 138.3,61.4 L 140.7,64.1 135.1,65.8 Z" fill="black" />
<path d="M 116.4,122 L 116.4,181 104.4,187 104.4,116 Z" fill="black" />
<path d="M 110.4,122 L 167.1,122 167.1,126 110.4,126 Z" fill="black" />
<path d="M 173.1,124 L 173.1,178 161.1,184 161.1,124 Z" fill="black" />
<path d="M 161.1,122 L 167.1,117 178.1,126 173.1,130 161.1,124 Z" fill="black" />
<path d="M 110.4,170 L 167.1,170 167.1,174 110.4,174 Z" fill="black" />
</svg>
