<svg xmlns="http://www.w3.org/2000/svg" xmlns:xlink="http://www.w3.org/1999/xlink" version="1.1" baseProfile="full" viewBox="0 0 200 200" width="200" height="200">
<g fill="black">
<polygon points="20.5,53.8 22.2,60.2 23.5,66.3 24.3,72.2 24.7,77.8 24.8,83.2 24.6,88.3 24,93.2 23.1,97.8 21.8,102.1 20.2,106.2 9.6,100.4 11.3,97.6 12.9,94.5 14.2,90.9 15.4,86.8 16.4,82.4 17.1,77.5 17.7,72.3 18.1,66.6 18.4,60.6 18.7,54.1 " />
<polygon points="20.2,106.2 16.5,109 12,108.6 9.2,105 9.6,100.4 " />
<polygon points="69.4,55.4 67.2,57.7 64.8,60.2 62.3,62.7 59.6,65.4 56.7,68.2 53.7,71.1 50.5,74.1 47.1,77.2 43.4,80.3 39.6,83.5 38.3,82.4 41,78.2 43.5,74.1 45.9,70.2 48.3,66.6 50.5,63.1 52.6,59.8 54.6,56.6 56.5,53.6 58.2,50.8 59.8,48.1 " />
<polygon points="59.2,48.9 69.4,55.4 60.3,47.5 " />
<polygon points="69.4,55.4 70.6,58.8 64.8,58.2 " />
<polygon points="45,19 45,95 33,95 33,17 " />
<polygon points="45,19 48,21 43,24 " />
<polygon points="33,95 35.4,98.6 39,101 42.6,98.6 45,95 " />
<polygon points="45,95 44.3,107.5 43.1,119.3 41.2,130.4 38.7,140.7 35.5,150.3 31.6,159.1 27.1,167.1 21.9,174.3 16.1,180.4 9.6,185.6 8.3,184.3 13.2,177.9 17.6,171.2 21.4,163.9 24.7,156.1 27.4,147.6 29.6,138.5 31.3,128.7 32.4,118.1 33,106.9 33,95 " />
<polygon points="39.5,121.1 43.5,124.5 47.2,127.8 50.6,131.3 53.7,134.8 56.5,138.3 59,141.9 61.3,145.5 63.3,149.1 65,152.8 66.5,156.5 54.9,159.6 54.3,156.4 53.5,153.1 52.4,149.7 51.1,146.2 49.5,142.5 47.7,138.7 45.6,134.8 43.4,130.8 40.9,126.6 38.2,122.3 " />
<polygon points="66.5,156.5 65.8,161 62.2,163.9 57.7,163.2 54.9,159.6 " />
<polygon points="59.8,20.5 133.7,20.5 133.7,24.5 59.8,24.5 " />
<polygon points="133.7,20.5 113.7,22.5 123.7,11.5 " />
<polygon points="85.8,20.5 85.8,86.6 73.8,86.6 73.8,20.5 " />
<polygon points="119.7,20.5 119.7,95.7 107.7,101.7 107.7,20.5 " />
<polygon points="79.8,39.3 113.7,39.3 113.7,43.3 79.8,43.3 " />
<polygon points="79.8,58.1 113.7,58.1 113.7,62.1 79.8,62.1 " />
<polygon points="60.9,83.2 65.6,82.4 70.4,81.6 75.4,80.7 80.4,79.8 85.6,79 90.9,78.1 96.3,77.2 101.9,76.4 107.6,75.7 113.5,75.2 113.9,77 108.5,79.4 103.2,81.6 97.9,83.6 92.7,85.4 87.7,87.2 82.7,88.9 77.8,90.5 73,92 68.3,93.5 63.7,94.9 " />
<polygon points="63.7,94.9 60.9,83.2 59,83.6 " />
<polygon points="63.7,94.9 66.3,97.3 68.9,90.6 " />
<polygon points="128.3,29 177.6,29 177.6,33 128.3,33 " />
<polygon points="183.2,33.2 179.2,41.6 174.7,49.5 169.8,56.8 164.5,63.6 158.8,69.8 152.7,75.4 146.1,80.3 139.2,84.6 131.8,88.2 124.1,91 123.3,89.4 130,84.9 136.2,80.2 142.1,75.2 147.5,69.8 152.5,64.1 157.2,57.9 161.5,51.3 165.4,44.2 168.9,36.7 172.1,28.7 " />
<polygon points="171.6,29 177.6,24 188.6,33 183.6,36 171.6,41 " />
<polygon points="131.9,46.5 138.6,48.1 145.1,50.2 151.3,52.9 157.2,56 162.9,59.5 168.3,63.4 173.4,67.6 178.2,72.2 182.8,77.1 187,82.4 177.1,89.2 173.8,84.2 170.2,79.3 166.3,74.7 162.2,70.4 157.7,66.2 153,62.3 148,58.6 142.7,55 137.1,51.6 131.3,48.1 " />
<polygon points="187,82.4 187.9,86.9 185.5,90.8 181,91.7 177.1,89.2 " />
<polygon points="164.2,108 157.9,109.1 150.9,110.1 143.1,111 134.6,111.9 125.3,112.7 115.3,113.4 104.5,114.1 93,114.6 80.7,114.8 67.6,114.8 67.4,113.1 80.4,111 92.5,109.2 103.9,107.5 114.5,105.9 124.3,104.3 133.3,102.7 141.6,101.1 149,99.5 155.6,97.9 161.4,96.3 " />
<polygon points="160.4,96.6 164.2,108 172,106.2 " />
<polygon points="172,106.2 172.3,109.2 165.1,105.7 " />
<polygon points="128.2,107 128.2,184 116.2,190 116.2,107 " />
<polygon points="93.7,123.7 93.1,131 91.8,138.1 89.9,144.7 87.4,150.9 84.2,156.7 80.3,162.1 75.9,166.9 70.9,171.2 65.2,174.9 59,178 58.1,176.5 62.9,171.9 67.2,167.3 71,162.6 74.1,157.7 76.7,152.7 78.8,147.4 80.3,141.9 81.3,136.1 81.8,130.1 81.7,123.7 " />
<polygon points="81.7,124.7 93.7,123.7 81.7,121.3 " />
<polygon points="93.7,123.7 96.7,125.7 91.7,128.7 " />
<polygon points="84.8,146.9 88.6,148.6 92.3,150.1 95.8,151.9 99.1,153.9 102.2,156 105.1,158.3 107.9,160.8 110.4,163.3 112.8,166 114.9,168.9 104.5,174.7 103.3,172.1 102,169.5 100.5,166.9 98.8,164.3 96.8,161.7 94.7,159.1 92.3,156.4 89.7,153.8 87,151 83.9,148.4 " />
<polygon points="114.9,168.9 115.4,173.4 112.6,177.1 108.1,177.5 104.5,174.7 " />
<polygon points="165.8,123.9 165.2,131.6 163.9,138.9 161.9,145.8 159.3,152.4 156,158.4 152,164 147.4,169.1 142.2,173.6 136.4,177.5 130,180.8 129,179.3 134.1,174.5 138.6,169.7 142.5,164.8 145.8,159.7 148.5,154.4 150.7,148.9 152.3,143.1 153.3,137 153.8,130.6 153.8,123.9 " />
<polygon points="153.8,124.9 165.8,123.9 153.8,121.5 " />
<polygon points="165.8,123.9 168.8,125.9 163.8,128.9 " />
<polygon points="156.7,148.3 160.6,150 164.5,151.7 168.1,153.6 171.6,155.7 174.8,158 177.8,160.4 180.7,163 183.3,165.7 185.7,168.6 187.9,171.6 177.4,177.4 176.2,174.6 174.8,171.9 173.2,169.2 171.4,166.4 169.3,163.7 167.1,160.9 164.6,158.2 161.9,155.4 159,152.5 155.8,149.8 " />
<polygon points="187.9,171.6 188.4,176.2 185.6,179.8 181,180.2 177.4,177.4 " />
</g>
</svg>
