<svg xmlns="http://www.w3.org/2000/svg" xmlns:xlink="http://www.w3.org/1999/xlink" version="1.1" baseProfile="full" viewBox="0 0 200 200" width="200" height="200">
<path d="M 22,53.8 Q 27,70.8 26.5,83.2 Q 26,97.1 21.2,106.4 L 10.9,100.3 Q 16,93.1 18,82.4 Q 20,69.8 20.3,54.1 Z" fill="black" />
<path d="M 21.2,106.4 Q 17.9,110.8 13,108.5 Q 8.7,105.2 10.9,100.3 Z" fill="black" />
<path d="M 74.5,55.5 Q 68.4,61.8 61.1,68.5 Q 53.1,76.4 42.7,83.6 L 41.4,82.3 Q 49.1,70.4 54.7,62.8 Q 61.4,53.8 65.1,48 Z" fill="black" />
<path d="M 64.5,48.7 L 74.5,55.5 65.5,47.4 Z" fill="black" />
<path d="M 74.5,55.5 L 75.5,58.9 69.8,58.1 Z" fill="black" />
<path d="M 48.1,19 L 48.1,95 36.1,95 36.1,17 Z" fill="black" />
<path d="M 48.1,19 L 51.1,21 46.1,24 Z" fill="black" />
<path d="M 36.1,95 Q 36.7,100.4 42.1,101 Q 47.5,100.4 48.1,95 Z" fill="black" />
<path d="M 48.1,95 Q 47.1,128.6 38,150.4 Q 28,174.3 10.2,185.6 L 9.1,184.3 Q 24,168.3 30,147.5 Q 37.1,123.6 36.1,95 Z" fill="black" />
<path d="M 42.6,121 Q 54.2,129.2 60.8,138.1 Q 68.1,147.4 71.3,156.4 L 59.8,159.7 Q 58.1,151.4 53.7,142.7 Q 48.2,133.2 41.3,122.3 Z" fill="black" />
<path d="M 71.3,156.4 Q 72.2,161.8 67.2,163.8 Q 61.8,164.7 59.8,159.7 Z" fill="black" />
<path d="M 113,17.6 Q 106.5,36.8 96,52.6 Q 84.9,69.8 69.4,82.6 L 68.1,81.3 Q 80.9,63.8 88.7,48.3 Q 97.5,30.8 101.5,14.2 Z" fill="black" />
<path d="M 101.2,15.2 L 113,17.6 102,12.6 Z" fill="black" />
<path d="M 113,17.6 L 115.3,20.4 109.7,21.8 Z" fill="black" />
<path d="M 100.8,31 L 142.2,31 142.2,35 100.8,35 Z" fill="black" />
<path d="M 147.8,35.2 Q 143.7,42.9 138.7,51.1 Q 133.2,59.9 126,68.4 L 124.4,67.5 Q 128.2,55.9 131.1,47.3 Q 134.7,37.9 136.7,30.7 Z" fill="black" />
<path d="M 136.2,31 L 142.2,26 153.2,35 148.2,38 136.2,43 Z" fill="black" />
<path d="M 97.5,65.5 L 97.5,134.5 85.5,140.5 85.5,59.5 Z" fill="black" />
<path d="M 91.5,65.5 L 164.4,65.5 164.4,69.5 91.5,69.5 Z" fill="black" />
<path d="M 170.4,67.5 L 170.4,134.5 158.4,140.5 158.4,67.5 Z" fill="black" />
<path d="M 158.4,65.5 L 164.4,60.5 175.4,69.5 170.4,73.5 158.4,67.5 Z" fill="black" />
<path d="M 134,65.5 L 134,134.5 122,134.5 122,65.5 Z" fill="black" />
<path d="M 91.5,97.5 L 164.4,97.5 164.4,101.5 91.5,101.5 Z" fill="black" />
<path d="M 91.5,130.5 L 164.4,130.5 164.4,134.5 91.5,134.5 Z" fill="black" />
<path d="M 90.1,148.4 Q 92.3,162.1 89.9,170.9 Q 87.5,180.8 80.8,186.7 L 73.9,176.8 Q 78.5,174.8 81.9,168.1 Q 85.3,160.1 88.3,148.3 Z" fill="black" />
<path d="M 80.8,186.7 Q 76,189.3 72.4,185.2 Q 69.9,180.4 73.9,176.8 Z" fill="black" />
<path d="M 108.2,149.4 Q 115.4,155.2 118,162.9 Q 121.3,171.1 121.2,179.2 L 109.3,178.3 Q 110.3,171.1 109.8,165.1 Q 108.4,158.2 106.7,150.4 Z" fill="black" />
<path d="M 121.2,179.2 Q 120.2,184.5 114.8,184.7 Q 109.5,183.7 109.3,178.3 Z" fill="black" />
<path d="M 134,149.2 Q 142.4,155.2 146.7,162.2 Q 151.7,170.1 152.7,178.3 L 140.8,179.2 Q 140.7,172.1 139,165.8 Q 136.4,158.2 132.7,150.4 Z" fill="black" />
<path d="M 152.7,178.3 Q 152.6,183.7 147.2,184.7 Q 141.8,184.5 140.8,179.2 Z" fill="black" />
<path d="M 161.3,148.3 Q 171.3,154.7 176.8,162.4 Q 182.9,171 185.5,179.3 L 173.8,181.8 Q 172.9,174 169.6,166.8 Q 165.3,158.7 160,149.6 Z" fill="black" />
<path d="M 185.5,179.3 Q 186.1,184.7 180.9,186.4 Q 175.5,187 173.8,181.8 Z" fill="black" />
</svg>
