<svg xmlns="http://www.w3.org/2000/svg" xmlns:xlink="http://www.w3.org/1999/xlink" version="1.1" baseProfile="full" viewBox="0 0 200 200" width="200" height="200">
<path d="M 17.5,53.8 Q 21.9,70.8 21.7,83.1 Q 21.5,96.5 18.1,105.8 L 7.2,100.7 Q 11.5,93.5 13.2,82.4 Q 14.9,69.8 15.7,54 Z" fill="black" />
<path d="M 18.1,105.8 Q 15.3,110.4 10.1,108.7 Q 5.5,105.8 7.2,100.7 Z" fill="black" />
<path d="M 59.7,55 Q 54.8,61.3 48.9,68.1 Q 42.5,75.9 33.7,83.5 L 32.2,82.4 Q 37.5,70.9 41.9,63.2 Q 46.8,54.3 49.6,48.6 Z" fill="black" />
<path d="M 49.1,49.4 L 59.7,55 50.1,47.8 Z" fill="black" />
<path d="M 59.7,55 L 61.2,58.3 55.4,58.2 Z" fill="black" />
<path d="M 39,19 L 39,95 27,95 27,17 Z" fill="black" />
<path d="M 39,19 L 42,21 37,24 Z" fill="black" />
<path d="M 27,95 Q 27.6,100.4 33,101 Q 38.4,100.4 39,95 Z" fill="black" />
<path d="M 39,95 Q 38,128.6 30.7,150.1 Q 22.4,174.3 8.2,185.6 L 6.9,184.3 Q 18.4,168.3 22.5,147.8 Q 28,123.6 27,95 Z" fill="black" />
<path d="M 33.7,121.2 Q 43.2,129.8 48.6,138.5 Q 54.5,147.9 57.2,156.7 L 45.5,159.3 Q 44.5,150.9 41.1,142.3 Q 37.2,132.8 32.2,122.3 Z" fill="black" />
<path d="M 57.2,156.7 Q 57.8,162.1 52.7,163.9 Q 47.3,164.5 45.5,159.3 Z" fill="black" />
<path d="M 57.2,27 L 116.5,27 116.5,31 57.2,31 Z" fill="black" />
<path d="M 116.5,27 L 92.5,29 104.5,17 Z" fill="black" />
<path d="M 74.9,43 L 74.9,71 62.9,77 62.9,37 Z" fill="black" />
<path d="M 68.9,43 L 105.6,43 105.6,47 68.9,47 Z" fill="black" />
<path d="M 110.6,45 L 110.6,70.5 100.6,75.5 100.6,45 Z" fill="black" />
<path d="M 100.6,43 L 105.6,38 115.6,47 110.6,50 100.6,45 Z" fill="black" />
<path d="M 78,49.7 Q 85.3,50.7 90,54.4 Q 95.1,58 97.7,63.1 L 86.4,67.1 Q 86.1,64 84,60.3 Q 81.3,56.7 77.1,51.2 Z" fill="black" />
<path d="M 97.7,63.1 Q 99,68.4 94.1,70.8 Q 88.8,72 86.4,67.1 Z" fill="black" />
<path d="M 125.1,27 L 184.4,27 184.4,31 125.1,31 Z" fill="black" />
<path d="M 184.4,27 L 160.4,29 172.4,17 Z" fill="black" />
<path d="M 140.2,43 L 140.2,71.5 130.2,76.5 130.2,38 Z" fill="black" />
<path d="M 135.2,43 L 171.9,43 171.9,47 135.2,47 Z" fill="black" />
<path d="M 177.9,45 L 177.9,70 165.9,76 165.9,45 Z" fill="black" />
<path d="M 165.9,43 L 171.9,38 182.9,47 177.9,51 165.9,45 Z" fill="black" />
<path d="M 145.1,50.6 Q 152,51.2 156.7,54.9 Q 161.8,58.5 164.7,64 L 153.5,68.3 Q 152.8,64.5 150.6,60.8 Q 148,57.2 144.3,52.2 Z" fill="black" />
<path d="M 164.7,64 Q 166.1,69.2 161.3,71.7 Q 156,73.1 153.5,68.3 Z" fill="black" />
<path d="M 76.5,83 L 76.5,127 64.5,127 64.5,77 Z" fill="black" />
<path d="M 64.5,127 Q 65.1,132.4 70.5,133 Q 75.9,132.4 76.5,127 Z" fill="black" />
<path d="M 76.5,127 Q 75.5,152.7 70.9,167.9 Q 65.6,184.9 56.2,189.6 L 55.1,188.3 Q 60.6,179.9 62.6,166 Q 65.5,149.7 64.5,127 Z" fill="black" />
<path d="M 70.5,83 L 182.8,83 182.8,87 70.5,87 Z" fill="black" />
<path d="M 182.8,83 L 158.8,85 170.8,73 Z" fill="black" />
<path d="M 125.2,65 L 125.2,86 117.2,86 117.2,63 Z" fill="black" />
<path d="M 125.2,65 L 127.2,67 123.2,70 Z" fill="black" />
<path d="M 70.5,101 L 165.6,101 165.6,105 70.5,105 Z" fill="black" />
<path d="M 171.6,103 L 171.6,126 159.6,132 159.6,103 Z" fill="black" />
<path d="M 159.6,101 L 165.6,96 176.6,105 171.6,109 159.6,103 Z" fill="black" />
<path d="M 70.5,120 L 165.6,120 165.6,124 70.5,124 Z" fill="black" />
<path d="M 110.8,92 L 110.8,124 98.8,124 98.8,90 Z" fill="black" />
<path d="M 110.8,92 L 113.8,94 108.8,97 Z" fill="black" />
<path d="M 142.8,92 L 142.8,124 130.8,124 130.8,90 Z" fill="black" />
<path d="M 142.8,92 L 145.8,94 140.8,97 Z" fill="black" />
<path d="M 96.8,129 L 96.8,176 84.8,176 84.8,127 Z" fill="black" />
<path d="M 96.8,129 L 99.8,131 94.8,134 Z" fill="black" />
<path d="M 90.8,146 L 126.6,146 126.6,150 90.8,150 Z" fill="black" />
<path d="M 126.6,146 L 110.6,148 118.6,139 Z" fill="black" />
<path d="M 70.5,173.9 Q 80.8,171.8 94.7,167.9 Q 110.1,163.5 128.7,159.1 L 129.3,160.8 Q 110.1,170.5 97.5,175.9 Q 82.8,181.8 73.9,185.4 Z" fill="black" />
<path d="M 73.9,185.4 L 70.5,173.9 68.6,174.5 Z" fill="black" />
<path d="M 73.9,185.4 L 76.7,187.7 78.8,180.8 Z" fill="black" />
<path d="M 173.2,151.7 Q 166.5,154.7 157.7,157.2 Q 148.3,160.4 137.1,161.8 L 136.5,160.1 Q 147.3,153.4 154.4,149.4 Q 162.5,144.7 167.3,141.2 Z" fill="black" />
<path d="M 166.4,141.7 L 173.2,151.7 175.2,150.5 Z" fill="black" />
<path d="M 175.2,150.5 L 175.4,153.9 169.5,151.4 Z" fill="black" />
<path d="M 142.8,132 L 142.8,169 130.8,169 130.8,130 Z" fill="black" />
<path d="M 142.8,132 L 145.8,134 140.8,137 Z" fill="black" />
<path d="M 130.8,169 Q 131.4,174.4 136.8,175 Q 142.2,174.4 142.8,169 Z" fill="black" />
<path d="M 142.8,169 Q 143.3,172.4 143.5,172.2 Q 143.7,173 146.8,173 L 146.8,185 Q 139.7,185 135,180.7 Q 130.3,175.4 130.8,169 Z" fill="black" />
<path d="M 146.8,173 Q 152.2,173.6 152.8,179 Q 152.2,184.4 146.8,185 Z" fill="black" />
<path d="M 146.8,173 L 182.8,173 182.8,185 146.8,185 Z" fill="black" />
<path d="M 182.8,173 Q 188.2,173.6 188.8,179 Q 188.2,184.4 182.8,185 Z" fill="black" />
<path d="M 182.8,174 L 184.8,148 182.8,148 176.8,174 Z" fill="black" />
</svg>
