<svg xmlns="http://www.w3.org/2000/svg" xmlns:xlink="http://www.w3.org/1999/xlink" version="1.1" baseProfile="full" viewBox="0 0 200 200" width="200" height="200">
<path d="M 52.2,34.1 Q 58.1,42 55.9,50.7 Q 52.9,59.9 43.5,65.5 L 37.7,54.9 Q 45.9,50.9 48,47.4 Q 51.1,43 50.5,34.8 Z" fill="black" />
<path d="M 43.5,65.5 Q 38.4,67.5 35.3,63.1 Q 33.3,58 37.7,54.9 Z" fill="black" />
<path d="M 166.1,37.7 Q 156.6,42.1 144.1,47.2 Q 130.1,53.1 112.3,58.3 L 111.6,56.6 Q 129.1,46.1 140.4,39.6 Q 153.6,32.1 160.1,27.3 Z" fill="black" />
<path d="M 167.9,36.6 L 166.1,37.7 159.2,27.8 Z" fill="black" />
<path d="M 167.9,36.6 L 168,40 162.2,37.6 Z" fill="black" />
<path d="M 106,15.3 Q 104.5,54.6 81.4,75.3 Q 55.9,97.5 14.1,101.5 L 13.8,99.7 Q 58.9,89.5 75.5,69.3 Q 95.5,46.6 94,15.3 Z" fill="black" />
<path d="M 94,12.9 L 106,15.3 94,16.3 Z" fill="black" />
<path d="M 106,15.3 L 109,17.3 104,20.3 Z" fill="black" />
<path d="M 98.1,32.8 Q 107,55.1 125.6,68.1 Q 146.6,82.5 179.6,90.1 L 176.3,102.9 Q 138.6,92.5 119.9,75.4 Q 98,56.1 96.3,33.2 Z" fill="black" />
<path d="M 176.3,102.9 L 179.6,90.1 188.1,92.2 Z" fill="black" />
<path d="M 76,100.2 L 76,126.6 64,126.6 64,94.2 Z" fill="black" />
<path d="M 76,126.6 Q 75.4,132 70,132.6 Q 64.6,132 64,126.6 Z" fill="black" />
<path d="M 75.9,127.1 Q 72.5,153.7 59.3,168.7 Q 44.2,185.1 22.2,187.8 L 21.7,186 Q 44.2,177.1 52.6,163.4 Q 63.5,147.7 64,126.1 Z" fill="black" />
<path d="M 70,100.2 L 127,100.2 127,104.2 70,104.2 Z" fill="black" />
<path d="M 133,102.2 L 133,166.5 121,166.5 121,102.2 Z" fill="black" />
<path d="M 121,100.2 L 127,95.2 138,104.2 133,108.2 121,102.2 Z" fill="black" />
<path d="M 133,166.5 Q 132.4,171.9 127,172.5 Q 121.6,171.9 121,166.5 Z" fill="black" />
<path d="M 133,166.5 Q 133.5,169.9 133.7,169.7 Q 133.9,170.5 137,170.5 L 137,182.5 Q 129.9,182.5 125.2,178.2 Q 120.5,172.9 121,166.5 Z" fill="black" />
<path d="M 137,170.5 Q 142.4,171.1 143,176.5 Q 142.4,181.9 137,182.5 Z" fill="black" />
<path d="M 137,170.5 L 175,170.5 175,182.5 137,182.5 Z" fill="black" />
<path d="M 175,170.5 Q 180.4,171.1 181,176.5 Q 180.4,181.9 175,182.5 Z" fill="black" />
<path d="M 169,171.5 L 175,145.5 177,145.5 175,171.5 Z" fill="black" />
</svg>
