<svg xmlns="http://www.w3.org/2000/svg" xmlns:xlink="http://www.w3.org/1999/xlink" version="1.1" baseProfile="full" viewBox="0 0 200 200" width="200" height="200">
<path d="M 15.4,45.6 L 84.5,45.6 84.5,49.6 15.4,49.6 Z" fill="black" />
<path d="M 84.5,45.6 L 60.5,47.6 72.5,35.6 Z" fill="black" />
<path d="M 55.9,14.3 L 55.9,97.1 43.9,97.1 43.9,12.3 Z" fill="black" />
<path d="M 55.9,14.3 L 58.9,16.3 53.9,19.3 Z" fill="black" />
<path d="M 9.1,93.1 L 90.8,93.1 90.8,97.1 9.1,97.1 Z" fill="black" />
<path d="M 90.8,93.1 L 66.8,95.1 78.8,83.1 Z" fill="black" />
<path d="M 31.6,111.9 Q 33.5,126.2 31.5,135.7 Q 29.9,146.2 24.8,152.7 L 15.9,144.7 Q 19.9,141.2 23.3,133.4 Q 26.5,124.2 29.8,111.8 Z" fill="black" />
<path d="M 24.8,152.7 Q 20.8,156.3 16.4,153.1 Q 12.7,149.1 15.9,144.7 Z" fill="black" />
<path d="M 84.4,118.2 Q 79.1,125.7 73.5,132.8 Q 67.4,140.6 59.4,146.6 L 57.9,145.5 Q 62.4,135.6 66.4,128.1 Q 71.1,119.7 73.8,112.5 Z" fill="black" />
<path d="M 73.3,113.4 L 84.4,118.2 74.3,111.5 Z" fill="black" />
<path d="M 84.4,118.2 L 86.1,121.4 80.2,121.6 Z" fill="black" />
<path d="M 55.7,102.1 Q 54.5,140.8 42.7,161.9 Q 29.5,184.7 7.7,188.2 L 7.2,186.5 Q 27.5,177.7 35.1,158.1 Q 44.5,135.8 43.7,102.1 Z" fill="black" />
<path d="M 43.7,103.1 L 55.7,102.1 43.7,99.7 Z" fill="black" />
<path d="M 55.7,102.1 L 58.7,104.2 53.7,107.1 Z" fill="black" />
<path d="M 51.6,109.4 Q 56.7,141.2 65.5,156 Q 75.4,171.8 89.1,173.7 L 85.9,186.5 Q 65.4,179.8 57.3,160.3 Q 47.7,139.2 49.8,109.4 Z" fill="black" />
<path d="M 85.9,186.5 L 89.1,173.7 97.6,175.8 Z" fill="black" />
<path d="M 109,26 L 109,181.2 98,186.7 98,20.5 Z" fill="black" />
<path d="M 103.5,26 L 176.9,26 176.9,30 103.5,30 Z" fill="black" />
<path d="M 182.4,28 L 182.4,170 171.4,170 171.4,28 Z" fill="black" />
<path d="M 171.4,26 L 176.9,21 187.4,30 182.4,33.5 171.4,28 Z" fill="black" />
<path d="M 171.4,170 Q 171.9,174.9 176.9,175.5 Q 181.8,174.9 182.4,170 Z" fill="black" />
<path d="M 182.4,170 Q 182.4,176.4 178.8,181.1 Q 174,186 168.1,185.5 L 168.1,174.5 Q 171,174 170.5,173.8 Q 171.4,173.4 171.4,170 Z" fill="black" />
<path d="M 168.1,180 L 168.1,174.5 154.1,174.5 154.1,177.2 Z" fill="black" />
<path d="M 115.3,59 L 165.1,59 165.1,63 115.3,63 Z" fill="black" />
<path d="M 165.1,59 L 145.1,61 155.1,50 Z" fill="black" />
<path d="M 131.2,88.4 L 131.2,152.5 120.2,158 120.2,82.9 Z" fill="black" />
<path d="M 125.7,88.4 L 154.6,88.4 154.6,92.4 125.7,92.4 Z" fill="black" />
<path d="M 160.1,90.4 L 160.1,146.5 149.1,152 149.1,90.4 Z" fill="black" />
<path d="M 149.1,88.4 L 154.6,83.4 165.1,92.4 160.1,95.9 149.1,90.4 Z" fill="black" />
<path d="M 125.7,136.5 L 154.6,136.5 154.6,140.5 125.7,140.5 Z" fill="black" />
</svg>
