<svg xmlns="http://www.w3.org/2000/svg" xmlns:xlink="http://www.w3.org/1999/xlink" version="1.1" baseProfile="full" viewBox="0 0 200 200" width="200" height="200">
<path d="M 53.3,19.3 Q 59.7,23.8 56.3,31 Q 52.4,37.9 43.2,42.5 L 38.2,31.6 Q 47.4,27.9 49.3,26.2 Q 51.7,24.8 51.8,20.4 Z" fill="black" />
<path d="M 43.2,42.5 Q 38,44.2 35.2,39.5 Q 33.5,34.4 38.2,31.6 Z" fill="black" />
<path d="M 167.3,22.7 Q 158.6,27 148.1,30.4 Q 136.1,34.3 122.2,35.9 L 121.7,34.2 Q 136.1,27.3 144.9,22.5 Q 155.6,17 160.9,12.5 Z" fill="black" />
<path d="M 160.1,13.1 L 167.3,22.7 168.4,22 Z" fill="black" />
<path d="M 168.4,22 L 168.6,25.4 162.9,23.1 Z" fill="black" />
<path d="M 110,10.3 Q 109,34.5 86.7,46.6 Q 62.9,59.7 22.1,62.7 L 21.8,60.9 Q 65.9,51.7 82.2,39.4 Q 101,25.5 98,10.9 Z" fill="black" />
<path d="M 98.1,11.9 L 110,10.3 97.9,8.6 Z" fill="black" />
<path d="M 110,10.3 L 113.1,12.1 108.2,15.4 Z" fill="black" />
<path d="M 94.1,38.9 Q 118.7,40.1 137,43.6 Q 157.4,47.2 172.3,52.5 L 168,63.7 Q 152.4,57.2 135,51.8 Q 114.7,46.1 93.8,40.6 Z" fill="black" />
<path d="M 172.3,52.5 Q 177.1,55 175.7,60.3 Q 173.2,65.1 168,63.7 Z" fill="black" />
<path d="M 56,65.9 Q 59.5,75 53.4,82.5 Q 46.5,90.3 34.2,93.5 L 31.5,81.8 Q 43.5,79.3 47.5,76.4 Q 52.5,73 54.2,66.1 Z" fill="black" />
<path d="M 34.2,93.5 Q 28.8,94.1 27,88.9 Q 26.4,83.6 31.5,81.8 Z" fill="black" />
<path d="M 169.2,73.5 Q 157.1,77.3 144.3,80.5 Q 130.1,84.1 115.2,85.5 L 114.7,83.8 Q 130.1,77.1 141.7,72.4 Q 155.1,67.3 164.8,62.4 Z" fill="black" />
<path d="M 163.9,62.7 L 169.2,73.5 174,71.6 Z" fill="black" />
<path d="M 174,71.6 L 174.2,74.8 167.7,72 Z" fill="black" />
<path d="M 106,54.1 Q 104,82.9 81.1,97 Q 56.4,112.4 15.1,114.6 L 14.8,112.8 Q 59.4,104.4 76.3,90 Q 96,73.9 94,54.1 Z" fill="black" />
<path d="M 94,55.1 L 106,54.1 94,51.7 Z" fill="black" />
<path d="M 106,54.1 L 109,56.1 104,59.1 Z" fill="black" />
<path d="M 104.9,59.5 Q 108.5,78.8 124.7,88.5 Q 143.1,100.1 177,104.3 L 174.9,117.3 Q 136.1,110.1 119.2,96.1 Q 99.5,79.8 103.1,59.5 Z" fill="black" />
<path d="M 174.9,117.3 L 177,104.3 186.8,105.8 Z" fill="black" />
<path d="M 29,130 L 171,130 171,134 29,134 Z" fill="black" />
<path d="M 171,130 L 147,132 159,120 Z" fill="black" />
<path d="M 83,118 L 83,154 71,154 71,116 Z" fill="black" />
<path d="M 83,118 L 86,120 81,123 Z" fill="black" />
<path d="M 129,118 L 129,154 117,154 117,116 Z" fill="black" />
<path d="M 129,118 L 132,120 127,123 Z" fill="black" />
<path d="M 15,150 L 185,150 185,154 15,154 Z" fill="black" />
<path d="M 185,150 L 161,152 173,140 Z" fill="black" />
<path d="M 82,165.2 Q 72.1,171.7 57.3,177.5 Q 40.7,183.9 18.2,188.8 L 17.7,187.1 Q 40.7,176.9 53.8,169.7 Q 69.1,161.7 74.4,155.9 Z" fill="black" />
<path d="M 73.6,156.6 L 82,165.2 74.5,155.8 Z" fill="black" />
<path d="M 82,165.2 L 82.3,168.8 76.8,166.8 Z" fill="black" />
<path d="M 122.1,159.2 Q 137.3,159.5 151.5,164.4 Q 167.1,170 180.8,178.3 L 174.1,188.3 Q 160.1,178 148.2,172.2 Q 134.3,165.5 121.8,161 Z" fill="black" />
<path d="M 180.8,178.3 Q 184.9,181.8 182.4,186.6 Q 179,190.8 174.1,188.3 Z" fill="black" />
</svg>
