<svg xmlns="http://www.w3.org/2000/svg" xmlns:xlink="http://www.w3.org/1999/xlink" version="1.1" baseProfile="full" viewBox="0 0 200 200" width="200" height="200">
<path d="M 42.5,26.3 Q 46.5,31.8 46,37.7 Q 45.3,44.5 41.6,49.9 L 32.4,42.1 Q 36.3,38.5 37.8,35.7 Q 39.5,31.8 40.7,26.8 Z" fill="black" />
<path d="M 41.6,49.9 Q 37.6,53.6 33.1,50.6 Q 29.4,46.6 32.4,42.1 Z" fill="black" />
<path d="M 96.8,27.2 Q 92.6,32.7 87,37.2 Q 81.2,42.4 73.4,45.2 L 72.3,43.7 Q 77.2,36.4 80.7,31.5 Q 84.6,25.7 86.5,21 Z" fill="black" />
<path d="M 86,21.9 L 96.8,27.2 87.1,20.2 Z" fill="black" />
<path d="M 96.8,27.2 L 98.3,30.5 92.5,30.5 Z" fill="black" />
<path d="M 70.8,15.3 Q 70.2,40.9 59.6,56 Q 47.4,72.3 28.2,76.9 L 27.5,75.2 Q 46.4,65.3 52.4,51.5 Q 60.2,35.9 58.8,15.5 Z" fill="black" />
<path d="M 58.8,16.5 L 70.8,15.3 58.7,13.2 Z" fill="black" />
<path d="M 70.8,15.3 L 73.8,17.2 68.9,20.3 Z" fill="black" />
<path d="M 61.1,49.4 Q 72.7,51 81.3,55.6 Q 90.8,60.3 98,66.6 L 89.4,75 Q 83.8,68.3 76.8,62.8 Q 68.7,57 60.4,51 Z" fill="black" />
<path d="M 98,66.6 Q 101.3,70.8 97.9,75.1 Q 93.6,78.4 89.4,75 Z" fill="black" />
<path d="M 116.5,26.3 Q 120.5,31.8 120,37.7 Q 119.3,44.5 115.6,49.9 L 106.4,42.1 Q 110.3,38.5 111.8,35.7 Q 113.5,31.8 114.7,26.8 Z" fill="black" />
<path d="M 115.6,49.9 Q 111.6,53.6 107.1,50.6 Q 103.4,46.6 106.4,42.1 Z" fill="black" />
<path d="M 170.8,27.2 Q 166.6,32.7 161,37.2 Q 155.2,42.4 147.4,45.2 L 146.3,43.7 Q 151.2,36.4 154.7,31.5 Q 158.6,25.7 160.5,21 Z" fill="black" />
<path d="M 160,21.9 L 170.8,27.2 161.1,20.2 Z" fill="black" />
<path d="M 170.8,27.2 L 172.3,30.5 166.5,30.5 Z" fill="black" />
<path d="M 144.8,15.3 Q 144.2,40.9 133.6,56 Q 121.4,72.3 102.2,76.9 L 101.5,75.2 Q 120.4,65.3 126.4,51.5 Q 134.2,35.9 132.8,15.5 Z" fill="black" />
<path d="M 132.8,16.5 L 144.8,15.3 132.7,13.2 Z" fill="black" />
<path d="M 144.8,15.3 L 147.8,17.2 142.9,20.3 Z" fill="black" />
<path d="M 135.1,49.4 Q 146.7,51 155.3,55.6 Q 164.8,60.3 172,66.6 L 163.4,75 Q 157.8,68.3 150.8,62.8 Q 142.7,57 134.4,51 Z" fill="black" />
<path d="M 172,66.6 Q 175.3,70.8 171.9,75.1 Q 167.6,78.4 163.4,75 Z" fill="black" />
<path d="M 39,84.6 L 39,187.1 27,193.1 27,78.6 Z" fill="black" />
<path d="M 33,84.6 L 168,84.6 168,88.6 33,88.6 Z" fill="black" />
<path d="M 174,86.6 L 174,178.2 162,178.2 162,86.6 Z" fill="black" />
<path d="M 162,84.6 L 168,79.6 179,88.6 174,92.6 162,86.6 Z" fill="black" />
<path d="M 162,178.2 Q 162.6,183.6 168,184.2 Q 173.4,183.6 174,178.2 Z" fill="black" />
<path d="M 174,178.2 Q 174,185.1 169.7,189.9 Q 164.5,194.7 158,194.2 L 158,182.2 Q 161.5,181.7 161.2,181.4 Q 162,181.1 162,178.2 Z" fill="black" />
<path d="M 158,188.2 L 158,182.2 138,182.2 138,185.2 Z" fill="black" />
<path d="M 91.7,89.9 Q 87.4,109.5 74.7,120.8 Q 61.1,133 41.2,136.6 L 40.7,134.9 Q 60.1,126 68.6,114.9 Q 78.4,102.5 79.9,87.9 Z" fill="black" />
<path d="M 79.7,88.9 L 91.7,89.9 80.2,86 Z" fill="black" />
<path d="M 91.7,89.9 L 94.3,92.4 88.9,94.5 Z" fill="black" />
<path d="M 121,84.6 L 121,113.3 109,113.3 109,84.6 Z" fill="black" />
<path d="M 109,113.3 Q 109.6,118.7 115,119.3 Q 120.4,118.7 121,113.3 Z" fill="black" />
<path d="M 121,113.3 Q 121.5,116.8 121.7,116.6 Q 121.9,117.3 125,117.3 L 125,129.3 Q 117.9,129.3 113.2,125.1 Q 108.5,119.8 109,113.3 Z" fill="black" />
<path d="M 125,118.8 Q 129,119.3 129.5,123.3 Q 129,127.4 125,127.8 Z" fill="black" />
<path d="M 125,118.8 L 151,118.8 151,127.8 125,127.8 Z" fill="black" />
<path d="M 151,118.8 Q 155,119.3 155.5,123.3 Q 155,127.4 151,127.8 Z" fill="black" />
<path d="M 151,119.8 L 153,105.8 151,105.8 146.5,119.8 Z" fill="black" />
<path d="M 75.4,136.5 L 75.4,175.4 63.4,181.4 63.4,130.5 Z" fill="black" />
<path d="M 69.4,136.5 L 128.5,136.5 128.5,140.5 69.4,140.5 Z" fill="black" />
<path d="M 134.5,138.5 L 134.5,172.4 122.5,178.4 122.5,138.5 Z" fill="black" />
<path d="M 122.5,136.5 L 128.5,131.5 139.5,140.5 134.5,144.5 122.5,138.5 Z" fill="black" />
<path d="M 69.4,164.4 L 128.5,164.4 128.5,168.4 69.4,168.4 Z" fill="black" />
</svg>
