<svg xmlns="http://www.w3.org/2000/svg" xmlns:xlink="http://www.w3.org/1999/xlink" version="1.1" baseProfile="full" viewBox="0 0 200 200" width="200" height="200">
<path d="M 49.7,15.5 Q 46.3,28.2 41.9,39.2 Q 37.5,51.7 31.2,61.6 L 29.5,61 Q 31.5,47.7 33.8,36.9 Q 36.3,24.2 38,13 Z" fill="black" />
<path d="M 37.8,14 L 49.7,15.5 38.4,11.2 Z" fill="black" />
<path d="M 49.7,15.5 L 52.2,18.1 46.7,20 Z" fill="black" />
<path d="M 14,59.5 Q 28.5,58.4 43.1,56.5 Q 59.1,54 75.6,51.7 L 76.2,53.4 Q 59.1,61 44.8,64.8 Q 28.5,69.4 15.3,71.5 Z" fill="black" />
<path d="M 15.3,71.5 L 14,59.5 12,59.8 Z" fill="black" />
<path d="M 15.3,71.5 L 17.7,74.2 21,67.8 Z" fill="black" />
<path d="M 60.1,26.5 Q 69.4,33.3 75.8,43.2 Q 82.6,53.8 87.5,66.3 L 76.1,70.1 Q 72.6,56.8 68.3,47.2 Q 63.4,36.3 58.7,27.7 Z" fill="black" />
<path d="M 87.5,66.3 Q 88.6,71.7 83.7,73.9 Q 78.4,75 76.1,70.1 Z" fill="black" />
<path d="M 31.3,81.6 Q 29.2,98.1 24.7,110.7 Q 20.2,124.9 12,135.2 L 10.4,134.3 Q 14.2,120.9 16.5,108.6 Q 19.2,94.1 19.4,80.7 Z" fill="black" />
<path d="M 19.3,81.7 L 31.3,81.6 19.5,78.5 Z" fill="black" />
<path d="M 31.3,81.6 L 34.2,83.8 28.9,86.4 Z" fill="black" />
<path d="M 20.5,106.8 L 81.3,106.8 81.3,110.8 20.5,110.8 Z" fill="black" />
<path d="M 81.3,106.8 L 57.3,108.8 69.3,96.8 Z" fill="black" />
<path d="M 6.8,141.9 L 92.1,141.9 92.1,145.9 6.8,145.9 Z" fill="black" />
<path d="M 92.1,141.9 L 68.1,143.9 80.1,131.9 Z" fill="black" />
<path d="M 55,78.6 L 55,181.2 43,187.2 43,76.6 Z" fill="black" />
<path d="M 55,78.6 L 58,80.6 53,83.6 Z" fill="black" />
<path d="M 141.5,21.4 Q 130.1,47.8 116,67.5 Q 100.5,89.6 82.2,104.1 L 80.9,102.9 Q 97.5,82.6 108.8,62.9 Q 122.1,39.8 130.4,16.9 Z" fill="black" />
<path d="M 130,17.9 L 141.5,21.4 130.9,15.6 Z" fill="black" />
<path d="M 141.5,21.4 L 143.6,24.4 137.8,25.3 Z" fill="black" />
<path d="M 135.1,22.8 Q 148.1,44.9 160.1,59.4 Q 173.2,75.5 186.5,84 L 178.5,94.6 Q 163.2,81.5 152.5,64.9 Q 140.1,45.9 133.5,23.6 Z" fill="black" />
<path d="M 178.5,94.6 L 186.5,84 189.5,86.3 Z" fill="black" />
<path d="M 108.7,84.2 L 159.7,84.2 159.7,88.2 108.7,88.2 Z" fill="black" />
<path d="M 159.7,84.2 L 135.7,86.2 147.7,74.2 Z" fill="black" />
<path d="M 93.9,117.7 L 173.9,117.7 173.9,121.7 93.9,121.7 Z" fill="black" />
<path d="M 173.9,117.7 L 149.9,119.7 161.9,107.7 Z" fill="black" />
<path d="M 139.9,84.2 L 139.9,183.7 127.9,183.7 127.9,84.2 Z" fill="black" />
<path d="M 102,136.3 Q 109.7,142.9 114,151.1 Q 118.9,159.8 120.4,168.8 L 108.5,170.3 Q 107.9,161.8 106.2,154.3 Q 103.7,145.9 100.5,137.3 Z" fill="black" />
<path d="M 120.4,168.8 Q 120.5,174.2 115.2,175.5 Q 109.7,175.5 108.5,170.3 Z" fill="black" />
<path d="M 167.1,137.5 Q 163.7,148 158.9,157 Q 153.7,167.3 147,176 L 145.4,175.2 Q 148.7,163.3 150.9,154 Q 153.7,143 155.5,134.3 Z" fill="black" />
<path d="M 155.3,135.3 L 167.1,137.5 156,132.7 Z" fill="black" />
<path d="M 167.1,137.5 L 169.5,140.2 163.9,141.8 Z" fill="black" />
<path d="M 83.4,179.7 L 183.1,179.7 183.1,183.7 83.4,183.7 Z" fill="black" />
<path d="M 183.1,179.7 L 159.1,181.7 171.1,169.7 Z" fill="black" />
</svg>
