<svg xmlns="http://www.w3.org/2000/svg" xmlns:xlink="http://www.w3.org/1999/xlink" version="1.1" baseProfile="full" viewBox="0 0 200 200" width="200" height="200">
<path d="M 149.5,22.8 Q 139.4,43.9 127,59.3 Q 113.3,76.4 97.2,87.9 L 96,86.6 Q 110.3,70.4 120.1,54.4 Q 131.4,35.9 138.5,18 Z" fill="black" />
<path d="M 138.1,18.9 L 149.5,22.8 139.1,16.8 Z" fill="black" />
<path d="M 149.5,22.8 L 151.5,25.9 145.7,26.6 Z" fill="black" />
<path d="M 143.5,23.2 Q 155.3,40.1 165.5,51.5 Q 177.2,63.9 188.5,70.5 L 181,81.4 Q 167.2,70.9 158.2,57.3 Q 147.3,42.1 141.9,24 Z" fill="black" />
<path d="M 181,81.4 L 188.5,70.5 192,73 Z" fill="black" />
<path d="M 120.3,71.6 L 164.8,71.6 164.8,75.6 120.3,75.6 Z" fill="black" />
<path d="M 164.8,71.6 L 144.8,73.6 154.8,62.6 Z" fill="black" />
<path d="M 107.4,98.2 L 177.2,98.2 177.2,102.2 107.4,102.2 Z" fill="black" />
<path d="M 177.2,98.2 L 153.2,100.2 165.2,88.2 Z" fill="black" />
<path d="M 148.3,71.6 L 148.3,151.4 136.3,151.4 136.3,71.6 Z" fill="black" />
<path d="M 114.6,113.3 Q 121.6,118.4 125.4,124.5 Q 129.3,131.5 131.2,138.4 L 119.3,140 Q 119.3,133.5 117.6,128 Q 115.6,121.4 113.2,114.4 Z" fill="black" />
<path d="M 131.2,138.4 Q 131.3,143.8 126,145.1 Q 120.6,145.2 119.3,140 Z" fill="black" />
<path d="M 171.9,115 Q 168.4,123.3 164.5,130.3 Q 159.9,138.4 153.8,145 L 152.2,144.1 Q 154.9,134.4 156.7,127 Q 159.4,118.3 160.4,111.5 Z" fill="black" />
<path d="M 160.1,112.5 L 171.9,115 160.9,109.9 Z" fill="black" />
<path d="M 171.9,115 L 174.2,117.7 168.6,119.2 Z" fill="black" />
<path d="M 98.2,147.4 L 185.3,147.4 185.3,151.4 98.2,151.4 Z" fill="black" />
<path d="M 185.3,147.4 L 161.3,149.4 173.3,137.4 Z" fill="black" />
<path d="M 87.7,23.8 Q 71.6,30.6 57,36.2 Q 41.1,42.4 26.3,45.8 L 25.6,44.1 Q 40.1,35.4 53.5,28.4 Q 68.6,20.6 82.4,13 Z" fill="black" />
<path d="M 81.5,13.4 L 87.7,23.8 90.9,22.2 Z" fill="black" />
<path d="M 90.9,22.2 L 91.1,25.5 84.9,22.9 Z" fill="black" />
<path d="M 34,40 L 34,115 22,115 22,38 Z" fill="black" />
<path d="M 34,40 L 37,42 32,45 Z" fill="black" />
<path d="M 22,115 Q 22.6,120.4 28,121 Q 33.4,120.4 34,115 Z" fill="black" />
<path d="M 34,115 Q 33,141.7 28.1,159.1 Q 22.5,178.8 12.7,188.5 L 11.2,187.4 Q 17.5,173.8 19.8,157.3 Q 23,137.7 22,115 Z" fill="black" />
<path d="M 60,40 L 60,167 48,167 48,38 Z" fill="black" />
<path d="M 60,40 L 63,42 58,45 Z" fill="black" />
<path d="M 26.7,171 Q 36.8,167.8 48.5,163.9 Q 61.3,159.5 75.6,156.1 L 76.3,157.8 Q 62.3,166.5 51.8,171.8 Q 39.8,177.8 31.1,182.1 Z" fill="black" />
<path d="M 31.1,182.1 L 26.7,171 24.8,171.8 Z" fill="black" />
<path d="M 31.1,182.1 L 34.1,184.2 35.6,177.1 Z" fill="black" />
<path d="M 66.2,131.4 Q 75.1,141.3 80.1,152.1 Q 86.1,163.9 89.2,175.7 L 77.4,178.3 Q 75.1,165.9 72.2,155.2 Q 68.1,143.3 64.7,132.3 Z" fill="black" />
<path d="M 89.2,175.7 Q 89.7,181.1 84.6,182.9 Q 79.2,183.5 77.4,178.3 Z" fill="black" />
<path d="M 73.9,25.9 L 76.6,58.1 80.3,85.3 85.5,108.1 92.4,126.5 101.1,141.3 112,152.7 125.3,161.6 141.6,168.5 161.4,173.6 184.9,177.4 183,190.5 158.7,185.9 137.7,179.6 119.9,171.3 105.2,160.4 93.5,146.6 84.7,129.9 78.5,109.9 74.5,86.2 72.4,58.4 72.1,26 Z" fill="black" />
<path d="M 183,190.5 L 184.9,177.4 194.9,178.8 Z" fill="black" />
</svg>
