<svg xmlns="http://www.w3.org/2000/svg" xmlns:xlink="http://www.w3.org/1999/xlink" version="1.1" baseProfile="full" viewBox="0 0 200 200" width="200" height="200">
<path d="M 14.6,26 L 71.7,26 71.7,30 14.6,30 Z" fill="black" />
<path d="M 76.8,31.1 Q 71.6,37.9 65.1,45 Q 57.9,52.9 48.7,60.5 L 47.3,59.4 Q 53.9,47.9 58.3,39.9 Q 63.6,30.9 66.6,24.8 Z" fill="black" />
<path d="M 65.7,26 L 71.7,21 82.7,30 77.7,33 65.7,38 Z" fill="black" />
<path d="M 27.4,40.7 Q 38.6,44.7 46.2,51.8 Q 54.3,59.5 59.5,68.7 L 48.7,73.8 Q 45.3,64.5 39.9,57.5 Q 33.6,49.7 26.4,42.2 Z" fill="black" />
<path d="M 59.5,68.7 Q 61.3,73.8 56.6,76.7 Q 51.5,78.4 48.7,73.8 Z" fill="black" />
<path d="M 10.5,79 L 74.1,79 74.1,83 10.5,83 Z" fill="black" />
<path d="M 79.6,83.4 Q 75.8,90.4 70.5,97.3 Q 64.9,105.4 56.9,112.5 L 55.4,111.4 Q 59.9,100.4 63.1,93.1 Q 66.8,84.4 68.6,78.5 Z" fill="black" />
<path d="M 68.1,79 L 74.1,74 85.1,83 80.1,86 68.1,91 Z" fill="black" />
<path d="M 54.9,79 L 54.9,172 42.9,172 42.9,79 Z" fill="black" />
<path d="M 42.9,172 Q 43.5,177.4 48.9,178 Q 54.3,177.4 54.9,172 Z" fill="black" />
<path d="M 54.9,172 Q 54.9,178.9 50.6,183.7 Q 45.4,188.5 38.9,188 L 38.9,176 Q 42.4,175.5 42.1,175.2 Q 42.9,174.9 42.9,172 Z" fill="black" />
<path d="M 38.9,182 L 38.9,176 24.9,176 24.9,179 Z" fill="black" />
<path d="M 54.6,82.5 Q 47.3,106.7 36.7,124.4 Q 25.3,143.8 10.4,155.6 L 9.1,154.3 Q 21.3,137.8 29.2,120.5 Q 38.3,100.7 43.1,79.4 Z" fill="black" />
<path d="M 136.2,21.5 Q 124,47.8 108.6,67.6 Q 92.1,89.6 72.4,104.2 L 71.2,102.8 Q 89.1,82.6 101.7,62.7 Q 116,39.8 125.2,16.8 Z" fill="black" />
<path d="M 124.8,17.7 L 136.2,21.5 125.7,15.5 Z" fill="black" />
<path d="M 136.2,21.5 L 138.1,24.6 132.4,25.3 Z" fill="black" />
<path d="M 129.7,22.8 Q 143.5,44.9 156.3,59.2 Q 170.6,75 184.8,83.9 L 177.3,94.7 Q 160.6,82 149,65 Q 135.5,45.9 128,23.6 Z" fill="black" />
<path d="M 177.3,94.7 L 184.8,83.9 188.3,86.3 Z" fill="black" />
<path d="M 101.1,84.2 L 156.4,84.2 156.4,88.2 101.1,88.2 Z" fill="black" />
<path d="M 156.4,84.2 L 132.4,86.2 144.4,74.2 Z" fill="black" />
<path d="M 85.1,117.7 L 171.7,117.7 171.7,121.7 85.1,121.7 Z" fill="black" />
<path d="M 171.7,117.7 L 147.7,119.7 159.7,107.7 Z" fill="black" />
<path d="M 134.4,84.2 L 134.4,183.7 122.4,183.7 122.4,84.2 Z" fill="black" />
<path d="M 93.7,136.2 Q 102,142.9 106.5,151 Q 111.7,159.8 113.3,168.8 L 101.4,170.3 Q 100.7,161.8 98.8,154.4 Q 96,145.9 92.3,137.3 Z" fill="black" />
<path d="M 113.3,168.8 Q 113.4,174.2 108.1,175.5 Q 102.7,175.6 101.4,170.3 Z" fill="black" />
<path d="M 163.9,137.6 Q 159.8,148 155.1,157.1 Q 149.6,167.3 142.5,176 L 140.9,175.1 Q 144.6,163.3 147.2,153.9 Q 150.8,143 152.4,134.2 Z" fill="black" />
<path d="M 152.1,135.2 L 163.9,137.6 152.8,132.6 Z" fill="black" />
<path d="M 163.9,137.6 L 166.2,140.4 160.5,141.8 Z" fill="black" />
<path d="M 73.8,179.7 L 181.7,179.7 181.7,183.7 73.8,183.7 Z" fill="black" />
<path d="M 181.7,179.7 L 157.7,181.7 169.7,169.7 Z" fill="black" />
</svg>
