<svg xmlns="http://www.w3.org/2000/svg" xmlns:xlink="http://www.w3.org/1999/xlink" version="1.1" baseProfile="full" viewBox="0 0 200 200" width="200" height="200">
<path d="M 6.9,25.3 L 85.1,25.3 85.1,29.3 6.9,29.3 Z" fill="black" />
<path d="M 85.1,25.3 L 61.1,27.3 73.1,15.3 Z" fill="black" />
<path d="M 21.1,49.6 L 21.1,89.8 10.1,95.3 10.1,44.1 Z" fill="black" />
<path d="M 15.6,49.6 L 76.3,49.6 76.3,53.6 15.6,53.6 Z" fill="black" />
<path d="M 81.8,51.6 L 81.8,88.8 70.8,94.3 70.8,51.6 Z" fill="black" />
<path d="M 70.8,49.6 L 76.3,44.6 86.8,53.6 81.8,57.1 70.8,51.6 Z" fill="black" />
<path d="M 40.8,25.3 L 40.8,86.8 30.8,86.8 30.8,25.3 Z" fill="black" />
<path d="M 61.1,25.3 L 61.1,86.8 51.1,86.8 51.1,25.3 Z" fill="black" />
<path d="M 15.6,82.8 L 76.3,82.8 76.3,86.8 15.6,86.8 Z" fill="black" />
<path d="M 18.4,105.5 L 73.6,105.5 73.6,109.5 18.4,109.5 Z" fill="black" />
<path d="M 73.6,105.5 L 53.6,107.5 63.6,96.5 Z" fill="black" />
<path d="M 7.8,128.6 L 84.1,128.6 84.1,132.6 7.8,132.6 Z" fill="black" />
<path d="M 84.1,128.6 L 72.1,130.6 78.1,122.6 Z" fill="black" />
<path d="M 52,128.6 L 52,171.8 40,171.8 40,128.6 Z" fill="black" />
<path d="M 40,171.8 Q 40.6,177.2 46,177.8 Q 51.4,177.2 52,171.8 Z" fill="black" />
<path d="M 52,171.8 Q 52,178.7 47.7,183.5 Q 42.5,188.3 36,187.8 L 36,175.8 Q 39.5,175.3 39.2,175 Q 40,174.7 40,171.8 Z" fill="black" />
<path d="M 36,181.8 L 36,175.8 22,175.8 22,178.8 Z" fill="black" />
<path d="M 34.8,147.5 Q 30.3,158.3 24.1,166.8 Q 17.2,176.3 8.5,183.2 L 7.1,182 Q 13.2,171.3 16.8,162.5 Q 21.3,152.3 23.4,143.7 Z" fill="black" />
<path d="M 23.1,144.6 L 34.8,147.5 23.9,142.2 Z" fill="black" />
<path d="M 34.8,147.5 L 37,150.3 31.3,151.6 Z" fill="black" />
<path d="M 58.3,143.8 Q 67.7,148.3 73.3,155.6 Q 79.7,163.4 83.4,172.9 L 72,176.6 Q 69.7,167.4 66.2,160.2 Q 61.7,152.3 57.2,145.1 Z" fill="black" />
<path d="M 83.4,172.9 Q 84.5,178.3 79.5,180.5 Q 74.2,181.6 72,176.6 Z" fill="black" />
<path d="M 137.2,16.5 Q 131.4,29.2 121.2,38.4 Q 110.1,48.7 95.2,54.2 L 94.3,52.6 Q 108.1,41.7 115,32.6 Q 123.4,22.2 125.9,12.3 Z" fill="black" />
<path d="M 125.6,13.2 L 137.2,16.5 126.5,10.9 Z" fill="black" />
<path d="M 137.2,16.5 L 139.3,19.4 133.6,20.4 Z" fill="black" />
<path d="M 126.2,22.2 L 164.7,22.2 164.7,26.2 126.2,26.2 Z" fill="black" />
<path d="M 170.1,26.7 Q 158.6,49 137.3,60.5 Q 113.9,73.5 82.9,75.9 L 82.6,74.1 Q 115.9,65.5 132.8,53.3 Q 152.6,39 159.2,21.7 Z" fill="black" />
<path d="M 158.7,22.2 L 164.7,17.2 175.7,26.2 170.7,29.2 158.7,34.2 Z" fill="black" />
<path d="M 109.3,24.9 Q 123.5,39.4 141.2,48.9 Q 161.3,59.1 187,64.2 L 183.9,77.1 Q 154.3,69.1 136.5,56.9 Q 115.5,43.4 107.8,25.9 Z" fill="black" />
<path d="M 183.9,77.1 L 187,64.2 195.7,66.3 Z" fill="black" />
<path d="M 124.1,70.3 Q 117.1,88.8 107.2,103.8 Q 96.5,120.4 82.8,132.1 L 81.5,131 Q 92.5,114.4 99.8,99.6 Q 108.1,82.8 112.7,66.5 Z" fill="black" />
<path d="M 112.4,67.5 L 124.1,70.3 113.2,65 Z" fill="black" />
<path d="M 124.1,70.3 L 126.3,73.2 120.6,74.4 Z" fill="black" />
<path d="M 112.7,96.4 L 112.7,184.1 100.7,190.1 100.7,90.4 Z" fill="black" />
<path d="M 149.3,96.4 L 149.3,181.1 137.3,181.1 137.3,96.4 Z" fill="black" />
<path d="M 106.7,96.4 L 183.6,96.4 183.6,100.4 106.7,100.4 Z" fill="black" />
<path d="M 183.6,96.4 L 159.6,98.4 171.6,86.4 Z" fill="black" />
<path d="M 106.7,123.1 L 179.2,123.1 179.2,127.1 106.7,127.1 Z" fill="black" />
<path d="M 179.2,123.1 L 155.2,125.1 167.2,113.1 Z" fill="black" />
<path d="M 106.7,149 L 179.2,149 179.2,153 106.7,153 Z" fill="black" />
<path d="M 179.2,149 L 155.2,151 167.2,139 Z" fill="black" />
<path d="M 106.7,177.1 L 188,177.1 188,181.1 106.7,181.1 Z" fill="black" />
<path d="M 188,177.1 L 164,179.1 176,167.1 Z" fill="black" />
<path d="M 136.4,68.9 Q 142.6,71.2 147,76 Q 151.6,81.3 154.4,88 L 142.9,91.6 Q 141.6,85.3 139.8,80.5 Q 137.6,75.2 135.2,70.2 Z" fill="black" />
<path d="M 154.4,88 Q 155.4,93.3 150.5,95.5 Q 145.1,96.6 142.9,91.6 Z" fill="black" />
</svg>
