<svg xmlns="http://www.w3.org/2000/svg" xmlns:xlink="http://www.w3.org/1999/xlink" version="1.1" baseProfile="full" viewBox="0 0 200 200" width="200" height="200">
<path d="M 55.3,53.1 Q 47.7,71.3 37.8,85.6 Q 26.9,101.6 12.7,113.1 L 11.4,111.9 Q 22.9,95.6 30.6,81.1 Q 39.7,64.3 44,49 Z" fill="black" />
<path d="M 43.7,50 L 55.3,53.1 44.5,47.6 Z" fill="black" />
<path d="M 55.3,53.1 L 57.5,55.9 51.8,57.1 Z" fill="black" />
<path d="M 50.5,59.4 Q 61.3,61.4 68.1,65.8 Q 75.7,70.4 80,76 L 69.7,82.2 Q 67.7,77.4 63,72.6 Q 57.3,67.4 49.8,61.1 Z" fill="black" />
<path d="M 80,76 Q 82.2,81 77.9,84.3 Q 72.9,86.5 69.7,82.2 Z" fill="black" />
<path d="M 31.4,93.5 L 75.6,93.5 75.6,97.5 31.4,97.5 Z" fill="black" />
<path d="M 75.6,93.5 L 55.6,95.5 65.6,84.5 Z" fill="black" />
<path d="M 17.5,119.4 L 80.2,119.4 80.2,123.4 17.5,123.4 Z" fill="black" />
<path d="M 80.2,119.4 L 56.2,121.4 68.2,109.4 Z" fill="black" />
<path d="M 55.2,93.5 L 55.2,172.8 43.2,172.8 43.2,93.5 Z" fill="black" />
<path d="M 20.3,135.2 Q 28.5,139.1 32.5,145.1 Q 37,151.5 38.6,159.1 L 26.7,160.3 Q 27,154.5 25.1,149.1 Q 22.5,143.1 19.1,136.5 Z" fill="black" />
<path d="M 38.6,159.1 Q 38.6,164.6 33.2,165.7 Q 27.8,165.6 26.7,160.3 Z" fill="black" />
<path d="M 77.6,137.6 Q 74.1,143.7 69.9,149.6 Q 65.3,155.7 59.3,160.8 L 57.8,159.8 Q 60.3,151.7 62.4,145.5 Q 65.1,138.7 66.6,132.9 Z" fill="black" />
<path d="M 66.2,133.9 L 77.6,137.6 67.1,131.7 Z" fill="black" />
<path d="M 77.6,137.6 L 79.6,140.6 73.8,141.4 Z" fill="black" />
<path d="M 15.7,175.2 Q 31.6,172.5 46.7,169.9 Q 63,166.5 78.4,164.3 L 78.9,166 Q 63,173.5 48.8,178.1 Q 32.6,183.5 18.1,187 Z" fill="black" />
<path d="M 18.1,187 L 15.7,175.2 13.7,175.6 Z" fill="black" />
<path d="M 18.1,187 L 20.6,189.5 23.4,182.9 Z" fill="black" />
<path d="M 136,49.5 L 136,77.2 124,77.2 124,47.5 Z" fill="black" />
<path d="M 136,49.5 L 139,51.5 134,54.5 Z" fill="black" />
<path d="M 130,58.6 L 173.1,58.6 173.1,62.6 130,62.6 Z" fill="black" />
<path d="M 173.1,58.6 L 153.1,60.6 163.1,49.6 Z" fill="black" />
<path d="M 97.8,73.2 L 97.8,127.9 85.8,127.9 85.8,67.2 Z" fill="black" />
<path d="M 85.8,127.9 Q 86.4,133.3 91.8,133.9 Q 97.2,133.3 97.8,127.9 Z" fill="black" />
<path d="M 97.8,127.9 Q 96.8,150.2 92.4,164.9 Q 87.2,181.3 78.2,188.4 L 76.7,187.2 Q 82.2,176.3 84.1,162.9 Q 86.8,147.2 85.8,127.9 Z" fill="black" />
<path d="M 91.8,73.2 L 180,73.2 180,77.2 91.8,77.2 Z" fill="black" />
<path d="M 185.2,78.1 Q 182.3,82.2 178.8,85.9 Q 175,90.1 170.1,93.5 L 168.6,92.5 Q 170,86.1 171.5,81.5 Q 173.3,76.2 174.7,72.4 Z" fill="black" />
<path d="M 174,73.2 L 180,68.2 191,77.2 186,80.2 174,85.2 Z" fill="black" />
<path d="M 97.9,94.3 L 165.4,87 165.8,91 98.3,98.3 Z" fill="black" />
<path d="M 165.4,87 L 141.7,91.6 152.4,78.3 Z" fill="black" />
<path d="M 132.2,77.8 L 132.2,96.8 120.2,96.8 120.2,75.8 Z" fill="black" />
<path d="M 132.2,77.8 L 135.2,79.8 130.2,82.8 Z" fill="black" />
<path d="M 120.2,96.8 Q 120.8,102.2 126.2,102.8 Q 131.6,102.2 132.2,96.8 Z" fill="black" />
<path d="M 132.2,96.8 Q 132.7,100.3 132.9,100.1 Q 133.2,100.8 136.2,100.8 L 136.2,112.8 Q 129.2,112.8 124.5,108.5 Q 119.7,103.3 120.2,96.8 Z" fill="black" />
<path d="M 136.2,103.3 Q 139.4,103.7 139.7,106.8 Q 139.4,110 136.2,110.3 Z" fill="black" />
<path d="M 136.2,103.3 L 176.2,103.3 176.2,110.3 136.2,110.3 Z" fill="black" />
<path d="M 176.2,103.3 Q 179.4,103.7 179.7,106.8 Q 179.4,110 176.2,110.3 Z" fill="black" />
<path d="M 176.2,104.3 L 178.2,98.3 176.2,98.3 172.7,104.3 Z" fill="black" />
<path d="M 99.8,120.2 L 183.9,120.2 183.9,124.2 99.8,124.2 Z" fill="black" />
<path d="M 183.9,120.2 L 167.9,122.2 175.9,113.2 Z" fill="black" />
<path d="M 137.7,120.3 L 145.9,120.3 145.9,124.3 137.7,124.3 Z" fill="black" />
<path d="M 146,126 Q 139,133 128.5,138.3 Q 116.9,144.2 101.1,147.5 L 100.5,145.9 Q 115.9,137.2 124.1,131 Q 134,124 136.6,118.6 Z" fill="black" />
<path d="M 133.9,131.6 Q 147.3,144 151.6,155.6 Q 156.6,168 153.1,179.3 L 142,174.9 Q 145.6,168 143.5,158.2 Q 140.3,147 132.5,132.7 Z" fill="black" />
<path d="M 153.1,179.3 Q 150.6,184.1 145.3,182.6 Q 140.5,180.1 142,174.9 Z" fill="black" />
<path d="M 153.1,179.3 Q 150.7,185.7 145.7,189 Q 139.9,192.4 133.9,192.4 L 133.9,180.4 Q 137.9,180.4 138.9,179.1 Q 140.7,177.7 142,174.9 Z" fill="black" />
<path d="M 133.9,186.4 L 133.9,180.4 113.9,180.4 113.9,183.4 Z" fill="black" />
<path d="M 143.9,145.9 Q 134.9,153.1 124.2,158.2 Q 112.5,163.8 99.1,165.7 L 98.5,164 Q 111.5,156.8 120,150.8 Q 129.9,144.1 135.6,137.3 Z" fill="black" />
<path d="M 150.9,158.1 Q 140.3,168.1 128,174.5 Q 114.5,181.6 99,183.8 L 98.5,182.1 Q 113.5,174.6 123.6,167.3 Q 135.3,159.1 142,150 Z" fill="black" />
<path d="M 180.5,137.3 Q 176,141.1 170.3,144.7 Q 164.1,148.8 156.7,151.4 L 155.6,149.9 Q 161.1,142.8 164.7,138.3 Q 169,133.1 171.6,129.2 Z" fill="black" />
<path d="M 170.9,130 L 180.5,137.3 171.9,128.9 Z" fill="black" />
<path d="M 180.5,137.3 L 181.3,140.8 175.6,139.7 Z" fill="black" />
<path d="M 146.5,123.1 Q 153.8,141.9 162.8,153.5 Q 172.8,166.3 185.4,173.5 L 178.2,184.5 Q 162.8,173.3 155,158.5 Q 145.8,141.9 144.8,123.5 Z" fill="black" />
<path d="M 178.2,184.5 L 185.4,173.5 189.2,176 Z" fill="black" />
<path d="M 54.4,14.3 Q 48.3,29.3 38.5,40.4 Q 27.6,53 12.5,60.5 L 11.4,59.1 Q 24.6,46 31.8,35.2 Q 40.3,22.3 42.9,10.6 Z" fill="black" />
<path d="M 42.6,11.6 L 54.4,14.3 43.4,9.1 Z" fill="black" />
<path d="M 54.4,14.3 L 56.6,17.1 50.9,18.4 Z" fill="black" />
<path d="M 42,27.9 L 106,27.9 106,31.9 42,31.9 Z" fill="black" />
<path d="M 106,27.9 L 82,29.9 94,17.9 Z" fill="black" />
<path d="M 49.2,29.5 Q 60.3,31.5 67.2,36 Q 74.7,40.6 78.9,46.9 L 68.2,52.4 Q 66.7,47.6 62,42.7 Q 56.3,37.5 48.5,31.1 Z" fill="black" />
<path d="M 78.9,46.9 Q 80.8,52 76.3,55 Q 71.2,56.9 68.2,52.4 Z" fill="black" />
<path d="M 133.3,14.3 Q 127.3,29 117.4,39.3 Q 106.1,51 91.4,57.2 L 90.5,55.6 Q 104.1,44 110.9,33.8 Q 119.3,22 121.9,10.6 Z" fill="black" />
<path d="M 121.6,11.5 L 133.3,14.3 122.4,9.1 Z" fill="black" />
<path d="M 133.3,14.3 L 135.6,17.2 129.9,18.5 Z" fill="black" />
<path d="M 120,27.9 L 186,27.9 186,31.9 120,31.9 Z" fill="black" />
<path d="M 186,27.9 L 162,29.9 174,17.9 Z" fill="black" />
<path d="M 128.2,29.5 Q 139.3,31.5 146.2,36 Q 153.7,40.6 157.9,46.9 L 147.2,52.4 Q 145.7,47.6 141,42.7 Q 135.3,37.5 127.5,31.1 Z" fill="black" />
<path d="M 157.9,46.9 Q 159.8,52 155.3,55 Q 150.2,56.9 147.2,52.4 Z" fill="black" />
</svg>
