<svg xmlns="http://www.w3.org/2000/svg" xmlns:xlink="http://www.w3.org/1999/xlink" version="1.1" baseProfile="full" viewBox="0 0 200 200" width="200" height="200">
<path d="M 13,29.7 L 187,29.7 187,33.7 13,33.7 Z" fill="black" />
<path d="M 187,29.7 L 163,31.7 175,19.7 Z" fill="black" />
<path d="M 78,11.5 L 78,49.1 66,55.1 66,9.5 Z" fill="black" />
<path d="M 78,11.5 L 81,13.5 76,16.5 Z" fill="black" />
<path d="M 134,11.5 L 134,49.1 122,55.1 122,9.5 Z" fill="black" />
<path d="M 134,11.5 L 137,13.5 132,16.5 Z" fill="black" />
<path d="M 26.9,55.4 Q 37.1,55.9 44,58.7 Q 51.6,61.9 56.2,66.7 L 46.6,74 Q 44.6,69.9 39.8,66.1 Q 34.1,61.9 26.4,57.1 Z" fill="black" />
<path d="M 56.2,66.7 Q 59,71.4 55,75.1 Q 50.3,77.9 46.6,74 Z" fill="black" />
<path d="M 12.3,92.1 Q 23.3,92.7 30.4,95.5 Q 38.2,98.7 42.7,103.7 L 32.8,110.5 Q 31.2,106.7 26.3,102.9 Q 20.3,98.7 11.9,93.9 Z" fill="black" />
<path d="M 42.7,103.7 Q 45.2,108.5 41.1,112 Q 36.3,114.6 32.8,110.5 Z" fill="black" />
<path d="M 13.9,145.7 Q 28.4,147 35.9,157.3 Q 43.6,168.7 42.6,184.7 L 30.7,183.6 Q 32.6,168.7 28.7,161.7 Q 24.4,153 13.4,147.5 Z" fill="black" />
<path d="M 42.6,184.7 Q 41.5,190 36.1,190.1 Q 30.8,189.1 30.7,183.6 Z" fill="black" />
<path d="M 26.8,158.1 Q 29.6,151.7 39.1,136.6 Q 49.5,119.2 67,93.1 L 68.5,94 Q 53.5,125.2 46.6,140.5 Q 38.6,158.7 38.3,161.8 Z" fill="black" />
<path d="M 82.9,62.5 L 82.9,183.7 71.9,189.2 71.9,57 Z" fill="black" />
<path d="M 77.4,62.5 L 181.3,62.5 181.3,66.5 77.4,66.5 Z" fill="black" />
<path d="M 181.3,62.5 L 161.3,64.5 171.3,53.5 Z" fill="black" />
<path d="M 77.4,176.7 L 187.4,176.7 187.4,180.7 77.4,180.7 Z" fill="black" />
<path d="M 187.4,176.7 L 167.4,178.7 177.4,167.7 Z" fill="black" />
<path d="M 118.7,76 L 118.7,112 106.7,118 106.7,70 Z" fill="black" />
<path d="M 112.7,76 L 157.4,76 157.4,80 112.7,80 Z" fill="black" />
<path d="M 163.4,78 L 163.4,112 151.4,118 151.4,78 Z" fill="black" />
<path d="M 151.4,76 L 157.4,71 168.4,80 163.4,84 151.4,78 Z" fill="black" />
<path d="M 112.7,108 L 157.4,108 157.4,112 112.7,112 Z" fill="black" />
<path d="M 105.2,125.7 L 105.2,165.8 94.2,171.3 94.2,120.2 Z" fill="black" />
<path d="M 99.7,125.7 L 126.4,125.7 126.4,129.7 99.7,129.7 Z" fill="black" />
<path d="M 131.9,127.7 L 131.9,165.8 120.9,171.3 120.9,127.7 Z" fill="black" />
<path d="M 120.9,125.7 L 126.4,120.7 136.9,129.7 131.9,133.2 120.9,127.7 Z" fill="black" />
<path d="M 99.7,161.8 L 126.4,161.8 126.4,165.8 99.7,165.8 Z" fill="black" />
<path d="M 151.4,125.7 L 151.4,165.8 140.4,171.3 140.4,120.2 Z" fill="black" />
<path d="M 145.9,125.7 L 172.6,125.7 172.6,129.7 145.9,129.7 Z" fill="black" />
<path d="M 178.6,127.7 L 178.6,165.8 166.6,171.8 166.6,127.7 Z" fill="black" />
<path d="M 166.6,125.7 L 172.6,120.7 183.6,129.7 178.6,133.7 166.6,127.7 Z" fill="black" />
<path d="M 145.9,161.8 L 172.6,161.8 172.6,165.8 145.9,165.8 Z" fill="black" />
</svg>
