<svg xmlns="http://www.w3.org/2000/svg" xmlns:xlink="http://www.w3.org/1999/xlink" version="1.1" baseProfile="full" viewBox="0 0 200 200" width="200" height="200">
<path d="M 168.2,62 Q 146.2,66 122.9,68.7 Q 97.2,71.9 70.1,72.8 L 69.8,71.1 Q 99.2,64.9 121.5,60.3 Q 147.2,55 165.7,50.3 Z" fill="black" />
<path d="M 164.7,50.5 L 168.2,62 176.5,60.2 Z" fill="black" />
<path d="M 176.5,60.2 L 176.9,63.2 169.6,59.7 Z" fill="black" />
<path d="M 67,93 L 185,93 185,97 67,97 Z" fill="black" />
<path d="M 185,93 L 161,95 173,83 Z" fill="black" />
<path d="M 117.6,72.2 L 110.8,104.2 99.1,101.7 106.3,67.7 Z" fill="black" />
<path d="M 117.6,72.2 L 120.1,74.8 114.8,76.3 Z" fill="black" />
<path d="M 110.8,104.1 Q 103.5,136.2 88,156.8 Q 71.2,179.3 47.4,189.7 L 46.5,188.2 Q 69.2,172.3 80.9,152.1 Q 94.5,129.2 99.1,101.8 Z" fill="black" />
<path d="M 102,118 L 165,118 165,122 102,122 Z" fill="black" />
<path d="M 170.5,122.3 Q 157.1,150.2 134.1,166.3 Q 108.8,184.4 75.2,190.8 L 74.7,189.1 Q 109.8,176.4 128.8,159.6 Q 151.1,140.2 159.4,117.6 Z" fill="black" />
<path d="M 159,118 L 165,113 176,122 171,125 159,130 Z" fill="black" />
<path d="M 107.1,120.6 Q 120,144.7 136.1,157.4 Q 154.2,171.9 177.6,176.6 L 174.3,189.3 Q 146.2,180.9 129.9,164.4 Q 111,145.7 105.5,121.2 Z" fill="black" />
<path d="M 174.3,189.3 L 177.6,176.6 186,178.7 Z" fill="black" />
<path d="M 25,55.4 Q 35.3,55.9 42.3,58.7 Q 49.9,61.9 54.5,66.7 L 44.9,74 Q 42.9,69.9 38.1,66.1 Q 32.3,61.9 24.5,57.1 Z" fill="black" />
<path d="M 54.5,66.7 Q 57.3,71.4 53.3,75.1 Q 48.7,77.9 44.9,74 Z" fill="black" />
<path d="M 10.4,92.1 Q 21.5,92.7 28.6,95.5 Q 36.5,98.7 40.9,103.7 L 31,110.5 Q 29.5,106.7 24.5,102.9 Q 18.5,98.7 9.9,93.9 Z" fill="black" />
<path d="M 40.9,103.7 Q 43.5,108.5 39.4,112 Q 34.6,114.6 31,110.5 Z" fill="black" />
<path d="M 11.9,145.7 Q 26.6,147 34.1,157.2 Q 41.8,168.7 40.8,184.7 L 28.9,183.6 Q 30.8,168.7 26.9,161.7 Q 22.6,153 11.5,147.5 Z" fill="black" />
<path d="M 40.8,184.7 Q 39.8,190 34.3,190.1 Q 29,189 28.9,183.6 Z" fill="black" />
<path d="M 25,158.1 Q 27.8,151.7 37.4,136.6 Q 47.8,119.2 65.4,93.1 L 67,94 Q 51.8,125.2 44.9,140.5 Q 36.8,158.7 36.5,161.8 Z" fill="black" />
<path d="M 13,29.7 L 187,29.7 187,33.7 13,33.7 Z" fill="black" />
<path d="M 187,29.7 L 163,31.7 175,19.7 Z" fill="black" />
<path d="M 78,11.5 L 78,49.1 66,55.1 66,9.5 Z" fill="black" />
<path d="M 78,11.5 L 81,13.5 76,16.5 Z" fill="black" />
<path d="M 134,11.5 L 134,49.1 122,55.1 122,9.5 Z" fill="black" />
<path d="M 134,11.5 L 137,13.5 132,16.5 Z" fill="black" />
</svg>
