<svg xmlns="http://www.w3.org/2000/svg" xmlns:xlink="http://www.w3.org/1999/xlink" version="1.1" baseProfile="full" viewBox="0 0 200 200" width="200" height="200">
<path d="M 13,23.1 L 187,23.1 187,27.1 13,27.1 Z" fill="black" />
<path d="M 187,23.1 L 163,25.1 175,13.1 Z" fill="black" />
<path d="M 78,10.7 L 78,36.9 66,42.9 66,8.7 Z" fill="black" />
<path d="M 78,10.7 L 81,12.7 76,15.7 Z" fill="black" />
<path d="M 134,10.7 L 134,36.9 122,42.9 122,8.7 Z" fill="black" />
<path d="M 134,10.7 L 137,12.7 132,15.7 Z" fill="black" />
<path d="M 14,44.9 L 115,44.9 115,48.9 14,48.9 Z" fill="black" />
<path d="M 115,44.9 L 99,46.9 107,37.9 Z" fill="black" />
<path d="M 43,44.9 L 43,114.1 31,114.1 31,44.9 Z" fill="black" />
<path d="M 86,44.9 L 86,127.5 74,133.5 74,44.9 Z" fill="black" />
<path d="M 37,64.9 L 80,64.9 80,68.9 37,68.9 Z" fill="black" />
<path d="M 37,87 L 80,87 80,91 37,91 Z" fill="black" />
<path d="M 15,109.8 Q 30.8,107.9 46.4,107 Q 63.3,105.4 79.8,105.9 L 80.1,107.6 Q 62.3,112.4 47.5,115.4 Q 30.8,118.9 16.9,121.7 Z" fill="black" />
<path d="M 16.9,121.7 L 15,109.8 13,110.1 Z" fill="black" />
<path d="M 16.9,121.7 L 19.3,124.3 22.3,117.8 Z" fill="black" />
<path d="M 83,54.6 L 169,54.6 169,58.6 83,58.6 Z" fill="black" />
<path d="M 174.6,58.7 Q 162.1,88.6 141.3,106 Q 118.2,125.2 89.2,131.3 L 88.7,129.6 Q 119.2,117.2 135.6,99.7 Q 155.1,79.6 163.3,54.5 Z" fill="black" />
<path d="M 163,54.6 L 169,49.6 180,58.6 175,61.6 163,66.6 Z" fill="black" />
<path d="M 110,56.3 Q 119,82.2 135.3,96.7 Q 153.7,112.9 180.9,120.4 L 177,133 Q 144.7,121.9 128.7,103.3 Q 110,82.2 108.3,56.7 Z" fill="black" />
<path d="M 177,133 L 180.9,120.4 188.6,122.8 Z" fill="black" />
<path d="M 63.7,136.9 Q 64.9,147.6 59.1,155.4 Q 52.9,164.2 42.9,168.5 L 38.6,157.4 Q 47.9,154.2 52.6,150 Q 57.9,144.6 61.9,136.7 Z" fill="black" />
<path d="M 42.9,168.5 Q 37.7,169.9 35.2,165.1 Q 33.8,159.9 38.6,157.4 Z" fill="black" />
<path d="M 163.4,144 Q 154.1,149.2 143.7,153.4 Q 132.1,158.5 119.3,161.4 L 118.6,159.8 Q 131.1,151.5 139.8,145.9 Q 150.1,139.2 156.8,133.9 Z" fill="black" />
<path d="M 156,134.5 L 163.4,144 164.2,143.4 Z" fill="black" />
<path d="M 164.2,143.4 L 164.4,146.9 158.8,144.6 Z" fill="black" />
<path d="M 106.9,130.1 Q 104.4,159.8 81.6,174 Q 56.9,189.4 16,190.6 L 15.9,188.8 Q 59.9,181.4 76.8,167 Q 96.4,150.8 94.9,129.9 Z" fill="black" />
<path d="M 94.9,130.9 L 106.9,130.1 95,127.5 Z" fill="black" />
<path d="M 106.9,130.1 L 109.9,132.2 104.8,135.1 Z" fill="black" />
<path d="M 104,135 Q 110.5,156.1 127.1,165.3 Q 146.1,176 177.5,178 L 176.4,191.1 Q 139.1,187 121.9,173.1 Q 101.5,157.1 102.2,135.2 Z" fill="black" />
<path d="M 176.4,191.1 L 177.5,178 188.3,178.9 Z" fill="black" />
</svg>
