<svg xmlns="http://www.w3.org/2000/svg" xmlns:xlink="http://www.w3.org/1999/xlink" version="1.1" baseProfile="full" viewBox="0 0 200 200" width="200" height="200">
<path d="M 15.4,43 L 85.1,43 85.1,47 15.4,47 Z" fill="black" />
<path d="M 85.1,43 L 61.1,45 73.1,33 Z" fill="black" />
<path d="M 55,14 L 55,86 43,86 43,12 Z" fill="black" />
<path d="M 55,14 L 58,16 53,19 Z" fill="black" />
<path d="M 10.3,83 L 89.4,83 89.4,87 10.3,87 Z" fill="black" />
<path d="M 89.4,83 L 65.4,85 77.4,73 Z" fill="black" />
<path d="M 45,83 L 45,121 34,121 34,83 Z" fill="black" />
<path d="M 34,121 Q 34.6,125.9 39.5,126.5 Q 44.5,125.9 45,121 Z" fill="black" />
<path d="M 45,121 Q 44,145.2 36.2,161.7 Q 27.4,179.8 12.5,188.6 L 11.5,187.3 Q 24.4,173.8 29,158.7 Q 35,141.2 34,121 Z" fill="black" />
<path d="M 66.5,83 L 66.5,173 55.5,173 55.5,83 Z" fill="black" />
<path d="M 55.5,173 Q 56.1,177.9 61,178.5 Q 66,177.9 66.5,173 Z" fill="black" />
<path d="M 66.5,173 Q 66.5,179.4 63,184.1 Q 58.2,189 52.3,188.5 L 52.3,177.5 Q 55.2,177 54.7,176.8 Q 55.5,176.4 55.5,173 Z" fill="black" />
<path d="M 52.3,183 L 52.3,177.5 36.9,177.5 36.9,180.2 Z" fill="black" />
<path d="M 28.2,111.5 Q 26,126.3 22.3,138.1 Q 18.5,151.3 12,160.3 L 10.3,159.6 Q 12.5,147.3 14.1,136.3 Q 16,123.3 16.2,110.4 Z" fill="black" />
<path d="M 16.2,111.4 L 28.2,111.5 16.4,108.2 Z" fill="black" />
<path d="M 28.2,111.5 L 31,113.7 25.8,116.3 Z" fill="black" />
<path d="M 73.5,106.4 Q 81.1,114.3 84.7,124.5 Q 89.1,135.3 90.8,147.4 L 78.8,148.5 Q 78.1,136.3 76.6,126.9 Q 74.1,116.3 71.9,107.3 Z" fill="black" />
<path d="M 90.8,147.4 Q 90.7,152.8 85.4,153.9 Q 79.9,153.9 78.8,148.5 Z" fill="black" />
<path d="M 104.2,24 Q 107.6,28.8 107.7,33.6 Q 107.9,39.1 105.9,43.8 L 95.6,37.7 Q 97.9,35.1 99.3,32.3 Q 100.6,28.8 102.4,24.4 Z" fill="black" />
<path d="M 105.9,43.8 Q 102.7,48.1 97.7,45.9 Q 93.4,42.7 95.6,37.7 Z" fill="black" />
<path d="M 139.3,24.4 Q 136.4,29.5 132.6,33.3 Q 128.7,37.9 123,40.5 L 121.7,39.3 Q 123.7,32.9 125.5,28.7 Q 127.4,23.5 128.2,19.8 Z" fill="black" />
<path d="M 127.8,20.7 L 139.3,24.4 128.8,18.5 Z" fill="black" />
<path d="M 139.3,24.4 L 141.3,27.4 135.5,28.2 Z" fill="black" />
<path d="M 123.4,14.2 Q 122.7,36.6 115.9,49.8 Q 108,64.5 95.3,68.7 L 94.4,67.1 Q 105,58.5 108.1,46.5 Q 112.7,32.6 111.4,14.4 Z" fill="black" />
<path d="M 111.4,15.4 L 123.4,14.2 111.4,12 Z" fill="black" />
<path d="M 123.4,14.2 L 126.4,16.2 121.5,19.3 Z" fill="black" />
<path d="M 115.7,44.4 Q 123.2,46 129,49.8 Q 134.9,53.7 139.6,59.3 L 129.7,66.1 Q 126.9,60.7 123.3,56.1 Q 119.2,51 114.8,46 Z" fill="black" />
<path d="M 139.6,59.3 Q 142.2,64.1 138,67.7 Q 133.2,70.2 129.7,66.1 Z" fill="black" />
<path d="M 149.4,24 Q 152.8,28.8 152.9,33.6 Q 153.1,39.1 151.1,43.8 L 140.8,37.7 Q 143.1,35.1 144.5,32.3 Q 145.8,28.8 147.6,24.4 Z" fill="black" />
<path d="M 151.1,43.8 Q 147.9,48.1 142.9,45.9 Q 138.6,42.7 140.8,37.7 Z" fill="black" />
<path d="M 184.5,24.4 Q 181.6,29.5 177.8,33.3 Q 173.9,37.9 168.2,40.5 L 166.8,39.3 Q 168.9,32.9 170.7,28.7 Q 172.6,23.5 173.4,19.8 Z" fill="black" />
<path d="M 173,20.7 L 184.5,24.4 174,18.5 Z" fill="black" />
<path d="M 184.5,24.4 L 186.5,27.4 180.7,28.2 Z" fill="black" />
<path d="M 168.6,14.2 Q 167.9,36.6 161.1,49.8 Q 153.2,64.5 140.5,68.7 L 139.6,67.1 Q 150.2,58.5 153.3,46.5 Q 157.9,32.6 156.6,14.4 Z" fill="black" />
<path d="M 156.6,15.4 L 168.6,14.2 156.6,12 Z" fill="black" />
<path d="M 168.6,14.2 L 171.6,16.2 166.7,19.3 Z" fill="black" />
<path d="M 160.9,44.4 Q 168.4,46 174.1,49.8 Q 180.1,53.7 184.8,59.3 L 174.9,66.1 Q 172.1,60.7 168.5,56.1 Q 164.4,51 160,46 Z" fill="black" />
<path d="M 184.8,59.3 Q 187.4,64.1 183.2,67.7 Q 178.4,70.2 174.9,66.1 Z" fill="black" />
<path d="M 97.7,64.4 Q 100.6,79.1 99.5,88.6 Q 98.6,98.7 93.9,104.8 L 85.5,96.2 Q 88.6,94.7 91.1,86.9 Q 93.6,78.1 95.9,64.5 Z" fill="black" />
<path d="M 93.9,104.8 Q 89.7,108.2 85.4,104.7 Q 82.1,100.4 85.5,96.2 Z" fill="black" />
<path d="M 97.4,73.4 L 185.3,73.4 185.3,77.4 97.4,77.4 Z" fill="black" />
<path d="M 190.9,77.6 Q 188,82.7 184.2,88.5 Q 179.9,94.9 173.9,101.4 L 172.3,100.6 Q 174.9,90.9 176.6,84.8 Q 179,77.7 179.7,73.3 Z" fill="black" />
<path d="M 179.3,73.4 L 185.3,68.4 196.3,77.4 191.3,80.4 179.3,85.4 Z" fill="black" />
<path d="M 118.7,90.8 L 118.7,126.2 106.7,132.2 106.7,84.8 Z" fill="black" />
<path d="M 112.7,90.8 L 163.2,90.8 163.2,94.8 112.7,94.8 Z" fill="black" />
<path d="M 169.2,92.8 L 169.2,125.2 157.2,131.2 157.2,92.8 Z" fill="black" />
<path d="M 157.2,90.8 L 163.2,85.8 174.2,94.8 169.2,98.8 157.2,92.8 Z" fill="black" />
<path d="M 112.7,119.2 L 163.2,119.2 163.2,123.2 112.7,123.2 Z" fill="black" />
<path d="M 143.7,122.8 Q 141.7,127.5 138.6,132.5 Q 135.5,137.7 130.3,143 L 128.7,142.3 Q 129.5,134.7 130.7,129.4 Q 131.7,123.5 132.2,119.5 Z" fill="black" />
<path d="M 113.2,140.7 L 113.2,184.1 101.2,190.1 101.2,134.7 Z" fill="black" />
<path d="M 107.2,140.7 L 168.7,140.7 168.7,144.7 107.2,144.7 Z" fill="black" />
<path d="M 174.7,142.7 L 174.7,181.1 162.7,187.1 162.7,142.7 Z" fill="black" />
<path d="M 162.7,140.7 L 168.7,135.7 179.7,144.7 174.7,148.7 162.7,142.7 Z" fill="black" />
<path d="M 107.2,173.1 L 168.7,173.1 168.7,177.1 107.2,177.1 Z" fill="black" />
</svg>
