<svg xmlns="http://www.w3.org/2000/svg" xmlns:xlink="http://www.w3.org/1999/xlink" version="1.1" baseProfile="full" viewBox="0 0 200 200" width="200" height="200">
<path d="M 48.3,17.4 Q 41.6,39.7 32.6,57.7 Q 22.4,77.8 9.7,92.5 L 8.2,91.4 Q 18.4,71.8 24.8,54.2 Q 32.6,33.7 36.7,14.4 Z" fill="black" />
<path d="M 36.4,15.4 L 48.3,17.4 37.1,12.7 Z" fill="black" />
<path d="M 48.3,17.4 L 50.7,20.1 45.1,21.8 Z" fill="black" />
<path d="M 43.4,26.7 Q 53.5,30.2 59.7,35.8 Q 66.6,42 70.5,48.8 L 59.5,53.6 Q 57.6,47 53.5,41.5 Q 48.5,35.2 42.4,28.2 Z" fill="black" />
<path d="M 70.5,48.8 Q 72.1,54 67.4,56.7 Q 62.2,58.3 59.5,53.6 Z" fill="black" />
<path d="M 26.2,69 L 65.5,69 65.5,73 26.2,73 Z" fill="black" />
<path d="M 65.5,69 L 45.5,71 55.5,60 Z" fill="black" />
<path d="M 13.8,101 L 69.6,101 69.6,105 13.8,105 Z" fill="black" />
<path d="M 69.6,101 L 49.6,103 59.6,92 Z" fill="black" />
<path d="M 48,69 L 48,166 36,166 36,69 Z" fill="black" />
<path d="M 16.5,120.2 Q 23.9,125.8 27.8,133.4 Q 32.3,141.9 33.3,150.5 L 21.4,151.4 Q 21.3,142.9 19.9,136.4 Q 17.9,128.8 15,121.3 Z" fill="black" />
<path d="M 33.3,150.5 Q 33.1,156 27.8,156.9 Q 22.3,156.7 21.4,151.4 Z" fill="black" />
<path d="M 68.2,121.6 Q 65.2,129.4 61.1,136.7 Q 57.2,144.9 51.1,151.3 L 49.5,150.6 Q 51.2,140.9 53.2,133.6 Q 55.2,125.4 56.7,118.2 Z" fill="black" />
<path d="M 56.4,119.1 L 68.2,121.6 57.2,116.6 Z" fill="black" />
<path d="M 68.2,121.6 L 70.5,124.4 64.8,125.8 Z" fill="black" />
<path d="M 11.7,170.9 Q 25.9,167.9 39.3,163.9 Q 53.8,159.5 67.9,156.1 L 68.6,157.8 Q 54.8,166.5 42.2,171.9 Q 27.9,177.9 15,182.5 Z" fill="black" />
<path d="M 15,182.5 L 11.7,170.9 9.8,171.4 Z" fill="black" />
<path d="M 15,182.5 L 17.7,184.8 19.9,177.9 Z" fill="black" />
<path d="M 109.1,18.9 Q 100.8,40.7 90.2,57.2 Q 78.9,75.8 65.3,88.5 L 63.9,87.4 Q 74.9,69.8 82.8,53.2 Q 91.8,33.7 97.8,14.9 Z" fill="black" />
<path d="M 97.4,15.8 L 109.1,18.9 98.3,13.4 Z" fill="black" />
<path d="M 109.1,18.9 L 111.2,21.8 105.5,22.9 Z" fill="black" />
<path d="M 102.1,25.9 Q 113.7,32.2 121.7,41.3 Q 130.9,51.5 137.3,62.5 L 126.6,68 Q 120.9,55.5 115.1,46.6 Q 107.7,36.2 101,27.3 Z" fill="black" />
<path d="M 137.3,62.5 Q 139.2,67.6 134.7,70.6 Q 129.6,72.5 126.6,68 Z" fill="black" />
<path d="M 86,68 L 121.5,68 121.5,72 86,72 Z" fill="black" />
<path d="M 121.5,68 L 105.5,70 113.5,61 Z" fill="black" />
<path d="M 79.4,91 L 123,91 123,95 79.4,95 Z" fill="black" />
<path d="M 128.6,94.9 Q 124.2,104.9 119.9,112.9 Q 115.3,121.9 109,128.4 L 107.4,127.5 Q 109.3,117.9 112.1,109.5 Q 115.2,99.9 117.3,91 Z" fill="black" />
<path d="M 117,91 L 123,86 134,95 129,98 117,103 Z" fill="black" />
<path d="M 88.9,125.4 L 88.9,182.5 76.9,188.5 76.9,119.4 Z" fill="black" />
<path d="M 82.9,125.4 L 123.2,125.4 123.2,129.4 82.9,129.4 Z" fill="black" />
<path d="M 129.2,127.4 L 129.2,176.5 117.2,182.5 117.2,127.4 Z" fill="black" />
<path d="M 117.2,125.4 L 123.2,120.4 134.2,129.4 129.2,133.4 117.2,127.4 Z" fill="black" />
<path d="M 82.9,166.5 L 123.2,166.5 123.2,170.5 82.9,170.5 Z" fill="black" />
<path d="M 155.2,31 L 155.2,149 143.2,155 143.2,29 Z" fill="black" />
<path d="M 155.2,31 L 158.2,33 153.2,36 Z" fill="black" />
<path d="M 184.2,16 L 184.2,172 172.2,172 172.2,14 Z" fill="black" />
<path d="M 184.2,16 L 187.2,18 182.2,21 Z" fill="black" />
<path d="M 172.2,172 Q 172.8,177.4 178.2,178 Q 183.6,177.4 184.2,172 Z" fill="black" />
<path d="M 184.2,172 Q 184.2,178.9 179.9,183.7 Q 174.7,188.5 168.2,188 L 168.2,176 Q 171.7,175.5 171.4,175.2 Q 172.2,174.9 172.2,172 Z" fill="black" />
<path d="M 168.2,182 L 168.2,176 148.2,176 148.2,179 Z" fill="black" />
</svg>
