<svg xmlns="http://www.w3.org/2000/svg" xmlns:xlink="http://www.w3.org/1999/xlink" version="1.1" baseProfile="full" viewBox="0 0 200 200" width="200" height="200">
<path d="M 56.5,17.7 Q 48.9,40.2 38.1,57.9 Q 26.4,77.8 11.4,92.5 L 10,91.4 Q 22.4,71.8 30.6,54 Q 39.9,33.2 45.1,14.1 Z" fill="black" />
<path d="M 44.8,15.1 L 56.5,17.7 45.6,12.6 Z" fill="black" />
<path d="M 56.5,17.7 L 58.8,20.5 53.2,21.9 Z" fill="black" />
<path d="M 51.6,26.6 Q 63.4,30.1 70.5,35.5 Q 78.8,41.6 83.1,48.5 L 72.4,54 Q 69.8,47.6 64.9,41.8 Q 58.4,35.1 50.7,28.2 Z" fill="black" />
<path d="M 83.1,48.5 Q 85,53.6 80.5,56.6 Q 75.5,58.6 72.4,54 Z" fill="black" />
<path d="M 31.3,69 L 78.3,69 78.3,73 31.3,73 Z" fill="black" />
<path d="M 78.3,69 L 58.3,71 68.3,60 Z" fill="black" />
<path d="M 16.5,101 L 83.3,101 83.3,105 16.5,105 Z" fill="black" />
<path d="M 83.3,101 L 59.3,103 71.3,91 Z" fill="black" />
<path d="M 56.3,69 L 56.3,166 44.3,166 44.3,69 Z" fill="black" />
<path d="M 19.4,120.1 Q 28,125.2 32.4,133.1 Q 37.5,141.4 38.7,150.5 L 26.7,151.5 Q 26.5,143.4 24.7,136.7 Q 22,129.2 18.1,121.3 Z" fill="black" />
<path d="M 38.7,150.5 Q 38.5,155.9 33.2,156.9 Q 27.8,156.8 26.7,151.5 Z" fill="black" />
<path d="M 80.3,121.9 Q 76.5,129.8 72.2,137 Q 67.3,144.9 61,151.4 L 59.4,150.5 Q 62.3,140.9 64.5,133.4 Q 67.5,124.8 69,117.9 Z" fill="black" />
<path d="M 68.7,118.8 L 80.3,121.9 69.6,116.4 Z" fill="black" />
<path d="M 80.3,121.9 L 82.5,124.8 76.8,126 Z" fill="black" />
<path d="M 14.4,170.9 Q 31.5,167.4 47.4,163.8 Q 65,159.5 81.3,156.1 L 81.9,157.8 Q 65,166.5 49.9,172 Q 32.5,178.4 17.2,182.6 Z" fill="black" />
<path d="M 17.2,182.6 L 14.4,170.9 12.4,171.3 Z" fill="black" />
<path d="M 17.2,182.6 L 19.8,185 22.3,178.3 Z" fill="black" />
<path d="M 97.5,25 L 167.5,25 167.5,29 97.5,29 Z" fill="black" />
<path d="M 172.4,30.4 Q 165.4,38.9 157.5,46.5 Q 148.9,55.4 138.1,62.6 L 136.8,61.3 Q 144.9,49.4 151.1,40.9 Q 158.4,30.9 162.5,23.5 Z" fill="black" />
<path d="M 161.5,25 L 167.5,20 178.5,29 173.5,32 161.5,37 Z" fill="black" />
<path d="M 143.5,59 L 143.5,147 131.5,147 131.5,57 Z" fill="black" />
<path d="M 143.5,59 L 146.5,61 141.5,64 Z" fill="black" />
<path d="M 131.5,147 Q 132.1,152.4 137.5,153 Q 142.9,152.4 143.5,147 Z" fill="black" />
<path d="M 143.5,147 Q 143.5,153.9 139.2,158.7 Q 134,163.5 127.5,163 L 127.5,151 Q 131,150.5 130.7,150.2 Q 131.5,149.9 131.5,147 Z" fill="black" />
<path d="M 127.5,157 L 127.5,151 111.5,151 111.5,154 Z" fill="black" />
<path d="M 86.8,70 L 121.2,70 121.2,74 86.8,74 Z" fill="black" />
<path d="M 127.1,73 Q 121.4,99.7 111.2,119.9 Q 99.9,142.3 83.8,157.5 L 82.4,156.4 Q 95.9,136.3 103.4,116.5 Q 112.4,93.7 115.3,70.9 Z" fill="black" />
<path d="M 115.2,70 L 121.2,65 132.2,74 127.2,77 115.2,82 Z" fill="black" />
<path d="M 188.8,62.1 Q 182.5,70.3 174.1,79.3 Q 165.2,89.3 153.8,98.5 L 152.4,97.4 Q 161.2,83.3 167.4,74 Q 174.5,63.3 178.8,55.5 Z" fill="black" />
<path d="M 178.2,56.3 L 188.8,62.1 179.3,54.7 Z" fill="black" />
<path d="M 188.8,62.1 L 190.2,65.4 184.3,65.2 Z" fill="black" />
<path d="M 142.3,61.7 Q 152.3,91.2 163.6,109.9 Q 176.5,130.8 192.2,141.8 L 184,152.1 Q 165.5,135.8 155.4,114.4 Q 143.3,90.2 140.5,62.1 Z" fill="black" />
<path d="M 184,152.1 L 192.2,141.8 194.8,143.9 Z" fill="black" />
<path d="M 88.7,173 L 186.2,173 186.2,177 88.7,177 Z" fill="black" />
<path d="M 186.2,173 L 162.2,175 174.2,163 Z" fill="black" />
</svg>
