<svg xmlns="http://www.w3.org/2000/svg" xmlns:xlink="http://www.w3.org/1999/xlink" version="1.1" baseProfile="full" viewBox="0 0 200 200" width="200" height="200">
<path d="M 46.5,17.4 Q 40,39.7 31.4,57.6 Q 22,77.3 9.3,92.4 L 7.8,91.5 Q 17,72.3 23.5,54.3 Q 31,33.7 34.8,14.5 Z" fill="black" />
<path d="M 34.6,15.5 L 46.5,17.4 35.2,12.8 Z" fill="black" />
<path d="M 46.5,17.4 L 48.9,20 43.3,21.7 Z" fill="black" />
<path d="M 41.5,26.8 Q 51.3,30.2 57.3,35.8 Q 63.9,42 67.7,48.9 L 56.6,53.5 Q 54.9,47 51,41.5 Q 46.3,35.2 40.5,28.3 Z" fill="black" />
<path d="M 67.7,48.9 Q 69.2,54.1 64.5,56.7 Q 59.2,58.2 56.6,53.5 Z" fill="black" />
<path d="M 25,69 L 62.7,69 62.7,73 25,73 Z" fill="black" />
<path d="M 62.7,69 L 42.7,71 52.7,60 Z" fill="black" />
<path d="M 13.2,101 L 66.6,101 66.6,105 13.2,105 Z" fill="black" />
<path d="M 66.6,101 L 46.6,103 56.6,92 Z" fill="black" />
<path d="M 46.2,69 L 46.2,166 34.2,166 34.2,69 Z" fill="black" />
<path d="M 15.8,120.2 Q 23,125.8 26.8,133.4 Q 31.1,141.9 32.1,150.6 L 20.2,151.4 Q 20.1,142.9 18.8,136.4 Q 17,128.8 14.4,121.3 Z" fill="black" />
<path d="M 32.1,150.6 Q 31.9,156 26.5,156.9 Q 21.1,156.7 20.2,151.4 Z" fill="black" />
<path d="M 65.5,121.6 Q 62.6,129.4 58.6,136.7 Q 54.8,144.9 48.9,151.3 L 47.3,150.6 Q 48.8,140.9 50.7,133.7 Q 52.6,125.4 54,118.2 Z" fill="black" />
<path d="M 53.7,119.2 L 65.5,121.6 54.4,116.6 Z" fill="black" />
<path d="M 65.5,121.6 L 67.8,124.3 62.2,125.8 Z" fill="black" />
<path d="M 11.1,170.9 Q 24.7,167.8 37.5,163.9 Q 51.5,159.5 64.9,156.1 L 65.7,157.8 Q 52.5,166.5 40.5,171.9 Q 26.7,177.8 14.5,182.4 Z" fill="black" />
<path d="M 14.5,182.4 L 11.1,170.9 9.2,171.5 Z" fill="black" />
<path d="M 14.5,182.4 L 17.3,184.7 19.4,177.8 Z" fill="black" />
<path d="M 70.6,27.9 L 109.5,27.9 109.5,31.9 70.6,31.9 Z" fill="black" />
<path d="M 109.5,27.9 L 89.5,29.9 99.5,18.9 Z" fill="black" />
<path d="M 67.9,53 L 115.7,53 115.7,57 67.9,57 Z" fill="black" />
<path d="M 115.7,53 L 95.7,55 105.7,44 Z" fill="black" />
<path d="M 70.6,80 L 109.5,80 109.5,84 70.6,84 Z" fill="black" />
<path d="M 109.5,80 L 89.5,82 99.5,71 Z" fill="black" />
<path d="M 70.6,105.1 L 109.5,105.1 109.5,109.1 70.6,109.1 Z" fill="black" />
<path d="M 109.5,105.1 L 89.5,107.1 99.5,96.1 Z" fill="black" />
<path d="M 80.7,129.2 L 80.7,181.9 68.7,187.9 68.7,123.2 Z" fill="black" />
<path d="M 74.7,129.2 L 105.4,129.2 105.4,133.2 74.7,133.2 Z" fill="black" />
<path d="M 110.9,131.2 L 110.9,175.9 99.9,181.4 99.9,131.2 Z" fill="black" />
<path d="M 99.9,129.2 L 105.4,124.2 115.9,133.2 110.9,136.7 99.9,131.2 Z" fill="black" />
<path d="M 74.7,165.9 L 105.4,165.9 105.4,169.9 74.7,169.9 Z" fill="black" />
<path d="M 158.6,19.1 Q 155.5,24.4 151.9,29.8 Q 147.7,35.9 142.2,41.4 L 140.6,40.5 Q 142.7,31.9 144.2,26.1 Q 146.5,19.4 147.5,14.6 Z" fill="black" />
<path d="M 147.1,15.5 L 158.6,19.1 148,13.3 Z" fill="black" />
<path d="M 158.6,19.1 L 160.6,22.1 154.8,23 Z" fill="black" />
<path d="M 136.9,39 L 136.9,102 124.9,108 124.9,33 Z" fill="black" />
<path d="M 130.9,39 L 178.9,39 178.9,43 130.9,43 Z" fill="black" />
<path d="M 184.9,41 L 184.9,99 172.9,105 172.9,41 Z" fill="black" />
<path d="M 172.9,39 L 178.9,34 189.9,43 184.9,47 172.9,41 Z" fill="black" />
<path d="M 130.9,65 L 178.9,65 178.9,69 130.9,69 Z" fill="black" />
<path d="M 130.9,91 L 178.9,91 178.9,95 130.9,95 Z" fill="black" />
<path d="M 160.9,98 L 160.9,184 148.9,190 148.9,96 Z" fill="black" />
<path d="M 160.9,98 L 163.9,100 158.9,103 Z" fill="black" />
<path d="M 132.6,118 L 132.6,171.2 121.6,176.7 121.6,112.5 Z" fill="black" />
<path d="M 127.1,118 L 182.7,118 182.7,122 127.1,122 Z" fill="black" />
<path d="M 188.7,120 L 188.7,161 176.7,161 176.7,120 Z" fill="black" />
<path d="M 176.7,118 L 182.7,113 193.7,122 188.7,126 176.7,120 Z" fill="black" />
<path d="M 176.7,161 Q 177.3,166.4 182.7,167 Q 188.1,166.4 188.7,161 Z" fill="black" />
<path d="M 188.7,161 Q 188.7,167.9 184.4,172.7 Q 179.2,177.5 172.7,177 L 172.7,165 Q 176.2,164.5 175.9,164.2 Q 176.7,163.9 176.7,161 Z" fill="black" />
<path d="M 172.7,171 L 172.7,165 164.7,165 164.7,168 Z" fill="black" />
</svg>
