<svg xmlns="http://www.w3.org/2000/svg" xmlns:xlink="http://www.w3.org/1999/xlink" version="1.1" baseProfile="full" viewBox="0 0 200 200" width="200" height="200">
<path d="M 58.7,17.7 Q 50.8,40.2 39.5,58 Q 27.5,77.8 11.8,92.5 L 10.4,91.4 Q 23.5,71.8 32.1,53.9 Q 41.8,33.2 47.3,14.1 Z" fill="black" />
<path d="M 46.9,15 L 58.7,17.7 47.7,12.5 Z" fill="black" />
<path d="M 58.7,17.7 L 60.9,20.6 55.3,21.9 Z" fill="black" />
<path d="M 53.7,26.6 Q 66,30.1 73.3,35.4 Q 82,41.6 86.4,48.5 L 75.8,54.1 Q 73,47.6 67.8,41.9 Q 61,35.1 52.9,28.2 Z" fill="black" />
<path d="M 86.4,48.5 Q 88.4,53.5 83.9,56.6 Q 78.9,58.6 75.8,54.1 Z" fill="black" />
<path d="M 32.6,69 L 81.7,69 81.7,73 32.6,73 Z" fill="black" />
<path d="M 81.7,69 L 61.7,71 71.7,60 Z" fill="black" />
<path d="M 17.2,101 L 86.8,101 86.8,105 17.2,105 Z" fill="black" />
<path d="M 86.8,101 L 62.8,103 74.8,91 Z" fill="black" />
<path d="M 58.4,69 L 58.4,166 46.4,166 46.4,69 Z" fill="black" />
<path d="M 20.2,120 Q 29,125.2 33.6,133 Q 38.9,141.4 40.1,150.4 L 28.1,151.5 Q 27.9,143.4 25.9,136.7 Q 23,129.2 18.9,121.3 Z" fill="black" />
<path d="M 40.1,150.4 Q 39.9,155.9 34.6,156.9 Q 29.2,156.8 28.1,151.5 Z" fill="black" />
<path d="M 83.5,122 Q 79.6,129.8 75.1,137 Q 70,144.9 63.5,151.4 L 62,150.5 Q 65,140.9 67.4,133.3 Q 70.6,124.8 72.2,117.8 Z" fill="black" />
<path d="M 71.9,118.7 L 83.5,122 72.8,116.4 Z" fill="black" />
<path d="M 83.5,122 L 85.6,124.9 79.8,126 Z" fill="black" />
<path d="M 15.1,170.9 Q 32.9,167.4 49.5,163.8 Q 67.7,159.5 84.8,156.1 L 85.4,157.8 Q 67.7,166.5 51.9,172 Q 33.9,178.4 17.7,182.6 Z" fill="black" />
<path d="M 17.7,182.6 L 15.1,170.9 13.1,171.3 Z" fill="black" />
<path d="M 17.7,182.6 L 20.3,185.1 22.9,178.3 Z" fill="black" />
<path d="M 86,31 L 183,31 183,35 86,35 Z" fill="black" />
<path d="M 183,31 L 159,33 171,21 Z" fill="black" />
<path d="M 110.8,57.3 L 110.8,159.6 98.8,165.6 98.8,51.3 Z" fill="black" />
<path d="M 104.8,57.3 L 163.1,57.3 163.1,61.3 104.8,61.3 Z" fill="black" />
<path d="M 169.1,59.3 L 169.1,153.6 157.1,159.6 157.1,59.3 Z" fill="black" />
<path d="M 157.1,57.3 L 163.1,52.3 174.1,61.3 169.1,65.3 157.1,59.3 Z" fill="black" />
<path d="M 104.8,99.2 L 163.1,99.2 163.1,103.2 104.8,103.2 Z" fill="black" />
<path d="M 104.8,143.6 L 163.1,143.6 163.1,147.6 104.8,147.6 Z" fill="black" />
<path d="M 76,176 L 187,176 187,180 76,180 Z" fill="black" />
<path d="M 187,176 L 163,178 175,166 Z" fill="black" />
</svg>
