<svg xmlns="http://www.w3.org/2000/svg" xmlns:xlink="http://www.w3.org/1999/xlink" version="1.1" baseProfile="full" viewBox="0 0 200 200" width="200" height="200">
<path d="M 52.3,17.5 Q 45.1,39.7 35.2,57.8 Q 24.3,77.8 10.5,92.5 L 9,91.4 Q 20.3,71.8 27.6,54.1 Q 36.1,33.7 40.7,14.3 Z" fill="black" />
<path d="M 40.4,15.3 L 52.3,17.5 41.2,12.7 Z" fill="black" />
<path d="M 52.3,17.5 L 54.6,20.3 49,21.8 Z" fill="black" />
<path d="M 47.3,26.7 Q 58.3,30.1 64.9,35.6 Q 72.5,41.5 76.6,48.7 L 65.7,53.8 Q 63.5,47.5 59,41.7 Q 53.3,35.1 46.4,28.2 Z" fill="black" />
<path d="M 76.6,48.7 Q 78.3,53.8 73.7,56.7 Q 68.6,58.4 65.7,53.8 Z" fill="black" />
<path d="M 28.6,69 L 71.7,69 71.7,73 28.6,73 Z" fill="black" />
<path d="M 71.7,69 L 51.7,71 61.7,60 Z" fill="black" />
<path d="M 15.1,101 L 76.2,101 76.2,105 15.1,105 Z" fill="black" />
<path d="M 76.2,101 L 52.2,103 64.2,91 Z" fill="black" />
<path d="M 52,69 L 52,166 40,166 40,69 Z" fill="black" />
<path d="M 17.9,120.1 Q 25.9,125.8 30,133.2 Q 34.8,141.4 35.9,150.5 L 23.9,151.4 Q 23.8,143.4 22.2,136.5 Q 19.9,128.8 16.5,121.3 Z" fill="black" />
<path d="M 35.9,150.5 Q 35.7,155.9 30.4,156.9 Q 24.9,156.7 23.9,151.4 Z" fill="black" />
<path d="M 74,121.8 Q 70.4,129.9 66.4,136.9 Q 61.8,144.9 55.9,151.4 L 54.3,150.5 Q 56.8,140.9 58.6,133.5 Q 61.4,124.9 62.6,118 Z" fill="black" />
<path d="M 62.3,119 L 74,121.8 63.1,116.5 Z" fill="black" />
<path d="M 74,121.8 L 76.3,124.6 70.6,125.9 Z" fill="black" />
<path d="M 13,170.9 Q 28.9,167.4 43.2,163.9 Q 58.9,159.5 74.4,156.1 L 75,157.8 Q 59.9,166.5 45.9,171.9 Q 29.9,178.4 16,182.5 Z" fill="black" />
<path d="M 16,182.5 L 13,170.9 11.1,171.4 Z" fill="black" />
<path d="M 16,182.5 L 18.7,184.9 21.1,178.1 Z" fill="black" />
<path d="M 139.7,13.3 L 139.7,43.9 127.7,43.9 127.7,11.3 Z" fill="black" />
<path d="M 139.7,13.3 L 142.7,15.3 137.7,18.3 Z" fill="black" />
<path d="M 95.5,16.2 Q 102.7,18 107.2,22.1 Q 112.1,26.6 115.3,32 L 104.2,36.5 Q 103.1,31.6 100.7,27.6 Q 97.7,23 94.5,17.7 Z" fill="black" />
<path d="M 115.3,32 Q 116.8,37.2 112,39.8 Q 106.8,41.3 104.2,36.5 Z" fill="black" />
<path d="M 173.8,21.7 Q 170.9,25.1 165.9,30 Q 160.2,35.7 151.8,42.4 L 150.4,41.3 Q 156.2,30.7 159.1,24.9 Q 162.9,18.1 163.5,15.6 Z" fill="black" />
<path d="M 163,16.5 L 173.8,21.7 164,14.7 Z" fill="black" />
<path d="M 173.8,21.7 L 175.4,24.9 169.6,25 Z" fill="black" />
<path d="M 88.4,32 Q 91.3,45.6 90,54.6 Q 88.9,64.5 83.5,70.1 L 75.9,60.9 Q 78.9,59.5 81.7,52.7 Q 84.3,44.6 86.6,32.1 Z" fill="black" />
<path d="M 83.5,70.1 Q 79,73.1 75.1,69.3 Q 72.1,64.8 75.9,60.9 Z" fill="black" />
<path d="M 88.1,40.2 L 184.6,40.2 184.6,44.2 88.1,44.2 Z" fill="black" />
<path d="M 190,44.7 Q 187.1,49.6 182.9,54.7 Q 178.4,60.4 171.9,66.4 L 170.4,65.4 Q 173.4,56.4 175.5,50.5 Q 178.1,43.6 179.1,39.7 Z" fill="black" />
<path d="M 178.6,40.2 L 184.6,35.2 195.6,44.2 190.6,47.2 178.6,52.2 Z" fill="black" />
<path d="M 111.4,55 L 111.4,82.1 99.4,88.1 99.4,49 Z" fill="black" />
<path d="M 105.4,55 L 159.8,55 159.8,59 105.4,59 Z" fill="black" />
<path d="M 165.8,57 L 165.8,79.1 153.8,85.1 153.8,57 Z" fill="black" />
<path d="M 153.8,55 L 159.8,50 170.8,59 165.8,63 153.8,57 Z" fill="black" />
<path d="M 105.4,75.1 L 159.8,75.1 159.8,79.1 105.4,79.1 Z" fill="black" />
<path d="M 169.5,98.9 Q 161.8,101.1 143.9,102.5 Q 123.6,104.4 93.3,104.8 L 93.1,103.1 Q 126.6,97.4 142.7,94.1 Q 161.8,90.1 164.7,87.8 Z" fill="black" />
<path d="M 163.8,88.2 L 169.5,98.9 173.6,97.1 Z" fill="black" />
<path d="M 173.6,97.1 L 173.7,100.3 167.4,97.6 Z" fill="black" />
<path d="M 99.2,86 L 99.2,110 87.2,110 87.2,84 Z" fill="black" />
<path d="M 99.2,86 L 102.2,88 97.2,91 Z" fill="black" />
<path d="M 87.2,110 Q 87.8,115.4 93.2,116 Q 98.6,115.4 99.2,110 Z" fill="black" />
<path d="M 99.2,110 Q 99.7,113.4 99.9,113.2 Q 100.1,114 103.2,114 L 103.2,126 Q 96.1,126 91.4,121.7 Q 86.7,116.4 87.2,110 Z" fill="black" />
<path d="M 103.2,115 Q 107.7,115.5 108.2,120 Q 107.7,124.5 103.2,125 Z" fill="black" />
<path d="M 103.2,115 L 179.6,115 179.6,125 103.2,125 Z" fill="black" />
<path d="M 179.6,115 Q 184.1,115.5 184.6,120 Q 184.1,124.5 179.6,125 Z" fill="black" />
<path d="M 179.6,116 L 181.6,98 179.6,98 174.6,116 Z" fill="black" />
<path d="M 102.5,136.8 L 102.5,182.4 90.5,188.4 90.5,130.8 Z" fill="black" />
<path d="M 96.5,136.8 L 167.4,136.8 167.4,140.8 96.5,140.8 Z" fill="black" />
<path d="M 173.4,138.8 L 173.4,181.4 161.4,187.4 161.4,138.8 Z" fill="black" />
<path d="M 161.4,136.8 L 167.4,131.8 178.4,140.8 173.4,144.8 161.4,138.8 Z" fill="black" />
<path d="M 96.5,155.5 L 167.4,155.5 167.4,159.5 96.5,159.5 Z" fill="black" />
<path d="M 96.5,175.4 L 167.4,175.4 167.4,179.4 96.5,179.4 Z" fill="black" />
</svg>
