<svg xmlns="http://www.w3.org/2000/svg" xmlns:xlink="http://www.w3.org/1999/xlink" version="1.1" baseProfile="full" viewBox="0 0 200 200" width="200" height="200">
<path d="M 54.7,17.6 Q 47.3,39.7 36.9,57.9 Q 25.5,77.8 11,92.5 L 9.6,91.4 Q 21.5,71.8 29.3,54 Q 38.3,33.7 43.2,14.2 Z" fill="black" />
<path d="M 42.9,15.2 L 54.7,17.6 43.7,12.6 Z" fill="black" />
<path d="M 54.7,17.6 L 57,20.4 51.4,21.8 Z" fill="black" />
<path d="M 49.8,26.6 Q 61.2,30.1 68.1,35.5 Q 76.1,41.5 80.3,48.6 L 69.6,53.9 Q 67.1,47.5 62.3,41.8 Q 56.2,35.1 48.9,28.2 Z" fill="black" />
<path d="M 80.3,48.6 Q 82.2,53.7 77.6,56.6 Q 72.5,58.5 69.6,53.9 Z" fill="black" />
<path d="M 30.2,69 L 75.5,69 75.5,73 30.2,73 Z" fill="black" />
<path d="M 75.5,69 L 55.5,71 65.5,60 Z" fill="black" />
<path d="M 15.9,101 L 80.2,101 80.2,105 15.9,105 Z" fill="black" />
<path d="M 80.2,101 L 56.2,103 68.2,91 Z" fill="black" />
<path d="M 54.4,69 L 54.4,166 42.4,166 42.4,69 Z" fill="black" />
<path d="M 18.8,120.1 Q 27.1,125.8 31.4,133.2 Q 36.3,141.4 37.5,150.5 L 25.5,151.4 Q 25.3,143.4 23.6,136.6 Q 21.1,128.8 17.4,121.3 Z" fill="black" />
<path d="M 37.5,150.5 Q 37.3,155.9 32,156.9 Q 26.6,156.8 25.5,151.4 Z" fill="black" />
<path d="M 77.6,121.9 Q 73.9,129.8 69.7,136.9 Q 64.9,144.9 58.8,151.4 L 57.2,150.5 Q 59.9,140.9 62,133.4 Q 64.9,124.8 66.3,117.9 Z" fill="black" />
<path d="M 66,118.9 L 77.6,121.9 66.8,116.5 Z" fill="black" />
<path d="M 77.6,121.9 L 79.8,124.7 74.1,125.9 Z" fill="black" />
<path d="M 13.8,170.9 Q 30.4,167.4 45.6,163.8 Q 62.6,159.5 78.3,156.1 L 79,157.8 Q 62.6,166.5 48.2,171.9 Q 31.4,178.4 16.7,182.5 Z" fill="black" />
<path d="M 16.7,182.5 L 13.8,170.9 11.9,171.4 Z" fill="black" />
<path d="M 16.7,182.5 L 19.3,185 21.8,178.2 Z" fill="black" />
<path d="M 127,9.6 L 127,48.9 116,48.9 116,7.6 Z" fill="black" />
<path d="M 127,9.6 L 129.7,11.6 125,14.6 Z" fill="black" />
<path d="M 116,48.9 Q 116.5,53.9 121.5,54.4 Q 126.4,53.9 127,48.9 Z" fill="black" />
<path d="M 127,48.9 Q 126,69.8 112.9,81.2 Q 98.6,93.4 76.4,95.6 L 76.1,94 Q 99.6,86.4 107.4,75.8 Q 117,63.8 116,48.9 Z" fill="black" />
<path d="M 83.5,17.9 Q 92.9,19.3 99.1,23.7 Q 106,28.4 109.6,34.4 L 98.8,39.6 Q 97,34.4 93.5,30.1 Q 88.9,25.3 82.8,19.5 Z" fill="black" />
<path d="M 109.6,34.4 Q 111.4,39.5 106.8,42.4 Q 101.7,44.2 98.8,39.6 Z" fill="black" />
<path d="M 78.3,63.4 Q 88.1,60.3 98.1,56.5 Q 109.1,51.8 121,48.1 L 121.9,49.7 Q 111.1,58.8 101.8,64.1 Q 91.1,70.3 82.7,74.5 Z" fill="black" />
<path d="M 82.7,74.5 L 78.3,63.4 76.4,64.1 Z" fill="black" />
<path d="M 82.7,74.5 L 85.7,76.6 87.2,69.5 Z" fill="black" />
<path d="M 150.9,9.6 L 150.9,77.7 139.9,77.7 139.9,7.6 Z" fill="black" />
<path d="M 150.9,9.6 L 153.7,11.6 148.9,14.6 Z" fill="black" />
<path d="M 139.9,77.7 Q 140.5,82.6 145.4,83.2 Q 150.4,82.6 150.9,77.7 Z" fill="black" />
<path d="M 150.8,77.7 Q 151.4,81.1 152,81 Q 152.4,81.2 155.4,81.3 L 155.4,94 Q 148.4,94.2 143.8,89.3 Q 139.4,84.1 140.1,77.7 Z" fill="black" />
<path d="M 155.4,83.2 Q 159.5,83.6 159.9,87.7 Q 159.5,91.7 155.4,92.2 Z" fill="black" />
<path d="M 155.4,83.2 L 187.3,83.2 187.3,92.2 155.4,92.2 Z" fill="black" />
<path d="M 187.3,83.2 Q 191.4,83.6 191.8,87.7 Q 191.4,91.7 187.3,92.2 Z" fill="black" />
<path d="M 187.3,84.2 L 189.3,70.2 187.3,70.2 182.8,84.2 Z" fill="black" />
<path d="M 184.7,25.3 Q 178.2,28.9 170.6,32.6 Q 162.1,36.6 152.5,39.5 L 151.6,37.9 Q 160.1,30.6 166.1,25.4 Q 173.2,19.9 177.7,15.6 Z" fill="black" />
<path d="M 176.9,16.2 L 184.7,25.3 184.7,25.3 Z" fill="black" />
<path d="M 184.7,25.3 L 184.9,28.9 179.5,26.6 Z" fill="black" />
<path d="M 153.3,45.9 Q 163.4,46.8 170.4,50.3 Q 178.4,54 184.2,58.9 L 175.6,67.3 Q 171.4,62 166,57.6 Q 159.4,52.8 152.7,47.6 Z" fill="black" />
<path d="M 184.2,58.9 Q 187.5,63.2 184.1,67.4 Q 179.8,70.7 175.6,67.3 Z" fill="black" />
<path d="M 104.9,101.6 L 104.9,184.7 92.9,190.7 92.9,95.6 Z" fill="black" />
<path d="M 98.9,101.6 L 168,101.6 168,105.6 98.9,105.6 Z" fill="black" />
<path d="M 174,103.6 L 174,173.9 162,173.9 162,103.6 Z" fill="black" />
<path d="M 162,101.6 L 168,96.6 179,105.6 174,109.6 162,103.6 Z" fill="black" />
<path d="M 162,173.9 Q 162.6,179.3 168,179.9 Q 173.4,179.3 174,173.9 Z" fill="black" />
<path d="M 174,173.9 Q 174,180.8 169.8,185.6 Q 164.6,190.4 158,189.9 L 158,177.9 Q 161.6,177.4 161.3,177.1 Q 162,176.8 162,173.9 Z" fill="black" />
<path d="M 158,183.9 L 158,177.9 144,177.9 144,180.9 Z" fill="black" />
<path d="M 98.9,126.1 L 168,126.1 168,130.1 98.9,130.1 Z" fill="black" />
<path d="M 98.9,150.7 L 168,150.7 168,154.7 98.9,154.7 Z" fill="black" />
</svg>
