<svg xmlns="http://www.w3.org/2000/svg" xmlns:xlink="http://www.w3.org/1999/xlink" version="1.1" baseProfile="full" viewBox="0 0 200 200" width="200" height="200">
<path d="M 51.3,17.5 Q 44.3,39.7 34.6,57.8 Q 23.9,77.8 10.3,92.5 L 8.8,91.4 Q 19.9,71.8 26.9,54.1 Q 35.3,33.7 39.8,14.3 Z" fill="black" />
<path d="M 39.5,15.3 L 51.3,17.5 40.2,12.7 Z" fill="black" />
<path d="M 51.3,17.5 L 53.7,20.2 48.1,21.8 Z" fill="black" />
<path d="M 46.4,26.7 Q 57.2,30.2 63.7,35.6 Q 71.1,41.5 75.2,48.7 L 64.3,53.7 Q 62.1,47.5 57.7,41.6 Q 52.2,35.2 45.5,28.2 Z" fill="black" />
<path d="M 75.2,48.7 Q 76.9,53.9 72.2,56.7 Q 67.1,58.4 64.3,53.7 Z" fill="black" />
<path d="M 28.1,69 L 70.3,69 70.3,73 28.1,73 Z" fill="black" />
<path d="M 70.3,69 L 50.3,71 60.3,60 Z" fill="black" />
<path d="M 14.8,101 L 74.7,101 74.7,105 14.8,105 Z" fill="black" />
<path d="M 74.7,101 L 54.7,103 64.7,92 Z" fill="black" />
<path d="M 51.1,69 L 51.1,166 39.1,166 39.1,69 Z" fill="black" />
<path d="M 17.6,120.1 Q 25.4,125.8 29.5,133.3 Q 34.2,141.4 35.3,150.5 L 23.3,151.4 Q 23.2,143.4 21.7,136.5 Q 19.4,128.8 16.2,121.3 Z" fill="black" />
<path d="M 35.3,150.5 Q 35.1,155.9 29.8,156.9 Q 24.3,156.7 23.3,151.4 Z" fill="black" />
<path d="M 72.7,121.7 Q 69.1,129.9 65.2,136.8 Q 61.1,144.9 54.8,151.4 L 53.2,150.5 Q 55.1,140.9 57.4,133.5 Q 60.1,124.9 61.3,118.1 Z" fill="black" />
<path d="M 61,119 L 72.7,121.7 61.8,116.5 Z" fill="black" />
<path d="M 72.7,121.7 L 74.9,124.6 69.2,125.9 Z" fill="black" />
<path d="M 12.7,170.9 Q 28.3,167.4 42.3,163.9 Q 57.8,159.5 72.9,156.1 L 73.5,157.8 Q 58.8,166.5 45,171.9 Q 29.3,178.4 15.8,182.5 Z" fill="black" />
<path d="M 15.8,182.5 L 12.7,170.9 10.8,171.4 Z" fill="black" />
<path d="M 15.8,182.5 L 18.5,184.9 20.8,178.1 Z" fill="black" />
<path d="M 118.1,18.6 Q 111.2,30.8 100.6,40.5 Q 89.5,51.3 74.7,59.7 L 73.6,58.2 Q 86.5,45.3 94.3,34.8 Q 103.2,22.8 107.4,13.1 Z" fill="black" />
<path d="M 106.9,14 L 118.1,18.6 107.9,12 Z" fill="black" />
<path d="M 118.1,18.6 L 119.8,21.7 114,22.1 Z" fill="black" />
<path d="M 102.5,27 L 146.3,27 146.3,31 102.5,31 Z" fill="black" />
<path d="M 151.5,32 Q 147.4,37.4 142.8,41.6 Q 137.6,46.4 131.4,49.6 L 130.1,48.3 Q 133.6,41.4 136.2,36.3 Q 139.4,30.4 141.1,25.9 Z" fill="black" />
<path d="M 140.3,27 L 146.3,22 157.3,31 152.3,34 140.3,39 Z" fill="black" />
<path d="M 97.7,47 L 97.7,72 85.7,78 85.7,41 Z" fill="black" />
<path d="M 91.7,47 L 174.6,47 174.6,51 91.7,51 Z" fill="black" />
<path d="M 180.6,49 L 180.6,75 168.6,81 168.6,49 Z" fill="black" />
<path d="M 168.6,47 L 174.6,42 185.6,51 180.6,55 168.6,49 Z" fill="black" />
<path d="M 139.3,51 Q 134.8,60.9 126.2,66.6 Q 117.2,73.4 104.8,75.8 L 104,74.1 Q 115.2,66.4 120.6,60.3 Q 126.8,52.9 128,46.9 Z" fill="black" />
<path d="M 132.9,58.4 Q 140.9,58.6 146.2,60.2 Q 152.1,61.9 155.9,64.5 L 147.9,73.4 Q 146.1,70.9 142.4,67.8 Q 137.9,64.6 132.4,60.1 Z" fill="black" />
<path d="M 155.9,64.5 Q 159.5,68.5 156.4,73 Q 152.3,76.6 147.9,73.4 Z" fill="black" />
<path d="M 104.6,78 L 104.6,130 92.6,136 92.6,72 Z" fill="black" />
<path d="M 98.6,78 L 165.8,78 165.8,82 98.6,82 Z" fill="black" />
<path d="M 171.8,80 L 171.8,130 159.8,136 159.8,80 Z" fill="black" />
<path d="M 159.8,78 L 165.8,73 176.8,82 171.8,86 159.8,80 Z" fill="black" />
<path d="M 98.6,94 L 165.8,94 165.8,98 98.6,98 Z" fill="black" />
<path d="M 98.6,109 L 165.8,109 165.8,113 98.6,113 Z" fill="black" />
<path d="M 98.6,126 L 165.8,126 165.8,130 98.6,130 Z" fill="black" />
<path d="M 127.8,131.5 Q 117.7,143.8 105,152.1 Q 90.9,161.4 74.5,165.8 L 73.8,164.1 Q 89.9,154.4 99.9,145.3 Q 111.7,134.8 118.1,124.4 Z" fill="black" />
<path d="M 110.3,142 L 183.4,142 183.4,146 110.3,146 Z" fill="black" />
<path d="M 183.4,142 L 163.4,144 173.4,133 Z" fill="black" />
<path d="M 163,147.3 Q 147.5,167.8 123.5,177.3 Q 96.9,187.9 63.5,188.8 L 63.4,187.1 Q 99.9,180.9 119.9,169.6 Q 143.5,156.8 153.1,140.6 Z" fill="black" />
<path d="M 107.7,145.3 Q 120.3,158.2 136.6,165 Q 154.9,172.4 178.3,174.4 L 176.7,187.5 Q 148.9,183.4 132.4,173.3 Q 113.3,162.2 106.2,146.3 Z" fill="black" />
<path d="M 176.7,187.5 L 178.3,174.4 188.6,175.6 Z" fill="black" />
</svg>
