<svg xmlns="http://www.w3.org/2000/svg" xmlns:xlink="http://www.w3.org/1999/xlink" version="1.1" baseProfile="full" viewBox="0 0 200 200" width="200" height="200">
<path d="M 49.2,17.4 Q 42.4,39.7 33.2,57.7 Q 22.9,77.8 9.9,92.5 L 8.4,91.4 Q 18.9,71.8 25.5,54.2 Q 33.4,33.7 37.6,14.4 Z" fill="black" />
<path d="M 37.3,15.4 L 49.2,17.4 38,12.7 Z" fill="black" />
<path d="M 49.2,17.4 L 51.6,20.1 46,21.8 Z" fill="black" />
<path d="M 44.3,26.7 Q 54.6,30.2 60.9,35.7 Q 68,41.5 71.9,48.8 L 60.9,53.6 Q 59,47.5 54.8,41.6 Q 49.6,35.2 43.3,28.2 Z" fill="black" />
<path d="M 71.9,48.8 Q 73.5,54 68.8,56.7 Q 63.7,58.3 60.9,53.6 Z" fill="black" />
<path d="M 26.7,69 L 66.9,69 66.9,73 26.7,73 Z" fill="black" />
<path d="M 66.9,69 L 46.9,71 56.9,60 Z" fill="black" />
<path d="M 14.1,101 L 71.2,101 71.2,105 14.1,105 Z" fill="black" />
<path d="M 71.2,101 L 51.2,103 61.2,92 Z" fill="black" />
<path d="M 49,69 L 49,166 37,166 37,69 Z" fill="black" />
<path d="M 16.8,120.2 Q 24.4,125.8 28.3,133.3 Q 32.8,141.9 33.9,150.5 L 22,151.4 Q 21.8,142.9 20.4,136.4 Q 18.4,128.8 15.4,121.3 Z" fill="black" />
<path d="M 33.9,150.5 Q 33.7,156 28.4,156.9 Q 22.9,156.7 22,151.4 Z" fill="black" />
<path d="M 69.5,121.7 Q 66.5,129.9 62.3,136.8 Q 58.3,144.9 52.2,151.3 L 50.6,150.6 Q 52.3,140.9 54.5,133.6 Q 56.5,124.9 58.1,118.1 Z" fill="black" />
<path d="M 57.8,119.1 L 69.5,121.7 58.6,116.6 Z" fill="black" />
<path d="M 69.5,121.7 L 71.8,124.5 66.2,125.9 Z" fill="black" />
<path d="M 12,170.9 Q 26.4,167.9 40.2,163.9 Q 55,159.5 69.4,156.1 L 70.1,157.8 Q 56,166.5 43,171.9 Q 28.4,177.9 15.2,182.5 Z" fill="black" />
<path d="M 15.2,182.5 L 12,170.9 10.1,171.4 Z" fill="black" />
<path d="M 15.2,182.5 L 17.9,184.8 20.2,178 Z" fill="black" />
<path d="M 122.5,35.8 Q 113,40.9 103.8,43.7 Q 94,47 84.4,46.6 L 83.9,44.9 Q 93,40 100.5,35.9 Q 109,30.9 116.1,25.7 Z" fill="black" />
<path d="M 115.2,26.2 L 122.5,35.8 123.6,35.1 Z" fill="black" />
<path d="M 123.6,35.1 L 123.7,38.6 118.1,36.2 Z" fill="black" />
<path d="M 90.1,15.2 L 90.1,66.1 78.1,66.1 78.1,13.2 Z" fill="black" />
<path d="M 90.1,15.2 L 93.1,17.2 88.1,20.2 Z" fill="black" />
<path d="M 78.1,66.1 Q 78.7,71.5 84.1,72.1 Q 89.5,71.5 90.1,66.1 Z" fill="black" />
<path d="M 90.1,66.1 Q 90.6,69.6 90.9,69.4 Q 91.1,70.1 94.1,70.1 L 94.1,82.1 Q 87.1,82.1 82.4,77.9 Q 77.6,72.6 78.1,66.1 Z" fill="black" />
<path d="M 94.1,70.6 Q 99.1,71.2 99.6,76.1 Q 99.1,81.1 94.1,81.6 Z" fill="black" />
<path d="M 94.1,70.6 L 121.4,70.6 121.4,81.6 94.1,81.6 Z" fill="black" />
<path d="M 121.4,70.6 Q 126.4,71.2 126.9,76.1 Q 126.4,81.1 121.4,81.6 Z" fill="black" />
<path d="M 121.4,71.6 L 123.4,49.6 121.4,49.6 115.9,71.6 Z" fill="black" />
<path d="M 92.5,87.6 Q 89.9,102.4 85.5,112.5 Q 80.5,123.8 73.5,129.9 L 72,128.9 Q 75.5,119.8 77.4,109.9 Q 79.9,98.4 80.6,86.1 Z" fill="black" />
<path d="M 80.5,87.1 L 92.5,87.6 80.8,84 Z" fill="black" />
<path d="M 92.5,87.6 L 95.2,89.9 89.9,92.3 Z" fill="black" />
<path d="M 83.2,103.8 L 125.6,103.8 125.6,107.8 83.2,107.8 Z" fill="black" />
<path d="M 125.6,103.8 L 105.6,105.8 115.6,94.8 Z" fill="black" />
<path d="M 70,135.3 L 127.7,135.3 127.7,139.3 70,139.3 Z" fill="black" />
<path d="M 127.7,135.3 L 107.7,137.3 117.7,126.3 Z" fill="black" />
<path d="M 105.9,103.8 L 105.9,133 93.9,133 93.9,103.8 Z" fill="black" />
<path d="M 93.9,133 Q 94.5,138.4 99.9,139 Q 105.3,138.4 105.9,133 Z" fill="black" />
<path d="M 105.9,133 Q 104.9,155.4 96.5,169.4 Q 87.3,184.9 71.8,189.5 L 71,187.9 Q 84.3,177.9 89,165.6 Q 94.9,151.4 93.9,133 Z" fill="black" />
<path d="M 100.5,147.6 Q 109.4,152.2 114.7,157.7 Q 120.7,163.9 124.7,170 L 114,175.4 Q 111.7,168.9 108,163 Q 103.4,156.2 99.3,148.9 Z" fill="black" />
<path d="M 124.7,170 Q 126.6,175.1 122.1,178.1 Q 117,180 114,175.4 Z" fill="black" />
<path d="M 129.1,21 L 179.1,21 179.1,25 129.1,25 Z" fill="black" />
<path d="M 184.5,25.7 Q 180.8,31.4 175.3,38.8 Q 169.5,47.3 161.1,56.4 L 159.6,55.5 Q 164.5,42.3 167.9,34.6 Q 171.8,25.4 173.7,20.2 Z" fill="black" />
<path d="M 173.1,21 L 179.1,16 190.1,25 185.1,28 173.1,33 Z" fill="black" />
<path d="M 144.3,34 Q 153.9,39.2 159.6,46.5 Q 166.2,54.4 169.9,63.1 L 158.5,67.1 Q 156.2,58.4 152.6,51.3 Q 147.9,43.2 143.1,35.3 Z" fill="black" />
<path d="M 169.9,63.1 Q 171.1,68.4 166.2,70.8 Q 160.9,72 158.5,67.1 Z" fill="black" />
<path d="M 128.4,72 L 183.3,72 183.3,76 128.4,76 Z" fill="black" />
<path d="M 188.7,76.4 Q 184.7,83.9 180.2,89.5 Q 175.4,95.9 169.4,100.5 L 167.9,99.4 Q 170.4,91.9 172.8,85.4 Q 175.7,77.9 177.8,71.5 Z" fill="black" />
<path d="M 177.3,72 L 183.3,67 194.3,76 189.3,79 177.3,84 Z" fill="black" />
<path d="M 163.6,72 L 163.6,176 151.6,176 151.6,72 Z" fill="black" />
<path d="M 157.6,124 L 186.1,124 186.1,128 157.6,128 Z" fill="black" />
<path d="M 186.1,124 L 170.1,126 178.1,117 Z" fill="black" />
<path d="M 145.5,101.9 Q 144.8,138.1 138,159.6 Q 130.1,183.4 116.4,190.7 L 115.3,189.2 Q 126.1,177.4 129.8,157.3 Q 134.8,134.1 133.5,102 Z" fill="black" />
<path d="M 133.5,103 L 145.5,101.9 133.5,99.6 Z" fill="black" />
<path d="M 145.5,101.9 L 148.5,103.9 143.5,106.9 Z" fill="black" />
<path d="M 137.1,147.7 Q 144.7,165.3 155.5,170.2 Q 167.7,176 186.5,172.4 L 188.4,185.5 Q 163.7,188 150.7,178.2 Q 135.7,167.3 135.3,148.1 Z" fill="black" />
<path d="M 188.4,185.5 L 186.5,172.4 196.6,171 Z" fill="black" />
</svg>
