<svg xmlns="http://www.w3.org/2000/svg" xmlns:xlink="http://www.w3.org/1999/xlink" version="1.1" baseProfile="full" viewBox="0 0 200 200" width="200" height="200">
<path d="M 60.8,17.8 Q 52.2,40.2 40.9,58 Q 28.5,77.8 12.3,92.5 L 10.9,91.4 Q 24.5,71.8 33.6,53.8 Q 44.2,33.2 49.4,14 Z" fill="black" />
<path d="M 49.1,15 L 60.8,17.8 49.9,12.5 Z" fill="black" />
<path d="M 60.8,17.8 L 63,20.6 57.3,21.9 Z" fill="black" />
<path d="M 55.8,26.6 Q 68.1,29.6 76.1,35.4 Q 84.6,41.1 89.6,48.4 L 79.2,54.3 Q 76.6,48.1 70.7,41.9 Q 64.1,35.6 55,28.2 Z" fill="black" />
<path d="M 89.6,48.4 Q 91.8,53.4 87.3,56.6 Q 82.3,58.7 79.2,54.3 Z" fill="black" />
<path d="M 34,69 L 85,69 85,73 34,73 Z" fill="black" />
<path d="M 85,69 L 61,71 73,59 Z" fill="black" />
<path d="M 17.9,101 L 90.3,101 90.3,105 17.9,105 Z" fill="black" />
<path d="M 90.3,101 L 66.3,103 78.3,91 Z" fill="black" />
<path d="M 60.5,69 L 60.5,166 48.5,166 48.5,69 Z" fill="black" />
<path d="M 21,120 Q 30.1,125.2 34.7,133 Q 40.2,141.4 41.5,150.4 L 29.5,151.5 Q 29.2,143.4 27.1,136.8 Q 24.1,129.2 19.7,121.3 Z" fill="black" />
<path d="M 41.5,150.4 Q 41.3,155.9 36,156.9 Q 30.6,156.8 29.5,151.5 Z" fill="black" />
<path d="M 86.6,122.1 Q 82.6,129.8 77.9,137.1 Q 72.8,144.9 66.1,151.4 L 64.5,150.5 Q 67.8,140.9 70.4,133.3 Q 73.6,124.8 75.4,117.7 Z" fill="black" />
<path d="M 75.1,118.6 L 86.6,122.1 76,116.3 Z" fill="black" />
<path d="M 86.6,122.1 L 88.7,125 82.9,126 Z" fill="black" />
<path d="M 15.8,170.9 Q 34.7,167.4 51.6,163.8 Q 70.5,159.5 88.3,156.1 L 88.8,157.8 Q 70.5,166.5 53.9,172 Q 34.7,178.4 18.3,182.6 Z" fill="black" />
<path d="M 18.3,182.6 L 15.8,170.9 13.8,171.3 Z" fill="black" />
<path d="M 18.3,182.6 L 20.9,185.1 23.5,178.4 Z" fill="black" />
<path d="M 142.8,17.5 Q 140.7,23.6 137.8,29.1 Q 134.9,35.6 130.2,41.6 L 128.5,41 Q 128.9,32.6 129.7,26.7 Q 130.7,19.6 131.1,14.7 Z" fill="black" />
<path d="M 130.8,15.7 L 142.8,17.5 131.5,13 Z" fill="black" />
<path d="M 142.8,17.5 L 145.2,20.1 139.7,21.9 Z" fill="black" />
<path d="M 110.3,39.3 L 110.3,113.1 98.3,119.1 98.3,33.3 Z" fill="black" />
<path d="M 104.3,39.3 L 168.9,39.3 168.9,43.3 104.3,43.3 Z" fill="black" />
<path d="M 174.9,41.3 L 174.9,107.1 162.9,113.1 162.9,41.3 Z" fill="black" />
<path d="M 162.9,39.3 L 168.9,34.3 179.9,43.3 174.9,47.3 162.9,41.3 Z" fill="black" />
<path d="M 104.3,67.6 L 168.9,67.6 168.9,71.6 104.3,71.6 Z" fill="black" />
<path d="M 104.3,97.1 L 168.9,97.1 168.9,101.1 104.3,101.1 Z" fill="black" />
<path d="M 82.8,136 L 190.4,136 190.4,140 82.8,140 Z" fill="black" />
<path d="M 190.4,136 L 166.4,138 178.4,126 Z" fill="black" />
<path d="M 142.6,107 L 142.6,184 130.6,190 130.6,105 Z" fill="black" />
<path d="M 142.6,107 L 145.6,109 140.6,112 Z" fill="black" />
</svg>
