<svg xmlns="http://www.w3.org/2000/svg" xmlns:xlink="http://www.w3.org/1999/xlink" version="1.1" baseProfile="full" viewBox="0 0 200 200" width="200" height="200">
<path d="M 56.2,17.7 Q 48.6,40.2 37.9,57.9 Q 26.3,77.8 11.3,92.5 L 9.9,91.4 Q 22.3,71.8 30.4,54 Q 39.6,33.2 44.8,14.2 Z" fill="black" />
<path d="M 44.5,15.1 L 56.2,17.7 45.2,12.6 Z" fill="black" />
<path d="M 56.2,17.7 L 58.5,20.4 52.9,21.9 Z" fill="black" />
<path d="M 51.3,26.6 Q 63.1,30.1 70.1,35.5 Q 78.4,41.5 82.6,48.5 L 72,54 Q 69.4,47.5 64.4,41.8 Q 58.1,35.1 50.4,28.2 Z" fill="black" />
<path d="M 82.6,48.5 Q 84.6,53.6 80,56.6 Q 75,58.5 72,54 Z" fill="black" />
<path d="M 31.1,69 L 77.9,69 77.9,73 31.1,73 Z" fill="black" />
<path d="M 77.9,69 L 57.9,71 67.9,60 Z" fill="black" />
<path d="M 16.4,101 L 82.8,101 82.8,105 16.4,105 Z" fill="black" />
<path d="M 82.8,101 L 58.8,103 70.8,91 Z" fill="black" />
<path d="M 56,69 L 56,166 44,166 44,69 Z" fill="black" />
<path d="M 19.3,120.1 Q 27.8,125.2 32.2,133.1 Q 37.3,141.4 38.5,150.5 L 26.5,151.5 Q 26.3,143.4 24.5,136.6 Q 21.8,129.2 18,121.3 Z" fill="black" />
<path d="M 38.5,150.5 Q 38.3,155.9 33,156.9 Q 27.6,156.8 26.5,151.5 Z" fill="black" />
<path d="M 79.9,121.9 Q 76.1,129.8 71.8,137 Q 66.9,144.9 60.6,151.4 L 59,150.5 Q 61.9,140.9 64.1,133.4 Q 67.1,124.8 68.6,117.9 Z" fill="black" />
<path d="M 68.2,118.8 L 79.9,121.9 69.1,116.4 Z" fill="black" />
<path d="M 79.9,121.9 L 82,124.8 76.3,125.9 Z" fill="black" />
<path d="M 14.3,170.9 Q 31.3,167.4 47.1,163.8 Q 64.6,159.5 80.8,156.1 L 81.4,157.8 Q 64.6,166.5 49.6,172 Q 32.3,178.4 17.1,182.6 Z" fill="black" />
<path d="M 17.1,182.6 L 14.3,170.9 12.3,171.3 Z" fill="black" />
<path d="M 17.1,182.6 L 19.7,185 22.2,178.2 Z" fill="black" />
<path d="M 138.7,15 L 138.7,38 126.7,38 126.7,13 Z" fill="black" />
<path d="M 138.7,15 L 141.7,17 136.7,20 Z" fill="black" />
<path d="M 83,34 L 187.3,34 187.3,38 83,38 Z" fill="black" />
<path d="M 187.3,34 L 163.3,36 175.3,24 Z" fill="black" />
<path d="M 108.5,45 L 108.5,100 96.5,106 96.5,43 Z" fill="black" />
<path d="M 108.5,45 L 111.5,47 106.5,50 Z" fill="black" />
<path d="M 102.5,89 L 163.9,89 163.9,93 102.5,93 Z" fill="black" />
<path d="M 169.9,46 L 169.9,97 157.9,103 157.9,44 Z" fill="black" />
<path d="M 169.9,46 L 172.9,48 167.9,51 Z" fill="black" />
<path d="M 155.4,50.3 Q 146.7,60.8 135.9,69.5 Q 124.6,78.9 110.8,85.7 L 109.7,84.2 Q 121.6,72.9 130.1,63.3 Q 139.7,52.8 145.8,43.2 Z" fill="black" />
<path d="M 145.2,44 L 155.4,50.3 146.2,42.6 Z" fill="black" />
<path d="M 155.4,50.3 L 156.6,53.7 150.8,53.2 Z" fill="black" />
<path d="M 115.4,52.4 Q 127.7,53.6 136.5,59.2 Q 146.6,65.1 152.7,74.2 L 142.6,80.6 Q 137.6,72.1 131.4,66 Q 123.7,59.6 114.8,54.1 Z" fill="black" />
<path d="M 152.7,74.2 Q 155.1,79.1 150.9,82.5 Q 146,84.9 142.6,80.6 Z" fill="black" />
<path d="M 97.7,116 L 97.7,183 85.7,189 85.7,110 Z" fill="black" />
<path d="M 91.7,116 L 173.6,116 173.6,120 91.7,120 Z" fill="black" />
<path d="M 179.6,118 L 179.6,171 167.6,171 167.6,118 Z" fill="black" />
<path d="M 167.6,116 L 173.6,111 184.6,120 179.6,124 167.6,118 Z" fill="black" />
<path d="M 167.6,171 Q 168.2,176.4 173.6,177 Q 179,176.4 179.6,171 Z" fill="black" />
<path d="M 179.6,171 Q 179.6,177.9 175.4,182.7 Q 170.2,187.5 163.6,187 L 163.6,175 Q 167.2,174.5 166.9,174.2 Q 167.6,173.9 167.6,171 Z" fill="black" />
<path d="M 163.6,181 L 163.6,175 147.6,175 147.6,178 Z" fill="black" />
<path d="M 140.2,95.4 Q 135.1,111.3 129.3,125.1 Q 122.6,140.3 114,153.3 L 112.4,152.6 Q 117.6,136.3 121.3,122.3 Q 126.1,106.3 128.6,92.5 Z" fill="black" />
<path d="M 128.3,93.4 L 140.2,95.4 129,90.7 Z" fill="black" />
<path d="M 140.2,95.4 L 142.6,98.1 137,99.7 Z" fill="black" />
<path d="M 101.9,149.9 Q 115.5,147.4 126.9,144.8 Q 139.4,142 150.9,141.1 L 151.5,142.8 Q 140.4,149 129.2,153 Q 116.5,157.4 105,161.5 Z" fill="black" />
<path d="M 105,161.5 L 101.9,149.9 99.9,150.4 Z" fill="black" />
<path d="M 105,161.5 L 107.7,163.9 110,157.1 Z" fill="black" />
<path d="M 142.8,125.2 Q 151.5,132.8 156.6,140.7 Q 162.1,149.4 165,157.6 L 153.4,160.5 Q 152.1,152.4 149.1,144.6 Q 145.5,135.8 141.3,126.3 Z" fill="black" />
<path d="M 165,157.6 Q 165.8,162.9 160.7,164.9 Q 155.3,165.6 153.4,160.5 Z" fill="black" />
</svg>
