<svg xmlns="http://www.w3.org/2000/svg" xmlns:xlink="http://www.w3.org/1999/xlink" version="1.1" baseProfile="full" viewBox="0 0 200 200" width="200" height="200">
<path d="M 56.2,17.7 Q 48.6,40.2 37.9,57.9 Q 26.3,77.8 11.3,92.5 L 9.9,91.4 Q 22.3,71.8 30.4,54 Q 39.6,33.2 44.8,14.2 Z" fill="black" />
<path d="M 44.5,15.1 L 56.2,17.7 45.2,12.6 Z" fill="black" />
<path d="M 56.2,17.7 L 58.5,20.4 52.9,21.9 Z" fill="black" />
<path d="M 51.3,26.6 Q 63.1,30.1 70.1,35.5 Q 78.4,41.5 82.6,48.5 L 72,54 Q 69.4,47.5 64.4,41.8 Q 58.1,35.1 50.4,28.2 Z" fill="black" />
<path d="M 82.6,48.5 Q 84.6,53.6 80,56.6 Q 75,58.5 72,54 Z" fill="black" />
<path d="M 31.1,69 L 77.9,69 77.9,73 31.1,73 Z" fill="black" />
<path d="M 77.9,69 L 57.9,71 67.9,60 Z" fill="black" />
<path d="M 16.4,101 L 82.8,101 82.8,105 16.4,105 Z" fill="black" />
<path d="M 82.8,101 L 58.8,103 70.8,91 Z" fill="black" />
<path d="M 56,69 L 56,166 44,166 44,69 Z" fill="black" />
<path d="M 19.3,120.1 Q 27.8,125.2 32.2,133.1 Q 37.3,141.4 38.5,150.5 L 26.5,151.5 Q 26.3,143.4 24.5,136.6 Q 21.8,129.2 18,121.3 Z" fill="black" />
<path d="M 38.5,150.5 Q 38.3,155.9 33,156.9 Q 27.6,156.8 26.5,151.5 Z" fill="black" />
<path d="M 79.9,121.9 Q 76.1,129.8 71.8,137 Q 66.9,144.9 60.6,151.4 L 59,150.5 Q 61.9,140.9 64.1,133.4 Q 67.1,124.8 68.6,117.9 Z" fill="black" />
<path d="M 68.2,118.8 L 79.9,121.9 69.1,116.4 Z" fill="black" />
<path d="M 79.9,121.9 L 82,124.8 76.3,125.9 Z" fill="black" />
<path d="M 14.3,170.9 Q 31.3,167.4 47.1,163.8 Q 64.6,159.5 80.8,156.1 L 81.4,157.8 Q 64.6,166.5 49.6,172 Q 32.3,178.4 17.1,182.6 Z" fill="black" />
<path d="M 17.1,182.6 L 14.3,170.9 12.3,171.3 Z" fill="black" />
<path d="M 17.1,182.6 L 19.7,185 22.2,178.2 Z" fill="black" />
<path d="M 86.6,18.4 L 131.9,18.4 131.9,22.4 86.6,22.4 Z" fill="black" />
<path d="M 137.9,20.4 L 137.9,83 125.9,89 125.9,20.4 Z" fill="black" />
<path d="M 125.9,18.4 L 131.9,13.4 142.9,22.4 137.9,26.4 125.9,20.4 Z" fill="black" />
<path d="M 125.8,30.1 Q 119.1,39 111,45.5 Q 102,52.8 90.8,57.2 L 89.8,55.7 Q 99,46.8 105,39.5 Q 112.1,31 115.6,23.8 Z" fill="black" />
<path d="M 115,24.6 L 125.8,30.1 116.1,22.9 Z" fill="black" />
<path d="M 125.8,30.1 L 127.3,33.4 121.4,33.3 Z" fill="black" />
<path d="M 130.1,51.5 Q 122.6,61.6 112.2,69.1 Q 100.9,77.5 87,81.8 L 86.1,80.2 Q 98.9,70.5 106.7,62.6 Q 115.6,53.6 120,45 Z" fill="black" />
<path d="M 119.5,45.9 L 130.1,51.5 120.5,44.2 Z" fill="black" />
<path d="M 130.1,51.5 L 131.6,54.8 125.7,54.6 Z" fill="black" />
<path d="M 138.8,18.4 L 184.8,18.4 184.8,22.4 138.8,22.4 Z" fill="black" />
<path d="M 190.8,20.4 L 190.8,83 178.8,89 178.8,20.4 Z" fill="black" />
<path d="M 178.8,18.4 L 184.8,13.4 195.8,22.4 190.8,26.4 178.8,20.4 Z" fill="black" />
<path d="M 178.2,30 Q 171.7,39.1 163.6,45.5 Q 154.6,52.8 143.1,57.2 L 142.1,55.7 Q 151.6,46.8 157.7,39.5 Q 164.7,31.1 167.8,23.9 Z" fill="black" />
<path d="M 167.3,24.8 L 178.2,30 168.3,23 Z" fill="black" />
<path d="M 178.2,30 L 179.7,33.2 173.9,33.3 Z" fill="black" />
<path d="M 183,51.6 Q 175.2,61.6 164.6,69.1 Q 153.2,77.5 139.3,81.8 L 138.4,80.2 Q 151.2,70.5 159.1,62.6 Q 168.2,53.6 173,44.9 Z" fill="black" />
<path d="M 172.4,45.7 L 183,51.6 173.5,44.2 Z" fill="black" />
<path d="M 183,51.6 L 184.3,54.9 178.5,54.6 Z" fill="black" />
<path d="M 87,107.4 L 185,107.4 185,111.4 87,111.4 Z" fill="black" />
<path d="M 185,107.4 L 161,109.4 173,97.4 Z" fill="black" />
<path d="M 142.3,89.3 L 142.3,129.3 130.3,129.3 130.3,87.3 Z" fill="black" />
<path d="M 142.3,89.3 L 145.3,91.3 140.3,94.3 Z" fill="black" />
<path d="M 130.3,129.3 Q 130.9,134.7 136.3,135.3 Q 141.7,134.7 142.3,129.3 Z" fill="black" />
<path d="M 142.3,129.3 Q 140.8,154.6 126.3,168.5 Q 109.9,183.2 84.1,185.2 L 83.8,183.4 Q 110.9,175.2 120.1,162.6 Q 131.8,148.6 130.3,129.3 Z" fill="black" />
<path d="M 137.6,137.6 Q 148.9,153.9 159.8,162.2 Q 172.3,171.2 185.4,174 L 182,186.8 Q 164.3,181.2 153.6,169.1 Q 140.9,155.9 135.9,138.4 Z" fill="black" />
<path d="M 182,186.8 L 185.4,174 193.7,176.3 Z" fill="black" />
<path d="M 114.5,118.8 Q 110.8,131.4 104,140.7 Q 96.6,150.9 85.7,156.1 L 84.6,154.7 Q 92.6,144.9 96.8,136.2 Q 101.8,126.4 102.8,116.3 Z" fill="black" />
<path d="M 102.6,117.3 L 114.5,118.8 103.2,114.5 Z" fill="black" />
<path d="M 114.5,118.8 L 117.1,121.4 111.6,123.3 Z" fill="black" />
<path d="M 107.7,126.9 Q 114.4,127.7 118.9,130.8 Q 123.6,133.7 126.8,137.6 L 116.5,143.7 Q 115.6,140.7 113.2,137.1 Q 110.4,133.7 106.8,128.4 Z" fill="black" />
<path d="M 126.8,137.6 Q 129.1,142.5 124.7,145.8 Q 119.8,148 116.5,143.7 Z" fill="black" />
<path d="M 169.3,119.6 Q 165.7,130 160.5,136.9 Q 154.6,144.8 146.8,147.3 L 145.7,145.8 Q 150.6,138.8 153.2,132.5 Q 156.7,125 157.7,116.7 Z" fill="black" />
<path d="M 157.5,117.6 L 169.3,119.6 158.1,114.9 Z" fill="black" />
<path d="M 169.3,119.6 L 171.8,122.2 166.2,123.9 Z" fill="black" />
<path d="M 162,129.1 Q 171.9,132 177.4,136.1 Q 184.1,140.3 187.2,145.7 L 176.4,150.9 Q 175.1,147.3 171.7,142.3 Q 166.9,137 161,130.6 Z" fill="black" />
<path d="M 187.2,145.7 Q 189,150.8 184.4,153.7 Q 179.3,155.5 176.4,150.9 Z" fill="black" />
</svg>
