<svg xmlns="http://www.w3.org/2000/svg" xmlns:xlink="http://www.w3.org/1999/xlink" version="1.1" baseProfile="full" viewBox="0 0 200 200" width="200" height="200">
<path d="M 59,17.7 Q 51.1,40.2 39.7,58 Q 27.6,77.8 11.9,92.5 L 10.5,91.4 Q 23.6,71.8 32.3,53.9 Q 42.1,33.2 47.6,14.1 Z" fill="black" />
<path d="M 47.3,15 L 59,17.7 48.1,12.5 Z" fill="black" />
<path d="M 59,17.7 L 61.2,20.6 55.5,21.9 Z" fill="black" />
<path d="M 54,26.6 Q 65.9,30.1 73.7,35.4 Q 82.4,41.6 86.8,48.5 L 76.3,54.2 Q 73.4,47.6 68.2,41.9 Q 61.9,35.1 53.2,28.2 Z" fill="black" />
<path d="M 86.8,48.5 Q 88.9,53.5 84.4,56.6 Q 79.4,58.6 76.3,54.2 Z" fill="black" />
<path d="M 32.8,69 L 82.1,69 82.1,73 32.8,73 Z" fill="black" />
<path d="M 82.1,69 L 62.1,71 72.1,60 Z" fill="black" />
<path d="M 17.3,101 L 87.3,101 87.3,105 17.3,105 Z" fill="black" />
<path d="M 87.3,101 L 63.3,103 75.3,91 Z" fill="black" />
<path d="M 58.7,69 L 58.7,166 46.7,166 46.7,69 Z" fill="black" />
<path d="M 20.3,120 Q 29.2,125.2 33.7,133 Q 39,141.4 40.3,150.4 L 28.3,151.5 Q 28,143.4 26.1,136.7 Q 23.2,129.2 19,121.3 Z" fill="black" />
<path d="M 40.3,150.4 Q 40.1,155.9 34.8,156.9 Q 29.4,156.8 28.3,151.5 Z" fill="black" />
<path d="M 83.9,122 Q 80,129.8 75.5,137.1 Q 70.4,144.9 63.9,151.4 L 62.3,150.5 Q 65.4,140.9 67.8,133.3 Q 71,124.8 72.7,117.8 Z" fill="black" />
<path d="M 72.3,118.7 L 83.9,122 73.2,116.4 Z" fill="black" />
<path d="M 83.9,122 L 86,124.9 80.3,126 Z" fill="black" />
<path d="M 15.2,170.9 Q 33.1,167.4 49.8,163.8 Q 68.1,159.5 85.3,156.1 L 85.9,157.8 Q 68.1,166.5 52.2,172 Q 34.1,178.4 17.8,182.6 Z" fill="black" />
<path d="M 17.8,182.6 L 15.2,170.9 13.2,171.3 Z" fill="black" />
<path d="M 17.8,182.6 L 20.4,185.1 23,178.3 Z" fill="black" />
<path d="M 119,14.7 Q 114.4,43.2 106.2,66.2 Q 97.5,91.2 84.8,110.4 L 83.2,109.5 Q 92.5,86.2 98.1,63.7 Q 104.4,38.2 107.1,13.1 Z" fill="black" />
<path d="M 106.9,14.1 L 119,14.7 107.3,11.1 Z" fill="black" />
<path d="M 119,14.7 L 121.7,17.1 116.3,19.4 Z" fill="black" />
<path d="M 106.3,42 L 186.3,42 186.3,46 106.3,46 Z" fill="black" />
<path d="M 192.3,44 Q 192.3,98.9 189.6,129.7 Q 187,163.3 181.1,175.4 L 170.2,170.4 Q 175,159.3 177.7,128.7 Q 180.3,93.9 180.3,44 Z" fill="black" />
<path d="M 180.3,42 L 186.3,37 197.3,46 192.3,49 180.3,54 Z" fill="black" />
<path d="M 181.1,175.4 Q 178.3,180.1 173.1,178.3 Q 168.5,175.5 170.2,170.4 Z" fill="black" />
<path d="M 181.1,175.4 Q 178.1,181.4 173.2,184.7 Q 167.5,188 161.4,188 L 161.4,176 Q 165.5,176 166.8,174.6 Q 169.1,173.4 170.2,170.4 Z" fill="black" />
<path d="M 161.4,182 L 161.4,176 141.4,176 141.4,179 Z" fill="black" />
<path d="M 119.4,72.3 L 119.4,159.8 108.4,165.3 108.4,66.8 Z" fill="black" />
<path d="M 113.9,72.3 L 159.6,72.3 159.6,76.3 113.9,76.3 Z" fill="black" />
<path d="M 165.1,74.3 L 165.1,153.8 154.1,159.3 154.1,74.3 Z" fill="black" />
<path d="M 154.1,72.3 L 159.6,67.3 170.1,76.3 165.1,79.8 154.1,74.3 Z" fill="black" />
<path d="M 141.7,72.3 L 141.7,147.8 131.7,147.8 131.7,72.3 Z" fill="black" />
<path d="M 113.9,107.5 L 159.6,107.5 159.6,111.5 113.9,111.5 Z" fill="black" />
<path d="M 113.9,143.8 L 159.6,143.8 159.6,147.8 113.9,147.8 Z" fill="black" />
</svg>
