<svg xmlns="http://www.w3.org/2000/svg" xmlns:xlink="http://www.w3.org/1999/xlink" version="1.1" baseProfile="full" viewBox="0 0 200 200" width="200" height="200">
<path d="M 56.2,17.7 Q 48.6,40.2 37.9,57.9 Q 26.3,77.8 11.3,92.5 L 9.9,91.4 Q 22.3,71.8 30.4,54 Q 39.6,33.2 44.8,14.2 Z" fill="black" />
<path d="M 44.5,15.1 L 56.2,17.7 45.2,12.6 Z" fill="black" />
<path d="M 56.2,17.7 L 58.5,20.4 52.9,21.9 Z" fill="black" />
<path d="M 51.3,26.6 Q 63.1,30.1 70.1,35.5 Q 78.4,41.5 82.6,48.5 L 72,54 Q 69.4,47.5 64.4,41.8 Q 58.1,35.1 50.4,28.2 Z" fill="black" />
<path d="M 82.6,48.5 Q 84.6,53.6 80,56.6 Q 75,58.5 72,54 Z" fill="black" />
<path d="M 31.1,69 L 77.9,69 77.9,73 31.1,73 Z" fill="black" />
<path d="M 77.9,69 L 57.9,71 67.9,60 Z" fill="black" />
<path d="M 16.4,101 L 82.8,101 82.8,105 16.4,105 Z" fill="black" />
<path d="M 82.8,101 L 62.8,103 72.8,92 Z" fill="black" />
<path d="M 56,69 L 56,166 44,166 44,69 Z" fill="black" />
<path d="M 19.3,120.1 Q 27.8,125.2 32.2,133.1 Q 37.3,141.4 38.5,150.5 L 26.5,151.5 Q 26.3,143.4 24.5,136.6 Q 21.8,129.2 18,121.3 Z" fill="black" />
<path d="M 38.5,150.5 Q 38.3,155.9 33,156.9 Q 27.6,156.8 26.5,151.5 Z" fill="black" />
<path d="M 79.9,121.9 Q 76.1,129.8 71.8,137 Q 66.9,144.9 60.6,151.4 L 59,150.5 Q 61.9,140.9 64.1,133.4 Q 67.1,124.8 68.6,117.9 Z" fill="black" />
<path d="M 68.2,118.8 L 79.9,121.9 69.1,116.4 Z" fill="black" />
<path d="M 79.9,121.9 L 82,124.8 76.3,125.9 Z" fill="black" />
<path d="M 14.3,170.9 Q 31.3,167.4 47.1,163.8 Q 64.6,159.5 80.8,156.1 L 81.4,157.8 Q 64.6,166.5 49.6,172 Q 32.3,178.4 17.1,182.6 Z" fill="black" />
<path d="M 17.1,182.6 L 14.3,170.9 12.3,171.3 Z" fill="black" />
<path d="M 17.1,182.6 L 19.7,185 22.2,178.2 Z" fill="black" />
<path d="M 106.1,15 Q 113.5,18.8 117.2,24.4 Q 121.4,30.4 123.2,37.2 L 111.3,38.8 Q 111.4,33.4 109.7,28.4 Q 107.5,22.8 104.8,16.3 Z" fill="black" />
<path d="M 123.2,37.2 Q 123.3,42.6 118.1,43.9 Q 112.6,44.1 111.3,38.8 Z" fill="black" />
<path d="M 164.2,18.4 Q 159.7,26.3 154.7,32.6 Q 149.5,39.9 142.9,44.5 L 141.4,43.4 Q 144.5,34.9 147.4,28.3 Q 150.7,20.3 153.3,13.3 Z" fill="black" />
<path d="M 152.9,14.2 L 164.2,18.4 153.8,12.1 Z" fill="black" />
<path d="M 164.2,18.4 L 166,21.5 160.2,22.1 Z" fill="black" />
<path d="M 83,42 L 178.9,42 178.9,46 83,46 Z" fill="black" />
<path d="M 178.9,42 L 154.9,44 166.9,32 Z" fill="black" />
<path d="M 138,42 L 138,90 126,90 126,42 Z" fill="black" />
<path d="M 95.9,63 L 172.1,63 172.1,67 95.9,67 Z" fill="black" />
<path d="M 172.1,63 L 152.1,65 162.1,54 Z" fill="black" />
<path d="M 78.9,86 L 185,86 185,90 78.9,90 Z" fill="black" />
<path d="M 185,86 L 169,88 177,79 Z" fill="black" />
<path d="M 116.2,108 L 116.2,181 104.2,187 104.2,102 Z" fill="black" />
<path d="M 110.2,108 L 163.9,108 163.9,112 110.2,112 Z" fill="black" />
<path d="M 169.9,110 L 169.9,178 157.9,184 157.9,110 Z" fill="black" />
<path d="M 157.9,108 L 163.9,103 174.9,112 169.9,116 157.9,110 Z" fill="black" />
<path d="M 110.2,128 L 163.9,128 163.9,132 110.2,132 Z" fill="black" />
<path d="M 110.2,170 L 163.9,170 163.9,174 110.2,174 Z" fill="black" />
<path d="M 110.2,149 L 163.9,149 163.9,153 110.2,153 Z" fill="black" />
<path d="M 124,90 Q 116,108.8 104.4,122.3 Q 91.8,137.3 75.4,145.7 L 74.3,144.2 Q 88.8,130.3 97.6,117.1 Q 108,101.8 112.7,85.9 Z" fill="black" />
</svg>
