<svg xmlns="http://www.w3.org/2000/svg" xmlns:xlink="http://www.w3.org/1999/xlink" version="1.1" baseProfile="full" viewBox="0 0 200 200" width="200" height="200">
<path d="M 49.8,17.5 Q 43,39.7 33.6,57.7 Q 23.2,77.8 10,92.5 L 8.5,91.4 Q 19.2,71.8 25.9,54.2 Q 34,33.7 38.2,14.4 Z" fill="black" />
<path d="M 38,15.3 L 49.8,17.5 38.7,12.7 Z" fill="black" />
<path d="M 49.8,17.5 L 52.2,20.2 46.6,21.8 Z" fill="black" />
<path d="M 44.9,26.7 Q 55.3,30.2 61.7,35.7 Q 68.9,41.5 72.8,48.8 L 61.9,53.7 Q 59.9,47.5 55.6,41.6 Q 50.3,35.2 43.9,28.2 Z" fill="black" />
<path d="M 72.8,48.8 Q 74.5,53.9 69.8,56.7 Q 64.6,58.3 61.9,53.7 Z" fill="black" />
<path d="M 27.1,69 L 67.9,69 67.9,73 27.1,73 Z" fill="black" />
<path d="M 67.9,69 L 47.9,71 57.9,60 Z" fill="black" />
<path d="M 14.3,101 L 72.2,101 72.2,105 14.3,105 Z" fill="black" />
<path d="M 72.2,101 L 52.2,103 62.2,92 Z" fill="black" />
<path d="M 49.6,69 L 49.6,166 37.6,166 37.6,69 Z" fill="black" />
<path d="M 17,120.2 Q 24.7,125.8 28.7,133.3 Q 33.2,141.4 34.3,150.5 L 22.4,151.4 Q 22.2,143.4 20.8,136.5 Q 18.7,128.8 15.6,121.3 Z" fill="black" />
<path d="M 34.3,150.5 Q 34.1,156 28.8,156.9 Q 23.3,156.7 22.4,151.4 Z" fill="black" />
<path d="M 70.4,121.7 Q 66.9,129.9 63.2,136.8 Q 59.1,144.9 53,151.3 L 51.3,150.6 Q 53.1,140.9 55.3,133.6 Q 57.9,124.9 59,118.1 Z" fill="black" />
<path d="M 58.7,119.1 L 70.4,121.7 59.5,116.6 Z" fill="black" />
<path d="M 70.4,121.7 L 72.7,124.5 67,125.9 Z" fill="black" />
<path d="M 12.2,170.9 Q 27.3,167.9 40.8,163.9 Q 55.8,159.5 70.4,156.1 L 71.1,157.8 Q 56.8,166.5 43.6,171.9 Q 28.3,177.9 15.4,182.5 Z" fill="black" />
<path d="M 15.4,182.5 L 12.2,170.9 10.3,171.4 Z" fill="black" />
<path d="M 15.4,182.5 L 18.1,184.8 20.4,178 Z" fill="black" />
<path d="M 87.9,22 L 87.9,120 76.9,120 76.9,16.5 Z" fill="black" />
<path d="M 76.9,120 Q 77.4,124.9 82.4,125.5 Q 87.3,124.9 87.9,120 Z" fill="black" />
<path d="M 87.9,120 Q 86.6,148.7 83.2,165.8 Q 79.2,184.9 72.1,191.4 L 70.7,190.5 Q 74.2,180.9 75.6,164.6 Q 77.6,145.7 76.9,119.9 Z" fill="black" />
<path d="M 82.4,22 L 106.2,22 106.2,26 82.4,26 Z" fill="black" />
<path d="M 111.2,24 L 111.2,173 101.2,173 101.2,24 Z" fill="black" />
<path d="M 101.2,22 L 106.2,17 116.2,26 111.2,29 101.2,24 Z" fill="black" />
<path d="M 101.2,173 Q 101.7,177.5 106.2,178 Q 110.7,177.5 111.2,173 Z" fill="black" />
<path d="M 111.2,173 Q 111.2,178.9 108.3,183.5 Q 104.5,188 98.7,188 L 98.7,178 Q 100.5,178 100.3,177.5 Q 101.2,176.9 101.2,173 Z" fill="black" />
<path d="M 98.7,183 L 98.7,178 87.1,178 87.1,180.5 Z" fill="black" />
<path d="M 82.4,63 L 106.2,63 106.2,67 82.4,67 Z" fill="black" />
<path d="M 82.4,106 L 106.2,106 106.2,110 82.4,110 Z" fill="black" />
<path d="M 146.8,16.3 Q 141.2,36.2 133.4,52.8 Q 125,70.8 113.2,84.4 L 111.7,83.5 Q 120,65.8 125.6,49.6 Q 132.2,31.2 135.1,13.6 Z" fill="black" />
<path d="M 134.9,14.6 L 146.8,16.3 135.5,11.8 Z" fill="black" />
<path d="M 146.8,16.3 L 149.3,18.9 143.7,20.7 Z" fill="black" />
<path d="M 129.6,50 L 183.5,50 183.5,54 129.6,54 Z" fill="black" />
<path d="M 189.5,52 Q 189.5,104.9 187.5,133.6 Q 185.4,164.8 180.8,175.2 L 169.8,170.4 Q 173.4,161.8 175.5,132.8 Q 177.5,99.9 177.5,52 Z" fill="black" />
<path d="M 177.5,50 L 183.5,45 194.5,54 189.5,57 177.5,62 Z" fill="black" />
<path d="M 180.8,175.2 Q 178,179.9 172.9,178.3 Q 168.2,175.6 169.8,170.4 Z" fill="black" />
<path d="M 180.8,175.2 Q 177.8,181.3 173,184.7 Q 167.3,188 161.2,188 L 161.2,176 Q 165.3,176 166.5,174.6 Q 168.8,173.3 169.8,170.4 Z" fill="black" />
<path d="M 161.2,182 L 161.2,176 147.2,176 147.2,179 Z" fill="black" />
<path d="M 133.7,82 L 133.7,148 122.7,153.5 122.7,76.5 Z" fill="black" />
<path d="M 128.2,82 L 156.9,82 156.9,86 128.2,86 Z" fill="black" />
<path d="M 162.9,84 L 162.9,142 150.9,148 150.9,84 Z" fill="black" />
<path d="M 150.9,82 L 156.9,77 167.9,86 162.9,90 150.9,84 Z" fill="black" />
<path d="M 128.2,132 L 156.9,132 156.9,136 128.2,136 Z" fill="black" />
</svg>
