<svg xmlns="http://www.w3.org/2000/svg" xmlns:xlink="http://www.w3.org/1999/xlink" version="1.1" baseProfile="full" viewBox="0 0 200 200" width="200" height="200">
<path d="M 49.8,17.5 Q 43,39.7 33.6,57.7 Q 23.2,77.8 10,92.5 L 8.5,91.4 Q 19.2,71.8 25.9,54.2 Q 34,33.7 38.2,14.4 Z" fill="black" />
<path d="M 38,15.3 L 49.8,17.5 38.7,12.7 Z" fill="black" />
<path d="M 49.8,17.5 L 52.2,20.2 46.6,21.8 Z" fill="black" />
<path d="M 44.9,26.7 Q 55.3,30.2 61.7,35.7 Q 68.9,41.5 72.8,48.8 L 61.9,53.7 Q 59.9,47.5 55.6,41.6 Q 50.3,35.2 43.9,28.2 Z" fill="black" />
<path d="M 72.8,48.8 Q 74.5,53.9 69.8,56.7 Q 64.6,58.3 61.9,53.7 Z" fill="black" />
<path d="M 27.1,69 L 67.9,69 67.9,73 27.1,73 Z" fill="black" />
<path d="M 67.9,69 L 47.9,71 57.9,60 Z" fill="black" />
<path d="M 14.3,101 L 72.2,101 72.2,105 14.3,105 Z" fill="black" />
<path d="M 72.2,101 L 52.2,103 62.2,92 Z" fill="black" />
<path d="M 49.6,69 L 49.6,166 37.6,166 37.6,69 Z" fill="black" />
<path d="M 17,120.2 Q 24.7,125.8 28.7,133.3 Q 33.2,141.4 34.3,150.5 L 22.4,151.4 Q 22.2,143.4 20.8,136.5 Q 18.7,128.8 15.6,121.3 Z" fill="black" />
<path d="M 34.3,150.5 Q 34.1,156 28.8,156.9 Q 23.3,156.7 22.4,151.4 Z" fill="black" />
<path d="M 70.4,121.7 Q 66.9,129.9 63.2,136.8 Q 59.1,144.9 53,151.3 L 51.3,150.6 Q 53.1,140.9 55.3,133.6 Q 57.9,124.9 59,118.1 Z" fill="black" />
<path d="M 58.7,119.1 L 70.4,121.7 59.5,116.6 Z" fill="black" />
<path d="M 70.4,121.7 L 72.7,124.5 67,125.9 Z" fill="black" />
<path d="M 12.2,170.9 Q 27.3,167.9 40.8,163.9 Q 55.8,159.5 70.4,156.1 L 71.1,157.8 Q 56.8,166.5 43.6,171.9 Q 28.3,177.9 15.4,182.5 Z" fill="black" />
<path d="M 15.4,182.5 L 12.2,170.9 10.3,171.4 Z" fill="black" />
<path d="M 15.4,182.5 L 18.1,184.8 20.4,178 Z" fill="black" />
<path d="M 107,31.8 Q 102.2,35.3 96.9,38.5 Q 91,41.9 83.7,43.7 L 82.7,42.2 Q 88,35.9 91.7,31.8 Q 96.2,27.3 98.3,23.5 Z" fill="black" />
<path d="M 97.6,24.3 L 107,31.8 98.6,23.2 Z" fill="black" />
<path d="M 107,31.8 L 107.8,35.3 102.1,34.1 Z" fill="black" />
<path d="M 89.2,39 L 89.2,151 77.2,151 77.2,37 Z" fill="black" />
<path d="M 89.2,39 L 92.2,41 87.2,44 Z" fill="black" />
<path d="M 83.2,73 L 105.4,73 105.4,77 83.2,77 Z" fill="black" />
<path d="M 105.4,73 L 89.4,75 97.4,66 Z" fill="black" />
<path d="M 70.7,147 L 192.3,147 192.3,151 70.7,151 Z" fill="black" />
<path d="M 192.3,147 L 180.3,149 186.3,141 Z" fill="black" />
<path d="M 181.6,39 L 181.6,151 169.6,151 169.6,39 Z" fill="black" />
<path d="M 169.6,37 L 175.6,32 186.6,41 181.6,45 169.6,39 Z" fill="black" />
<path d="M 157.6,37 L 175.6,37 175.6,41 157.6,41 Z" fill="black" />
<path d="M 157.6,73 L 175.6,73 175.6,77 157.6,77 Z" fill="black" />
<path d="M 83.2,112 L 106.1,112 106.1,116 83.2,116 Z" fill="black" />
<path d="M 106.1,112 L 90.1,114 98.1,105 Z" fill="black" />
<path d="M 157.6,112 L 175.6,112 175.6,116 157.6,116 Z" fill="black" />
<path d="M 116.7,26 L 116.7,151 106.7,151 106.7,21 Z" fill="black" />
<path d="M 111.7,26 L 151.3,26 151.3,30 111.7,30 Z" fill="black" />
<path d="M 156.3,28 L 156.3,151 146.3,151 146.3,28 Z" fill="black" />
<path d="M 146.3,26 L 151.3,21 161.3,30 156.3,33 146.3,28 Z" fill="black" />
<path d="M 118.6,56 L 144.4,56 144.4,60 118.6,60 Z" fill="black" />
<path d="M 144.4,56 L 128.4,58 136.4,49 Z" fill="black" />
<path d="M 128.2,79 L 128.2,132 120.2,136 120.2,75 Z" fill="black" />
<path d="M 124.2,79 L 138.8,79 138.8,83 124.2,83 Z" fill="black" />
<path d="M 142.8,81 L 142.8,126 134.8,130 134.8,81 Z" fill="black" />
<path d="M 134.8,79 L 138.8,74 147.8,83 142.8,85 134.8,81 Z" fill="black" />
<path d="M 124.2,116 L 138.8,116 138.8,120 124.2,120 Z" fill="black" />
<path d="M 114.1,163.7 Q 105.7,171.7 95.6,177.8 Q 84.7,184.9 71.8,188.7 L 71,187.2 Q 82.7,177.9 90.6,171 Q 99.7,162.7 105.2,155.6 Z" fill="black" />
<path d="M 104.5,156.4 L 114.1,163.7 105.5,155.3 Z" fill="black" />
<path d="M 114.1,163.7 L 114.9,167.2 109.2,166.1 Z" fill="black" />
<path d="M 149.1,157.6 Q 160.8,160.6 168.5,166.2 Q 177.5,172.6 183.2,180.1 L 173.1,186.7 Q 168.5,178.6 163,172.7 Q 155.8,165.6 148.3,159.2 Z" fill="black" />
<path d="M 183.2,180.1 Q 185.6,185 181.4,188.5 Q 176.6,190.9 173.1,186.7 Z" fill="black" />
</svg>
