<svg xmlns="http://www.w3.org/2000/svg" xmlns:xlink="http://www.w3.org/1999/xlink" version="1.1" baseProfile="full" viewBox="0 0 200 200" width="200" height="200">
<path d="M 54.1,17.6 Q 46.8,39.7 36.4,57.8 Q 25.2,77.8 10.9,92.5 L 9.4,91.4 Q 21.2,71.8 28.9,54 Q 37.8,33.7 42.6,14.2 Z" fill="black" />
<path d="M 42.3,15.2 L 54.1,17.6 43.1,12.6 Z" fill="black" />
<path d="M 54.1,17.6 L 56.4,20.4 50.8,21.8 Z" fill="black" />
<path d="M 49.1,26.7 Q 60.5,30.1 67.3,35.6 Q 75.2,41.5 79.4,48.6 L 68.6,53.9 Q 66.2,47.5 61.5,41.7 Q 55.5,35.1 48.3,28.2 Z" fill="black" />
<path d="M 79.4,48.6 Q 81.2,53.7 76.6,56.6 Q 71.5,58.5 68.6,53.9 Z" fill="black" />
<path d="M 29.8,69 L 74.5,69 74.5,73 29.8,73 Z" fill="black" />
<path d="M 74.5,69 L 54.5,71 64.5,60 Z" fill="black" />
<path d="M 15.7,101 L 79.2,101 79.2,105 15.7,105 Z" fill="black" />
<path d="M 79.2,101 L 55.2,103 67.2,91 Z" fill="black" />
<path d="M 53.8,69 L 53.8,166 41.8,166 41.8,69 Z" fill="black" />
<path d="M 18.6,120.1 Q 26.8,125.8 31,133.2 Q 35.9,141.4 37.1,150.5 L 25.1,151.4 Q 24.9,143.4 23.3,136.6 Q 20.8,128.8 17.2,121.3 Z" fill="black" />
<path d="M 37.1,150.5 Q 36.9,155.9 31.6,156.9 Q 26.2,156.8 25.1,151.4 Z" fill="black" />
<path d="M 76.7,121.8 Q 73,129.8 68.9,136.9 Q 64.1,144.9 58,151.4 L 56.5,150.5 Q 59.1,140.9 61.1,133.5 Q 64,124.8 65.4,117.9 Z" fill="black" />
<path d="M 65.1,118.9 L 76.7,121.8 65.9,116.5 Z" fill="black" />
<path d="M 76.7,121.8 L 78.9,124.7 73.2,125.9 Z" fill="black" />
<path d="M 13.6,170.9 Q 30,167.4 45,163.8 Q 61.8,159.5 77.3,156.1 L 78,157.8 Q 61.8,166.5 47.6,171.9 Q 31,178.4 16.5,182.5 Z" fill="black" />
<path d="M 16.5,182.5 L 13.6,170.9 11.7,171.4 Z" fill="black" />
<path d="M 16.5,182.5 L 19.2,185 21.6,178.2 Z" fill="black" />
<path d="M 94.9,124.9 Q 97.8,142.8 95.9,154.1 Q 94.3,166.8 88,174.1 L 79.5,165.6 Q 84.3,161.8 87.6,152.2 Q 90.8,140.8 93.1,125 Z" fill="black" />
<path d="M 88,174.1 Q 83.8,177.5 79.5,174.1 Q 76.1,169.8 79.5,165.6 Z" fill="black" />
<path d="M 118.9,126 L 118.9,166 106.9,166 106.9,124 Z" fill="black" />
<path d="M 118.9,126 L 121.9,128 116.9,131 Z" fill="black" />
<path d="M 106.9,166 Q 107.5,171.4 112.9,172 Q 118.3,171.4 118.9,166 Z" fill="black" />
<path d="M 118.9,166 Q 119.4,169.4 119.6,169.2 Q 119.8,170 122.9,170 L 122.9,182 Q 115.8,182 111.1,177.7 Q 106.4,172.4 106.9,166 Z" fill="black" />
<path d="M 122.9,170 Q 128.3,170.6 128.9,176 Q 128.3,181.4 122.9,182 Z" fill="black" />
<path d="M 122.9,170 L 165.5,170 165.5,182 122.9,182 Z" fill="black" />
<path d="M 165.5,170 Q 170.9,170.6 171.5,176 Q 170.9,181.4 165.5,182 Z" fill="black" />
<path d="M 165.5,171 L 167.5,145 165.5,145 159.5,171 Z" fill="black" />
<path d="M 127.8,118.8 Q 135.8,122.2 141.5,128.5 Q 147.5,135.5 151.3,144.1 L 140,148.1 Q 137.5,139.5 134.5,133.3 Q 130.8,126.2 126.7,120.3 Z" fill="black" />
<path d="M 151.3,144.1 Q 152.5,149.4 147.7,151.8 Q 142.4,153 140,148.1 Z" fill="black" />
<path d="M 167.5,126 Q 177.2,132.7 182.8,141.7 Q 188.7,151.9 191.7,162.9 L 179.9,165.1 Q 178.7,153.9 175.2,145.6 Q 171.2,135.7 166.2,127.3 Z" fill="black" />
<path d="M 191.7,162.9 Q 192,168.3 186.8,169.9 Q 181.4,170.3 179.9,165.1 Z" fill="black" />
<path d="M 122.6,17.6 Q 115.2,27.5 105.9,34.7 Q 95.4,42.6 83.4,47.2 L 82.5,45.6 Q 93.4,36.6 100.1,28.5 Q 108.2,19.5 112.5,11.1 Z" fill="black" />
<path d="M 111.9,12 L 122.6,17.6 113,10.3 Z" fill="black" />
<path d="M 122.6,17.6 L 124,20.9 118.2,20.7 Z" fill="black" />
<path d="M 149.9,11.9 Q 161.5,15.4 169.3,20.9 Q 178,26.8 184.2,34 L 174.5,41.1 Q 170,33.8 163.9,27.4 Q 156.5,20.4 149,13.5 Z" fill="black" />
<path d="M 184.2,34 Q 186.9,38.7 182.9,42.4 Q 178.2,45.1 174.5,41.1 Z" fill="black" />
<path d="M 141.8,32.6 Q 131.2,51.8 115.7,63.8 Q 98.9,77.2 78.1,83.3 L 77.4,81.7 Q 97.9,70.2 110.1,57.5 Q 124.2,42.8 131.1,27.2 Z" fill="black" />
<path d="M 130.6,28.1 L 141.8,32.6 131.6,26.1 Z" fill="black" />
<path d="M 141.8,32.6 L 143.6,35.7 137.8,36.1 Z" fill="black" />
<path d="M 136.2,32 Q 148.5,46.5 160.6,55.8 Q 174.2,66 189.4,71.2 L 184.5,83.5 Q 166.2,75 154.4,62.9 Q 140.5,49.5 134.7,32.9 Z" fill="black" />
<path d="M 184.5,83.5 L 189.4,71.2 195.9,73.9 Z" fill="black" />
<path d="M 112.3,75.7 L 112.3,112.5 100.3,118.5 100.3,69.7 Z" fill="black" />
<path d="M 106.3,75.7 L 163.6,75.7 163.6,79.7 106.3,79.7 Z" fill="black" />
<path d="M 169.6,77.7 L 169.6,112.5 157.6,118.5 157.6,77.7 Z" fill="black" />
<path d="M 157.6,75.7 L 163.6,70.7 174.6,79.7 169.6,83.7 157.6,77.7 Z" fill="black" />
<path d="M 106.3,108.5 L 163.6,108.5 163.6,112.5 106.3,112.5 Z" fill="black" />
</svg>
