<svg xmlns="http://www.w3.org/2000/svg" xmlns:xlink="http://www.w3.org/1999/xlink" version="1.1" baseProfile="full" viewBox="0 0 200 200" width="200" height="200">
<path d="M 78.9,77 Q 81.5,88.3 80.6,96 Q 80,104.3 76.4,109.7 L 67.5,101.7 Q 70,100.3 72.3,94.3 Q 74.5,87.3 77.1,77 Z" fill="black" />
<path d="M 76.4,109.7 Q 72.4,113.3 68,110.2 Q 64.3,106.2 67.5,101.7 Z" fill="black" />
<path d="M 77,84 L 183,84 183,88 77,88 Z" fill="black" />
<path d="M 188.7,87.7 Q 186,93.4 182.5,98.5 Q 178.5,104.4 172.7,109.4 L 171.2,108.5 Q 173.5,100.4 174.9,94.9 Q 177,88.4 177.2,84.2 Z" fill="black" />
<path d="M 177,84 L 183,79 194,88 189,91 177,96 Z" fill="black" />
<path d="M 102.4,96.5 L 102.4,159.8 90.4,165.8 90.4,90.5 Z" fill="black" />
<path d="M 96.4,96.5 L 163.6,96.5 163.6,100.5 96.4,100.5 Z" fill="black" />
<path d="M 169.6,98.5 L 169.6,156.8 157.6,162.8 157.6,98.5 Z" fill="black" />
<path d="M 157.6,96.5 L 163.6,91.5 174.6,100.5 169.6,104.5 157.6,98.5 Z" fill="black" />
<path d="M 96.4,113.7 L 163.6,113.7 163.6,117.7 96.4,117.7 Z" fill="black" />
<path d="M 96.4,131 L 163.6,131 163.6,135 96.4,135 Z" fill="black" />
<path d="M 96.4,148.8 L 163.6,148.8 163.6,152.8 96.4,152.8 Z" fill="black" />
<path d="M 124.4,154.3 Q 119,170 105.3,177.5 Q 90.1,185.9 68.5,187.4 L 68.2,185.6 Q 91.1,178.9 100.6,170.5 Q 112,161 112.7,151.5 Z" fill="black" />
<path d="M 112.4,152.5 L 124.4,154.3 113.1,149.7 Z" fill="black" />
<path d="M 124.4,154.3 L 126.8,156.9 121.3,158.7 Z" fill="black" />
<path d="M 147.2,148.8 L 147.2,170.5 135.2,170.5 135.2,148.8 Z" fill="black" />
<path d="M 135.2,170.5 Q 135.7,175.9 141.2,176.5 Q 146.6,175.9 147.2,170.5 Z" fill="black" />
<path d="M 147.2,170.5 Q 147.7,174 147.9,173.8 Q 148.1,174.5 151.2,174.5 L 151.2,186.5 Q 144.1,186.5 139.4,182.3 Q 134.7,177 135.2,170.5 Z" fill="black" />
<path d="M 151.2,175 Q 156.1,175.6 156.7,180.5 Q 156.1,185.5 151.2,186 Z" fill="black" />
<path d="M 151.2,175 L 187.4,175 187.4,186 151.2,186 Z" fill="black" />
<path d="M 187.4,175 Q 192.3,175.6 192.9,180.5 Q 192.3,185.5 187.4,186 Z" fill="black" />
<path d="M 187.4,176 L 189.4,154 187.4,154 181.9,176 Z" fill="black" />
<path d="M 102.7,23.8 Q 99.5,24.7 94.9,25.4 Q 90,26.4 83.3,26.8 L 82.6,25.1 Q 88,20.4 91.5,17.7 Q 95.5,14.7 97.4,13 Z" fill="black" />
<path d="M 96.5,13.5 L 102.7,23.8 105.7,22.3 Z" fill="black" />
<path d="M 105.7,22.3 L 105.9,25.5 99.8,23 Z" fill="black" />
<path d="M 89,24 L 89,87 77,87 77,22 Z" fill="black" />
<path d="M 89,24 L 92,26 87,29 Z" fill="black" />
<path d="M 83,41 L 103,41 103,45 83,45 Z" fill="black" />
<path d="M 103,41 L 91,43 97,35 Z" fill="black" />
<path d="M 83,62 L 103,62 103,66 83,66 Z" fill="black" />
<path d="M 103,62 L 91,64 97,56 Z" fill="black" />
<path d="M 156,21 L 173,21 173,25 156,25 Z" fill="black" />
<path d="M 179,23 L 179,87 167,87 167,23 Z" fill="black" />
<path d="M 167,21 L 173,16 184,25 179,29 167,23 Z" fill="black" />
<path d="M 156,41 L 173,41 173,45 156,45 Z" fill="black" />
<path d="M 156,62 L 173,62 173,66 156,66 Z" fill="black" />
<path d="M 115,16 L 115,87 105,87 105,11 Z" fill="black" />
<path d="M 110,16 L 149,16 149,20 110,20 Z" fill="black" />
<path d="M 154,18 L 154,87 144,87 144,18 Z" fill="black" />
<path d="M 144,16 L 149,11 159,20 154,23 144,18 Z" fill="black" />
<path d="M 116,32 L 142,32 142,36 116,36 Z" fill="black" />
<path d="M 142,32 L 126,34 134,25 Z" fill="black" />
<path d="M 126,45 L 126,69 118,73 118,41 Z" fill="black" />
<path d="M 122,45 L 137,45 137,49 122,49 Z" fill="black" />
<path d="M 141,47 L 141,69 133,73 133,47 Z" fill="black" />
<path d="M 133,45 L 137,40 146,49 141,51 133,47 Z" fill="black" />
<path d="M 122,65 L 137,65 137,69 122,69 Z" fill="black" />
<path d="M 46.5,17.4 Q 40,39.7 31.4,57.6 Q 22,77.3 9.3,92.4 L 7.8,91.5 Q 17,72.3 23.5,54.3 Q 31,33.7 34.8,14.5 Z" fill="black" />
<path d="M 34.6,15.5 L 46.5,17.4 35.2,12.8 Z" fill="black" />
<path d="M 46.5,17.4 L 48.9,20 43.3,21.7 Z" fill="black" />
<path d="M 41.5,26.8 Q 51.3,30.2 57.3,35.8 Q 63.9,42 67.7,48.9 L 56.6,53.5 Q 54.9,47 51,41.5 Q 46.3,35.2 40.5,28.3 Z" fill="black" />
<path d="M 67.7,48.9 Q 69.2,54.1 64.5,56.7 Q 59.2,58.2 56.6,53.5 Z" fill="black" />
<path d="M 25,69 L 62.7,69 62.7,73 25,73 Z" fill="black" />
<path d="M 62.7,69 L 42.7,71 52.7,60 Z" fill="black" />
<path d="M 13.2,101 L 66.6,101 66.6,105 13.2,105 Z" fill="black" />
<path d="M 66.6,101 L 46.6,103 56.6,92 Z" fill="black" />
<path d="M 46.2,69 L 46.2,166 34.2,166 34.2,69 Z" fill="black" />
<path d="M 15.8,120.2 Q 23,125.8 26.8,133.4 Q 31.1,141.9 32.1,150.6 L 20.2,151.4 Q 20.1,142.9 18.8,136.4 Q 17,128.8 14.4,121.3 Z" fill="black" />
<path d="M 32.1,150.6 Q 31.9,156 26.5,156.9 Q 21.1,156.7 20.2,151.4 Z" fill="black" />
<path d="M 65.5,121.6 Q 62.6,129.4 58.6,136.7 Q 54.8,144.9 48.9,151.3 L 47.3,150.6 Q 48.8,140.9 50.7,133.7 Q 52.6,125.4 54,118.2 Z" fill="black" />
<path d="M 53.7,119.2 L 65.5,121.6 54.4,116.6 Z" fill="black" />
<path d="M 65.5,121.6 L 67.8,124.3 62.2,125.8 Z" fill="black" />
<path d="M 11.1,170.9 Q 24.7,167.8 37.5,163.9 Q 51.5,159.5 64.9,156.1 L 65.7,157.8 Q 52.5,166.5 40.5,171.9 Q 26.7,177.8 14.5,182.4 Z" fill="black" />
<path d="M 14.5,182.4 L 11.1,170.9 9.2,171.5 Z" fill="black" />
<path d="M 14.5,182.4 L 17.3,184.7 19.4,177.8 Z" fill="black" />
</svg>
