<svg xmlns="http://www.w3.org/2000/svg" xmlns:xlink="http://www.w3.org/1999/xlink" version="1.1" baseProfile="full" viewBox="0 0 200 200" width="200" height="200">
<path d="M 54.1,17.6 Q 46.8,39.7 36.4,57.8 Q 25.2,77.8 10.9,92.5 L 9.4,91.4 Q 21.2,71.8 28.9,54 Q 37.8,33.7 42.6,14.2 Z" fill="black" />
<path d="M 42.3,15.2 L 54.1,17.6 43.1,12.6 Z" fill="black" />
<path d="M 54.1,17.6 L 56.4,20.4 50.8,21.8 Z" fill="black" />
<path d="M 49.1,26.7 Q 60.5,30.1 67.3,35.6 Q 75.2,41.5 79.4,48.6 L 68.6,53.9 Q 66.2,47.5 61.5,41.7 Q 55.5,35.1 48.3,28.2 Z" fill="black" />
<path d="M 79.4,48.6 Q 81.2,53.7 76.6,56.6 Q 71.5,58.5 68.6,53.9 Z" fill="black" />
<path d="M 29.8,69 L 74.5,69 74.5,73 29.8,73 Z" fill="black" />
<path d="M 74.5,69 L 54.5,71 64.5,60 Z" fill="black" />
<path d="M 15.7,101 L 79.2,101 79.2,105 15.7,105 Z" fill="black" />
<path d="M 79.2,101 L 59.2,103 69.2,92 Z" fill="black" />
<path d="M 53.8,69 L 53.8,166 41.8,166 41.8,69 Z" fill="black" />
<path d="M 18.6,120.1 Q 26.8,125.8 31,133.2 Q 35.9,141.4 37.1,150.5 L 25.1,151.4 Q 24.9,143.4 23.3,136.6 Q 20.8,128.8 17.2,121.3 Z" fill="black" />
<path d="M 37.1,150.5 Q 36.9,155.9 31.6,156.9 Q 26.2,156.8 25.1,151.4 Z" fill="black" />
<path d="M 76.7,121.8 Q 73,129.8 68.9,136.9 Q 64.1,144.9 58,151.4 L 56.5,150.5 Q 59.1,140.9 61.1,133.5 Q 64,124.8 65.4,117.9 Z" fill="black" />
<path d="M 65.1,118.9 L 76.7,121.8 65.9,116.5 Z" fill="black" />
<path d="M 76.7,121.8 L 78.9,124.7 73.2,125.9 Z" fill="black" />
<path d="M 13.6,170.9 Q 30,167.4 45,163.8 Q 61.8,159.5 77.3,156.1 L 78,157.8 Q 61.8,166.5 47.6,171.9 Q 31,178.4 16.5,182.5 Z" fill="black" />
<path d="M 16.5,182.5 L 13.6,170.9 11.7,171.4 Z" fill="black" />
<path d="M 16.5,182.5 L 19.2,185 21.6,178.2 Z" fill="black" />
<path d="M 137,17 L 137,44 125,44 125,15 Z" fill="black" />
<path d="M 137,17 L 140,19 135,22 Z" fill="black" />
<path d="M 80,40 L 181,40 181,44 80,44 Z" fill="black" />
<path d="M 181,40 L 157,42 169,30 Z" fill="black" />
<path d="M 99.3,46 Q 107.7,50.7 112.6,59 Q 118.2,67.9 120.3,78 L 108.5,80 Q 107.2,69.9 104.9,62.7 Q 101.7,54.7 98,47.3 Z" fill="black" />
<path d="M 120.3,78 Q 120.7,83.4 115.5,84.9 Q 110,85.2 108.5,80 Z" fill="black" />
<path d="M 165.3,50.8 Q 161.8,58.9 155.9,68.1 Q 149.5,78.8 139.7,90.4 L 138.2,89.5 Q 144.5,73.8 148.3,64.3 Q 152.8,52.9 153.9,47 Z" fill="black" />
<path d="M 153.6,48 L 165.3,50.8 154.4,45.5 Z" fill="black" />
<path d="M 165.3,50.8 L 167.5,53.6 161.8,54.9 Z" fill="black" />
<path d="M 76,88 L 186,88 186,92 76,92 Z" fill="black" />
<path d="M 186,88 L 166,90 176,79 Z" fill="black" />
<path d="M 104,109 L 104,185 92,191 92,103 Z" fill="black" />
<path d="M 98,109 L 164,109 164,113 98,113 Z" fill="black" />
<path d="M 170,111 L 170,182 158,188 158,111 Z" fill="black" />
<path d="M 158,109 L 164,104 175,113 170,117 158,111 Z" fill="black" />
<path d="M 98,140 L 164,140 164,144 98,144 Z" fill="black" />
<path d="M 98,174 L 164,174 164,178 98,178 Z" fill="black" />
</svg>
