<svg xmlns="http://www.w3.org/2000/svg" xmlns:xlink="http://www.w3.org/1999/xlink" version="1.1" baseProfile="full" viewBox="0 0 200 200" width="200" height="200">
<path d="M 31,26 L 31,112 19,118 19,20 Z" fill="black" />
<path d="M 25,26 L 85.9,26 85.9,30 25,30 Z" fill="black" />
<path d="M 85.9,26 L 61.9,28 73.9,16 Z" fill="black" />
<path d="M 59.7,26 L 59.7,112 47.7,112 47.7,26 Z" fill="black" />
<path d="M 25,54 L 85,54 85,58 25,58 Z" fill="black" />
<path d="M 85,54 L 61,56 73,44 Z" fill="black" />
<path d="M 25,81 L 85,81 85,85 25,85 Z" fill="black" />
<path d="M 85,81 L 61,83 73,71 Z" fill="black" />
<path d="M 25,108 L 78.7,108 78.7,112 25,112 Z" fill="black" />
<path d="M 84.7,109.7 Q 85.6,134.2 83.4,149.8 Q 80.9,167 75.4,177.2 L 65,171.3 Q 69.9,163 71.5,148.2 Q 73.6,131.2 72.7,110.2 Z" fill="black" />
<path d="M 72.7,108 L 78.7,103 89.7,112 84.7,115 72.7,120 Z" fill="black" />
<path d="M 75.4,177.2 Q 72.2,181.6 67.2,179.5 Q 62.8,176.3 65,171.3 Z" fill="black" />
<path d="M 75.4,177.2 Q 72.3,183.1 67,186 Q 61.3,189 55.3,189 L 55.3,177 Q 59.3,177 61,175.6 Q 63.3,174.1 65,171.3 Z" fill="black" />
<path d="M 55.3,183 L 55.3,177 39.3,177 39.3,180 Z" fill="black" />
<path d="M 25.1,124.9 Q 29,142.8 28,154.3 Q 27.1,166.8 21.6,174 L 12.9,165.6 Q 17.1,162.8 19.6,153 Q 22,141.8 23.3,125 Z" fill="black" />
<path d="M 21.6,174 Q 17.4,177.4 13.1,174.1 Q 9.6,169.9 12.9,165.6 Z" fill="black" />
<path d="M 34.2,127.6 Q 40.3,136.8 42.2,145.1 Q 44.6,154.4 43.9,161.9 L 32.1,160.1 Q 33.6,153.4 33.8,146.3 Q 33.3,137.8 32.6,128.2 Z" fill="black" />
<path d="M 43.9,161.9 Q 42.5,167.2 37.1,166.9 Q 31.8,165.5 32.1,160.1 Z" fill="black" />
<path d="M 43.3,124.3 Q 50.2,129.8 53.7,136.7 Q 57.7,143.9 58.6,151.6 L 46.6,152.3 Q 46.7,145.9 45.7,139.6 Q 44.2,132.8 41.9,125.3 Z" fill="black" />
<path d="M 58.6,151.6 Q 58.3,157.1 52.9,157.9 Q 47.5,157.6 46.6,152.3 Z" fill="black" />
<path d="M 51.4,117.8 Q 58.7,120.2 63.2,125.5 Q 68.1,130.9 70.4,137.6 L 58.8,140.4 Q 58.1,134.9 56.2,130.2 Q 53.7,125.2 50.3,119.3 Z" fill="black" />
<path d="M 70.4,137.6 Q 71.1,143 66,144.9 Q 60.6,145.5 58.8,140.4 Z" fill="black" />
<path d="M 142.6,19.6 L 142.6,50.3 130.6,50.3 130.6,17.6 Z" fill="black" />
<path d="M 142.6,19.6 L 145.6,21.6 140.6,24.6 Z" fill="black" />
<path d="M 96.8,38.6 Q 100.2,50.3 99.7,58.9 Q 99.3,68.6 96.1,75.3 L 85.8,69.1 Q 89.3,64.6 91.3,57.7 Q 93.2,49.3 95,38.8 Z" fill="black" />
<path d="M 96.1,75.3 Q 92.8,79.6 87.9,77.3 Q 83.6,74 85.8,69.1 Z" fill="black" />
<path d="M 94.7,46.3 L 181.5,46.3 181.5,50.3 94.7,50.3 Z" fill="black" />
<path d="M 187.2,50.3 Q 184.6,54.9 181.2,60.8 Q 177.6,68 171.3,75.9 L 169.6,75.1 Q 171.6,64 173.4,57.6 Q 175.6,49.9 175.8,46.3 Z" fill="black" />
<path d="M 175.5,46.3 L 181.5,41.3 192.5,50.3 187.5,53.3 175.5,58.3 Z" fill="black" />
<path d="M 88.4,95 L 187.4,95 187.4,99 88.4,99 Z" fill="black" />
<path d="M 187.4,95 L 163.4,97 175.4,85 Z" fill="black" />
<path d="M 142.3,60 L 142.3,182 130.3,188 130.3,58 Z" fill="black" />
<path d="M 142.3,60 L 145.3,62 140.3,65 Z" fill="black" />
<path d="M 139.6,98.7 Q 130.6,124.7 117.9,143.7 Q 103.7,164.8 85.3,177.6 L 84.1,176.3 Q 100.7,157.8 110.7,139.2 Q 122.6,117.7 128,95.2 Z" fill="black" />
<path d="M 141.3,96.6 Q 151.8,116.7 162.9,132.4 Q 175.4,149.8 189.4,162.2 L 180.2,171.7 Q 164.4,154.8 155,137.4 Q 143.8,117.7 139.6,97.2 Z" fill="black" />
<path d="M 180.2,171.7 L 189.4,162.2 191,163.7 Z" fill="black" />
</svg>
