<svg xmlns="http://www.w3.org/2000/svg" xmlns:xlink="http://www.w3.org/1999/xlink" version="1.1" baseProfile="full" viewBox="0 0 200 200" width="200" height="200">
<path d="M 42.4,18.7 Q 35.7,36.8 28.3,50.2 Q 20.2,65.3 10.4,75.5 L 8.9,74.4 Q 15.2,60.3 20.6,46.6 Q 26.7,30.8 31,15.1 Z" fill="black" />
<path d="M 30.7,16 L 42.4,18.7 31.5,13.5 Z" fill="black" />
<path d="M 42.4,18.7 L 44.6,21.6 38.9,22.9 Z" fill="black" />
<path d="M 29.7,33 L 61.9,33 61.9,37 29.7,37 Z" fill="black" />
<path d="M 67.7,36.6 Q 64.8,43.4 59.3,50.2 Q 53.1,57.9 44.1,65.5 L 42.7,64.4 Q 49.1,52.9 52.1,45.7 Q 55.8,37.4 56.2,33.3 Z" fill="black" />
<path d="M 55.9,33 L 61.9,28 72.9,37 67.9,40 55.9,45 Z" fill="black" />
<path d="M 29.6,64 L 29.6,132 18.6,137.5 18.6,58.5 Z" fill="black" />
<path d="M 24.1,64 L 70.8,64 70.8,68 24.1,68 Z" fill="black" />
<path d="M 76.3,66 L 76.3,132 65.3,137.5 65.3,66 Z" fill="black" />
<path d="M 65.3,64 L 70.8,59 81.3,68 76.3,71.5 65.3,66 Z" fill="black" />
<path d="M 52.4,64 L 52.4,132 42.4,132 42.4,64 Z" fill="black" />
<path d="M 24.1,96 L 70.8,96 70.8,100 24.1,100 Z" fill="black" />
<path d="M 24.1,128 L 70.8,128 70.8,132 24.1,132 Z" fill="black" />
<path d="M 23.4,144 Q 26,158.3 24.6,168.2 Q 23.5,179.1 19.5,186.7 L 9.4,180.2 Q 13.5,175.1 16.3,166.5 Q 19,156.3 21.6,144 Z" fill="black" />
<path d="M 19.5,186.7 Q 16.1,190.9 11.2,188.5 Q 7,185 9.4,180.2 Z" fill="black" />
<path d="M 34.2,146.5 Q 40.2,154.8 42.3,162.2 Q 45.1,170.4 44.9,177.6 L 32.9,176.4 Q 34.1,170.4 34,163.7 Q 33.2,155.8 32.5,147.2 Z" fill="black" />
<path d="M 44.9,177.6 Q 43.7,182.9 38.3,182.9 Q 33,181.8 32.9,176.4 Z" fill="black" />
<path d="M 47.2,146.1 Q 54.8,150.3 58.8,157.1 Q 63.1,164.4 65.1,172.2 L 53.2,173.8 Q 53.1,166.4 51.1,160.7 Q 48.8,154.3 45.9,147.3 Z" fill="black" />
<path d="M 65.1,172.2 Q 65.2,177.6 59.9,178.9 Q 54.5,179 53.2,173.8 Z" fill="black" />
<path d="M 63.3,143.8 Q 70.8,146.2 75.8,151.9 Q 81.3,158 84.4,165.2 L 73,169 Q 71.3,162 68.9,156.8 Q 65.8,151.2 62.2,145.3 Z" fill="black" />
<path d="M 84.4,165.2 Q 85.5,170.5 80.6,172.8 Q 75.3,173.9 73,169 Z" fill="black" />
<path d="M 111.3,17.9 L 111.3,58.4 99.3,64.4 99.3,11.9 Z" fill="black" />
<path d="M 105.3,17.9 L 168.6,17.9 168.6,21.9 105.3,21.9 Z" fill="black" />
<path d="M 174.6,19.9 L 174.6,64.4 162.6,70.4 162.6,19.9 Z" fill="black" />
<path d="M 162.6,17.9 L 168.6,12.9 179.6,21.9 174.6,25.9 162.6,19.9 Z" fill="black" />
<path d="M 105.3,35.6 L 168.6,35.6 168.6,39.6 105.3,39.6 Z" fill="black" />
<path d="M 105.3,54.4 L 168.6,54.4 168.6,58.4 105.3,58.4 Z" fill="black" />
<path d="M 112.1,66.7 Q 108.1,75.2 104,82.7 Q 99.6,91.2 93.1,98.2 L 91.5,97.4 Q 93.6,87.2 96.2,79.4 Q 99.1,70.2 100.7,62.8 Z" fill="black" />
<path d="M 100.4,63.7 L 112.1,66.7 101.2,61.3 Z" fill="black" />
<path d="M 112.1,66.7 L 114.2,69.6 108.5,70.8 Z" fill="black" />
<path d="M 83.5,94.7 Q 93.2,94.1 103.4,93.1 Q 114.3,91.4 126.1,90.3 L 126.6,92 Q 115.3,98.4 105.3,101.4 Q 94.2,105.1 84.8,106.6 Z" fill="black" />
<path d="M 84.8,106.6 L 83.5,94.7 81.5,94.9 Z" fill="black" />
<path d="M 84.8,106.6 L 87.1,109.4 90.4,103 Z" fill="black" />
<path d="M 115.9,73.6 Q 123.1,77.6 127.7,84.7 Q 132.8,92.2 136.4,100.5 L 125,104.2 Q 122.8,95.2 120.3,88.8 Q 117.1,81.6 114.6,74.8 Z" fill="black" />
<path d="M 136.4,100.5 Q 137.5,105.8 132.5,108.1 Q 127.2,109.2 125,104.2 Z" fill="black" />
<path d="M 103.8,107.2 Q 101.3,119.6 97,128 Q 92.4,137.3 85.7,142.2 L 84.3,141.1 Q 87.4,133.3 89.1,125.1 Q 91.3,115.6 91.9,105.6 Z" fill="black" />
<path d="M 91.7,106.6 L 103.8,107.2 92.1,103.5 Z" fill="black" />
<path d="M 103.8,107.2 L 106.5,109.6 101.1,111.9 Z" fill="black" />
<path d="M 94.7,120 L 134.3,120 134.3,124 94.7,124 Z" fill="black" />
<path d="M 134.3,120 L 114.3,122 124.3,111 Z" fill="black" />
<path d="M 82.4,146.2 L 136.2,146.2 136.2,150.2 82.4,150.2 Z" fill="black" />
<path d="M 136.2,146.2 L 120.2,148.2 128.2,139.2 Z" fill="black" />
<path d="M 116.3,120 L 116.3,144.7 104.3,144.7 104.3,120 Z" fill="black" />
<path d="M 104.3,144.7 Q 104.9,150.1 110.3,150.7 Q 115.7,150.1 116.3,144.7 Z" fill="black" />
<path d="M 116.3,144.7 Q 115.3,163.6 107.3,175.5 Q 98.1,188.4 84.1,191.8 L 83.3,190.1 Q 96.1,181.4 99.9,171.2 Q 105.3,159.6 104.3,144.7 Z" fill="black" />
<path d="M 111,156.7 Q 118.9,159.8 124.1,164.5 Q 129.9,169.2 133.5,174.3 L 123,180.2 Q 120.9,175.2 117.8,170.1 Q 113.9,164.8 109.8,158.1 Z" fill="black" />
<path d="M 133.5,174.3 Q 135.6,179.3 131.2,182.5 Q 126.2,184.6 123,180.2 Z" fill="black" />
<path d="M 162.1,65.8 Q 158.6,81.8 152.4,94.1 Q 145.9,108 136.5,117.6 L 135,116.6 Q 140.9,103 144.5,91 Q 148.6,76.8 150.2,63.7 Z" fill="black" />
<path d="M 150.1,64.7 L 162.1,65.8 150.6,61.8 Z" fill="black" />
<path d="M 162.1,65.8 L 164.7,68.3 159.2,70.4 Z" fill="black" />
<path d="M 146.9,95.1 L 185.2,95.1 185.2,99.1 146.9,99.1 Z" fill="black" />
<path d="M 190.6,99.6 Q 187.6,104.5 183.3,109.8 Q 178.6,115.7 171.8,122 L 170.3,121 Q 173.6,111.7 175.9,105.5 Q 178.6,98.5 179.7,94.6 Z" fill="black" />
<path d="M 179.2,95.1 L 185.2,90.1 196.2,99.1 191.2,102.1 179.2,107.1 Z" fill="black" />
<path d="M 165.3,105.5 Q 164.3,141.9 154.2,162.8 Q 143,186 123.7,191.9 L 122.9,190.3 Q 140,179 146.4,159.5 Q 154.3,136.9 153.3,105.5 Z" fill="black" />
<path d="M 153.3,106.5 L 165.3,105.5 153.3,103.1 Z" fill="black" />
<path d="M 165.3,105.5 L 168.3,107.5 163.3,110.5 Z" fill="black" />
<path d="M 162,123.2 Q 165.6,144.1 172.7,157.2 Q 180.5,171.3 192.2,179.2 L 184.1,189.6 Q 169.5,177.3 164.1,161 Q 157.6,143.1 160.2,123.3 Z" fill="black" />
<path d="M 184.1,189.6 L 192.2,179.2 195,181.4 Z" fill="black" />
</svg>
