<svg xmlns="http://www.w3.org/2000/svg" xmlns:xlink="http://www.w3.org/1999/xlink" version="1.1" baseProfile="full" viewBox="0 0 200 200" width="200" height="200">
<path d="M 104,9.9 L 104,47.5 92,47.5 92,7.9 Z" fill="black" />
<path d="M 104,9.9 L 107,11.9 102,14.9 Z" fill="black" />
<path d="M 98,24.9 L 170,24.9 170,28.9 98,28.9 Z" fill="black" />
<path d="M 170,24.9 L 146,26.9 158,14.9 Z" fill="black" />
<path d="M 41,43.5 L 41,122.9 29,128.9 29,37.5 Z" fill="black" />
<path d="M 35,43.5 L 165,43.5 165,47.5 35,47.5 Z" fill="black" />
<path d="M 171,45.5 L 171,121.9 159,127.9 159,45.5 Z" fill="black" />
<path d="M 159,43.5 L 165,38.5 176,47.5 171,51.5 159,45.5 Z" fill="black" />
<path d="M 35,115.9 L 165,115.9 165,119.9 35,119.9 Z" fill="black" />
<path d="M 139.4,58.8 Q 117.8,77.9 95.6,91.3 Q 71.2,105.8 46.3,113.9 L 45.6,112.3 Q 71.2,98.8 90.9,84.2 Q 113.8,67.9 131.1,50.1 Z" fill="black" />
<path d="M 130.4,50.8 L 139.4,58.8 131.3,49.9 Z" fill="black" />
<path d="M 139.4,58.8 L 140,62.4 134.4,60.8 Z" fill="black" />
<path d="M 51.2,57.4 Q 81.1,66.5 101.9,77.3 Q 125.1,89.2 140.5,101.1 L 132.8,110.3 Q 117.1,96.2 97.8,84.7 Q 75.1,71.5 50.6,59.1 Z" fill="black" />
<path d="M 140.5,101.1 Q 144.3,105 141.3,109.5 Q 137.3,113.3 132.8,110.3 Z" fill="black" />
<path d="M 82.1,51.8 Q 91.4,51.1 97,53.8 Q 103.8,56.3 107,61.6 L 96.2,66.8 Q 95.8,64.3 92.7,61.1 Q 88.4,58.1 81.7,53.5 Z" fill="black" />
<path d="M 107,61.6 Q 108.9,66.7 104.3,69.6 Q 99.1,71.4 96.2,66.8 Z" fill="black" />
<path d="M 124.1,72.4 Q 132.9,71.4 138.5,74.2 Q 145.2,76.7 148.8,82.1 L 138.2,87.8 Q 137.2,84.7 134.2,81.5 Q 129.9,78.4 123.7,74.2 Z" fill="black" />
<path d="M 148.8,82.1 Q 150.8,87.1 146.4,90.2 Q 141.4,92.3 138.2,87.8 Z" fill="black" />
<path d="M 50.2,71.8 Q 58.4,71.6 63.9,74.1 Q 70.2,77.2 73.8,82.1 L 63.2,87.8 Q 62.2,84.2 59.2,81.2 Q 55.4,77.6 49.7,73.5 Z" fill="black" />
<path d="M 73.8,82.1 Q 75.8,87.1 71.4,90.2 Q 66.4,92.3 63.2,87.8 Z" fill="black" />
<path d="M 85.1,95.2 Q 92.9,93.8 98.9,96.6 Q 105.2,99.6 108.9,104.9 L 98.2,110.4 Q 97.2,106.6 94.4,103.8 Q 90.9,100.8 84.8,96.9 Z" fill="black" />
<path d="M 108.9,104.9 Q 110.9,110 106.3,113 Q 101.2,114.9 98.2,110.4 Z" fill="black" />
<path d="M 18,138.2 L 182,138.2 182,142.2 18,142.2 Z" fill="black" />
<path d="M 182,138.2 L 158,140.2 170,128.2 Z" fill="black" />
<path d="M 106,121 L 106,187.2 94,193.2 94,119 Z" fill="black" />
<path d="M 106,121 L 109,123 104,126 Z" fill="black" />
<path d="M 98.4,144.2 Q 82.6,160.3 62.3,170.6 Q 39.7,181.8 13.2,186.9 L 12.7,185.2 Q 40.7,174.8 58.1,163.2 Q 78.6,150.3 89.5,136.2 Z" fill="black" />
<path d="M 106.3,140.2 Q 123.7,151.1 141.1,159.5 Q 160.7,168.5 181.9,174.2 L 178,186.8 Q 153.7,178.5 136.7,167.7 Q 116.7,156.1 105.1,141.5 Z" fill="black" />
<path d="M 178,186.8 L 181.9,174.2 189.6,176.6 Z" fill="black" />
</svg>
