<?xml version="1.0" encoding="utf-8"?>
<!-- Generator: Adobe Illustrator 16.0.0, SVG Export Plug-In . SVG Version: 6.00 Build 0)  -->
<!DOCTYPE svg PUBLIC "-//W3C//DTD SVG 1.1//EN" "http://www.w3.org/Graphics/SVG/1.1/DTD/svg11.dtd">
<svg version="1.1" id="Layer_1" xmlns="http://www.w3.org/2000/svg" xmlns:xlink="http://www.w3.org/1999/xlink" x="0px" y="0px"
	 width="2400px" height="2400px" viewBox="0 0 2400 2400" enable-background="new 0 0 2400 2400" xml:space="preserve">
<g>
	<path fill="none" stroke="#000000" stroke-width="30" stroke-linecap="round" stroke-linejoin="round" stroke-miterlimit="10" d="
		M1167.764,537.654c38.804-62.143,147.789-74.504,228.285-47.84c80.492,26.665,105.659-87.755,262.211-49.336
		c156.553,38.417,12.695,116.526,5.324,120.628c0,0,96.344-42.02,141.747-40.245c0,0,172.851-105.826,212.599,24.614
		c0,0,79.051,79.605-89.254,117.246c0,0,131.402-5.796,115.928,108.196c0,0-46.191,17.146-99.629,4.396
		c-53.441-12.752-80.827-34.205-125.896-28.441c-45.07,5.767-69.869,42.953-130.145,46.449
		c-60.276,3.499-183.546-22.468-229.95,10.145c-58.612,41.194-88.36,113.826-4.414,156.745
		c100.466,51.368,177.779,14.865,237.764,4.664c59.979-10.201,184.884-13.145,261.28,6.304"/>
	<path fill="none" stroke="#000000" stroke-width="30" stroke-linecap="round" stroke-linejoin="round" stroke-miterlimit="10" d="
		M2063.605,724.755c105.385-8.425,227.785-59.147,223.464-157.159c-4.325-98.012-155.773-106.438-163.867-204.281
		c-8.094-97.846,126.062-224.626,217.032-217.309"/>
	<path fill="none" stroke="#000000" stroke-width="30" stroke-linecap="round" stroke-linejoin="round" stroke-miterlimit="10" d="
		M2021.362,794.605c83.434,7.649,288.657,36.367,272.191,176.842c-16.465,140.473-243.695,40.965-202.012,386.609"/>
	<path fill="none" stroke="#000000" stroke-width="30" stroke-linecap="round" stroke-linejoin="round" stroke-miterlimit="10" d="
		M1294.211,664.271c60.147-6.43,101.113-19.568,119.299-35.479c18.184-15.909,79.273-86.59,120.738-88.419
		c41.469-1.829,84.763,52.171,129.336,20.733"/>
	<path fill="none" stroke="#000000" stroke-width="30" stroke-linecap="round" stroke-linejoin="round" stroke-miterlimit="10" d="
		M1478.314,599.495c19.503,56.843,65.781,49.975,84.464,45.375c18.683-4.601,34.725-24.196,41.824-50.945"/>
	<path fill="none" stroke="#000000" stroke-width="30" stroke-linecap="round" stroke-linejoin="round" stroke-miterlimit="10" d="
		M1196.264,479.373c-89.202-33.465-182.735-195.632-189-252.012c-6.265-56.379-3.273-113.379-33.752-123.187
		c-53.64-17.258-62.253,41.529-32.771,156.337c22.602,88.018,103.493,213.866,143.528,223.801"/>
	<path fill="none" stroke="#000000" stroke-width="30" stroke-linecap="round" stroke-linejoin="round" stroke-miterlimit="10" d="
		M940.587,525.015C823.673,443.302,784.516,241.7,785.458,177.45s73.377-106.16,78.199,3.16s97.353,293.662,147.038,306.948"/>
	<path fill="none" stroke="#000000" stroke-width="30" stroke-linecap="round" stroke-linejoin="round" stroke-miterlimit="10" d="
		M1824.51,527.568c-16.352,57.377-70.568,112.646-50.39,141.97c20.179,29.327,95.905,33.541,113.089-4.988
		c17.186-38.526,24.906-34.784,47.6-34.05"/>
	<path fill="none" stroke="#000000" stroke-width="30" stroke-linecap="round" stroke-linejoin="round" stroke-miterlimit="10" d="
		M1243.857,635.843c-65.896-38.206-158.807-3.893-228.322-38.596c0,0,25.237,55.543,77.063,75.917
		c51.824,20.375,141.464-2.463,153.438,12.117"/>
	<path fill="none" stroke="#000000" stroke-width="30" stroke-linecap="round" stroke-linejoin="round" stroke-miterlimit="10" d="
		M1175.079,703.519c-33.096,20.345-43.932,28.707-79.896,28.24c0,0,98.301,46.488,135.331,29.747c0,0-116.805,92.023-151.562,74.671
		c0,0,86.806,45.271,134.456,31.837c0,0-32.787,46.771-71.148,33.355c-38.36-13.416-60.646-4.878-91.967-29.936
		c0,0,83.893,103.767,117.782,101.416s108.524-22.815,139.478-6.153"/>
	<path fill="none" stroke="#000000" stroke-width="30" stroke-linecap="round" stroke-linejoin="round" stroke-miterlimit="10" d="
		M1218.729,988.644c-30.347,16.447-36.722,43.166-70.649,44.663c0,0,98.844,14.524,143.248-6.318"/>
	<path fill="none" stroke="#000000" stroke-width="30" stroke-linecap="round" stroke-linejoin="round" stroke-miterlimit="10" d="
		M1367.091,1032.039c-56.584,1.657-110.8,56.929-121.11,80.045c0,0,152.892-44.517,174.845-60.593c0,0-35.204,58.208-56.989,78.054
		c0,0,85.742-25.616,110.946-53.581c25.206-27.965,53.151-36.752,86.136-38.207"/>
	<path fill="none" stroke="#000000" stroke-width="30" stroke-linecap="round" stroke-linejoin="round" stroke-miterlimit="10" d="
		M1408.437,1188.009c38.664-54.581,158.474-78.751,218.283-92.722"/>
	<path fill="none" stroke="#000000" stroke-width="30" stroke-linecap="round" stroke-linejoin="round" stroke-miterlimit="10" d="
		M1725.207,1016.24c-70.997,17.401-118.617,136.59-182.534,143.187c0,0,112.591-16.295,144.356-66.8
		c0,0-81.383,124.452-43.631,209.658c0,0,84.375-56.602,89.919-102.168c5.544-45.567,33.51-181.098,52.179-186.535"/>
	<path fill="none" stroke="#000000" stroke-width="30" stroke-linecap="round" stroke-linejoin="round" stroke-miterlimit="10" d="
		M1893.213,1057.506c-27.515,61.231-53.405,73.705-85.668,112.897c-32.262,39.192-63.695,97.234-52.332,183.604
		c0,0,13.94-110.204,121.764-150.576c111.479-41.742,98.721-199.465,54.461-221.257"/>
	<path fill="none" stroke="#000000" stroke-width="30" stroke-linecap="round" stroke-linejoin="round" stroke-miterlimit="10" d="
		M1851.515,1040.046c-44.356,35.949-54.132,71.213-74.854,115.143"/>
	<path fill="none" stroke="#000000" stroke-width="30" stroke-linecap="round" stroke-linejoin="round" stroke-miterlimit="10" d="
		M1568.32,606.228c0.595,13.532-9.89,24.987-23.422,25.584c-13.533,0.598-24.984-9.891-25.582-23.421
		c-0.597-13.534,9.888-24.989,23.42-25.585C1556.271,582.208,1567.723,592.695,1568.32,606.228z"/>
	<path fill="none" stroke="#000000" stroke-width="30" stroke-linecap="round" stroke-linejoin="round" stroke-miterlimit="10" d="
		M1775.102,777.915c35.597,33.374,28.995,65.116,28.525,82.608c0,0,37.938-29.629,36.198-85.462"/>
	<path fill="none" stroke="#000000" stroke-width="30" stroke-linecap="round" stroke-linejoin="round" stroke-miterlimit="10" d="
		M1859.258,801.755c11.653,27.846,1.615,35.277,2.479,56.205c0,0,43.349-38.946,46.104-65.855"/>
	<path fill="none" stroke="#000000" stroke-width="30" stroke-linecap="round" stroke-linejoin="round" stroke-miterlimit="10" d="
		M1914.617,813.694c6.746,20.907,7.34,34.386,5.332,41.697c0,0,27.421-24.392,32.084-57.729"/>
	<path fill="none" stroke="#000000" stroke-width="30" stroke-linecap="round" stroke-linejoin="round" stroke-miterlimit="10" d="
		M1952.882,816.905c5.883,20.704,7.895,27.604,2.103,47.659c-5.792,20.055,52.273-36.562,52.626-54.973"/>
	<path fill="none" stroke="#000000" stroke-width="30" stroke-linecap="round" stroke-linejoin="round" stroke-miterlimit="10" d="
		M1440.562,839.505c11.076,13.486,21.042,28.188,21.71,43.301c0.665,15.111,51.281-51.666,51.506-73.318"/>
	<path fill="none" stroke="#000000" stroke-width="30" stroke-linecap="round" stroke-linejoin="round" stroke-miterlimit="10" d="
		M1522.514,822.706c7.913,20.987,17.858,35.219,18.485,49.402c0.626,14.185,37.361-46.558,36.163-65.418"/>
	<path fill="none" stroke="#000000" stroke-width="30" stroke-linecap="round" stroke-linejoin="round" stroke-miterlimit="10" d="
		M1585.016,813.853c10.148,18.832,32.135,34.168,31.465,49.338c-0.666,15.17,34.952-49.271,35.116-59.783"/>
	<path fill="none" stroke="#000000" stroke-width="30" stroke-linecap="round" stroke-linejoin="round" stroke-miterlimit="10" d="
		M1493.938,953.619c17.498-12.419,35.082-29.5,38.786-41.311c0,0,21.95,32.442,26.912,53.554"/>
	<path fill="none" stroke="#000000" stroke-width="30" stroke-linecap="round" stroke-linejoin="round" stroke-miterlimit="10" d="
		M1564.257,950.517c8.581-16.684,22.974-33.624,24.992-40.702c0,0,22.57,35.423,24.497,53.66"/>
	<path fill="none" stroke="#000000" stroke-width="30" stroke-linecap="round" stroke-linejoin="round" stroke-miterlimit="10" d="
		M1624.662,952.713c9.632-25.085,24.92-51.383,31.036-56.311c0,0,21.827,32.812,24.784,47.823"/>
	<path fill="none" stroke="#000000" stroke-width="30" stroke-linecap="round" stroke-linejoin="round" stroke-miterlimit="10" d="
		M1725.629,938.739c15.556-16.991,38.955-47.141,37.76-84.358c0,0,44.942,59.045,43.53,80.773"/>
	<path fill="none" stroke="#000000" stroke-width="30" stroke-linecap="round" stroke-linejoin="round" stroke-miterlimit="10" d="
		M1814.115,927.266c9.193-18.457,18.286-23.519,19.945-38.731c0,0,20.161,38.907,18.691,54.117"/>
	<path fill="none" stroke="#000000" stroke-width="30" stroke-linecap="round" stroke-linejoin="round" stroke-miterlimit="10" d="
		M1865.027,932.591c13.171-20.381,19.798-26.497,22.639-42.346c0,0,20.378,27.676,19.721,49.996"/>
	<path fill="none" stroke="#000000" stroke-width="30" stroke-linecap="round" stroke-linejoin="round" stroke-miterlimit="10" d="
		M1913.942,930.433c10.958-15.624,18.223-35.745,17.762-46.206c0,0,12.372,41.98,17.141,64.467"/>
	<path fill="none" stroke="#000000" stroke-width="30" stroke-linecap="round" stroke-linejoin="round" stroke-miterlimit="10" d="
		M877.643,493.427c-101.18,3.56-77.536-14.956-132.312-68.45s-102.525-26.927-147.557-17.952c0,0,83.967,2.285,104.195,64.792
		c20.229,62.509,89.808,94.382,137.132,78.317"/>
	<path fill="none" stroke="#000000" stroke-width="30" stroke-linecap="round" stroke-linejoin="round" stroke-miterlimit="10" d="
		M758.133,556.763c-93.686,15.054-165.805-35.491-265.275-72.381c-99.471-36.891-122.39-1.936-174.528,4.358
		c0,0,115.51,4.387,202.708,79.915c87.198,75.529,179.809,115.358,241.928,97.649"/>
	<path fill="none" stroke="#000000" stroke-width="30" stroke-linecap="round" stroke-linejoin="round" stroke-miterlimit="10" d="
		M565.495,625.915c-90.406,10.165-98.706-19.556-198.186,22.59c-99.479,42.145-206.109,80.608-252.346,62.273
		c0,0,166.195,44.365,269.623,12.504c103.427-31.861,209.469-4.465,261.922-3.597"/>
	<path fill="none" stroke="#000000" stroke-width="30" stroke-linecap="round" stroke-linejoin="round" stroke-miterlimit="10" d="
		M964.167,632.879C869.191,618.694,617.394,772.58,523.93,792.676c0,0,95.024,15.272,157.955,15.99"/>
	<path fill="none" stroke="#000000" stroke-width="30" stroke-linecap="round" stroke-linejoin="round" stroke-miterlimit="10" d="
		M1047.583,810.009c-129.309-29.241-178.751-41.038-294.202-4.496c-115.451,36.544-226.246,59.808-306.404,64.639
		c0,0,119.85,23.562,192.79,13.556"/>
	<path fill="none" stroke="#000000" stroke-width="30" stroke-linecap="round" stroke-linejoin="round" stroke-miterlimit="10" d="
		M989.966,905.916c-64.819-48.574-274.962-59.397-488.368,14.227s-230.618,0.335-286.713-3.847c0,0,145.866,138.03,318.229,84.568
		c172.362-53.461,277.251-52.183,340.668-40.461"/>
	<path fill="none" stroke="#000000" stroke-width="30" stroke-linecap="round" stroke-linejoin="round" stroke-miterlimit="10" d="
		M1143.496,1031.797c-80.2,15.525-170.767,101.283-327.056,43.812c0,0,38.106,71.668,99.091,107.471
		c60.983,35.804,164.071,52.222,235.877,28.088"/>
	<path fill="none" stroke="#000000" stroke-width="30" stroke-linecap="round" stroke-linejoin="round" stroke-miterlimit="10" d="
		M1236.851,1135.659c-73.476,26.186-73.171,89.071-107.328,118.533c-34.158,29.461-63.918,44.03-70.092,74.367
		c0,0,41.026-20.671,111.027-51.713c70.003-31.043,89.146-95.914,137.993-125.46"/>
	<path fill="none" stroke="#000000" stroke-width="30" stroke-linecap="round" stroke-linejoin="round" stroke-miterlimit="10" d="
		M1379.365,1124.389c-40.193,39.419-87.434,100.186-99.461,172.713c-12.025,72.527-20.885,97.377-67.923,106.443
		c0,0,153.568-33.323,188.745-111.772c36.928-82.356,10.114-71.761,48.088-124.507"/>
	<path fill="none" stroke="#000000" stroke-width="30" stroke-linecap="round" stroke-linejoin="round" stroke-miterlimit="10" d="
		M1035.36,1046.663c-116.01-3.861-171.638-76.66-227.476-75.009"/>
	<path fill="none" stroke="#000000" stroke-width="30" stroke-linecap="round" stroke-linejoin="round" stroke-miterlimit="10" d="
		M634.24,1059.111c-73.574-33.907-81.271-62.51-134.392-52.038c-123.587,24.362-190.593,74.717-277.383,84.583
		c-86.789,9.867-133.433-5.865-159.01-20.705c-25.577-14.838,84.729,106.54,239.652,70.871
		c154.922-35.671,159.867-64.017,202.785-51.385"/>
	<path fill="none" stroke="#000000" stroke-width="30" stroke-linecap="round" stroke-linejoin="round" stroke-miterlimit="10" d="
		M1043.936,727.322c-107.966-20.719-181.451-23.009-232.104,16.936"/>
	<path fill="none" stroke="#000000" stroke-width="30" stroke-linecap="round" stroke-linejoin="round" stroke-miterlimit="10" d="
		M976.426,598.973c-52.816-14.128-187.839,14.418-257.475,20.173"/>
	<path fill="none" stroke="#000000" stroke-width="30" stroke-linecap="round" stroke-linejoin="round" stroke-miterlimit="10" d="
		M1165.672,1089.601c-67.171,53.625-142.792,70.48-216.97,58.258"/>
	<path fill="none" stroke="#000000" stroke-width="30" stroke-linecap="round" stroke-linejoin="round" stroke-miterlimit="10" d="
		M808.526,315.458c35.088-33.241,53.594-21.403,81.499-16.731"/>
	<path fill="none" stroke="#000000" stroke-width="30" stroke-linecap="round" stroke-linejoin="round" stroke-miterlimit="10" d="
		M863.971,423.974c26.976-22.217,21.006-28.136,60.903-30.409"/>
	<path fill="none" stroke="#000000" stroke-width="30" stroke-linecap="round" stroke-linejoin="round" stroke-miterlimit="10" d="
		M1005.637,408.36c30.641-29.171,27.682-38.172,66.843-44.571"/>
	<path fill="none" stroke="#000000" stroke-width="30" stroke-linecap="round" stroke-linejoin="round" stroke-miterlimit="10" d="
		M766.861,993.889c-46.07,6.434-114.147,67.256-190.376,99.546c0,0,74.823,27.141,104.375,8.621
		c29.553-18.521,119.885-51.913,156.192-24.982"/>
	<path fill="none" stroke="#000000" stroke-width="30" stroke-linecap="round" stroke-linejoin="round" stroke-miterlimit="10" d="
		M562.918,1075.97c-94.791,23.76-108.964,68.127-161.697,112.812c-52.732,44.684-59.011,35.88-104.148,31.039
		c0,0,103.921,56.515,185.637,0.212"/>
	<path fill="none" stroke="#000000" stroke-width="30" stroke-linecap="round" stroke-linejoin="round" stroke-miterlimit="10" d="
		M564.425,1163.732c-48.104,31.055-210.067,168.3-245.979,221.379c0,0,174.555,49.551,222.043-37.652"/>
	<path fill="none" stroke="#000000" stroke-width="30" stroke-linecap="round" stroke-linejoin="round" stroke-miterlimit="10" d="
		M745.884,1168.049c-82.881,49.199-154.415,18.368-205.242,25.077"/>
	<path fill="none" stroke="#000000" stroke-width="30" stroke-linecap="round" stroke-linejoin="round" stroke-miterlimit="10" d="
		M639.814,1222.338c-53.036,27.145-86.681,95.189-149.418,91.375c0,0,161.972,32.264,192.68-0.229
		c0,0-123.405,136.93-191.521,155.821c0,0,145.838,15.551,180.024-16.654"/>
	<path fill="none" stroke="#000000" stroke-width="30" stroke-linecap="round" stroke-linejoin="round" stroke-miterlimit="10" d="
		M667.268,1504.841c-53.337,9.604-59.021,75.689-111.96,81.826c-52.938,6.135-155.831,43.174-183.037,107.48
		c0,0,103.476-33.488,157.706-11.493c54.229,21.995,112.771-8.197,151.299-50.553"/>
	<path fill="none" stroke="#000000" stroke-width="30" stroke-linecap="round" stroke-linejoin="round" stroke-miterlimit="10" d="
		M677.251,1680.811c-61.128,61.505-124.555,150.842-128.579,199.551c0,0,148.424-15.761,161.706-91.728"/>
	<path fill="none" stroke="#000000" stroke-width="30" stroke-linecap="round" stroke-linejoin="round" stroke-miterlimit="10" d="
		M782.394,1086.511c-99.317,226.974-142.675,608.712,84.425,1047.823c20.703,40.032,39.167,79.965,55.524,119.529"/>
	<path fill="none" stroke="#000000" stroke-width="30" stroke-linecap="round" stroke-linejoin="round" stroke-miterlimit="10" d="
		M1122.44,1277.331c-54.841,173.008-115.45,350.151,61.523,627.491c62.975,98.687,123.582,214.919,170.026,344.567"/>
	<path fill="none" stroke="#000000" stroke-width="30" stroke-linecap="round" stroke-linejoin="round" stroke-miterlimit="10" d="
		M737.379,1843.409c-46.349,52.218-120.787,147.65-116.674,225.056c0,0,137.412-9.666,154.46-88.825"/>
	<path fill="none" stroke="#000000" stroke-width="30" stroke-linecap="round" stroke-linejoin="round" stroke-miterlimit="10" d="
		M770.854,2031.829c-14.431,89.884-26.562,151.934-63.654,176.893c-37.091,24.958-29.528,60.614-38.497,84.394
		c-8.971,23.779,44.911-34.823,83.47-35.14c38.559-0.317,99.457-38.678,107.051-81.159"/>
	<path fill="none" stroke="#000000" stroke-width="30" stroke-linecap="round" stroke-linejoin="round" stroke-miterlimit="10" d="
		M749.649,1191.197c32.304,36.04,74.854,30.167,97.739,7.325"/>
	<path fill="none" stroke="#000000" stroke-width="30" stroke-linecap="round" stroke-linejoin="round" stroke-miterlimit="10" d="
		M841.41,1241.027c32.304,36.039,74.854,30.167,97.74,7.325"/>
	<path fill="none" stroke="#000000" stroke-width="30" stroke-linecap="round" stroke-linejoin="round" stroke-miterlimit="10" d="
		M759.915,1281.674c32.304,36.04,74.854,30.167,97.74,7.326"/>
	<path fill="none" stroke="#000000" stroke-width="30" stroke-linecap="round" stroke-linejoin="round" stroke-miterlimit="10" d="
		M834.885,1320.013c32.305,36.04,74.854,30.168,97.74,7.325"/>
	<path fill="none" stroke="#000000" stroke-width="30" stroke-linecap="round" stroke-linejoin="round" stroke-miterlimit="10" d="
		M735.105,1352.311c32.304,36.04,74.854,30.167,97.741,7.324"/>
	<path fill="none" stroke="#000000" stroke-width="30" stroke-linecap="round" stroke-linejoin="round" stroke-miterlimit="10" d="
		M815.271,1401.182c32.304,36.04,74.854,30.168,97.74,7.323"/>
	<path fill="none" stroke="#000000" stroke-width="30" stroke-linecap="round" stroke-linejoin="round" stroke-miterlimit="10" d="
		M733.775,1441.829c32.304,36.04,74.854,30.167,97.741,7.324"/>
	<path fill="none" stroke="#000000" stroke-width="30" stroke-linecap="round" stroke-linejoin="round" stroke-miterlimit="10" d="
		M808.745,1480.168c32.305,36.04,74.854,30.168,97.741,7.325"/>
	<path fill="none" stroke="#000000" stroke-width="30" stroke-linecap="round" stroke-linejoin="round" stroke-miterlimit="10" d="
		M728.712,1518.046c32.305,36.039,74.854,30.167,97.741,7.325"/>
	<path fill="none" stroke="#000000" stroke-width="30" stroke-linecap="round" stroke-linejoin="round" stroke-miterlimit="10" d="
		M1718.135,554.255c-62.857,47.278-48.287,138.432-146.207,150.429"/>
	<path fill="none" stroke="#000000" stroke-width="30" stroke-linecap="round" stroke-linejoin="round" stroke-miterlimit="10" d="
		M824.559,1548.292c32.304,36.04,74.854,30.167,97.74,7.324"/>
	<path fill="none" stroke="#000000" stroke-width="30" stroke-linecap="round" stroke-linejoin="round" stroke-miterlimit="10" d="
		M750.44,1590.729c32.303,36.04,74.854,30.167,97.74,7.326"/>
	<path fill="none" stroke="#000000" stroke-width="30" stroke-linecap="round" stroke-linejoin="round" stroke-miterlimit="10" d="
		M836.982,1620.205c32.303,36.041,74.853,30.168,97.74,7.326"/>
	<path fill="none" stroke="#000000" stroke-width="30" stroke-linecap="round" stroke-linejoin="round" stroke-miterlimit="10" d="
		M753.679,1662.732c32.304,36.039,74.854,30.166,97.74,7.323"/>
	<path fill="none" stroke="#000000" stroke-width="30" stroke-linecap="round" stroke-linejoin="round" stroke-miterlimit="10" d="
		M848.148,1711.002c32.304,36.04,74.854,30.168,97.74,7.326"/>
	<path fill="none" stroke="#000000" stroke-width="30" stroke-linecap="round" stroke-linejoin="round" stroke-miterlimit="10" d="
		M776.956,1751.59c32.304,36.042,74.854,30.168,97.74,7.325"/>
	<path fill="none" stroke="#000000" stroke-width="30" stroke-linecap="round" stroke-linejoin="round" stroke-miterlimit="10" d="
		M869.333,1790.804c32.435,34.456,74.948,29.029,97.738,7.361"/>
	<path fill="none" stroke="#000000" stroke-width="30" stroke-linecap="round" stroke-linejoin="round" stroke-miterlimit="10" d="
		M880.852,1873.844c32.435,34.455,74.948,29.029,97.737,7.361"/>
	<path fill="none" stroke="#000000" stroke-width="30" stroke-linecap="round" stroke-linejoin="round" stroke-miterlimit="10" d="
		M809.843,1915.718c32.435,34.455,74.947,29.028,97.737,7.36"/>
	<path fill="none" stroke="#000000" stroke-width="30" stroke-linecap="round" stroke-linejoin="round" stroke-miterlimit="10" d="
		M782.104,1830.622c32.303,36.04,74.853,30.167,97.739,7.324"/>
	<path fill="none" stroke="#000000" stroke-width="30" stroke-linecap="round" stroke-linejoin="round" stroke-miterlimit="10" d="
		M896.068,1939.462c32.435,34.456,74.948,29.03,97.738,7.361"/>
	<path fill="none" stroke="#000000" stroke-width="30" stroke-linecap="round" stroke-linejoin="round" stroke-miterlimit="10" d="
		M849.547,1980.735c32.435,34.456,74.948,29.028,97.738,7.361"/>
	<path fill="none" stroke="#000000" stroke-width="30" stroke-linecap="round" stroke-linejoin="round" stroke-miterlimit="10" d="
		M924.644,2017.548c32.435,34.456,74.948,29.029,97.737,7.361"/>
	<path fill="none" stroke="#000000" stroke-width="30" stroke-linecap="round" stroke-linejoin="round" stroke-miterlimit="10" d="
		M890.211,2068.743c32.435,34.455,74.948,29.028,97.738,7.359"/>
	<path fill="none" stroke="#000000" stroke-width="30" stroke-linecap="round" stroke-linejoin="round" stroke-miterlimit="10" d="
		M985.187,2109.525c32.435,34.455,74.948,29.028,97.737,7.359"/>
	<path fill="none" stroke="#000000" stroke-width="30" stroke-linecap="round" stroke-linejoin="round" stroke-miterlimit="10" d="
		M911.259,2149.656c32.435,34.456,74.948,29.029,97.737,7.361"/>
	<path fill="none" stroke="#000000" stroke-width="30" stroke-linecap="round" stroke-linejoin="round" stroke-miterlimit="10" d="
		M1007.925,2201.489c32.435,34.456,74.948,29.029,97.737,7.36"/>
	<path fill="none" stroke="#000000" stroke-width="30" stroke-linecap="round" stroke-linejoin="round" stroke-miterlimit="10" d="
		M973.493,2252.684c32.435,34.455,74.947,29.028,97.737,7.361"/>
	<path fill="none" stroke="#000000" stroke-width="30" stroke-linecap="round" stroke-linejoin="round" stroke-miterlimit="10" d="
		M1069.365,1493.795c-81.815,9.653-85.95-19.854-104.968-32.527"/>
	<path fill="none" stroke="#000000" stroke-width="30" stroke-linecap="round" stroke-linejoin="round" stroke-miterlimit="10" d="
		M1084.069,1703.789c-56.932,27.094-46.609,34.682-98.519,30.395"/>
	<path fill="none" stroke="#000000" stroke-width="30" stroke-linecap="round" stroke-linejoin="round" stroke-miterlimit="10" d="
		M1059.514,1604.186c-62.385,9.143-54.752,19.432-103.101,0.06"/>
	<path fill="none" stroke="#000000" stroke-width="30" stroke-linecap="round" stroke-linejoin="round" stroke-miterlimit="10" d="
		M1120.395,1845.154c-56.933,27.092-46.609,34.681-98.52,30.394"/>
	<path fill="none" stroke="#000000" stroke-width="30" stroke-linecap="round" stroke-linejoin="round" stroke-miterlimit="10" d="
		M1202.061,1979.004c-56.932,27.096-46.607,34.683-98.518,30.394"/>
	<path fill="none" stroke="#000000" stroke-width="30" stroke-linecap="round" stroke-linejoin="round" stroke-miterlimit="10" d="
		M1286.876,2114.468c-56.932,27.093-46.607,34.684-98.517,30.395"/>
	<path fill="none" stroke="#000000" stroke-width="30" stroke-linecap="round" stroke-linejoin="round" stroke-miterlimit="10" d="
		M1337.501,2205.416c-44.825,70.454-87.8,67.66-123.134,64.363"/>
	<path fill="none" stroke="#000000" stroke-width="30" stroke-linecap="round" stroke-linejoin="round" stroke-miterlimit="10" d="
		M952.486,281.049c26.372-32.856,40.591-32.464,61.893-27.501"/>
	<path fill="none" stroke="#000000" stroke-width="30" stroke-linecap="round" stroke-linejoin="round" stroke-miterlimit="10" d="
		M1771.681,542.257c-37.181,46.243-23.911,68.925-50.546,93.584"/>
</g>
</svg>
