<?xml version="1.0" encoding="utf-8"?>
<!-- Generator: Adobe Illustrator 16.0.0, SVG Export Plug-In . SVG Version: 6.00 Build 0)  -->
<!DOCTYPE svg PUBLIC "-//W3C//DTD SVG 1.1//EN" "http://www.w3.org/Graphics/SVG/1.1/DTD/svg11.dtd">
<svg version="1.1" id="Layer_3" xmlns="http://www.w3.org/2000/svg" xmlns:xlink="http://www.w3.org/1999/xlink" x="0px" y="0px"
	 width="2400px" height="2400px" viewBox="0 0 2400 2400" enable-background="new 0 0 2400 2400" xml:space="preserve">
<g>
	<path stroke="#000000" stroke-width="30" stroke-linecap="round" stroke-linejoin="round" stroke-miterlimit="10" d="
		M2253.657,1517.326c-4.461-36.677,38.111-74.931,21.708-94.204s-0.438-42.123-23.222-51.607
		c-22.783-9.486-22.65,3.475-44.992,36.115c-22.348,32.638-71.214,84.994-70.544,110.913c0.669,25.919-5.837,58.395-24.896,78.034
		c-19.058,19.642-3.203,42.164,13.524,64.672c16.729,22.513-16.139,55.262,13.627,74.395
		c29.766,19.134,48.028-94.479,70.476-117.395c22.446-22.919,54.938-29.736,74.1-49.379c19.158-19.645,28.702-52.151-0.539-51.849
		C2253.657,1517.326,2257.201,1546.457,2253.657,1517.326z"/>
	<path fill="none" stroke="#000000" stroke-width="30" stroke-linecap="round" stroke-linejoin="round" stroke-miterlimit="10" d="
		M1634.711,1097.304c-34.124-56.047-43.714-42.986-44.152-85.109c-0.438-42.123-39.051-15.797-58.896-54.479
		c-19.847-38.682-65.547-70.612-72.531-119.149c-6.987-48.538,5.941-51.913-30.207-100.146
		c-36.15-48.233-49.312-67.541-82.119-106.088c-32.807-38.547-20.314-22.473-59.148-47.994
		c-38.834-25.522-61.516-25.287-113.73-60.392s-23.12-41.889-97.951-70.275c-74.827-28.39-127.044-63.494-169.47-92.219
		c-42.428-28.726-3.308-6.446-55.085,0.573c-51.777,7.018-48.369,23.187-90.492,23.623c-42.125,0.438-50.531,32.933-76.943,33.205
		c-26.41,0.275-26.578-15.927-58.611,20.055c-32.033,35.979-35.104,52.213-83.675,55.96c-48.571,3.743-47.896,68.551-112.468,91.906
		c-64.57,23.355-154.994,53.461-161.174,82.689c-6.179,29.229-25.452,45.381-57.671,63.666
		c-32.217,18.284-12.201,73.167-41.096,99.394c-28.895,26.224-5.639,81.072-50.565,123.668
		c-44.926,42.596-66.732,127.078-33.792,178.587c32.941,51.508,81.715,67.204,117.829,112.198
		c36.115,44.993,10.193,45.263,23.424,71.049c13.229,25.79,9.76,3.533,26.227,29.09c16.469,25.561-6.244,22.721,6.918,41.944
		c13.162,19.226,16.335,12.708,32.907,48.185c16.571,35.475,3.609,35.609,20.115,64.604c16.504,28.994,45.464,9.251,45.634,25.452
		c0.167,16.199,7.892,31.399,25.312,44.642c17.418,13.246,36.86,13.044,59.912,48.452c23.052,35.407,16.908,67.877,36.652,96.837
		c19.745,28.962,61.768,18.802,65.379,54.412c3.61,35.609,0.538,51.845,10.596,84.146c10.059,32.303,36.29,61.791,49.349,71.079
		c13.06,9.288,56.296,21.804,95.295,79.729c39.002,57.926,42.029,37.471,97.169,42.247c55.142,4.781,94.092,10.856,126.191-18.644
		c32.102-29.498,74.09-42.896,103.286-39.96c29.196,2.938,48.401-19.945,74.123-39.657c25.722-19.711,2.803-42.155,35.172-45.732
		c32.37-3.579,38.849-3.646,67.943-10.429c29.098-6.783,13.252-9.859,55.047-23.258c55.357-17.744,25.93,19.175,55.124,22.113
		c29.198,2.937,45.231-13.434,77.768-0.809c32.538,12.626,74.997,44.59,126.943,53.772c51.948,9.181,49.008,38.379,91.336,57.385
		c42.324,19.002,58.761,41.516,120.259,34.397c61.501-7.12,90.495-23.626,142.238-33.885c51.744-10.26,54.748-32.976,126.035-33.716
		c71.285-0.739,51.789-5.891,93.757-21.474c41.965-15.584,48.794,17.881,74.524-0.774c25.731-18.656,12.124-50.922,38.135-57.672
		c26.01-6.751,29.079-22.988,57.572-88.095c28.487-65.111,54.274-78.341,63.727-104.365c9.449-26.022-0.302-29.16-1.008-97.206
		c-0.711-68.047-4.795-45.319,3.139-113.456c7.936-68.136-29.611-67.745-28.962-96.918c0.648-29.174-16.022-74.37-26.081-106.67
		c-10.057-32.302-46.582-87.015-76.163-141.798c-29.58-54.783-39.639-87.085-55.84-86.918c-16.2,0.17-61.53,3.881-68.349-28.455
		c-6.816-32.335-19.577-12.759-45.532-15.729c-25.958-2.972-42.358-22.245-58.896-54.479c-16.54-32.235-22.984-28.926-42.528-38.445
		c-19.543-9.521-45.634-25.452-81.211-18.602c-35.574,6.851-39.116,42.535-58.154,49.214s-60.961,26.559-92.859,75.498
		c-31.896,48.941-63.931,84.921-99.438,98.252c-35.509,13.332-38.75,13.365-61.229,33.043
		c-22.48,19.677-42.604,41.701-55.317,65.596c-12.712,23.895-14.328,76.594-16.163,107.518
		c-1.839,30.922-1.293,83.465-11.939,98.349"/>
	<path fill="none" stroke="#000000" stroke-width="30" stroke-linecap="round" stroke-linejoin="round" stroke-miterlimit="10" d="
		M1948.306,1134.862c-15.764,42.293-54.682,39.455-86.715,75.437c-32.033,35.979-53.705,133.592-82.564,162.971
		c-28.857,29.384-54.747,32.893-86.816,65.633c-32.062,32.74-77.494,26.729-73.954,55.858c3.544,29.13,68.315,25.217,97.211-1.01"/>
	<path fill="none" stroke="#000000" stroke-width="30" stroke-linecap="round" stroke-linejoin="round" stroke-miterlimit="10" d="
		M2024.18,1263.699c-2.77,45.399-16.169,3.409-41.755,36.081c-25.585,32.674-40.945,113.848-76.32,140.143
		c-35.373,26.291-80.9,26.765-121.054,53.105c-40.151,26.343-62.565,52.5-84.876,88.379"/>
	<path fill="none" stroke="#000000" stroke-width="30" stroke-linecap="round" stroke-linejoin="round" stroke-miterlimit="10" d="
		M1875.906,1456.438c0,0,4.849,38.837-27.185,74.818c-32.031,35.979-45.156,36.115-62.561,68.701
		c-17.402,32.589-17.271,45.548-46.264,62.053c-28.993,16.506-64.254,53.742-70.455,80.74s-32.419,30.512-48.422,33.919
		c-16.002,3.406-25.58,48.876,0.54,51.842c26.12,2.973,58.423-7.083,80.833-33.243c22.414-26.159,54.283-62.139,85.08-68.938"/>
	<path fill="none" stroke="#000000" stroke-width="30" stroke-linecap="round" stroke-linejoin="round" stroke-miterlimit="10" d="
		M630.86,967.073c-6.941-29.772,2.736-48.639,15.428-74.695s-2.498-22.658,42.275-32.846c44.774-10.187,93.412-7.451,119.958,52.224
		c26.545,59.677-24.929,95.859-50.719,109.089c-25.786,13.23-21.356,71.518-32.854,84.598
		c-11.498,13.082-33.471-12.614-34.265-41.772c-0.792-29.157-29.995-32.89-39.948-55.073
		C640.783,986.414,637.645,996.167,630.86,967.073z"/>
	<path fill="none" stroke="#000000" stroke-width="30" stroke-linecap="round" stroke-linejoin="round" stroke-miterlimit="10" d="
		M1146.509,900.145c-0.337-32.403-6.817-32.336,22.312-35.879c29.129-3.544,39.476,19.033,74.906,17.045
		c35.433-1.988,38.597-9.138,61.182-18.776c22.586-9.639,54.487,28.036,69.309-0.721"/>
	<path fill="none" stroke="#000000" stroke-width="30" stroke-linecap="round" stroke-linejoin="round" stroke-miterlimit="10" d="
		M1211.941,940.749c21.6-0.225,12.85-10.937,37.709-9.033c24.862,1.902,35.864,21.23,55.171,8.069"/>
	<path fill="none" stroke="#000000" stroke-width="30" stroke-linecap="round" stroke-linejoin="round" stroke-miterlimit="10" d="
		M1460.044,1117.469c14.915-19.597,16.982-17.46,42.803-32.848c25.82-15.39,32.302-15.458,40.693-39.307
		c8.395-23.852,15.629-66.749,27.481-60.864"/>
	<path fill="none" stroke="#000000" stroke-width="30" stroke-linecap="round" stroke-linejoin="round" stroke-miterlimit="10" d="
		M1083.56,851.244c15.413,28.031-21.845-23.426,14.424-67.007c36.272-43.582,30.248-50,51.405-67.501
		c21.16-17.502,51.602,1.624,81.817-0.851c30.221-2.474,58.188-13.565,71.414,12.221c13.231,25.784,44.843,34.786,59.523,53.73
		c14.681,18.945,53.537,16.381,56.033,48.759s-8.381,24.751-8.142,48.061"/>
	<path fill="none" stroke="#000000" stroke-width="30" stroke-linecap="round" stroke-linejoin="round" stroke-miterlimit="10" d="
		M633.326,555.762c23.76-0.247,49.567-11.316,69.118-0.719c19.552,10.6,21.914,30.017,52.131,27.541
		c30.219-2.473,32.857-22.902,57.244-33.477c24.386-10.575,19.932-23.49,15.388-45.045c-4.545-21.555-45.83-44.89-71.751-44.618
		c-25.92,0.27-39.217-31.997-88.559,0.919c-49.343,32.917-27.676,39.172-19.014,41.24"/>
	<path fill="none" stroke="#000000" stroke-width="30" stroke-linecap="round" stroke-linejoin="round" stroke-miterlimit="10" d="
		M397.95,772.066c23.625-13.207,53.378-60.363,75.03-55.525c21.651,4.838,23.912,14.493,49.961,26.665
		c26.049,12.171,39.166,27.157,65.086,26.887c25.921-0.27,38.813-6.884,69.119-0.718c30.307,6.165,83.933-30.439,105.271-55.842
		c21.339-25.402,51.521-51.639,69.931-36.708s37.857,15.33,29.507,43.198c-8.352,27.869-3.693,40.155-28.557,48.287"/>
	<path fill="none" stroke="#000000" stroke-width="30" stroke-linecap="round" stroke-linejoin="round" stroke-miterlimit="10" d="
		M911.406,1123.169c1.937-21.622,3.88-42.412,23.215-52.75c19.334-10.34,58.319-0.607,62.912,25.6"/>
	<path fill="none" stroke="#000000" stroke-width="30" stroke-linecap="round" stroke-linejoin="round" stroke-miterlimit="10" d="
		M979.561,1029.572c1.869-28.103-4.88-53.956,16.653-60.661c21.532-6.703,42.938-25.431,58.425,9.584
		c15.485,35.016,17.735,43.631,15.755,60.935"/>
	<path fill="none" stroke="#000000" stroke-width="30" stroke-linecap="round" stroke-linejoin="round" stroke-miterlimit="10" d="
		M939.355,902.296c6.302-17.106,36.283-42.438,55.966-19.331"/>
	<path fill="none" stroke="#000000" stroke-width="30" stroke-linecap="round" stroke-linejoin="round" stroke-miterlimit="10" d="
		M1147.152,1021.351c24.716,12.705,29.968,29.268,50.146,32.63c20.177,3.363,39.056-50.839,53.184-42.345
		c14.131,8.493,31.584,24.93,23.115,41.551"/>
	<path fill="none" stroke="#000000" stroke-width="30" stroke-linecap="round" stroke-linejoin="round" stroke-miterlimit="10" d="
		M691.91,1181.613c25.997,29.974,43.457,47.075,54.526,72.882c11.068,25.809,26.232,29.971,45.808,42.729
		c19.573,12.758,39.113,22.035,50.075,37.701"/>
	<path fill="none" stroke="#000000" stroke-width="30" stroke-linecap="round" stroke-linejoin="round" stroke-miterlimit="10" d="
		M841.587,1264.307c10.552-23.871,3.827-38.925,27.654-37.011c23.826,1.913,24.048,23.307,43.434,17.809
		c19.383-5.5,15.109-1.135,29.893-33.691"/>
	<path fill="none" stroke="#000000" stroke-width="30" stroke-linecap="round" stroke-linejoin="round" stroke-miterlimit="10" d="
		M969.96,1145.025c14.998-11.819,48.4,15.916,56.73,20.148c8.328,4.235,19.09,0.222,36.119-23.929
		c17.03-24.147,23.579-17.734,38.675-20.051"/>
	<path fill="none" stroke="#000000" stroke-width="30" stroke-linecap="round" stroke-linejoin="round" stroke-miterlimit="10" d="
		M1825.08,1113.675c-6.1,36.789-12.294,64.377-29.446,76.717c-17.154,12.338-32.062,51.375-59.1,38.695
		c-27.039-12.68-27.031,17.156-39.624,38.013c-12.595,20.858-21.033,40.386-44.702,49.272
		c-23.672,8.887-60.748-25.291-86.713-29.342c-25.966-4.052-49.201,43.715-46.857,63.132"/>
	<path fill="none" stroke="#000000" stroke-width="30" stroke-linecap="round" stroke-linejoin="round" stroke-miterlimit="10" d="
		M1185.726,1120.318c-19.329,11.002-31.498,37.05-36.956,56.55"/>
	<path fill="none" stroke="#000000" stroke-width="30" stroke-linecap="round" stroke-linejoin="round" stroke-miterlimit="10" d="
		M1239.292,1286.098c19.665,21.399,65.654,81.407,87.252,81.182c21.6-0.224,65.098,28.112,82.712,59.98"/>
	<path fill="none" stroke="#000000" stroke-width="30" stroke-linecap="round" stroke-linejoin="round" stroke-miterlimit="10" d="
		M1378.096,1234.972c14.22,17.133,16.378,17.111,29.675,49.375c13.298,32.266,7.412,34.487,16.103,66.801"/>
	<path fill="none" stroke="#000000" stroke-width="30" stroke-linecap="round" stroke-linejoin="round" stroke-miterlimit="10" d="
		M1441.49,1799.009c16.825-16.177,18.87-27.166,35.869-54.262c17.001-27.097,16.933-33.576,55.835-31.821
		s34.377-18.111,53.786-21.313c19.406-3.208,36.499-21.413,46.898-60.033"/>
	<path fill="none" stroke="#000000" stroke-width="30" stroke-linecap="round" stroke-linejoin="round" stroke-miterlimit="10" d="
		M1189.091,1444.316c25.898-2.431,76.185,25.131,91.372,46.575c15.184,21.445,41.519,60.939,76.184,70.938
		c34.669,9.998,99.521,14.487,138.634,36.341"/>
	<path fill="none" stroke="#000000" stroke-width="30" stroke-linecap="round" stroke-linejoin="round" stroke-miterlimit="10" d="
		M697.114,1682.567c38.564,15.805,84.394,60.074,94.487,95.927c10.096,35.856,21.871,32.703,56.453,30.618"/>
	<path fill="none" stroke="#000000" stroke-width="30" stroke-linecap="round" stroke-linejoin="round" stroke-miterlimit="10" d="
		M698.455,1811.577c28.848,16.505,49.528,65.559,75.304,86.026c25.774,20.466,45.795,30.574,74.686,26.735
		c28.889-3.838,36.72-14.438,27.641-38.249"/>
	<path fill="none" stroke="#000000" stroke-width="30" stroke-linecap="round" stroke-linejoin="round" stroke-miterlimit="10" d="
		M243.179,1082.178c32.126-27.152,57.65-65.72,89.95-76.07c32.298-10.351,46.273-17.077,43.607-65.609"/>
	<path fill="none" stroke="#000000" stroke-width="30" stroke-linecap="round" stroke-linejoin="round" stroke-miterlimit="10" d="
		M202.84,942.305c25.788-13.18,73.059-59.043,106.161-33.46"/>
	<path fill="none" stroke="#000000" stroke-width="30" stroke-linecap="round" stroke-linejoin="round" stroke-miterlimit="10" d="
		M965.854,749.712c-32.796-15.862-75.511-72.476-46.405-78.275c29.106-5.801,44.755,1.793,87.17-0.906
		c42.419-2.698,30.678-77.111,55.603-77.37c24.925-0.26,62.209,67.406,80.848,34.806c18.637-32.601,68.445-59.043,89.008-36.57"/>
	<path fill="none" stroke="#000000" stroke-width="30" stroke-linecap="round" stroke-linejoin="round" stroke-miterlimit="10" d="
		M1320.896,1031.417c20.466,12.533,60.208,32.664,77.684,30.312s35.927-27.625,60.236-62.326
		c24.309-34.7,35.312-36.835,42.269-84.507c2.037-13.973-23.466,23.093-51.497,27.806c-28.036,4.713-36.812-8.36-56.231-6.09
		c-19.42,2.27-34.425,13.41-27.682,38.652"/>
	<path fill="none" stroke="#000000" stroke-width="30" stroke-linecap="round" stroke-linejoin="round" stroke-miterlimit="10" d="
		M1502.847,1084.621c20.645,22.249,31.494,28.419,52.297,54.229"/>
	<path fill="none" stroke="#000000" stroke-width="30" stroke-linecap="round" stroke-linejoin="round" stroke-miterlimit="10" d="
		M522.941,743.206c-38.503,36.603-72.321,108.368-35.411,126.283s88.208-34.682,110.033-13.196
		c21.825,21.484-46.666,82.499-20.679,88.802"/>
	<path fill="none" stroke="#000000" stroke-width="30" stroke-linecap="round" stroke-linejoin="round" stroke-miterlimit="10" d="
		M161.471,882.167c38.569-30.274,46.184-72.026,78.512-107.692c32.33-35.664,54.351,4.642,105.958-18.322
		c51.606-22.966,59.663-79.214,102.639-101.263"/>
	<path fill="none" stroke="#000000" stroke-width="30" stroke-linecap="round" stroke-linejoin="round" stroke-miterlimit="10" d="
		M1185.537,1226.013c56.089,15.389,79.694,31.874,124.427,23.754c44.732-8.121,81.271-36.17,122.695-51.73"/>
	<path fill="none" stroke="#000000" stroke-width="30" stroke-linecap="round" stroke-linejoin="round" stroke-miterlimit="10" d="
		M2184.813,1250.354c-40.487,26.342-35.823,59.535-61.625,71.265c-25.801,11.731-43.004,19.228-60.479,0.628"/>
	<path fill="none" stroke="#000000" stroke-width="30" stroke-linecap="round" stroke-linejoin="round" stroke-miterlimit="10" d="
		M1865.304,1723.61c-1.88-37.876,54.054-60.38,75.723-53.964c21.668,6.415,55.551-59.088,55.216-91.315"/>
	<path fill="none" stroke="#000000" stroke-width="30" stroke-linecap="round" stroke-linejoin="round" stroke-miterlimit="10" d="
		M1832.521,1830.089c45.075-27.851,75.036-55.01,109.511-63.547c34.476-8.535,32.203,3.523,87.361-0.906
		c55.156-4.431,74.447,8.025,99.338-0.721"/>
	<path stroke="#000000" stroke-width="30" stroke-linecap="round" stroke-linejoin="round" stroke-miterlimit="10" d="
		M605.185,1926.866c-13.059-9.287-39.289-38.775-49.349-71.078c-10.057-32.301-6.984-48.537-10.596-84.146
		c-3.611-35.611-45.633-25.451-65.379-54.412c-19.743-28.961-13.599-61.43-36.652-96.836
		c-23.052-35.408-42.494-35.207-59.912-48.453c-17.42-13.242-25.143-28.442-25.312-44.641c-0.168-16.202-29.128,3.542-45.633-25.453
		c-16.505-28.994-3.543-29.129-20.115-64.603c-16.572-35.478-19.744-28.961-32.907-48.185c-13.16-19.224,9.552-16.386-6.918-41.944
		c-16.467-25.558-12.997-3.301-26.227-29.09c-13.229-25.788,12.691-26.056-23.423-71.05c-36.115-44.995-84.888-60.69-117.83-112.198
		c1.536-106.795,53.869-117.812,76.536-119.373c22.67-1.561,58.196-13.104,81.71,66.773s42.924,76.517,72.423,108.574
		c29.499,32.061-38.167,69.391,1.167,112.241c39.332,42.851,57.446,26.458,95.593,55.227c38.146,28.771,59.065,18.831,92.737,60.609
		c33.671,41.779,33.091,83.913,77.546,102.896c44.454,18.982,46.209-39.367,72.84-13.72c26.63,25.647,54.999,27.665,31.448,60.783
		c-23.552,33.113-69.212,7.662-68.862,40.066c0.35,32.4,23.415,28.921,23.61,67.809c0.198,38.885,38.41,52.672,47.166,76.274
		c8.756,23.604,4.717,31.351-30.814,0.321c-35.53-31.028-64.199,21.12-54.152,50.183c10.047,29.059,51.322,31.572,55.342,64.087
		C663.237,1900.041,636.576,1909.561,605.185,1926.866z"/>
	<path stroke="#000000" stroke-width="30" stroke-linecap="round" stroke-linejoin="round" stroke-miterlimit="10" d="
		M2326.829,1698.041c-9.452,26.024-35.238,39.257-63.727,104.365c-28.491,65.106-31.562,81.344-57.571,88.095
		c-26.01,6.752-12.402,39.016-38.134,57.672c-25.73,18.655-32.559-14.808-74.526,0.774c-41.967,15.583-22.472,20.734-93.756,21.474
		c-71.286,0.74-74.29,23.456-126.035,33.716c-51.743,10.26-80.737,26.765-142.237,33.885c-61.498,7.119-77.935-15.394-120.26-34.397
		c-42.327-19.006-39.388-48.202-91.335-57.385c-51.946-9.182-94.405-41.146-126.943-53.771
		c-32.537-12.626-48.569,3.745-77.769,0.808c-29.193-2.937,0.234-39.857-55.123-22.113c-41.795,13.4-25.95,16.475-55.047,23.259
		c-29.095,6.783-35.574,6.85-67.944,10.429c-32.368,3.577-9.45,26.021-35.171,45.733c-25.722,19.71-44.927,42.593-74.124,39.657
		c-29.195-2.937-71.184,10.46-103.285,39.958c-7.644-34.729-5.861-66.456-4.118-106.6c1.743-40.141-19.459-51.972,6.915-87.267
		c26.375-35.288,54.41-39.902,88.901-46.743c34.492-6.836,10.463-32.508-0.673-64.799c-11.136-32.287,1.284-84.261,25.9-106.115
		c24.616-21.859,33.229-24.454,102.282-31.479c69.055-7.026,127.98,50.687,169.244,71.86c41.265,21.176,75.512-9.424,86.512,9.904
		c11.001,19.329,7.13,62.57,13.948,94.902c6.816,32.334,37.549,79.54,87.228,79.022c49.68-0.516,77.662,16.476,105.992,26.98
		c28.329,10.509,101.533,5.427,137.134-7.902c35.602-13.332,79.522-22.431,123.465-16.405c43.94,6.022,76.191-8.523,114.953-20.183
		c38.763-11.659,73.513,6.171,103.681-1.078s40.953-8.609,66.96-0.694c26.004,7.916,38.45,7.386,52.331-32.52
		c13.882-39.91,11.674-44.375,41.815-54.326C2276.453,1726.809,2308.581,1717.516,2326.829,1698.041z"/>
	<path stroke="#000000" stroke-width="30" stroke-linecap="round" stroke-linejoin="round" stroke-miterlimit="10" d="
		M696.038,1579.05c-30.492,20.602,52.189,55.895,65.338,73.985c13.148,18.09,73.494,4.501,97.636,40.975
		c24.141,36.473,4.262,73.129,38.23,80.475c33.97,7.344,66.09-19.824,78.941-30.305c12.853-10.478,48.359-32.479,46.849-64.997
		c-1.51-32.518-69.219-8.92-93.073-17.814c-23.856-8.892-45.72-52.212-70.853-71.224c-25.135-19.009-48.706-57.646-83.473-48.646
		C740.87,1550.501,722.016,1561.497,696.038,1579.05z"/>
	<path fill="none" stroke="#000000" stroke-width="30" stroke-linecap="round" stroke-linejoin="round" stroke-miterlimit="10" d="
		M1019.698,1355.347c-19.357,11.001-41.025,4.529-62.399,26.461c-21.374,21.934-27.677,39.048-42.528,65.241"/>
	<path fill="none" stroke="#000000" stroke-width="30" stroke-linecap="round" stroke-linejoin="round" stroke-miterlimit="10" d="
		M893.781,1401.96c-22.455,21.895-35.167,52.271-39.206,76.074c-4.041,23.803,82.49,35.558,91.39,60.461
		c8.9,24.906-27.939,31.769-45.06,38.425"/>
	<path fill="none" stroke="#000000" stroke-width="30" stroke-linecap="round" stroke-linejoin="round" stroke-miterlimit="10" d="
		M272.001,1124.794c30.203-3.938,62.768,11.611,77.76-0.809s30.134-10.481,51.724-11.754c21.588-1.273,29.929-30.256,51.51-32.234"
		/>
	<path fill="none" stroke="#000000" stroke-width="30" stroke-linecap="round" stroke-linejoin="round" stroke-miterlimit="10" d="
		M402.572,1217.023c34.605,3.962,64.396-39.552,83.902-33.274c19.509,6.277,35.011,42.839,30.847,58.005"/>
	<path fill="none" stroke="#000000" stroke-width="30" stroke-linecap="round" stroke-linejoin="round" stroke-miterlimit="10" d="
		M584.479,1468.184c3.981-32.75,53.504-44.065,53.436-52.704c-0.066-8.641,41.063-45.911,56.306-11.447"/>
	<path fill="none" stroke="#000000" stroke-width="30" stroke-linecap="round" stroke-linejoin="round" stroke-miterlimit="10" d="
		M796.146,1257.019c-13.351-37.465,18.754-86.578,41.311-88.346c22.56-1.768,37.344-25.682,30.706-45.055
		c-6.637-19.373-7.816-58.568,10.853-66.162"/>
	<path fill="none" stroke="#000000" stroke-width="30" stroke-linecap="round" stroke-linejoin="round" stroke-miterlimit="10" d="
		M1887.745,907.739c-3.982,32.51-12.377,56.24,11.575,74.412c23.952,18.174,28.496,39.729,56.665,48.076"/>
	<path fill="none" stroke="#000000" stroke-width="30" stroke-linecap="round" stroke-linejoin="round" stroke-miterlimit="10" d="
		M2032.187,1087.415c19.665,21.746,30.938,66.99,52.674,79.729c21.734,12.734,37.748-1.044,62.161,7.669
		c24.417,8.712,39.998,52.993,74.439,41.213"/>
	<path fill="none" stroke="#000000" stroke-width="30" stroke-linecap="round" stroke-linejoin="round" stroke-miterlimit="10" d="
		M1030.764,655.767c22.788,10.12,47.395,27.822,49.501,54.465s38.37,7.426,53.748,6.966"/>
	<path fill="none" stroke="#000000" stroke-width="30" stroke-linecap="round" stroke-linejoin="round" stroke-miterlimit="10" d="
		M1081.157,796.146c-13.457-15.916-20.032-25.116-49.246-29.899c-29.212-4.782-25.082-23.147-31.747-40.919"/>
	<path fill="none" stroke="#000000" stroke-width="30" stroke-linecap="round" stroke-linejoin="round" stroke-miterlimit="10" d="
		M1114.473,915.771c-14.85,26.144-33.999,54.359-14.48,61.751c19.521,7.39,48.762-10.262,65.473-0.682"/>
	<path fill="none" stroke="#000000" stroke-width="30" stroke-linecap="round" stroke-linejoin="round" stroke-miterlimit="10" d="
		M1574.231,1293.42c4.829,51.796,30.705,74.124,26.765,97.429c-3.936,23.306-3.613,48.988-25.13,60.133"/>
	<path stroke="#000000" stroke-width="30" stroke-linecap="round" stroke-linejoin="round" stroke-miterlimit="10" d="
		M1027.126,1990.24c-29.196-2.937-71.184,10.462-103.286,39.959c-32.1,29.501-71.05,23.425-126.19,18.645
		c-55.14-4.776-58.168,15.679-97.169-42.248c-39-57.925-82.236-70.44-95.296-79.729c-13.059-9.287-39.289-38.775-49.349-71.078
		l103.386,11.74c33.29,6.499,57.924,38.575,75.952,58.673c18.03,20.1,94.16,41.987,114.515,40.157
		c20.353-1.828,48.275-8.612,68.718-8.818C941.249,1957.308,1027.126,1990.24,1027.126,1990.24z"/>
</g>
</svg>
