<?xml version="1.0" encoding="utf-8"?>
<!-- Generator: Adobe Illustrator 16.0.0, SVG Export Plug-In . SVG Version: 6.00 Build 0)  -->
<!DOCTYPE svg PUBLIC "-//W3C//DTD SVG 1.1//EN" "http://www.w3.org/Graphics/SVG/1.1/DTD/svg11.dtd">
<svg version="1.1" id="Layer_1" xmlns="http://www.w3.org/2000/svg" xmlns:xlink="http://www.w3.org/1999/xlink" x="0px" y="0px"
	 width="2400px" height="2880px" viewBox="0 0 2400 2880" enable-background="new 0 0 2400 2880" xml:space="preserve">
<g>
	<g>
		<path d="M85.481,2739.521c-5.721,36.961-14.96,78.322-24.2,105.602c-3.96-1.76-12.761-5.279-17.601-7.041
			c10.561-27.279,18.04-66.439,23.32-102.08L85.481,2739.521z M173.481,2621.162c13.641,28.16,26.841,64.68,31.681,86.24l-18.04,6.6
			c-1.32-6.6-3.521-14.52-6.16-23.32c-107.36,16.281-119.681,19.361-127.161,23.32c-1.319-4.84-4.399-14.959-6.6-20.24
			c7.92-1.76,18.04-13.639,30.8-29.92c7.48-8.801,23.761-30.801,41.801-58.52c-53.681,6.6-62.921,8.359-68.641,11
			c-1.32-4.4-3.96-14.521-6.601-20.24c6.601-1.32,14.521-11,23.761-24.641c9.68-13.199,42.24-65.121,61.16-113.08l19.36,8.359
			c-21.12,44.881-47.08,90.641-73.041,124.961l56.32-4.84c11.881-19.359,23.761-40.48,33.881-61.16l18.92,9.68
			c-31.24,55-66.44,109.561-102.521,151.801l92.84-12.76c-5.279-16.721-11.88-33.441-18.92-47.961L173.481,2621.162z
			 M129.922,2734.682c5.279,29.922,11,68.641,12.319,94.162l-18.04,3.959c-0.88-25.959-6.16-65.121-11-94.6L129.922,2734.682z
			 M177.441,2725.002c11,27.281,22.44,62.92,27.28,85.801l-17.16,5.279c-4.84-23.318-16.28-58.959-25.96-86.24L177.441,2725.002z
			 M437.483,2823.123H256.643v33.439h-19.801v-269.281c-9.68,15.84-20.24,30.801-31.24,44.441c-2.64-4.4-8.8-12.762-12.76-16.721
			c34.76-40.92,64.24-103.84,79.2-153.561l21.12,5.279c-7.92,22.881-18.04,47.08-29.479,71.281h167.641v19.799h-80.961v66.002
			h72.601v19.799h-72.601v67.76h73.48v19.801h-73.48v72.16h87.121V2823.123z M330.562,2557.801h-73.92v66.002h73.92V2557.801z
			 M330.562,2643.602h-73.92v67.76h73.92V2643.602z M256.643,2803.322h73.92v-72.16h-73.92V2803.322z M342.883,2529.641
			c-5.721-16.279-19.36-42.68-29.92-61.6l18.04-7.041c11.439,19.361,24.64,44.441,30.359,60.281L342.883,2529.641z"/>
		<path d="M779.803,2690.242c24.2,33.881,65.12,64.24,104.721,78.32c-4.84,3.961-11,11-14.521,16.279
			c-43.12-17.6-87.12-54.559-112.641-94.6H610.401c-26.399,42.24-72.16,80.961-113.521,100.76c-3.52-5.279-9.68-12.318-14.96-16.279
			c38.721-15.84,79.641-48.84,105.601-84.48H486.761v-18.92h89.32v-146.521h-70.4v-18.92h70.4v-47.961h21.12v47.961h172.481v-47.52
			h21.12v47.52h69.96v18.92h-69.96v146.521h88v18.92H779.803z M692.242,2825.764h156.201v18.92H518.001v-18.92h153.561v-57.201
			h-97.24v-18.92h97.24v-42.68h20.681v42.68h99.44v18.92h-99.44V2825.764z M597.201,2524.801v35.641h172.481v-35.641H597.201z
			 M597.201,2615.441h172.481v-37.4H597.201V2615.441z M597.201,2671.322h172.481v-38.281H597.201V2671.322z"/>
		<path d="M1130.922,2503.682c-5.72,24.639-12.32,52.799-18.479,74.801h154.001v279.4h-21.561v-29.92h-238.481v29.92h-20.68v-279.4
			h106.04c5.72-21.561,11.88-50.602,15.4-74.801H932.041v-20.68h381.042v20.68H1130.922z M1244.883,2598.721h-238.481v92.842
			h238.481V2598.721z M1244.883,2807.723v-95.92h-238.481v95.92H1244.883z"/>
		<path d="M1464.442,2612.801c14.08,16.281,54.12,69.521,63.8,83.162l-14.08,16.719c-8.359-15.84-33-52.799-49.72-76.119v219.121
			h-20.681v-216.041c-19.8,50.16-47.52,102.08-73.48,131.561c-2.199-5.721-7.92-13.641-11.88-18.041
			c29.92-32.561,63.801-95.92,82.28-150.92h-75.24v-20.24h78.32v-76.561c-22.439,4.84-46.2,8.799-67.32,12.32
			c-1.319-4.84-4.399-11.881-7.04-16.721c49.28-8.359,108.241-20.68,139.921-35.641l14.08,17.16
			c-16.28,6.6-36.521,12.76-58.96,18.041v81.4h69.521v20.24h-69.521V2612.801z M1704.243,2738.643v117.48h-20.68v-114.4
			l-150.48,23.32l-3.521-19.801l154.001-23.76V2457.92h20.68v260.482l56.32-8.801l3.08,19.361L1704.243,2738.643z
			 M1633.843,2680.562c-17.6-18.92-52.8-45.76-82.72-62.92l12.76-12.762c29.92,16.721,66,42.682,83.16,61.162L1633.843,2680.562z
			 M1642.644,2564.402c-14.521-18.041-46.641-43.561-73.48-60.281l13.2-13.199c27.72,15.84,59.399,40.479,74.36,58.52
			L1642.644,2564.402z"/>
	</g>
	<g>
		<path d="M1987.179,2848.01h-81.475v-223.066l0.791-36.65l1.318-40.078c-13.539,13.539-22.939,22.412-28.213,26.631l-44.297,35.596
			l-39.287-49.043l124.189-98.877h66.973V2848.01z"/>
		<path d="M2234.239,2601.74c37.264,0,66.928,10.461,88.988,31.377c22.059,20.922,33.092,49.57,33.092,85.957
			c0,43.07-13.275,76.201-39.814,99.404c-26.545,23.203-64.514,34.805-113.906,34.805c-42.893,0-77.52-6.941-103.887-20.83v-70.4
			c13.883,7.383,30.059,13.406,48.516,18.062c18.457,4.658,35.945,6.986,52.471,6.986c49.742,0,74.619-20.389,74.619-61.172
			c0-38.846-25.754-58.271-77.256-58.271c-9.32,0-19.604,0.924-30.85,2.77c-11.252,1.846-20.395,3.822-27.422,5.932l-32.432-17.402
			l14.502-196.436h209.092v69.082h-137.637l-7.119,75.674l9.229-1.846C2205.144,2602.973,2218.419,2601.74,2234.239,2601.74z"/>
	</g>
</g>
<g>
	<path stroke="#000000" stroke-width="30" stroke-linecap="round" stroke-linejoin="round" stroke-miterlimit="10" d="
		M2253.657,1517.326c-4.461-36.677,38.11-74.932,21.708-94.204c-16.403-19.272-0.438-42.123-23.223-51.607
		c-22.782-9.485-22.649,3.476-44.991,36.115c-22.349,32.638-71.214,84.994-70.544,110.913c0.669,25.919-5.837,58.395-24.896,78.034
		c-19.058,19.642-3.203,42.164,13.524,64.672c16.729,22.513-16.14,55.262,13.627,74.395c29.766,19.135,48.028-94.479,70.476-117.395
		c22.446-22.919,54.938-29.736,74.101-49.379c19.157-19.646,28.702-52.151-0.539-51.85
		C2253.657,1517.326,2257.201,1546.457,2253.657,1517.326z"/>
	<path fill="none" stroke="#000000" stroke-width="30" stroke-linecap="round" stroke-linejoin="round" stroke-miterlimit="10" d="
		M1634.711,1097.304c-34.124-56.047-43.714-42.985-44.152-85.108c-0.438-42.123-39.051-15.797-58.896-54.479
		c-19.847-38.682-65.547-70.612-72.531-119.148c-6.987-48.538,5.941-51.913-30.207-100.146
		c-36.149-48.233-49.312-67.541-82.118-106.088c-32.808-38.547-20.314-22.474-59.148-47.994
		c-38.834-25.522-61.516-25.287-113.73-60.392c-52.214-35.105-23.119-41.89-97.951-70.275
		c-74.826-28.39-127.043-63.494-169.47-92.219c-42.428-28.726-3.308-6.446-55.085,0.573c-51.777,7.018-48.369,23.187-90.492,23.623
		c-42.125,0.438-50.53,32.933-76.942,33.205c-26.41,0.275-26.578-15.927-58.611,20.056c-32.033,35.979-35.104,52.213-83.675,55.96
		c-48.571,3.742-47.896,68.551-112.468,91.906c-64.57,23.354-154.994,53.461-161.174,82.688
		c-6.179,29.229-25.452,45.381-57.671,63.666c-32.217,18.284-12.201,73.167-41.096,99.394
		c-28.895,26.225-5.639,81.072-50.565,123.668c-44.926,42.597-66.732,127.078-33.792,178.588
		c32.941,51.508,81.715,67.203,117.829,112.197c36.115,44.993,10.193,45.264,23.424,71.049c13.229,25.791,9.76,3.533,26.227,29.091
		c16.469,25.561-6.244,22.721,6.918,41.943c13.162,19.227,16.335,12.708,32.907,48.186c16.57,35.475,3.609,35.608,20.115,64.604
		c16.504,28.994,45.464,9.251,45.634,25.452c0.167,16.199,7.892,31.399,25.312,44.643c17.418,13.245,36.86,13.043,59.912,48.451
		c23.052,35.407,16.908,67.877,36.652,96.838c19.745,28.962,61.768,18.802,65.379,54.411c3.609,35.609,0.538,51.846,10.596,84.146
		c10.06,32.303,36.29,61.791,49.35,71.079s56.296,21.804,95.295,79.729c39.002,57.926,42.028,37.471,97.169,42.247
		c55.142,4.781,94.092,10.856,126.19-18.644c32.103-29.498,74.09-42.896,103.286-39.96c29.196,2.938,48.401-19.945,74.123-39.657
		c25.722-19.711,2.803-42.155,35.172-45.732c32.37-3.578,38.849-3.646,67.943-10.429c29.098-6.783,13.252-9.858,55.047-23.258
		c55.356-17.744,25.931,19.175,55.124,22.113c29.198,2.937,45.23-13.435,77.768-0.81c32.538,12.626,74.997,44.59,126.943,53.772
		c51.948,9.181,49.008,38.379,91.336,57.385c42.324,19.002,58.761,41.516,120.259,34.397c61.501-7.12,90.495-23.627,142.238-33.886
		c51.744-10.26,54.748-32.976,126.035-33.716c71.285-0.739,51.789-5.891,93.757-21.474c41.965-15.584,48.794,17.881,74.523-0.774
		c25.731-18.656,12.125-50.922,38.136-57.672c26.01-6.751,29.079-22.988,57.571-88.095c28.487-65.111,54.274-78.341,63.728-104.365
		c9.449-26.022-0.302-29.16-1.008-97.206c-0.711-68.047-4.795-45.319,3.139-113.456c7.937-68.136-29.611-67.745-28.962-96.918
		c0.648-29.174-16.021-74.37-26.081-106.67c-10.057-32.302-46.582-87.015-76.163-141.798c-29.58-54.783-39.639-87.085-55.84-86.918
		c-16.2,0.17-61.53,3.881-68.35-28.455c-6.815-32.335-19.576-12.759-45.531-15.729c-25.958-2.972-42.358-22.245-58.896-54.479
		c-16.54-32.235-22.984-28.926-42.527-38.445c-19.543-9.521-45.635-25.452-81.211-18.602c-35.574,6.851-39.116,42.535-58.154,49.214
		s-60.961,26.559-92.859,75.498c-31.896,48.941-63.931,84.921-99.438,98.252c-35.51,13.332-38.75,13.365-61.229,33.043
		c-22.479,19.677-42.604,41.701-55.317,65.596c-12.711,23.896-14.328,76.594-16.162,107.518c-1.84,30.923-1.293,83.466-11.939,98.35
		"/>
	<path fill="none" stroke="#000000" stroke-width="30" stroke-linecap="round" stroke-linejoin="round" stroke-miterlimit="10" d="
		M1948.307,1134.862c-15.765,42.293-54.683,39.455-86.716,75.437c-32.032,35.979-53.704,133.592-82.563,162.971
		c-28.857,29.385-54.747,32.894-86.816,65.634c-32.062,32.739-77.494,26.729-73.954,55.857c3.544,29.13,68.315,25.218,97.211-1.01"
		/>
	<path fill="none" stroke="#000000" stroke-width="30" stroke-linecap="round" stroke-linejoin="round" stroke-miterlimit="10" d="
		M2024.18,1263.699c-2.77,45.398-16.168,3.409-41.755,36.081c-25.585,32.674-40.944,113.848-76.319,140.143
		c-35.373,26.291-80.9,26.766-121.055,53.105c-40.15,26.343-62.564,52.5-84.875,88.379"/>
	<path fill="none" stroke="#000000" stroke-width="30" stroke-linecap="round" stroke-linejoin="round" stroke-miterlimit="10" d="
		M1875.906,1456.438c0,0,4.849,38.838-27.186,74.818c-32.031,35.979-45.156,36.115-62.561,68.701
		c-17.402,32.589-17.271,45.548-46.264,62.053c-28.994,16.506-64.255,53.742-70.455,80.74c-6.201,26.998-32.42,30.512-48.422,33.919
		c-16.002,3.406-25.58,48.876,0.539,51.842c26.12,2.974,58.424-7.083,80.834-33.243c22.413-26.158,54.282-62.139,85.079-68.938"/>
	<path fill="none" stroke="#000000" stroke-width="30" stroke-linecap="round" stroke-linejoin="round" stroke-miterlimit="10" d="
		M630.86,967.073c-6.941-29.772,2.735-48.64,15.428-74.695s-2.498-22.658,42.274-32.846c44.774-10.188,93.412-7.451,119.959,52.224
		c26.545,59.677-24.93,95.859-50.72,109.089c-25.786,13.23-21.355,71.519-32.854,84.599c-11.498,13.082-33.472-12.614-34.266-41.772
		c-0.792-29.157-29.995-32.89-39.947-55.073S637.645,996.167,630.86,967.073z"/>
	<path fill="none" stroke="#000000" stroke-width="30" stroke-linecap="round" stroke-linejoin="round" stroke-miterlimit="10" d="
		M1146.509,900.145c-0.337-32.402-6.816-32.336,22.312-35.879c29.129-3.544,39.476,19.033,74.905,17.045
		c35.434-1.987,38.598-9.138,61.183-18.775c22.586-9.639,54.487,28.036,69.309-0.721"/>
	<path fill="none" stroke="#000000" stroke-width="30" stroke-linecap="round" stroke-linejoin="round" stroke-miterlimit="10" d="
		M1211.941,940.749c21.6-0.225,12.85-10.937,37.709-9.033c24.861,1.902,35.863,21.23,55.171,8.069"/>
	<path fill="none" stroke="#000000" stroke-width="30" stroke-linecap="round" stroke-linejoin="round" stroke-miterlimit="10" d="
		M1460.044,1117.469c14.915-19.597,16.981-17.46,42.803-32.848c25.82-15.391,32.302-15.458,40.693-39.307
		c8.396-23.853,15.629-66.75,27.481-60.864"/>
	<path fill="none" stroke="#000000" stroke-width="30" stroke-linecap="round" stroke-linejoin="round" stroke-miterlimit="10" d="
		M1083.561,851.244c15.412,28.031-21.846-23.426,14.424-67.007c36.271-43.582,30.248-50,51.404-67.501
		c21.16-17.502,51.603,1.624,81.817-0.852c30.221-2.474,58.188-13.564,71.414,12.221c13.231,25.784,44.843,34.787,59.522,53.73
		c14.682,18.945,53.537,16.381,56.033,48.759s-8.381,24.751-8.142,48.062"/>
	<path fill="none" stroke="#000000" stroke-width="30" stroke-linecap="round" stroke-linejoin="round" stroke-miterlimit="10" d="
		M633.326,555.762c23.76-0.247,49.566-11.315,69.118-0.719c19.552,10.6,21.913,30.018,52.131,27.541
		c30.219-2.473,32.856-22.902,57.244-33.477c24.386-10.575,19.932-23.49,15.388-45.045c-4.545-21.556-45.83-44.891-71.751-44.618
		c-25.92,0.27-39.217-31.997-88.56,0.919c-49.343,32.917-27.676,39.172-19.014,41.24"/>
	<path fill="none" stroke="#000000" stroke-width="30" stroke-linecap="round" stroke-linejoin="round" stroke-miterlimit="10" d="
		M397.95,772.066c23.625-13.207,53.378-60.363,75.03-55.525c21.65,4.838,23.911,14.493,49.961,26.665
		c26.049,12.171,39.166,27.157,65.086,26.887c25.921-0.27,38.812-6.884,69.119-0.718c30.307,6.165,83.933-30.439,105.271-55.842
		c21.339-25.402,51.521-51.639,69.931-36.708s37.857,15.33,29.508,43.198c-8.353,27.868-3.693,40.154-28.558,48.286"/>
	<path fill="none" stroke="#000000" stroke-width="30" stroke-linecap="round" stroke-linejoin="round" stroke-miterlimit="10" d="
		M911.406,1123.169c1.937-21.622,3.88-42.412,23.215-52.75c19.334-10.34,58.319-0.607,62.912,25.6"/>
	<path fill="none" stroke="#000000" stroke-width="30" stroke-linecap="round" stroke-linejoin="round" stroke-miterlimit="10" d="
		M979.561,1029.572c1.869-28.104-4.88-53.956,16.653-60.661c21.532-6.703,42.938-25.431,58.425,9.584
		c15.485,35.016,17.735,43.631,15.756,60.935"/>
	<path fill="none" stroke="#000000" stroke-width="30" stroke-linecap="round" stroke-linejoin="round" stroke-miterlimit="10" d="
		M939.355,902.296c6.302-17.105,36.282-42.438,55.966-19.331"/>
	<path fill="none" stroke="#000000" stroke-width="30" stroke-linecap="round" stroke-linejoin="round" stroke-miterlimit="10" d="
		M1147.152,1021.351c24.716,12.705,29.968,29.269,50.146,32.63c20.177,3.363,39.056-50.839,53.185-42.345
		c14.131,8.493,31.584,24.931,23.114,41.552"/>
	<path fill="none" stroke="#000000" stroke-width="30" stroke-linecap="round" stroke-linejoin="round" stroke-miterlimit="10" d="
		M691.91,1181.613c25.997,29.974,43.457,47.074,54.525,72.882c11.068,25.809,26.232,29.971,45.809,42.729
		c19.572,12.759,39.113,22.035,50.075,37.701"/>
	<path fill="none" stroke="#000000" stroke-width="30" stroke-linecap="round" stroke-linejoin="round" stroke-miterlimit="10" d="
		M841.587,1264.307c10.552-23.871,3.827-38.925,27.654-37.011c23.825,1.913,24.048,23.308,43.434,17.81
		c19.383-5.5,15.109-1.136,29.894-33.691"/>
	<path fill="none" stroke="#000000" stroke-width="30" stroke-linecap="round" stroke-linejoin="round" stroke-miterlimit="10" d="
		M969.96,1145.025c14.998-11.819,48.4,15.916,56.73,20.147c8.327,4.235,19.09,0.222,36.118-23.929
		c17.03-24.147,23.579-17.734,38.676-20.051"/>
	<path fill="none" stroke="#000000" stroke-width="30" stroke-linecap="round" stroke-linejoin="round" stroke-miterlimit="10" d="
		M1825.08,1113.675c-6.1,36.789-12.294,64.377-29.446,76.718c-17.153,12.338-32.062,51.375-59.1,38.694
		c-27.039-12.68-27.031,17.156-39.624,38.013c-12.596,20.858-21.033,40.387-44.702,49.272
		c-23.672,8.887-60.748-25.291-86.713-29.342c-25.966-4.052-49.201,43.715-46.857,63.132"/>
	<path fill="none" stroke="#000000" stroke-width="30" stroke-linecap="round" stroke-linejoin="round" stroke-miterlimit="10" d="
		M1185.727,1120.318c-19.33,11.002-31.498,37.05-36.957,56.55"/>
	<path fill="none" stroke="#000000" stroke-width="30" stroke-linecap="round" stroke-linejoin="round" stroke-miterlimit="10" d="
		M1239.292,1286.098c19.665,21.399,65.654,81.407,87.252,81.183c21.601-0.225,65.099,28.112,82.712,59.979"/>
	<path fill="none" stroke="#000000" stroke-width="30" stroke-linecap="round" stroke-linejoin="round" stroke-miterlimit="10" d="
		M1378.096,1234.972c14.221,17.134,16.379,17.111,29.676,49.375c13.297,32.267,7.412,34.487,16.103,66.802"/>
	<path fill="none" stroke="#000000" stroke-width="30" stroke-linecap="round" stroke-linejoin="round" stroke-miterlimit="10" d="
		M1441.49,1799.009c16.824-16.177,18.869-27.166,35.869-54.262c17-27.097,16.933-33.576,55.834-31.821
		c38.902,1.755,34.377-18.11,53.787-21.312c19.405-3.208,36.498-21.413,46.897-60.033"/>
	<path fill="none" stroke="#000000" stroke-width="30" stroke-linecap="round" stroke-linejoin="round" stroke-miterlimit="10" d="
		M1189.091,1444.316c25.897-2.432,76.185,25.131,91.372,46.574c15.184,21.445,41.52,60.939,76.184,70.938
		c34.67,9.998,99.521,14.487,138.635,36.341"/>
	<path fill="none" stroke="#000000" stroke-width="30" stroke-linecap="round" stroke-linejoin="round" stroke-miterlimit="10" d="
		M697.114,1682.567c38.563,15.805,84.394,60.073,94.487,95.927c10.096,35.855,21.87,32.703,56.452,30.618"/>
	<path fill="none" stroke="#000000" stroke-width="30" stroke-linecap="round" stroke-linejoin="round" stroke-miterlimit="10" d="
		M698.455,1811.577c28.848,16.505,49.528,65.559,75.304,86.026c25.774,20.466,45.795,30.573,74.687,26.734
		c28.889-3.838,36.72-14.438,27.641-38.249"/>
	<path fill="none" stroke="#000000" stroke-width="30" stroke-linecap="round" stroke-linejoin="round" stroke-miterlimit="10" d="
		M243.179,1082.178c32.126-27.151,57.65-65.72,89.95-76.069c32.298-10.352,46.273-17.077,43.607-65.609"/>
	<path fill="none" stroke="#000000" stroke-width="30" stroke-linecap="round" stroke-linejoin="round" stroke-miterlimit="10" d="
		M202.84,942.305c25.788-13.18,73.059-59.043,106.161-33.46"/>
	<path fill="none" stroke="#000000" stroke-width="30" stroke-linecap="round" stroke-linejoin="round" stroke-miterlimit="10" d="
		M965.854,749.712c-32.796-15.862-75.511-72.476-46.404-78.274c29.105-5.802,44.755,1.793,87.17-0.906
		c42.419-2.698,30.678-77.111,55.603-77.37c24.925-0.261,62.209,67.405,80.849,34.806c18.637-32.601,68.444-59.043,89.008-36.57"/>
	<path fill="none" stroke="#000000" stroke-width="30" stroke-linecap="round" stroke-linejoin="round" stroke-miterlimit="10" d="
		M1320.896,1031.417c20.465,12.533,60.207,32.664,77.684,30.312c17.476-2.352,35.927-27.625,60.236-62.325
		c24.309-34.7,35.312-36.835,42.269-84.507c2.037-13.974-23.466,23.093-51.497,27.806c-28.036,4.713-36.812-8.36-56.23-6.09
		c-19.42,2.27-34.426,13.409-27.683,38.651"/>
	<path fill="none" stroke="#000000" stroke-width="30" stroke-linecap="round" stroke-linejoin="round" stroke-miterlimit="10" d="
		M1502.848,1084.621c20.645,22.249,31.493,28.419,52.297,54.229"/>
	<path fill="none" stroke="#000000" stroke-width="30" stroke-linecap="round" stroke-linejoin="round" stroke-miterlimit="10" d="
		M522.941,743.206c-38.504,36.603-72.321,108.368-35.411,126.283c36.909,17.915,88.208-34.683,110.032-13.196
		c21.825,21.484-46.666,82.499-20.679,88.802"/>
	<path fill="none" stroke="#000000" stroke-width="30" stroke-linecap="round" stroke-linejoin="round" stroke-miterlimit="10" d="
		M161.471,882.167c38.569-30.274,46.185-72.026,78.512-107.692c32.33-35.664,54.351,4.643,105.958-18.321
		c51.605-22.966,59.662-79.214,102.639-101.264"/>
	<path fill="none" stroke="#000000" stroke-width="30" stroke-linecap="round" stroke-linejoin="round" stroke-miterlimit="10" d="
		M1185.537,1226.013c56.089,15.39,79.693,31.874,124.427,23.754c44.732-8.12,81.271-36.17,122.695-51.729"/>
	<path fill="none" stroke="#000000" stroke-width="30" stroke-linecap="round" stroke-linejoin="round" stroke-miterlimit="10" d="
		M2184.812,1250.354c-40.486,26.343-35.822,59.535-61.625,71.266c-25.801,11.73-43.004,19.228-60.479,0.628"/>
	<path fill="none" stroke="#000000" stroke-width="30" stroke-linecap="round" stroke-linejoin="round" stroke-miterlimit="10" d="
		M1865.304,1723.61c-1.88-37.876,54.054-60.38,75.724-53.964c21.668,6.414,55.551-59.089,55.216-91.315"/>
	<path fill="none" stroke="#000000" stroke-width="30" stroke-linecap="round" stroke-linejoin="round" stroke-miterlimit="10" d="
		M1832.521,1830.089c45.074-27.851,75.035-55.01,109.511-63.547c34.476-8.535,32.202,3.522,87.36-0.906
		c55.156-4.431,74.447,8.025,99.338-0.721"/>
	<path stroke="#000000" stroke-width="30" stroke-linecap="round" stroke-linejoin="round" stroke-miterlimit="10" d="
		M605.186,1926.866c-13.06-9.287-39.289-38.775-49.35-71.078c-10.057-32.301-6.984-48.537-10.596-84.146
		c-3.611-35.61-45.633-25.45-65.379-54.411c-19.743-28.962-13.6-61.431-36.652-96.836c-23.052-35.408-42.494-35.207-59.912-48.453
		c-17.42-13.242-25.143-28.442-25.312-44.642c-0.168-16.202-29.128,3.542-45.634-25.453c-16.505-28.993-3.543-29.129-20.114-64.603
		c-16.572-35.479-19.744-28.961-32.907-48.186c-13.16-19.224,9.552-16.386-6.918-41.943c-16.467-25.559-12.997-3.301-26.227-29.09
		c-13.229-25.788,12.691-26.057-23.423-71.051c-36.115-44.994-84.888-60.689-117.83-112.197
		c1.536-106.795,53.869-117.812,76.536-119.373c22.67-1.562,58.196-13.104,81.71,66.772c23.514,79.877,42.924,76.518,72.423,108.574
		c29.499,32.062-38.167,69.391,1.167,112.241c39.332,42.851,57.446,26.458,95.594,55.227c38.146,28.771,59.064,18.831,92.736,60.609
		c33.672,41.779,33.092,83.913,77.547,102.896c44.453,18.982,46.209-39.366,72.84-13.72c26.63,25.647,54.999,27.665,31.447,60.783
		c-23.552,33.113-69.212,7.662-68.861,40.066c0.35,32.399,23.415,28.921,23.609,67.809c0.198,38.885,38.41,52.672,47.166,76.273
		c8.756,23.604,4.717,31.352-30.813,0.321c-35.53-31.027-64.199,21.12-54.152,50.184c10.047,29.059,51.322,31.571,55.342,64.087
		C663.237,1900.041,636.576,1909.561,605.186,1926.866z"/>
	<path stroke="#000000" stroke-width="30" stroke-linecap="round" stroke-linejoin="round" stroke-miterlimit="10" d="
		M2326.829,1698.041c-9.452,26.024-35.238,39.257-63.728,104.365c-28.49,65.105-31.562,81.344-57.57,88.095
		c-26.01,6.752-12.402,39.016-38.135,57.672c-25.729,18.655-32.559-14.808-74.525,0.774c-41.967,15.583-22.472,20.733-93.756,21.474
		c-71.286,0.74-74.29,23.456-126.035,33.716c-51.743,10.26-80.737,26.766-142.237,33.885c-61.498,7.119-77.935-15.394-120.26-34.396
		c-42.327-19.006-39.388-48.202-91.335-57.385c-51.946-9.183-94.405-41.146-126.943-53.771
		c-32.537-12.626-48.568,3.745-77.769,0.809c-29.193-2.938,0.233-39.857-55.123-22.113c-41.795,13.4-25.95,16.475-55.047,23.259
		c-29.095,6.783-35.574,6.851-67.944,10.429c-32.368,3.577-9.45,26.021-35.171,45.733c-25.722,19.71-44.927,42.593-74.124,39.657
		c-29.195-2.938-71.184,10.46-103.285,39.958c-7.644-34.729-5.861-66.456-4.118-106.601c1.743-40.141-19.459-51.972,6.915-87.267
		c26.375-35.288,54.41-39.902,88.901-46.743c34.492-6.836,10.463-32.508-0.673-64.799c-11.137-32.287,1.283-84.261,25.899-106.115
		c24.616-21.858,33.229-24.454,102.282-31.479c69.055-7.026,127.98,50.687,169.244,71.859c41.266,21.177,75.512-9.424,86.512,9.904
		c11.001,19.329,7.131,62.57,13.948,94.902c6.815,32.334,37.549,79.54,87.228,79.021c49.681-0.516,77.662,16.477,105.992,26.98
		c28.329,10.509,101.533,5.427,137.135-7.902c35.602-13.332,79.521-22.431,123.465-16.405c43.939,6.022,76.19-8.522,114.953-20.183
		c38.763-11.659,73.513,6.171,103.681-1.078s40.952-8.609,66.96-0.693c26.004,7.916,38.449,7.386,52.331-32.521
		c13.882-39.91,11.674-44.375,41.814-54.326C2276.453,1726.809,2308.581,1717.516,2326.829,1698.041z"/>
	<path stroke="#000000" stroke-width="30" stroke-linecap="round" stroke-linejoin="round" stroke-miterlimit="10" d="
		M696.038,1579.05c-30.492,20.603,52.188,55.896,65.338,73.985c13.148,18.09,73.494,4.501,97.636,40.975s4.263,73.129,38.23,80.476
		c33.97,7.344,66.09-19.824,78.94-30.306c12.854-10.478,48.359-32.479,46.85-64.997c-1.511-32.518-69.22-8.92-93.073-17.813
		c-23.855-8.893-45.72-52.212-70.854-71.225c-25.135-19.009-48.705-57.646-83.473-48.646
		C740.87,1550.501,722.016,1561.497,696.038,1579.05z"/>
	<path fill="none" stroke="#000000" stroke-width="30" stroke-linecap="round" stroke-linejoin="round" stroke-miterlimit="10" d="
		M1019.698,1355.347c-19.357,11.001-41.025,4.529-62.399,26.462c-21.374,21.934-27.677,39.048-42.527,65.24"/>
	<path fill="none" stroke="#000000" stroke-width="30" stroke-linecap="round" stroke-linejoin="round" stroke-miterlimit="10" d="
		M893.781,1401.96c-22.455,21.896-35.167,52.271-39.206,76.074c-4.041,23.803,82.489,35.558,91.39,60.461
		c8.9,24.905-27.938,31.769-45.06,38.425"/>
	<path fill="none" stroke="#000000" stroke-width="30" stroke-linecap="round" stroke-linejoin="round" stroke-miterlimit="10" d="
		M272.001,1124.794c30.203-3.938,62.769,11.611,77.76-0.809c14.992-12.42,30.134-10.481,51.725-11.755
		c21.588-1.272,29.929-30.256,51.51-32.233"/>
	<path fill="none" stroke="#000000" stroke-width="30" stroke-linecap="round" stroke-linejoin="round" stroke-miterlimit="10" d="
		M402.572,1217.023c34.604,3.962,64.396-39.553,83.901-33.274c19.51,6.276,35.012,42.839,30.848,58.005"/>
	<path fill="none" stroke="#000000" stroke-width="30" stroke-linecap="round" stroke-linejoin="round" stroke-miterlimit="10" d="
		M584.479,1468.184c3.981-32.75,53.505-44.064,53.437-52.703c-0.066-8.642,41.063-45.911,56.306-11.447"/>
	<path fill="none" stroke="#000000" stroke-width="30" stroke-linecap="round" stroke-linejoin="round" stroke-miterlimit="10" d="
		M796.146,1257.02c-13.352-37.466,18.754-86.578,41.311-88.347c22.56-1.768,37.344-25.682,30.706-45.055
		s-7.816-58.568,10.853-66.162"/>
	<path fill="none" stroke="#000000" stroke-width="30" stroke-linecap="round" stroke-linejoin="round" stroke-miterlimit="10" d="
		M1887.745,907.739c-3.982,32.51-12.377,56.239,11.575,74.412c23.951,18.174,28.496,39.729,56.664,48.075"/>
	<path fill="none" stroke="#000000" stroke-width="30" stroke-linecap="round" stroke-linejoin="round" stroke-miterlimit="10" d="
		M2032.188,1087.415c19.664,21.746,30.938,66.99,52.674,79.729c21.733,12.733,37.748-1.045,62.16,7.668
		c24.418,8.713,39.998,52.993,74.439,41.214"/>
	<path fill="none" stroke="#000000" stroke-width="30" stroke-linecap="round" stroke-linejoin="round" stroke-miterlimit="10" d="
		M1030.764,655.768c22.788,10.119,47.396,27.821,49.501,54.465c2.106,26.643,38.37,7.426,53.748,6.966"/>
	<path fill="none" stroke="#000000" stroke-width="30" stroke-linecap="round" stroke-linejoin="round" stroke-miterlimit="10" d="
		M1081.157,796.146c-13.457-15.916-20.032-25.116-49.246-29.899c-29.212-4.782-25.082-23.147-31.747-40.919"/>
	<path fill="none" stroke="#000000" stroke-width="30" stroke-linecap="round" stroke-linejoin="round" stroke-miterlimit="10" d="
		M1114.473,915.771c-14.85,26.144-33.999,54.358-14.479,61.75c19.521,7.391,48.762-10.262,65.473-0.682"/>
	<path fill="none" stroke="#000000" stroke-width="30" stroke-linecap="round" stroke-linejoin="round" stroke-miterlimit="10" d="
		M1574.23,1293.42c4.83,51.796,30.705,74.124,26.766,97.429c-3.936,23.307-3.613,48.988-25.13,60.134"/>
	<path stroke="#000000" stroke-width="30" stroke-linecap="round" stroke-linejoin="round" stroke-miterlimit="10" d="
		M1027.126,1990.24c-29.196-2.938-71.185,10.462-103.286,39.959c-32.1,29.501-71.05,23.425-126.189,18.645
		c-55.141-4.775-58.168,15.68-97.17-42.248c-39-57.925-82.235-70.439-95.296-79.729c-13.059-9.287-39.288-38.775-49.349-71.078
		l103.386,11.74c33.29,6.499,57.925,38.574,75.952,58.673c18.03,20.1,94.16,41.987,114.516,40.157
		c20.353-1.828,48.274-8.612,68.718-8.818C941.249,1957.308,1027.126,1990.24,1027.126,1990.24z"/>
</g>
</svg>
