<?xml version="1.0" encoding="utf-8"?>
<!-- Generator: Adobe Illustrator 16.0.0, SVG Export Plug-In . SVG Version: 6.00 Build 0)  -->
<!DOCTYPE svg PUBLIC "-//W3C//DTD SVG 1.1//EN" "http://www.w3.org/Graphics/SVG/1.1/DTD/svg11.dtd">
<svg version="1.1" id="Layer_1" xmlns="http://www.w3.org/2000/svg" xmlns:xlink="http://www.w3.org/1999/xlink" x="0px" y="0px"
	 width="2400px" height="2400px" viewBox="0 0 2400 2400" enable-background="new 0 0 2400 2400" xml:space="preserve">
<g id="Layer_1_1_">
	<path fill="none" stroke="#000000" stroke-width="30" stroke-linecap="round" stroke-linejoin="round" stroke-miterlimit="10" d="
		M880.766,2344.005c221.629,51.885,598.335,18.21,738.778-189.292c140.445-207.501,99.183-469.198-29.605-732.849
		c-128.79-263.646-293.052-572.211-261.754-838.275c31.304-266.066,445.738-157.149,369.373,86.302
		c-76.362,243.447-236.787,365.307-524.43,635.964"/>
	<path fill="none" stroke="#000000" stroke-width="30" stroke-linecap="round" stroke-linejoin="round" stroke-miterlimit="10" d="
		M1410.382,1584.685c138.121-185.657,396.558-429.223,488.579-594.282c92.021-165.052,141.563-370.147,102.752-530.654
		c-38.813-160.505-138.582-244.964-241.114-314.788c-102.536-69.82-302.382-122.907-428.948-108.035
		c-126.568,14.872-247.977,54.757-383.396,164.246c-135.423,109.5-359.261,383.547-471.492,817.336
		c-112.232,433.796-127.202,826.972-13.386,1046.664C525.197,2184.49,659.14,2292.121,880.766,2344
		c221.629,51.885,598.335,18.211,738.778-189.292c140.436-207.501,99.177-469.198-29.61-732.85
		c-128.792-263.651-293.051-572.204-261.752-838.275c31.296-266.064,445.737-157.148,369.376,86.304
		c-76.366,243.453-236.791,365.306-524.435,635.968"/>
	<path fill="none" stroke="#000000" stroke-width="30" stroke-linecap="round" stroke-linejoin="round" stroke-miterlimit="10" d="
		M1357.121,1640.862c-79.409,38.635-152.078-52.095-181.397-155.268c-29.322-103.179-13.326-182.177,29.255-209.496"/>
	<g>
		<g>
			<g>
				
					<path fill="none" stroke="#000000" stroke-width="30" stroke-linecap="round" stroke-linejoin="round" stroke-dasharray="31.4356" d="
					M1173.128,1305.854c-7.571,7.116-15.075,14.28-22.511,21.49"/>
			</g>
			<g>
				<g>
					<path fill="none" stroke="#000000" stroke-width="30" stroke-linecap="round" stroke-linejoin="round" d="M1109.132,1368.612
						c-6.942,7.092-13.819,14.214-20.631,21.364"/>
					
						<path fill="none" stroke="#000000" stroke-width="30" stroke-linecap="round" stroke-linejoin="round" stroke-dasharray="56.6807,56.6807" d="
						M1050.301,1431.085c-170.534,188.193-294.594,389.248-347.359,539.441"/>
					<path fill="none" stroke="#000000" stroke-width="30" stroke-linecap="round" stroke-linejoin="round" d="M694.165,1997.176
						c-3.001,9.794-5.663,19.335-7.981,28.604"/>
				</g>
			</g>
			<g>
				
					<path fill="none" stroke="#000000" stroke-width="30" stroke-linecap="round" stroke-linejoin="round" stroke-dasharray="31.3053" d="
					M679.999,2054.249c-1.949,10.688-3.355,20.943-4.211,30.696"/>
			</g>
		</g>
	</g>
	<path fill="none" stroke="#000000" stroke-width="30" stroke-linecap="round" stroke-linejoin="round" stroke-miterlimit="10" d="
		M880.766,2344.005c221.629,51.885,598.335,18.21,738.778-189.292c140.445-207.501,99.183-469.198-29.605-732.849"/>
	<g>
		<g>
			<path fill="none" stroke="#000000" stroke-width="30" stroke-linecap="round" stroke-linejoin="round" stroke-dasharray="60" d="
				M1442.485,2056.821c-6.441-7.54-12.916-15.654-19.316-24.307"/>
			<path fill="none" stroke="#000000" stroke-width="30" stroke-linecap="round" stroke-linejoin="round" stroke-dasharray="60" d="
				M1388.443,1978.129c-49.45-90.635-77.425-214.114-11.824-339.873"/>
			<path fill="none" stroke="#000000" stroke-width="30" stroke-linecap="round" stroke-linejoin="round" stroke-dasharray="60" d="
				M1392.765,1610.275c5.411-8.532,11.272-17.069,17.617-25.591"/>
		</g>
	</g>
	<path fill="none" stroke="#000000" stroke-width="30" stroke-linecap="round" stroke-linejoin="round" stroke-miterlimit="10" d="
		M728.604,2175.853c-49.778-40.425-159.635-171.324,331.945-172.005c491.586-0.675,449.482,146.611,364.136,180.709"/>
	<g>
		<g>
			<path fill="none" stroke="#000000" stroke-width="30" stroke-linecap="round" stroke-linejoin="round" stroke-dasharray="60" d="
				M1204.979,1276.099c9.725-6.241,19.023-10.745,27.918-13.724"/>
			<path fill="none" stroke="#000000" stroke-width="30" stroke-linecap="round" stroke-linejoin="round" stroke-dasharray="60" d="
				M1296.99,1268.206c36.891,20.928,64.298,70.379,86.356,118.021c27.879,60.235,43.764,150.808,17.067,208.972"/>
			<path fill="none" stroke="#000000" stroke-width="30" stroke-linecap="round" stroke-linejoin="round" stroke-dasharray="60" d="
				M1382.14,1622.611c-6.999,7.35-15.295,13.529-25.019,18.251"/>
		</g>
	</g>
	<path fill="none" stroke="#000000" stroke-width="30" stroke-linecap="round" stroke-linejoin="round" stroke-miterlimit="10" d="
		M510.405,2136.355c163.471,131.447,317.64,165.713,361.317-45.128"/>
	<path fill="none" stroke="#000000" stroke-width="30" stroke-linecap="round" stroke-linejoin="round" stroke-miterlimit="10" d="
		M1486.723,2273.203c-156.309,61.926-277.487-46.708-305.233-200.645"/>
	<path fill="none" stroke="#000000" stroke-width="30" stroke-linecap="round" stroke-linejoin="round" stroke-miterlimit="10" d="
		M968.569,266.703c161.042-137.981,358.872-213.532,530.806-154.097"/>
	<path fill="none" stroke="#000000" stroke-width="30" stroke-linecap="round" stroke-linejoin="round" stroke-miterlimit="10" d="
		M1255.551,526.442c47.905-111.452,178.464-180.845,318.524-153.1"/>
	<path fill="none" stroke="#000000" stroke-width="30" stroke-linecap="round" stroke-linejoin="round" stroke-miterlimit="10" d="
		M1800.62,1044.507c-89.06,115.773-119.844,157.078-175.025,207.818"/>
</g>
</svg>
