<?xml version="1.0" encoding="utf-8"?>
<!-- Generator: Adobe Illustrator 16.0.0, SVG Export Plug-In . SVG Version: 6.00 Build 0)  -->
<!DOCTYPE svg PUBLIC "-//W3C//DTD SVG 1.1//EN" "http://www.w3.org/Graphics/SVG/1.1/DTD/svg11.dtd">
<svg version="1.1" id="Layer_1" xmlns="http://www.w3.org/2000/svg" xmlns:xlink="http://www.w3.org/1999/xlink" x="0px" y="0px"
	 width="2400px" height="2400px" viewBox="0 0 2400 2400" enable-background="new 0 0 2400 2400" xml:space="preserve">
<g id="Layer_1_1_">
	<path fill="none" stroke="#000000" stroke-width="30" stroke-linecap="round" stroke-linejoin="round" stroke-miterlimit="10" d="
		M538.952,1028.288c-56.1,107.883-81.992,220.083-94.938,276.181c-9.524,41.271-7.304,141.814,71.376,230.85
		c28.269,31.988,66.409,62.494,117.421,88.229c92.704,46.77,144.492,81.865,157.067,88.723"/>
	<path fill="none" stroke="#000000" stroke-width="30" stroke-linecap="round" stroke-linejoin="round" stroke-miterlimit="10" d="
		M979.119,1697.168c28.073-16.59,93.721-34.361,152.935-54.012c40.911-13.576,78.751-28.051,99.006-43.654
		c52.415-40.375,125.653-133.207,132.127-228.145c3.608-52.928,5.876-136.037-3.666-210.813
		c-7.575-59.349-22.589-113.449-50.276-143.046c-62.572-66.888-19.419-103.568-21.577-112.199"/>
	<path fill="none" stroke="#000000" stroke-width="30" stroke-linecap="round" stroke-linejoin="round" stroke-miterlimit="10" d="
		M447.397,1289.881c1.438-112.2,13.879-341.428,44.086-384.582"/>
	<path stroke="#000000" stroke-width="30" stroke-linecap="round" stroke-linejoin="round" stroke-miterlimit="10" d="
		M547.583,933.35c-24.492,17.812-148.88-77.677-142.407-179.087c6.473-101.411,23.735-159.668,86.307-148.88
		c62.572,10.789,131.618,112.2,135.934,135.934C631.732,765.051,571.317,916.088,547.583,933.35z"/>
	<path stroke="#000000" stroke-width="30" stroke-linecap="round" stroke-linejoin="round" stroke-miterlimit="10" d="
		M1147.417,935.505c-44.744-7.455-127.303-84.147-110.041-174.771c17.261-90.622,94.938-140.248,174.771-131.618
		c79.834,8.631,144.564,135.934,133.776,202.822c-10.789,66.888-79.834,105.722-92.78,103.567
		C1240.197,933.35,1186.255,941.976,1147.417,935.505z"/>
	<path fill="none" stroke="#000000" stroke-width="30" stroke-linecap="round" stroke-linejoin="round" stroke-miterlimit="10" d="
		M690.877,886.187c51.784-25.892,106.997-41.303,152.308-43.46c45.311-2.158,107.883,8.631,135.934,36.681"/>
	<path fill="none" stroke="#000000" stroke-width="30" stroke-linecap="round" stroke-linejoin="round" stroke-miterlimit="10" d="
		M715.882,1520.236c3.77,58.42,17.413,152.135,73.995,192.037c8.204,5.785,17.308,10.211,27.416,12.943
		c79.834,21.576,120.831,17.262,161.826-28.049c40.996-45.312,94.938-176.932,122.987-207.139"/>
	<path fill="none" stroke="#000000" stroke-width="30" stroke-linecap="round" stroke-linejoin="round" stroke-miterlimit="10" d="
		M780.612,1522.396c-6.473,34.521-8.63,88.072,0,91.504c8.631,3.432,47.469,55.217,116.515,40.113
		c69.045-15.104,58.371-22.215,73.539-56.777c16.647-37.934,25.714-74.84,32.188-96.418"/>
	<path stroke="#000000" stroke-width="30" stroke-linecap="round" stroke-linejoin="round" stroke-miterlimit="10" d="
		M704.015,1223.557c-36.696,0-80.786,78.307-106.805,106.805c-22.655,24.814,72.282,148.881,101.411,145.643
		c29.129-3.236,10.789-39.916,29.129-74.439c18.34-34.521,32.365-61.492,21.577-121.908
		C738.538,1219.242,724.513,1223.557,704.015,1223.557z"/>
	<path stroke="#000000" stroke-width="30" stroke-linecap="round" stroke-linejoin="round" stroke-miterlimit="10" d="
		M956.463,1258.08c-13.092,22.443,8.631,73.352,22.656,91.697c14.025,18.344,60.415,53.945,77.676,80.918
		c17.261,26.971,85.228-19.42,87.386-43.154c2.158-23.734-25.893-142.406-93.859-169.918
		C982.355,1190.113,964.015,1245.135,956.463,1258.08z"/>
	<path stroke="#000000" stroke-width="30" stroke-linecap="round" stroke-linejoin="round" stroke-miterlimit="10" d="
		M970.666,1597.236c-15.167,34.562-4.493,41.674-73.539,56.777c-69.046,15.104-107.884-36.682-116.515-40.113
		c22.019-22.018,77.677-18.145,97.096-13.828C897.127,1604.387,920.686,1578.453,970.666,1597.236z"/>
	<path fill="none" stroke="#000000" stroke-width="30" stroke-linecap="round" stroke-linejoin="round" stroke-miterlimit="10" d="
		M906.292,191.545c61.067-34.271,158.157-120.035,315.122-147.544c156.963-27.51,444.997,6.473,600.343,195.799
		c155.348,189.327,196.549,329.108,161.82,611.671c-18.227,148.288-67.874,280.036-124.153,382.869
		c-53.649,98.031-113.328,169.781-157.555,204.531"/>
	<path stroke="#000000" stroke-width="30" stroke-linecap="round" stroke-linejoin="round" stroke-miterlimit="10" d="
		M580.614,678.329c25.892-95.474,121.364-294.508,195.801-364.089c74.436-69.581,194.181-89,241.108-101.945
		c46.927-12.944,203.078-84.654,275.897-11.835c72.817,72.818,127.027,184.98,122.175,290.162
		c-4.854,105.182-19.419,267-17.801,325.254s17.914,305.833-31.496,344.67h-6.779c9.544,74.777,7.276,157.886,3.667,210.814
		c-6.474,94.938-79.712,187.77-132.126,228.145c-56.638,53.4-80.847,404.109-95.411,455.893
		c-14.563,51.781-80.909,199.035-82.528,262.143c-1.618,63.109,249.2,45.311,313.175,42.074s68.716-35.6,105.934-61.49
		c20.057-13.953,71.6-121.426,118.667-233.02c40.272-95.479,77.267-193.973,88.46-239.486
		c24.271-98.709,22.51-386.744,22.51-386.744c9.854-137.639,72.961-265.381,92.38-359.236
		c19.42-93.854,37.218-215.217-24.271-399.688c-61.491-184.472-199.036-388.362-338.199-472.507
		c-139.162-84.146-328.543-21.24-378.654-21.037c-50.11,0.204-176.381-3.236-223.308,25.891
		c-46.927,29.128-144.017,121.36-174.346,161.815c-30.329,40.454-105.598,218.453-120.161,265.38L580.614,678.329z"/>
	<path stroke="#000000" stroke-width="30" stroke-linecap="round" stroke-linejoin="round" stroke-miterlimit="10" d="
		M1701.868,1438.871c0,0,1.762,288.033-22.51,386.742c-11.193,45.514-48.188,144.01-88.46,239.488
		c47.468,9.709,69.041,11.328,104.64,0c35.601-11.326,129.455-42.07,126.218-129.453c-3.236-87.379,37.218-245.963,56.638-328.488
		c19.419-82.527,9.71-273.473-18.973-372.822l0.002,0.002C1805.772,1332.371,1746.093,1404.121,1701.868,1438.871z"/>
	<path stroke="#000000" stroke-width="30" stroke-linecap="round" stroke-linejoin="round" stroke-miterlimit="10" d="
		M986.777,1930.793c-40.454-93.854-30.311-172.91-16.112-224.877l8.453-8.748c28.072-16.59,93.721-34.361,152.935-54.012
		c6.653,44.406,18.159,72.426,21.396,106.406s9.709,108.416-63.109,160.199c-72.818,51.781-40.666,55.018-87.487,58.254
		L986.777,1930.793z"/>
	<path stroke="#000000" stroke-width="30" stroke-linecap="round" stroke-linejoin="round" stroke-miterlimit="10" d="
		M979.119,1697.168c-40.996,45.311-81.992,49.625-161.826,28.049c-10.108-2.732-19.214-7.158-27.416-12.943l0.002-0.004
		c-12.575-6.857-64.363-41.953-157.067-88.723c-51.012-25.734-89.152-56.24-117.421-88.229v-0.004
		c10.206,65.373,73.497,204.537,75.025,259.553c1.527,55.018,9.618,105.182,32.272,161.816
		c22.655,56.637,63.109,137.545,27.509,179.617c-35.6,42.074,40.455,42.074,72.819,45.311s263.55,0,279.838-35.6
		c16.289-35.6,24.378-121.365-16.076-215.219c-40.455-93.854-30.311-172.91-16.112-224.877L979.119,1697.168z"/>
</g>
</svg>
