<?xml version="1.0" encoding="utf-8"?>
<!-- Generator: Adobe Illustrator 16.0.0, SVG Export Plug-In . SVG Version: 6.00 Build 0)  -->
<!DOCTYPE svg PUBLIC "-//W3C//DTD SVG 1.1//EN" "http://www.w3.org/Graphics/SVG/1.1/DTD/svg11.dtd">
<svg version="1.1" id="Layer_1" xmlns="http://www.w3.org/2000/svg" xmlns:xlink="http://www.w3.org/1999/xlink" x="0px" y="0px"
	 width="2400px" height="2400px" viewBox="0 0 2400 2400" enable-background="new 0 0 2400 2400" xml:space="preserve">
<rect x="25" y="25" fill="none" stroke="#000000" stroke-width="30" stroke-linecap="round" stroke-miterlimit="10" width="2350" height="2350"/>
<g enable-background="new    ">
	<path d="M350.148,184.154v26.1L222.799,476.652h-40.95l126.899-258.748v-0.9H165.65v-32.85H350.148z"/>
	<path d="M513.492,476.652v-79.649H377.593v-26.1l130.499-186.749h42.75v181.799h40.95v31.05h-40.95v79.649H513.492z
		 M513.492,365.953v-97.649c0-15.3,0.45-30.6,1.35-45.899h-1.35c-9,17.1-16.2,29.699-24.3,43.199l-71.549,99.449v0.9H513.492z"/>
</g>
<g enable-background="new    ">
	<path d="M851.387,1539.08L644.026,665.572h211.249l66.096,360.29c19.44,103.68,37.584,216.433,51.84,304.561h2.592
		c14.256-94.608,34.992-199.584,57.024-307.153l73.872-357.697h209.953l69.984,368.065c19.44,102.385,33.696,195.697,46.656,292.897
		h2.592c12.961-97.2,32.4-199.585,50.545-303.266l71.279-357.697h200.881l-225.504,873.508h-213.842l-73.871-375.842
		c-16.849-88.128-31.105-169.776-41.473-269.568h-2.592c-15.552,98.496-29.809,181.44-50.544,269.568l-82.944,375.842H851.387z"/>
</g>
<g enable-background="new    ">
	<path d="M758.006,1687.5h-51.25V1669h124.75v18.5h-51.5v150h-22V1687.5z"/>
	<path d="M939.505,1804.5c0,12.5,0.25,23.5,1,33h-19.5l-1.25-19.75h-0.5c-5.75,9.75-18.5,22.5-40,22.5c-19,0-41.75-10.5-41.75-53
		v-70.75h22v67c0,23,7,38.5,27,38.5c14.75,0,25-10.25,29-20c1.25-3.25,2-7.25,2-11.25v-74.25h22V1804.5z"/>
	<path d="M976.003,1749.25c0-12.5-0.25-22.75-1-32.75h19.5l1.25,20h0.5c6-11.5,20-22.75,40-22.75c16.75,0,42.75,10,42.75,51.5v72.25
		h-22v-69.75c0-19.5-7.25-35.75-28-35.75c-14.5,0-25.75,10.25-29.5,22.5c-1,2.75-1.5,6.5-1.5,10.25v72.75h-22V1749.25z"/>
	<path d="M1219.002,1716.5c-0.5,8.75-1,18.5-1,33.25V1820c0,27.75-5.5,44.75-17.25,55.25c-11.75,11-28.75,14.5-44,14.5
		c-14.5,0-30.5-3.5-40.25-10l5.5-16.75c8,5,20.5,9.5,35.5,9.5c22.5,0,39-11.75,39-42.25v-13.5h-0.5
		c-6.75,11.25-19.75,20.25-38.5,20.25c-30,0-51.5-25.5-51.5-59c0-41,26.75-64.25,54.5-64.25c21,0,32.5,11,37.75,21h0.5l1-18.25
		H1219.002z M1196.252,1764.25c0-3.75-0.25-7-1.25-10c-4-12.75-14.75-23.25-30.75-23.25c-21,0-36,17.75-36,45.75
		c0,23.75,12,43.5,35.75,43.5c13.5,0,25.75-8.5,30.5-22.5c1.25-3.75,1.75-8,1.75-11.75V1764.25z"/>
	<path d="M1251.5,1815c6.5,4.25,18,8.75,29,8.75c16,0,23.5-8,23.5-18c0-10.5-6.25-16.25-22.5-22.25c-21.75-7.75-32-19.75-32-34.25
		c0-19.5,15.75-35.5,41.75-35.5c12.25,0,23,3.5,29.75,7.5l-5.5,16c-4.75-3-13.5-7-24.75-7c-13,0-20.25,7.5-20.25,16.5
		c0,10,7.25,14.5,23,20.5c21,8,31.75,18.5,31.75,36.5c0,21.25-16.5,36.25-45.25,36.25c-13.25,0-25.5-3.25-34-8.25L1251.5,1815z"/>
	<path d="M1379.998,1681.75v34.75h31.5v16.75h-31.5v65.25c0,15,4.25,23.5,16.5,23.5c5.75,0,10-0.75,12.75-1.5l1,16.5
		c-4.25,1.75-11,3-19.5,3c-10.25,0-18.5-3.25-23.75-9.25c-6.25-6.5-8.5-17.25-8.5-31.5v-66h-18.75v-16.75h18.75v-29
		L1379.998,1681.75z"/>
	<path d="M1446.998,1781c0.5,29.75,19.5,42,41.5,42c15.75,0,25.25-2.75,33.5-6.25l3.75,15.75c-7.75,3.5-21,7.5-40.25,7.5
		c-37.25,0-59.5-24.5-59.5-61s21.5-65.25,56.75-65.25c39.5,0,50,34.75,50,57c0,4.5-0.5,8-0.75,10.25H1446.998z M1511.498,1765.25
		c0.25-14-5.75-35.75-30.5-35.75c-22.25,0-32,20.5-33.75,35.75H1511.498z"/>
	<path d="M1559.996,1749.25c0-12.5-0.25-22.75-1-32.75h19.5l1.25,20h0.5c6-11.5,20-22.75,40-22.75c16.75,0,42.75,10,42.75,51.5
		v72.25h-22v-69.75c0-19.5-7.25-35.75-28-35.75c-14.5,0-25.75,10.25-29.5,22.5c-1,2.75-1.5,6.5-1.5,10.25v72.75h-22V1749.25z"/>
</g>
<g enable-background="new    ">
	<path d="M912.635,1995.5h-0.5l-28.25,15.25l-4.25-16.75l35.5-19h18.75v162.5h-21.25V1995.5z"/>
	<path d="M991.131,2096.25c0-20.5,12.25-35,32.25-43.5l-0.25-0.75c-18-8.5-25.75-22.5-25.75-36.5c0-25.75,21.75-43.25,50.25-43.25
		c31.5,0,47.25,19.75,47.25,40c0,13.75-6.75,28.5-26.75,38v0.75c20.25,8,32.75,22.25,32.75,42c0,28.25-24.25,47.25-55.25,47.25
		C1011.631,2140.25,991.131,2120,991.131,2096.25z M1078.631,2095.25c0-19.75-13.75-29.25-35.75-35.5c-19,5.5-29.25,18-29.25,33.5
		c-0.75,16.5,11.75,31,32.5,31C1065.881,2124.25,1078.631,2112,1078.631,2095.25z M1018.131,2014c0,16.25,12.25,25,31,30
		c14-4.75,24.75-14.75,24.75-29.5c0-13-7.75-26.5-27.5-26.5C1028.131,1988,1018.131,2000,1018.131,2014z"/>
	<path d="M1126.627,2112.25c6.25,4,20.75,10.25,36,10.25c28.25,0,37-18,36.75-31.5c-0.25-22.75-20.75-32.5-42-32.5h-12.25V2042
		h12.25c16,0,36.25-8.25,36.25-27.5c0-13-8.25-24.5-28.5-24.5c-13,0-25.5,5.75-32.5,10.75l-5.75-16c8.5-6.25,25-12.5,42.5-12.5
		c32,0,46.5,19,46.5,38.75c0,16.75-10,31-30,38.25v0.5c20,4,36.25,19,36.25,41.75c0,26-20.25,48.75-59.25,48.75
		c-18.25,0-34.25-5.75-42.25-11L1126.627,2112.25z"/>
	<path d="M1251.373,2124.5c0-9.25,6.25-15.75,15-15.75s14.75,6.5,14.75,15.75c0,9-5.75,15.75-15,15.75
		C1257.373,2140.25,1251.373,2133.5,1251.373,2124.5z"/>
	<path d="M1299.37,2096.25c0-20.5,12.25-35,32.25-43.5l-0.25-0.75c-18-8.5-25.75-22.5-25.75-36.5c0-25.75,21.75-43.25,50.25-43.25
		c31.5,0,47.25,19.75,47.25,40c0,13.75-6.75,28.5-26.75,38v0.75c20.25,8,32.75,22.25,32.75,42c0,28.25-24.25,47.25-55.25,47.25
		C1319.87,2140.25,1299.37,2120,1299.37,2096.25z M1386.87,2095.25c0-19.75-13.75-29.25-35.75-35.5c-19,5.5-29.25,18-29.25,33.5
		c-0.75,16.5,11.75,31,32.5,31C1374.12,2124.25,1386.87,2112,1386.87,2095.25z M1326.37,2014c0,16.25,12.25,25,31,30
		c14-4.75,24.75-14.75,24.75-29.5c0-13-7.75-26.5-27.5-26.5C1336.37,1988,1326.37,2000,1326.37,2014z"/>
	<path d="M1497.616,2137.5v-44.25h-75.5v-14.5l72.5-103.75h23.75v101h22.75v17.25h-22.75v44.25H1497.616z M1497.616,2076v-54.25
		c0-8.5,0.25-17,0.75-25.5h-0.75c-5,9.5-9,16.5-13.5,24l-39.75,55.25v0.5H1497.616z"/>
</g>
</svg>
