<?xml version="1.0" encoding="utf-8"?>
<!-- Generator: Adobe Illustrator 16.0.0, SVG Export Plug-In . SVG Version: 6.00 Build 0)  -->
<!DOCTYPE svg PUBLIC "-//W3C//DTD SVG 1.1//EN" "http://www.w3.org/Graphics/SVG/1.1/DTD/svg11.dtd">
<svg version="1.1" id="Layer_1" xmlns="http://www.w3.org/2000/svg" xmlns:xlink="http://www.w3.org/1999/xlink" x="0px" y="0px"
	 width="2400px" height="2400px" viewBox="0 0 2400 2400" enable-background="new 0 0 2400 2400" xml:space="preserve">
<g>
	<path fill="none" stroke="#000000" stroke-width="30" stroke-linecap="round" stroke-linejoin="round" stroke-miterlimit="10" d="
		M747.915,838.326c64.236-38.251,347.69-200.84,377.983-273.543c9.987-23.967-9.521-83.955,38.083-96.072l-0.59-43.075
		c0,0-33.692-56.943-25.376-90.215c6.059-24.234,37.312-30.579,52.638-31.818c5.748-0.465,17.32-0.465,23.068,0
		c15.327,1.239,46.579,7.583,52.638,31.818c8.316,33.272-25.376,90.215-25.376,90.215l-0.59,43.075
		c47.604,12.117,28.096,72.105,38.083,96.072c30.293,72.703,309.372,232.829,373.608,271.081"/>
	<g>
		<path fill="none" stroke="#000000" stroke-width="30" stroke-linecap="round" stroke-linejoin="round" stroke-miterlimit="10" d="
			M1604.957,1035.794v114.241c67.124,41.988,226.212,108.801,274.493,128.322"/>
		<path fill="none" stroke="#000000" stroke-width="30" stroke-linecap="round" stroke-linejoin="round" stroke-miterlimit="10" d="
			M520.55,1278.357c48.281-19.521,215.291-86.334,282.415-128.322v-114.241"/>
	</g>
	<g>
		<path fill="none" stroke="#000000" stroke-width="30" stroke-linecap="round" stroke-linejoin="round" stroke-miterlimit="10" d="
			M1805.52,1423.375l0.129,110.932c77.041,50.58,170.297,95.256,221.825,116.498"/>
		<path fill="none" stroke="#000000" stroke-width="30" stroke-linecap="round" stroke-linejoin="round" stroke-miterlimit="10" d="
			M372.526,1643.912c51.528-21.242,143.853-59.025,220.896-109.605l0.128-110.932"/>
	</g>
	<g>
		
			<line fill="none" stroke="#000000" stroke-width="30" stroke-linecap="round" stroke-linejoin="round" stroke-miterlimit="10" x1="1945.332" y1="1759.195" x2="1945.332" y2="2096.746"/>
		
			<line fill="none" stroke="#000000" stroke-width="30" stroke-linecap="round" stroke-linejoin="round" stroke-miterlimit="10" x1="454.668" y1="2096.746" x2="454.668" y2="1759.195"/>
	</g>
	<path fill="none" stroke="#000000" stroke-width="30" stroke-linecap="round" stroke-linejoin="round" stroke-miterlimit="10" d="
		M1600.007,1035.794c50.062,0,166.04-74.145,166.04-121.343c0-81.358-347.934-140.406-566.047-140.406
		c-218.114,0-566.047,64.819-566.047,140.406c0,45.993,133.084,121.343,162.331,121.343"/>
	<path fill="none" stroke="#000000" stroke-width="30" stroke-linecap="round" stroke-linejoin="round" stroke-miterlimit="10" d="
		M1286.966,943.275c113.943,8.419,267.968,33.818,314.03,92.519 M799.005,1035.794c36.049-55.748,192.947-82.484,311.257-91.873"/>
	<path fill="none" stroke="#000000" stroke-width="30" stroke-linecap="round" stroke-linejoin="round" stroke-miterlimit="10" d="
		M1610.393,1124.066"/>
	<path fill="none" stroke="#000000" stroke-width="30" stroke-linecap="round" stroke-linejoin="round" stroke-miterlimit="10" d="
		M597.354,1423.375c-47.932,0-163.336-43.814-163.336-91.746c0-81.357,547.867-131.558,765.981-131.558
		c218.113,0,765.981,51.931,765.981,131.558c0,46.518-93.476,91.746-156.658,91.746"/>
	<g>
		<path fill="none" stroke="#000000" stroke-width="30" stroke-linecap="round" stroke-linejoin="round" stroke-miterlimit="10" d="
			M1286.966,1057.523c113.943,8.419,273.161,33.818,319.223,92.519"/>
		<path fill="none" stroke="#000000" stroke-width="30" stroke-linecap="round" stroke-linejoin="round" stroke-miterlimit="10" d="
			M802.467,1150.042c36.049-55.748,189.485-82.484,307.795-91.873"/>
	</g>
	
		<rect x="1118.642" y="847.519" fill="none" stroke="#000000" stroke-width="30" stroke-linecap="round" stroke-linejoin="round" stroke-miterlimit="10" width="162.717" height="227.341"/>
	<path fill="none" stroke="#000000" stroke-width="30" stroke-linecap="round" stroke-linejoin="round" stroke-miterlimit="10" d="
		M464.065,1757.463c-30.912,0-165.933-27.033-165.933-74.434c0-67.51,674.123-95.207,901.867-95.207
		c226.359,0,901.867,38.877,901.867,95.207c0,43.348-115.979,74.434-147.138,74.434"/>
	<path fill="none" stroke="#000000" stroke-width="30" stroke-linecap="round" stroke-linejoin="round" stroke-miterlimit="10" d="
		M594.016,1423.375c63.781-65.779,460.162-91.746,605.984-91.746c151.849,0,520.43,17.16,605.984,91.746"/>
	<path fill="none" stroke="#000000" stroke-width="30" stroke-linecap="round" stroke-linejoin="round" stroke-miterlimit="10" d="
		M592.285,1535.891c63.781-65.779,461.893-91.744,607.715-91.744c151.849,0,522.161,17.16,607.715,91.744"/>
	<path fill="none" stroke="#000000" stroke-width="30" stroke-linecap="round" stroke-linejoin="round" stroke-miterlimit="10" d="
		M454.668,1759.195c102.27-71.826,565.512-63.383,745.332-63.383c196.013,0,652.406-0.059,745.332,63.383"/>
	<g>
		
			<line fill="none" stroke="#000000" stroke-width="30" stroke-linecap="round" stroke-linejoin="round" stroke-miterlimit="10" x1="981.886" y1="1695.754" x2="981.886" y2="2096.746"/>
		
			<line fill="none" stroke="#000000" stroke-width="30" stroke-linecap="round" stroke-linejoin="round" stroke-miterlimit="10" x1="1418.113" y1="1697.605" x2="1418.113" y2="2096.746"/>
	</g>
	<g>
		
			<line fill="none" stroke="#000000" stroke-width="30" stroke-linecap="round" stroke-linejoin="round" stroke-miterlimit="10" x1="626.909" y1="1713.34" x2="626.909" y2="2096.746"/>
		
			<line fill="none" stroke="#000000" stroke-width="30" stroke-linecap="round" stroke-linejoin="round" stroke-miterlimit="10" x1="1773.092" y1="1717.119" x2="1773.092" y2="2096.746"/>
	</g>
	
		<line fill="none" stroke="#000000" stroke-width="30" stroke-linecap="round" stroke-linejoin="round" stroke-miterlimit="10" x1="1171.191" y1="468.71" x2="1247.604" y2="468.71"/>
	
		<rect x="1088.338" y="1803.949" fill="none" stroke="#000000" stroke-width="30" stroke-linecap="round" stroke-linejoin="round" stroke-miterlimit="10" width="223.324" height="292.797"/>
	
		<rect x="729.09" y="1850.691" fill="none" stroke="#000000" stroke-width="30" stroke-linecap="round" stroke-linejoin="round" stroke-miterlimit="10" width="150.614" height="246.055"/>
	
		<rect x="1520.295" y="1850.691" fill="none" stroke="#000000" stroke-width="30" stroke-linecap="round" stroke-linejoin="round" stroke-miterlimit="10" width="150.616" height="246.055"/>
	
		<line fill="none" stroke="#000000" stroke-width="30" stroke-linecap="round" stroke-linejoin="round" stroke-miterlimit="10" x1="15" y1="2096.746" x2="2385" y2="2096.746"/>
</g>
</svg>
