<?xml version="1.0" encoding="utf-8"?>
<!-- Generator: Adobe Illustrator 16.0.0, SVG Export Plug-In . SVG Version: 6.00 Build 0)  -->
<!DOCTYPE svg PUBLIC "-//W3C//DTD SVG 1.1//EN" "http://www.w3.org/Graphics/SVG/1.1/DTD/svg11.dtd">
<svg version="1.1" id="Layer_1" xmlns="http://www.w3.org/2000/svg" xmlns:xlink="http://www.w3.org/1999/xlink" x="0px" y="0px"
	 width="2400px" height="2880px" viewBox="0 0 2400 2880" enable-background="new 0 0 2400 2880" xml:space="preserve">
<g>
	<g>
		<path d="M85.481,2739.521c-5.721,36.961-14.96,78.322-24.2,105.602c-3.96-1.76-12.761-5.279-17.601-7.041
			c10.561-27.279,18.04-66.439,23.32-102.08L85.481,2739.521z M173.481,2621.162c13.641,28.16,26.841,64.68,31.681,86.24l-18.04,6.6
			c-1.32-6.6-3.521-14.52-6.16-23.32c-107.36,16.281-119.681,19.361-127.161,23.32c-1.319-4.84-4.399-14.959-6.6-20.24
			c7.92-1.76,18.04-13.639,30.8-29.92c7.48-8.801,23.761-30.801,41.801-58.52c-53.681,6.6-62.921,8.359-68.641,11
			c-1.32-4.4-3.96-14.521-6.601-20.24c6.601-1.32,14.521-11,23.761-24.641c9.68-13.199,42.24-65.121,61.16-113.08l19.36,8.359
			c-21.12,44.881-47.08,90.641-73.041,124.961l56.32-4.84c11.881-19.359,23.761-40.48,33.881-61.16l18.92,9.68
			c-31.24,55-66.44,109.561-102.521,151.801l92.84-12.76c-5.279-16.721-11.88-33.441-18.92-47.961L173.481,2621.162z
			 M129.922,2734.682c5.279,29.922,11,68.641,12.319,94.162l-18.04,3.959c-0.88-25.959-6.16-65.121-11-94.6L129.922,2734.682z
			 M177.441,2725.002c11,27.281,22.44,62.92,27.28,85.801l-17.16,5.279c-4.84-23.318-16.28-58.959-25.96-86.24L177.441,2725.002z
			 M437.483,2823.123H256.643v33.439h-19.801v-269.281c-9.68,15.84-20.24,30.801-31.24,44.441c-2.64-4.4-8.8-12.762-12.76-16.721
			c34.76-40.92,64.24-103.84,79.2-153.561l21.12,5.279c-7.92,22.881-18.04,47.08-29.479,71.281h167.641v19.799h-80.961v66.002
			h72.601v19.799h-72.601v67.76h73.48v19.801h-73.48v72.16h87.121V2823.123z M330.562,2557.801h-73.92v66.002h73.92V2557.801z
			 M330.562,2643.602h-73.92v67.76h73.92V2643.602z M256.643,2803.322h73.92v-72.16h-73.92V2803.322z M342.883,2529.641
			c-5.721-16.279-19.36-42.68-29.92-61.6l18.04-7.041c11.439,19.361,24.64,44.441,30.359,60.281L342.883,2529.641z"/>
		<path d="M779.803,2690.242c24.2,33.881,65.12,64.24,104.721,78.32c-4.84,3.961-11,11-14.521,16.279
			c-43.12-17.6-87.12-54.559-112.641-94.6H610.401c-26.399,42.24-72.16,80.961-113.521,100.76c-3.52-5.279-9.68-12.318-14.96-16.279
			c38.721-15.84,79.641-48.84,105.601-84.48H486.761v-18.92h89.32v-146.521h-70.4v-18.92h70.4v-47.961h21.12v47.961h172.481v-47.52
			h21.12v47.52h69.96v18.92h-69.96v146.521h88v18.92H779.803z M692.242,2825.764h156.201v18.92H518.001v-18.92h153.561v-57.201
			h-97.24v-18.92h97.24v-42.68h20.681v42.68h99.44v18.92h-99.44V2825.764z M597.201,2524.801v35.641h172.481v-35.641H597.201z
			 M597.201,2615.441h172.481v-37.4H597.201V2615.441z M597.201,2671.322h172.481v-38.281H597.201V2671.322z"/>
		<path d="M1130.922,2503.682c-5.72,24.639-12.32,52.799-18.479,74.801h154.001v279.4h-21.561v-29.92h-238.481v29.92h-20.68v-279.4
			h106.04c5.72-21.561,11.88-50.602,15.4-74.801H932.041v-20.68h381.042v20.68H1130.922z M1244.883,2598.721h-238.481v92.842
			h238.481V2598.721z M1244.883,2807.723v-95.92h-238.481v95.92H1244.883z"/>
		<path d="M1464.442,2612.801c14.08,16.281,54.12,69.521,63.8,83.162l-14.08,16.719c-8.359-15.84-33-52.799-49.72-76.119v219.121
			h-20.681v-216.041c-19.8,50.16-47.52,102.08-73.48,131.561c-2.199-5.721-7.92-13.641-11.88-18.041
			c29.92-32.561,63.801-95.92,82.28-150.92h-75.24v-20.24h78.32v-76.561c-22.439,4.84-46.2,8.799-67.32,12.32
			c-1.319-4.84-4.399-11.881-7.04-16.721c49.28-8.359,108.241-20.68,139.921-35.641l14.08,17.16
			c-16.28,6.6-36.521,12.76-58.96,18.041v81.4h69.521v20.24h-69.521V2612.801z M1704.243,2738.643v117.48h-20.68v-114.4
			l-150.48,23.32l-3.521-19.801l154.001-23.76V2457.92h20.68v260.482l56.32-8.801l3.08,19.361L1704.243,2738.643z
			 M1633.843,2680.562c-17.6-18.92-52.8-45.76-82.72-62.92l12.76-12.762c29.92,16.721,66,42.682,83.16,61.162L1633.843,2680.562z
			 M1642.644,2564.402c-14.521-18.041-46.641-43.561-73.48-60.281l13.2-13.199c27.72,15.84,59.399,40.479,74.36,58.52
			L1642.644,2564.402z"/>
	</g>
	<g>
		<path d="M1987.179,2848.01h-81.475v-223.066l0.791-36.65l1.318-40.078c-13.539,13.539-22.939,22.412-28.213,26.631l-44.297,35.596
			l-39.287-49.043l124.189-98.877h66.973V2848.01z"/>
		<path d="M2234.239,2601.74c37.264,0,66.928,10.461,88.988,31.377c22.059,20.922,33.092,49.57,33.092,85.957
			c0,43.07-13.275,76.201-39.814,99.404c-26.545,23.203-64.514,34.805-113.906,34.805c-42.893,0-77.52-6.941-103.887-20.83v-70.4
			c13.883,7.383,30.059,13.406,48.516,18.062c18.457,4.658,35.945,6.986,52.471,6.986c49.742,0,74.619-20.389,74.619-61.172
			c0-38.846-25.754-58.271-77.256-58.271c-9.32,0-19.604,0.924-30.85,2.77c-11.252,1.846-20.395,3.822-27.422,5.932l-32.432-17.402
			l14.502-196.436h209.092v69.082h-137.637l-7.119,75.674l9.229-1.846C2205.144,2602.973,2218.419,2601.74,2234.239,2601.74z"/>
	</g>
</g>
</svg>
